<svg width="24" height="24" viewBox="0 0 24 24" fill="none" xmlns="http://www.w3.org/2000/svg">
<rect width="24" height="24" fill="#E1DCD8"/>
<path d="M12 20H16.2995C16.6905 20 17.0456 19.7721 17.2086 19.4167L18.647 16.2785C18.8507 15.8342 18.7033 15.3077 18.2986 15.0337L15.5523 13.1747C15.3943 13.0678 15.1899 13.0616 15.02 13.1485C14.0875 13.6254 13.0522 13.8753 12 13.8753C10.9478 13.8753 9.91239 13.6253 8.97991 13.1484C8.81006 13.0615 8.60572 13.0678 8.44773 13.1747L5.70159 15.0332C5.29672 15.3072 5.14931 15.8337 5.35305 16.2781L6.79139 19.4153C6.95433 19.7707 7.30944 19.9985 7.70041 19.9985H12" fill="#85776A"/>
<path d="M12 20H16.2995C16.6905 20 17.0456 19.7721 17.2086 19.4167L18.647 16.2785C18.8507 15.8342 18.7033 15.3077 18.2986 15.0337L15.5523 13.1747C15.3943 13.0678 15.1899 13.0616 15.02 13.1485C14.0875 13.6254 13.0522 13.8753 12 13.8753C10.9478 13.8753 9.91239 13.6253 8.97991 13.1484C8.81006 13.0615 8.60572 13.0678 8.44773 13.1747L5.70159 15.0332C5.29672 15.3072 5.14931 15.8337 5.35305 16.2781L6.79139 19.4153C6.95433 19.7707 7.30944 19.9985 7.70041 19.9985H12" stroke="#85776A" stroke-width="1.5"/>
<path d="M12 11C13.933 11 15.5 9.433 15.5 7.5C15.5 5.567 13.933 4 12 4C10.067 4 8.5 5.567 8.5 7.5C8.5 9.433 10.067 11 12 11Z" fill="#85776A" stroke="#85776A" stroke-width="1.5"/>
</svg>
