<svg width="40" height="16" viewBox="0 0 40 16" fill="none" xmlns="http://www.w3.org/2000/svg">
<path fill-rule="evenodd" clip-rule="evenodd" d="M23.9195 3.32C23.7945 3.445 23.6345 3.565 23.4395 3.67C23.2995 3.75 23.1145 3.835 22.8895 3.93C22.6945 4.005 22.5045 4.08 22.3095 4.155C22.1145 4.23 21.9445 4.325 21.7895 4.43C21.8745 4.285 22.0045 4.15 22.1695 4.035C22.3345 3.92 22.5245 3.82 22.7395 3.74C23.1345 3.6 23.5245 3.46 23.9195 3.32ZM28.8195 5.27C28.7245 4.955 28.5645 4.505 28.3395 3.91C28.2195 3.595 28.1195 3.335 28.0395 3.13C28.0245 3.155 27.9545 3.27 27.8195 3.47C27.7245 3.61 27.6795 3.73 27.6795 3.83C27.6795 3.905 27.7045 3.975 27.7595 4.05C27.7595 4.49 27.7895 5.025 27.8445 5.655C27.8995 6.285 27.9545 6.895 28.0095 7.48C28.0645 8.065 28.0895 8.62 28.0895 9.14C27.7295 9.14 27.3445 9.1 26.9295 9.02C26.6545 8.965 26.0545 8.81 25.1295 8.55C25.2245 8.355 25.2845 8.165 25.3195 7.98C25.3545 7.795 25.3695 7.59 25.3695 7.37C25.3695 7.065 25.3045 6.58 25.1745 5.915C25.0445 5.25 24.9795 4.755 24.9795 4.43C25.0395 4.51 25.1095 4.6 25.1845 4.705C25.2595 4.81 25.3145 4.875 25.3395 4.9C25.3045 4.635 25.2195 4.315 25.0795 3.94C24.9845 3.685 24.8545 3.375 24.6795 3C24.5795 3.075 24.4945 3.185 24.4295 3.33C24.3845 3.465 24.3345 3.595 24.2895 3.72C24.3245 3.985 24.4245 4.535 24.5895 5.36C24.8245 6.54 24.9395 7.445 24.9395 8.08C24.6195 8.125 24.2495 8.15 23.8295 8.15H22.8795C22.7845 8.275 22.7095 8.41 22.6545 8.55C22.5995 8.69 22.5695 8.825 22.5695 8.96C22.6345 8.955 22.7345 8.95 22.8595 8.95C23.2045 8.95 23.6095 9.015 24.0695 9.14C24.3245 9.205 24.7045 9.315 25.2095 9.47C24.7495 9.685 24.2945 9.895 23.8395 10.1C23.2995 10.335 22.8195 10.45 22.3995 10.45C22.3245 10.45 22.2645 10.45 22.2145 10.445C22.1645 10.445 22.1145 10.435 22.0595 10.43C21.8445 10.395 21.6545 10.28 21.4895 10.08C21.3495 9.915 21.2445 9.715 21.1695 9.49L20.2295 3.32L20.1595 3.2C20.0995 3.255 20.0495 3.32 20.0045 3.4C19.9595 3.48 19.8995 3.605 19.8195 3.77L20.5095 7.85C20.5845 8.435 20.6595 9.02 20.7395 9.6C20.8445 10.28 21.0945 10.785 21.4895 11.12C21.7345 11.185 21.9845 11.22 22.2295 11.22C22.5445 11.22 22.8445 11.175 23.1295 11.085C23.4145 10.995 23.7295 10.865 24.0695 10.7C24.2695 10.605 24.5695 10.455 24.9695 10.25C25.5645 9.975 26.0995 9.84 26.5795 9.84C26.6045 9.84 26.6495 9.84 26.7095 9.83C26.7895 9.83 26.9395 9.845 27.1545 9.875C27.3695 9.905 27.5345 9.92 27.6395 9.92C27.7145 9.92 27.7895 9.91 27.8745 9.89C27.9595 9.87 28.0295 9.84 28.0895 9.8C28.0895 10.12 28.0745 10.43 28.0395 10.735C28.0045 11.04 27.9545 11.32 27.8795 11.58C28.0945 11.105 28.2395 10.62 28.3195 10.12C28.3995 9.62 28.4395 9.055 28.4395 8.43C28.4395 8.11 28.4195 7.69 28.3795 7.17C28.2945 6.05 28.2495 5.365 28.2495 5.11L28.3895 4.95C28.3895 4.95 28.4495 5.045 28.5295 5.18C28.5845 5.275 28.6445 5.335 28.7095 5.37L28.8195 5.27ZM23.6095 6.33C23.5845 6.545 23.5045 6.725 23.3795 6.87C23.2795 6.895 23.1995 6.88 23.1445 6.815C23.0895 6.75 23.0545 6.675 23.0395 6.58C23.0395 6.275 23.1145 5.995 23.2595 5.74C23.2345 5.915 23.2095 6.085 23.1895 6.25C23.1895 6.33 23.1995 6.395 23.2145 6.445C23.2295 6.495 23.2645 6.54 23.3195 6.58C23.3995 6.6 23.4595 6.58 23.4945 6.515C23.5295 6.45 23.5695 6.39 23.6095 6.33ZM21.9895 6.47C21.9345 6.735 21.8445 7.025 21.7095 7.34C21.7895 7.055 21.8295 6.775 21.8295 6.51C21.8295 6.285 21.8045 6.08 21.7545 5.905C21.7045 5.73 21.6145 5.565 21.4895 5.41C21.4745 5.37 21.4845 5.33 21.5095 5.295C21.5345 5.26 21.5645 5.22 21.5995 5.18C21.7595 5.295 21.8695 5.48 21.9295 5.74C21.9695 5.92 21.9895 6.165 21.9895 6.47ZM19.3095 5.22C19.2845 5.355 19.2245 5.49 19.1295 5.63C19.0745 5.71 19.0245 5.785 18.9695 5.86C18.8695 5.86 18.7595 5.825 18.6395 5.76C18.4645 5.665 18.3645 5.615 18.3295 5.6L18.7495 5L19.3095 5.22ZM25.7395 11.81C25.6545 11.965 25.5645 12.12 25.4795 12.28C25.4145 12.38 25.3345 12.445 25.2495 12.47C25.2145 12.43 25.1195 12.37 24.9545 12.295C24.7895 12.22 24.7095 12.135 24.7095 12.04L25.1695 11.56L25.7395 11.81ZM18.6595 3.47C18.5195 3.635 18.2645 3.775 17.8995 3.89C17.3945 4.045 17.0895 4.145 16.9895 4.2C16.6045 4.34 16.3145 4.445 16.1195 4.51C15.7745 4.635 15.4945 4.755 15.2795 4.87C15.2795 4.815 15.3095 4.755 15.3695 4.685C15.4295 4.615 15.4895 4.56 15.5495 4.52C16.5845 4.175 17.6195 3.825 18.6595 3.47ZM19.9995 5.97C19.9145 6.125 19.8495 6.235 19.8095 6.31C19.7345 6.445 19.6595 6.555 19.5795 6.64L18.8895 6.33C18.7845 6.645 18.6095 6.8 18.3695 6.8C18.2095 6.8 18.0345 6.735 17.8395 6.61C17.8595 6.495 17.9095 6.375 17.9895 6.24C18.0495 6.145 18.1395 6.035 18.2595 5.9C18.3045 5.935 18.4095 5.975 18.5695 6.025C18.7295 6.075 18.8445 6.135 18.9195 6.21L19.4395 5.64C19.4395 5.64 19.5645 5.705 19.7995 5.82C19.8995 5.865 19.9645 5.915 19.9995 5.97ZM16.9495 5.57C16.9095 5.575 16.8795 5.6 16.8595 5.64C16.8395 5.68 16.8145 5.73 16.7895 5.79C16.7245 5.755 16.6795 5.725 16.6595 5.69C16.6195 5.63 16.5995 5.555 16.5995 5.46C16.5995 5.365 16.6395 5.2 16.7195 4.965C16.7995 4.73 16.8295 4.555 16.8095 4.45C16.7945 4.495 16.7245 4.705 16.5895 5.07C16.4945 5.325 16.4495 5.535 16.4495 5.7C16.4495 5.835 16.4745 5.955 16.5195 6.07C16.5995 6.095 16.6545 6.11 16.6795 6.11C16.7345 6.11 16.7745 6.08 16.8095 6.02C16.9245 5.9 16.9695 5.75 16.9495 5.57ZM24.2095 12.27C24.1045 12.43 23.9545 12.56 23.7595 12.66C23.5645 12.76 23.3645 12.81 23.1595 12.81C23.0845 12.81 23.0295 12.81 22.9895 12.8C22.9445 12.8 22.8995 12.795 22.8595 12.78C22.7645 12.745 22.7045 12.695 22.6695 12.62C22.6845 12.505 22.7245 12.405 22.7995 12.31C22.8995 12.185 23.0545 12.065 23.2595 11.96C23.2345 11.915 23.1945 11.885 23.1445 11.875C23.0945 11.865 23.0195 11.86 22.9195 11.86L22.8995 11.88C22.8645 11.855 22.8695 11.82 22.9095 11.785C22.9495 11.75 22.9695 11.72 22.9695 11.7C23.0295 11.635 23.0945 11.6 23.1695 11.6C23.2295 11.6 23.3045 11.625 23.3895 11.67C23.4295 11.69 23.4945 11.73 23.5895 11.79C23.5345 11.895 23.4145 12.01 23.2245 12.13C23.0345 12.25 22.9245 12.355 22.8995 12.45C23.0245 12.525 23.1695 12.56 23.3295 12.56C23.4695 12.56 23.6095 12.535 23.7545 12.48C23.8995 12.425 24.0495 12.355 24.2095 12.27ZM15.0495 4.01C15.0095 4.135 14.9795 4.23 14.9545 4.295C14.9295 4.36 14.8995 4.405 14.8595 4.43C14.7595 4.375 14.6595 4.35 14.5595 4.35C14.3945 4.35 14.2145 4.435 14.0295 4.61C13.5095 5.095 13.2245 5.35 13.1695 5.37L12.4495 5.76L14.2495 4.26C14.2295 4.235 14.1845 4.21 14.1095 4.185C14.0345 4.16 13.9895 4.145 13.9695 4.13C13.9695 3.95 13.9995 3.775 14.0595 3.61C14.0995 3.51 14.1795 3.35 14.2995 3.13C14.4845 3.21 14.6595 3.33 14.8145 3.495C14.9695 3.66 15.0495 3.83 15.0495 4.01ZM16.8095 7.59C16.7745 7.655 16.7595 7.705 16.7595 7.73C16.7245 7.73 16.6795 7.72 16.6195 7.705C16.5595 7.69 16.5195 7.68 16.4995 7.68C16.4745 7.68 16.4445 7.69 16.4095 7.71C16.3695 7.81 16.3345 7.945 16.3095 8.12C16.2445 8.585 16.2045 8.825 16.1995 8.84C16.1245 8.76 16.0495 8.62 15.9645 8.425C15.8795 8.23 15.8045 8.09 15.7395 8.01C15.7195 8.065 15.6895 8.09 15.6495 8.09C15.6245 8.09 15.5795 8.075 15.5245 8.04C15.4695 8.005 15.4345 7.99 15.4195 7.99C15.3945 7.945 15.3795 7.895 15.3795 7.84C15.3795 7.8 15.3895 7.75 15.4045 7.69C15.4195 7.63 15.4445 7.575 15.4695 7.52C15.5045 7.48 15.5445 7.46 15.5895 7.46C15.6095 7.46 15.6445 7.475 15.6995 7.5C15.7795 7.605 15.8645 7.745 15.9595 7.91C15.9995 7.975 16.0695 8.115 16.1695 8.32C16.2095 8.075 16.2445 7.895 16.2695 7.78C16.3245 7.575 16.4245 7.435 16.5695 7.36C16.6245 7.38 16.6795 7.4 16.7445 7.415C16.8095 7.43 16.8395 7.465 16.8395 7.51C16.8395 7.53 16.8295 7.555 16.8095 7.59ZM15.2595 6C15.2595 6 15.1645 5.915 14.9995 5.81C14.9195 5.755 14.8345 5.7 14.7395 5.64L14.1995 6.26C14.1045 6.175 13.9945 6.105 13.8595 6.05C13.7245 5.995 13.5945 5.945 13.4695 5.9C13.3345 6.125 13.2495 6.28 13.2145 6.365C13.1795 6.45 13.1495 6.54 13.1295 6.64C13.3245 6.74 13.5145 6.835 13.7095 6.93C13.8045 6.93 13.8895 6.855 13.9695 6.7C14.0745 6.495 14.1445 6.37 14.1795 6.33L14.8895 6.7C14.9845 6.565 15.0595 6.45 15.1145 6.345C15.1695 6.24 15.2195 6.125 15.2595 6ZM20.2995 11.9C20.2545 12.005 20.1845 12.095 20.0995 12.16C20.0145 12.225 19.8995 12.285 19.7645 12.34C19.6295 12.395 19.5245 12.43 19.4495 12.45C19.3245 12.495 19.2145 12.545 19.1295 12.59C19.1745 12.495 19.2445 12.415 19.3395 12.345C19.4345 12.275 19.5445 12.215 19.6745 12.16C19.8045 12.105 19.9045 12.065 19.9795 12.04C20.1345 11.98 20.2395 11.935 20.2995 11.9ZM19.3595 10.83C19.5195 10.455 19.5995 10.065 19.5995 9.65C19.5995 9.445 19.5745 9.245 19.5195 9.05C19.4645 8.855 19.3845 8.69 19.2695 8.55L19.0895 9.22C19.1045 9.32 19.1395 9.465 19.1995 9.66C19.2595 9.855 19.2945 10 19.3095 10.1C19.2245 10.185 19.1245 10.24 19.0095 10.26C18.9845 10.26 18.9445 10.265 18.8995 10.28C18.8545 10.295 18.7845 10.3 18.6895 10.3C18.3345 10.3 18.0395 10.17 17.7995 9.91C17.7945 9.835 17.8095 9.725 17.8495 9.57C17.8695 9.495 17.8795 9.44 17.8795 9.4C17.7795 9.505 17.6195 9.695 17.3995 9.96C17.0395 10.345 16.6895 10.54 16.3495 10.54C16.2845 10.54 16.2345 10.54 16.1995 10.53C15.8445 10.53 15.5145 10.355 15.1995 10C15.1845 9.985 14.9645 9.675 14.5295 9.07C14.2645 9.155 14.0395 9.305 13.8595 9.51C13.7195 9.665 13.5795 9.885 13.4395 10.17C13.2395 10.55 13.1095 10.785 13.0495 10.88C12.8845 11.145 12.7095 11.35 12.5295 11.49C12.4645 11.505 12.4095 11.51 12.3695 11.51C12.2095 11.51 12.0745 11.455 11.9695 11.35C11.7295 11.145 11.5545 10.895 11.4445 10.605C11.3345 10.315 11.2795 10.005 11.2795 9.68C11.2795 9.355 11.3295 9.02 11.4295 8.72L11.7895 8.7C11.9445 8.555 12.0545 8.37 12.1295 8.15C12.1845 7.985 12.2245 7.765 12.2495 7.5C12.2045 7.495 12.1745 7.505 12.1645 7.54C12.1545 7.575 12.1445 7.615 12.1395 7.66C12.0945 7.745 12.0345 7.815 11.9695 7.865C11.9045 7.915 11.8245 7.925 11.7395 7.89C11.6345 7.745 11.5545 7.595 11.5045 7.45C11.4545 7.305 11.4295 7.155 11.4295 7C11.4295 6.635 11.6245 6.11 12.0195 5.43C12.2545 5.025 12.4045 4.73 12.4795 4.55C12.3245 4.655 12.1545 4.865 11.9695 5.18C11.8345 5.405 11.7495 5.545 11.7095 5.6C11.5095 5.98 11.3645 6.305 11.2695 6.57C11.1295 6.955 11.0595 7.305 11.0595 7.62C11.0595 8.025 11.1695 8.38 11.3895 8.68C11.2545 8.94 11.1595 9.2 11.0945 9.46C11.0295 9.72 10.9995 9.99 10.9995 10.27C10.9995 10.665 11.0795 11.035 11.2395 11.39C11.3945 11.67 11.5545 11.885 11.7195 12.04C11.9545 12.255 12.1945 12.36 12.4495 12.36C12.6645 12.24 12.8495 12.055 13.0095 11.81C13.0745 11.705 13.1945 11.475 13.3595 11.12C13.4945 10.82 13.6195 10.585 13.7395 10.42C13.9145 10.18 14.1145 10.005 14.3395 9.89C14.4595 9.97 14.5495 10.08 14.6095 10.22C14.7545 10.54 14.9695 10.81 15.2495 11.025C15.5295 11.24 15.8345 11.35 16.1695 11.35C16.4495 11.35 16.7195 11.255 16.9795 11.07C17.2045 10.91 17.3945 10.695 17.5495 10.43C17.5695 10.555 17.6445 10.685 17.7795 10.81C17.8945 10.915 18.0145 10.995 18.1395 11.05C18.1845 11.055 18.2545 11.065 18.3445 11.075C18.4345 11.085 18.5145 11.09 18.5895 11.09C18.7345 11.09 18.8795 11.07 19.0195 11.025C19.1595 10.98 19.2745 10.915 19.3595 10.83ZM18.7795 12.24C18.7345 12.34 18.6645 12.445 18.5795 12.55C18.4945 12.655 18.3995 12.765 18.2995 12.87C18.1045 12.79 17.9645 12.73 17.8695 12.69C17.6945 12.615 17.5795 12.535 17.5195 12.45L16.9595 13C16.9345 12.965 16.8545 12.925 16.7245 12.875C16.5945 12.825 16.4845 12.785 16.3895 12.75C16.3895 12.645 16.4345 12.535 16.5295 12.42C16.6245 12.305 16.7145 12.195 16.8095 12.09C16.9295 12.09 17.0595 12.12 17.1995 12.18C17.2945 12.22 17.4145 12.285 17.5695 12.38L18.1095 11.86C18.1745 11.885 18.2545 11.925 18.3495 11.98C18.4895 12.065 18.6345 12.155 18.7795 12.24ZM13.2595 8.55C13.2645 8.605 13.2695 8.645 13.2695 8.67C13.2695 8.755 13.2595 8.83 13.2345 8.895C13.2095 8.96 13.1645 9.015 13.0995 9.07C13.0245 9.095 12.9645 9.09 12.9145 9.055C12.8645 9.02 12.8295 8.975 12.8145 8.92C12.7995 8.865 12.7895 8.805 12.7895 8.73C12.7895 8.57 12.8295 8.395 12.9045 8.21C12.9795 8.025 13.0545 7.84 13.1295 7.66C13.1445 7.755 13.1145 7.895 13.0445 8.085C12.9745 8.275 12.9395 8.405 12.9395 8.48C12.9395 8.545 12.9495 8.6 12.9695 8.645C12.9895 8.69 13.0345 8.73 13.0995 8.77C13.1395 8.755 13.1645 8.715 13.1795 8.65C13.1945 8.585 13.2195 8.55 13.2595 8.55ZM14.5295 12.08C14.5095 12.165 14.4745 12.26 14.4295 12.355C14.3845 12.45 14.3295 12.54 14.2695 12.62C14.2145 12.62 14.1695 12.6 14.1245 12.555C14.0795 12.51 14.0545 12.465 14.0445 12.42C14.0345 12.375 14.0295 12.32 14.0295 12.26C14.0295 12.175 14.0545 12.065 14.0995 11.93C14.1445 11.795 14.1795 11.695 14.1995 11.63C14.1795 11.75 14.1645 11.875 14.1495 12C14.1495 12.135 14.1845 12.23 14.2495 12.29L14.3095 12.32C14.3495 12.315 14.3945 12.26 14.4395 12.16C14.4645 12.105 14.4945 12.08 14.5295 12.08ZM14.8595 4.1L14.6495 3.77C14.6145 3.835 14.5995 3.885 14.5995 3.91C14.5995 3.95 14.6145 3.985 14.6395 4.01C14.6995 4.07 14.7745 4.1 14.8595 4.1ZM14.4295 3.94C14.4345 3.895 14.4295 3.855 14.4045 3.82C14.3795 3.785 14.3495 3.755 14.3095 3.73C14.2145 3.695 14.1595 3.73 14.1395 3.84C14.1745 3.865 14.2245 3.89 14.2945 3.905C14.3645 3.92 14.4095 3.935 14.4295 3.94Z" fill="currentColor"/>
</svg>
