<svg width="40" height="16" viewBox="0 0 40 16" fill="none" xmlns="http://www.w3.org/2000/svg">
<path fill-rule="evenodd" clip-rule="evenodd" d="M27.3829 5.88222L27.0595 5.37413C26.9718 5.5127 26.9256 5.65589 26.9256 5.79446V5.89607C26.9395 5.92379 26.9487 5.94226 26.9487 5.9515C26.9487 6.26097 26.9764 6.63511 27.0365 7.06929C27.175 8.09469 27.2489 8.75519 27.2489 9.04157C27.2489 9.72055 27.2258 10.2286 27.1843 10.5612C27.1104 11.1062 26.9579 11.5774 26.7316 11.97C26.8055 11.7621 26.8609 11.5127 26.8979 11.2217C26.9348 10.9307 26.9533 10.649 26.9533 10.3718C26.9533 10.224 26.9487 10.0624 26.9348 9.89145C26.9256 9.71593 26.9164 9.58198 26.9071 9.48498L26.5191 5.16167C26.4729 5.02772 26.4545 4.89377 26.4545 4.75058C26.4545 4.45497 26.5561 4.18245 26.7639 3.92841C26.8979 4.24712 27.0318 4.57968 27.175 4.9261C27.3136 5.27252 27.3875 5.59123 27.3875 5.8776L27.3829 5.88222ZM22.7593 3.08776C22.5838 3.21247 22.3344 3.33719 22.0157 3.46652C21.2489 3.76213 20.8147 3.93765 20.7178 3.99769C20.8887 3.81293 21.1242 3.65589 21.4291 3.53118C21.8632 3.35566 22.302 3.17552 22.7362 3C22.7501 3 22.7593 3.02771 22.7593 3.08776ZM22.727 3.88683C22.6623 3.9515 22.6254 4.03926 22.6254 4.14088C22.6254 4.17783 22.6254 4.23326 22.6346 4.30716C22.6346 4.36721 22.6254 4.40878 22.6115 4.44111C22.5238 4.44111 22.4591 4.41802 22.4221 4.37645C22.3852 4.33026 22.3667 4.27483 22.3667 4.20093C22.3667 4.14088 22.376 4.05312 22.3898 3.93303C22.3898 3.85912 22.3806 3.81294 22.3667 3.78984C22.2928 3.84989 22.2559 3.94227 22.2559 4.06698C22.2559 4.11779 22.2559 4.18707 22.2651 4.27945C22.2651 4.36721 22.2466 4.43649 22.2143 4.48268C22.182 4.52887 22.1173 4.55659 22.0203 4.55659C21.8956 4.51963 21.8309 4.44111 21.8309 4.32564C21.8309 4.27945 21.8494 4.20093 21.8863 4.08084C21.9233 3.96074 21.9372 3.8776 21.9325 3.82679C21.8355 3.90993 21.7709 4.03002 21.7339 4.19169C21.7247 4.2194 21.7062 4.37183 21.6785 4.64435C21.7154 4.70901 21.7616 4.75982 21.8217 4.79215C21.8817 4.82448 21.9418 4.83834 21.9972 4.8291C22.0619 4.8522 22.1219 4.8291 22.1727 4.77368C22.1958 4.74596 22.2374 4.69053 22.2928 4.61663C22.3205 4.66282 22.3482 4.68591 22.3759 4.69515C22.4037 4.70439 22.4776 4.70439 22.6023 4.70439C22.6669 4.64434 22.7131 4.58429 22.7408 4.51501C22.7686 4.45035 22.7778 4.36259 22.7778 4.26097C22.7778 4.12241 22.7547 3.99307 22.7131 3.88222L22.727 3.88683ZM22.5515 5.83603C22.4914 5.87298 22.4221 5.96536 22.339 6.11317C22.2559 6.26097 22.182 6.33487 22.1173 6.33487L22.0295 6.31178L21.4522 5.92379C21.5492 5.70208 21.697 5.48961 21.8956 5.291C22.0342 5.3649 22.1681 5.44804 22.2882 5.54504C22.4083 5.64204 22.496 5.73903 22.5469 5.83141L22.5515 5.83603ZM23.7709 7.6328C23.7986 7.68361 23.7847 7.7575 23.7247 7.8545C23.6646 7.9515 23.6323 8.01154 23.6231 8.04388C23.4891 8.11778 23.3967 8.0716 23.3459 7.90994C23.3459 7.77137 23.3736 7.63742 23.4291 7.51733C23.4845 7.39723 23.563 7.2679 23.6693 7.13395C23.6092 7.29561 23.5538 7.45727 23.503 7.6097C23.503 7.67436 23.5307 7.73903 23.5907 7.79907C23.6277 7.79907 23.6646 7.77137 23.7016 7.72056C23.7385 7.66975 23.7616 7.63742 23.7663 7.6328H23.7709ZM19.7893 5.09238C19.7893 5.18937 19.7709 5.27252 19.7385 5.34642C19.7062 5.42032 19.6462 5.52194 19.5538 5.64666C19.466 5.69746 19.3875 5.73903 19.3228 5.77598C19.2582 5.81294 19.1935 5.82679 19.1335 5.82679C19.1104 5.82679 19.0688 5.81755 19.0134 5.8037C18.9117 5.70208 18.8563 5.57737 18.8563 5.4388C18.8563 5.31409 18.9025 5.15704 18.9995 4.97229C19.0734 4.83372 19.1519 4.69053 19.2305 4.55196C19.2305 4.62587 19.1889 4.74596 19.1104 4.90762C19.0272 5.06929 18.9903 5.18938 18.9903 5.26328C18.9903 5.37414 19.0503 5.47113 19.1658 5.54965C19.2489 5.55889 19.3182 5.54041 19.3829 5.50346C19.4475 5.46651 19.5261 5.41109 19.6231 5.33719C19.6231 5.26328 19.5584 5.18476 19.4291 5.097C19.2997 5.01386 19.2351 4.94919 19.2351 4.91224C19.2351 4.86143 19.2905 4.806 19.4014 4.74596C19.4152 4.75981 19.4937 4.81063 19.6323 4.88915C19.7293 4.93996 19.7801 5.00924 19.7893 5.08776V5.09238ZM18.1358 4.97229C18.1358 5.0739 18.1034 5.18014 18.0434 5.28176C17.9787 5.38337 17.8956 5.45266 17.7847 5.48037C17.7201 5.48037 17.6646 5.4619 17.6231 5.42032C17.5815 5.37875 17.5492 5.32333 17.5307 5.24943C17.5307 5.07391 17.5676 4.89839 17.6369 4.72287C17.7062 4.54735 17.8032 4.38106 17.9325 4.2194C17.9325 4.28406 17.8817 4.43187 17.7755 4.65358C17.7247 4.76443 17.697 4.85682 17.697 4.93072C17.697 5.03234 17.7385 5.12471 17.8171 5.20785C17.891 5.23095 17.951 5.19862 18.0018 5.10624C18.048 5.01848 18.0942 4.97229 18.1404 4.97229H18.1358ZM24.4452 12.1455C24.4314 12.2425 24.4037 12.3302 24.3667 12.4042C24.3298 12.4827 24.2743 12.5473 24.2004 12.5982C24.1265 12.612 24.0619 12.5982 24.0018 12.5658C23.9418 12.5289 23.9048 12.4827 23.891 12.4319C23.8771 12.3811 23.8679 12.3164 23.8679 12.2425C23.8679 12.0069 23.951 11.776 24.1219 11.5543C24.0942 11.6051 24.0711 11.6744 24.0572 11.7667C24.0434 11.8591 24.0341 11.9423 24.0341 12.0208C24.0341 12.0993 24.0341 12.164 24.0434 12.2102C24.0803 12.2564 24.1173 12.2887 24.1496 12.3164C24.182 12.3441 24.2235 12.3533 24.279 12.3441L24.4452 12.1455ZM20.0111 7.25867C20.0111 7.25867 20.0342 7.31408 20.0111 7.36489C19.988 7.41108 19.9649 7.45728 19.9464 7.50347C19.8494 7.48037 19.7801 7.47113 19.7339 7.47113C19.6693 7.47113 19.6323 7.51271 19.6231 7.59123C19.563 7.91456 19.4753 8.21941 19.3552 8.50116C19.2813 8.45497 19.2027 8.3164 19.115 8.08084C19.0272 7.84527 18.921 7.72517 18.787 7.72517C18.7593 7.72517 18.7131 7.73442 18.6531 7.74827C18.593 7.72518 18.5653 7.6836 18.5653 7.61432C18.5653 7.56351 18.5746 7.52656 18.5977 7.50347C18.6208 7.45266 18.6439 7.39723 18.6716 7.3418C18.6993 7.28638 18.7362 7.24018 18.787 7.20323C18.9441 7.24942 19.0596 7.36951 19.1427 7.56813C19.2628 7.87298 19.3321 8.03927 19.3552 8.06698C19.4383 7.81756 19.503 7.62818 19.5538 7.50347C19.6046 7.37876 19.6739 7.2679 19.7524 7.17091C19.8263 7.16167 19.9094 7.194 20.0064 7.25867H20.0111ZM25.1011 5.73903C25.1011 5.43418 25.0411 5.10162 24.9256 4.74134C24.8979 4.6582 24.7732 4.34411 24.5607 3.78984C24.4776 3.82679 24.4037 3.90993 24.339 4.03464C24.302 4.09469 24.2512 4.19169 24.182 4.32102C24.182 4.72748 24.2882 5.68822 24.5053 7.20323C24.6023 7.88221 24.6485 8.46421 24.6485 8.94457C24.5099 9.12009 24.3344 9.24942 24.1311 9.32794C23.9279 9.40646 23.7062 9.44341 23.4614 9.44341C23.1427 9.4157 22.9164 9.16628 22.787 8.69977C22.7039 8.40416 22.63 8.21016 22.5561 8.11316C22.4591 8.03926 22.3436 8.00231 22.2004 8.00231C22.1635 8.00231 22.0988 8.01155 22.0111 8.02541C21.6785 8.12241 21.4106 8.30716 21.2027 8.57968C20.9533 8.903 20.7639 9.40184 20.6392 10.0762C20.3344 10.2471 19.9926 10.3626 19.6092 10.4319C19.2258 10.5012 18.8009 10.5335 18.3344 10.5335C17.8679 10.5335 17.4984 10.4503 17.1612 10.2887C16.7639 10.0947 16.5145 9.83141 16.4221 9.48961C16.3298 9.1478 16.2651 8.79214 16.2281 8.41801C16.1912 8.04388 16.1727 7.45728 16.1727 6.66282C16.1727 6.19169 16.1635 5.68822 16.1496 5.16167C16.1358 4.63511 16.1081 4.20092 16.0711 3.85912C15.9094 4.03464 15.7847 4.26097 15.6924 4.53349C15.6924 5.04157 15.7154 5.71132 15.757 6.53811C15.854 8.33949 15.9002 9.46189 15.9002 9.89607L15.8679 9.87299V10.5704C15.563 10.963 15.1981 11.3002 14.7686 11.5866C14.339 11.873 13.891 12.067 13.4291 12.1686C13.2951 12.1917 13.1981 12.2055 13.1427 12.2148C13.0827 12.224 13.0041 12.224 12.8979 12.224C12.6161 12.224 12.3529 12.1732 12.1034 12.0762C11.854 11.9746 11.6415 11.8268 11.466 11.6282C11.4014 11.5312 11.3552 11.4434 11.3275 11.3557C11.2997 11.2725 11.2905 11.1709 11.2905 11.0508C11.2905 10.8661 11.3459 10.6351 11.4568 10.3533C11.5168 10.2055 11.6092 9.97921 11.7339 9.67898C11.4753 10.1363 11.3136 10.4411 11.2443 10.5889C11.0827 10.9584 10.9995 11.3002 10.9995 11.6097C10.9995 11.8175 11.0365 12.0208 11.1104 12.2194C11.212 12.3903 11.3552 12.5335 11.5307 12.6536C11.6693 12.7506 11.8402 12.8291 12.0388 12.8984C12.2235 12.9446 12.3621 12.9677 12.4591 12.9723C12.5561 12.9723 12.6439 12.9769 12.727 12.9769C13.1796 12.9769 13.6138 12.8753 14.0388 12.6721C14.4637 12.4688 14.8702 12.2009 15.2536 11.8684C15.503 11.7483 15.697 11.5312 15.8309 11.2125C15.9048 11.0416 16.0111 10.7737 16.1542 10.4042C16.182 10.4134 16.2189 10.4411 16.2559 10.4919C16.2697 10.515 16.2974 10.5566 16.3344 10.612C16.5792 10.8476 16.8517 11.0185 17.1612 11.1201C17.466 11.2217 17.8078 11.2771 18.1866 11.2771C18.5099 11.2771 18.8517 11.2402 19.2074 11.1663C19.563 11.0924 19.9141 11 20.2605 10.8891C20.3251 10.866 20.3806 10.8568 20.4268 10.8568C20.5838 10.8568 20.7178 11.0231 20.8332 11.351C20.9487 11.679 21.0965 11.873 21.2813 11.933C21.3644 11.9792 21.4383 11.9977 21.503 11.9977C21.5907 11.9977 21.6785 11.97 21.7709 11.9192C21.8586 11.8684 21.951 11.8037 22.048 11.7298C22.1681 11.5543 22.2605 11.3695 22.3344 11.1755C22.4083 10.9815 22.4452 10.7968 22.4452 10.612C22.4452 10.4272 22.4083 10.261 22.3344 10.1132C22.2605 10.0393 22.182 9.98846 22.0942 9.95612C22.0111 9.92841 21.9141 9.90993 21.8124 9.90993C21.7016 9.90993 21.5538 9.93302 21.369 9.97459C21.272 9.99768 21.1381 10.03 20.9579 10.0762C20.9117 10.0023 20.8933 9.90069 20.8933 9.76675C20.8933 9.72056 20.8933 9.67436 20.8979 9.61894C20.8979 9.56351 20.9071 9.49885 20.9164 9.42495C21.0734 9.23095 21.1981 9.09238 21.2951 9.00462C21.4429 8.87067 21.5953 8.78291 21.7478 8.73672C21.8078 8.72286 21.8817 8.71363 21.9695 8.71363C22.2051 8.71363 22.3667 8.84757 22.4591 9.11085C22.6669 9.74826 22.8748 10.0901 23.078 10.1409C23.1889 10.1871 23.3044 10.2055 23.4198 10.2055C23.5815 10.2055 23.7524 10.1686 23.9279 10.0947C24.0111 10.067 24.1589 9.98383 24.3806 9.84988C24.6254 9.56813 24.7778 9.23556 24.8471 8.85219C24.884 8.65358 24.9025 8.28406 24.9025 7.74365C24.8887 7.60508 24.8425 7.30947 24.7686 6.86605C24.6669 6.25174 24.6115 5.78522 24.6115 5.47113C24.6623 5.36952 24.7131 5.26328 24.7686 5.16167C24.7963 5.24481 24.8563 5.35104 24.9395 5.48499C25.0226 5.61894 25.078 5.70208 25.1011 5.73903ZM18.2281 8.89838C18.1912 8.98152 18.1542 9.06004 18.1173 9.14319C18.0803 9.22633 18.0203 9.28637 17.9418 9.33256C17.8586 9.33256 17.7986 9.28638 17.7524 9.18938C17.7385 9.00462 17.757 8.83372 17.8124 8.67206C17.8679 8.51502 17.9556 8.36259 18.0711 8.22402C18.0711 8.29792 18.0572 8.37182 18.0249 8.44572C17.9418 8.65819 17.9048 8.79215 17.9048 8.84296C17.9048 8.9261 17.9325 9.00001 17.9926 9.06467C18.0388 9.07391 18.0757 9.04619 18.1127 8.98614C18.1496 8.9261 18.1866 8.89838 18.2235 8.89838H18.2281ZM14.2051 4.32102C14.242 4.34873 14.2466 4.3903 14.2235 4.43649C14.1958 4.48268 14.1727 4.52887 14.1496 4.57506C14.1265 4.5612 14.085 4.55196 14.0295 4.55196H13.9094C13.8124 4.67206 13.7524 4.87067 13.7247 5.15243C13.697 5.43418 13.6693 5.61894 13.6323 5.7067C13.5584 5.65589 13.4891 5.56351 13.4198 5.42956C13.2489 5.10624 13.1381 4.91686 13.0873 4.86605L12.9857 5.05543C12.9857 5.05543 12.921 5.02309 12.8656 4.9769C12.8055 4.93071 12.7639 4.89839 12.7316 4.87529C12.7316 4.71825 12.7824 4.57044 12.8887 4.43187C13.0642 4.43187 13.2305 4.57506 13.3783 4.86605C13.4891 5.07853 13.5584 5.20785 13.5907 5.25404C13.6184 5.07852 13.6554 4.89839 13.6924 4.72287C13.7524 4.52887 13.8494 4.38106 13.9787 4.27945C14.0388 4.27021 14.0803 4.27021 14.1127 4.27021C14.1589 4.27021 14.1912 4.28869 14.2143 4.32564L14.2051 4.32102ZM14.9256 7.53579C14.9256 7.62355 14.9071 7.71132 14.8656 7.8037C14.824 7.89146 14.7593 7.96074 14.6716 8.00231C14.5376 8.00231 14.4545 7.93765 14.4175 7.8037C14.4175 7.59585 14.4591 7.39722 14.5376 7.20323C14.5746 7.12009 14.6716 6.94458 14.824 6.67206C14.824 6.73672 14.7778 6.86605 14.69 7.05081C14.6023 7.23557 14.5561 7.37414 14.5561 7.4619C14.5561 7.58199 14.6208 7.67437 14.7455 7.74827C14.7824 7.72518 14.8148 7.68822 14.8378 7.63741C14.8656 7.5866 14.8933 7.55427 14.921 7.53579H14.9256ZM20.3667 12.1455C20.339 12.1917 20.3113 12.224 20.2882 12.2517C20.2651 12.2794 20.242 12.2887 20.2097 12.2887C20.1219 12.2517 20.0434 12.2333 19.9787 12.2333C19.8309 12.2333 19.6138 12.3349 19.3228 12.5381C19.0365 12.7413 18.8101 12.843 18.6485 12.843L17.7524 13C17.8771 12.9353 18.048 12.8614 18.2605 12.7875C18.4729 12.7136 18.6854 12.6443 18.8887 12.5751C19.0919 12.5104 19.2582 12.4272 19.3829 12.3302C19.5445 12.2102 19.6693 12.067 19.7616 11.8961C19.7847 11.8083 19.8309 11.7344 19.9048 11.6744C19.9787 11.6143 20.0526 11.5866 20.1265 11.5866C20.2466 11.5866 20.3205 11.642 20.3575 11.7529C20.3944 11.8637 20.4129 11.9469 20.4129 11.9977C20.4129 12.0623 20.399 12.1132 20.3667 12.1409V12.1455ZM14.0803 6.12702C14.0942 6.26097 14.0572 6.35335 13.9695 6.40416C13.697 6.40416 13.4984 6.41802 13.369 6.44111C13.2443 6.46883 13.1335 6.54272 13.0365 6.66744C13.0503 6.74134 13.0827 6.91224 13.1381 7.18476C13.1889 7.45266 13.2212 7.65589 13.2397 7.78522C13.2536 7.91455 13.2628 8.00693 13.2674 8.06698C13.2674 8.12703 13.272 8.17321 13.272 8.21017C13.272 8.37183 13.2582 8.51502 13.2258 8.64435C13.1981 8.76906 13.1381 8.89376 13.0503 9.02309C13.0965 8.94919 13.1242 8.87066 13.1381 8.79214C13.1519 8.709 13.1612 8.61663 13.1612 8.51502C13.1612 8.30717 13.1242 8.06235 13.0503 7.78522C13.0041 7.63741 12.9718 7.50808 12.9441 7.39723C12.9164 7.28637 12.8979 7.18938 12.884 7.10162C12.8702 7.01848 12.8609 6.94919 12.8609 6.89838C12.8609 6.70439 12.9164 6.54735 13.0318 6.41802C13.1473 6.28869 13.3459 6.19631 13.6231 6.13626C13.6 6.09007 13.5584 6.05774 13.503 6.03464C13.4429 6.01155 13.3921 6.01617 13.3459 6.04388C13.2951 6.08084 13.2443 6.11778 13.2027 6.15473C13.1935 6.11778 13.2027 6.0716 13.2258 6.02079C13.2489 5.96998 13.272 5.91917 13.2905 5.86375C13.3736 5.79908 13.4568 5.76213 13.5445 5.76213C13.6046 5.76213 13.6508 5.77598 13.6877 5.80831C13.7616 5.84527 13.8263 5.88684 13.8771 5.92841C13.9279 5.9746 13.9972 6.03926 14.0757 6.12702H14.0803ZM16.8425 12.1778C16.8425 12.2517 16.824 12.3303 16.787 12.4088C16.727 12.5058 16.69 12.5658 16.6716 12.5982C16.6531 12.6259 16.5884 12.6443 16.4776 12.6443C16.4314 12.5427 16.4129 12.4365 16.4129 12.3349C16.4129 12.1963 16.4545 12.0393 16.533 11.8637C16.6161 11.6882 16.69 11.5219 16.7639 11.3603C16.69 11.6097 16.6161 11.8637 16.5422 12.1132C16.5422 12.2333 16.5884 12.321 16.6762 12.3811L16.8425 12.1825V12.1778ZM14.1265 9.80369C14.1265 9.80369 14.0942 9.8545 14.0526 9.93764C14.0111 10.0208 13.9741 10.0577 13.9372 10.0577C13.9233 10.0577 13.891 10.0393 13.8355 10.0023H13.7478C13.7016 10.0901 13.66 10.261 13.6184 10.5104C13.5769 10.7598 13.5122 10.94 13.4245 11.0416C13.3644 10.9815 13.3044 10.8614 13.2351 10.6813C13.1658 10.5012 13.1057 10.3764 13.0457 10.3118C13.0318 10.358 13.0041 10.3857 12.9672 10.4042C12.9302 10.4226 12.8933 10.418 12.8563 10.3857C12.8101 10.3487 12.7917 10.2979 12.7917 10.2286C12.7917 10.1778 12.8009 10.1224 12.824 10.067C12.8471 10.0115 12.8702 9.95612 12.8887 9.90531C12.9764 9.86836 13.0272 9.85912 13.0457 9.88222C13.1288 9.94688 13.1935 10.0346 13.2443 10.1363C13.309 10.2979 13.3783 10.4596 13.4429 10.6259C13.4891 10.3441 13.5353 10.1455 13.5907 10.0208C13.6462 9.90069 13.7201 9.79907 13.8171 9.71593C13.8633 9.70207 13.9094 9.7067 13.9602 9.72518C14.0111 9.74827 14.0619 9.77136 14.1173 9.78983L14.1265 9.80369ZM21.9649 11.1663C21.9187 11.2125 21.8632 11.2309 21.7893 11.2309C21.7016 11.2309 21.6184 11.2125 21.5445 11.1755C21.3505 11.0739 21.2212 10.9169 21.1473 10.709C21.2351 10.6721 21.3275 10.6536 21.4244 10.6536C21.5954 10.6536 21.7201 10.6905 21.794 10.769C21.8679 10.8476 21.9233 10.9122 21.9556 10.963C21.9833 11.0139 21.988 11.0831 21.9649 11.1617V11.1663ZM20.1589 11.9654C20.1219 11.9931 20.0619 11.9792 19.9833 11.9192C19.9741 11.9053 19.9556 11.8822 19.9187 11.8545C19.9279 11.8453 19.9372 11.8406 19.951 11.8314C19.9787 11.8314 20.0018 11.836 20.0157 11.8499C20.0295 11.8591 20.0434 11.8684 20.0619 11.8776L20.1635 11.9654H20.1589Z" fill="currentColor"/>
</svg>
