<svg width="40" height="16" viewBox="0 0 40 16" fill="none" xmlns="http://www.w3.org/2000/svg">
<path fill-rule="evenodd" clip-rule="evenodd" d="M28.8795 5.34C28.8595 5.235 28.7895 5.1 28.6695 4.94C28.6145 4.875 28.5645 4.805 28.5095 4.74L28.3695 4.9L28.6295 9.55C28.6295 9.905 28.5745 10.25 28.4645 10.585C28.3545 10.92 28.2045 11.26 28.0195 11.6C28.1045 11.4 28.1645 11.19 28.1945 10.975C28.2245 10.76 28.2395 10.495 28.2395 10.19C28.2395 10.035 28.2345 9.78 28.2195 9.415C28.2045 9.05 28.1995 8.86 28.1995 8.84L27.8795 4.01C27.9045 3.975 27.9195 3.935 27.9195 3.89C27.9195 3.855 27.9145 3.82 27.8995 3.78C27.8845 3.74 27.8745 3.7 27.8595 3.66L28.2495 3C28.4695 3.495 28.6195 3.87 28.6995 4.13C28.8195 4.525 28.8795 4.925 28.8795 5.34ZM24.2895 6.44C24.2645 6.525 24.2445 6.595 24.2295 6.64C24.1745 6.805 24.0995 6.9 23.9995 6.92C23.9395 6.935 23.8845 6.915 23.8345 6.865C23.7845 6.815 23.7495 6.765 23.7345 6.72C23.7195 6.675 23.7095 6.615 23.7095 6.55C23.7095 6.345 23.7745 6.155 23.9095 5.99C23.8945 6.05 23.8845 6.12 23.8695 6.195C23.8545 6.27 23.8495 6.32 23.8495 6.34C23.8495 6.405 23.8695 6.475 23.9095 6.55C23.9545 6.605 23.9945 6.635 24.0195 6.65C24.0445 6.665 24.0795 6.65 24.1195 6.62C24.1545 6.615 24.1795 6.58 24.1995 6.525C24.2195 6.47 24.2495 6.44 24.2895 6.44ZM24.2895 3.31C24.0345 3.49 23.7145 3.66 23.3295 3.82C22.7545 4.04 22.1845 4.255 21.6195 4.47C20.8545 4.775 20.0895 5.08 19.3295 5.38C19.3295 5.325 19.3495 5.275 19.3895 5.23C19.5045 5.13 19.5845 5.06 19.6295 5.02C20.0545 4.875 20.5745 4.68 21.1795 4.44C22.0845 4.085 22.6045 3.885 22.7295 3.84C23.3145 3.62 23.8345 3.445 24.2895 3.31ZM22.8595 5.97C22.8845 5.895 22.8995 5.815 22.8995 5.72C22.8995 5.625 22.8945 5.55 22.8845 5.495C22.8745 5.44 22.8495 5.355 22.8095 5.25C22.7495 5.275 22.7195 5.325 22.7195 5.39C22.7195 5.415 22.7245 5.46 22.7395 5.52C22.7545 5.58 22.7595 5.625 22.7595 5.65C22.7595 5.685 22.7545 5.71 22.7395 5.735C22.7245 5.76 22.7045 5.775 22.6695 5.78C22.5645 5.765 22.4945 5.72 22.4595 5.645C22.4245 5.57 22.4095 5.465 22.4095 5.34V5.2C22.3345 5.235 22.2995 5.305 22.2995 5.42C22.2995 5.46 22.2995 5.515 22.3095 5.585C22.3145 5.655 22.3195 5.7 22.3195 5.72C22.3195 5.805 22.2995 5.87 22.2595 5.91C22.2195 5.95 22.1395 5.96 22.0195 5.94C21.9395 5.895 21.8995 5.82 21.8995 5.72C21.9045 5.665 21.9145 5.615 21.9195 5.56C21.9245 5.505 21.9295 5.455 21.9295 5.4C21.9295 5.355 21.9195 5.305 21.8995 5.25C21.8345 5.315 21.7945 5.41 21.7845 5.53C21.7745 5.65 21.7645 5.795 21.7495 5.97C21.7695 6.045 21.8045 6.11 21.8595 6.175C21.9145 6.24 21.9745 6.27 22.0495 6.27C22.0545 6.27 22.0695 6.27 22.0945 6.27C22.1195 6.27 22.1495 6.26 22.1945 6.25C22.2395 6.24 22.2745 6.2 22.3095 6.13C22.3445 6.06 22.3745 5.99 22.4095 5.925L22.5295 6.035C22.5945 6.06 22.6495 6.075 22.6895 6.075C22.7645 6.075 22.8195 6.04 22.8595 5.975V5.97ZM19.4395 4.14C19.3995 4.215 19.3495 4.25 19.2895 4.25C19.2295 4.25 19.1845 4.225 19.1545 4.175C19.1245 4.125 19.1095 4.08 19.1095 4.04C19.1495 3.905 19.1895 3.77 19.2295 3.63C19.2045 3.67 19.1545 3.74 19.0895 3.84C19.0145 3.975 18.9795 4.1 18.9795 4.22C18.9795 4.245 18.9845 4.295 18.9995 4.36C19.0345 4.425 19.0745 4.475 19.1195 4.51C19.1645 4.545 19.2195 4.555 19.2795 4.54C19.2995 4.5 19.3295 4.44 19.3745 4.365C19.4195 4.29 19.4395 4.215 19.4395 4.14ZM20.4795 6.76L20.4095 7C20.3445 7.02 20.2645 7 20.1745 6.935C20.0845 6.87 20.0145 6.855 19.9595 6.88C19.9195 6.975 19.8845 7.13 19.8595 7.35C19.8145 7.725 19.7195 7.965 19.5795 8.07C19.4345 7.775 19.2845 7.48 19.1395 7.18C19.1345 7.245 19.1045 7.28 19.0495 7.28C18.9695 7.265 18.8895 7.25 18.8095 7.23C18.7745 7.195 18.7595 7.155 18.7595 7.11C18.7595 7.07 18.7745 7.015 18.8095 6.945C18.8445 6.875 18.8595 6.83 18.8595 6.81C18.8845 6.73 18.9645 6.69 19.0895 6.69C19.2245 6.81 19.3345 6.98 19.4195 7.2C19.5395 7.495 19.6245 7.675 19.6695 7.74C19.7245 7.445 19.7645 7.215 19.7995 7.05C19.8595 6.73 19.9645 6.57 20.1095 6.57C20.1545 6.57 20.2095 6.585 20.2745 6.62C20.3395 6.655 20.4045 6.7 20.4795 6.76ZM17.1795 5.13C17.0995 5.27 17.0245 5.385 16.9595 5.47C16.8645 5.59 16.7695 5.685 16.6695 5.76C16.5945 5.7 16.4995 5.635 16.3795 5.56C16.1945 5.455 16.0895 5.395 16.0695 5.38C16.1545 5.22 16.2345 5.09 16.3045 4.995C16.3745 4.9 16.4745 4.8 16.5995 4.7C16.6145 4.715 16.6845 4.76 16.8095 4.84C16.9745 4.945 17.0995 5.045 17.1795 5.13ZM26.2895 5.11C26.2545 4.785 26.1745 4.435 26.0395 4.06C25.9045 3.735 25.7745 3.405 25.6495 3.08C25.5295 3.175 25.4245 3.31 25.3395 3.49C25.3145 3.545 25.2745 3.64 25.2295 3.78C25.2295 4.285 25.2895 4.95 25.4095 5.77C25.5095 6.45 25.6145 7.155 25.7245 7.885C25.8345 8.615 25.8895 9.265 25.8895 9.83C25.6145 9.985 25.2845 10.105 24.8995 10.2C24.7195 10.24 24.3645 10.305 23.8395 10.39C24.0545 10.135 24.1995 9.945 24.2795 9.82C24.4145 9.605 24.5045 9.395 24.5595 9.19C24.5595 8.99 24.4445 8.815 24.2195 8.66C24.0995 8.575 23.9045 8.455 23.6395 8.3C23.3395 8.145 23.0495 8.07 22.7695 8.07C22.4045 8.07 22.0245 8.21 21.6395 8.49C21.4195 8.65 21.0945 8.95 20.6645 9.395C20.2345 9.84 19.9145 10.135 19.6995 10.29C19.5745 10.205 19.4495 10.115 19.3295 10.03C19.1745 9.91 19.0995 9.795 19.0995 9.69C19.0995 9.615 19.1195 9.555 19.1595 9.5C19.0395 9.555 18.7945 9.735 18.4295 10.04C18.1345 10.28 17.8745 10.42 17.6395 10.46C17.5845 10.465 17.5145 10.475 17.4195 10.49C17.3245 10.505 17.2195 10.51 17.0995 10.51C16.9245 10.51 16.7795 10.485 16.6545 10.435C16.5295 10.385 16.4345 10.295 16.3595 10.17C16.4395 10.115 16.5245 10.055 16.6195 9.99C16.7145 9.925 16.7845 9.855 16.8295 9.78C16.9145 9.555 17.0095 9.31 17.1045 9.05C17.1995 8.79 17.2495 8.565 17.2495 8.38C17.2495 8.275 17.2345 8.17 17.2095 8.075C17.1845 7.98 17.1395 7.885 17.0795 7.79C17.0445 7.69 16.9895 7.61 16.9145 7.555C16.8395 7.5 16.6945 7.455 16.4895 7.42C16.2045 7.695 15.9795 8.01 15.8145 8.365C15.6495 8.72 15.5695 9.105 15.5695 9.51C15.5695 9.57 15.5695 9.63 15.5745 9.695C15.5745 9.76 15.5845 9.81 15.5895 9.85C15.2345 10.065 14.8145 10.245 14.3295 10.4C13.9745 10.515 13.5245 10.625 12.9695 10.74C12.3495 10.74 11.8895 10.705 11.5895 10.64C11.1095 10.535 10.7445 10.31 10.4895 9.97C10.4145 9.815 10.3795 9.635 10.3795 9.43C10.3795 9.105 10.4645 8.775 10.6395 8.45C10.4995 8.55 10.3845 8.695 10.2895 8.89C10.2145 9.065 10.1445 9.235 10.0695 9.41C10.0345 9.515 10.0145 9.595 10.0095 9.65C10.0045 9.705 9.99951 9.78 9.99951 9.88C9.99951 10.095 10.0395 10.3 10.1245 10.5C10.2095 10.7 10.3245 10.875 10.4695 11.02C10.7545 11.22 11.0395 11.36 11.3195 11.435C11.5995 11.51 11.9095 11.55 12.2495 11.55C12.6495 11.55 13.0545 11.495 13.4695 11.39C13.7745 11.31 14.1745 11.175 14.6595 10.98C14.9045 10.88 15.2695 10.725 15.7495 10.51C15.8845 10.715 15.9845 10.86 16.0495 10.94C16.1145 11.02 16.1845 11.085 16.2595 11.14C16.4195 11.265 16.6445 11.33 16.9295 11.33C17.1145 11.33 17.2995 11.305 17.4795 11.25C17.6845 11.21 17.9345 11.07 18.2295 10.83C18.5745 10.55 18.8095 10.38 18.9295 10.32C18.9295 10.445 18.9845 10.58 19.0995 10.72C19.1595 10.795 19.2195 10.865 19.2795 10.93C19.2745 10.945 19.1295 11.165 18.8495 11.6C18.7495 11.755 18.6895 11.895 18.6695 12.02L19.4395 11.02C19.6445 11.1 19.8295 11.155 19.9895 11.185C20.1495 11.215 20.3395 11.23 20.5595 11.23C20.8545 11.23 21.2345 11.185 21.7095 11.1C21.9945 11.045 22.2295 11.005 22.4095 10.97C22.5745 11.035 22.7395 11.085 22.8945 11.115C23.0495 11.145 23.2245 11.16 23.4095 11.16C23.7345 11.16 24.1195 11.1 24.5595 10.98C24.6745 10.945 25.0345 10.835 25.6495 10.64C25.8845 10.425 26.0445 10.19 26.1395 9.935C26.2345 9.68 26.2795 9.385 26.2795 9.06C26.2795 8.9 26.2695 8.745 26.2545 8.595C26.2395 8.445 26.1695 8.05 26.0495 7.41C25.9645 6.945 25.9195 6.57 25.9195 6.29C25.9195 6.205 25.9045 6.05 25.8795 5.83C25.8345 5.45 25.8095 5.195 25.8095 5.07C25.8095 4.975 25.8145 4.885 25.8295 4.795C25.8445 4.705 25.8645 4.625 25.8895 4.56C25.9645 4.615 26.0395 4.705 26.1195 4.83C26.1595 4.89 26.2145 4.985 26.2895 5.11ZM14.5895 3.96C14.5545 4.065 14.5295 4.145 14.5095 4.2C14.4345 4.175 14.3845 4.15 14.3495 4.13C14.2695 4.09 14.2045 4.08 14.1595 4.1C14.1195 4.215 14.0945 4.435 14.0895 4.77C14.0845 5.105 14.0445 5.345 13.9695 5.5C13.8845 5.415 13.7645 5.215 13.6195 4.9C13.5395 4.725 13.4645 4.6 13.3895 4.52C13.3645 4.525 13.3445 4.555 13.3395 4.6C13.3345 4.645 13.3245 4.675 13.3195 4.68C13.2395 4.645 13.1695 4.62 13.1145 4.6C13.0595 4.58 13.0095 4.545 12.9695 4.49C12.9645 4.465 12.9595 4.43 12.9595 4.39C12.9595 4.33 12.9745 4.265 12.9995 4.2C13.0045 4.185 13.0345 4.13 13.0895 4.03C13.1545 4.01 13.2295 4.025 13.3095 4.07C13.3295 4.085 13.3745 4.115 13.4395 4.17C13.5445 4.27 13.6395 4.415 13.7195 4.61C13.8345 4.87 13.9095 5.03 13.9495 5.09C13.9545 4.865 13.9695 4.63 13.9845 4.39C13.9995 4.15 14.0645 3.95 14.1795 3.79C14.3445 3.77 14.4845 3.825 14.5895 3.96ZM22.2195 11.74C22.2345 11.845 22.1945 11.95 22.1095 12.05C22.0545 12.11 21.9745 12.175 21.8595 12.25C21.7445 12.345 21.6345 12.39 21.5195 12.39C21.4245 12.39 21.3295 12.37 21.2295 12.33C20.9645 12.225 20.7995 12.17 20.7395 12.17C20.6445 12.17 20.5595 12.195 20.4795 12.25C20.1245 12.47 19.8045 12.635 19.5195 12.75C19.3245 12.83 19.1495 12.89 18.9845 12.935C18.8195 12.98 18.6445 13 18.4595 13C18.7245 13 19.0295 12.895 19.3695 12.69C19.5445 12.575 19.7195 12.465 19.8995 12.35C20.0795 12.235 20.2495 12.145 20.4045 12.08C20.5595 12.015 20.7295 11.98 20.9095 11.98C21.0495 11.98 21.1995 12.01 21.3595 12.07C21.3745 12.055 21.4295 12 21.5345 11.905C21.6395 11.81 21.7245 11.74 21.7995 11.7C21.8745 11.66 21.9395 11.64 21.9995 11.64C22.0795 11.64 22.1545 11.675 22.2195 11.74ZM14.5095 5.92C14.5095 6.115 14.3495 6.215 14.0345 6.22C13.7195 6.225 13.5245 6.3 13.4595 6.44C13.5545 6.805 13.6145 7.045 13.6395 7.15C13.6995 7.405 13.7445 7.65 13.7695 7.89C13.7745 7.985 13.7795 8.06 13.7845 8.125C13.7845 8.19 13.7895 8.245 13.7895 8.29C13.7895 8.675 13.7195 9.035 13.5795 9.36C13.6545 9.175 13.6895 8.97 13.6895 8.75C13.6895 8.605 13.6745 8.46 13.6495 8.32C13.6245 8.18 13.5845 8.005 13.5345 7.8C13.4845 7.595 13.4395 7.4 13.4045 7.22C13.3695 7.04 13.3495 6.875 13.3495 6.72C13.3495 6.54 13.3795 6.36 13.4395 6.18C13.5145 6.1 13.5995 6.04 13.6995 5.995C13.7995 5.95 13.9145 5.92 14.0395 5.9C13.9795 5.84 13.9095 5.81 13.8295 5.81C13.7745 5.81 13.7245 5.825 13.6695 5.86C13.6495 5.9 13.6245 5.925 13.5995 5.94C13.5795 5.915 13.5795 5.875 13.5995 5.83C13.6195 5.785 13.6445 5.73 13.6695 5.67C13.7445 5.59 13.8295 5.55 13.9295 5.55C13.9945 5.55 14.0545 5.565 14.1095 5.6C14.2545 5.675 14.3895 5.78 14.5095 5.92ZM11.6895 7.11C11.6245 7.47 11.5595 7.74 11.4995 7.92C11.3945 8.255 11.1945 8.42 10.9095 8.42C10.8245 8.42 10.7495 8.395 10.6845 8.34C10.6195 8.285 10.5645 8.215 10.5195 8.12C10.4845 8.015 10.4645 7.905 10.4495 7.8C10.4345 7.695 10.4295 7.585 10.4295 7.48C10.4295 7.12 10.5245 6.715 10.7195 6.27C10.7645 6.155 10.9595 5.78 11.2995 5.14C11.2845 5.185 11.1845 5.46 10.9895 5.96C10.8495 6.325 10.7795 6.62 10.7795 6.84C10.7795 6.995 10.7995 7.135 10.8445 7.26C10.8895 7.385 10.9645 7.51 11.0795 7.63C11.1945 7.63 11.2895 7.61 11.3745 7.57C11.4595 7.53 11.5145 7.47 11.5445 7.395C11.5745 7.32 11.5995 7.26 11.6145 7.22C11.6295 7.18 11.6545 7.145 11.6895 7.11ZM12.7695 8.8C12.7695 8.8 12.7345 8.895 12.7045 9.02C12.6745 9.145 12.6195 9.225 12.5395 9.26C12.4845 9.28 12.4295 9.28 12.3695 9.255C12.3095 9.23 12.2645 9.185 12.2395 9.12C12.2645 8.805 12.3145 8.545 12.3895 8.335C12.4645 8.125 12.5895 7.92 12.7695 7.72C12.7645 7.735 12.6995 7.885 12.5795 8.17C12.4945 8.37 12.4495 8.535 12.4495 8.67C12.4495 8.785 12.4745 8.89 12.5295 8.99C12.5695 8.99 12.6095 8.96 12.6495 8.9C12.6895 8.84 12.7295 8.805 12.7695 8.8ZM23.9995 9.76C23.4195 9.995 22.9195 10.165 22.4995 10.27C21.9445 10.41 21.4145 10.48 20.9095 10.48C20.6045 10.48 20.2995 10.45 19.9995 10.39C20.2645 10.13 20.5345 9.87 20.8095 9.61C21.3645 9.09 21.8795 8.83 22.3595 8.83C22.4195 8.83 22.4845 8.83 22.5545 8.84C22.6245 8.845 22.6845 8.855 22.7395 8.87C23.1245 9.03 23.3645 9.135 23.4595 9.19C23.7245 9.345 23.9045 9.535 23.9995 9.76ZM21.9795 11.98C21.8445 12.055 21.6795 12.1 21.4795 12.12C21.4995 12.1 21.5345 12.065 21.5895 12.015C21.6445 11.965 21.6845 11.93 21.7195 11.91C21.7545 11.89 21.7845 11.88 21.8195 11.88C21.8845 11.88 21.9395 11.915 21.9795 11.98ZM16.8295 9.19L16.0295 9.66C15.9645 9.44 15.9295 9.205 15.9295 8.96C15.9295 8.795 15.9495 8.65 15.9845 8.525C16.0195 8.4 16.0845 8.295 16.1695 8.21C16.2845 8.225 16.3845 8.255 16.4795 8.31C16.5745 8.365 16.6345 8.44 16.6695 8.54C16.7145 8.635 16.7495 8.735 16.7745 8.84C16.7995 8.945 16.8145 9.065 16.8295 9.19Z" fill="currentColor"/>
</svg>
