<svg width="40" height="16" viewBox="0 0 40 16" fill="none" xmlns="http://www.w3.org/2000/svg">
<path fill-rule="evenodd" clip-rule="evenodd" d="M31.6835 8.42889C31.723 8.80699 31.7399 9.14559 31.7399 9.44468C31.7399 9.85101 31.7061 10.2348 31.6327 10.5903C31.5593 10.9458 31.4408 11.3013 31.2659 11.6456C31.2941 11.4706 31.3167 11.2731 31.3336 11.0474C31.3505 10.8217 31.3562 10.6016 31.3562 10.3815C31.3562 9.81715 31.3054 9.16816 31.2038 8.44017C31.1022 7.71218 31.0006 6.96726 30.8934 6.20541C30.7862 5.44356 30.7354 4.80587 30.7354 4.28668C30.6733 4.21896 30.6451 4.13995 30.6451 4.04965C30.6451 3.95372 30.6846 3.82957 30.7693 3.68849C30.8765 3.53612 30.9442 3.43452 30.9837 3.37245C31.0232 3.47967 31.1191 3.7054 31.2772 4.06093C31.5029 4.57448 31.6158 4.97516 31.6158 5.26862C31.6158 5.35327 31.6158 5.41534 31.6045 5.46049C31.5819 5.43227 31.5424 5.36455 31.4916 5.26297C31.4408 5.16139 31.3844 5.08803 31.3223 5.04289L31.2659 5.13318C31.2659 5.56772 31.3167 6.10947 31.4239 6.75845C31.5819 7.7291 31.6666 8.28781 31.6835 8.42889ZM27.8234 3C27.7557 3.11851 27.6598 3.22008 27.53 3.30473C27.4453 3.35552 27.3043 3.41759 27.1067 3.47967C26.9092 3.54175 26.7399 3.59818 26.6045 3.63768C26.469 3.67719 26.3449 3.72799 26.232 3.79006C26.3167 3.66027 26.4126 3.56432 26.5311 3.4966C26.6496 3.42888 26.7851 3.37245 26.9487 3.32731C27.1124 3.28216 27.2647 3.23702 27.4115 3.19187C27.5582 3.14672 27.6936 3.08465 27.8234 3ZM27.451 3.99322C27.4736 4.05529 27.4961 4.12866 27.5131 4.2246C27.53 4.32053 27.5413 4.3939 27.5413 4.45597C27.5413 4.61399 27.4905 4.73251 27.3833 4.81716C27.3438 4.83409 27.3043 4.82843 27.2647 4.80021C27.2252 4.77199 27.1857 4.74378 27.1462 4.71556C27.118 4.78328 27.0785 4.84536 27.0334 4.89615C26.9882 4.94694 26.9318 4.97517 26.8641 4.97517C26.7738 4.9526 26.7061 4.91873 26.6666 4.86794C26.6271 4.81715 26.6045 4.76072 26.6045 4.693C26.6045 4.64221 26.6214 4.5632 26.6496 4.45597C26.7173 4.2246 26.7512 4.07786 26.7512 4.02707C26.7738 4.06658 26.7851 4.11174 26.7851 4.16253C26.7851 4.20203 26.7794 4.25845 26.7625 4.3431C26.7456 4.42775 26.7399 4.48419 26.7399 4.52369C26.7399 4.61963 26.7907 4.67042 26.8866 4.67042C26.9318 4.67042 26.9657 4.67041 26.9882 4.65913C27.0559 4.59705 27.0898 4.52369 27.0898 4.4334C27.0729 4.32053 27.0672 4.23588 27.0672 4.18509C27.0672 4.10044 27.0898 4.03836 27.135 3.99322C27.1632 4.02143 27.1801 4.07223 27.1801 4.13995C27.1745 4.23589 27.1688 4.30925 27.1688 4.3544C27.1688 4.41647 27.1801 4.46726 27.197 4.50676C27.214 4.54627 27.276 4.55756 27.3833 4.53499C27.4058 4.51242 27.4171 4.47291 27.4171 4.42212C27.4171 4.37697 27.4171 4.33746 27.4058 4.30924C27.3776 4.19638 27.3607 4.13431 27.3607 4.12867C27.3607 4.06659 27.3889 4.02143 27.451 3.99322ZM25.8257 4.44469L25.4758 5.1106L24.7422 4.74942C24.8043 4.57448 24.8494 4.45032 24.8889 4.37696C24.9566 4.24716 25.0413 4.1343 25.1372 4.02707C25.3404 4.11737 25.4871 4.19073 25.583 4.24152C25.679 4.29231 25.758 4.36004 25.8257 4.44469ZM29.5277 8.80135C29.3697 8.08465 29.2173 7.36794 29.065 6.64559C29.048 6.52708 29.0142 6.34085 28.9521 6.09254C28.8562 5.68058 28.8054 5.36455 28.8054 5.15574C28.8054 5.09367 28.811 5.00338 28.828 4.88487L29.3359 5.34761C29.2964 5.04852 29.1835 4.69863 28.986 4.30924C28.8787 4.08915 28.7207 3.76748 28.5006 3.33859C28.495 3.35552 28.4216 3.46839 28.2862 3.67719C28.1959 3.81827 28.1508 3.93678 28.1508 4.02707C28.1508 4.11172 28.179 4.17945 28.2298 4.24152C28.2975 4.80022 28.4047 5.47178 28.5571 6.26185C28.5796 6.37472 28.7207 7.03499 28.9747 8.23702C29.1327 8.96501 29.2625 9.63091 29.3584 10.2347C29.2512 10.342 29.144 10.4379 29.0368 10.5226C28.9295 10.6072 28.811 10.6749 28.6925 10.7144C28.574 10.7539 28.4386 10.7935 28.2975 10.8273C28.1564 10.8612 28.021 10.8781 27.9024 10.8781C27.6485 10.8781 27.434 10.8047 27.2704 10.6636C26.9544 10.3025 26.6891 9.82844 26.4803 9.24153C26.3223 8.72799 26.1643 8.21443 26.0063 7.69525C25.8088 7.08012 25.5943 6.5948 25.3517 6.23927C25.2839 6.30135 25.2331 6.38599 25.2049 6.49886C25.1767 6.6738 25.1485 6.84311 25.1259 7.01806C25.3347 7.35101 25.5153 7.70654 25.6677 8.09029C25.7975 8.40631 25.9216 8.78442 26.0401 9.21896C26.0401 9.34875 25.9894 9.48419 25.8821 9.63656C25.8313 9.72121 25.7354 9.83973 25.6 9.99774C25.0526 10.5 24.6011 10.8555 24.2568 11.0587C23.732 11.3747 23.2072 11.5327 22.688 11.5327C22.6033 11.4594 22.5469 11.3804 22.5131 11.2957C22.4792 11.2111 22.4623 11.1208 22.4623 11.0135C22.4623 10.9063 22.4905 10.7596 22.5413 10.5734C22.6485 10.1952 22.6993 9.94694 22.6993 9.82843C22.5638 10.0937 22.4566 10.3702 22.3776 10.658C22.2986 10.9458 22.2591 11.2449 22.2591 11.544C22.2591 11.702 22.2704 11.86 22.293 12.018C22.3212 12.1309 22.3889 12.2156 22.4848 12.272C22.5808 12.3284 22.7557 12.3736 23.004 12.4018C23.7038 12.2043 24.3302 11.8883 24.8889 11.4537C25.5153 10.9627 25.9498 10.4097 26.1982 9.78329C26.4408 10.4605 26.6496 10.9176 26.8246 11.149C26.9995 11.3803 27.2309 11.5496 27.5187 11.6456C27.6485 11.6682 27.7614 11.6794 27.8686 11.6794C28.1451 11.6794 28.4047 11.6174 28.6361 11.4932C28.8675 11.3691 29.1045 11.1998 29.3359 10.9797C29.5164 10.5903 29.6067 10.1558 29.6067 9.68171C29.6067 9.54063 29.6011 9.3939 29.5842 9.24153C29.5672 9.08916 29.5503 8.94244 29.5277 8.80135ZM23.4894 5.34761L23.0943 5.00903C23.0943 5.27426 23.1225 5.60157 23.1846 6.00224C23.3201 6.90518 23.3878 7.4808 23.3878 7.7291C23.4273 7.93791 23.4555 8.17493 23.4781 8.43452C23.5006 8.69412 23.5119 8.94243 23.5119 9.1851C23.5119 9.57449 23.4894 9.91308 23.4386 10.2009C23.3878 10.4887 23.2975 10.7765 23.162 11.07C23.1903 10.7144 23.2072 10.4661 23.2128 10.3194C23.2128 10.1727 23.2128 10.0542 23.2128 9.96388C23.2128 9.20203 23.1338 8.31037 22.9702 7.28892C22.8065 6.26748 22.6541 5.29119 22.5018 4.36568C22.4623 4.29796 22.4453 4.21331 22.4453 4.11737C22.4453 3.98193 22.5018 3.81828 22.6146 3.63205C22.688 3.51354 22.7444 3.42889 22.7726 3.38374C22.7952 3.45146 22.9024 3.66026 23.0887 4.01579C23.1733 4.17945 23.2298 4.32053 23.2693 4.4334L23.2918 4.39954C23.2636 4.49547 23.2918 4.63656 23.3708 4.82279C23.4555 5.00902 23.495 5.14446 23.495 5.23476C23.495 5.28555 23.495 5.32504 23.4837 5.34761H23.4894ZM20.8934 5.41535C20.8934 5.47743 20.8652 5.55643 20.8031 5.66366C20.741 5.61851 20.679 5.59592 20.6112 5.59592C20.5717 5.59592 20.5379 5.61286 20.5097 5.64108C20.4363 5.7483 20.3799 5.92325 20.3517 6.17155C20.3234 6.41986 20.2783 6.5948 20.2162 6.69073C20.1767 6.63994 20.109 6.50451 20.0018 6.29571C19.8438 5.97404 19.6801 5.82166 19.5052 5.84423C19.5052 5.68622 19.5447 5.55642 19.618 5.46049C19.7478 5.47742 19.8607 5.56771 19.9679 5.74266C20.0526 5.89503 20.1316 6.04175 20.2162 6.18284C20.2388 6.14333 20.2783 6.01918 20.3404 5.81037C20.4307 5.49435 20.5435 5.33633 20.679 5.33633C20.741 5.33633 20.8088 5.36456 20.8934 5.41535ZM21.1191 3.60947C20.5943 3.75056 20.0187 3.93114 19.4036 4.13995C18.8562 4.32618 18.2918 4.52933 17.7106 4.74942C17.4228 4.86229 17.1406 4.97516 16.8528 5.08803C16.5085 5.22911 16.2941 5.42099 16.2207 5.66366C16.9261 5.30248 17.6936 4.96951 18.5232 4.65913C19.1835 4.41082 19.9848 4.14559 20.916 3.86906C20.9611 3.82956 21.0063 3.79005 21.0571 3.74491C21.1079 3.69976 21.1248 3.65462 21.1191 3.60947ZM16.9544 7.99999C16.8923 8.16365 16.8415 8.28216 16.802 8.35552C16.7625 8.42889 16.7117 8.47967 16.6609 8.50789C16.8866 8.14671 16.9995 7.75168 16.9995 7.32278C16.9995 7.1422 16.9769 6.97855 16.9374 6.83746C16.8979 6.69638 16.8246 6.54965 16.7286 6.40857C16.7512 6.31827 16.7738 6.2562 16.7907 6.21669C16.8076 6.17719 16.8471 6.16591 16.8979 6.17155C17.0559 6.45936 17.135 6.78667 17.135 7.15349C17.135 7.47516 17.0729 7.75733 16.9544 7.99999ZM19.2907 10.2347C19.0368 10.6241 18.653 10.9176 18.1395 11.1151C17.6824 11.2901 17.1632 11.3747 16.5932 11.3747C16.4803 11.3747 16.3787 11.3747 16.2941 11.3747C16.2094 11.3747 16.1304 11.3634 16.0627 11.3578C15.6056 11.1151 15.2896 10.7427 15.1146 10.2291C14.9961 9.86794 14.934 9.34311 14.934 8.66027V8.16365C14.934 8 14.934 7.83069 14.9453 7.66704C14.9453 7.50338 14.9453 7.33971 14.934 7.1817C14.9284 7.02369 14.9115 6.87133 14.8889 6.71896C14.7986 5.93454 14.7083 5.15575 14.618 4.37133C14.6632 4.1851 14.7083 4.03836 14.7535 3.93678C14.7986 3.8352 14.872 3.73363 14.9679 3.6264C15.0808 4.13995 15.1485 4.77765 15.1711 5.5395C15.1936 6.30135 15.2162 7.06885 15.2444 7.8307C15.2726 8.59255 15.346 9.23589 15.4645 9.75508C15.5548 10.026 15.741 10.263 16.0289 10.4661C16.2997 10.5395 16.5763 10.579 16.8641 10.579C17.2422 10.579 17.6146 10.5169 17.9871 10.3871C18.3596 10.2573 18.7094 10.088 19.0311 9.87922C19.0085 9.81714 18.9634 9.69864 18.89 9.5237C18.8167 9.34876 18.7772 9.2133 18.7602 9.12301L18.9521 8.35552C19.1045 8.55304 19.223 8.75621 19.3189 8.9763C19.4149 9.19639 19.46 9.41647 19.46 9.64221C19.46 9.86794 19.4036 10.0767 19.2907 10.2404V10.2347ZM21.9318 8.31602C21.9318 8.12979 21.881 7.92663 21.7738 7.70654C21.6666 7.48645 21.5368 7.31151 21.3787 7.17607C21.2884 7.23815 21.2151 7.33408 21.1587 7.46952C21.1022 7.60496 21.0514 7.73476 21.0063 7.86456C21.1812 8.55869 21.3562 9.24717 21.5368 9.9413C21.0401 10.3702 20.4702 10.7709 19.8212 11.1377C19.3697 11.3916 18.7546 11.702 17.9815 12.0632C16.9149 12.5598 16.311 12.842 16.1756 12.9097C16.7343 12.8251 17.293 12.746 17.8573 12.6614C18.5119 12.5485 19.0255 12.351 19.3923 12.0745C19.8663 11.798 20.3404 11.5158 20.8144 11.228C21.3505 10.8668 21.6666 10.4492 21.7625 9.97516C21.8302 9.82279 21.8641 9.6817 21.8641 9.54626C21.8641 9.42775 21.8302 9.23588 21.7568 8.97065C21.6835 8.70541 21.6496 8.50789 21.6496 8.37245C21.6496 8.29909 21.6609 8.22008 21.6835 8.13543L21.9318 8.31602ZM21.4465 11.8713C21.3562 12.0011 21.232 12.1196 21.074 12.2325C20.9555 12.3171 20.7975 12.4074 20.6 12.5034C20.3742 12.5993 20.2049 12.6783 20.0921 12.7291C19.8945 12.8194 19.7309 12.9097 19.5954 13C19.6575 12.9041 19.7422 12.8025 19.8607 12.7065C19.9792 12.6106 20.1654 12.4921 20.4307 12.3567C20.662 12.2494 20.837 12.1761 20.9499 12.1309C21.1474 12.0463 21.311 11.9616 21.4465 11.8713ZM11.9318 3.94808L11.9205 4.15123C11.8754 4.15123 11.8302 4.1343 11.7794 4.10044C11.7286 4.06658 11.6835 4.03272 11.6383 3.99322C11.565 4.37132 11.486 4.74379 11.4126 5.1106C11.3505 5.04853 11.2659 4.89616 11.1587 4.65349C11.0514 4.41083 10.9555 4.3036 10.8708 4.33182C10.758 4.3939 10.6733 4.37133 10.6112 4.2641C10.6112 4.15688 10.6225 4.06659 10.6451 3.98758C10.6677 3.90858 10.7185 3.84649 10.7918 3.80134C10.9555 3.86906 11.0853 3.99886 11.1756 4.19074C11.2659 4.38261 11.3505 4.56883 11.4352 4.74942C11.4408 4.70428 11.4578 4.55191 11.486 4.29796C11.5142 4.04401 11.5706 3.84649 11.6609 3.71105C11.7964 3.75055 11.8866 3.82957 11.9318 3.94808ZM12.3945 6.28441C12.3663 6.40292 12.3155 6.52708 12.2478 6.65687C12.1519 6.82053 12.0785 6.94469 12.0334 7.01806C11.7851 6.86004 11.5424 6.69638 11.2997 6.53272C11.2828 6.55529 11.2151 6.67381 11.0966 6.8939C11.0458 6.98419 10.9894 7.04627 10.9386 7.08577C10.8483 7.08013 10.7467 7.04627 10.6282 6.9842C10.5097 6.92212 10.4024 6.86568 10.2952 6.80361C10.3178 6.53837 10.4476 6.30135 10.679 6.08126L11.2659 6.32957L11.7286 5.91195C11.8246 5.94017 11.9431 6.00226 12.0842 6.08691C12.2252 6.17156 12.3268 6.23926 12.3945 6.28441ZM16.2659 12.2099C16.2659 12.2099 16.1925 12.3454 16.0627 12.5937C15.9781 12.7517 15.8708 12.8138 15.7354 12.7856C15.5548 12.6953 15.3742 12.6106 15.1936 12.5259C15.109 12.5259 15.0526 12.5767 15.0131 12.684C14.9905 12.7235 14.9623 12.763 14.9284 12.8081C14.8945 12.8533 14.855 12.8984 14.8099 12.9436L14.1214 12.6275C14.144 12.5372 14.1835 12.4413 14.2399 12.3454C14.2964 12.2494 14.3979 12.1196 14.5503 11.9616C14.7027 12.0237 14.8268 12.0745 14.934 12.114C15.0413 12.1535 15.1316 12.2099 15.2162 12.2776L15.6903 11.9165L16.2659 12.2099ZM11.2997 8.64334C11.2997 8.72799 11.2828 8.81827 11.2489 8.91421C11.2151 9.01015 11.1643 9.08916 11.0966 9.15124C11.0232 9.15124 10.9499 9.12302 10.8821 9.06094C10.8144 8.99887 10.7749 8.93114 10.7693 8.84649C10.7693 8.7167 10.7749 8.59818 10.7918 8.49096C10.8088 8.38374 10.8539 8.26522 10.9386 8.13543C10.9386 8.16364 10.9329 8.22572 10.916 8.31602C10.8991 8.40631 10.8934 8.47968 10.8934 8.53047C10.8934 8.68848 10.9611 8.7957 11.0966 8.84649C11.1417 8.85214 11.1812 8.82957 11.2207 8.77878C11.2264 8.77313 11.2546 8.72799 11.2997 8.64334ZM14.1327 9.9413C14.1158 9.85665 14.0706 9.80023 13.986 9.77201C13.8562 9.75508 13.732 9.73814 13.6135 9.71557C13.2015 9.71557 12.688 9.80022 12.0785 9.97516C11.2151 10.2235 10.6903 10.3646 10.5097 10.3984C10.3291 10.4323 10.1654 10.4605 10.0131 10.4774C9.86069 10.4944 9.70267 10.5056 9.52773 10.5056C9.19477 10.5056 8.87874 10.4605 8.574 10.3646C8.26926 10.2686 7.96452 10.1162 7.66543 9.90744C7.4792 9.67607 7.38326 9.38826 7.38326 9.04966C7.38326 8.96501 7.38326 8.90857 7.39455 8.86907C7.48484 8.66027 7.57513 8.44581 7.66543 8.22572C7.78394 7.97177 7.94195 7.84198 8.13947 7.84198C8.30312 7.68396 8.43292 7.50903 8.51757 7.31715C8.60222 7.12528 8.63608 6.93341 8.61351 6.73589C8.58529 6.73025 8.56272 6.73588 8.55707 6.75845C8.55143 6.78102 8.54014 6.80361 8.52321 6.82618C8.46114 6.93341 8.4047 7.00676 8.35391 7.04627C8.30312 7.08577 8.2354 7.09141 8.15075 7.06319C8.06046 6.94468 7.99838 6.83746 7.96452 6.74717C7.93066 6.65688 7.91373 6.54966 7.91373 6.41986C8.20154 5.74831 8.48371 5.07674 8.77152 4.39954C8.56836 4.70992 8.37084 5.01467 8.17333 5.32505C7.76136 5.97968 7.55256 6.53273 7.55256 6.9842C7.55256 7.24943 7.60335 7.49773 7.71057 7.7291C7.55256 8.06206 7.39455 8.40632 7.23653 8.76185C7.07852 9.11738 6.99951 9.45033 6.99951 9.74943C6.99951 9.99774 7.04466 10.2235 7.13495 10.4266C7.36633 10.7201 7.6485 10.9289 7.97581 11.0474C8.30312 11.1659 8.66994 11.228 9.07626 11.228C9.34714 11.228 9.61802 11.2054 9.89455 11.1659C10.1711 11.1264 10.5548 11.0305 11.0514 10.8894C11.486 10.7765 11.9261 10.658 12.3607 10.5395C12.6372 10.4718 12.9024 10.4379 13.1508 10.4379C13.2805 10.4379 13.4103 10.4492 13.5458 10.4718C13.4329 10.6749 13.1846 10.9684 12.8065 11.3578C12.4284 11.7472 12.1857 12.0519 12.0785 12.2776C12.4679 11.9221 12.8629 11.5722 13.2523 11.2167C13.7207 10.7709 14.0142 10.3476 14.1327 9.9413Z" fill="currentColor"/>
</svg>
