<svg width="40" height="16" viewBox="0 0 40 16" fill="none" xmlns="http://www.w3.org/2000/svg">
<path fill-rule="evenodd" clip-rule="evenodd" d="M28.1665 3.5059C28.1412 3.56492 28.1243 3.62816 28.1243 3.68718C28.1243 3.74199 28.1412 3.80944 28.1707 3.88954C28.2002 3.96965 28.217 4.02445 28.217 4.04975C28.217 4.0919 28.2086 4.12563 28.196 4.15514C28.1833 4.18465 28.1538 4.2226 28.1032 4.26054L28.0105 4.18044C27.8629 4.37437 27.6606 4.56408 27.4034 4.74536C27.1757 4.90135 26.9439 5.05733 26.7162 5.20911C27.0998 4.85076 27.4835 4.49241 27.8713 4.12563C27.8503 4.07083 27.7744 3.99916 27.6395 3.90641C27.5046 3.81366 27.4371 3.73356 27.4371 3.65767C27.4371 3.61551 27.454 3.56914 27.4919 3.51433C27.5299 3.45953 27.6015 3.40051 27.7027 3.33727C27.8081 3.27403 27.8924 3.2403 27.9599 3.2403C28.0737 3.2403 28.1412 3.32462 28.1622 3.49325L28.1665 3.5059ZM26.3031 4.94351C26.2145 5.11214 26.1471 5.2344 26.1007 5.30607C26.0122 5.45363 25.9068 5.50843 25.7761 5.46627C25.6327 5.37352 25.5273 5.30607 25.4515 5.26813C25.3756 5.23018 25.2997 5.20067 25.2196 5.18381C25.1732 5.20911 25.1184 5.29342 25.0636 5.43676C25.0046 5.5801 24.9455 5.64755 24.8781 5.64755C24.8359 5.64755 24.7938 5.63491 24.7474 5.6054C24.7263 5.5801 24.6504 5.53373 24.5197 5.47471C24.3891 5.41568 24.3343 5.3398 24.3638 5.25126C24.4776 5.08263 24.5914 4.914 24.7095 4.74536C24.7853 4.77066 24.8697 4.81282 24.9708 4.87184C25.072 4.93086 25.169 4.98566 25.266 5.04047C25.3334 4.9941 25.4051 4.90978 25.4852 4.78752C25.5611 4.66526 25.6243 4.58938 25.6707 4.55565C25.7803 4.61046 25.8899 4.66105 26.0037 4.70742C26.1049 4.76223 26.2061 4.83811 26.3073 4.93929L26.3031 4.94351ZM25.4009 3L25.2491 3.25295C24.7896 3.40894 24.2963 3.59443 23.7609 3.80944C23.314 3.99072 22.825 4.1973 22.2938 4.42496C22.2938 4.34907 22.3233 4.28162 22.3781 4.21838C22.4371 4.15514 22.5004 4.11298 22.5762 4.0919C23.04 3.90219 23.5079 3.71248 23.9759 3.52698C24.4439 3.33727 24.9203 3.16442 25.3966 3H25.4009ZM20.5948 3.5059C20.6032 3.53963 20.5948 3.57335 20.5864 3.6113C20.5737 3.64924 20.5526 3.68297 20.5273 3.71669L20.2828 3.586C20.2407 3.80944 20.2111 3.97386 20.1901 4.08347C20.1479 4.29427 20.0931 4.45025 20.0172 4.55986C19.9624 4.51771 19.8865 4.39966 19.7896 4.20573C19.6926 4.0118 19.5746 3.91062 19.4396 3.91062C19.3933 3.88533 19.368 3.83052 19.368 3.75042C19.368 3.69561 19.3806 3.63659 19.4101 3.56914C19.4692 3.51012 19.5155 3.45953 19.5408 3.41737C19.642 3.47217 19.739 3.60708 19.8275 3.82631C19.9203 4.04553 20.0046 4.15514 20.0847 4.15514C20.0973 4.0118 20.1142 3.86003 20.1353 3.6914C20.1563 3.52277 20.2111 3.39629 20.2955 3.31619C20.3418 3.31619 20.3798 3.32462 20.4051 3.34148C20.4304 3.35835 20.4936 3.41315 20.5864 3.51012L20.5948 3.5059ZM27.1125 8.94013C26.9649 9.62732 26.3663 10.129 25.3208 10.4368C24.6125 10.6476 24.1488 10.8204 23.9253 10.9637C23.6007 11.0649 23.2466 11.2589 22.8629 11.5413C22.8545 11.5497 22.5299 11.8069 21.8806 12.3212C21.4759 12.6459 21.1302 12.8693 20.8477 13C20.4557 13 20.1606 12.8398 19.9582 12.5152C19.8781 12.3339 19.8359 12.1568 19.8359 11.9882C19.8359 11.7521 19.9076 11.4907 20.0467 11.2083C20.0805 11.1408 20.2196 10.9047 20.4599 10.5C20.3165 10.7614 20.2238 10.9511 20.1774 11.0649C20.0678 11.3137 20.0172 11.5329 20.0172 11.7226C20.0172 11.8997 20.0594 12.0641 20.1479 12.2201C20.228 12.3086 20.3081 12.3803 20.3924 12.4309C20.4725 12.4857 20.5611 12.511 20.6538 12.511C20.9995 12.4182 21.3536 12.2285 21.7162 11.946C22.0282 11.6762 22.3359 11.4064 22.6479 11.1366C23.0316 10.8078 23.3688 10.5801 23.6597 10.4578C24.7052 10.032 25.7508 9.60624 26.7963 9.17201C26.8047 9.12563 26.8047 9.0919 26.8047 9.07082C26.8047 9.0371 26.7879 9.01181 26.7541 8.99073C26.7289 9.03289 26.6993 9.04975 26.674 9.04132C26.5518 8.79258 26.1597 8.65346 25.4894 8.62816C24.8191 8.60287 24.486 8.36678 24.486 7.92833C24.4945 7.86088 24.4945 7.81029 24.4945 7.77656C24.6547 7.46037 24.7853 7.22428 24.8781 7.0683C25.0467 6.79005 25.2533 6.62142 25.4936 6.55396C25.7381 6.53288 25.97 6.5919 26.1934 6.72681C26.3747 6.84064 26.556 7.0177 26.7289 7.25379C26.8722 7.51096 26.9734 7.7091 27.0324 7.85244C27.1251 8.08853 27.1757 8.31197 27.1757 8.51855C27.1757 8.6661 27.1504 8.80945 27.1041 8.94435L27.1125 8.94013ZM19.2499 5.22597L18.8874 5.77403L18.2803 5.51265C18.314 5.41147 18.3604 5.3145 18.4236 5.21754C18.4826 5.12479 18.5627 5.02361 18.6555 4.914C18.8705 4.9941 19.0687 5.09949 19.2541 5.22597H19.2499ZM17.1757 4.28584C17.1294 4.37858 17.0619 4.39966 16.9734 4.34486C16.8975 4.23103 16.8638 4.10877 16.8638 3.98229C16.8638 3.85582 16.9017 3.6914 16.9734 3.49747C17.0746 3.2403 17.1294 3.08853 17.1336 3.04216C17.142 3.11804 17.1125 3.24452 17.0493 3.42159C16.986 3.59865 16.9523 3.73356 16.9523 3.82209C16.9523 3.94435 17.0071 4.04132 17.1125 4.1172C17.1462 4.04975 17.1842 3.98229 17.2221 3.91484C17.2348 3.96965 17.2432 4.0118 17.2432 4.04553C17.2432 4.13828 17.2179 4.2226 17.1715 4.29005L17.1757 4.28584ZM19.9371 5.9258C19.916 5.83727 19.8317 5.7656 19.6842 5.70236C19.5577 5.6602 19.4312 5.61804 19.309 5.57167L18.9253 6.03541L18.2761 5.80354C18.0864 5.99326 17.9641 6.19983 17.9009 6.4317L18.567 6.65514C18.6218 6.60034 18.6597 6.55818 18.685 6.52867C18.7103 6.49916 18.7314 6.4317 18.7567 6.33052C18.782 6.22934 18.841 6.17875 18.9422 6.17875C18.9759 6.17875 19.0897 6.23356 19.2879 6.33895C19.368 6.38533 19.4396 6.41062 19.4987 6.41062C19.5914 6.41062 19.6799 6.33895 19.7558 6.1914C19.8317 6.04806 19.8907 5.95531 19.9329 5.92159L19.9371 5.9258ZM22.7196 10.4789C22.7322 10.4241 22.7407 10.3904 22.7407 10.3777C22.7407 10.285 22.6648 10.1922 22.5172 10.1037C22.4371 10.0573 22.3191 9.98988 22.1631 9.90135L21.7078 10.4578L21.1808 10.1627C21.088 10.1754 21.0037 10.226 20.9363 10.3145C20.9152 10.3356 20.8351 10.4831 20.6918 10.7614L21.3494 11.0649C21.3958 11.0228 21.4464 10.9553 21.5012 10.8626C21.5897 10.7024 21.6614 10.6012 21.7246 10.559C21.8342 10.5801 21.9439 10.6265 22.0577 10.7024C22.1378 10.7487 22.239 10.8204 22.3612 10.9132C22.4751 10.7698 22.5931 10.6265 22.7154 10.4789H22.7196ZM15.9911 7.75548C15.9236 7.75548 15.873 7.73019 15.8435 7.68381C15.814 7.63744 15.7929 7.59106 15.7845 7.55312C15.7761 7.51096 15.7676 7.45615 15.7676 7.38027C15.7676 7.11889 15.8267 6.87437 15.9489 6.65093C15.9152 6.7774 15.8899 6.87015 15.8773 6.92917C15.8646 6.9882 15.8562 7.05143 15.8562 7.12732C15.8562 7.21585 15.8646 7.2833 15.8815 7.33389C15.8983 7.38448 15.9321 7.43929 15.9869 7.50253C16.029 7.50253 16.0754 7.47723 16.1302 7.42243C16.1176 7.3887 16.1133 7.35497 16.126 7.32125C16.1344 7.28752 16.1597 7.24536 16.1934 7.19056C16.2061 7.24536 16.2145 7.28752 16.2145 7.32125C16.2145 7.51518 16.1386 7.66273 15.9911 7.75548ZM15.4346 5.22597C15.4009 5.36088 15.2364 5.43676 14.9455 5.45784C14.6504 5.47892 14.4692 5.56324 14.3933 5.71079C14.3933 5.9258 14.427 6.1914 14.4945 6.49916C14.6504 7.21585 14.7263 7.66695 14.7263 7.85666C14.7348 7.91147 14.7348 7.96627 14.7348 8.02529V8.19393C14.7348 8.37521 14.7179 8.55649 14.6799 8.73356C14.642 8.91063 14.5872 9.08769 14.5113 9.25632C14.6125 9.00759 14.6631 8.73777 14.6631 8.44688C14.6631 8.28668 14.6462 8.10118 14.6125 7.89882C14.5029 7.30017 14.3975 6.69309 14.2879 6.086C14.2879 5.88364 14.3132 5.69814 14.3595 5.52951C14.4396 5.42833 14.5366 5.35244 14.6462 5.30185C14.7558 5.25126 14.895 5.20489 15.0552 5.16695C15.0004 5.12479 14.954 5.09528 14.9118 5.0742C14.8697 5.05312 14.8275 5.04469 14.7811 5.04469C14.7348 5.04469 14.6926 5.05733 14.6589 5.08685L14.5493 5.21754C14.5282 5.16273 14.5282 5.11214 14.545 5.06577C14.5619 5.01939 14.5914 4.96459 14.6294 4.90556C14.7052 4.85076 14.739 4.78331 14.739 4.7032C14.739 4.63575 14.701 4.53457 14.6294 4.39545C14.5535 4.25632 14.5155 4.16358 14.5071 4.1172C14.3638 4.09612 14.2626 4.06239 14.1951 4.01602C14.1277 3.96964 14.0855 3.90641 14.0644 3.83474L14.2162 3.40894C14.3511 3.51855 14.4734 3.65346 14.5788 3.82209C14.6589 3.94857 14.739 4.1172 14.8233 4.32799C14.8697 3.96965 14.9034 3.76307 14.9245 3.71248C14.9708 3.586 15.0425 3.48482 15.1353 3.40894C15.2364 3.38364 15.325 3.41737 15.3966 3.51012L15.325 3.72091C15.266 3.69562 15.2154 3.67454 15.1732 3.66189C15.131 3.64924 15.0931 3.65346 15.0509 3.68297C15.0172 3.75042 14.9919 3.83474 14.9793 3.9317C14.9666 4.02867 14.9582 4.12563 14.9582 4.21838V4.42917C14.9582 4.55565 14.9455 4.67369 14.916 4.77487C15.0088 4.81703 15.1015 4.88027 15.1901 4.9688C15.2364 5.01518 15.3165 5.10371 15.4219 5.23019L15.4346 5.22597ZM22.4666 8.29089C22.4793 8.23609 22.4877 8.15599 22.4877 8.04637C22.4877 7.84401 22.3275 7.43508 22.0029 6.82378C21.8595 6.56239 21.8005 6.32631 21.8216 6.11551C21.8469 6.11551 21.8806 6.12395 21.9144 6.14502C21.9481 6.1661 21.986 6.18718 22.024 6.21669C22.045 6.16189 22.0535 6.11973 22.0535 6.086C22.0535 5.97218 21.9734 5.84148 21.809 5.68971C21.6066 5.5 21.4801 5.36088 21.4337 5.27656C21.3452 5.29764 21.2735 5.38196 21.223 5.52951C21.2145 5.55059 21.1808 5.67285 21.1218 5.90472C21.4928 6.73946 21.8638 7.5742 22.2348 8.40472C22.1547 8.53963 22.0493 8.63238 21.9144 8.67875C21.7837 8.72513 21.6192 8.75042 21.4253 8.75042C21.3789 8.75042 21.3241 8.75042 21.2567 8.74621C21.1934 8.74621 21.1218 8.73777 21.0375 8.72934C21.0164 8.71669 20.9194 8.67875 20.7423 8.61973C20.5147 8.53963 20.3966 8.43423 20.3966 8.30776C20.3966 8.24873 20.4177 8.17706 20.4557 8.09696C20.4135 8.14334 20.3208 8.29933 20.1732 8.56071C20.0636 8.75464 19.9455 8.88533 19.8106 8.94435C19.7179 8.98651 19.6167 9.00337 19.5155 9.00337C19.3132 9.00337 19.1361 8.94857 18.9886 8.84317C18.9633 8.7968 18.9464 8.74621 18.9464 8.6914C18.9464 8.67032 18.9801 8.56492 19.0476 8.37942C19.0687 8.3204 19.0729 8.25717 19.0687 8.19815C19.0434 8.22344 18.9759 8.29511 18.8747 8.40894C18.7482 8.55649 18.6344 8.67032 18.5375 8.74199C18.4405 8.81787 18.3393 8.86847 18.2381 8.89798C18.1369 8.92749 18.0105 8.94435 17.8629 8.94435C17.7364 8.94435 17.5973 8.92749 17.4498 8.89376C17.2811 8.89376 17.1547 8.80523 17.0661 8.63238C16.9396 8.371 16.8722 8.23608 16.8638 8.22765C16.7879 8.39629 16.7415 8.51012 16.7204 8.57336C16.6993 8.63238 16.6783 8.72934 16.6488 8.85582C16.6614 8.89798 16.7246 9.10456 16.8427 9.48398C16.9228 9.74115 16.9692 9.94772 16.986 10.1121C16.4675 10.597 15.8857 10.9764 15.2449 11.2462C14.6041 11.516 13.9169 11.6931 13.1791 11.7732C12.7955 11.7732 12.4666 11.7142 12.1968 11.6003C11.8806 11.4654 11.6361 11.2546 11.4675 10.9722C11.3536 10.7234 11.2946 10.4452 11.2946 10.1417C11.2946 9.9941 11.3157 9.83811 11.3536 9.66947C11.3958 9.50506 11.4464 9.36594 11.5138 9.26054C11.5687 9.21417 11.6108 9.1172 11.6445 8.96543C11.7036 8.72091 11.8005 8.6113 11.927 8.63238C12.1167 8.57336 12.2516 8.42158 12.3317 8.17706C12.3781 8.04216 12.4371 7.82715 12.5046 7.52782C12.4371 7.5489 12.3865 7.60371 12.357 7.68803C12.3275 7.77235 12.2896 7.83558 12.2516 7.86509C12.2095 7.8946 12.1673 7.91146 12.1209 7.91146C12.0197 7.91146 11.9354 7.86088 11.868 7.7597C11.8005 7.57841 11.7668 7.38027 11.7668 7.17369C11.7668 6.90388 11.8174 6.62563 11.9186 6.33474C11.9945 6.1113 12.1968 5.6855 12.5256 5.0489C12.3907 5.19646 12.2727 5.35244 12.1715 5.50843C12.0703 5.66863 11.9776 5.8457 11.8891 6.03963C11.809 6.25042 11.7289 6.45278 11.6572 6.65514C11.5012 7.08516 11.4253 7.45194 11.4253 7.74705C11.4253 8.06324 11.5096 8.34148 11.6783 8.57757C11.5307 8.81366 11.4084 9.06661 11.3073 9.33642C11.2103 9.60624 11.1176 9.90135 11.029 10.2175C11.0079 10.3777 10.9995 10.5464 10.9995 10.715C10.9995 11.027 11.0459 11.2968 11.1429 11.5329C11.2356 11.769 11.4042 11.9629 11.6403 12.1189C12.0703 12.3465 12.5425 12.4646 13.0484 12.4646C13.5543 12.4646 14.1361 12.3381 14.7601 12.0894C15.2407 11.8997 15.7592 11.6341 16.3199 11.2884C16.615 11.145 16.8427 10.8963 16.9987 10.5379C17.1083 10.2218 17.2137 9.90556 17.3233 9.58516C17.416 9.61888 17.5341 9.63575 17.669 9.63575C18.0737 9.63575 18.4194 9.4629 18.7103 9.12142C18.6977 9.20152 18.7103 9.29005 18.7398 9.37859C18.7735 9.47133 18.8199 9.53878 18.8832 9.58516C18.9717 9.62732 19.0602 9.65683 19.1445 9.68213C19.2331 9.70742 19.3132 9.71585 19.3891 9.71585C19.4776 9.71585 19.5661 9.69899 19.6504 9.66526C19.8064 9.63997 19.9371 9.53457 20.0467 9.35328C20.1015 9.2521 20.1859 9.09612 20.2997 8.88954C20.3081 8.94435 20.3334 8.99494 20.3756 9.04553C20.4177 9.09612 20.4641 9.14671 20.5105 9.19309C20.7719 9.36172 21.0712 9.44603 21.4 9.44603C21.5434 9.44603 21.6698 9.43339 21.7794 9.40388C21.8891 9.37858 21.9987 9.32799 22.1083 9.25211C22.2305 9.1425 22.3191 8.99073 22.3697 8.7968C22.395 8.62816 22.4287 8.45953 22.4624 8.29089H22.4666ZM19.5619 10.8499C19.5619 10.9258 19.545 10.9975 19.5155 11.0691C19.486 11.1408 19.4354 11.204 19.368 11.2673C19.2752 11.3137 19.1277 11.3769 18.9337 11.4486C18.8073 11.5034 18.7103 11.5413 18.6513 11.5582C18.5838 11.4907 18.529 11.4444 18.4911 11.4148C18.4236 11.3685 18.3562 11.3432 18.2887 11.3432C18.2297 11.3432 18.1749 11.3685 18.1285 11.4148L17.6142 11.7774C17.1336 12.1231 16.8258 12.3381 16.6825 12.4266C16.3241 12.6417 15.9826 12.7892 15.6496 12.8609C15.9531 12.7386 16.3452 12.5025 16.8216 12.1526C17.1336 11.9292 17.3654 11.7605 17.5214 11.6467C17.7912 11.4443 18.0779 11.2673 18.3815 11.1113C18.4489 11.1113 18.5501 11.1535 18.685 11.2336C18.7525 11.2757 18.8031 11.2926 18.8368 11.2926C18.9042 11.2926 18.9717 11.242 19.0391 11.1408C19.0518 11.086 19.0644 11.0354 19.0687 10.9848C19.0771 10.9342 19.1108 10.9005 19.1698 10.8879L19.1277 11.1113C19.1698 11.1366 19.2162 11.1408 19.2752 11.1155C19.3343 11.0902 19.3891 11.0565 19.4439 11.0101C19.486 10.9553 19.524 10.9005 19.5661 10.8499H19.5619ZM13.4826 9.64418C13.4826 9.75801 13.4616 9.86341 13.4236 9.95615C13.3815 10.0489 13.3182 10.1206 13.2297 10.1669C13.1749 10.1754 13.1285 10.1543 13.0821 10.1121C13.04 10.07 13.002 10.0152 12.9767 9.95615C12.9683 9.914 12.9683 9.85919 12.9683 9.7833C12.9683 9.6231 13.002 9.45869 13.0695 9.29848C13.0906 9.24368 13.1369 9.15514 13.2128 9.0371C13.1791 9.1172 13.1496 9.20152 13.1201 9.29005C13.0948 9.37858 13.0779 9.46711 13.0779 9.55143C13.0779 9.69899 13.1285 9.82125 13.2297 9.91399C13.2972 9.92664 13.3477 9.90135 13.3815 9.8339C13.4405 9.71164 13.4742 9.6484 13.4826 9.63997V9.64418ZM27.9725 3.76728C27.9978 3.6661 27.9725 3.59443 27.8798 3.55649C27.7912 3.51433 27.7364 3.54385 27.7196 3.63659C27.7407 3.64503 27.7786 3.67032 27.8418 3.71669C27.9051 3.76307 27.9472 3.77993 27.9725 3.76728ZM26.3241 7.8946C26.1681 7.69224 26.029 7.54469 25.8983 7.44772C25.7213 7.32125 25.5358 7.25379 25.3334 7.25379C25.266 7.25379 25.2154 7.25379 25.1816 7.26223C25.1015 7.3086 25.0509 7.34233 25.0299 7.36341C24.9751 7.41821 24.9498 7.47723 24.9498 7.54469C25.0172 7.68803 25.1184 7.78078 25.2575 7.83137C25.3966 7.88196 25.5611 7.90725 25.7466 7.90725C25.8224 7.90725 25.9236 7.90725 26.0543 7.89882C26.185 7.89039 26.2735 7.89039 26.3241 7.89039V7.8946Z" fill="currentColor"/>
</svg>
