<svg width="40" height="16" viewBox="0 0 40 16" fill="none" xmlns="http://www.w3.org/2000/svg">
<path fill-rule="evenodd" clip-rule="evenodd" d="M29.4719 9.81407C29.4719 10.0905 29.4417 10.3668 29.3764 10.6432C29.3111 10.9196 29.2256 11.2161 29.1101 11.5327C29.1704 11.1105 29.2005 10.6935 29.2005 10.2864C29.2005 9.70854 29.1503 9.08542 29.0498 8.41206C28.9493 7.73869 28.8488 7.05025 28.7432 6.35176C28.6377 5.65327 28.5875 5.0402 28.5875 4.51759C28.5221 4.44221 28.4869 4.37186 28.4869 4.29648C28.4869 4.22111 28.5171 4.1407 28.5774 4.04523C28.7432 3.78392 28.8287 3.64824 28.8287 3.63317C28.8538 3.71859 28.9744 3.96482 29.1905 4.36683C29.3563 4.68342 29.4417 4.94472 29.4417 5.16081C29.4417 5.21608 29.4266 5.30151 29.4015 5.42211C29.3261 5.28141 29.2709 5.17588 29.2357 5.10553C29.2005 5.03518 29.1553 4.96985 29.1101 4.90955C29.1101 5.35679 29.1905 6.36683 29.3513 7.93467C29.4317 8.71859 29.4719 9.34673 29.4719 9.81407ZM25.301 3.81407C25.1 4.07538 24.7633 4.29648 24.2859 4.47739C23.8839 4.63317 23.4819 4.78392 23.0799 4.9397C22.703 5.1407 22.3312 5.33668 21.9543 5.53266C21.9342 5.47739 21.9442 5.41709 21.9895 5.35176C22.0347 5.28643 22.0749 5.22111 22.1151 5.16081C22.497 4.97488 23.0246 4.74372 23.693 4.46734C24.2307 4.25126 24.7633 4.03518 25.301 3.81407ZM28.5875 10.1759C28.3915 10.196 28.2055 10.206 28.0246 10.206C27.7382 10.206 27.4266 10.1859 27.1 10.1407C26.7734 10.0955 26.4518 10.0402 26.1452 9.97487C26.0498 9.95477 25.5573 9.8392 24.6679 9.62312C24.3714 9.54774 24.0799 9.48744 23.7834 9.43216C24.3915 9.09548 24.8588 8.8593 25.1804 8.72362C25.502 8.58794 25.8136 8.47739 26.1151 8.39698C26.2206 8.83919 26.3513 9.16583 26.507 9.38191C26.6427 9.56281 26.8035 9.69346 26.9895 9.77387C27.1905 9.80904 27.3714 9.74874 27.5322 9.59297C27.5523 9.51759 27.6679 9.29648 27.8739 8.9196C28.0297 8.63819 28.105 8.40201 28.105 8.21608C28.105 8.03015 28.0347 7.86432 27.894 7.70352C27.7483 7.57789 27.5573 7.51256 27.3312 7.51256C27.2106 7.51256 27.0749 7.53266 26.9191 7.57286C26.7633 7.61306 26.6176 7.65829 26.4769 7.70352C26.4116 7.40201 26.3462 7.1005 26.2859 6.79899C26.2658 6.73869 26.2558 6.68844 26.2558 6.64824C26.2558 6.52261 26.3513 6.40201 26.5372 6.28643C26.7633 6.14573 26.904 6.04523 26.9493 5.98493C27.0045 5.96985 27.0699 5.90955 27.1503 5.80402C27.296 5.60804 27.4065 5.51256 27.4719 5.51256C27.5272 5.51256 27.5875 5.54774 27.6528 5.62312L27.7533 5.38191C27.6277 5.34171 27.5623 5.28141 27.5623 5.201C27.5623 5.1809 27.5824 5.1206 27.6277 5.01508C27.6729 4.90955 27.693 4.82914 27.693 4.76884C27.693 4.72362 27.688 4.68844 27.6729 4.66834C27.6327 4.60301 27.5875 4.54774 27.5422 4.51256C27.497 4.47739 27.4417 4.47236 27.3814 4.49749C27.2859 4.52261 27.2106 4.57286 27.1503 4.64824C27.1302 4.67337 27.0849 4.74874 27.0096 4.86935C26.9844 4.96985 27.0096 5.07035 27.1 5.17085C27.1452 5.22613 27.2256 5.30653 27.3312 5.42211C27.1905 5.58291 27.0246 5.73869 26.8287 5.88945C26.6327 6.0402 26.4467 6.1809 26.2658 6.31658C26.2508 6.2211 26.2256 6.0804 26.1905 5.89447C26.1553 5.70854 26.1352 5.53266 26.1352 5.37186C26.1352 5.27638 26.1402 5.18593 26.1553 5.1005C26.1704 5.01508 26.1905 4.92965 26.2256 4.84925C26.2407 4.86935 26.2859 4.9397 26.3663 5.0603C26.4216 5.1407 26.4719 5.19598 26.5171 5.23116C26.5171 4.94975 26.4518 4.64824 26.3261 4.32663C26.2809 4.21105 26.1553 3.94472 25.9543 3.52261C25.8538 3.66332 25.7784 3.77387 25.7332 3.85427C25.6679 3.97487 25.6176 4.09045 25.5824 4.19598C25.6829 4.63819 25.7583 5.04523 25.8086 5.41206C25.8588 5.7789 25.8839 6.16583 25.8839 6.56784C25.8638 6.60804 25.8086 6.65327 25.7181 6.70352C25.6277 6.75377 25.5674 6.80402 25.5422 6.8593C25.5875 6.87437 25.6528 6.8593 25.7332 6.81909C25.8136 6.77889 25.8739 6.76382 25.9141 6.76884L26.0447 7.80402C25.5573 8.0201 25.09 8.23116 24.6528 8.44221C24.2156 8.65327 23.7734 8.87437 23.3312 9.1005C23.0699 9.24121 22.8689 9.38191 22.7282 9.52261C22.5473 9.70351 22.4266 9.91457 22.3663 10.1558C22.4065 10.1608 22.4719 10.1307 22.5674 10.0653C22.9694 10.0653 23.5422 10.1508 24.2859 10.3266C24.688 10.4221 25.0196 10.4925 25.2809 10.5377C24.8186 10.7136 24.5322 10.8141 24.4266 10.8492C23.8839 11.0302 23.3864 11.1407 22.9292 11.1809C22.894 11.1859 22.8437 11.191 22.7684 11.191C22.5071 11.191 22.2709 11.1206 22.0548 10.9749C21.8387 10.8291 21.6679 10.6382 21.5322 10.397C21.3362 9.78894 21.2005 9.03518 21.1201 8.13568C21.0648 7.35176 21.0146 6.56281 20.9694 5.77387C20.894 4.85427 20.7734 4.09548 20.6076 3.49246C20.5473 3.56784 20.4869 3.68844 20.4266 3.86432C20.3915 3.9598 20.3613 4.03015 20.3362 4.08543C20.4417 4.59296 20.5322 5.17588 20.6076 5.82412C20.6528 6.26131 20.7131 6.90452 20.7784 7.75377C20.8437 8.60301 20.889 9.13568 20.9141 9.34171C20.9392 9.54774 20.9643 9.8191 20.9995 10.1457C21.0648 10.6281 21.1854 11 21.3513 11.2613C21.4719 11.4673 21.6327 11.6332 21.8287 11.7588C22.0246 11.8844 22.2307 11.9447 22.4467 11.9447C22.5221 11.9447 22.5724 11.9447 22.6076 11.9347C23.0096 11.8794 23.4869 11.7789 24.0347 11.6231C24.3412 11.5377 24.8035 11.402 25.4216 11.2211C25.8437 11.1156 26.2206 11.0352 26.5573 10.9799C26.894 10.9246 27.2357 10.8995 27.5925 10.8995C27.6528 10.8995 27.7382 10.8995 27.8437 10.9045C27.9493 10.9045 28.1302 10.9246 28.3764 10.9497C28.4367 10.8442 28.4819 10.7085 28.5171 10.5477C28.5322 10.5025 28.5523 10.3769 28.5875 10.1759ZM22.8387 7.56281C22.8035 7.65829 22.7734 7.73367 22.7483 7.78894C22.7231 7.84422 22.6729 7.88945 22.6076 7.92462C22.7332 7.69849 22.7985 7.43216 22.7985 7.13065C22.7985 6.72864 22.703 6.38191 22.5071 6.09548L22.6076 5.82412C22.7131 5.94472 22.7985 6.1005 22.8638 6.29146C22.9292 6.48241 22.9593 6.67336 22.9593 6.86934C22.9593 7.11558 22.9191 7.34673 22.8387 7.56281ZM26.7181 12.2161C26.6528 12.3719 26.6025 12.4824 26.5674 12.5578C26.507 12.6985 26.4317 12.809 26.3362 12.8894L25.6327 12.3367L26.0548 11.794L26.7181 12.2161ZM18.8488 4.06533L18.7784 4.27638C18.7131 4.26131 18.6427 4.25126 18.5774 4.23618C18.502 4.23618 18.4618 4.27638 18.4568 4.35678C18.4216 4.67839 18.3915 4.99497 18.3663 5.31156C18.2859 5.25126 18.2156 5.17086 18.1553 5.07035C18.0598 4.90452 17.9694 4.73367 17.8739 4.55779C17.8689 4.60301 17.8488 4.62814 17.8136 4.62814C17.7382 4.58794 17.688 4.56281 17.6528 4.55779C17.5724 4.53266 17.5322 4.47739 17.5322 4.39698C17.5322 4.35176 17.5372 4.30653 17.5523 4.26633C17.5674 4.22613 17.5824 4.17085 17.6025 4.10553C17.6427 4.0603 17.6829 4.03517 17.7231 4.03517C17.7633 4.03517 17.8086 4.05025 17.8538 4.08543C17.9191 4.17085 17.9995 4.30151 18.09 4.47236C18.1804 4.64322 18.2508 4.76382 18.306 4.82915C18.3312 4.66834 18.3613 4.50754 18.3864 4.34673C18.4317 4.14573 18.5121 4.01005 18.6277 3.93467C18.7332 3.94975 18.8086 3.98995 18.8488 4.06533ZM19.4116 6.8593C19.4116 6.8593 19.4216 6.91457 19.4216 6.9598C19.4216 7.05527 19.4015 7.13568 19.3663 7.21105C19.3312 7.28643 19.2709 7.35678 19.1905 7.43216C19.1302 7.42713 19.0799 7.40201 19.0347 7.35678C18.9895 7.31156 18.9593 7.26633 18.9392 7.21105C18.9191 7.11055 18.9091 7.01508 18.9091 6.9196C18.9091 6.75377 18.9442 6.54774 19.0196 6.30653C19.0548 6.19096 19.09 6.07538 19.1302 5.95477C19.1302 6.0201 19.1151 6.13568 19.09 6.29648C19.0648 6.45728 19.0498 6.58292 19.0498 6.66834C19.0498 6.76885 19.0648 6.85929 19.095 6.9397C19.1251 7.0201 19.1754 7.08543 19.2508 7.1407L19.4116 6.8593ZM14.9392 3L14.8588 3.1809C14.6427 3.31658 14.3312 3.49749 13.9241 3.73367C13.8035 3.79899 13.2709 4.10553 12.3261 4.64824C12.3111 4.59296 12.3211 4.54271 12.3462 4.49246C12.3714 4.44221 12.4015 4.39196 12.4367 4.33668C13.2658 3.89447 14.1 3.44724 14.9392 3ZM20.3563 11.6633C20.291 11.7688 20.1955 11.8744 20.0799 11.9698C19.9643 12.0653 19.7432 12.1859 19.4216 12.3317C19.1 12.4774 18.7633 12.6281 18.4065 12.7889C18.4015 12.7487 18.4166 12.6935 18.4568 12.6281C18.4769 12.593 18.502 12.5628 18.5272 12.5276C19.1352 12.2412 19.7483 11.9497 20.3563 11.6633ZM17.1503 10.206C17.1503 10.206 17.1603 10.2613 17.1603 10.3065C17.1603 10.4724 17.105 10.6181 16.9995 10.7387C16.8638 10.7588 16.7784 10.7035 16.7382 10.5678C16.7382 10.201 16.8136 9.85929 16.9593 9.54271C16.9744 9.60301 16.9694 9.67337 16.9493 9.75377C16.894 10.0101 16.8689 10.1457 16.8689 10.1658C16.8689 10.3015 16.9241 10.397 17.0297 10.4573L17.1503 10.206ZM13.4317 6.18593L13.1101 6.60804L12.497 6.34673C12.4819 6.39196 12.4367 6.45729 12.3563 6.54271C12.2759 6.62814 12.2106 6.68844 12.1653 6.72864C12.1101 6.71357 12.0447 6.68844 11.9593 6.64824C11.8739 6.60804 11.7382 6.53769 11.5523 6.43718C11.5674 6.31156 11.6327 6.17085 11.7533 6.01508C11.8136 5.9397 11.8789 5.86432 11.9442 5.78392L12.507 5.96482L12.9292 5.60301C12.9292 5.60301 13.0548 5.66834 13.2709 5.78392C13.4266 5.86432 13.502 5.94472 13.502 6.02512C13.502 6.0804 13.4769 6.13065 13.4317 6.18593ZM19.9945 9.71357C19.1151 9.07538 18.2407 8.44221 17.3613 7.80402C17.4166 7.79899 17.4568 7.76884 17.492 7.72362C17.5071 7.70352 17.5272 7.65829 17.5623 7.58292C17.4769 7.56282 17.3663 7.51256 17.2407 7.43216C17.0045 7.27136 16.8337 7.18593 16.7282 7.1809C16.6679 7.28141 16.6277 7.38191 16.6025 7.48744C16.5774 7.59296 16.5674 7.71357 16.5674 7.85427C16.7885 8.19598 17.095 8.52261 17.492 8.8392C17.7734 9.06533 18.1402 9.31658 18.5875 9.59297C19.1754 9.95477 19.5422 10.1859 19.6829 10.2864C19.2256 10.5327 18.7734 10.7839 18.3261 11.0301C17.7885 11.3266 17.3312 11.5578 16.9493 11.7236C16.4618 11.9397 15.9744 12.1005 15.492 12.2161C15.3965 12.2362 15.306 12.2261 15.2206 12.1809C15.1352 12.1357 15.0548 12.0703 14.9794 11.9849C14.9191 11.8643 14.889 11.7437 14.889 11.6231C14.9442 11.3417 14.9945 11.0653 15.0498 10.7889C15.2558 10.4874 15.4065 10.1759 15.492 9.84924C15.5774 9.52261 15.6226 9.16583 15.6226 8.77889C15.6226 8.65829 15.6176 8.52261 15.6025 8.37186C15.5875 8.22111 15.5724 8.0603 15.5523 7.88442C15.5322 7.70854 15.4618 7.34171 15.3412 6.77889C15.1653 5.96985 15.0799 5.35678 15.0799 4.9397L15.1704 4.78894C15.291 4.96482 15.4116 5.13568 15.5322 5.31156C15.5322 5.00502 15.4568 4.66332 15.3111 4.29648C15.2156 4.0603 15.0648 3.75879 14.8588 3.38191L14.5774 3.88442C14.5774 4.38694 14.6327 5.00503 14.7483 5.73367C14.8035 6.09045 14.9141 6.71357 15.09 7.61307C15.2357 8.37186 15.3362 9 15.3915 9.50251C15.2156 9.69849 15.0397 9.84924 14.8588 9.9598C14.6779 10.0704 14.4819 10.1256 14.2759 10.1256C14.1553 10.1256 14.0146 10.0955 13.8488 10.0402C13.6829 9.98492 13.4266 9.69849 13.0799 9.19095C12.9241 8.96985 12.7583 8.8392 12.5774 8.799C12.3915 8.90452 12.2307 9.04523 12.095 9.21608C11.9593 9.38694 11.8136 9.67337 11.6528 10.0754C11.5171 10.4171 11.4116 10.6533 11.3312 10.7889C11.1854 11.0302 11.0045 11.2261 10.7885 11.3719C10.7483 11.407 10.693 11.4221 10.6176 11.4221C10.5724 11.4221 10.5171 11.4121 10.4568 11.397C10.3965 11.3819 10.3412 11.3668 10.296 11.3518C10.0498 11.2161 9.85881 11.01 9.72313 10.7286C9.62263 10.5226 9.54223 10.2563 9.48192 9.93467C9.48192 9.87437 9.47187 9.74874 9.44675 9.55779C9.42162 9.36684 9.41157 9.22613 9.41157 9.13065C9.41157 8.99497 9.43167 8.88442 9.4769 8.78894C9.52212 8.69347 9.58745 8.63316 9.68293 8.59799C9.81861 8.48241 9.91408 8.33668 9.97439 8.1608C10.0347 7.98492 10.0648 7.79899 10.0648 7.60301C10.0648 7.52261 10.0648 7.46734 10.0548 7.43216C10.0196 7.46734 9.98946 7.52764 9.95931 7.62311C9.92916 7.71859 9.88393 7.77889 9.82363 7.80402C9.698 7.82412 9.60755 7.78894 9.56233 7.70352C9.40152 7.47739 9.32112 7.22613 9.32112 6.94975C9.32112 6.72362 9.36132 6.49246 9.44172 6.25628C9.48695 6.11558 9.5774 5.90452 9.71308 5.62312C9.63268 5.66332 9.5573 5.75879 9.49197 5.90452C9.42665 6.05025 9.3764 6.14573 9.34122 6.18593C9.23569 6.39196 9.15027 6.61306 9.08996 6.8392C9.02966 7.06533 8.99951 7.29145 8.99951 7.51256C8.99951 7.70854 9.02464 7.88945 9.07991 8.0603C9.13519 8.23115 9.22062 8.38191 9.34122 8.50754C9.30102 8.79397 9.27589 9.00502 9.26584 9.13065C9.25579 9.25628 9.25077 9.44221 9.25077 9.68342C9.25077 10.0302 9.28092 10.3668 9.34625 10.6834C9.41157 11 9.50705 11.2864 9.64273 11.5327C9.77841 11.7387 9.91911 11.8995 10.0749 12.0151C10.2709 12.1558 10.4719 12.2261 10.6779 12.2261C10.9593 12.1307 11.1804 11.9698 11.3412 11.7437C11.4568 11.5829 11.5674 11.3266 11.6779 10.9749C11.7885 10.6231 11.8739 10.3869 11.9342 10.2663C12.0699 10 12.2457 9.78894 12.4668 9.64322C12.6628 9.64322 12.8387 9.77889 12.9995 10.0553C13.2005 10.392 13.3663 10.598 13.492 10.6784C13.5875 10.7638 13.688 10.8241 13.7935 10.8593C13.899 10.8945 14.0146 10.9095 14.1352 10.9095C14.296 10.9095 14.4467 10.8894 14.5824 10.8492C14.7181 10.809 14.8689 10.7538 15.0297 10.6784C14.894 11.0402 14.8136 11.2764 14.7784 11.3819C14.693 11.6633 14.6478 11.9095 14.6478 12.1156C14.6478 12.2513 14.6628 12.3719 14.688 12.4874C14.7131 12.603 14.7633 12.7136 14.8287 12.8191C14.9493 12.9397 15.1151 13 15.3312 13C15.4467 13 15.5272 12.995 15.5824 12.9799C16.0196 12.8342 16.4869 12.6432 16.9895 12.407C17.3362 12.2462 17.7885 12.0201 18.3362 11.7337C18.7834 11.4925 19.2357 11.2563 19.6829 11.0201C19.8086 10.8794 19.894 10.7186 19.9342 10.5327C19.9744 10.3467 19.9945 10.1307 19.9945 9.88442V9.71357ZM11.7432 3.97488C11.6427 3.8392 11.5523 3.73869 11.4719 3.66332C11.3563 3.56784 11.2457 3.51256 11.1302 3.49246C11.09 3.53769 11.0598 3.60804 11.0397 3.70352C10.9995 3.8995 10.9643 4.0201 10.9342 4.06533C10.904 4.11055 10.889 4.1608 10.889 4.20603C10.889 4.28643 10.9241 4.36181 10.9995 4.42713C11.0548 4.47236 11.1251 4.51256 11.2106 4.53769C11.0699 4.79899 10.8136 5.11055 10.4467 5.47236C9.97941 5.92965 9.698 6.21105 9.61258 6.31658C9.96936 6.09045 10.291 5.82914 10.5774 5.54271C10.894 5.22613 11.1402 4.90452 11.3211 4.57789L11.693 4.66834C11.7684 4.53266 11.8035 4.39698 11.8035 4.25628C11.8035 4.1608 11.7834 4.07035 11.7432 3.97488ZM14.3563 7.36181L14.2859 7.60301C14.2859 7.60301 14.2407 7.57286 14.1854 7.53266C14.1302 7.49246 14.0849 7.47739 14.0447 7.49246C14.0196 7.55779 13.9744 7.73869 13.9191 8.02513C13.8638 8.31156 13.7784 8.50251 13.6729 8.59799C13.6478 8.56281 13.5824 8.41206 13.4819 8.14573C13.4065 7.94975 13.301 7.85427 13.1603 7.85427C13.1151 7.80904 13.09 7.75879 13.09 7.70352C13.09 7.66332 13.1 7.60804 13.1251 7.54271C13.1503 7.47739 13.1603 7.42714 13.1603 7.40201C13.1804 7.37688 13.2055 7.35678 13.2357 7.34171C13.2658 7.32663 13.291 7.33668 13.3111 7.36181C13.3965 7.45729 13.4819 7.60804 13.5623 7.82412C13.6427 8.0402 13.7081 8.18593 13.7533 8.26633C13.7885 8.21105 13.8287 8.03015 13.8789 7.71859C13.9292 7.40703 14.0096 7.25126 14.1151 7.25126C14.1804 7.25126 14.2608 7.28643 14.3563 7.36181ZM11.1503 8.50754C11.1704 8.54774 11.1804 8.58291 11.1804 8.61809C11.1804 8.67839 11.1653 8.73869 11.1402 8.799C11.1151 8.8593 11.0749 8.92965 11.0196 9.01005C10.9543 9.03015 10.894 9.01005 10.8488 8.95477C10.8035 8.8995 10.7734 8.84422 10.7583 8.78894C10.7432 8.73367 10.7382 8.67839 10.7382 8.61809C10.7382 8.51256 10.7684 8.38694 10.8236 8.24623C10.8789 8.10553 10.9241 8 10.9493 7.92462C10.9493 7.96985 10.9342 8.05528 10.904 8.17588C10.8739 8.29648 10.8588 8.38191 10.8588 8.42714C10.8588 8.49246 10.8689 8.54774 10.8839 8.58794C10.899 8.62814 10.9342 8.66834 10.9895 8.70854C11.0246 8.70352 11.0498 8.67839 11.0749 8.63819C11.1 8.59799 11.1251 8.55276 11.1503 8.50754ZM12.8488 12.2261C12.8287 12.4121 12.8086 12.5377 12.7834 12.593C12.7583 12.6482 12.7181 12.7035 12.6578 12.7487C12.5171 12.7487 12.4317 12.6985 12.3965 12.598C12.3814 12.5176 12.3764 12.4573 12.3764 12.4171C12.3764 12.2915 12.4015 12.1558 12.4467 12.0151C12.5221 11.8392 12.5724 11.7085 12.5975 11.6231C12.6126 11.6633 12.6176 11.6985 12.6176 11.7236C12.6176 11.7789 12.6076 11.8392 12.5875 11.9045C12.5322 12.0905 12.507 12.201 12.507 12.2261C12.507 12.3317 12.5674 12.4121 12.688 12.4573C12.7282 12.4422 12.7533 12.407 12.7684 12.3417C12.7834 12.2764 12.8086 12.2412 12.8488 12.2261ZM27.4618 5.0402C27.4266 5.05527 27.3915 5.03517 27.3462 4.98492C27.301 4.93467 27.2759 4.90452 27.2608 4.8995C27.2457 4.8392 27.2709 4.80904 27.3312 4.80904C27.3714 4.80904 27.4065 4.82412 27.4417 4.85929C27.4769 4.89447 27.4819 4.92965 27.4618 4.96985V5.0402ZM27.6729 8.85929C27.5925 8.9397 27.492 8.9799 27.3714 8.9799C27.291 8.9799 27.2156 8.96483 27.1503 8.92965C26.889 8.77387 26.7131 8.55276 26.6277 8.26633C26.7282 8.2412 26.8437 8.22613 26.9694 8.22613C27.0749 8.22613 27.1804 8.24623 27.2759 8.28141C27.3714 8.31658 27.4518 8.37186 27.5121 8.44723C27.5724 8.52261 27.6126 8.59297 27.6327 8.65829C27.6528 8.72362 27.6679 8.79397 27.6729 8.85929ZM11.6528 4.33668L11.4618 4.31658C11.4417 4.28141 11.4367 4.25126 11.4518 4.21608C11.4668 4.1809 11.4819 4.1407 11.502 4.08543L11.6528 4.33668ZM11.2809 4.18593C11.2558 4.17085 11.1955 4.15075 11.1 4.12563C11.0648 4.10553 11.0548 4.0804 11.0598 4.04523C11.095 4.01005 11.1251 3.99497 11.1503 3.99497C11.2357 3.99497 11.2809 4.0402 11.2809 4.12563V4.18593Z" fill="currentColor"/>
</svg>
