<svg width="40" height="16" viewBox="0 0 40 16" fill="none" xmlns="http://www.w3.org/2000/svg">
<path fill-rule="evenodd" clip-rule="evenodd" d="M29.8796 8.08567C29.9005 8.2779 29.9172 8.47013 29.9297 8.66236C29.9423 8.85459 29.9506 9.0468 29.9506 9.23903C29.9506 9.66109 29.9172 10.0497 29.8462 10.4133C29.7751 10.7727 29.6539 11.1321 29.4784 11.4873C29.5327 11.0318 29.5871 10.5763 29.6372 10.125C29.6372 9.99123 29.6289 9.85333 29.608 9.71543L29.0271 5.17301C29.0355 5.13958 29.0355 5.09361 29.0355 5.03093C29.0355 4.88885 28.9978 4.68826 28.9268 4.42081C28.8516 4.15336 28.8182 3.96114 28.8182 3.83995C28.8182 3.72713 28.8307 3.63101 28.8599 3.5558C28.885 3.48058 28.9435 3.397 29.0313 3.30924C29.0522 3.28835 29.0772 3.25492 29.1065 3.20477C29.1357 3.15463 29.1692 3.12537 29.2026 3.12119C29.3948 3.69787 29.5954 4.2662 29.796 4.83452C29.796 4.87631 29.7876 4.94317 29.7751 5.0351C29.6665 4.89302 29.562 4.75513 29.4533 4.61305C29.4533 5.12287 29.5286 5.84163 29.6832 6.76934C29.796 7.45049 29.8629 7.89344 29.8838 8.09403L29.8796 8.08567ZM25.1157 6.08818L24.6059 6.69829C24.539 6.62307 24.4387 6.53949 24.305 6.44756C24.2172 6.38905 24.1546 6.34309 24.1128 6.31801C24.1128 6.20936 24.1629 6.10071 24.2632 5.99206C24.3635 5.88341 24.4596 5.77476 24.5557 5.67447C24.6644 5.69536 24.7814 5.7664 24.9151 5.89594C24.982 5.96281 25.0488 6.0255 25.1157 6.08818ZM25.8762 3.27162C25.1867 3.45131 24.4889 3.65608 23.7743 3.87756C23.0639 4.10322 22.3576 4.3247 21.664 4.54618C21.2502 4.69244 20.8365 4.8387 20.4187 4.98914C19.9297 5.16883 19.5787 5.40702 19.3656 5.69954C19.9339 5.40702 20.544 5.13957 21.2001 4.90556C21.5804 4.77183 22.2156 4.57543 23.1057 4.31217C24.0626 4.03218 24.6978 3.83996 25.0112 3.73967C25.17 3.68534 25.3372 3.62683 25.5085 3.56415C25.6798 3.50147 25.801 3.40118 25.8762 3.26745V3.27162ZM24.0292 6.23026C23.8746 6.4392 23.72 6.64396 23.5695 6.85291L23.0179 6.43084L23.4901 5.77894L24.0334 6.23026H24.0292ZM20.0593 4.13247C20.0593 4.13247 20.0802 4.19097 20.0802 4.24112C20.0802 4.30798 20.0635 4.37903 20.03 4.45843C19.9966 4.53365 19.9715 4.6005 19.9506 4.65482C19.8754 4.67572 19.8169 4.65483 19.7709 4.60468C19.725 4.55035 19.6832 4.4835 19.6497 4.4041C19.6497 4.27874 19.6665 4.14919 19.6957 4.01964C19.725 3.8901 19.796 3.71877 19.9005 3.50147C19.8545 3.6937 19.8085 3.88592 19.7709 4.07397C19.7709 4.16173 19.796 4.24112 19.842 4.31634L19.9423 4.38738L20.0635 4.13665L20.0593 4.13247ZM22.8382 9.31843C22.7839 9.35186 22.7296 9.35186 22.6794 9.32261C22.6251 9.29336 22.5791 9.24321 22.5373 9.17635C22.5164 9.07606 22.5081 8.97159 22.5081 8.86712C22.5081 8.69996 22.5332 8.53699 22.5833 8.37402C22.6334 8.21522 22.7045 8.05642 22.8006 7.9018C22.7546 8.04806 22.7128 8.17761 22.6794 8.29462C22.646 8.40745 22.6293 8.52028 22.6293 8.63729C22.6293 8.80444 22.6752 8.94651 22.7713 9.05934C22.8173 9.05934 22.8591 9.01755 22.8925 8.93815C22.926 8.85875 22.9469 8.81279 22.951 8.80861C22.9719 8.8504 22.9803 8.88801 22.9803 8.9298C22.9803 8.98412 22.9636 9.0468 22.9301 9.12202C22.8758 9.23485 22.8466 9.30172 22.8382 9.32261V9.31843ZM21.8854 6.93231C21.9189 6.95738 21.9272 6.99499 21.9063 7.04096C21.8854 7.08693 21.8645 7.13289 21.8478 7.1705C21.8228 7.17886 21.7768 7.1705 21.7183 7.1496C21.6598 7.12871 21.6138 7.12036 21.5887 7.12036C21.5135 7.12036 21.4634 7.16214 21.4299 7.24154C21.3881 7.50898 21.3547 7.72211 21.3296 7.88508C21.3046 8.04388 21.2586 8.22357 21.2001 8.41579C21.1541 8.32804 21.0622 8.11493 20.9285 7.77226C20.8741 7.626 20.8156 7.49645 20.7488 7.37945C20.7279 7.41288 20.6986 7.42959 20.6568 7.42959C20.6234 7.42959 20.544 7.40452 20.4145 7.35019C20.356 7.31676 20.3225 7.26662 20.3225 7.19976C20.3225 7.16633 20.3434 7.09946 20.381 6.99917C20.4019 6.94484 20.4103 6.90723 20.4103 6.87798C20.4312 6.80276 20.5022 6.76934 20.6192 6.76934C20.7446 6.91142 20.8616 7.09946 20.9619 7.34184C21.0622 7.62182 21.1374 7.82658 21.1917 7.95195C21.2502 7.67614 21.2962 7.47556 21.3213 7.35019C21.3756 7.11618 21.4634 6.94067 21.5804 6.81948C21.6389 6.80694 21.6974 6.81112 21.7517 6.84037C21.8102 6.88634 21.8562 6.91559 21.8813 6.93231H21.8854ZM24.351 12.2269C24.351 12.415 24.2757 12.5738 24.1295 12.7075C24.0083 12.6866 23.9205 12.6072 23.8704 12.4651C23.8579 12.3857 23.8495 12.3272 23.8495 12.2938C23.8495 12.1475 23.8787 12.0013 23.9414 11.8634C23.9832 11.7756 24.0501 11.6502 24.1504 11.4831C24.142 11.4956 24.1169 11.5792 24.0668 11.7338C24.0166 11.8884 23.9916 12.0054 23.9916 12.0848C23.9916 12.2102 24.0375 12.3189 24.1337 12.4066C24.1922 12.4275 24.2381 12.4066 24.2674 12.3356C24.2966 12.2687 24.3259 12.2311 24.351 12.2269ZM27.4517 5.00586C27.3639 4.68409 27.2511 4.35395 27.109 4.00711C26.9669 3.66444 26.8332 3.32595 26.6995 3C26.5908 3.0585 26.5072 3.1588 26.4487 3.30088C26.4028 3.4346 26.3568 3.56415 26.3067 3.69369C26.3652 4.18262 26.4613 4.86796 26.5866 5.74969C26.6869 6.43921 26.7872 7.14543 26.8917 7.87255C26.9962 8.59967 27.0756 9.27246 27.1383 9.89511C26.9795 10.0288 26.8039 10.1249 26.6117 10.1793C26.4195 10.2378 26.2105 10.2629 25.9765 10.2629C25.9013 10.2629 25.8345 10.2629 25.7718 10.2587C25.7091 10.2587 25.5879 10.242 25.4166 10.2127C25.5043 9.93691 25.567 9.71125 25.613 9.53155C25.6589 9.35186 25.6798 9.15964 25.6798 8.95905C25.6798 8.75847 25.6506 8.57877 25.5963 8.41579C25.5378 8.257 25.4458 8.11074 25.3205 7.98537C25.2619 7.94358 25.1951 7.92688 25.1199 7.92688C25.0405 7.92688 24.9527 7.95194 24.8608 7.99791C24.5515 8.25282 24.3133 8.54117 24.142 8.8713C23.9707 9.19725 23.8871 9.54828 23.8871 9.91601C23.8871 9.94109 23.8871 9.98288 23.8913 10.033C23.8913 10.0832 23.8996 10.1417 23.908 10.2085C23.2728 10.384 22.8257 10.4969 22.5624 10.5512C22.0192 10.664 21.5344 10.7225 21.1082 10.7225C20.5649 10.7225 20.1011 10.6557 19.7124 10.5219C19.2528 10.3631 18.8683 10.0999 18.5674 9.7405C18.3459 9.15964 18.1871 8.45341 18.0869 7.626C18.0743 7.5257 18.0116 6.77769 17.9072 5.37777C17.8403 4.48767 17.74 3.76055 17.6063 3.19222C17.4517 3.45967 17.3681 3.61429 17.3556 3.6519C17.3138 3.75219 17.297 3.84831 17.297 3.94443C17.297 3.98621 17.3054 4.03218 17.3179 4.09069C17.3305 4.14919 17.3514 4.19515 17.3764 4.23694L17.9489 9.4229C17.9155 9.5023 17.857 9.57335 17.7734 9.64021C17.6899 9.70289 17.6021 9.76139 17.506 9.81571C17.4057 9.8575 17.3096 9.87422 17.2135 9.87422C17.038 9.87422 16.8541 9.81572 16.6619 9.69454C16.5407 9.61932 16.3861 9.5023 16.1897 9.33515C16.1562 9.40201 16.1311 9.46887 16.1144 9.53155C16.0977 9.59424 16.0768 9.682 16.0476 9.79901C15.7049 9.87841 15.3581 10.0288 15.0029 10.2503C14.7354 10.4175 14.4262 10.6599 14.071 10.9733C14.0459 10.9942 13.8161 11.1947 13.3898 11.575C12.9134 11.9971 12.529 12.298 12.2281 12.4776C12.1403 12.5111 12.0568 12.5278 11.9774 12.5278C11.735 12.5278 11.5302 12.4233 11.3547 12.2186C11.3129 12.1057 11.2879 12.0096 11.2753 11.9344C11.2628 11.8592 11.2544 11.7672 11.2544 11.667C11.2544 11.2867 11.455 10.8103 11.8562 10.242C12.1487 9.8199 12.3284 9.5608 12.3869 9.46051L12.5958 9.5023C12.7713 9.38947 12.8967 9.19725 12.9761 8.9298C12.997 8.86294 13.0388 8.63728 13.1057 8.25701C13.0639 8.31551 13.0304 8.37819 12.997 8.4367C12.9761 8.51192 12.9385 8.57877 12.88 8.64146C12.8215 8.70414 12.7588 8.72503 12.6836 8.70832C12.5373 8.56206 12.4329 8.40744 12.3785 8.25283C12.32 8.09403 12.295 7.91852 12.295 7.71793C12.295 7.40452 12.4036 6.95321 12.6251 6.36399C12.7672 5.98789 12.8507 5.74552 12.8842 5.63269C12.4579 6.55621 12.2156 7.09945 12.1612 7.26661C12.04 7.63435 11.9815 7.98119 11.9815 8.31132C11.9815 8.49101 12.0066 8.67907 12.0526 8.86712C12.0986 9.05935 12.1696 9.23486 12.2615 9.40201C11.6389 10.313 11.3004 10.8228 11.2502 10.9357C11.0831 11.2825 10.9995 11.6293 10.9995 11.9678C10.9995 12.1559 11.0288 12.3565 11.0914 12.5696C11.2795 12.8579 11.5553 13 11.923 13C11.969 13 12.04 12.9916 12.132 12.9791C12.412 12.8454 12.7254 12.6406 13.0764 12.369C13.3773 12.1224 13.6782 11.8759 13.979 11.6377C14.3259 11.3577 14.6351 11.1404 14.9026 10.9858C15.2494 10.7852 15.5963 10.6598 15.9347 10.6139C16.0768 11.1697 16.4153 11.5959 16.9586 11.8968C17.0338 11.6711 17.1048 11.4455 17.18 11.224C17.2051 11.1822 17.2218 11.1362 17.226 11.0777C17.226 11.0192 17.2302 10.9649 17.2302 10.9106C17.2302 10.7685 17.2511 10.6807 17.297 10.6431C17.3388 10.6055 17.4057 10.593 17.4935 10.6097C17.6355 10.5512 17.7525 10.4384 17.8445 10.2796C17.8904 10.2002 17.9531 10.0581 18.0367 9.8575C18.1161 10.0497 18.1955 10.2461 18.2791 10.4384C18.3794 10.6515 18.5089 10.8145 18.6719 10.9315C18.9811 11.1321 19.3113 11.2741 19.6665 11.3619C20.0217 11.4497 20.3978 11.4914 20.7989 11.4914C20.9452 11.4914 21.0747 11.4873 21.1834 11.4747C21.292 11.4664 21.409 11.458 21.5302 11.4496C21.923 11.4079 22.3033 11.3494 22.6627 11.27C23.0973 11.1697 23.6782 11.0025 24.4095 10.7685C24.6226 10.8688 24.8441 10.944 25.0697 10.9983C25.2954 11.0527 25.5378 11.0777 25.7927 11.0777C26.0476 11.0777 26.2858 11.0443 26.5114 10.9733C26.7371 10.9022 26.9335 10.7936 27.109 10.6473C27.2218 10.4217 27.3054 10.1793 27.3556 9.92855C27.4057 9.67782 27.4308 9.41455 27.4308 9.14292C27.4308 8.8713 27.4099 8.5746 27.3723 8.28208C27.2971 7.88091 27.226 7.45884 27.1508 7.02006C27.0756 6.5771 27.0421 6.19683 27.0421 5.87506C27.0338 5.82073 27.0129 5.69955 26.9753 5.51568C26.9377 5.32763 26.921 5.16465 26.921 5.02256C26.921 5.01003 26.921 4.95989 26.9293 4.87632C26.9377 4.79274 26.9502 4.72587 26.9711 4.67154C27.038 4.76348 27.109 4.8596 27.1884 4.95153C27.2636 5.04347 27.3388 5.11032 27.4141 5.15211L27.4642 5.02256L27.4517 5.00586ZM19.75 8.60803C19.7626 8.68325 19.7626 8.7501 19.75 8.80861C19.7375 8.86711 19.6832 8.99248 19.5912 9.18053C19.5244 9.18889 19.4659 9.17218 19.4157 9.13039C19.3656 9.0886 19.328 9.03845 19.2987 8.97994C19.2778 8.88801 19.2695 8.80443 19.2695 8.72921C19.2695 8.57459 19.2945 8.41998 19.3489 8.26954C19.3823 8.16089 19.445 8.02716 19.5411 7.86837C19.4993 7.96866 19.4659 8.06895 19.4366 8.17343C19.4074 8.2779 19.3907 8.37401 19.3907 8.47012C19.3907 8.64563 19.4492 8.79189 19.562 8.91308C19.6205 8.90472 19.6581 8.85876 19.6706 8.76683C19.6832 8.67489 19.7124 8.62474 19.75 8.6122V8.60803ZM16.5908 7.0117C16.5699 7.12035 16.549 7.22482 16.5323 7.33347C16.4989 7.45466 16.432 7.53406 16.3317 7.57585C16.2732 7.55078 16.2273 7.5257 16.198 7.50481C16.1688 7.48391 16.1437 7.45049 16.1228 7.40452C16.1144 7.36273 16.1144 7.30005 16.1144 7.21229C16.1144 7.03678 16.1395 6.86126 16.1855 6.68157C16.2105 6.58128 16.269 6.41413 16.3568 6.18012C16.3568 6.24698 16.3443 6.33473 16.315 6.4392C16.2565 6.68576 16.2231 6.84873 16.2231 6.91977C16.2231 7.04514 16.2607 7.16215 16.3317 7.26244C16.4195 7.28333 16.4696 7.24572 16.4863 7.15378C16.5031 7.06185 16.5365 7.0117 16.5908 7.0117ZM15.3163 3.54326L15.2954 3.80235C15.2619 3.8107 15.216 3.80234 15.1617 3.78144C15.1031 3.76055 15.0655 3.7522 15.0446 3.7522C15.0196 3.7522 14.9861 3.76055 14.9527 3.78144C14.8858 4.08232 14.8232 4.3832 14.7605 4.68408C14.7605 4.77601 14.7772 4.8596 14.8064 4.92646C14.8357 4.99332 14.89 5.05183 14.9736 5.09779C15.1617 5.21898 15.2536 5.34851 15.2536 5.49059C15.2536 5.56581 15.2285 5.63268 15.1825 5.69954C14.9026 5.69954 14.7062 5.71626 14.5891 5.75386C14.4763 5.79147 14.3718 5.85416 14.2799 5.95027C14.3008 6.09653 14.3635 6.40578 14.4721 6.87381C14.5265 7.12036 14.5683 7.33766 14.6017 7.52153C14.6351 7.7054 14.6518 7.91016 14.6518 8.14C14.6518 8.44088 14.6059 8.72086 14.5098 8.98413C14.5515 8.80443 14.5683 8.62475 14.5683 8.45341C14.5683 8.29462 14.5557 8.13163 14.5265 7.97284C14.5014 7.81404 14.4596 7.63018 14.4053 7.42124C14.351 7.21229 14.2966 6.97827 14.2381 6.71083C14.1796 6.44338 14.1545 6.20101 14.1545 5.97953C14.2005 5.8458 14.2423 5.75386 14.2757 5.69954C14.3426 5.59925 14.4262 5.54075 14.5265 5.52822L14.8775 5.42791C14.7856 5.33598 14.6811 5.28584 14.5683 5.28584C14.5139 5.28584 14.4596 5.30255 14.4095 5.33598C14.376 5.37777 14.3468 5.41538 14.3175 5.45717C14.2925 5.42374 14.2757 5.39031 14.2757 5.35688C14.2757 5.32345 14.2841 5.29002 14.305 5.25241C14.3259 5.2148 14.3468 5.17719 14.3635 5.1354C14.4178 5.06018 14.5056 5.01003 14.6226 4.98496C14.5641 4.84288 14.5014 4.7008 14.4429 4.55454C14.3635 4.38738 14.2716 4.24112 14.1713 4.11158C14.1504 4.17008 14.1211 4.20351 14.0793 4.20351C14.0584 4.20351 14.0166 4.1868 13.954 4.15755C13.8913 4.1283 13.8411 4.11158 13.8077 4.11158C13.7617 4.06561 13.7367 4.00293 13.7367 3.91935C13.7367 3.86503 13.745 3.81488 13.7576 3.76474C13.7701 3.71459 13.7826 3.6728 13.791 3.64355C13.7993 3.6143 13.8161 3.58923 13.8411 3.56833C13.8662 3.54744 13.8913 3.52654 13.9164 3.49728C14.0835 3.57668 14.2298 3.72713 14.3593 3.94861C14.4596 4.13666 14.5599 4.32052 14.6602 4.50021C14.7062 4.2453 14.7396 4.05725 14.7605 3.94024C14.8064 3.71458 14.89 3.54744 15.0112 3.43879C15.0655 3.43043 15.1073 3.43043 15.1366 3.43879C15.1658 3.44715 15.2202 3.48057 15.3037 3.54743L15.3163 3.54326ZM13.8035 9.98287C13.7701 10.1041 13.745 10.2043 13.7241 10.2837C13.7032 10.3631 13.6614 10.4258 13.5946 10.476C13.5194 10.4885 13.4692 10.4676 13.4358 10.4175C13.4024 10.3381 13.3773 10.2796 13.3647 10.2461C13.3522 10.1542 13.3438 10.0832 13.3438 10.0372C13.3438 9.87004 13.3773 9.69453 13.4441 9.51067C13.511 9.3268 13.5528 9.20142 13.5737 9.13456C13.5319 9.36857 13.4943 9.59841 13.4525 9.82825C13.4525 9.92018 13.465 9.99541 13.4859 10.0539C13.511 10.1124 13.5444 10.1626 13.5904 10.2085C13.6322 10.1876 13.6656 10.1584 13.6907 10.1124C13.7158 10.0706 13.7367 10.0288 13.7492 9.98705H13.7993L13.8035 9.98287ZM25.2369 9.05934C25.2369 9.08441 25.2661 9.18471 25.3288 9.35187C25.3539 9.42709 25.3706 9.48559 25.3706 9.53155C25.3706 9.62349 25.3121 9.68617 25.1909 9.71124C25.0823 9.75721 24.9778 9.799 24.8733 9.83243C24.7688 9.86586 24.6644 9.89094 24.5557 9.91183C24.4304 9.78647 24.3468 9.70289 24.3133 9.6611C24.2256 9.55245 24.1713 9.45634 24.1546 9.36859C24.2465 9.21397 24.3551 9.07606 24.4763 8.95905C24.6309 8.81279 24.7688 8.73757 24.8859 8.73757C25.0321 8.73757 25.1491 8.84622 25.2369 9.05934Z" fill="currentColor"/>
</svg>
