<svg width="40" height="16" viewBox="0 0 40 16" fill="none" xmlns="http://www.w3.org/2000/svg">
<path fill-rule="evenodd" clip-rule="evenodd" d="M29.4657 5.21133C29.4004 5.16776 29.3187 5.06427 29.2152 4.89542C29.1553 4.80283 29.1063 4.72658 29.0627 4.67756L28.9538 4.81917C28.9538 5.29303 29.0137 5.96296 29.1281 6.83442C29.2152 7.47168 29.2697 7.9183 29.2915 8.16885C29.3132 8.41939 29.3241 8.59913 29.3296 8.70806C29.3296 8.81699 29.3296 8.93137 29.3296 9.05664C29.3296 9.47059 29.2969 9.84096 29.237 10.1678C29.1771 10.4946 29.0627 10.8322 28.9047 11.1808C28.9538 10.7723 28.981 10.342 28.981 9.88453C28.981 9.30174 28.932 8.65904 28.8394 7.95098C28.7468 7.24292 28.6487 6.51852 28.5562 5.78322C28.4636 5.04793 28.4145 4.42157 28.4145 3.90414C28.3982 3.83333 28.3928 3.77887 28.3928 3.74074C28.3928 3.61547 28.4254 3.4902 28.4962 3.35948C28.567 3.22876 28.6487 3.11438 28.7522 3.02179C28.9047 3.44118 29.0572 3.86057 29.2098 4.27451L29.2424 4.25272C29.2424 4.3671 29.2588 4.48693 29.2969 4.60675C29.335 4.72658 29.3895 4.86819 29.4603 5.02614H29.4167C29.4331 5.06972 29.444 5.11329 29.4603 5.15686V5.21133H29.4657ZM25.8601 7.13943C25.8764 7.20479 25.871 7.28105 25.8492 7.37364C25.8274 7.46623 25.7675 7.54793 25.6749 7.62963C25.6041 7.62963 25.5387 7.6024 25.4897 7.54793C25.4407 7.49346 25.3971 7.42266 25.359 7.33551C25.3372 7.14488 25.3644 6.9488 25.4461 6.74728C25.4897 6.622 25.5714 6.45861 25.6967 6.25708C25.6967 6.33878 25.6694 6.45861 25.6095 6.62745C25.5496 6.7963 25.5224 6.91612 25.5224 6.99782C25.5224 7.12854 25.5714 7.23203 25.6749 7.31373C25.7348 7.33007 25.7675 7.30283 25.7838 7.24292C25.8002 7.18301 25.822 7.14488 25.8601 7.13943ZM24.9886 6.02832C24.9287 6.0719 24.8579 6.15904 24.7762 6.29521C24.6945 6.43137 24.6128 6.51307 24.542 6.5512C24.4766 6.52397 24.3677 6.45316 24.2152 6.34967C24.0627 6.24619 23.9374 6.18627 23.8339 6.16993C23.7958 6.23529 23.7468 6.31699 23.6814 6.40959C23.6161 6.50218 23.5562 6.57298 23.4962 6.61656C23.3928 6.59477 23.2838 6.5512 23.1586 6.49129C23.0333 6.43137 22.9135 6.37146 22.7991 6.31155C22.8154 6.20261 22.8644 6.08824 22.9516 5.96296C23.0169 5.87037 23.1095 5.76144 23.2348 5.64706C23.3274 5.6634 23.4309 5.70152 23.5398 5.76144C23.6487 5.82135 23.7522 5.88126 23.8557 5.94118L24.2806 5.45098C24.5148 5.55447 24.6836 5.65251 24.7925 5.7451C24.9015 5.83769 24.9668 5.93573 24.9886 6.02832ZM25.3917 3.23965C25.3481 3.38671 25.2718 3.46841 25.1629 3.4902C25.0703 3.51743 24.335 3.71351 22.9625 4.07843C21.9984 4.33987 21.2631 4.54139 20.762 4.68845C19.9995 4.91176 19.2806 5.15142 18.6052 5.40741C18.6978 5.16776 18.9211 5.00436 19.2697 4.91721C19.7708 4.79194 20.0594 4.71024 20.1302 4.66667C20.5387 4.55229 21.1161 4.38889 21.8731 4.17647C22.4832 4.00763 23.066 3.84967 23.627 3.70261C24.188 3.55556 24.7762 3.3976 25.3917 3.23965ZM22.1019 5.53813C22.1019 5.53813 22.0583 5.58715 22.0202 5.64706C21.9821 5.70697 21.944 5.73965 21.9058 5.7451C21.8241 5.6634 21.786 5.56536 21.786 5.44009C21.786 5.39107 21.7915 5.32571 21.8078 5.2549C21.8241 5.1841 21.8405 5.09695 21.8623 5.00436C21.8405 5.04793 21.8023 5.13508 21.7424 5.27124C21.6825 5.40741 21.6553 5.53268 21.6553 5.65795C21.6553 5.78867 21.688 5.8976 21.7533 5.98475C21.7588 5.98475 21.7751 5.98475 21.8023 6.00109C21.8296 6.01198 21.8514 6.01743 21.8731 6.01743C21.9167 6.01743 21.9548 5.9902 21.9821 5.94118C22.0093 5.89216 22.0474 5.8268 22.0856 5.7451C22.1237 5.6634 22.1291 5.59804 22.1019 5.53813ZM19.5638 4.01307C19.5638 4.01307 19.5093 4.04031 19.4712 4.10022C19.4331 4.16013 19.3895 4.18736 19.3459 4.18736C19.237 4.14924 19.1825 4.07298 19.1825 3.95861C19.1825 3.91503 19.1934 3.84423 19.2206 3.74074C19.2479 3.63725 19.2588 3.5719 19.2588 3.54466C19.1063 3.75708 19.03 3.98584 19.03 4.24183C19.0681 4.30719 19.1063 4.36166 19.1444 4.39978C19.1825 4.43791 19.237 4.45969 19.3023 4.45969C19.4766 4.378 19.5638 4.23094 19.5638 4.01307ZM21.5028 7.38998L21.4374 7.57516C21.3775 7.59695 21.3121 7.57516 21.2304 7.51525C21.1487 7.45534 21.0943 7.42266 21.0562 7.42266C20.9527 7.80937 20.8546 8.19063 20.7511 8.57734C20.6912 8.52832 20.6204 8.38126 20.5333 8.14706C20.4461 7.91285 20.3426 7.79303 20.2174 7.79303C20.1684 7.79303 20.1248 7.79847 20.0867 7.81481C20.0594 7.80937 20.0159 7.7549 19.9668 7.65142C19.9723 7.64597 19.9995 7.58061 20.0376 7.46623C20.0758 7.35185 20.1248 7.27015 20.1738 7.22658C20.3263 7.29194 20.4516 7.4281 20.5442 7.62963C20.615 7.80937 20.6912 7.98911 20.7729 8.1634C20.8002 8.10349 20.8383 7.94553 20.8819 7.68954C20.9254 7.43355 21.0071 7.24837 21.1215 7.13943C21.2795 7.13943 21.4102 7.22113 21.5028 7.38998ZM17.3198 3.58824C17.3416 3.61547 17.3416 3.65904 17.3252 3.71351C17.3089 3.76797 17.298 3.8061 17.298 3.82789C17.2599 3.84423 17.2054 3.82789 17.1346 3.78431C17.0638 3.74074 17.0148 3.71895 16.993 3.71895C16.944 3.71895 16.9058 3.75708 16.884 3.82789V4.15468C16.884 4.37255 16.8731 4.55229 16.8459 4.69935C16.8187 4.84641 16.7588 4.97712 16.6662 5.0915C16.6389 5.04248 16.5736 4.91176 16.481 4.71024C16.4156 4.55773 16.3448 4.43246 16.2631 4.33987C16.2032 4.378 16.1379 4.37255 16.0616 4.33442C15.9854 4.2963 15.9091 4.25272 15.8383 4.20915C15.822 4.18192 15.8165 4.14924 15.8165 4.122V4.05664C15.8165 3.93137 15.8601 3.81699 15.9472 3.70806C16.1215 3.75708 16.274 3.8878 16.4047 4.10022C16.5082 4.27996 16.6063 4.46514 16.7098 4.64488C16.7261 4.36166 16.737 4.122 16.7533 3.92048C16.7697 3.71895 16.8459 3.55556 16.9821 3.42484C17.0965 3.42484 17.2108 3.4793 17.3198 3.58824ZM24.0082 11.8126C24.0082 11.9052 23.9864 12.0033 23.9374 12.0959C23.8884 12.1885 23.8176 12.2593 23.725 12.3028C23.676 12.3192 23.6161 12.3137 23.5562 12.2919C23.4962 12.2702 23.4581 12.2157 23.4527 12.1285C23.4527 11.9052 23.5071 11.6547 23.6161 11.3769C23.676 11.2298 23.7304 11.0882 23.7904 10.9521C23.8067 11.0447 23.7904 11.1427 23.7577 11.2462C23.6542 11.5566 23.6052 11.7255 23.6052 11.7473C23.6052 11.8617 23.6542 11.9651 23.7468 12.0523C23.8121 12.0523 23.8666 12.0142 23.9102 11.9379C23.9538 11.8617 23.9864 11.8181 24.0082 11.8126ZM19.8143 6.25708L19.6182 6.43137L15.3481 7.65142L15.2283 7.73856C15.2664 7.64597 15.3045 7.55882 15.3535 7.48802C15.4026 7.41721 15.4625 7.37364 15.5442 7.3573C16.2577 7.16667 16.9712 6.98148 17.6901 6.79085C18.2784 6.6329 18.9864 6.43137 19.8143 6.19172V6.25708ZM27.091 4.90632C27.091 4.62309 27.0148 4.31264 26.8677 3.97495C26.7206 3.63725 26.5736 3.31046 26.4265 3C26.3339 3.09259 26.2522 3.19608 26.1923 3.30501C26.1324 3.41394 26.0997 3.51743 26.0997 3.62091C26.0997 3.66993 26.1106 3.7244 26.1324 3.78431C26.1487 3.89869 26.2468 4.57407 26.4265 5.79956C26.5191 6.4695 26.6172 7.13399 26.7206 7.80392C26.786 8.28867 26.8731 8.95861 26.9821 9.80828C26.5246 10.1786 25.969 10.3638 25.3154 10.3638H25.1084C25.0431 10.3638 24.9723 10.3584 24.9015 10.342C24.9015 10.3366 24.9505 10.1242 25.0431 9.71024C25.103 9.4488 25.1302 9.23094 25.1302 9.05664C25.1302 8.94227 25.1139 8.82244 25.0867 8.70806C25.0594 8.59368 25.0159 8.48475 24.9559 8.39216C24.896 8.29956 24.8252 8.21786 24.7381 8.15251C24.6509 8.08715 24.5583 8.05991 24.4657 8.07625C24.1117 8.32135 23.8394 8.64815 23.6596 9.05664C23.5779 9.23094 23.5344 9.34532 23.518 9.39434C23.4527 9.59586 23.42 9.79739 23.42 9.99346C23.42 10.0969 23.4309 10.195 23.4527 10.2985C22.859 10.4346 22.2653 10.5436 21.6825 10.6144C21.0997 10.6852 20.506 10.7233 19.9124 10.7233C19.2642 10.7233 18.6705 10.6307 18.1259 10.451C17.5812 10.2712 17.1019 9.98802 16.688 9.60131L16.6444 9.40523C16.6008 9.42157 16.5681 9.4488 16.5464 9.49237C16.5246 9.53595 16.4973 9.58497 16.4701 9.64488C16.432 9.64488 16.3721 9.63943 16.2849 9.62309H16.1215C15.6803 9.62309 15.2446 9.73203 14.8143 9.94989C14.4875 10.1187 14.1226 10.3747 13.7141 10.7233C13.4145 10.9847 13.1204 11.2462 12.8318 11.5076C12.2381 12.0305 11.7098 12.3791 11.2522 12.5534C11.2141 12.5588 11.1596 12.5643 11.0779 12.5643C10.9091 12.5643 10.762 12.5316 10.6259 12.4717C10.4897 12.4118 10.3808 12.3192 10.2936 12.1939C10.2228 12.0468 10.1847 11.8943 10.1847 11.7255C10.1847 11.5294 10.2446 11.2898 10.359 11.0065C10.5333 10.5708 10.6259 10.3475 10.6313 10.3312C10.3971 10.7397 10.2555 10.9956 10.2065 11.1046C10.0703 11.415 9.99951 11.7092 9.99951 11.976C9.99951 12.1068 10.0159 12.2429 10.0431 12.3845C10.0703 12.5261 10.1684 12.6569 10.3372 12.7821C10.4734 12.8856 10.6313 12.9564 10.8056 13C11.2795 13 11.7588 12.8366 12.2435 12.5098C12.396 12.4063 12.8045 12.0686 13.4745 11.4858C13.8721 11.1318 14.2098 10.8758 14.4875 10.7233C14.8742 10.5054 15.2555 10.3965 15.6313 10.3965C15.7348 10.3965 15.8437 10.402 15.9581 10.4183C16.0725 10.4346 16.176 10.4564 16.2631 10.4837C16.2577 10.5272 16.2522 10.5926 16.2522 10.6797C16.2522 11.0011 16.3394 11.3007 16.5137 11.5784C16.688 11.8562 16.9113 12.0904 17.1891 12.281C17.3252 11.9815 17.4233 11.7364 17.4723 11.5458C17.5213 11.3551 17.5485 11.1808 17.5485 11.0283C17.9243 11.2081 18.3165 11.3279 18.7196 11.3878C19.1226 11.4477 19.6074 11.4749 20.1738 11.4749C20.6041 11.4749 21.0725 11.4368 21.579 11.366C21.6934 11.3497 22.1346 11.2789 22.8971 11.1481C22.9897 11.1481 23.2185 11.0828 23.5834 10.9521C23.7413 10.8922 23.8775 10.8649 23.9864 10.8649C24.1553 10.8649 24.2969 10.9248 24.4222 11.0501C24.6455 11.1209 24.896 11.159 25.1629 11.159C25.8601 11.159 26.4647 10.9466 26.9821 10.5163C27.0747 10.3366 27.1455 10.146 27.1836 9.95534C27.2217 9.76471 27.2435 9.55773 27.2435 9.33987C27.2435 9.14924 27.1836 8.64815 27.0583 7.82571C27.0093 7.49346 26.9821 7.19935 26.9821 6.95425C26.9222 6.60022 26.8623 6.22985 26.8023 5.84314C26.7424 5.45643 26.7098 5.11874 26.7098 4.83007C26.7098 4.74292 26.7098 4.67211 26.7098 4.6122C26.7098 4.55229 26.7206 4.49237 26.7261 4.42702C26.7642 4.46514 26.8187 4.54139 26.8895 4.66667C26.9603 4.79194 27.0257 4.86819 27.0856 4.90632H27.091ZM18.8448 8.57734C18.8176 8.66993 18.7849 8.77342 18.7468 8.87691C18.7087 8.98039 18.6433 9.04575 18.5507 9.06754C18.4581 9.06754 18.4037 9.02941 18.3873 8.95316C18.371 8.87691 18.3655 8.81155 18.3655 8.75163C18.3655 8.62091 18.3873 8.49564 18.4309 8.37582C18.4745 8.25599 18.5344 8.12527 18.6161 7.98911C18.5888 8.07625 18.5616 8.1634 18.5453 8.2451C18.5289 8.3268 18.518 8.4085 18.518 8.4902C18.518 8.61547 18.5453 8.70806 18.6052 8.77342C18.6651 8.77887 18.7087 8.76253 18.7359 8.71895C18.7631 8.64815 18.7849 8.59913 18.8013 8.57734H18.8448ZM13.7686 3.56645L13.725 3.81699L13.4745 3.71895C13.4309 4.01852 13.4037 4.23638 13.3873 4.38344C13.3492 4.66122 13.2838 4.84641 13.1912 4.939C13.0115 4.55229 12.9135 4.35076 12.8971 4.32898C12.7827 4.12745 12.6302 3.95861 12.4505 3.82789L12.5376 3.45752C12.7283 3.53922 12.8917 3.73529 13.0278 4.05664C13.0877 4.20915 13.1477 4.35621 13.213 4.50327C13.2511 4.24183 13.2784 4.00218 13.3056 3.78976C13.3328 3.57734 13.4091 3.46841 13.5398 3.46841C13.5888 3.46841 13.6651 3.50109 13.7686 3.56645ZM13.7032 5.47277C13.6814 5.61983 13.518 5.70152 13.2185 5.72331C12.9189 5.7451 12.7392 5.8268 12.6793 5.97386C12.7718 6.4695 12.8426 6.86166 12.8808 7.15033C12.9189 7.439 12.9407 7.67865 12.9407 7.85839C12.9407 8.28867 12.9243 8.63726 12.8862 8.90959C12.8481 9.18192 12.7609 9.45425 12.6248 9.72113C12.7065 9.50871 12.7609 9.2963 12.7882 9.08388C12.8154 8.87146 12.8318 8.63725 12.8318 8.38126C12.8318 8.05991 12.8045 7.74401 12.7555 7.43355C12.7065 7.12309 12.6302 6.75817 12.5376 6.34423C12.5376 6.1427 12.5649 5.96841 12.6139 5.8268C12.6629 5.68519 12.7609 5.57625 12.908 5.49455L13.3111 5.42919C13.2729 5.34749 13.2076 5.30937 13.1041 5.30937C13.0442 5.30937 12.9897 5.32571 12.9407 5.36383L12.908 5.40741C12.8808 5.36928 12.8753 5.32026 12.908 5.26035C12.9352 5.20044 12.9461 5.15686 12.9461 5.13508C13.006 5.05338 13.0932 5.01525 13.2076 5.01525C13.2457 5.01525 13.2947 5.03159 13.3601 5.06972C13.4254 5.10784 13.4908 5.15686 13.5507 5.22767C13.6106 5.29848 13.6651 5.38017 13.7087 5.47277H13.7032ZM14.6074 8.84967C14.5638 8.96405 14.5311 9.0512 14.5093 9.10022C14.4657 9.19281 14.4058 9.26906 14.335 9.31808C14.2206 9.31808 14.1281 9.25817 14.0627 9.1329C14.0572 9.10566 14.0518 9.06209 14.0518 9.00218C14.0518 8.84423 14.0954 8.67538 14.1825 8.50109C14.2479 8.37582 14.3405 8.22876 14.4657 8.05447C14.3731 8.25599 14.3132 8.3976 14.2915 8.46841C14.2479 8.59368 14.2261 8.69172 14.2261 8.76253C14.2261 8.80065 14.237 8.87146 14.2642 8.97495C14.2915 9.07843 14.3514 9.09477 14.444 9.02397C14.493 8.95316 14.5257 8.89325 14.5311 8.84967H14.6074ZM11.4919 8.98039C11.4919 9.45425 11.3339 9.84096 11.0126 10.146C10.9854 10.1623 10.9418 10.1678 10.8819 10.1678C10.8165 10.1678 10.762 10.1569 10.7239 10.1351C10.6858 10.1133 10.6204 10.0697 10.5333 10.0044C10.3971 9.72658 10.3263 9.44335 10.3263 9.14379C10.3263 8.84423 10.3917 8.51743 10.5224 8.17429C10.5442 8.11438 10.8002 7.62418 11.2958 6.69281C11.2686 6.82898 11.1433 7.13399 10.9254 7.60784C10.7348 8.02179 10.6422 8.34858 10.6422 8.58824C10.6422 8.74619 10.6694 8.89325 10.7239 9.01852C10.7784 9.14379 10.8764 9.27451 11.0126 9.40523C11.0943 9.41068 11.1651 9.38889 11.225 9.33987C11.2849 9.29085 11.3394 9.22004 11.3775 9.1329C11.4156 9.04575 11.4538 8.99673 11.4919 8.98039ZM24.847 9.76471C24.6237 9.86819 24.3949 9.96623 24.1716 10.0588C24.0627 9.97168 23.9701 9.88453 23.8993 9.79739C23.8285 9.71024 23.7686 9.61765 23.725 9.51416C23.8339 9.27996 24.0137 9.08388 24.2697 8.91503C24.3786 8.8878 24.4821 8.91503 24.5747 9.00218C24.64 9.06209 24.6999 9.14924 24.7599 9.26362C24.798 9.33442 24.8198 9.41068 24.8307 9.48148C24.8416 9.55229 24.847 9.65033 24.847 9.76471Z" fill="currentColor"/>
</svg>
