<svg width="40" height="16" viewBox="0 0 40 16" fill="none" xmlns="http://www.w3.org/2000/svg">
<path fill-rule="evenodd" clip-rule="evenodd" d="M25.6776 5.31716L25.5135 5.65892C25.4383 5.5974 25.3837 5.54956 25.3495 5.52222C25.2743 5.46753 25.2128 5.44019 25.1581 5.44019C25.0145 5.89815 24.8642 6.34928 24.7206 6.79358C24.6318 6.71839 24.5224 6.53384 24.3925 6.23309C24.331 6.07587 24.2558 5.95967 24.1738 5.87765C24.1123 5.95967 24.0508 6.00068 23.9961 6.00068C23.9688 6.00068 23.9346 5.98018 23.9004 5.946C23.8799 5.91182 23.8731 5.85714 23.8731 5.79562C23.8731 5.74094 23.8936 5.66575 23.9346 5.57689C23.9756 5.48804 24.0029 5.41968 24.0234 5.38551C24.2353 5.35817 24.3857 5.46753 24.4882 5.7136C24.6318 6.0622 24.7343 6.26042 24.789 6.31511C24.8232 5.99385 24.871 5.74778 24.9325 5.57006C24.994 5.39235 25.1034 5.2283 25.2675 5.07109C25.4383 5.07109 25.575 5.15311 25.6776 5.31716ZM25.6366 3C24.5703 3.68353 23.4083 4.14149 22.1506 4.36022C21.761 4.42173 21.4739 4.46275 21.2962 4.47642C21.1184 4.49009 20.9066 4.49693 20.6605 4.49693C20.2299 4.49693 19.8334 4.46958 19.4575 4.40806C19.0815 4.34655 18.7124 4.25769 18.3365 4.14149C18.0973 4.38756 17.8649 4.6268 17.6393 4.86603C17.3727 5.14628 17.2087 5.39234 17.1335 5.60424L18.2681 4.52427C18.5757 4.63363 18.9038 4.70882 19.2456 4.75666C19.5873 4.80451 19.9428 4.82502 20.3187 4.82502C20.7835 4.82502 21.262 4.79084 21.7473 4.72249C22.2326 4.65413 22.7042 4.56528 23.1622 4.45591C24.1738 4.04579 24.7411 3.79973 24.8573 3.73137C25.2059 3.51948 25.4657 3.28025 25.6366 3.00684V3ZM20.0727 8.20164C20.1 8.44088 19.9975 8.6596 19.7719 8.85783C19.6967 8.87833 19.6352 8.85099 19.5873 8.78264C19.5395 8.71429 19.4917 8.64594 19.4575 8.57075C19.4506 8.5229 19.4438 8.45455 19.4438 8.36569C19.4438 7.93506 19.5873 7.56596 19.8813 7.2447C19.7924 7.42926 19.7309 7.57963 19.6967 7.689C19.6625 7.79836 19.6489 7.91456 19.6489 8.0376C19.6489 8.20164 19.7035 8.35202 19.8129 8.49556C19.8608 8.47505 19.9018 8.4272 19.9359 8.33835C19.9701 8.24949 20.018 8.20848 20.0727 8.20848V8.20164ZM30.0795 7.58647C29.8539 7.27888 29.56 7.01231 29.2046 6.79358C28.9243 6.6227 28.5689 6.45865 28.1383 6.31511C27.9811 6.28776 27.8307 6.2741 27.6871 6.2741C26.9831 6.2741 26.1355 6.73206 25.1444 7.64115C24.4882 8.24265 24.0303 8.62543 23.7774 8.78948C23.5108 8.71429 23.2989 8.58441 23.128 8.38619C22.9571 8.18797 22.8478 7.95557 22.7931 7.68216C22.6564 7.75735 22.5333 7.88039 22.424 8.06494C22.342 8.22898 22.2599 8.38619 22.1779 8.54341C22.3351 8.94669 22.4377 9.23377 22.4923 9.40465C22.5949 9.73274 22.6427 10.0335 22.6427 10.3069C22.4308 10.4641 22.1984 10.6008 21.9455 10.717C21.6994 10.8059 21.4602 10.9016 21.221 11.0041C20.2435 11.3049 19.2934 11.5441 18.3638 11.715C17.236 11.9269 16.1834 12.0294 15.2196 12.0294C13.8799 12.0294 12.7179 11.8448 11.7336 11.4689C10.5921 11.0383 9.68304 10.3548 8.99951 9.41832C9.08153 9.66439 9.22508 10.013 9.43697 10.471C9.60102 10.8332 9.69671 11.0451 9.72405 11.0998C10.1137 11.7491 10.64 12.2139 11.2962 12.5079C12.0275 12.836 13.2032 13 14.8368 13H15.6707C16.3816 13 17.0993 12.9385 17.8238 12.8154C18.5484 12.6924 19.2866 12.5215 20.0385 12.3028C20.7904 12.0841 21.426 11.797 21.9455 11.4416C22.547 11.0314 23.0392 10.5051 23.4219 9.86945C23.7569 10.0062 24.0918 10.1018 24.4199 10.1565C24.748 10.2112 25.0966 10.2385 25.4725 10.2385C26.1287 10.2385 26.7712 10.1565 27.4069 9.99248C28.0426 9.82844 28.6646 9.60287 29.2729 9.30896C29.4096 9.11073 29.5532 8.90568 29.6967 8.69378C29.9906 8.27683 30.1137 7.90772 30.0795 7.58647ZM18.0904 7.96924C18.0016 8.20847 17.8444 8.38619 17.6188 8.50923C17.3932 8.63226 17.1472 8.70745 16.8737 8.73479C16.9079 8.64593 17.0446 8.55024 17.2839 8.44771C17.5231 8.34518 17.6735 8.26316 17.735 8.20164C17.5778 8.16747 17.4411 8.14012 17.3249 8.11962C17.2087 8.09911 17.0993 8.09227 16.9968 8.09227C16.8532 8.09227 16.7165 8.12645 16.5867 8.20164C16.6072 8.11278 16.6482 8.02393 16.7097 7.9419C16.7712 7.85988 16.8464 7.81203 16.9216 7.79153C16.9968 7.77102 17.0651 7.76418 17.1266 7.76418H17.2565C17.4206 7.76418 17.5778 7.77785 17.7282 7.81203C17.8785 7.84621 18.0016 7.89405 18.0904 7.96924ZM14.249 4.71565L14.1533 5.07109C14.0439 5.0164 13.9619 4.98223 13.9072 4.96172C13.8047 4.91388 13.7227 4.90704 13.6475 4.93438C13.5723 5.07792 13.5313 5.33766 13.5108 5.69993C13.4903 6.0622 13.4493 6.32194 13.3741 6.47915C13.2647 6.40396 13.1417 6.18524 12.9981 5.8093C12.8546 5.43336 12.6701 5.2488 12.4445 5.2488C12.3556 5.19412 12.2873 5.14628 12.2463 5.10526C12.2053 5.06425 12.1847 5.01641 12.1847 4.96172C12.2189 4.81818 12.2531 4.70198 12.2804 4.61312C12.3078 4.52427 12.3625 4.44908 12.4445 4.38756C12.6632 4.5311 12.8409 4.73616 12.9776 5.00273C12.9776 5.00957 13.0802 5.26247 13.2921 5.75461C13.2921 5.47437 13.3331 5.22146 13.4083 5.00957C13.4834 4.79768 13.6202 4.6268 13.8115 4.49693C13.9551 4.50376 14.1055 4.57895 14.249 4.71565ZM15.2059 8.47505C15.1786 8.61176 15.1581 8.74163 15.1376 8.8715C15.0897 9.01504 14.994 9.1039 14.8368 9.13124C14.748 9.13124 14.6728 9.08339 14.6249 8.98086C14.5771 8.87833 14.5429 8.80998 14.5224 8.76213C14.5224 8.55024 14.5566 8.33151 14.6181 8.10595C14.6454 8.00342 14.7206 7.79836 14.8368 7.49077C14.8368 7.54545 14.8232 7.63431 14.7958 7.75051C14.7343 8.02392 14.7001 8.20847 14.7001 8.311C14.7001 8.5229 14.789 8.6596 14.9599 8.73479C15.0077 8.71429 15.0419 8.66644 15.0692 8.59125C15.0966 8.51606 15.1444 8.47505 15.2059 8.47505ZM29.3686 8.43404C28.8218 8.6596 28.2545 8.84416 27.6598 8.97403C27.0651 9.1039 26.4773 9.17225 25.8826 9.17225C25.6434 9.17225 25.3837 9.15858 25.0966 9.13124C24.8095 9.1039 24.5566 9.06289 24.3379 9.0082C24.7685 8.64593 25.1923 8.27683 25.6229 7.90089C26.1355 7.49761 26.614 7.29939 27.072 7.29939C27.1882 7.29939 27.3112 7.31306 27.4411 7.3404C27.8785 7.4771 28.2271 7.61381 28.4937 7.75051C28.8491 7.9419 29.1431 8.16746 29.3686 8.43404Z" fill="currentColor"/>
</svg>
