<svg width="40" height="16" viewBox="0 0 40 16" fill="none" xmlns="http://www.w3.org/2000/svg">
<path fill-rule="evenodd" clip-rule="evenodd" d="M28.81 4.98947C28.7469 4.93158 28.6995 4.87895 28.6627 4.82105C28.5206 4.61053 28.4469 4.5 28.4416 4.49474C28.4048 4.55263 28.3837 4.62105 28.3679 4.7C28.3521 4.77895 28.3469 4.86316 28.3469 4.94737C28.3469 5.05789 28.3574 5.21053 28.3732 5.39474C28.389 5.57895 28.3995 5.68421 28.3995 5.70526C28.4153 5.91053 28.4469 6.2421 28.4942 6.70526C28.5732 7.48421 28.61 8.07368 28.61 8.47368C28.61 9.00526 28.5732 9.48421 28.4942 9.9C28.4153 10.3158 28.2785 10.7105 28.0732 11.0737C28.1364 10.8 28.1837 10.5053 28.2153 10.1947C28.2469 9.88421 28.2627 9.55789 28.2627 9.22105C28.2627 8.80526 28.189 7.83684 28.0416 6.30526C27.9732 5.57368 27.9364 4.98421 27.9364 4.53684C27.9364 4.41579 27.9364 4.3 27.9258 4.18947C27.9206 4.07895 27.91 3.96316 27.9048 3.85263C27.9048 3.67895 27.9258 3.53158 27.9627 3.42105C27.9995 3.31053 28.089 3.19474 28.2206 3.08421C28.3469 3.39474 28.4785 3.7 28.61 4.01053C28.7416 4.36842 28.81 4.69474 28.81 4.98947ZM24.81 5.65263C24.789 5.67895 24.7574 5.69474 24.7153 5.69474C24.6942 5.69474 24.6732 5.69474 24.6469 5.68421C24.6206 5.67895 24.5995 5.66842 24.5785 5.66316L24.5153 5.6C24.4469 5.71053 24.4048 5.77368 24.389 5.78947C24.3416 5.83684 24.289 5.86316 24.2416 5.86316C24.1732 5.8579 24.11 5.84211 24.0627 5.81579C24.0153 5.78947 23.9837 5.74737 23.9785 5.68421C23.9785 5.51053 23.989 5.37368 24.01 5.27895C24.0311 5.18421 24.0785 5.08421 24.1574 4.97895C24.1785 5.03684 24.1732 5.11579 24.1469 5.22632C24.1206 5.33684 24.1048 5.39474 24.1048 5.4C24.1048 5.47895 24.1416 5.53684 24.21 5.57895C24.2574 5.58421 24.2995 5.57895 24.3364 5.56316C24.3732 5.54737 24.41 5.51579 24.4521 5.47368C24.4574 5.45263 24.4627 5.43158 24.4627 5.40526V5.35789C24.4574 5.25263 24.4521 5.17368 24.4521 5.12632C24.4521 5.02105 24.489 4.94737 24.5574 4.90526C24.5521 5.04737 24.5469 5.14737 24.5469 5.21053C24.5469 5.32105 24.5942 5.39474 24.6942 5.43158C24.7574 5.41579 24.7942 5.4 24.81 5.37895C24.7732 5.28947 24.7574 5.2 24.7574 5.11579C24.7574 5.03684 24.7732 4.96842 24.81 4.90526C24.8364 4.93158 24.8627 4.96842 24.8785 5.01053C24.8942 5.05263 24.9048 5.11579 24.9048 5.2C24.9048 5.25789 24.8942 5.32632 24.8785 5.40526C24.8627 5.48421 24.8364 5.56842 24.81 5.65263ZM25.1679 3.17895C24.5837 3.38947 24.1258 3.55263 23.789 3.66316C23.3206 3.81579 22.8521 3.96842 22.389 4.11579C21.7995 4.31053 21.3416 4.46842 21.01 4.58947C20.9311 4.63158 20.8574 4.66842 20.7785 4.70526C20.6048 4.79474 20.5153 4.9 20.5153 5.02105C21.1732 4.73158 21.8995 4.45789 22.6837 4.18947C23.4153 3.95789 24.1469 3.72105 24.8837 3.48421C24.989 3.43684 25.0574 3.39474 25.0942 3.36842C25.1627 3.30526 25.189 3.24211 25.1679 3.17895ZM20.6416 3.84211C20.6206 3.98947 20.5732 4.12105 20.4942 4.23684C20.4153 4.35263 20.31 4.42632 20.1679 4.45263C20.0416 4.47895 19.9416 4.42632 19.8627 4.29474C19.8627 4.13158 19.91 3.97368 19.9995 3.81579C20.089 3.65789 20.1837 3.5 20.2732 3.34737C20.289 3.38947 20.2732 3.45263 20.2364 3.53158C20.1995 3.61053 20.1837 3.66842 20.189 3.69474L20.3048 3.54737C20.3627 3.56842 20.4258 3.60526 20.4995 3.66316C20.5732 3.72105 20.6206 3.77895 20.6416 3.84211ZM25.0837 11.5579C25.1258 11.6158 25.1206 11.6789 25.0732 11.7474C24.9942 11.8526 24.9574 11.9158 24.9574 11.9368C24.91 11.9421 24.8679 11.9316 24.8311 11.8947C24.7942 11.8579 24.7627 11.8158 24.7258 11.7579C24.7206 11.7316 24.7153 11.6895 24.7153 11.6316C24.7153 11.4684 24.7732 11.2842 24.8942 11.0737C24.9574 10.9684 25.0206 10.8632 25.0837 10.7579C25.0837 10.8053 25.0364 10.9368 24.9469 11.1474C24.8995 11.2579 24.8732 11.3474 24.8732 11.4105V11.5053C24.889 11.5632 24.9206 11.6158 24.9785 11.6737L25.0837 11.5579ZM17.5258 6.48421C17.6311 6.29474 17.6837 6.04737 17.6837 5.73684C17.6837 5.31579 17.589 4.94211 17.3995 4.62105L17.5258 4.36842C17.7311 4.7 17.8311 5.05789 17.8311 5.45263C17.8311 5.84737 17.7311 6.19474 17.5258 6.48421ZM22.9364 9.82105C22.6995 9.98421 22.51 10.0947 22.3785 10.1579C22.1469 10.2684 21.9364 10.3263 21.7469 10.3263C21.5837 10.3263 21.4364 10.2895 21.3048 10.2105C21.2416 10.1474 21.21 10.0684 21.21 9.97895C21.21 9.93158 21.2258 9.88947 21.2521 9.85263C21.3206 9.77368 21.3995 9.69474 21.4837 9.61053C21.5679 9.52632 21.6574 9.46842 21.7574 9.43158C21.7206 9.38947 21.6732 9.36316 21.6153 9.35263C21.5574 9.34211 21.4995 9.33158 21.4416 9.31579C21.4153 9.34211 21.3942 9.36316 21.389 9.36842C21.3837 9.37368 21.3732 9.38421 21.3679 9.38947L21.3364 9.36842C21.3837 9.2 21.4995 9.11579 21.6732 9.11579C21.8048 9.11579 21.9258 9.1579 22.0311 9.24211C22.0521 9.36842 21.9574 9.48947 21.7416 9.60526C21.5258 9.72105 21.4206 9.8 21.4206 9.84211C21.4206 9.90526 21.4995 9.97895 21.6627 10.0632C21.71 10.0789 21.7837 10.0842 21.8837 10.0842C22.0258 10.0842 22.2153 10.0421 22.4574 9.95789C22.6995 9.87368 22.8574 9.82632 22.9364 9.82105ZM26.3995 4.75789C26.3995 4.51053 26.3206 4.21579 26.1679 3.87368C25.9627 3.42632 25.8469 3.13158 25.81 3C25.7416 3.05789 25.6679 3.14211 25.589 3.26316C25.5521 3.32105 25.4995 3.42105 25.4206 3.56842C25.4995 4.19474 25.5732 4.81579 25.6521 5.43158C25.7574 6.29474 25.8311 6.99474 25.8785 7.53158C25.9258 8.06842 25.9469 8.63684 25.9469 9.24211C25.689 9.40526 25.3627 9.54737 24.9679 9.67368C24.6311 9.77368 24.2995 9.86842 23.9679 9.96316C23.6364 10.0579 23.3206 10.1895 23.0206 10.3579C22.7521 10.5053 22.4785 10.6895 22.189 10.9158C21.9837 11.0842 21.7837 11.2474 21.5785 11.4105C21.1837 11.7263 20.8364 11.9632 20.5364 12.1158C20.51 12.1211 20.4627 12.1316 20.3995 12.1421C20.3364 12.1526 20.2785 12.1579 20.2311 12.1579C20.0574 12.1579 19.9206 12.1105 19.8311 12.0105C19.71 11.8421 19.6521 11.6474 19.6521 11.4316C19.6521 11.2684 19.6785 11.0947 19.7364 10.9105C19.7942 10.7263 19.8574 10.5526 19.9364 10.3895C20.1206 10.3684 20.2574 10.2158 20.3574 9.92632C20.4206 9.73684 20.4732 9.61579 20.5153 9.55789C20.5364 9.49474 20.5469 9.43158 20.5469 9.36842C20.5469 9.26316 20.5153 9.15263 20.4521 9.04211C20.4153 8.97368 20.3521 8.87895 20.2521 8.76842C20.5627 8.63684 20.8837 8.53158 21.2258 8.45789C21.5679 8.38421 21.9153 8.34737 22.2732 8.34737C22.6679 8.34737 23.0469 8.36316 23.41 8.39474C23.7732 8.42632 24.11 8.47895 24.4206 8.54737C24.4995 8.43684 24.5785 8.31579 24.6679 8.18947C24.7574 8.06316 24.8153 7.95789 24.8521 7.87368C24.4732 7.81579 24.0258 7.68947 23.5153 7.49474C23.089 7.32632 22.6627 7.15789 22.2469 6.98421C21.8311 6.81053 21.489 6.68947 21.2206 6.62105C20.8469 6.52105 20.489 6.47368 20.1469 6.47368C20.0995 6.47368 20.0311 6.47368 19.9469 6.47895C19.8627 6.47895 19.7206 6.5 19.5153 6.52632C19.31 6.52632 19.1627 6.63158 19.0627 6.8421C19.0048 7.01053 18.9521 7.17895 18.8942 7.34737L19.9995 7.23158C20.1048 7.21053 20.2048 7.2 20.3048 7.2C20.5627 7.2 20.91 7.28947 21.3469 7.47368C21.6206 7.58421 21.8206 7.66842 21.9469 7.71579C20.9942 7.90526 20.0469 8.11579 19.1048 8.34737C19.0364 8.49474 18.9258 8.64211 18.7837 8.78947C18.6416 8.93684 18.4995 9.07895 18.3679 9.21053C18.1785 9.37895 17.9574 9.46316 17.7048 9.46316C17.5995 9.46316 17.4837 9.44737 17.3574 9.41053C17.2153 9.41053 17.1258 9.32105 17.0785 9.14737C17.0311 8.97368 16.9942 8.86316 16.9679 8.82105C16.9521 8.81579 16.9258 8.83158 16.8837 8.87368C16.7942 8.96316 16.7258 9.05263 16.689 9.14211C16.6521 9.23158 16.6311 9.32105 16.6311 9.42105C16.6311 9.5421 16.6837 9.74211 16.7837 10.0263C16.8837 10.3105 16.9364 10.5316 16.9364 10.6842C16.9364 10.7474 16.9364 10.7947 16.9258 10.8211C16.7521 11.0053 16.5679 11.1579 16.3732 11.2895C16.1785 11.4211 15.8574 11.5842 15.41 11.7895C15.0469 11.9368 14.689 12.0526 14.3364 12.1421C13.9837 12.2316 13.6364 12.2737 13.2942 12.2737C12.9521 12.2737 12.6311 12.2211 12.3416 12.1105C12.0521 12 11.7942 11.8211 11.5785 11.5684C11.4153 11.3579 11.3364 11.1105 11.3364 10.8316C11.3364 10.5789 11.4258 10.2316 11.61 9.78947C11.7311 9.51053 11.8048 9.32632 11.8311 9.24211C11.689 9.5 11.5521 9.75789 11.4206 10.0105C11.1416 10.5579 10.9995 11.0158 10.9995 11.3895C10.9995 11.5421 11.0206 11.6947 11.0679 11.8421C11.1153 11.9895 11.1837 12.1316 11.2732 12.2632C11.5206 12.5316 11.7995 12.7211 12.1206 12.8316C12.4416 12.9421 12.7942 13 13.189 13C13.4785 13 13.7521 12.9737 14.01 12.9211C14.2679 12.8684 14.5258 12.7895 14.7785 12.6842C15.4942 12.4105 16.0574 12.1053 16.4627 11.7684C17.0364 11.2895 17.3258 10.7526 17.3258 10.1474C17.3521 10.1526 17.3942 10.1579 17.4521 10.1579C17.6785 10.1579 17.8995 10.0632 18.1153 9.87368C18.2206 9.77368 18.3837 9.58947 18.61 9.31579L18.6732 9.58947C18.7206 9.81579 18.8679 10 19.1153 10.1474C19.2995 10.2579 19.5258 10.3421 19.7995 10.3895C19.7416 10.5316 19.689 10.6684 19.6311 10.8053C19.5732 10.9421 19.5311 11.0789 19.4942 11.2105C19.4732 11.3421 19.4627 11.4316 19.4574 11.4684C19.4574 11.5053 19.4574 11.5632 19.4574 11.6316C19.4574 11.8421 19.489 12.0263 19.5521 12.1842C19.6153 12.3421 19.7206 12.4684 19.8679 12.5684C19.9574 12.6158 20.0574 12.6421 20.1627 12.6421C20.2732 12.6263 20.389 12.6158 20.4995 12.6105C20.7521 12.5 21.01 12.3474 21.2785 12.1579C21.3469 12.1105 21.5942 11.9211 22.0153 11.6C22.3364 11.3632 22.589 11.1895 22.7732 11.0842C23.0416 10.9316 23.3153 10.8211 23.5942 10.7579C24.1679 10.5684 24.7469 10.3737 25.3206 10.1789C25.989 9.92105 26.3206 9.47895 26.3206 8.85263L25.9732 4.37895L26.0364 4.32632C26.0995 4.36842 26.1679 4.4421 26.2469 4.55263C26.3258 4.66316 26.3785 4.73158 26.4048 4.75789H26.3995ZM14.1469 3.95789L14.1048 4.2C14.0785 4.2 14.0258 4.16842 13.9469 4.1C13.8679 4.03158 13.8048 4.02105 13.7574 4.06316C13.7206 4.14211 13.6942 4.31579 13.6679 4.58421C13.6416 4.85263 13.5837 5.04211 13.4837 5.14737C13.4469 5.1 13.3942 4.97895 13.3258 4.78947C13.2206 4.5 13.0942 4.36316 12.9469 4.37895C12.8627 4.37895 12.8048 4.35263 12.7785 4.30526C12.7521 4.25789 12.7364 4.20526 12.7364 4.15789C12.7364 4.13684 12.7416 4.1 12.7574 4.04211C12.7732 4.02105 12.7942 3.97368 12.8206 3.90526C12.8469 3.83684 12.889 3.78421 12.9469 3.7579C13.0785 3.84737 13.1942 4 13.2942 4.21053C13.3732 4.38421 13.4521 4.56316 13.5364 4.73684C13.5574 4.56316 13.5837 4.38421 13.61 4.2C13.6574 3.99474 13.7469 3.84211 13.8732 3.73684C13.9785 3.75789 14.0679 3.83158 14.1469 3.95789ZM15.0311 7.26316C15.0048 7.37368 14.9627 7.47368 14.91 7.56316C14.8574 7.65263 14.7732 7.76316 14.6627 7.89474L14.0837 7.50526C14.1416 7.37895 14.1995 7.26842 14.2627 7.17895C14.2995 7.12105 14.3732 7.02105 14.4942 6.87368C14.5942 6.9 14.689 6.95263 14.789 7.03158C14.8521 7.07895 14.9311 7.1579 15.0311 7.26316ZM18.7153 11.0947C18.7416 11.1421 18.7416 11.2 18.71 11.2684C18.6785 11.3368 18.6574 11.3737 18.6521 11.3789C18.6153 11.3632 18.5732 11.3579 18.5258 11.3579H18.41C18.289 11.3579 18.189 11.3684 18.0995 11.3947C18.01 11.4211 17.9311 11.4684 17.8627 11.5368C17.8995 11.7737 17.9311 12.0158 17.9679 12.2632C17.9732 12.3105 17.9785 12.3842 17.9785 12.4737C17.9785 12.6632 17.9416 12.8316 17.8627 12.9789C17.8785 12.9421 17.8837 12.9053 17.8837 12.8632V12.7684C17.8837 12.6474 17.8679 12.5263 17.8416 12.4C17.8153 12.2737 17.789 12.1526 17.7627 12.0421C17.7364 11.9316 17.7258 11.8263 17.7258 11.7368C17.7258 11.6263 17.7416 11.5316 17.7732 11.4526C17.8048 11.3737 17.8732 11.2947 17.9785 11.2105L18.3574 11.0947C18.3153 11.0526 18.2574 11.0316 18.1785 11.0316C18.1206 11.0316 18.0732 11.0421 18.0364 11.0684C17.9995 11.0947 17.9627 11.1211 17.9364 11.1474C17.9153 11.1 17.9258 11.0474 17.9627 10.9947C17.9995 10.9421 18.0364 10.8895 18.0732 10.8421C18.1416 10.8053 18.21 10.7895 18.2732 10.7895C18.3627 10.7895 18.4521 10.8158 18.5364 10.8737C18.6206 10.9316 18.6785 11.0053 18.7153 11.0947ZM12.9469 5.47368C12.8837 5.60526 12.7311 5.86316 12.4837 6.24211C12.089 6.84737 11.8942 7.31579 11.8942 7.65263C11.8942 7.8 11.9206 7.93684 11.9679 8.06842C12.0153 8.2 12.11 8.33158 12.2416 8.46316C12.3258 8.46842 12.3995 8.44737 12.4627 8.39474C12.5258 8.34211 12.5679 8.26842 12.589 8.17895C12.6048 8.15263 12.6153 8.12632 12.6206 8.11053C12.6258 8.09474 12.6416 8.08947 12.6627 8.09474C12.6627 8.34737 12.6364 8.55263 12.589 8.70526C12.5206 8.91579 12.3942 9.07895 12.2206 9.2C11.989 9.24211 11.8153 9.15263 11.7048 8.93684C11.6206 8.66842 11.5785 8.41579 11.5785 8.16842C11.5785 7.70526 11.7206 7.22105 12.01 6.71579C12.2258 6.33158 12.5416 5.91579 12.9469 5.47368ZM15.189 9.73684L15.1258 9.95789C15.0364 9.92105 14.9521 9.90526 14.8837 9.90526C14.7837 9.90526 14.7364 9.95789 14.7364 10.0632C14.71 10.2684 14.6785 10.4316 14.6521 10.5579C14.6258 10.6842 14.5837 10.8158 14.5364 10.9474C14.4785 10.9 14.3995 10.7474 14.2942 10.4947C14.2364 10.3684 14.1837 10.2737 14.1258 10.2105C14.1206 10.2526 14.0995 10.2737 14.0627 10.2737C14.0416 10.2737 14.01 10.2579 13.9732 10.2263C13.9364 10.1947 13.91 10.1789 13.8942 10.1789C13.8469 10.1368 13.8206 10.0895 13.8206 10.0421C13.8206 10 13.8311 9.95263 13.8574 9.89474C13.8837 9.83684 13.91 9.78421 13.9364 9.73684C14.0837 9.75263 14.2048 9.84737 14.3048 10.0316C14.3837 10.1947 14.4574 10.3526 14.5364 10.5158C14.5942 10.2895 14.6416 10.1053 14.6785 9.95263C14.7153 9.8 14.7942 9.68421 14.9153 9.6C15.0153 9.57895 15.1048 9.62632 15.189 9.73684ZM20.4311 4.10526C20.4311 4.04737 20.4048 3.99474 20.3574 3.94737C20.2258 3.81579 20.1574 3.74211 20.1574 3.73684C20.1364 3.79474 20.1153 3.84737 20.0942 3.90526C20.0732 3.96316 20.0627 4.00526 20.0627 4.03158C20.0627 4.07368 20.0785 4.11053 20.1048 4.14737C20.1469 4.16316 20.1837 4.16842 20.21 4.16842C20.2574 4.16842 20.3311 4.14737 20.4311 4.10526ZM20.0206 9.62105C19.81 9.62105 19.61 9.56316 19.4206 9.45263C19.2311 9.34211 19.0785 9.19474 18.9574 9.02105C19.1942 9.02105 19.4048 9.06842 19.5785 9.16842C19.7521 9.26842 19.8995 9.41579 20.0206 9.62105Z" fill="currentColor"/>
</svg>
