<svg width="40" height="16" viewBox="0 0 40 16" fill="none" xmlns="http://www.w3.org/2000/svg">
<path fill-rule="evenodd" clip-rule="evenodd" d="M29.8567 5.7033L29.8017 5.78022L29.4281 5.32967C29.4281 5.76374 29.4611 6.30219 29.5325 6.94505C29.6039 7.58791 29.6589 8.10439 29.6973 8.48351C29.7358 8.86264 29.7578 9.26374 29.7578 9.68132C29.7578 10.0275 29.7413 10.3462 29.7028 10.6374C29.6643 10.9286 29.5984 11.2253 29.494 11.5275H29.4391C29.4611 11.2912 29.472 11.0604 29.472 10.8352C29.472 10.3242 29.4336 9.76374 29.3621 9.15385C29.1808 7.63187 29.0874 6.6978 29.0874 6.36264C29.06 6.23077 29.0215 5.91758 28.9775 5.41758C28.9336 4.91758 28.8567 4.55494 28.7468 4.32967C28.7907 4.21428 28.8402 4.08791 28.9006 3.95055C28.9611 3.81318 29.038 3.71978 29.1314 3.67033C29.3731 4.35165 29.6149 5.02747 29.8567 5.7033ZM25.7797 5.06593C25.7413 5.10439 25.7028 5.12088 25.6589 5.12088C25.6204 5.12088 25.5764 5.1044 25.516 5.07692L25.472 5.04396C25.4226 5.11539 25.3786 5.17033 25.3457 5.20329C25.3127 5.23626 25.2797 5.25824 25.2413 5.26373C25.0709 5.29121 24.9665 5.24176 24.9226 5.10989C24.9226 4.82967 24.9556 4.56044 25.0215 4.2967C25.038 4.34066 25.0435 4.41209 25.0435 4.5055C25.0435 4.59341 25.0435 4.68132 25.0435 4.76923C25.0435 4.85714 25.0764 4.92858 25.1259 4.97803C25.2578 4.97803 25.3402 4.95055 25.3786 4.89011C25.3841 4.86813 25.3896 4.84615 25.3896 4.81868V4.76923C25.3841 4.65385 25.3786 4.56594 25.3786 4.5055C25.3786 4.43407 25.3951 4.36264 25.4226 4.2967H25.4665C25.4665 4.2967 25.4885 4.36813 25.4885 4.43956C25.483 4.54395 25.4775 4.62088 25.4775 4.67033C25.4775 4.81868 25.56 4.87362 25.7193 4.83516C25.7358 4.7967 25.7358 4.73627 25.7193 4.64286C25.7028 4.54945 25.6973 4.4945 25.6973 4.47252C25.6973 4.39011 25.7193 4.32967 25.7632 4.28571C25.8237 4.37912 25.8512 4.5 25.8512 4.64835C25.8512 4.8022 25.8237 4.93956 25.7742 5.06593H25.7797ZM25.4501 3.21978C25.4226 3.12637 25.3841 3.06593 25.3457 3.03846C25.3072 3.01098 25.2578 3.00549 25.2083 3.02197C25.1039 3.02197 25.016 3.07692 24.9336 3.18681C24.8841 3.25275 24.8402 3.34615 24.8017 3.46154C24.8237 3.54395 24.8731 3.60439 24.9446 3.64835C25.016 3.6923 25.0929 3.73077 25.1643 3.76923C24.5435 4.31318 23.9226 4.85165 23.3072 5.39561C23.8347 5.06044 24.1808 4.82967 24.3402 4.71428C24.7193 4.43406 25.0215 4.14286 25.2413 3.83517C25.2687 3.85715 25.3182 3.89561 25.3841 3.94506C25.4116 3.89561 25.4391 3.84616 25.4611 3.8022C25.483 3.75825 25.494 3.71978 25.494 3.68132C25.494 3.62088 25.4556 3.57692 25.3841 3.54945C25.4281 3.47802 25.4501 3.36813 25.4501 3.21978ZM26.527 7.41758C26.5215 7.48901 26.5105 7.56594 26.505 7.63736C26.4775 7.80769 26.4061 7.91758 26.2962 7.96703C26.2358 7.96703 26.1918 7.95055 26.1534 7.92308C26.0874 7.87363 26.049 7.7967 26.0325 7.6923C26.0325 7.2967 26.1039 6.93956 26.2413 6.61539C26.2578 6.68681 26.2468 6.81318 26.2138 6.98901C26.1808 7.16483 26.1643 7.28022 26.1643 7.32967C26.1643 7.41759 26.1753 7.48352 26.1973 7.53297C26.2193 7.58242 26.2687 7.62637 26.3512 7.67033C26.3786 7.64835 26.4116 7.6044 26.4391 7.53297C26.4665 7.46154 26.4995 7.42307 26.527 7.41758ZM22.549 3L22.4281 3.21978C21.3292 3.70329 20.2358 4.18132 19.1424 4.65934C19.1424 4.46704 19.2632 4.31868 19.505 4.20879C19.6204 4.15934 19.7413 4.10439 19.8567 4.05494C20.7523 3.7033 21.6479 3.35165 22.549 3ZM27.9226 8.13187C27.8127 7.63187 27.6973 7.11538 27.5819 6.57692C27.4665 6.03846 27.4061 5.56593 27.4061 5.15385C27.472 5.11538 27.5435 5.16483 27.6259 5.2967C27.7358 5.47252 27.8017 5.56593 27.8237 5.58242L27.8457 5.54945C27.8017 5.23626 27.7083 4.90659 27.56 4.57143C27.4501 4.31319 27.2962 4.01648 27.0984 3.67033C27.0105 3.76374 26.9391 3.87912 26.8786 4.01099C26.8567 4.05494 26.8127 4.17582 26.7468 4.37363L26.9116 4.5934C26.9391 4.79121 27.1479 5.98901 27.538 8.18682C27.6863 9.01649 27.7962 9.74176 27.8786 10.3626C27.7248 10.5549 27.56 10.7033 27.3786 10.8077C27.1973 10.9121 27.005 10.967 26.8017 10.967C26.6753 10.967 26.5709 10.9396 26.4775 10.8846C26.3841 10.8297 26.2907 10.7527 26.1863 10.6484C26.0545 10.4286 25.6973 9.48351 25.1094 7.81318C24.8731 7.14835 24.5984 6.60989 24.2852 6.20879C24.1808 6.24725 24.1149 6.34615 24.0764 6.51648C24.0545 6.66483 24.038 6.80769 24.0215 6.95604C24.3017 7.37363 24.5215 7.76923 24.6808 8.14286C24.8731 8.57692 24.9995 9.0055 25.0654 9.43956C24.8292 9.72528 24.6094 9.96703 24.3951 10.1648C24.1479 10.4011 23.8896 10.6099 23.6259 10.7912C23.3347 11.0055 23.049 11.1703 22.7742 11.2912C22.4995 11.4121 22.1973 11.5 21.8676 11.5604C21.7303 11.522 21.6259 11.489 21.56 11.4506C21.4556 11.3901 21.3731 11.3132 21.3072 11.2088C21.2578 11.1044 21.2303 11.0055 21.2303 10.9011C21.3237 10.5769 21.4226 10.2582 21.516 9.93406C21.3622 10.1703 21.2468 10.3901 21.1753 10.5934C21.0819 10.8571 21.0325 11.1099 21.0325 11.3516C21.0325 11.6209 21.0984 11.8626 21.2303 12.0659C21.3127 12.1703 21.4006 12.2363 21.505 12.2637C21.6094 12.2912 21.7523 12.3077 21.9336 12.3077C22.6204 12.1484 23.2687 11.8297 23.8676 11.3516C24.1753 11.1154 24.4446 10.8571 24.6698 10.5714C24.8951 10.2857 25.0819 9.97803 25.2193 9.64836C25.3786 10.044 25.5435 10.4396 25.7028 10.8352C25.7962 11.0549 25.9061 11.2363 26.0215 11.3736C26.1698 11.544 26.3457 11.6648 26.549 11.7363C26.5764 11.7363 26.6204 11.7363 26.6808 11.7473C26.9006 11.7473 27.1149 11.6923 27.3182 11.5769C27.5215 11.4615 27.6973 11.3132 27.8457 11.1209C27.9995 10.6593 28.0764 10.1593 28.0764 9.62637C28.0764 9.39011 28.0654 9.15385 28.038 8.91759C28.0105 8.68132 27.972 8.41758 27.9226 8.13187ZM22.494 6.32967C22.494 6.51099 22.4391 6.68132 22.3292 6.83516C22.1973 6.85714 22.1204 6.8022 22.0984 6.67583C22.0764 6.54945 22.0654 6.45604 22.0654 6.3956C22.0654 6.24725 22.0874 6.09341 22.1369 5.92857C22.1863 5.76374 22.2413 5.5989 22.3072 5.42857C22.3072 5.4945 22.2962 5.58241 22.2742 5.6923C22.2248 5.95055 22.1973 6.10989 22.1973 6.17582C22.1973 6.26374 22.2083 6.33516 22.2248 6.39011C22.2413 6.44505 22.2852 6.5 22.3512 6.54945C22.3786 6.48902 22.4061 6.44505 22.4226 6.40659C22.4391 6.36813 22.4665 6.34615 22.494 6.32967ZM21.3841 5.13187C21.3127 5.37363 21.2028 5.6044 21.0545 5.82418C21.005 5.78022 20.9116 5.71978 20.7797 5.64835C20.5545 5.52197 20.4336 5.41209 20.4281 5.31868L20.7578 4.74725C20.9391 4.81318 21.0819 4.87912 21.1753 4.94505C21.2413 4.98901 21.3127 5.04945 21.3841 5.13187ZM24.1753 8.05494L23.8786 8.81319C23.4556 8.81319 23.016 8.9011 22.5709 9.07692C22.2907 9.18681 21.8951 9.39011 21.3841 9.68132C20.8072 10.011 20.4171 10.2198 20.2193 10.3077C19.7632 10.5055 19.3347 10.6044 18.9336 10.6044C18.7193 10.6044 18.5215 10.5494 18.3292 10.4396C18.1369 10.3297 18.005 10.1758 17.9226 9.97802C17.7742 9.47802 17.6808 8.71428 17.6424 7.67582C17.6039 6.63736 17.5654 5.97253 17.527 5.67033C17.527 5.51099 17.505 5.30769 17.4556 5.07143C17.4061 4.83517 17.3621 4.6044 17.3182 4.38462C17.3017 4.31868 17.2907 4.25824 17.2852 4.1978C17.2797 4.13736 17.2742 4.07142 17.2742 4C17.2742 3.84615 17.2962 3.70879 17.3457 3.58242C17.3951 3.45604 17.4775 3.33516 17.5929 3.21978C17.6808 3.71978 17.7523 4.32967 17.8127 5.05495C17.8402 5.37912 17.8786 5.95055 17.9171 6.78022C17.9556 7.60989 17.9995 8.28572 18.0435 8.81319C18.0819 8.98901 18.1204 9.13187 18.1698 9.23627C18.2193 9.34066 18.2962 9.45055 18.4061 9.56044C18.3567 9.43407 18.3292 9.2967 18.3292 9.14285C18.3292 8.95055 18.3676 8.74176 18.4391 8.51648C18.4885 8.35714 18.5764 8.15385 18.6918 7.91209C18.9336 7.6978 19.1808 7.54945 19.4281 7.45605C19.6753 7.36264 19.9391 7.31868 20.2083 7.31868C20.3841 7.31868 20.56 7.33516 20.7358 7.36813C20.9116 7.4011 21.1204 7.45055 21.3622 7.51648C21.4556 7.53846 21.7578 7.63187 22.2632 7.79121C22.9006 7.98901 23.4116 8.08791 23.7907 8.08791C23.9171 8.08791 24.0435 8.07692 24.1753 8.05494ZM19.1643 6.18682C19.1643 6.07143 19.1534 5.91208 19.1314 5.70879C19.1094 5.50549 19.038 5.35165 18.9226 5.24176L18.7797 5.51648C18.8402 5.53297 18.8841 5.58791 18.9226 5.6923C18.994 5.82967 19.0325 5.98352 19.0325 6.14286C19.0325 6.3022 18.9995 6.48351 18.9281 6.65384C18.8567 6.82417 18.7742 6.98352 18.6698 7.12088C18.8017 6.98901 18.9061 6.85165 18.9775 6.7033C19.049 6.55495 19.1149 6.38462 19.1643 6.18682ZM25.2193 12.3626C25.1973 12.4451 25.1753 12.5275 25.1534 12.6154C25.1149 12.7088 25.06 12.7747 24.9775 12.8132C24.9171 12.8187 24.8676 12.8022 24.8182 12.7637C24.7687 12.7253 24.7413 12.6813 24.7358 12.6319C24.7303 12.5824 24.7248 12.522 24.7248 12.4505C24.7248 12.2582 24.7578 12.0769 24.8237 11.9011C24.8896 11.7253 24.983 11.533 25.1094 11.3297C25.0435 11.5 24.994 11.6264 24.9665 11.7143C24.9006 11.8956 24.8676 12.044 24.8676 12.1538C24.8676 12.2857 24.9061 12.4121 24.9775 12.5275C25.0215 12.5494 25.06 12.533 25.0984 12.4835C25.1369 12.4341 25.1589 12.3956 25.1753 12.3736L25.2193 12.3626ZM16.1534 5.53846C16.1259 5.6978 16.1039 5.7967 16.0874 5.82418C16.0435 5.95055 15.9775 6.03297 15.8896 6.07693C15.8237 6.08242 15.7687 6.06593 15.7303 6.02198C15.6918 5.97802 15.6589 5.91758 15.6369 5.84615C15.6369 5.64285 15.6534 5.45605 15.6863 5.28572C15.7193 5.11539 15.7742 4.96154 15.8567 4.81319C15.8347 4.9066 15.8127 5.00549 15.7962 5.10989C15.7797 5.21428 15.7687 5.30769 15.7687 5.39561C15.7687 5.56593 15.8072 5.70329 15.8896 5.81318C15.9611 5.82967 16.016 5.79121 16.0545 5.6978C16.0929 5.6044 16.1259 5.55494 16.1534 5.53846ZM14.0874 3.98901L14.0435 4.20879C14.005 4.21428 13.9556 4.1978 13.8896 4.15934C13.8237 4.12088 13.7852 4.0989 13.7687 4.0989C13.7303 4.0989 13.7028 4.12638 13.6808 4.18682V4.32967C13.6808 4.55494 13.6698 4.74175 13.6534 4.88461C13.6369 5.02747 13.5874 5.15934 13.516 5.28572C13.4336 5.21429 13.3567 5.07143 13.2742 4.85715C13.1918 4.64286 13.1149 4.5 13.0325 4.41758C13.0325 4.46703 13.005 4.48352 12.9446 4.46154C12.8841 4.43956 12.8512 4.43406 12.8347 4.43956C12.7852 4.3956 12.7578 4.34066 12.7578 4.27472C12.7578 4.24725 12.7632 4.2033 12.7797 4.14286C12.7962 4.08242 12.8017 4.03846 12.8017 4L12.9006 3.94506C13.038 4.02747 13.1589 4.17033 13.2632 4.38462C13.3457 4.56594 13.4281 4.74725 13.516 4.92308C13.538 4.87363 13.56 4.67582 13.5819 4.33516C13.6039 3.9945 13.6753 3.82418 13.8017 3.82418C13.8841 3.82418 13.9775 3.87912 14.0874 3.98901ZM20.6698 12.3736C20.3347 12.7912 19.9006 13 19.3731 13C19.2028 13 19.0435 12.9725 18.8951 12.9176C18.7468 12.8626 18.6643 12.7692 18.6479 12.6374C18.6918 12.478 18.7687 12.3407 18.8841 12.2253C18.9995 12.1099 19.1424 12.0055 19.3182 11.9121C19.2083 11.8517 19.1424 11.8187 19.1149 11.8077C19.0874 11.7967 19.049 11.7912 18.9995 11.7912C18.9556 11.7912 18.9116 11.8022 18.8676 11.8242L18.8127 11.8681C18.8127 11.8297 18.8237 11.7967 18.8457 11.7582C18.8676 11.7198 18.9171 11.6648 18.9995 11.5824C19.06 11.5604 19.1094 11.5495 19.1534 11.5495C19.2193 11.5495 19.2907 11.5659 19.3676 11.6044C19.4446 11.6429 19.5215 11.6758 19.5929 11.7143C19.6149 11.8462 19.494 11.989 19.2358 12.1483C18.9775 12.3077 18.8457 12.4121 18.8457 12.4725C18.8457 12.5549 18.9665 12.6374 19.2083 12.7253C19.3237 12.7418 19.4116 12.7473 19.4611 12.7473C19.6589 12.7473 19.8512 12.7143 20.038 12.6538C20.2248 12.5934 20.4336 12.5 20.6698 12.3736ZM14.1534 7.04396C14.1149 7.07143 14.0654 7.15934 13.9995 7.30769C13.9336 7.45604 13.8512 7.52748 13.7578 7.52748C13.7523 7.52198 13.6259 7.45055 13.3841 7.31868C13.2303 7.23626 13.1643 7.12637 13.1863 6.98901L13.549 6.48352C13.7303 6.57692 13.8676 6.65385 13.9556 6.7033C14.1149 6.79671 14.1808 6.91209 14.1534 7.04396ZM15.2193 9.30769C15.2248 9.33516 15.2303 9.37912 15.2303 9.43956C15.2303 9.65385 15.1479 9.81868 14.9885 9.93406C14.8512 9.95604 14.7632 9.89011 14.7248 9.73626C14.7193 9.6978 14.7138 9.64835 14.7138 9.58242C14.7138 9.44505 14.7523 9.28022 14.8347 9.08791C14.8731 9 14.9116 8.9066 14.9556 8.81319C14.972 8.87363 14.9665 8.93957 14.9446 9.02198C14.8786 9.26374 14.8457 9.39011 14.8457 9.4066C14.8457 9.53297 14.9061 9.62088 15.0325 9.67033L15.2193 9.30769ZM16.9336 12.3077C16.9336 12.4176 16.9226 12.511 16.8951 12.5824C16.8676 12.6538 16.8182 12.7198 16.7468 12.7692C16.6753 12.7747 16.6094 12.7692 16.5545 12.7527C16.4995 12.7363 16.472 12.6978 16.472 12.6374C16.472 12.4396 16.4995 12.2473 16.56 12.0549C16.5819 11.9835 16.6534 11.8077 16.7687 11.5275C16.7742 11.5879 16.7687 11.6703 16.7358 11.7802C16.6534 12.0494 16.6149 12.2033 16.6149 12.2418C16.6149 12.3516 16.6698 12.4231 16.7797 12.4615C16.8072 12.456 16.8347 12.4286 16.8567 12.3791C16.8786 12.3297 16.9061 12.3077 16.9336 12.3077ZM11.4611 7.43956C11.4611 7.66484 11.4226 7.88461 11.3512 8.08791C11.2797 8.29121 11.1643 8.46703 11.0105 8.60439C10.9006 8.62637 10.8072 8.60989 10.7248 8.55495C10.6424 8.5 10.5654 8.41209 10.494 8.2967C10.4446 8.09341 10.4171 7.87363 10.4171 7.63736C10.4171 7.23627 10.4995 6.82417 10.6698 6.40659C10.7962 6.09341 10.9995 5.71978 11.2852 5.28572C11.1039 5.67583 10.983 5.93956 10.9336 6.08791C10.8072 6.42307 10.7468 6.72527 10.7468 6.98901C10.7468 7.16483 10.7687 7.31869 10.8182 7.45055C10.8676 7.58242 10.9501 7.71428 11.0764 7.84615C11.1863 7.86263 11.2687 7.8022 11.3182 7.67033C11.3676 7.53846 11.4171 7.46154 11.4611 7.43956ZM17.1643 8.38462C16.9446 8.01099 16.7303 7.63736 16.516 7.26373C16.4061 7.3022 16.3237 7.37912 16.2687 7.5C16.2138 7.62088 16.1698 7.76373 16.1314 7.93406C16.1534 8.04945 16.2962 8.52198 16.56 9.35165C16.6643 9.68132 16.7303 9.96703 16.7687 10.2088C16.4665 10.489 16.0819 10.7637 15.6039 11.033C15.2028 11.2473 14.7962 11.4615 14.3951 11.6813C14.0819 11.8132 13.7632 11.9176 13.4501 11.989C13.1369 12.0604 12.8182 12.0989 12.494 12.0989C12.1259 12.0989 11.7907 12.0385 11.4775 11.9231C11.1643 11.8077 10.9006 11.6209 10.6808 11.3736C10.5545 11.2143 10.4665 11.0385 10.4116 10.8462C10.3567 10.6538 10.3292 10.4506 10.3292 10.2308C10.3292 9.98352 10.3567 9.73077 10.4116 9.47802C10.4665 9.22527 10.5325 8.97253 10.6149 8.71428C10.4336 9.15384 10.3237 9.42308 10.2852 9.52748C10.0929 10.0549 9.99951 10.533 9.99951 10.967C9.99951 11.3187 10.0929 11.6429 10.2742 11.9341C10.4556 12.2253 10.7028 12.4451 11.0105 12.5824C11.2523 12.6868 11.4885 12.7582 11.7138 12.8077C11.9391 12.8571 12.1753 12.8791 12.4171 12.8791C12.6808 12.8791 12.9611 12.8462 13.2632 12.7802C13.5654 12.7143 13.8402 12.6319 14.0984 12.5275C14.5325 12.3571 14.994 12.1154 15.494 11.7912C15.8731 11.544 16.3017 11.2363 16.7687 10.8681C16.8786 10.7198 16.9556 10.5549 16.9995 10.3736C17.0435 10.1923 17.0654 10 17.0654 9.8022C17.0654 9.56044 17.0325 9.3022 16.9611 9.02198C16.8896 8.74176 16.8072 8.48901 16.7138 8.25275C16.7578 8.22527 16.8292 8.24725 16.9281 8.31868C17.027 8.39011 17.1039 8.41209 17.1643 8.38462ZM13.5819 9.46154C13.5819 9.46154 13.549 9.48352 13.549 9.5V9.56044C13.4391 9.53846 13.3567 9.52748 13.3072 9.52748C13.2358 9.52748 13.1918 9.56594 13.1753 9.64836C13.1259 9.98352 13.0709 10.3187 13.0215 10.6484C12.9611 10.6044 12.8841 10.4615 12.7907 10.2253C12.6973 9.98901 12.5874 9.86813 12.472 9.86813C12.4446 9.86813 12.3896 9.88462 12.3182 9.91209C12.2687 9.86264 12.2413 9.8022 12.2413 9.73626C12.2413 9.68681 12.2523 9.62638 12.2797 9.56044C12.3072 9.49451 12.3347 9.43407 12.3621 9.37363C12.3676 9.34616 12.3951 9.32967 12.4391 9.33517C12.483 9.33517 12.5105 9.34615 12.516 9.35165C12.6094 9.46154 12.6973 9.5989 12.7687 9.75824C12.8402 9.91759 12.9171 10.0714 12.9885 10.2198C13.0325 9.99451 13.0819 9.76374 13.1314 9.52748C13.1753 9.39011 13.2468 9.28022 13.3512 9.1978C13.4006 9.21429 13.4611 9.23077 13.5325 9.25275C13.6039 9.27473 13.6369 9.31319 13.6369 9.36264C13.6369 9.37912 13.6204 9.41209 13.5819 9.46154ZM25.2413 3.45055L25.1424 3.39561L25.0435 3.32967C25.1589 3.26923 25.2248 3.29121 25.2413 3.39561V3.45055ZM22.0435 8.56044C21.516 8.86813 20.9885 9.17583 20.4611 9.48352C20.2413 9.5989 20.0435 9.68681 19.8622 9.73626C19.6808 9.78571 19.4885 9.81318 19.2852 9.81318C19.0819 9.81318 18.8841 9.78022 18.6698 9.71429C18.6698 9.67583 18.6589 9.57143 18.6314 9.39011C18.6039 9.2088 18.5929 9.07143 18.5929 8.96703C18.5929 8.83517 18.6149 8.71978 18.6534 8.62638C18.6918 8.53297 18.7632 8.45055 18.8676 8.38462C19.0435 8.25824 19.2138 8.17582 19.3786 8.13187C19.5435 8.08791 19.7303 8.06594 19.9336 8.06594C20.2468 8.06594 20.6973 8.15934 21.2852 8.34066C21.5929 8.43407 21.8457 8.51099 22.0435 8.56044Z" fill="currentColor"/>
</svg>
