<svg width="40" height="16" viewBox="0 0 40 16" fill="none" xmlns="http://www.w3.org/2000/svg">
<path fill-rule="evenodd" clip-rule="evenodd" d="M28.2053 8.02291C28.2261 8.21033 28.2469 8.43107 28.2636 8.68096C28.2844 8.93502 28.2927 9.15161 28.2927 9.3307C28.2927 9.6514 28.2719 9.95543 28.2261 10.2386C28.1803 10.5219 28.1095 10.8092 28.0095 11.0883C28.0095 10.3761 27.9637 9.59725 27.8679 8.7601C27.8096 8.23532 27.7013 7.46897 27.5472 6.46939C27.3723 5.35735 27.264 4.61183 27.2182 4.24115C27.239 4.1287 27.2806 4.01624 27.3431 3.89963C27.4056 3.78717 27.4722 3.67472 27.5389 3.5706C27.6596 3.84549 27.7804 4.11621 27.9095 4.39109C28.0428 4.71596 28.1303 5.01583 28.1678 5.29071C28.1428 5.2324 28.0886 5.16577 28.0137 5.0908C27.9387 5.01583 27.8804 4.96585 27.8471 4.93253C27.8471 5.37401 27.8846 5.86548 27.9637 6.41525C28.0387 6.96502 28.1178 7.49813 28.1969 8.01874L28.2053 8.02291ZM24.5568 4.5327C24.5235 4.64099 24.4985 4.72012 24.486 4.77426C24.4527 4.87422 24.4068 4.94086 24.3444 4.97418C24.2652 4.99917 24.1986 4.96585 24.1444 4.87422C24.132 4.84923 24.1111 4.80342 24.0861 4.74511C24.0861 4.57851 24.1028 4.4369 24.132 4.31612C24.1611 4.19534 24.2152 4.07872 24.2985 3.96627C24.3069 4.02041 24.2944 4.10787 24.2652 4.22449C24.2361 4.34111 24.2194 4.42857 24.2194 4.47439C24.2194 4.58684 24.2652 4.67014 24.361 4.72428C24.3943 4.71595 24.4193 4.69513 24.4402 4.65348C24.461 4.61183 24.4818 4.57435 24.4985 4.5327H24.5568ZM23.1865 4.18284C23.2448 4.30363 23.2781 4.44107 23.2781 4.59101C23.2781 4.78259 23.2282 4.93253 23.1282 5.03249L22.8783 4.91171C22.845 4.95752 22.8117 5.0075 22.7742 5.06165C22.7367 5.11579 22.6951 5.1491 22.6492 5.1616C22.6159 5.18242 22.5743 5.19076 22.5285 5.19076C22.4701 5.19076 22.4202 5.16577 22.3868 5.11162C22.3285 4.99917 22.2952 4.87422 22.2952 4.74094C22.2952 4.55352 22.341 4.38693 22.4368 4.24115C22.4493 4.26614 22.4576 4.30779 22.4576 4.36193C22.4576 4.41608 22.4576 4.47439 22.4493 4.54103C22.441 4.60767 22.441 4.64515 22.441 4.64931C22.441 4.77426 22.4785 4.86172 22.5493 4.90754C22.5951 4.89921 22.6451 4.89088 22.6992 4.87422C22.7534 4.85756 22.7908 4.82424 22.8075 4.77843C22.8075 4.73678 22.7992 4.67847 22.7867 4.59934C22.7742 4.5202 22.7659 4.45773 22.7659 4.40775C22.7659 4.2953 22.8033 4.21199 22.8741 4.15785C22.8991 4.20366 22.9158 4.26614 22.9158 4.33695C22.9075 4.42857 22.9075 4.49521 22.9075 4.53686C22.9075 4.68263 22.9866 4.7576 23.149 4.7576C23.1615 4.71595 23.1574 4.64931 23.1282 4.54935C23.1032 4.4494 23.0866 4.38276 23.0866 4.34944C23.0866 4.27031 23.1199 4.212 23.1865 4.17868V4.18284ZM22.7659 3.89129C22.8242 3.83715 22.8575 3.77884 22.8575 3.71221C22.8575 3.62474 22.8033 3.54977 22.6992 3.48313C22.7117 3.43732 22.7284 3.38734 22.745 3.3332C22.7617 3.27905 22.7659 3.23324 22.7617 3.19159C22.7617 3.06664 22.72 3 22.6326 3C22.5743 3 22.4993 3.03332 22.4118 3.09996C22.3244 3.1666 22.2702 3.22491 22.2536 3.27072C22.2202 3.31237 22.2036 3.35402 22.2036 3.39984C22.2036 3.46647 22.2411 3.52895 22.3119 3.59143C22.3452 3.62475 22.4035 3.66639 22.4826 3.72054C22.2702 3.95377 21.987 4.19534 21.633 4.4494C21.4414 4.59101 21.1415 4.79509 20.7417 5.06997C21.0957 4.92836 21.4206 4.75344 21.7205 4.54103C22.0203 4.32862 22.3119 4.06622 22.5909 3.76218L22.77 3.89129H22.7659ZM23.6072 6.08205C23.5822 6.11537 23.5322 6.207 23.4656 6.35694C23.3989 6.50688 23.324 6.611 23.2448 6.67347C23.2115 6.63182 23.1199 6.58184 22.9699 6.5152C22.82 6.44856 22.745 6.38193 22.745 6.31529C22.745 6.28197 22.7659 6.23615 22.8033 6.17368L23.174 5.803L23.603 6.08205H23.6072ZM24.1986 6.70262C24.032 6.54852 23.8571 6.4444 23.6696 6.38193C23.4947 6.59434 23.3989 6.72345 23.3781 6.76093C23.3323 6.8359 23.299 6.9192 23.2781 7.01083L23.8196 7.30237C23.9445 7.10246 24.0736 6.90254 24.1986 6.70262ZM24.4485 8.05206C24.436 8.1312 24.4235 8.21033 24.4193 8.29363C24.3985 8.38526 24.3527 8.45606 24.2777 8.50187C24.1236 8.54352 24.0362 8.47689 24.007 8.30196C24.007 7.95627 24.1153 7.64806 24.3277 7.38151C24.3194 7.41483 24.2819 7.53978 24.2069 7.76052C24.1736 7.86048 24.1569 7.93545 24.1569 7.98959C24.1569 8.08122 24.1861 8.16035 24.2486 8.21866C24.2944 8.23115 24.3319 8.20616 24.3569 8.14369C24.3818 8.08122 24.4152 8.0479 24.4485 8.0479V8.05206ZM23.2073 6.84423C23.1157 6.79842 23.0157 6.7526 22.9158 6.70262C22.8158 6.65681 22.7159 6.62349 22.6159 6.60267C22.5701 6.66931 22.5035 6.76926 22.4202 6.89837C22.3369 7.02749 22.2911 7.13994 22.2869 7.23157C22.3744 7.27738 22.466 7.3232 22.5618 7.37318C22.6576 7.41899 22.7492 7.44399 22.8367 7.44399C22.9241 7.36902 22.9949 7.27738 23.0574 7.16493C23.0907 7.09829 23.1407 6.99001 23.2073 6.84423ZM21.4289 3.59559C21.3831 3.7372 21.2165 3.84132 20.9291 3.91212C20.6417 3.98292 20.4668 4.03707 20.4002 4.07872C19.159 4.48688 17.9262 4.89088 16.6934 5.29904C16.7725 5.0908 16.9016 4.96585 17.0724 4.92003C17.7513 4.67847 18.6551 4.39525 19.7796 4.07039C20.521 3.85798 21.0707 3.69971 21.4289 3.59975V3.59559ZM21.1582 6.33611L21.0999 6.56519C21.0249 6.5402 20.9624 6.5152 20.9083 6.49438C20.8542 6.47355 20.8042 6.46939 20.7584 6.48605C20.6501 6.85256 20.5501 7.21491 20.4502 7.57726C20.4085 7.54394 20.3252 7.38984 20.2003 7.11912C20.1086 6.91087 19.9712 6.81091 19.7921 6.81091C19.738 6.7776 19.713 6.72345 19.713 6.65265C19.713 6.61933 19.7213 6.58184 19.7338 6.54436C19.7463 6.50687 19.7629 6.45273 19.7838 6.39442C19.8587 6.31945 19.9045 6.28613 19.9254 6.28613C19.9504 6.28613 19.9754 6.29863 19.9962 6.32778C20.0753 6.41941 20.1586 6.55685 20.2461 6.73594C20.3127 6.88172 20.3835 7.02749 20.4543 7.16493C20.496 6.99833 20.5335 6.83174 20.5751 6.66514C20.6334 6.47772 20.7167 6.33195 20.825 6.22366C20.9499 6.19867 21.0666 6.23615 21.1665 6.34444L21.1582 6.33611ZM16.4185 4.38692C16.3935 4.53269 16.3769 4.62016 16.3685 4.64515C16.3352 4.73262 16.2811 4.80342 16.2103 4.86589C16.1436 4.88672 16.0936 4.86172 16.0603 4.79092C16.027 4.72012 16.0062 4.67431 16.002 4.65765C16.002 4.47855 16.0187 4.32029 16.0478 4.18284C16.077 4.0454 16.1311 3.91628 16.2144 3.78717C16.2228 3.84132 16.2144 3.90379 16.2061 3.97876C16.1603 4.1995 16.1353 4.32028 16.1353 4.34944C16.1353 4.40358 16.1436 4.4494 16.1644 4.49105C16.1853 4.53269 16.2228 4.56185 16.2852 4.58267C16.306 4.57018 16.3269 4.53686 16.3435 4.48272C16.3644 4.42858 16.3893 4.39942 16.4227 4.39109L16.4185 4.38692ZM18.4676 7.09413C18.4926 7.14827 18.4968 7.21075 18.4718 7.28988C18.4468 7.36901 18.4135 7.43982 18.3677 7.50646C18.3219 7.59392 18.2552 7.63557 18.1678 7.63557C18.1345 7.63557 18.1053 7.62307 18.0761 7.59392C18.0512 7.53977 18.0303 7.4773 18.0178 7.40233C18.0053 7.32736 17.997 7.25656 17.997 7.18159C17.997 7.03999 18.0137 6.91087 18.0512 6.78593C18.0886 6.66098 18.1386 6.53603 18.2053 6.40275C18.1636 6.61516 18.1303 6.82757 18.097 7.03166C18.097 7.11079 18.1053 7.17326 18.122 7.21491C18.1386 7.25656 18.1719 7.30654 18.2261 7.36068C18.2844 7.36068 18.3344 7.33153 18.3677 7.26905C18.401 7.20658 18.4343 7.14827 18.4676 7.08996V7.09413ZM26.1228 5.37402C25.8812 4.76177 25.6438 4.14536 25.4023 3.52479C25.3023 3.63724 25.2273 3.74136 25.1815 3.83299C25.1065 3.96626 25.0732 4.09121 25.0732 4.20366C25.1732 4.69096 25.2731 5.1741 25.3689 5.65723C25.4647 6.14036 25.5605 6.64848 25.648 7.17742C25.7354 7.70637 25.8146 8.19367 25.8729 8.64348C25.8729 8.72261 25.8854 8.8434 25.9145 9.00167C25.9395 9.15993 25.9562 9.28072 25.9562 9.35985C25.9562 9.4848 25.9312 9.59725 25.8854 9.68888C25.7396 9.81383 25.5439 9.88047 25.294 9.88047C25.1274 9.88047 24.9691 9.85131 24.815 9.78884C24.715 9.71387 24.6567 9.66806 24.6359 9.64723C24.5776 9.58892 24.5443 9.52644 24.5443 9.46814C24.5443 9.44315 24.5484 9.414 24.5609 9.38901C24.5693 9.36402 24.5818 9.34319 24.5943 9.3307C24.5359 9.37651 24.461 9.50562 24.3694 9.71387C24.2777 9.92212 24.1653 10.0471 24.0237 10.0887C23.9445 10.1012 23.8821 10.1095 23.8446 10.1095C23.6655 10.1095 23.5197 10.0512 23.4156 9.93877C23.3698 9.89296 23.3448 9.83881 23.3448 9.78051C23.3448 9.76801 23.3573 9.69721 23.3864 9.57226C23.3948 9.52644 23.3948 9.4848 23.3948 9.45148C23.3156 9.55977 23.2365 9.65973 23.1657 9.75969C22.9991 9.98459 22.8408 10.1345 22.6867 10.2012C22.6617 10.2095 22.6242 10.2178 22.5784 10.2262C22.5326 10.2345 22.491 10.2428 22.4576 10.2428C22.2369 10.2428 22.0328 10.1512 21.8496 9.96376C21.8038 9.92211 21.7788 9.8763 21.7788 9.82216C21.7996 9.74302 21.8204 9.67222 21.8371 9.61391C21.8579 9.5556 21.8621 9.50146 21.8454 9.45564C21.7538 9.48063 21.508 9.67638 21.1165 10.0346C20.9499 10.1803 20.7917 10.2845 20.6376 10.3428C20.4585 10.4344 20.2627 10.4844 20.0587 10.4844C19.8254 10.4844 19.6005 10.4386 19.3881 10.3428C19.1757 10.2511 18.9758 10.1179 18.7883 9.94294C18.9549 9.83049 19.2673 9.73469 19.7296 9.66389C20.471 9.55143 20.8375 9.26822 20.8375 8.81424C20.4835 8.62682 20.1003 8.48938 19.6838 8.39775C19.2673 8.30612 18.8258 8.26447 18.3594 8.26447C17.9179 8.26447 17.4597 8.30613 16.9808 8.39359C16.7933 8.43524 16.6767 8.58517 16.6267 8.8434C16.5768 9.10162 16.5518 9.23907 16.5518 9.25156L16.86 9.13078C17.0349 9.18909 17.1765 9.25573 17.289 9.32237C17.4431 9.41399 17.5639 9.52228 17.6597 9.64307C17.0349 9.90962 16.4685 10.1887 15.9604 10.4844C15.6813 10.651 15.4314 10.8176 15.2107 10.9842C15.0316 11.1258 14.8025 11.309 14.5318 11.5423C14.132 11.8963 13.907 12.0962 13.8529 12.142C13.6072 12.3419 13.3656 12.5169 13.1324 12.6626C13.1115 12.6626 13.0782 12.671 13.0324 12.6835H12.9325C12.845 12.6835 12.7659 12.6668 12.6992 12.6376C12.6284 12.6085 12.5659 12.5585 12.516 12.4919C12.4618 12.4252 12.4285 12.3586 12.4118 12.2961C12.3952 12.2337 12.3869 12.1462 12.3869 12.0296C12.3869 11.8963 12.4077 11.7547 12.4535 11.6006C12.4951 11.4465 12.5451 11.3174 12.5993 11.2091C12.4868 11.3882 12.4077 11.5964 12.3577 11.8297C12.3369 11.9546 12.316 12.0879 12.2994 12.2212C12.3244 12.4211 12.3702 12.5793 12.4285 12.7001C12.516 12.8667 12.6326 12.9667 12.7784 13C12.8658 12.9917 12.9991 12.9792 13.1782 12.9583C13.324 12.9334 13.4364 12.8834 13.5197 12.8084C13.8862 12.4835 14.2402 12.192 14.5776 11.9379C14.9441 11.6631 15.3148 11.4215 15.6938 11.2049C16.0686 10.9883 16.456 10.7926 16.8517 10.6135C17.2473 10.4386 17.6597 10.2803 18.0845 10.1387C18.3385 10.4469 18.6051 10.6885 18.8883 10.8717C19.1715 11.055 19.4839 11.1674 19.8212 11.2049C20.1628 11.2049 20.4751 11.1133 20.7625 10.9342C21.0083 10.7801 21.254 10.551 21.4914 10.2428C21.5039 10.3303 21.5205 10.4177 21.5414 10.501C21.708 10.7884 21.9662 10.93 22.3119 10.93C22.4327 10.93 22.5534 10.8925 22.6826 10.8134C22.8075 10.7384 22.9533 10.601 23.1115 10.4094L23.2532 10.6593C23.3739 10.7593 23.5239 10.8092 23.703 10.8092C23.7904 10.8092 23.8487 10.8009 23.8821 10.7884C24.0153 10.7676 24.1236 10.6926 24.2028 10.5594C24.2486 10.4844 24.311 10.3678 24.3943 10.2012C24.4193 10.2761 24.4568 10.3303 24.5026 10.3678C24.5484 10.4052 24.6526 10.4636 24.8108 10.5427C24.8566 10.551 24.9233 10.5594 25.0108 10.5677C25.0982 10.576 25.1773 10.5843 25.2523 10.5843C25.4064 10.5843 25.5397 10.5635 25.6522 10.5177C25.7646 10.476 25.8604 10.4011 25.9437 10.2928C26.0437 10.0346 26.1103 9.79717 26.1478 9.58892C26.1853 9.38068 26.2019 9.13911 26.2019 8.86422C26.2019 8.68929 26.1936 8.49771 26.1728 8.28947C26.1519 8.08122 26.1311 7.8938 26.102 7.73553C25.9895 7.19409 25.8771 6.65681 25.7604 6.11537C25.7021 5.78218 25.6688 5.46148 25.6688 5.15744C25.7021 5.0783 25.7354 5.03665 25.7688 5.03665C25.7938 5.03665 25.8479 5.0908 25.9229 5.20325C25.9978 5.31154 26.0686 5.36985 26.127 5.36985L26.1228 5.37402ZM18.805 5.62391C18.3177 5.76968 17.8221 5.92378 17.3098 6.07788C16.8017 6.23615 16.3352 6.39026 15.9145 6.54436C15.8396 6.56518 15.7771 6.60683 15.723 6.66931C15.6688 6.73178 15.6272 6.80258 15.5938 6.88588C16.1186 6.66514 16.6226 6.47772 17.1016 6.32778C17.3265 6.25281 17.8387 6.10287 18.6301 5.86964L18.73 5.76968C18.7883 5.71137 18.8133 5.6614 18.8008 5.62808L18.805 5.62391ZM23.8737 11.3632C23.8321 11.5173 23.7946 11.6256 23.7529 11.6922C23.6946 11.8005 23.6072 11.8713 23.4947 11.913C23.4489 11.913 23.3864 11.9213 23.3156 11.9421C23.1407 11.9879 23.0324 12.0129 22.9866 12.0129C22.8658 12.0129 22.7659 11.9546 22.6867 11.8338C22.4785 11.888 22.2577 11.9754 22.0162 12.092C21.9245 12.1379 21.7121 12.2545 21.3873 12.4419C21.1207 12.596 20.9083 12.7043 20.7459 12.7709C20.5126 12.8709 20.2794 12.9334 20.0462 12.9625C20.2586 12.8834 20.4876 12.7709 20.7375 12.6335C20.9166 12.5335 21.129 12.4086 21.3664 12.2545C21.6913 12.0546 21.9537 11.9046 22.1453 11.8088C22.3369 11.713 22.5201 11.6381 22.6951 11.5839C22.77 11.5756 22.8575 11.6131 22.9658 11.688C23.0741 11.763 23.1532 11.8047 23.2073 11.813C23.2282 11.7547 23.2532 11.688 23.2823 11.6214C23.3115 11.5548 23.3489 11.5048 23.3989 11.4715L23.4197 11.6506C23.4739 11.6631 23.5114 11.6714 23.528 11.6714C23.603 11.6714 23.6572 11.6506 23.6946 11.6047C23.7321 11.5631 23.7738 11.4965 23.8196 11.409C23.8196 11.3882 23.8404 11.3715 23.8779 11.359L23.8737 11.3632ZM13.299 4.1162L13.2282 4.30779C13.1365 4.2828 13.0616 4.26614 13.0074 4.26614C12.9491 4.26614 12.9033 4.29113 12.8783 4.34528C12.82 4.65348 12.7617 4.95335 12.7075 5.25323C12.6409 5.20741 12.5701 5.0783 12.4993 4.87006C12.4243 4.66181 12.3369 4.55352 12.2286 4.55352C12.1828 4.55352 12.1411 4.56185 12.1078 4.57434C12.0328 4.54102 11.9995 4.48272 11.9995 4.40359C11.9995 4.36194 12.0078 4.32028 12.0203 4.2703C12.0328 4.22033 12.0453 4.17035 12.062 4.1162C12.0953 4.06206 12.137 4.03707 12.1911 4.03707C12.2327 4.03707 12.2661 4.04957 12.2911 4.07872C12.3702 4.17035 12.4493 4.31612 12.5326 4.51187C12.6118 4.70762 12.6742 4.83674 12.7117 4.89504C12.7367 4.6868 12.77 4.51604 12.8075 4.37443C12.845 4.23282 12.9075 4.10787 12.9908 3.99542C13.0324 3.98709 13.0824 3.99126 13.1449 3.99959C13.2073 4.00792 13.2615 4.04957 13.299 4.1162ZM15.2773 5.54477C15.2232 5.53644 15.169 5.48647 15.1107 5.39067C15.0524 5.29488 15.0108 5.23657 14.9774 5.21575L14.8483 5.39483C14.9691 6.24032 15.0899 7.0858 15.219 7.93544C15.2398 8.15619 15.2482 8.37276 15.2482 8.58517C15.2482 8.91837 15.2148 9.2349 15.1524 9.53478C15.0899 9.83465 14.9858 10.1179 14.8483 10.3844C14.9066 10.0096 14.94 9.64723 14.94 9.29321C14.94 8.80591 14.89 8.27281 14.79 7.68971C14.6901 7.10662 14.5901 6.51104 14.4901 5.90713C14.3902 5.29905 14.3402 4.77426 14.3402 4.32861C14.3152 4.27447 14.2986 4.21616 14.2986 4.14952C14.2986 4.03707 14.3235 3.92878 14.3777 3.82466C14.4318 3.72054 14.5026 3.62474 14.5984 3.52895C14.7192 3.7955 14.84 4.1287 14.9691 4.52853C15.0691 4.87006 15.1732 5.20742 15.2773 5.54894V5.54477ZM13.2573 5.43649C13.224 5.57809 13.149 5.69471 13.0282 5.79051C12.9075 5.8863 12.7742 5.95294 12.6284 5.98626L12.5993 5.94461C12.6409 5.89879 12.7117 5.85298 12.82 5.803C12.9283 5.75302 13.0033 5.70304 13.0491 5.64473C12.9699 5.63224 12.9116 5.61974 12.8741 5.61558C12.8367 5.60725 12.7867 5.60725 12.72 5.60725C12.5326 5.60725 12.391 5.65723 12.2911 5.75719C12.2661 5.71137 12.2744 5.65723 12.3202 5.60308C12.366 5.54477 12.4118 5.49063 12.4618 5.43649C12.6159 5.39067 12.7534 5.36568 12.87 5.36568C13.0033 5.36568 13.1324 5.39067 13.2615 5.43649H13.2573ZM19.1465 11.813C18.9591 12.0587 18.705 12.2378 18.376 12.3419C18.2219 12.3961 18.0428 12.4211 17.8346 12.4211C17.668 12.4211 17.5264 12.4044 17.4056 12.3711C17.314 12.3169 17.264 12.242 17.264 12.142C17.264 12.0962 17.2723 12.0504 17.2931 12.0129C17.3848 11.8796 17.4847 11.7505 17.5847 11.6214C17.4931 11.5756 17.4139 11.5173 17.3556 11.4506C17.3806 11.359 17.4306 11.2716 17.5014 11.1966C17.5722 11.1216 17.6597 11.0466 17.7679 10.9717C17.8887 10.9467 17.9595 10.98 17.9887 11.0716C17.9804 11.105 17.972 11.1299 17.9595 11.1508C17.8929 11.2049 17.8512 11.2424 17.8304 11.2591C17.7638 11.1924 17.7013 11.1674 17.6388 11.1799L17.568 11.2382C17.6263 11.3507 17.7305 11.409 17.8762 11.409C17.9304 11.409 17.972 11.4007 18.0053 11.3882C18.0387 11.3757 18.0886 11.3549 18.1511 11.3215C18.2136 11.2924 18.2719 11.2757 18.326 11.2757C18.2802 11.4007 18.1261 11.5173 17.8596 11.6214C17.5972 11.7255 17.4639 11.8713 17.4639 12.0546C17.6222 12.1462 17.8054 12.1962 18.0137 12.1962C18.1928 12.1962 18.3802 12.1587 18.5801 12.0879C18.7759 12.0129 18.9633 11.9213 19.1465 11.8088V11.813ZM13.2573 7.30654C13.2573 7.42733 13.2407 7.52728 13.2073 7.60642C13.174 7.68555 13.1157 7.74802 13.0282 7.78551C12.8533 7.78551 12.7534 7.69388 12.7284 7.50646C12.7284 7.31487 12.7617 7.12745 12.8242 6.95252C12.8866 6.77759 12.9741 6.60267 13.0907 6.42774C13.0033 6.6818 12.92 6.93169 12.8408 7.17742C12.8408 7.31903 12.9033 7.42732 13.0324 7.50646C13.0866 7.51479 13.124 7.49396 13.149 7.44815C13.174 7.40233 13.199 7.35652 13.224 7.30654H13.2657H13.2573ZM14.6359 9.31403C14.5235 9.50562 14.3652 9.67638 14.1653 9.82216C14.0112 9.94294 13.8071 10.0596 13.5489 10.172C13.2906 10.2845 13.0949 10.3719 12.9533 10.4302C12.6992 10.5385 12.4951 10.6385 12.3452 10.7384C12.3452 10.6302 12.4035 10.5219 12.5243 10.4136C12.6451 10.3053 12.7617 10.197 12.8741 10.097C12.7075 10.0221 12.6034 9.9721 12.5659 9.94711C12.4452 9.87214 12.366 9.78051 12.3244 9.66806C12.4993 9.32653 12.6492 9.07664 12.7742 8.91837C12.9991 8.62682 13.2323 8.47689 13.4656 8.47689C13.578 8.47689 13.6946 8.51853 13.8154 8.59767C13.8737 8.63932 13.907 8.6893 13.907 8.75594C13.907 8.81008 13.8821 8.86839 13.8362 8.93502C13.7696 9.00999 13.7155 9.06831 13.678 9.10996C13.6405 9.15161 13.5988 9.19325 13.5614 9.23074C13.5239 9.26822 13.4822 9.29321 13.4364 9.3057C13.4031 9.23906 13.3614 9.1766 13.3073 9.12245C13.2532 9.06414 13.1948 9.03915 13.1282 9.03915C13.0616 9.03915 13.0074 9.04748 12.9616 9.05997C12.92 9.07247 12.8783 9.10162 12.8367 9.13911C12.9283 9.29321 13.0616 9.4015 13.2365 9.46397C13.4114 9.52645 13.5988 9.55976 13.8071 9.55976C13.907 9.55976 14.0528 9.52228 14.2402 9.44315C14.4318 9.36818 14.5609 9.32237 14.6359 9.30987V9.31403ZM22.5409 3.40817C22.5076 3.39567 22.4743 3.37901 22.441 3.35818C22.4077 3.33736 22.4035 3.31238 22.4327 3.27906C22.4785 3.27073 22.516 3.29155 22.5409 3.33736V3.40817ZM19.3923 9.08496L18.3011 9.42649L17.9804 8.9975C18.0345 8.9975 18.3302 9.02249 18.8716 9.06831C19.0257 9.0808 19.1965 9.08913 19.3923 9.08913V9.08496Z" fill="currentColor"/>
</svg>
