<svg width="40" height="16" viewBox="0 0 40 16" fill="none" xmlns="http://www.w3.org/2000/svg">
<path fill-rule="evenodd" clip-rule="evenodd" d="M29.7742 5.24065C29.6636 5.07908 29.5573 4.91326 29.4468 4.7517L29.315 4.92602L29.5276 8.86309C29.5276 9.26275 29.4936 9.6284 29.4298 9.96004C29.366 10.2917 29.2555 10.6063 29.0981 10.9039C29.1534 10.6658 29.1917 10.4277 29.2087 10.1896C29.2299 9.95152 29.2385 9.67942 29.2385 9.3733V8.82057C29.2172 8.67176 29.2044 8.56122 29.1959 8.4932L28.9111 4.22874C28.9238 4.17347 28.9323 4.1352 28.9323 4.10544C28.9323 4.05867 28.9238 3.9949 28.9026 3.92262C28.8813 3.84609 28.8728 3.79507 28.8728 3.76105C28.8728 3.69302 28.8983 3.62925 28.9536 3.56548C28.9748 3.54422 29.0089 3.48894 29.0556 3.3954C29.1024 3.30187 29.1577 3.2551 29.2172 3.2466C29.2597 3.41667 29.3405 3.66326 29.4638 3.98214C29.6679 4.51786 29.7699 4.93877 29.7699 5.23639L29.7742 5.24065ZM26.4281 3.94388C26.3813 3.99915 26.3345 4.05442 26.2963 4.10544C25.8328 4.48809 25.5352 4.67517 25.3992 4.67517C25.3779 4.67517 25.3652 4.66667 25.3567 4.64966C25.3481 4.63265 25.3567 4.60714 25.3652 4.57313C25.4417 4.3903 25.5947 4.25 25.8328 4.15646C26.0284 4.08844 26.2282 4.01616 26.4238 3.94388H26.4281ZM26.1645 4.81973C26.241 4.95578 26.275 5.10034 26.275 5.25765C26.275 5.41496 26.2325 5.55102 26.1432 5.64456C26.0879 5.61905 26.0369 5.60204 25.9902 5.60204C25.9306 5.60204 25.8626 5.6233 25.7946 5.66156C25.6373 5.7551 25.5182 5.78912 25.4374 5.76361C25.3567 5.70833 25.3141 5.62755 25.3141 5.51701C25.3141 5.45748 25.3311 5.36394 25.3694 5.2449C25.4077 5.12585 25.4289 5.04507 25.4374 5.0068L25.5097 4.98554C25.5225 5.02806 25.5182 5.09184 25.4885 5.18112C25.4629 5.27041 25.4459 5.32993 25.4459 5.36394C25.4459 5.43197 25.4799 5.48299 25.548 5.51701C25.6713 5.51701 25.7351 5.42772 25.7436 5.2449C25.7521 5.06633 25.7861 4.95578 25.8541 4.91326C25.8669 4.93452 25.8754 4.97279 25.8754 5.03656C25.8669 5.12585 25.8669 5.18963 25.8669 5.23214C25.8669 5.35544 25.9264 5.41072 26.0412 5.39371H26.122C26.1432 5.33844 26.139 5.26615 26.1177 5.16836C26.0922 5.07483 26.0837 5.01531 26.0837 4.99405C26.0837 4.91752 26.1092 4.85799 26.1645 4.81122V4.81973ZM26.0837 6.61394C26.0837 6.61394 25.9902 6.72874 25.8711 6.89881C25.7818 7.02211 25.6925 7.08163 25.6075 7.08163C25.5862 7.08163 25.5565 7.07313 25.514 7.06037L25.1356 6.81377C25.0335 6.96258 24.9315 7.07738 24.8294 7.15391C24.7274 7.23044 24.6169 7.27296 24.5021 7.27296C24.3788 7.27296 24.2512 7.21344 24.1152 7.09014C24.1152 6.9966 24.1492 6.8988 24.2172 6.80101C24.2852 6.70323 24.3745 6.60969 24.4808 6.5204C24.5148 6.5204 24.6509 6.57143 24.889 6.67347C24.991 6.71599 25.0718 6.72874 25.1356 6.71599C25.1908 6.63521 25.2461 6.55017 25.2971 6.46088C25.3652 6.3716 25.4374 6.29932 25.5097 6.23554C25.6543 6.29082 25.7648 6.34183 25.8498 6.39285C25.9349 6.44388 26.0114 6.51615 26.0794 6.61394H26.0837ZM20.3099 3.15306C20.3099 3.32313 20.2163 3.46768 20.025 3.58248C20.0123 3.59098 19.8422 3.65901 19.5148 3.79507C19.5573 3.73979 19.6211 3.68453 19.7104 3.63351C19.9485 3.49745 20.0803 3.41667 20.1101 3.38691C20.008 3.35289 19.8975 3.33588 19.7827 3.33588C19.6679 3.33588 19.5616 3.35714 19.468 3.3954C19.4936 3.28486 19.5446 3.21259 19.6169 3.17432C19.6891 3.13606 19.7827 3.11905 19.8975 3.11905C19.974 3.11905 20.042 3.11905 20.1101 3.12755C20.1781 3.13606 20.2461 3.1403 20.3141 3.14881L20.3099 3.15306ZM22.9417 5.6318L22.8822 5.82738C22.8481 5.84013 22.7971 5.82738 22.7291 5.78486C22.6611 5.74235 22.6186 5.72534 22.5973 5.72534C22.5633 5.72534 22.5378 5.75935 22.5165 5.82738C22.474 6.18877 22.4442 6.40561 22.423 6.47364C22.4017 6.54592 22.3592 6.63946 22.2912 6.75425C22.2487 6.72024 22.1594 6.57568 22.0148 6.32483C21.9128 6.142 21.7852 6.06123 21.6279 6.07823C21.5811 6.05272 21.5556 6.0017 21.5556 5.93367C21.5556 5.90816 21.5556 5.8784 21.5641 5.84864C21.5726 5.81888 21.5769 5.78912 21.5854 5.76361C21.6322 5.70833 21.6789 5.65306 21.73 5.60204C21.8235 5.64881 21.9213 5.7551 22.0148 5.91667C22.1849 6.21003 22.3039 6.33333 22.372 6.28231C22.372 6.02295 22.389 5.84438 22.423 5.74659C22.457 5.64881 22.5208 5.55102 22.6186 5.45748C22.6781 5.44898 22.7376 5.46599 22.7929 5.5C22.8609 5.55953 22.9119 5.60629 22.9459 5.6318H22.9417ZM24.4425 8.31462C24.4213 8.44217 24.3958 8.54421 24.3618 8.62074C24.3277 8.69727 24.2725 8.75681 24.2002 8.80357C24.0981 8.79082 24.0216 8.73555 23.9748 8.64201C23.9663 8.58674 23.9663 8.54847 23.9663 8.5187C23.9663 8.35714 24.0089 8.21258 24.0896 8.08928V8.3529C24.0896 8.46769 24.1407 8.53997 24.2427 8.56548C24.2767 8.55273 24.3065 8.50594 24.3362 8.43367C24.3618 8.35713 24.4 8.31888 24.4468 8.31038L24.4425 8.31462ZM27.6271 5.01956C27.593 4.73469 27.5123 4.42857 27.389 4.10544C27.2614 3.78231 27.1381 3.47194 27.0148 3.17007C26.9213 3.22959 26.849 3.32738 26.8022 3.45493C26.7555 3.58248 26.7087 3.71003 26.6704 3.83333C26.7597 4.34353 26.8405 4.93878 26.917 5.61905C26.9638 6.01446 27.0276 6.60545 27.0998 7.39626C27.1764 8.18708 27.2359 8.79507 27.2827 9.22449C27.2274 9.27976 27.1721 9.32228 27.1211 9.35629C27.1126 9.36479 27.0191 9.41582 26.8362 9.50936C26.815 9.51786 26.7767 9.53061 26.7257 9.55186H26.5641C26.3175 9.55186 26.1007 9.46684 25.9094 9.29677C25.8626 9.20749 25.8371 9.10119 25.8371 8.96938C25.8371 8.8801 25.8371 8.81633 25.8456 8.77381C25.6543 8.80782 25.3864 8.98214 25.0378 9.29252C24.7231 9.57738 24.4553 9.72194 24.23 9.72194C24.1747 9.72194 24.1152 9.71343 24.0471 9.70068C23.9791 9.68792 23.9196 9.66667 23.8728 9.64116C23.4434 9.30102 22.9119 8.80782 22.2827 8.16156C21.4111 7.26871 20.9136 6.76276 20.7818 6.63946C20.2036 6.08674 19.6509 5.64456 19.1194 5.31293C19.0939 5.29167 19.0769 5.27041 19.0769 5.2534C19.0769 5.22789 19.1109 5.17687 19.1789 5.10884C19.8039 4.892 20.2759 4.73044 20.599 4.6284C21.0964 4.47109 21.5811 4.33078 22.0573 4.20323C22.5335 4.07568 23.0395 3.96088 23.5794 3.85034C23.7027 3.82908 23.8856 3.79932 24.1237 3.75255C24.366 3.71004 24.5786 3.68452 24.7614 3.68452C24.923 3.68452 25.0845 3.70578 25.2419 3.74405C25.2759 3.77806 25.2929 3.82483 25.2929 3.8886C25.2929 3.94388 25.2844 3.99915 25.2716 4.05017C25.0123 4.33078 24.7529 4.60714 24.4978 4.88776C24.2002 5.21514 23.9578 5.49574 23.775 5.73384C23.5284 6.04847 23.3371 6.33758 23.1925 6.60118C23.3754 6.33758 23.7027 5.97194 24.1662 5.50425C24.6296 5.03656 24.9485 4.69218 25.1186 4.46684C25.4332 4.05867 25.6245 3.64626 25.701 3.23384C25.667 3.14031 25.6118 3.07653 25.5395 3.04677C25.4629 3.01701 25.3737 3 25.2631 3C25.2036 3 25.1526 3 25.1101 3.00851C24.1662 3.00851 23.1245 3.17432 21.9893 3.5102C21.0242 3.83758 20.059 4.16071 19.0896 4.47959C18.8941 4.61564 18.7538 4.80697 18.673 5.04932C18.6177 5.21938 18.5922 5.44898 18.5922 5.73384C18.775 5.96343 19.0854 6.29507 19.5276 6.72874C19.9655 7.16242 20.2801 7.48555 20.4714 7.70239C20.8031 8.07654 21.0582 8.42943 21.2368 8.76531C21.224 8.86735 21.156 8.94813 21.0369 9.00341C20.9179 9.06293 20.8031 9.11395 20.6968 9.16072C20.5862 8.92262 20.4204 8.72279 20.1951 8.56548C19.9697 8.40392 19.7274 8.32737 19.4723 8.32737C19.3703 8.37414 19.2852 8.42092 19.2214 8.47194C19.1577 8.51871 19.0981 8.58248 19.0429 8.65476C19.0429 8.66327 18.9834 8.81633 18.8601 9.12245C18.7835 9.31378 18.7495 9.47108 18.7495 9.60288C18.7495 9.68367 18.7623 9.75595 18.7835 9.82398C18.809 9.88776 18.843 9.95578 18.8898 10.0238C19.0471 10.1344 19.2342 10.1854 19.451 10.1854C19.5956 10.1854 19.7572 10.1641 19.9357 10.1173C20.1143 10.0748 20.2844 10.0323 20.4417 9.98979L20.4629 10.1726C20.1441 10.4872 19.8252 10.7976 19.5148 11.1122C19.1279 11.4779 18.7835 11.75 18.4859 11.9201C18.0777 12.1497 17.6738 12.2687 17.2699 12.2687C17.1466 12.2687 17.0191 12.2602 16.883 12.2389C16.7342 12.1454 16.6279 12.0349 16.5726 11.9158C16.5131 11.7968 16.4876 11.665 16.4876 11.5247C16.4876 11.3673 16.5429 11.1165 16.6577 10.7636C16.7682 10.415 16.8277 10.1514 16.8277 9.98129C16.8277 9.92177 16.8277 9.87075 16.8192 9.83673C16.8107 9.82823 16.798 9.83673 16.7767 9.84523C16.7555 9.99404 16.6534 10.3427 16.4706 10.8869C16.326 11.3163 16.258 11.665 16.258 11.9371C16.258 12.0986 16.2835 12.2602 16.3303 12.4133C16.3771 12.5663 16.4578 12.7109 16.5641 12.8469C16.8235 12.949 17.0658 13 17.2869 13C17.508 13 17.7376 12.9575 17.9459 12.8767C18.1543 12.7959 18.3669 12.6811 18.5837 12.5281C19.1407 12.0179 19.7019 11.5077 20.2674 10.9975C20.4374 10.8401 20.5905 10.5808 20.7266 10.2109C20.8201 9.96429 20.8881 9.80273 20.9306 9.72194C21.1815 9.65392 21.3558 9.46258 21.4493 9.1522C21.4961 8.98214 21.5684 8.72704 21.6619 8.3869C22.0276 8.77381 22.4017 9.16071 22.7759 9.53911C23.2095 9.98129 23.6177 10.2832 23.9919 10.449C24.0174 10.4575 24.0599 10.4575 24.1152 10.4575C24.3618 10.4575 24.6084 10.3469 24.8592 10.1301C25.0548 9.92602 25.2546 9.72194 25.4502 9.51786C25.5055 9.49235 25.5522 9.47534 25.5947 9.47534C25.65 9.47534 25.6798 9.56037 25.6883 9.73044C25.6968 9.90051 25.7478 10.0026 25.8413 10.0366C26.0242 10.1641 26.2325 10.2321 26.4621 10.2321C26.6534 10.2321 26.8192 10.1896 26.9638 10.1088C27.2019 10.0153 27.355 9.81548 27.423 9.51786C27.457 9.35629 27.4995 9.09694 27.5463 8.74404L27.1806 4.76445L27.3039 4.61139C27.3039 4.61139 27.3932 4.71769 27.508 4.88776C27.5505 4.94728 27.5973 4.98979 27.6526 5.01105L27.6271 5.01956ZM17.1381 3.82483L17.0786 4.03742C17.0318 4.02891 16.9766 3.9949 16.9085 3.93112C16.8447 3.86735 16.7937 3.82908 16.7597 3.82483C16.747 4.16497 16.7342 4.44983 16.7172 4.68367C16.7044 4.91326 16.6322 5.10459 16.5046 5.2534C16.4451 5.15986 16.3771 5.02381 16.309 4.85374C16.2197 4.6284 16.1645 4.49234 16.1347 4.44558L16.0752 4.53911C16.0072 4.4966 15.9476 4.45408 15.8924 4.41156C15.8371 4.36904 15.7818 4.30952 15.718 4.2415C15.718 4.16497 15.7308 4.09694 15.7606 4.02891C15.7861 3.96088 15.8201 3.89286 15.8541 3.82483C16.0497 3.90561 16.2197 4.11819 16.3643 4.45833C16.4323 4.61989 16.5004 4.78571 16.5684 4.94728C16.5811 4.90476 16.5939 4.67517 16.6109 4.25C16.6237 3.82483 16.6874 3.61225 16.8065 3.61225C16.8533 3.61225 16.9 3.62925 16.951 3.65901C16.9978 3.68878 17.0616 3.74405 17.1466 3.82908L17.1381 3.82483ZM22.576 11.091C22.5633 11.1845 22.542 11.2696 22.5165 11.3418C22.491 11.4141 22.4442 11.4736 22.3847 11.5204C22.3422 11.5332 22.3039 11.5204 22.2614 11.4694C22.2189 11.4226 22.1934 11.3929 22.1806 11.3758C22.1551 11.2993 22.1381 11.2228 22.1381 11.142C22.1381 11.04 22.1594 10.9379 22.1976 10.8359C22.2402 10.7338 22.2954 10.6275 22.372 10.5213C22.3379 10.6105 22.3124 10.6828 22.2954 10.7466C22.2784 10.8061 22.2699 10.8741 22.2699 10.9507C22.2699 11.0952 22.3167 11.2015 22.4145 11.2781C22.4357 11.2653 22.457 11.2313 22.4868 11.1803C22.5123 11.1293 22.5463 11.0995 22.5803 11.0952L22.576 11.091ZM18.5879 10.9804C18.5412 11.0145 18.4731 11.0995 18.3881 11.2355C18.3031 11.3716 18.218 11.4439 18.1373 11.4481L17.6356 11.1335C17.559 11.2568 17.508 11.3461 17.474 11.3971C17.406 11.5076 17.3294 11.5459 17.2487 11.5204C17.1381 11.4651 17.0616 11.4269 17.0148 11.3971C16.9128 11.3418 16.8745 11.2738 16.9043 11.193C16.9851 11.0357 17.0318 10.9464 17.0488 10.9294C17.1041 10.8359 17.1721 10.7594 17.2529 10.7041C17.4017 10.7721 17.5548 10.8359 17.7121 10.8997C17.7376 10.8997 17.7716 10.8912 17.8056 10.8699C17.8949 10.6871 18.014 10.5935 18.1628 10.5935C18.2521 10.5935 18.3413 10.6446 18.4391 10.7466C18.4476 10.7721 18.4817 10.8061 18.5497 10.8444C18.6177 10.8827 18.6305 10.9294 18.5922 10.9804H18.5879ZM13.8516 7.10289C13.8601 7.1284 13.8601 7.16666 13.8601 7.21343C13.8601 7.41751 13.7878 7.56632 13.6475 7.66411C13.4987 7.69812 13.3966 7.63435 13.3413 7.46853C13.3158 7.37925 13.2988 7.27721 13.2988 7.16241C13.2988 7.03486 13.3243 6.87329 13.3796 6.68197C13.4349 6.49064 13.4732 6.35034 13.5029 6.25255C13.5029 6.31208 13.4944 6.3971 13.4732 6.50765C13.4264 6.7585 13.4009 6.92006 13.4009 6.98809C13.4009 7.08163 13.4136 7.16242 13.4349 7.22194C13.4604 7.28147 13.5072 7.34524 13.5837 7.40476C13.6517 7.43027 13.6985 7.41751 13.7283 7.35799C13.7538 7.29846 13.7793 7.24319 13.8048 7.18792C13.8303 7.13265 13.843 7.10289 13.8516 7.09438V7.10289ZM18.0565 8.45068C17.9544 8.81207 17.8949 9.01191 17.8822 9.05442C17.8014 9.28402 17.7036 9.46683 17.5973 9.59438C17.5633 9.51785 17.5845 9.41581 17.6568 9.28826C17.7036 9.20748 17.7291 9.14795 17.7291 9.11394C17.7291 9.06717 17.7036 9.0204 17.6568 8.96938C17.576 8.99064 17.2317 9.17347 16.6279 9.52211C16.3813 9.66667 16.1602 9.7347 15.9561 9.7347C15.8116 10.2194 15.7095 10.5255 15.6415 10.6616C15.48 10.9932 15.2461 11.2313 14.9485 11.3758C14.3235 11.7075 13.9238 11.9201 13.7538 12.0093C13.3116 12.2347 12.8949 12.4048 12.4995 12.5196C12.0233 12.6641 11.5684 12.7321 11.1305 12.7321C10.8158 12.7747 10.6033 12.8044 10.4842 12.8299C10.3652 12.8554 10.2036 12.8937 9.99951 12.949L13.7027 11.4906C14.0089 11.3291 14.315 11.1675 14.6211 11.0102C14.9612 10.8189 15.2589 10.6105 15.5097 10.3895C15.5097 10.2662 15.4757 10.0748 15.4119 9.80697C15.3481 9.54336 15.3141 9.35629 15.3141 9.24574C15.3141 9.12244 15.3396 9.0119 15.3907 8.91411C15.4417 8.81632 15.5267 8.72704 15.65 8.64201C15.6585 8.70153 15.667 8.78656 15.684 8.8886C15.701 8.99064 15.7691 9.04167 15.8839 9.04167C15.8966 9.05017 15.9349 9.05867 16.0029 9.06718C16.0667 9.07568 16.122 9.08419 16.1602 9.08419C16.3516 9.08419 16.73 8.90987 17.2912 8.56548C17.5548 8.40392 17.7929 8.31887 18.0055 8.31887L18.0565 8.45068ZM20.0463 9.37754C19.923 9.42006 19.7954 9.43707 19.6594 9.43707C19.4468 9.43707 19.2597 9.38605 19.0981 9.28401C19.0896 9.24149 19.1109 9.20323 19.1577 9.16072C19.1789 9.14796 19.2129 9.1182 19.2597 9.07993C19.281 9.07993 19.3107 9.07992 19.3533 9.07142C19.468 9.07142 19.5828 9.09693 19.7019 9.1522C19.8167 9.20748 19.9315 9.27975 20.0505 9.37754H20.0463Z" fill="currentColor"/>
</svg>
