<svg width="40" height="16" viewBox="0 0 40 16" fill="none" xmlns="http://www.w3.org/2000/svg">
<path fill-rule="evenodd" clip-rule="evenodd" d="M22.2284 4.0296C22.2284 4.22968 22.2033 4.37557 22.1492 4.46311C22.095 4.55481 22.0158 4.61734 21.9074 4.65902C21.8282 4.64652 21.7657 4.60067 21.7281 4.5173C21.7198 4.45894 21.7198 4.40892 21.7198 4.37557C21.7198 4.11713 21.7948 3.8837 21.9407 3.67528C21.9199 3.76282 21.9032 3.84619 21.8907 3.92955C21.8782 4.01292 21.8699 4.07128 21.8699 4.10463C21.8699 4.21717 21.8991 4.30471 21.9616 4.36307C22.0408 4.36307 22.0991 4.31305 22.1325 4.20884C22.1658 4.10463 22.1992 4.0421 22.2325 4.02543L22.2284 4.0296ZM26.551 3.93789H26.5093L21.8865 4.98833L19.2063 5.66778C19.1521 5.69279 18.8728 5.76365 18.3642 5.8762C18.0224 5.95123 17.8057 6.10129 17.7056 6.33472C18.9478 5.9679 20.2317 5.62193 21.5572 5.30096C22.8828 4.97582 24.225 4.67153 25.5798 4.38391C25.659 4.32555 25.8424 4.2797 26.1258 4.25469C26.4093 4.22968 26.551 4.1213 26.551 3.93372V3.93789ZM24.2709 7.16007C24.2917 7.25177 24.2792 7.35181 24.2292 7.46019C24.1833 7.56857 24.1208 7.65611 24.0374 7.73114C23.9249 7.68945 23.8499 7.61442 23.8165 7.50188C23.8082 7.46019 23.8082 7.406 23.8082 7.33097C23.8082 7.04335 23.8915 6.80992 24.0583 6.63068C24.0166 6.73906 23.9874 6.83493 23.9624 6.92247C23.9374 7.01 23.9291 7.0767 23.9291 7.12255C23.9291 7.18091 23.9457 7.25177 23.9791 7.33097L24.0875 7.43935C24.1291 7.41851 24.1625 7.38099 24.1875 7.32263C24.2125 7.26428 24.2417 7.21009 24.2667 7.1559L24.2709 7.16007ZM20.7694 3.60025C20.6902 3.73364 20.5193 3.82951 20.2609 3.89204C20.0024 3.9504 19.844 4.00042 19.7898 4.03376C19.6231 4.08795 19.1646 4.23385 18.4101 4.47561C17.7557 4.68403 17.2971 4.8341 17.0304 4.9258C16.5635 5.09254 16.1175 5.27178 15.6881 5.46769C15.6631 5.42184 15.6715 5.36765 15.7173 5.31346C15.7632 5.25511 15.8132 5.19675 15.8674 5.13839C16.4009 4.95081 16.9387 4.76323 17.4764 4.57982C18.185 4.33389 18.7269 4.15465 19.1062 4.03793C19.7065 3.85869 20.2609 3.7128 20.7652 3.60859L20.7694 3.60025ZM26.13 9.19425L25.9382 9.7153L25.9883 10.2655C25.9091 10.2905 25.809 10.3072 25.6881 10.3072C25.5881 10.3072 25.4964 10.2905 25.4088 10.2614C25.3213 10.2322 25.2504 10.1863 25.1879 10.1321C25.1296 10.0738 25.0962 10.0154 25.0962 9.95707C25.0962 9.93205 25.1087 9.8737 25.1296 9.79033C25.1546 9.70696 25.1546 9.64027 25.1337 9.59441C24.7544 10.103 24.5418 10.3697 24.5043 10.4031C24.3376 10.5448 24.1458 10.6115 23.9332 10.6115C23.7873 10.5782 23.6748 10.5406 23.5914 10.5031C23.4789 10.4448 23.3955 10.3614 23.3413 10.2614C23.308 10.2197 23.2913 10.1697 23.2913 10.1113C23.3372 10.0029 23.3872 9.89454 23.4414 9.78199C23.4747 9.70696 23.4789 9.6361 23.4497 9.56107C23.037 9.78616 22.641 9.97791 22.2575 10.1321C21.8782 10.2864 21.4697 10.4114 21.0362 10.5115C20.4901 10.6449 19.9357 10.7115 19.3772 10.7115C19.0312 10.7115 18.6977 10.6865 18.3768 10.6407C18.1517 10.5531 17.7848 10.4239 17.2763 10.2489C16.8636 10.0613 16.5885 9.81117 16.4551 9.49854C16.4301 9.51938 16.2592 9.71113 15.9466 10.0779C15.7465 10.3114 15.5422 10.4281 15.338 10.4281C15.3046 10.4281 15.2671 10.4281 15.2213 10.4198C15.1796 10.4114 15.1379 10.4031 15.1046 10.3906C14.9628 10.3155 14.8545 10.2155 14.7794 10.0821C14.7044 9.94873 14.6419 9.79033 14.596 9.60275C14.596 8.76073 14.5918 8.04377 14.5793 7.45186C14.571 6.85994 14.5418 6.21384 14.496 5.52188C14.4501 4.82993 14.3793 4.22134 14.2875 3.70029C14.2125 3.77532 14.1542 3.85452 14.1125 3.94623C14.0708 4.03793 14.0166 4.15465 13.9582 4.30054C14.0458 4.95498 14.1083 5.55106 14.1542 6.09296C14.1958 6.63485 14.2209 7.19341 14.2209 7.77282C14.2542 7.91455 14.275 8.02293 14.2875 8.10629C14.2959 8.18966 14.3042 8.33973 14.3042 8.56065C14.3042 8.65236 14.3042 8.79408 14.2959 8.98583C14.2875 9.17757 14.2875 9.3193 14.2875 9.411C14.2875 9.86536 14.3292 10.2197 14.4168 10.4698C14.5377 10.8116 14.7586 11.0617 15.0754 11.2201C15.1546 11.2326 15.2088 11.2409 15.2338 11.2409C15.4797 11.2409 15.7423 11.0659 16.0258 10.7115C16.2175 10.4656 16.3426 10.3155 16.3968 10.2614C16.476 10.4198 16.5385 10.5323 16.576 10.5907C16.6427 10.699 16.7261 10.7824 16.8261 10.8408C17.1679 11.0742 17.5264 11.2409 17.9016 11.3368C18.2767 11.4327 18.6936 11.4827 19.1479 11.4827C19.4355 11.4827 19.719 11.4619 19.9983 11.4243C20.5402 11.3493 21.0737 11.2159 21.6031 11.0242C22.1325 10.8324 22.6202 10.6032 23.0579 10.3447C23.0579 10.3906 23.0495 10.4531 23.037 10.5365C23.0245 10.6157 23.0162 10.6782 23.0162 10.7157C23.0162 10.7824 23.0287 10.8408 23.0579 10.895C23.1329 11.0534 23.2413 11.1784 23.3913 11.2618C23.5414 11.3451 23.6998 11.3868 23.8665 11.3868C24.075 11.3868 24.2625 11.3118 24.4376 11.1659C24.5627 11.0575 24.6961 10.8991 24.8378 10.6865C24.9253 10.8616 25.0629 10.9742 25.2463 11.0283C25.2796 11.0367 25.3296 11.045 25.4005 11.0575C25.4714 11.07 25.5464 11.0784 25.6256 11.0784C25.7256 11.0784 25.8174 11.0659 25.9007 11.0367C25.9841 11.0117 26.0508 10.9617 26.105 10.895C26.18 10.7366 26.2342 10.574 26.2759 10.4156C26.3176 10.2572 26.3342 10.0863 26.3342 9.90704C26.3342 9.76532 26.3176 9.6361 26.2842 9.51105C26.2509 9.38599 26.1967 9.28178 26.1258 9.19425H26.13ZM20.9278 7.42268L20.857 7.6436C20.8111 7.6436 20.7527 7.61025 20.6819 7.53939C20.611 7.46853 20.5485 7.43935 20.4985 7.44352C20.4651 7.53522 20.4276 7.7103 20.3818 7.96457C20.3401 8.21884 20.2817 8.40642 20.2067 8.52313C20.1525 8.45644 20.0983 8.36057 20.0358 8.23135C19.9482 8.05627 19.8649 7.8812 19.7857 7.70196C19.7857 7.76032 19.7607 7.79366 19.7148 7.79366C19.6231 7.76032 19.5606 7.73947 19.5356 7.73531C19.4772 7.70196 19.4439 7.65611 19.4439 7.59358C19.4564 7.50604 19.4689 7.41851 19.4855 7.33514C19.5189 7.30179 19.5522 7.26845 19.5898 7.2351C19.6273 7.20175 19.669 7.19341 19.7148 7.21426C19.8274 7.3143 19.9232 7.46436 20.0066 7.66444C20.1191 7.93122 20.1942 8.09379 20.2275 8.15631C20.2942 7.83118 20.3526 7.57691 20.4026 7.39767C20.4526 7.21842 20.5193 7.12672 20.6068 7.12672C20.686 7.12672 20.7944 7.22676 20.9278 7.42684V7.42268ZM15.9758 4.19216C15.9299 4.19216 15.8882 4.22551 15.8507 4.2922C15.8132 4.3589 15.7882 4.40058 15.7757 4.41309C15.6673 4.3589 15.6173 4.2797 15.6173 4.17132C15.6173 4.12547 15.6381 4.03793 15.6756 3.91705C15.7173 3.792 15.734 3.70029 15.7256 3.64193C15.684 3.75031 15.6464 3.85452 15.6048 3.9629C15.5297 4.16298 15.4964 4.34223 15.4964 4.50479C15.5214 4.55898 15.5589 4.60484 15.6048 4.65069C15.6506 4.69237 15.7006 4.71321 15.7548 4.70488C15.8549 4.64652 15.9174 4.54648 15.9466 4.41309C15.9549 4.3714 15.9632 4.30054 15.9758 4.19216ZM25.488 11.6453C25.4964 11.6995 25.488 11.7453 25.4714 11.787C25.4547 11.8287 25.3922 11.912 25.288 12.0371C25.2129 12.0371 25.1212 12.0663 25.0087 12.1288C24.7544 12.2622 24.6002 12.3289 24.5502 12.3289C24.5001 12.3289 24.4501 12.3164 24.4084 12.2955C24.3667 12.2705 24.3292 12.2288 24.2875 12.1622C24.0958 12.208 23.8749 12.2872 23.6289 12.3914C23.5539 12.4248 23.3413 12.5248 22.987 12.6915C22.7452 12.7999 22.5243 12.8749 22.3159 12.925C22.1075 12.975 21.874 13 21.6156 13C21.849 13 22.1075 12.9333 22.3868 12.7999C22.4868 12.7541 22.7244 12.6207 23.0954 12.3997C23.3705 12.2455 23.6039 12.1371 23.7957 12.0704C24.0374 11.9829 24.2709 11.9412 24.5043 11.9412C24.5377 12.0329 24.6002 12.083 24.6961 12.083C24.7294 12.083 24.7627 12.0746 24.7961 12.0538C24.8294 12.0329 24.8711 11.9746 24.9253 11.8745C24.9795 11.7745 25.0337 11.7161 25.0837 11.6953V11.9037C25.1629 11.9371 25.2338 11.9204 25.3005 11.8537C25.363 11.787 25.4255 11.7203 25.4839 11.6536L25.488 11.6453ZM14.1375 3.45019C14.0374 3.60859 13.8624 3.75865 13.6081 3.90038C13.2746 4.09212 13.0704 4.22134 12.9995 4.2797C13.012 4.19216 13.0412 4.11296 13.0829 4.04627C13.1246 3.97541 13.1871 3.92955 13.2663 3.90038C13.1788 3.82534 13.0954 3.75448 13.0162 3.67945C13.0412 3.5544 13.0954 3.42518 13.1746 3.30013C13.2538 3.17507 13.3497 3.07503 13.4664 3C13.5539 3.03335 13.6248 3.08337 13.6873 3.15006C13.6998 3.20425 13.6873 3.2501 13.6581 3.29596C13.6248 3.33764 13.5956 3.37932 13.5664 3.42101C13.5456 3.41267 13.5122 3.38766 13.4622 3.34181C13.4122 3.29596 13.3788 3.27095 13.358 3.27095C13.333 3.27095 13.308 3.28345 13.2871 3.31263C13.2329 3.36682 13.2121 3.42101 13.2288 3.48353C13.2538 3.53772 13.2955 3.57524 13.3455 3.60025C13.3955 3.62526 13.458 3.6336 13.5289 3.6336C13.5706 3.6336 13.6123 3.6336 13.654 3.62526C13.6956 3.61692 13.7415 3.61276 13.7873 3.60442C13.8874 3.52939 13.9624 3.48353 14.0124 3.45852C14.0625 3.43351 14.1041 3.43351 14.1375 3.45436V3.45019ZM16.3092 7.6436C16.3092 7.76449 16.2926 7.87703 16.255 7.98541C16.2175 8.09379 16.155 8.18549 16.0591 8.26469C16.0133 8.27303 15.9674 8.26469 15.9257 8.23552C15.884 8.2105 15.8465 8.14381 15.8215 8.04377C15.8215 7.74364 15.8882 7.47687 16.0216 7.24343C16.0008 7.32263 15.9841 7.40183 15.9716 7.4727C15.9591 7.54773 15.9507 7.62276 15.9507 7.70196C15.9507 7.81034 15.9799 7.89787 16.0424 7.97291C16.13 7.97291 16.1883 7.93539 16.2175 7.86453C16.2467 7.7895 16.28 7.71863 16.3134 7.6436H16.3092ZM16.8595 12.2455L16.4301 12.7749C16.2634 12.6874 16.0966 12.5998 15.9299 12.5165C15.8299 12.4414 15.7798 12.3581 15.7798 12.2664L16.3509 11.7453L16.8595 12.2455Z" fill="currentColor"/>
</svg>
