<svg width="40" height="16" viewBox="0 0 40 16" fill="none" xmlns="http://www.w3.org/2000/svg">
<path fill-rule="evenodd" clip-rule="evenodd" d="M26.7821 3.68114C26.6952 3.73186 26.6155 3.82607 26.5358 3.97824C26.456 4.13042 26.3836 4.22462 26.3184 4.27535L25.2459 3.79708C25.0792 4.02172 24.9198 4.23912 24.7531 4.46376C24.4126 4.38405 24.1227 4.2681 23.8691 4.11593C23.8691 3.971 23.9271 3.81884 24.0358 3.65217C24.1445 3.4855 24.2749 3.36955 24.4198 3.30434C24.7169 3.39129 25.0213 3.51447 25.3329 3.68114L26.014 3C26.1807 3.05797 26.3546 3.15216 26.5358 3.27534C26.7894 3.44926 26.8691 3.58694 26.7821 3.68114ZM22.3763 8.26086C22.3546 8.42753 22.3329 8.54347 22.3039 8.62318C22.2459 8.76811 22.1589 8.86231 22.043 8.89854C21.985 8.90579 21.9271 8.88405 21.8763 8.83333C21.8256 8.78261 21.7894 8.72463 21.7749 8.67391C21.7604 8.62318 21.7531 8.54348 21.7531 8.43479C21.7531 8.23189 21.7821 8.03623 21.8401 7.84058C21.8618 7.77536 21.9343 7.58695 22.0575 7.28985C22.0647 7.3768 22.043 7.52174 21.9923 7.72463C21.9416 7.92753 21.9126 8.0652 21.9126 8.14491C21.9126 8.29709 21.956 8.42754 22.043 8.52174C22.1227 8.52899 22.1879 8.50724 22.2242 8.44927C22.2676 8.35507 22.2966 8.28984 22.3184 8.26086H22.3763ZM18.0865 4.20288C18.0865 4.43476 17.9995 4.63768 17.8256 4.8116C17.7314 4.83334 17.6372 4.80434 17.543 4.73187C17.4488 4.65941 17.3981 4.57246 17.3908 4.46376C17.3691 4.25362 17.3981 4.03622 17.4778 3.82608C17.601 3.56521 17.6879 3.36956 17.7386 3.24637C17.7604 3.32608 17.7386 3.45652 17.6807 3.65217C17.6227 3.84782 17.5937 3.97826 17.5937 4.05797C17.5937 4.21014 17.6444 4.34057 17.7386 4.43477C17.8256 4.46376 17.8981 4.43477 17.956 4.3623C18.014 4.28259 18.0575 4.23187 18.0865 4.20288ZM22.2894 4.75361C22.2387 4.68839 22.1662 4.65217 22.072 4.64492C21.9778 4.64492 21.8691 4.64492 21.7531 4.64492C20.7314 4.95652 19.9126 5.17389 19.3111 5.31158C18.3546 5.52172 17.4995 5.63042 16.7386 5.63042C15.8546 5.63042 15.043 5.49274 14.3111 5.22462C14.2242 5.31158 14.1807 5.39129 14.1807 5.471C14.1807 5.57969 14.3111 5.72463 14.5792 5.91304C14.8473 6.10144 14.985 6.26085 15.0068 6.39853C15.0647 6.49274 15.0937 6.62318 15.0937 6.78984C15.0937 6.8768 15.0792 6.99274 15.0575 7.13043C15.0357 7.26811 15.0068 7.38405 14.9778 7.47101C15.1227 7.31883 15.2169 7.15942 15.2676 7.00725C15.3039 6.8116 15.3256 6.65941 15.3256 6.54347C15.3256 6.26086 15.2459 6.04346 15.0937 5.87679C15.3328 5.92752 15.5213 5.95651 15.6517 5.971C15.7821 5.98549 16.014 5.99274 16.3401 5.99274C16.7604 5.99274 17.13 5.971 17.4488 5.92752C17.7676 5.88404 18.1444 5.8116 18.5865 5.71739C18.7604 5.68116 19.3184 5.54346 20.2604 5.31158C20.8981 5.14491 21.456 5.02898 21.9198 4.96376C21.9705 5.01449 21.9923 5.05072 21.9923 5.07971C21.9923 5.11594 21.956 5.18115 21.8763 5.27535C21.7966 5.36956 21.7604 5.43478 21.7604 5.4855C21.9126 5.40579 22.0358 5.30435 22.1372 5.17391C22.2387 5.04348 22.2966 4.90579 22.2966 4.76087L22.2894 4.75361ZM19.3763 7.52174C19.3473 7.61594 19.3256 7.7029 19.3039 7.77536C19.2821 7.84783 19.2314 7.85507 19.1444 7.7971C19.0213 7.68116 18.8908 7.61594 18.7531 7.60869C18.6952 7.89854 18.6444 8.18115 18.5937 8.46376C18.514 8.7826 18.3981 9.03623 18.2314 9.21739C18.0865 8.83333 17.9415 8.44203 17.7966 8.04348C17.7894 8.12319 17.7531 8.15942 17.6952 8.15942C17.6734 8.15942 17.6372 8.15217 17.5792 8.13043C17.5213 8.10869 17.4778 8.10144 17.4488 8.10144C17.3546 8.04347 17.3039 7.97825 17.3039 7.89854C17.3039 7.83332 17.3329 7.74636 17.3981 7.64491C17.4633 7.54346 17.4923 7.48549 17.5068 7.46375C17.6082 7.34781 17.7169 7.32608 17.8256 7.40579C17.956 7.57246 18.0647 7.77535 18.1372 8.02897C18.2097 8.28259 18.2894 8.52172 18.3618 8.75361C18.4271 8.63767 18.485 8.3913 18.5358 8.02174C18.5865 7.65217 18.6952 7.38406 18.8546 7.23189C18.9778 7.26812 19.0792 7.3116 19.1517 7.34783C19.2242 7.38406 19.2966 7.44203 19.3618 7.52174H19.3763ZM27.8111 7.52174C27.63 7.10869 27.3691 6.75363 27.0285 6.46377C26.6445 6.13768 26.2387 5.971 25.8111 5.971C25.4343 6.09419 25.1372 6.36956 24.9126 6.7971C24.8184 6.97826 24.6734 7.36957 24.4923 7.95652C24.6082 8.56522 25.0358 8.87681 25.7676 8.88406C26.4995 8.89131 26.9488 8.92027 27.101 8.95651C27.2387 9.02172 27.3474 9.12319 27.4271 9.24638C27.5068 9.36957 27.5285 9.49999 27.4778 9.62318C26.3111 10.3696 25.0213 10.9493 23.6082 11.3623C22.1952 11.7754 20.7676 11.9855 19.3184 11.9855C17.6952 11.9855 16.2314 11.8623 14.9271 11.6087C13.4271 11.3188 12.1227 10.8623 10.9995 10.2464C11.0068 10.3116 11.043 10.3985 11.101 10.5072C11.1299 10.558 11.1734 10.6304 11.2314 10.7391C11.8691 11.3188 12.601 11.7899 13.4198 12.1449C14.1807 12.471 15.0068 12.7101 15.8981 12.8551C16.5357 12.9493 17.2169 13 17.9415 13C18.4995 13 19.0575 12.9783 19.601 12.9275C20.1444 12.8768 20.6952 12.8116 21.2459 12.7246C21.7966 12.6377 22.3691 12.5217 22.956 12.3696C23.543 12.2174 24.1227 12.0507 24.6952 11.8696C25.2676 11.6884 25.7894 11.4638 26.2604 11.2029C26.8111 10.9058 27.2821 10.558 27.6807 10.1594C27.8329 9.97825 27.9416 9.78986 28.0068 9.6087C28.072 9.42754 28.101 9.21014 28.101 8.97101C28.101 8.73188 28.0792 8.49999 28.0285 8.2826C27.9778 8.06521 27.9053 7.81159 27.8111 7.52174ZM13.5068 8.08695C13.5285 8.21014 13.514 8.33334 13.4705 8.45653C13.4271 8.57971 13.3546 8.66667 13.2459 8.72464C13.1589 8.73188 13.0937 8.71738 13.043 8.66666C12.9923 8.61593 12.956 8.54348 12.927 8.43479C12.927 8.23189 12.956 8.02174 13.014 7.7971C13.043 7.68841 13.1082 7.49275 13.2169 7.20289C13.2242 7.2826 13.2169 7.36955 13.2024 7.46375C13.1372 7.77535 13.101 7.94926 13.101 7.98549C13.101 8.16665 13.1807 8.28984 13.3328 8.34781C13.3908 8.26086 13.4488 8.17391 13.5068 8.08695ZM26.8691 7.7826C26.7894 7.78984 26.6807 7.80435 26.5358 7.81884C26.3908 7.83333 26.2531 7.84058 26.1155 7.84058C25.8908 7.84058 25.7024 7.81159 25.5358 7.74637C25.3691 7.68115 25.2459 7.57246 25.1589 7.40579C25.101 7.31883 25.1082 7.23913 25.1734 7.15942C25.2387 7.07971 25.3256 7.02173 25.4198 6.971C25.456 6.96376 25.514 6.95652 25.5937 6.95652C25.8329 6.95652 26.072 7.04347 26.3039 7.21738C26.4778 7.35506 26.6662 7.54346 26.8691 7.7826Z" fill="currentColor"/>
</svg>
