<svg width="40" height="16" viewBox="0 0 40 16" fill="none" xmlns="http://www.w3.org/2000/svg">
<path fill-rule="evenodd" clip-rule="evenodd" d="M28.1441 5.27214C28.0671 5.26358 28.0072 5.22079 27.9601 5.13949C27.8232 4.90843 27.7291 4.77578 27.682 4.7501C27.5921 4.89559 27.5493 5.08815 27.5493 5.33634C27.5493 5.4647 27.5579 5.61019 27.5793 5.76423C27.6007 5.91828 27.6221 6.06803 27.6392 6.20924C27.7419 7.15489 27.8489 8.10056 27.9558 9.04194C27.9558 9.73513 27.9302 10.2443 27.8788 10.5738C27.8275 10.9033 27.7419 11.2071 27.6178 11.4895C27.6178 11.2756 27.6264 10.9803 27.6435 10.5952C27.6606 10.2101 27.6692 9.97474 27.6692 9.88489C27.6692 9.74796 27.6692 9.61104 27.6606 9.47839C27.652 9.34574 27.6392 9.21309 27.6178 9.08472L27.0102 4.00985C26.976 3.95422 26.9588 3.89004 26.9588 3.81302C26.9588 3.69749 27.0102 3.56055 27.1129 3.40223C27.1386 3.35516 27.1899 3.28241 27.2669 3.18828C27.4295 3.52204 27.5964 3.86008 27.759 4.19384C27.9516 4.59607 28.0757 4.9555 28.1398 5.27214H28.1441ZM24.2502 3.38084C24.1946 3.552 24.0534 3.68036 23.8309 3.76166C23.6041 3.84296 23.3902 3.91998 23.1848 3.98844C22.5001 4.23663 21.8155 4.48053 21.1309 4.72871C21.118 4.57895 21.1694 4.47198 21.2849 4.41207C21.4903 4.34361 21.7 4.27087 21.9096 4.19812C22.299 4.07403 22.697 3.94567 23.0949 3.81302C23.4971 3.68037 23.8823 3.53916 24.2502 3.38512V3.38084ZM23.7068 7.37741C23.7282 7.43731 23.7197 7.51006 23.6811 7.59136C23.6426 7.67266 23.6127 7.74112 23.587 7.79247C23.5613 7.84382 23.5228 7.86949 23.4672 7.86949H23.3345C23.2447 7.73256 23.2019 7.5828 23.2019 7.41592C23.2019 7.27043 23.2447 7.08216 23.3345 6.84253C23.3773 6.73984 23.4158 6.63287 23.4586 6.52589C23.4586 6.59436 23.4415 6.72272 23.403 6.911C23.3645 7.09927 23.3474 7.22337 23.3474 7.28755C23.3474 7.41592 23.3731 7.52717 23.4287 7.61703C23.5057 7.63842 23.5613 7.60419 23.5998 7.51861C23.6384 7.43303 23.6726 7.38597 23.7068 7.38169V7.37741ZM20.258 4.65598C20.2836 4.75012 20.2665 4.85709 20.2066 4.97262C20.1724 5.02825 20.1339 5.08387 20.0954 5.13522C20.0141 5.1609 19.9499 5.15234 19.9114 5.10527C19.8686 5.0582 19.8343 4.98973 19.8087 4.89987C19.8301 4.73727 19.8557 4.57039 19.8857 4.40351C19.9156 4.23663 19.9627 4.08259 20.0226 3.94567C20.0312 4.00557 20.0183 4.11682 19.9884 4.27086C19.9584 4.4249 19.9413 4.52761 19.9413 4.57468C19.9413 4.73728 20.0055 4.83997 20.1381 4.8742L20.2622 4.66025L20.258 4.65598ZM21.8497 6.30766C21.8069 6.35473 21.7642 6.38041 21.7171 6.38041C21.6829 6.38041 21.6572 6.3804 21.6358 6.37184C21.5673 6.33761 21.5245 6.31622 21.5031 6.31194C21.4689 6.27771 21.409 6.30338 21.3191 6.38896C21.2293 6.47454 21.1394 6.50021 21.0538 6.46598C20.9298 6.37612 20.8698 6.2392 20.8698 6.0552C20.8698 5.97818 20.887 5.87548 20.9169 5.74711C20.9469 5.61874 20.9683 5.52032 20.9854 5.46042H21.0367C21.0581 5.52032 21.0538 5.61447 21.0324 5.73856C21.0068 5.86265 20.9982 5.93539 20.9982 5.95251C20.9982 6.02953 21.0153 6.08516 21.0453 6.12367C21.0752 6.16218 21.1437 6.1793 21.2464 6.1793C21.3491 6.12367 21.4004 6.03809 21.4004 5.92255C21.3876 5.79418 21.379 5.69576 21.379 5.63586C21.379 5.53316 21.4047 5.45614 21.4603 5.40907C21.4946 5.45186 21.5117 5.51604 21.5117 5.6059C21.5031 5.72999 21.5031 5.81557 21.5031 5.86264C21.5031 6.01241 21.563 6.08943 21.6786 6.08943C21.7 6.08943 21.7385 6.08088 21.7898 6.06804C21.8027 6.00813 21.7898 5.92683 21.7599 5.82842C21.7256 5.73 21.7085 5.66581 21.7085 5.64014C21.7085 5.57168 21.7299 5.51177 21.7684 5.4647C21.8711 5.60163 21.9225 5.7685 21.9225 5.96962C21.9225 6.09799 21.9011 6.2178 21.8626 6.3205L21.8497 6.30766ZM20.9554 3.15405C20.2109 3.3466 19.5776 3.51348 19.0556 3.65897C18.3495 3.8558 17.7291 4.05692 17.1985 4.25375C17.0487 4.31366 16.8904 4.38212 16.7278 4.45487C16.5652 4.52761 16.4796 4.64314 16.4796 4.79718C17.0402 4.53188 17.7547 4.26658 18.6148 4.00556C19.3465 3.80017 20.0782 3.59051 20.8142 3.38084C20.8698 3.33377 20.9041 3.29525 20.9212 3.26958C20.9383 3.2439 20.9511 3.2054 20.9554 3.15833V3.15405ZM16.6508 3.81302C16.6636 3.88148 16.6593 3.95422 16.6422 4.03552C16.6208 4.11254 16.5866 4.17673 16.5395 4.2238C16.4967 4.23663 16.4582 4.23235 16.4154 4.20668C16.3726 4.181 16.347 4.14249 16.3341 4.08258C16.3213 4.02268 16.3127 3.95422 16.3127 3.87292C16.3127 3.72743 16.347 3.54772 16.4154 3.32949C16.4497 3.21824 16.4839 3.11125 16.5181 3C16.531 3.05991 16.5267 3.14121 16.5096 3.23535C16.4539 3.51777 16.4283 3.65896 16.4283 3.66752C16.4283 3.78305 16.4582 3.8772 16.5224 3.94567L16.655 3.81302H16.6508ZM19.2481 5.84554C19.2353 5.96107 19.1839 6.07232 19.0941 6.1793C19.0042 6.28627 18.9186 6.38468 18.8373 6.4831C18.7945 6.42747 18.7004 6.36329 18.5464 6.29482C18.3923 6.22208 18.3153 6.15362 18.3153 6.08516C18.3153 6.04237 18.3239 6.01241 18.3367 5.99102L18.6876 5.52033C18.7817 5.546 18.8801 5.59307 18.9743 5.65298C19.0085 5.67437 19.1026 5.73855 19.2524 5.84981L19.2481 5.84554ZM20.151 7.80531C20.1167 7.908 20.0868 8.0107 20.0568 8.11339C20.0098 8.22893 19.9285 8.30595 19.8215 8.34018C19.7744 8.34874 19.7316 8.33162 19.6931 8.28883C19.6546 8.24604 19.6247 8.19898 19.6075 8.14335C19.6075 7.92512 19.6204 7.73685 19.6418 7.5828C19.6675 7.42876 19.7188 7.27899 19.8001 7.13778C19.7915 7.17202 19.7744 7.25759 19.7445 7.3988C19.7145 7.54 19.6974 7.65126 19.6974 7.73256C19.6974 7.85665 19.7316 7.96363 19.8001 8.06205C19.9114 8.06205 19.9969 8.01926 20.0654 7.9294C20.0868 7.87377 20.0996 7.83526 20.1082 7.80531H20.151ZM24.2075 12.0372C24.1048 12.1742 24.0021 12.3154 23.8994 12.4566C23.8181 12.5336 23.7325 12.5593 23.6426 12.5379C23.617 12.5122 23.4971 12.4352 23.2918 12.3111C23.1463 12.2298 23.0778 12.1356 23.0778 12.0329L23.5485 11.5708L24.2075 12.0329V12.0372ZM25.688 9.64526C25.4698 8.03637 25.2515 6.42319 25.0419 4.81002L25.136 4.62602C25.2045 4.68593 25.2729 4.77151 25.3414 4.88276C25.3756 4.93839 25.427 5.02396 25.4954 5.13949L25.5382 5.09671C25.4826 4.78863 25.3927 4.47198 25.2601 4.14678C25.1317 3.82158 24.9734 3.51348 24.7894 3.22679C24.7808 3.25246 24.7295 3.36372 24.6268 3.55628C24.5583 3.68465 24.5241 3.79589 24.5241 3.88575C24.5241 3.96277 24.5412 4.02696 24.5754 4.08258C24.6225 4.53616 24.7209 5.18657 24.8621 6.04237C24.9734 6.69277 25.0804 7.35173 25.1916 8.01925C25.3029 8.68678 25.3842 9.33718 25.4398 9.96619C25.1788 10.0774 24.922 10.1288 24.6696 10.1288C24.4556 10.1288 24.2502 10.0903 24.0491 10.0175C23.848 9.94053 23.6683 9.82499 23.51 9.66667C23.4757 9.63243 23.4715 9.58537 23.5014 9.52118C23.5271 9.46128 23.5314 9.41421 23.51 9.38854C23.3388 9.57253 23.1677 9.75652 22.9965 9.93196C22.7826 10.1459 22.5772 10.2486 22.3718 10.2486C22.3161 10.2486 22.2776 10.2486 22.2477 10.24C22.0423 10.2058 21.8797 10.1459 21.7599 10.0603C21.6401 9.97475 21.5416 9.85067 21.4603 9.68379C21.3833 9.52118 21.3191 9.29439 21.2721 9.0077C21.1565 8.26316 21.0924 7.86948 21.0752 7.82669L20.8099 8.38297C20.8228 8.55413 20.8485 8.72957 20.8827 8.90501C20.8912 8.93068 20.934 9.17031 21.0153 9.61532C20.9041 9.78648 20.7714 9.91056 20.6088 9.98331C20.4462 10.0603 20.2665 10.0946 20.0611 10.0946C19.8215 10.0946 19.6118 10.0518 19.4364 9.96192C19.1882 9.84639 19.0684 9.66667 19.0684 9.42704C19.0684 9.33719 19.0898 9.24304 19.1283 9.14035C18.7774 9.46127 18.4907 9.69662 18.2639 9.83782C17.9131 10.0561 17.5836 10.1673 17.2669 10.1673C17.1043 10.1673 16.9289 10.1373 16.7449 10.0732C16.4625 9.9833 16.21 9.77791 15.9832 9.45699C15.8121 9.18313 15.6452 8.90501 15.4783 8.62688C14.9862 8.66967 14.6311 9.00342 14.4214 9.63243C14.1561 10.4112 13.9079 10.8905 13.6812 11.0702C13.6127 11.1044 13.5357 11.1215 13.4458 11.1215C13.3987 11.1215 13.326 11.113 13.2319 11.1001C12.9794 10.9204 12.7826 10.7278 12.6456 10.5139C12.4873 10.2657 12.4103 10.009 12.4103 9.74369C12.4103 9.5982 12.4231 9.45271 12.4531 9.29867C12.4788 9.14462 12.513 9.0291 12.5472 8.95635C12.6713 8.93068 12.7868 8.8023 12.8895 8.57552C12.9965 8.34873 13.0479 8.12195 13.0479 7.89944C13.0479 7.82242 13.0393 7.74968 13.0179 7.67266C12.9751 7.68122 12.9494 7.7026 12.9409 7.74539C12.9323 7.78818 12.9195 7.83954 12.9109 7.90373C12.9024 7.96791 12.8681 8.02782 12.8168 8.07917C12.7655 8.13051 12.7013 8.14762 12.6285 8.12623C12.5044 7.98074 12.4231 7.84382 12.3761 7.71117C12.3333 7.57852 12.3076 7.4202 12.3076 7.23192C12.3076 6.97946 12.3803 6.64569 12.5215 6.23491C12.7184 5.66581 12.8254 5.35344 12.8382 5.3021C12.5772 5.73855 12.3846 6.11511 12.2648 6.43175C12.0851 6.88533 11.9995 7.30894 11.9995 7.70688C11.9995 7.90372 12.0295 8.10911 12.0851 8.31451C12.145 8.5199 12.2263 8.70389 12.3376 8.87077C12.3376 8.97346 12.3247 9.18742 12.2948 9.50835C12.2691 9.82927 12.252 10.0603 12.252 10.1973C12.252 10.5182 12.3033 10.8049 12.406 11.0616C12.5686 11.3141 12.7141 11.4981 12.8382 11.6179C13.035 11.8104 13.2404 11.9046 13.4458 11.9046C13.8438 11.7591 14.1476 11.3312 14.3615 10.6209C14.5755 9.91056 14.875 9.48267 15.2644 9.34574C15.7565 10.086 16.0432 10.4925 16.1287 10.5695C16.3684 10.7878 16.6379 10.899 16.9417 10.899C16.9674 10.899 17.0102 10.9076 17.0658 10.9204H17.1899C17.498 10.9204 17.789 10.8348 18.0671 10.6679C18.3452 10.5011 18.5934 10.2828 18.8117 10.0175C18.8331 10.1117 18.8544 10.2101 18.8844 10.3042C19.0128 10.5096 19.2053 10.6551 19.4578 10.745C19.6546 10.8134 19.8985 10.8477 20.1852 10.8477C20.412 10.7878 20.6003 10.7022 20.75 10.5995C20.9426 10.4711 21.0667 10.3128 21.118 10.1288C21.1737 10.2443 21.2293 10.3599 21.2892 10.4797C21.3491 10.5952 21.4218 10.6893 21.5117 10.7578C21.6957 10.9204 21.9139 11.006 22.1707 11.006C22.252 11.006 22.3333 10.9974 22.4188 10.976C22.5772 10.9204 22.7269 10.822 22.8724 10.6765C22.9751 10.5738 23.0864 10.4326 23.2019 10.2572C23.6255 10.6893 24.1005 10.9033 24.6182 10.9033C24.8236 10.9033 25.0504 10.8648 25.2943 10.792C25.474 10.7022 25.5853 10.531 25.6324 10.2786C25.6538 10.1416 25.6751 9.93624 25.7051 9.66238L25.688 9.64526ZM15.581 4.07831C15.581 4.19385 15.5596 4.30081 15.5126 4.39067C15.4698 4.48481 15.3927 4.54471 15.2901 4.57895C15.2216 4.59178 15.1446 4.56183 15.0633 4.48481C14.982 4.40779 14.9135 4.37356 14.8579 4.37356C14.5498 4.69449 14.2289 4.97262 13.8908 5.20369C13.5571 5.43475 13.1848 5.64442 12.7826 5.82842C13.4415 5.31494 14.0962 4.80146 14.7552 4.28798C14.7124 4.26658 14.6824 4.25374 14.661 4.24519C14.5926 4.21095 14.5455 4.17673 14.5156 4.14249C14.5412 4.08259 14.5797 3.95421 14.6268 3.76166C14.6739 3.5691 14.7509 3.42362 14.8536 3.32092C15.0333 3.32092 15.1874 3.40651 15.3157 3.57767C15.4056 3.6932 15.4912 3.86008 15.5725 4.06975L15.581 4.07831ZM17.8831 7.08644L17.8403 7.30039C17.7162 7.27899 17.6307 7.27043 17.5836 7.27043C17.528 7.27043 17.4894 7.31323 17.4723 7.39453C17.4381 7.63415 17.4124 7.83098 17.391 7.9893C17.3696 8.14762 17.3055 8.26316 17.1942 8.34018C17.1514 8.28455 17.0829 8.12623 16.9803 7.86949C16.9032 7.67265 16.8091 7.56997 16.6936 7.56997C16.578 7.53573 16.501 7.50578 16.4668 7.47583C16.4325 7.45015 16.4154 7.40736 16.4154 7.35173C16.4154 7.2576 16.4325 7.16773 16.4625 7.09071C16.4924 7.01369 16.5481 6.96235 16.6337 6.94096C16.7791 7.02226 16.9032 7.19769 17.0102 7.45871C17.1172 7.72401 17.1985 7.8866 17.2627 7.94651C17.2969 7.8866 17.3311 7.72829 17.3696 7.47583C17.4081 7.22337 17.4852 7.06076 17.6007 6.9923L17.8874 7.08644H17.8831ZM15.6752 5.87548C15.6324 5.92255 15.581 6.02097 15.5126 6.17501C15.4441 6.32478 15.3671 6.42319 15.2858 6.4617L14.6482 6.16218C14.614 6.20497 14.5712 6.27343 14.5241 6.37613C14.4471 6.55584 14.3615 6.65425 14.2588 6.67565C14.1775 6.67565 14.0748 6.64999 13.9507 6.59436C13.7667 6.51306 13.6683 6.46598 13.6512 6.4617C13.7111 6.1964 13.8523 5.97818 14.0705 5.81558C14.1518 5.84981 14.2545 5.8926 14.3786 5.94394C14.5027 5.99529 14.6054 6.02952 14.6867 6.05092C14.7124 6.02952 14.7851 5.92683 14.9007 5.74283C14.9905 5.59735 15.0761 5.52888 15.1574 5.52888C15.213 5.52888 15.2772 5.5674 15.3542 5.64014C15.4355 5.68293 15.504 5.71716 15.5553 5.74711C15.6067 5.77707 15.6452 5.81985 15.6752 5.87548ZM21.9909 12.3239C21.9909 12.3239 21.8968 12.4352 21.7556 12.6234C21.6615 12.7475 21.5588 12.816 21.4475 12.8288C21.4218 12.816 21.3491 12.7604 21.2378 12.6577C21.1266 12.5593 21.0367 12.5079 20.9768 12.5079C20.934 12.5079 20.887 12.5293 20.8313 12.5678C20.7072 12.7475 20.6431 12.8417 20.6345 12.8545C20.5746 12.923 20.5104 12.97 20.4505 13C20.4077 12.9572 20.3179 12.8887 20.1724 12.7903C20.0269 12.6919 19.937 12.6063 19.8942 12.5379C19.9969 12.3581 20.1467 12.1699 20.3478 11.973L20.9041 12.2383C21.0752 12.2383 21.2293 12.11 21.3662 11.849C21.516 11.9388 21.6315 12.003 21.7043 12.0458C21.8412 12.1271 21.9353 12.2212 21.9909 12.3239ZM15.4099 4.25375C15.3628 4.29654 15.2986 4.29226 15.2259 4.24519C15.1916 4.22379 15.1317 4.18529 15.0419 4.12111L15.1446 3.86436C15.2045 3.91143 15.2601 3.96706 15.3029 4.03552C15.3457 4.0997 15.3842 4.17244 15.4099 4.25802V4.25375ZM14.9563 4.0398C14.8664 4.00557 14.7766 3.97133 14.691 3.9371L14.8236 3.79161C14.8707 3.82585 14.9092 3.86436 14.9435 3.90287C14.9734 3.94566 14.9777 3.98845 14.9606 4.03552L14.9563 4.0398Z" fill="currentColor"/>
</svg>
