<svg width="40" height="16" viewBox="0 0 40 16" fill="none" xmlns="http://www.w3.org/2000/svg">
<path fill-rule="evenodd" clip-rule="evenodd" d="M28.5184 5.24155C28.4289 5.25149 28.3593 5.18191 28.2997 5.0328C28.2401 4.8837 28.1804 4.79424 28.1257 4.76441L27.9965 5.03777C27.9965 5.35586 28.0263 5.76342 28.091 6.26541C28.2351 7.38867 28.3047 8.10437 28.3047 8.41252C28.3047 9.16799 28.2848 9.72962 28.245 10.0924C28.1804 10.7038 28.0413 11.2306 27.8275 11.668C27.8922 11.3201 27.9369 10.997 27.9717 10.7087C28.0015 10.4205 28.0214 10.1272 28.0214 9.834V9.52584C28.0065 9.43141 27.9965 9.36183 27.9965 9.32207L27.5293 4.10835C27.5293 4.05368 27.5144 3.98906 27.4796 3.91948C27.4498 3.8499 27.4299 3.78529 27.4299 3.73062C27.4299 3.666 27.4448 3.58648 27.4796 3.49205C27.584 3.18887 27.6834 3.03976 27.7778 3.03976C27.8325 3.0497 27.9717 3.38768 28.1953 4.05368C28.419 4.71968 28.5234 5.1173 28.5184 5.24652V5.24155ZM24.8703 3.21372C24.8007 3.31809 24.6914 3.41253 24.5472 3.50199C24.4379 3.5666 24.2937 3.63121 24.1198 3.70576C23.9458 3.77535 23.8116 3.83002 23.7122 3.85984C23.5432 3.92943 23.4091 3.99901 23.3047 4.06362C23.3743 3.94433 23.4687 3.84493 23.583 3.76044C23.6973 3.67594 23.8365 3.60139 23.9955 3.52684C24.2838 3.42246 24.5721 3.31809 24.8653 3.21869L24.8703 3.21372ZM24.8206 4.87376C24.7411 5.04772 24.587 5.18191 24.3534 5.2664C24.0104 5.40059 23.8116 5.49006 23.757 5.52982C23.7321 5.48012 23.7421 5.43042 23.7818 5.37574L23.911 5.24652C23.752 5.18191 23.6725 5.11233 23.6725 5.0328C23.6725 4.99304 23.6874 4.95825 23.7222 4.92346C23.8564 4.70974 23.9508 4.57555 24.0104 4.53082C24.0999 4.45129 24.1894 4.41153 24.2838 4.41153C24.3633 4.45129 24.413 4.48608 24.4279 4.52087C24.4379 4.57555 24.418 4.63022 24.3782 4.68986C24.3385 4.74453 24.3037 4.7992 24.2689 4.84394C24.2391 4.73956 24.1745 4.68986 24.08 4.68986C24.0403 4.68986 24.0104 4.70477 23.9856 4.73956L23.8912 4.84891C23.9955 4.95825 24.1496 5.01789 24.3584 5.01789L24.8256 4.88867L24.8206 4.87376ZM26.4061 4.94334C26.257 4.27734 25.9886 3.62624 25.6059 3L25.258 3.70576C25.3673 3.83996 25.4269 3.98906 25.4269 4.14811L26.1178 9.00398C26.1178 9.06859 26.1178 9.16302 26.1277 9.29225C26.1377 9.42147 26.1377 9.5159 26.1377 9.58051C26.1377 9.70974 26.1228 9.81908 26.0979 9.91849C26.0681 10.0179 26.0234 10.1074 25.9588 10.1869C25.9588 10.1173 25.9588 10.0427 25.9637 9.97316C25.9637 9.90358 25.9687 9.82405 25.9687 9.74453C25.9687 9.49105 25.9488 9.27237 25.914 9.09344C25.8792 8.91451 25.8047 8.75547 25.6953 8.62127L22.1665 4.50596C22.087 4.41153 22.0671 4.33201 22.1069 4.2674C22.1367 4.2674 22.2063 4.29225 22.3106 4.34692C22.415 4.39662 22.4846 4.40159 22.5244 4.35189C22.1118 3.93936 21.6993 3.52684 21.2967 3.10934C21.2321 3.2833 21.1874 3.42247 21.1675 3.52187C21.1427 3.62127 21.1327 3.74056 21.1327 3.87475C21.4409 4.45626 21.8584 5.07753 22.3753 5.7336C22.7331 6.18588 23.2351 6.77236 23.8762 7.48807C24.7261 8.42743 25.2381 8.999 25.417 9.20775C25.5611 9.43141 25.6506 9.59046 25.6904 9.68489C25.7798 9.86878 25.8196 10.0378 25.8196 10.1968C25.8196 10.3012 25.8096 10.3807 25.7947 10.4354C25.5263 10.7684 25.1486 11.0765 24.6615 11.3549C24.3931 11.504 23.9757 11.7227 23.419 12.0109C23.7619 11.9463 24.1248 11.8817 24.5174 11.8072C24.9051 11.7376 25.2182 11.6233 25.4468 11.4742C25.8146 11.0865 26.0731 10.6491 26.2222 10.162C26.3514 9.75447 26.411 9.26242 26.411 8.68091C26.2421 7.35388 26.078 6.02187 25.909 4.68489L25.9786 4.51591L26.3961 4.94334H26.4061ZM20.6804 5.06262C20.6258 5.23161 20.5711 5.3509 20.5263 5.42048C20.4468 5.5497 20.3425 5.6342 20.2182 5.6839C20.1387 5.69881 20.0592 5.71372 19.9796 5.71869C19.915 5.71869 19.8653 5.69881 19.8256 5.65904C19.7609 5.56958 19.7311 5.48012 19.7311 5.38569C19.7311 5.28131 19.7759 5.167 19.8603 5.0328C19.9498 4.90358 20.0293 4.77435 20.1089 4.65507C20.1089 4.70974 20.0691 4.80418 19.9945 4.94334C19.92 5.07754 19.8802 5.17197 19.8802 5.23161C19.8802 5.32107 19.9349 5.39562 20.0492 5.46024C20.1188 5.47515 20.1884 5.47018 20.253 5.43539C20.3176 5.40557 20.3971 5.35586 20.4916 5.29125C20.4916 5.22664 20.4419 5.15209 20.3425 5.07256C20.243 4.98807 20.1933 4.92843 20.1933 4.88867C20.1933 4.834 20.243 4.77932 20.3375 4.71968C20.4021 4.76938 20.4667 4.80915 20.5263 4.84891C20.6158 4.91849 20.6655 4.99304 20.6804 5.06262ZM21.1675 7.12525C21.1128 7.17992 21.0582 7.24453 20.9985 7.31412C20.9091 7.4334 20.8295 7.54771 20.75 7.66203C20.7102 7.60735 20.6059 7.5328 20.4419 7.44334C20.2729 7.35388 20.1933 7.26938 20.1933 7.1998C20.1933 7.16004 20.2182 7.11034 20.2629 7.04572L20.6804 6.59344C20.7749 6.67296 20.8743 6.74752 20.9786 6.82207C21.1079 6.93141 21.1675 7.03578 21.1675 7.13022V7.12525ZM20.0244 3.21372C19.7957 3.2833 19.2391 3.45726 18.3544 3.72565C17.9866 3.83499 17.4349 4.00895 16.6943 4.23757C16.3912 4.33201 16.078 4.43638 15.7599 4.54075C15.4419 4.64513 15.2132 4.79921 15.084 4.99801C16.3265 4.57555 17.6635 4.14314 19.1049 3.69583C19.2391 3.65606 19.3782 3.6163 19.5224 3.57654C19.8007 3.49702 19.9697 3.37276 20.0244 3.20875V3.21372ZM18.5085 5.6342C18.4687 5.77833 18.4389 5.86779 18.424 5.90755C18.3743 6.01193 18.3096 6.07654 18.2202 6.09642C18.1655 6.11133 18.1108 6.09642 18.0512 6.03678C17.9965 5.95726 17.9568 5.90259 17.9319 5.86779C17.922 5.83797 17.922 5.78827 17.922 5.72366C17.922 5.60438 17.9419 5.48012 17.9866 5.35586C18.0313 5.22664 18.086 5.10736 18.1605 4.98807C18.1059 5.1173 18.0761 5.25646 18.0761 5.40557C18.0761 5.55467 18.1059 5.67893 18.1705 5.77336C18.1854 5.79821 18.2102 5.81312 18.2401 5.81312C18.2699 5.81312 18.3047 5.81809 18.3345 5.81809C18.3643 5.77833 18.3941 5.74354 18.419 5.71869C18.4438 5.68887 18.4538 5.65905 18.4538 5.62922H18.5035L18.5085 5.6342ZM19.9051 8.7008C19.9051 8.80517 19.8852 8.90954 19.8504 9.00895C19.8156 9.11332 19.756 9.1829 19.6764 9.22267C19.6069 9.22267 19.5423 9.20278 19.4876 9.15805C19.4329 9.11332 19.3931 9.05368 19.3683 8.97912C19.3434 8.90457 19.3335 8.83499 19.3335 8.77038C19.3335 8.65109 19.3683 8.52187 19.4428 8.37773C19.4428 8.36779 19.5124 8.24851 19.6466 8.00994C19.6367 8.06461 19.6118 8.15905 19.5621 8.29821C19.5124 8.43241 19.4926 8.53181 19.4926 8.59642C19.4926 8.74056 19.5423 8.8499 19.6466 8.92942C19.7162 8.95427 19.7759 8.92942 19.8206 8.85984C19.8653 8.79026 19.8951 8.73559 19.91 8.70577L19.9051 8.7008ZM14.4279 3.06958C14.5224 3.23857 14.5721 3.43738 14.5721 3.66601C14.5721 3.95925 14.4926 4.25745 14.3335 4.56064C14.3633 4.48111 14.3832 4.40656 14.3931 4.33201C14.4031 4.26243 14.4031 4.17296 14.4031 4.06859C14.4031 3.93936 14.4031 3.83996 14.3931 3.76541C14.3832 3.69086 14.3782 3.62127 14.3733 3.55666C14.3733 3.49205 14.3683 3.44234 14.3683 3.40258C14.3683 3.29821 14.3882 3.18887 14.4279 3.06958ZM22.1814 10.6541C21.7987 10.8628 21.4359 11.0219 21.0979 11.1312C20.6705 11.2753 20.2679 11.3449 19.8951 11.3449C19.5472 11.3449 19.2093 11.2803 18.8812 11.1561C18.6526 11.0368 18.4438 10.8777 18.255 10.674C18.0661 10.4702 17.9419 10.2465 17.8772 9.99801C17.8474 10.2068 17.7679 10.4006 17.6486 10.5845C17.5293 10.7684 17.3753 10.8976 17.1814 10.9771C16.9975 11.0318 16.8385 11.0616 16.7043 11.0616C16.5452 11.0616 16.3961 11.0268 16.252 10.9523C16.1725 10.9225 16.0631 10.7833 15.919 10.5348C15.8544 10.4304 15.7947 10.3807 15.7401 10.3807C15.7003 10.3807 15.6605 10.3956 15.6208 10.4304C15.412 10.6839 15.253 10.8579 15.1436 10.9573C14.9448 11.1262 14.7361 11.2058 14.5124 11.2058C14.3037 11.2058 14.1148 11.1163 13.9458 10.9423C13.7768 10.7684 13.6576 10.5746 13.5929 10.3559C13.5134 9.7495 13.4588 9.04374 13.4339 8.22863C13.4041 7.41352 13.3743 6.59841 13.3444 5.7833C13.3146 4.96819 13.2401 4.25745 13.1307 3.65606L13.4985 3C13.6327 3.58151 13.7172 4.33201 13.747 5.25646C13.757 6.04175 13.7669 6.85686 13.7768 7.69185C13.7868 8.52684 13.8564 9.24751 13.9856 9.84891C14.0403 9.95825 14.1198 10.0626 14.2192 10.1571C14.3186 10.2515 14.418 10.3161 14.5124 10.3459C14.6069 10.3757 14.6864 10.3956 14.751 10.3956C14.9597 10.3956 15.1834 10.2863 15.4319 10.0626C15.75 9.77435 15.9588 9.61531 16.0532 9.58549C16.0035 9.67495 15.9836 9.74453 15.9836 9.7992C15.9836 9.88867 16.0234 9.96322 16.0979 10.0328C16.1725 10.1024 16.2719 10.1571 16.3912 10.2068C16.5104 10.2565 16.6397 10.2763 16.7739 10.2763C17.0522 10.2763 17.2908 10.1869 17.4896 10.0129C17.6735 9.86879 17.7629 9.68489 17.7629 9.45129C17.7629 9.33201 17.7083 9.0835 17.5939 8.7008C17.5393 8.51193 17.5095 8.35785 17.5095 8.24851C17.5343 8.11431 17.5691 7.98509 17.6238 7.86083C17.6735 7.73658 17.743 7.60736 17.8226 7.47316C17.8524 7.56262 17.9369 7.99503 18.0711 8.77535C18.2401 9.71968 18.6476 10.2863 19.2987 10.4702C19.5224 10.5248 19.751 10.5547 19.9896 10.5547C20.3375 10.5547 20.7152 10.495 21.1128 10.3757C21.4011 10.2863 21.744 10.1471 22.1516 9.95825C22.1019 9.77435 22.0423 9.61531 21.9727 9.48111C21.9031 9.34692 21.8285 9.21272 21.759 9.07356L22.1168 8.53678C22.251 8.68091 22.3454 8.83499 22.4051 9.00895C22.4597 9.17793 22.4896 9.3668 22.4896 9.56561C22.4896 9.96322 22.3902 10.331 22.1914 10.664L22.1814 10.6541ZM16.8136 6.31014C16.8136 6.31014 16.754 6.27038 16.6595 6.19085C16.6049 6.15109 16.5502 6.13618 16.5055 6.14115C16.3166 6.23559 16.1774 6.41948 16.0979 6.68787C16.0582 6.83201 16.0035 7.05069 15.9289 7.34394C15.8991 7.28926 15.8395 7.15507 15.7599 6.95129C15.6506 6.67296 15.5363 6.46421 15.4269 6.33002C15.3574 6.31511 15.2778 6.35984 15.1884 6.45924C15.1486 6.52386 15.1287 6.57853 15.1287 6.62823C15.1287 6.72267 15.1735 6.79722 15.258 6.85686C15.2828 6.87177 15.3673 6.90656 15.5065 6.9662C15.5214 6.99603 15.5959 7.16501 15.7202 7.46819C15.7749 7.60238 15.8246 7.69682 15.8643 7.75646C15.9687 7.62724 16.0482 7.41352 16.1029 7.11034C16.1576 6.80716 16.2321 6.59344 16.3315 6.46421C16.3713 6.43936 16.411 6.43439 16.4508 6.45427C16.4906 6.46918 16.5353 6.48906 16.58 6.51392C16.6496 6.56859 16.6993 6.57356 16.7242 6.51889C16.749 6.46919 16.7739 6.3996 16.8087 6.31014H16.8136ZM11.6943 3.5666L11.6248 3.79523C11.426 3.74553 11.3017 3.88469 11.247 4.21272C11.1973 4.54076 11.1277 4.74453 11.0482 4.834C11.0333 4.81909 10.9488 4.65507 10.7997 4.34692C10.6953 4.13817 10.5512 4.04374 10.3723 4.05865C10.3027 4.02883 10.2629 3.97913 10.2629 3.91451C10.2629 3.87475 10.2729 3.83002 10.2928 3.77535C10.3126 3.72564 10.3375 3.66103 10.3723 3.59145C10.412 3.55169 10.4468 3.53181 10.4816 3.53181C10.5164 3.53181 10.5512 3.54175 10.591 3.5666C10.6854 3.67594 10.7798 3.82008 10.8792 3.99404C10.9339 4.09841 11.0085 4.25249 11.1079 4.46123C11.1625 4.20775 11.2073 4.01392 11.2371 3.87475C11.3067 3.62624 11.4061 3.50696 11.5353 3.50696C11.585 3.50696 11.6397 3.52684 11.7043 3.5666H11.6943ZM18.8166 12.1799C18.6427 12.4085 18.4588 12.6123 18.2699 12.7863C18.081 12.6421 17.8872 12.498 17.6983 12.3588C17.7381 12.2793 17.7928 12.1998 17.8673 12.1203C17.8971 12.0805 18.0313 11.9612 18.2599 11.7624C18.4588 11.8817 18.6476 12.0209 18.8216 12.1799H18.8166ZM11.5651 5.26143C11.5949 5.33102 11.585 5.40557 11.5353 5.47515C11.4856 5.54473 11.4309 5.61431 11.3763 5.67893C11.247 5.76839 11.1079 5.83797 10.9588 5.89761C10.8097 5.95726 10.6705 5.98708 10.5413 5.98708C10.6059 5.92247 10.7003 5.86282 10.8295 5.80815C11.1079 5.67893 11.2768 5.58946 11.3415 5.53479C11.247 5.50497 11.1725 5.48509 11.1128 5.47515C11.0582 5.46521 10.9935 5.46521 10.924 5.46521C10.7649 5.46521 10.6307 5.50994 10.5164 5.59443C10.5413 5.4503 10.6009 5.3509 10.6953 5.29622C10.7898 5.24155 10.914 5.21173 11.0631 5.21173C11.1675 5.21173 11.257 5.2167 11.3315 5.23161C11.4061 5.24155 11.4856 5.25149 11.5651 5.26143ZM16.7043 12.4284L16.0234 12.9155L15.5711 12.5825L15.084 13C14.9548 12.9702 14.8256 12.9105 14.6963 12.8211C14.5671 12.7316 14.4677 12.6421 14.4031 12.5477C14.4429 12.5229 14.5423 12.4185 14.7013 12.2396C14.8106 12.1103 14.925 12.0557 15.0343 12.0706C15.2331 12.1799 15.4319 12.2893 15.6307 12.3936L16.0731 11.9165C16.2172 12.0258 16.3613 12.1352 16.5005 12.2445C16.6397 12.3539 16.7093 12.4135 16.7043 12.4284ZM12.6834 9.70974L12.1566 10.331C11.4309 10.674 10.7152 11.0119 9.99951 11.3449C10.089 11.2008 10.1784 11.0567 10.2729 10.9026C10.3922 10.7435 10.5214 10.6243 10.6556 10.5447C10.5065 10.4404 10.412 10.3757 10.3822 10.3559C10.2878 10.2763 10.2132 10.1869 10.1685 10.0825C10.2381 9.75447 10.3971 9.45129 10.6407 9.16799C10.8842 8.88469 11.1576 8.71074 11.4707 8.65109C11.6844 8.65109 11.8385 8.76044 11.9379 8.97416C11.9379 9.10338 11.8882 9.22763 11.7888 9.35686C11.6894 9.48608 11.59 9.60537 11.4955 9.71471C11.4856 9.64513 11.4458 9.57058 11.3713 9.49602C11.2967 9.42147 11.2122 9.36183 11.1277 9.32207C11.0582 9.31213 10.9836 9.33201 10.9091 9.37177C10.8345 9.41153 10.7749 9.44135 10.7351 9.4662C10.8444 9.6501 11.0035 9.7843 11.2122 9.87873C11.421 9.96819 11.6446 10.0179 11.8931 10.0179C12.077 9.95328 12.2112 9.90855 12.3007 9.88867C12.4448 9.83897 12.5741 9.7843 12.6933 9.71968L12.6834 9.70974Z" fill="currentColor"/>
</svg>
