<svg width="40" height="16" viewBox="0 0 40 16" fill="none" xmlns="http://www.w3.org/2000/svg">
<path fill-rule="evenodd" clip-rule="evenodd" d="M31.8331 9.81166C31.8331 10.1411 31.7993 10.4451 31.736 10.7196C31.6727 10.9941 31.5671 11.2601 31.4277 11.5262C31.4488 11.3235 31.4657 11.1292 31.4784 10.9476C31.4911 10.7661 31.4995 10.6014 31.4995 10.462C31.4995 10.3395 31.4995 10.2466 31.4911 10.1791C31.4826 10.1115 31.47 10.0101 31.4488 9.875L30.7183 4.20778C30.7098 4.13176 30.7056 4.06841 30.7014 4.01351C30.7014 3.95861 30.6972 3.91638 30.6972 3.8826C30.6972 3.70101 30.7225 3.54055 30.7732 3.40119C30.8238 3.26183 30.9125 3.13091 31.0434 3C31.225 3.3125 31.3813 3.6419 31.5164 3.99663C31.6473 4.35136 31.7402 4.69764 31.7951 5.03548C31.7402 5.00169 31.6853 4.94679 31.622 4.875C31.5333 4.76098 31.4488 4.64274 31.3686 4.52027L31.2673 4.64274L31.2461 4.62162V4.97635L31.8331 9.81166ZM27.2808 3.09291C27.2808 3.23649 27.2216 3.33362 27.0992 3.38852C26.4784 3.64612 26.0139 3.83615 25.7098 3.96706C25.1693 4.19511 24.7132 4.40625 24.3416 4.59628C24.4176 4.3598 24.6161 4.17821 24.9412 4.05574C25.2664 3.92905 25.5747 3.81081 25.8745 3.69679C26.1026 3.59544 26.339 3.49408 26.5755 3.39273C26.9007 3.24915 27.1372 3.15203 27.285 3.09713L27.2808 3.09291ZM27.2597 6.92315C27.2597 7.1343 27.1752 7.28632 27.0063 7.37922C26.9514 7.38767 26.9049 7.37078 26.8627 7.32855C26.8205 7.28632 26.7951 7.23987 26.7825 7.18497C26.7825 6.98227 26.8247 6.75845 26.9134 6.51774C26.9598 6.39106 27.0105 6.25592 27.0654 6.12078C27.0907 6.1968 27.0738 6.31503 27.0105 6.48395C26.9472 6.65287 26.9134 6.77111 26.9134 6.83868C26.9134 6.96115 26.9725 7.04139 27.095 7.08362C27.1076 7.07095 27.1287 7.03716 27.1625 6.98649C27.1963 6.93581 27.2259 6.9147 27.2597 6.91892V6.92315ZM26.4573 5.25929C26.47 5.30152 26.4657 5.35219 26.4362 5.41131C26.4108 5.47044 26.3939 5.50423 26.3939 5.51267C26.3137 5.47045 26.2335 5.43243 26.149 5.3902C26.1279 5.3902 26.1026 5.39865 26.0688 5.41977C25.9928 5.51267 25.9421 5.71115 25.9167 6.01098C25.8914 6.31081 25.8238 6.50084 25.7225 6.57263C25.6 6.30236 25.4987 6.10811 25.4184 5.99409C25.3382 5.88007 25.2326 5.82094 25.1059 5.82094C25.0384 5.77449 24.9792 5.71115 24.9243 5.63936C24.9455 5.54645 24.9624 5.462 24.975 5.39443C24.9877 5.32686 25.0299 5.28463 25.0975 5.27196C25.2411 5.31419 25.3635 5.42399 25.4733 5.60558C25.5874 5.8294 25.6718 5.98564 25.7267 6.08277C25.7394 6.05743 25.7858 5.8843 25.8576 5.56758C25.9125 5.34376 26.0012 5.19172 26.1321 5.11149C26.2799 5.0777 26.3897 5.12415 26.4573 5.25507V5.25929ZM24.5907 7.14274C24.5907 7.25676 24.5738 7.36234 24.5401 7.45102C24.5063 7.54392 24.4472 7.60727 24.3585 7.6495C24.2318 7.61572 24.1473 7.53125 24.1135 7.39612C24.1135 7.07939 24.1938 6.79646 24.3585 6.55575C24.3585 6.58953 24.3458 6.64866 24.3162 6.72889C24.2571 6.90626 24.2233 7.0245 24.2233 7.08362C24.2233 7.19764 24.2656 7.28632 24.3542 7.34544C24.4218 7.36656 24.4725 7.337 24.5063 7.26521C24.5401 7.18919 24.5654 7.15118 24.5865 7.14274H24.5907ZM21.6727 4.36403C21.6473 4.45693 21.5713 4.5076 21.4488 4.5076C21.3939 4.5076 21.339 4.49916 21.2884 4.47804L21.2673 4.43581C21.2124 4.51182 21.1701 4.56672 21.1406 4.60473C21.111 4.64273 21.0772 4.65963 21.0434 4.65963C20.9421 4.65963 20.8576 4.64697 20.7943 4.61741C20.7309 4.59207 20.6887 4.53717 20.6676 4.45693C20.6803 4.26267 20.6972 4.09375 20.7183 3.95861C20.7394 3.82348 20.7943 3.71791 20.8787 3.64611C20.8872 3.70101 20.8787 3.78125 20.8492 3.89527C20.8238 4.00507 20.8069 4.08108 20.8069 4.12331C20.8069 4.19088 20.8196 4.25 20.8492 4.29646C20.8956 4.35135 20.9463 4.37669 21.0012 4.37669C21.0477 4.37669 21.0983 4.3598 21.1532 4.32602C21.1997 4.27957 21.225 4.20778 21.225 4.11487C21.225 4.07264 21.225 4.03041 21.2166 3.98396C21.2081 3.93751 21.2039 3.89104 21.1955 3.84037C21.1955 3.7728 21.2208 3.71368 21.2673 3.65878C21.3095 3.70101 21.3264 3.76013 21.3264 3.84037C21.3137 3.96283 21.3053 4.0473 21.3053 4.09375C21.3053 4.20355 21.3644 4.25422 21.4868 4.25422C21.5629 4.22044 21.5966 4.17399 21.5966 4.11064C21.5966 4.08531 21.5882 4.03463 21.5671 3.96706C21.546 3.8995 21.5375 3.84881 21.5375 3.81503C21.5375 3.74746 21.5671 3.69256 21.6304 3.65456C21.6558 3.69679 21.6811 3.75169 21.7022 3.8277C21.7233 3.90371 21.7318 3.97129 21.7318 4.03041C21.7318 4.11909 21.7107 4.22889 21.6727 4.36403ZM21.7951 5.89274C21.736 6.04899 21.6853 6.16301 21.6515 6.23903C21.5924 6.36572 21.508 6.46284 21.4066 6.52196C21.3179 6.52196 21.2166 6.47973 21.1026 6.39949C20.9463 6.28547 20.8492 6.22213 20.8069 6.20524C20.8069 6.09544 20.8576 5.98565 20.959 5.8674C21.0603 5.74916 21.1617 5.63513 21.263 5.52956C21.3517 5.57601 21.4404 5.62246 21.5375 5.66047C21.6304 5.71537 21.7149 5.79139 21.7909 5.89274H21.7951ZM19.1684 4.58362C19.1093 4.60895 19.0586 4.62584 19.0249 4.63429C18.9911 4.64273 18.9615 4.63429 18.9319 4.61318C18.8433 4.5245 18.801 4.41893 18.801 4.30068C18.801 4.22467 18.8179 4.14443 18.8517 4.05574C18.9108 3.92061 18.9742 3.78125 19.0333 3.64189C19.0333 3.67567 19.0164 3.75592 18.9826 3.87839C18.9488 4.00508 18.9319 4.08109 18.9319 4.11487C18.9319 4.22889 18.9911 4.30912 19.1051 4.3598C19.1727 4.35135 19.2318 4.28378 19.2782 4.15709C19.2909 4.19932 19.2951 4.24155 19.2825 4.29223C19.274 4.3429 19.2318 4.44003 19.1642 4.57939L19.1684 4.58362ZM20.7816 7.66638C20.7816 7.77618 20.7647 7.86909 20.7352 7.95355C20.7056 8.03801 20.6507 8.11825 20.5789 8.19004C20.5113 8.20271 20.4564 8.17737 20.41 8.1098C20.3678 8.04223 20.334 7.99155 20.3129 7.95777C20.3002 7.91131 20.2917 7.84376 20.2917 7.75507C20.2917 7.57771 20.3382 7.40033 20.4353 7.21875C20.5113 7.07517 20.6254 6.92315 20.7816 6.75423C20.6591 7.03295 20.5367 7.30744 20.4184 7.58616C20.4184 7.70018 20.4733 7.80997 20.5789 7.91132C20.6338 7.89865 20.676 7.85642 20.7056 7.78885C20.7352 7.72128 20.7605 7.67905 20.7816 7.66638ZM17.834 3.51943C17.8551 3.55321 17.8551 3.59967 17.834 3.66301C17.8129 3.72213 17.8002 3.76858 17.7917 3.79392L17.4666 3.65034C17.4075 3.77281 17.3568 3.91639 17.3145 4.08531C17.2048 4.53294 17.1414 4.7821 17.1203 4.837C17.0443 4.7821 16.9598 4.63429 16.8669 4.3978C16.774 4.15709 16.66 4.03885 16.5333 4.03885C16.4911 4.03885 16.4615 4.03886 16.4404 4.0473C16.3939 4.00507 16.3686 3.95017 16.3686 3.87416C16.3897 3.74747 16.4024 3.65879 16.4108 3.61234C16.4319 3.587 16.4531 3.55321 16.4826 3.51943C16.6389 3.587 16.774 3.72635 16.888 3.93327C16.9767 4.11486 17.0654 4.29646 17.1499 4.4696C17.1836 4.27957 17.2216 4.08109 17.2597 3.87839C17.3019 3.67146 17.3737 3.50676 17.4835 3.37585C17.5426 3.3674 17.6017 3.38429 17.6608 3.41807C17.72 3.45185 17.7749 3.48565 17.8298 3.51943H17.834ZM19.3754 6.04476C19.3078 6.1799 19.2613 6.27703 19.2318 6.34037C19.1727 6.45439 19.0966 6.53886 19.008 6.59376C18.9066 6.58531 18.7968 6.55152 18.6828 6.48395C18.5054 6.39105 18.4041 6.33615 18.3703 6.32348C18.3914 6.22213 18.4463 6.1081 18.5308 5.97719C18.5561 5.93496 18.6406 5.82517 18.7841 5.64359C18.9066 5.69004 19.0291 5.73649 19.16 5.78717C19.3036 5.85473 19.3711 5.94341 19.3711 6.04899L19.3754 6.04476ZM30.8787 10.1495C30.8534 10.027 30.8196 9.9299 30.7858 9.84966C30.7521 9.77365 30.6972 9.70186 30.6254 9.64274C30.4776 9.52028 30.3002 9.46115 30.0975 9.46115C29.9708 9.46115 29.8146 9.48649 29.633 9.53717C29.4514 9.58784 29.2825 9.63429 29.1262 9.67229C28.97 8.90794 28.8179 8.14359 28.6701 7.37078C28.8644 7.24831 29.0502 7.10895 29.2276 6.95692C29.3542 6.8429 29.5189 6.67821 29.7132 6.47129C29.7385 6.50507 29.7681 6.53463 29.7934 6.56419C29.8188 6.58953 29.8526 6.6022 29.8863 6.59376C29.8863 6.58109 29.9032 6.54308 29.937 6.47551C29.9708 6.41217 29.975 6.35727 29.9455 6.31926C29.9032 6.27703 29.8863 6.23479 29.8863 6.18834C29.8863 6.15456 29.9032 6.09544 29.937 6.00676C29.9708 5.91807 29.9877 5.85051 29.9877 5.80406C29.9877 5.75761 29.975 5.71116 29.9539 5.67315C29.9286 5.63092 29.9075 5.59291 29.8863 5.55068C29.8441 5.48311 29.7977 5.44932 29.7428 5.44932C29.7174 5.44932 29.6625 5.46622 29.5823 5.49578C29.5021 5.52534 29.4176 5.58868 29.3331 5.67736C29.2487 5.77027 29.198 5.87163 29.1769 5.98565C29.2445 6.13345 29.3627 6.25591 29.5316 6.34882C29.4852 6.46284 29.3965 6.5853 29.2613 6.70777C29.1304 6.83446 28.9235 6.98227 28.649 7.15963L28.2436 4.837L28.3534 4.56251L28.8306 5.11149C28.7546 4.75253 28.6068 4.31757 28.383 3.80236C28.3745 3.78125 28.2605 3.52366 28.0367 3.03379C27.9438 3.09291 27.8593 3.20271 27.7833 3.35896C27.7495 3.43919 27.6946 3.56165 27.6228 3.72212C27.7242 4.3429 27.8298 4.98902 27.9438 5.65625C28.0578 6.32348 28.1634 6.91048 28.2647 7.40879C28.2225 7.45102 28.0874 7.54393 27.8509 7.69173C27.6904 7.79308 27.5806 7.89443 27.5257 7.99579C27.5468 7.98734 27.6735 7.91977 27.91 7.78464C28.0536 7.7044 28.176 7.66217 28.2858 7.66217C28.2943 7.7044 28.3703 8.15626 28.5181 9.02197C28.5603 9.24578 28.5941 9.51183 28.6279 9.82433C27.9522 10.1284 27.2597 10.3395 26.5502 10.462C26.7993 10.2002 26.9894 9.94679 27.1161 9.70186C27.2723 9.40625 27.3483 9.10642 27.3483 8.81082C27.2343 8.6419 27.0654 8.49409 26.8416 8.36318C26.6727 8.26183 26.47 8.16892 26.2335 8.08868C25.997 7.97466 25.7647 7.91555 25.5325 7.91555C25.0806 7.91555 24.5612 8.21115 23.97 8.79815C23.4632 9.3049 23.1845 9.5794 23.138 9.61741L23.1591 9.37247C23.2267 9.12331 23.2774 8.87838 23.3069 8.63767C23.3365 8.39696 23.3534 8.1478 23.3534 7.88176C23.2267 6.75845 23.0958 5.63514 22.9691 4.5076L23.0409 4.37669L23.4041 4.92568C23.4125 4.90034 23.4125 4.85389 23.4125 4.79476C23.2183 4.21199 23.0198 3.62923 22.8255 3.04223C22.7242 3.13514 22.6566 3.20693 22.627 3.25338C22.5975 3.29983 22.5215 3.44764 22.399 3.70102C22.4581 4.01352 22.5595 4.48649 22.6946 5.12838C22.7875 5.65625 22.8382 6.13345 22.8382 6.56842C22.8382 6.77112 22.8593 7.04562 22.8973 7.38768C22.986 8.14359 23.0282 8.62077 23.0282 8.81503C23.0282 9.00929 23.0198 9.17822 22.9987 9.33869C22.9776 9.49916 22.9396 9.65541 22.8804 9.81166C22.8213 9.96791 22.7326 10.1199 22.6102 10.272C22.4877 10.424 22.3314 10.5549 22.1456 10.6605C21.85 10.6605 21.6811 10.6014 21.6473 10.4873C21.7233 10.2424 21.7993 9.99747 21.8796 9.74832C21.9387 9.55406 21.9725 9.3767 21.9725 9.22045C21.9725 9.0642 21.9429 8.94172 21.8796 8.83193C21.8162 8.72213 21.7613 8.63767 21.7022 8.58277C21.6431 8.52787 21.5713 8.50253 21.4826 8.50253C21.1194 8.71368 20.8323 8.98818 20.6296 9.33446C20.4269 9.68075 20.3255 10.0439 20.3255 10.4282C20.2157 10.4704 20.1017 10.5042 19.975 10.5296C19.8483 10.5549 19.7343 10.5718 19.6245 10.5718C19.5316 10.5718 19.4345 10.5634 19.3416 10.5422C19.3965 10.3395 19.4556 10.1242 19.5189 9.90034C19.5823 9.6723 19.6161 9.47382 19.6161 9.29646C19.6161 9.21622 19.6076 9.13176 19.595 9.0473C19.5823 8.96284 19.5569 8.88261 19.5232 8.81082C19.4683 8.70947 19.4049 8.63344 19.3247 8.57855C19.2487 8.52365 19.1515 8.51099 19.0375 8.53633C18.6997 8.74747 18.4379 9.03464 18.2563 9.40626C18.0747 9.77788 17.9818 10.1664 17.9818 10.5718C17.9142 10.6309 17.8298 10.6563 17.7284 10.6436C17.4117 10.5549 17.1879 10.3902 17.0612 10.1453C16.9683 9.96369 16.9176 9.69763 16.9176 9.3429C16.9176 9.1951 16.9303 8.96285 16.9598 8.65457C16.9852 8.34207 17.002 8.11403 17.002 7.96622C17.002 7.75085 16.9852 7.57349 16.9514 7.43835C16.8754 7.47213 16.8162 7.55659 16.7698 7.6875C16.7233 7.81842 16.6853 7.90287 16.66 7.93666C16.5671 8.09291 16.4404 8.20692 16.2841 8.27449C16.1279 8.34628 15.9547 8.38006 15.7689 8.38006C15.714 8.38006 15.6338 8.37162 15.524 8.35896C15.41 8.31673 15.3002 8.2745 15.1946 8.23227C15.089 8.19004 15.0468 8.08868 15.0679 7.93243C14.9328 8.02534 14.8399 8.12669 14.7892 8.23649C14.7385 8.34628 14.7132 8.46453 14.7132 8.59967C14.7132 8.68835 14.7132 8.7517 14.7216 8.78548C14.7301 8.82349 14.747 8.89528 14.7723 9.0093C14.7977 9.11909 14.8526 9.31334 14.9328 9.58362C14.9877 9.79899 15.013 9.99747 15.013 10.1833C14.5401 10.6014 14.0797 10.935 13.6363 11.1884C13.138 11.4713 12.6186 11.6782 12.0865 11.8049C11.8289 11.8725 11.5924 11.9063 11.377 11.9063C10.6549 11.9063 10.0679 11.6444 9.62451 11.125C9.43448 10.8209 9.34157 10.4789 9.34157 10.103C9.34157 9.87501 9.37536 9.63007 9.44715 9.37669C9.51894 9.12332 9.60762 8.87839 9.71742 8.6419C9.50205 8.96707 9.33313 9.27956 9.21066 9.58362C9.06708 9.94679 8.99951 10.31 8.99951 10.6689C8.99951 10.69 8.99951 10.728 9.00373 10.7872C9.00373 10.8463 9.00796 10.897 9.00796 10.9434C9.00796 11.2264 9.08397 11.4882 9.23178 11.7289C9.37958 11.9696 9.58651 12.1681 9.84833 12.3328C10.2748 12.5566 10.7309 12.6664 11.2166 12.6664C11.7825 12.6664 12.3906 12.5144 13.0325 12.2103C13.5477 11.9654 14.0797 11.6318 14.633 11.2052C14.8906 10.9687 15.0721 10.7111 15.1862 10.4282C15.296 10.1495 15.3551 9.83277 15.3551 9.48227V9.33446C15.3551 9.28379 15.3551 9.23311 15.3466 9.18665C15.6296 9.13176 15.8618 9.05997 16.0477 8.97551C16.2926 8.86149 16.4742 8.70101 16.5966 8.49831C16.6389 8.6799 16.6558 8.87838 16.6558 9.08531C16.6473 9.24156 16.6431 9.39781 16.6346 9.54984C16.6262 9.70609 16.6262 9.85811 16.6262 10.0059C16.6262 10.2762 16.6515 10.5084 16.698 10.7069C16.7444 10.9012 16.8374 11.0743 16.9767 11.2179C17.1161 11.3615 17.285 11.4375 17.4877 11.4375C17.6313 11.4375 17.8044 11.3995 18.0156 11.3277C18.1296 11.2855 18.2943 11.2264 18.5139 11.1461C18.6279 11.2221 18.7546 11.277 18.8897 11.315C19.0249 11.353 19.1642 11.3699 19.3036 11.3699C19.5316 11.3699 19.7892 11.3277 20.0722 11.2475C20.2284 11.201 20.4649 11.1208 20.7816 11.0025C21.0181 11.1377 21.2673 11.2348 21.5333 11.2897C21.7951 11.3488 22.0823 11.3742 22.3863 11.3742C22.6313 11.3742 23.2056 11.3193 24.1178 11.2137C24.5147 11.1672 24.8483 11.1419 25.1102 11.1419C25.3551 11.201 25.5916 11.2348 25.8196 11.2348C26.2715 11.2348 26.8754 11.0912 27.6228 10.7998C28.1549 10.5887 28.497 10.462 28.6448 10.4155C28.7461 10.4747 28.8475 10.652 28.9488 10.9392C29.0502 11.2263 29.1642 11.4206 29.2867 11.5262C29.4134 11.6318 29.5147 11.6951 29.595 11.7247C29.6752 11.75 29.7554 11.7669 29.8399 11.7669C29.9075 11.7669 29.9708 11.7584 30.0341 11.7373C30.2622 11.5769 30.448 11.3319 30.5831 11.0068C30.676 10.7238 30.7774 10.4367 30.8787 10.1453V10.1495ZM15.8787 3.12668C15.8323 3.28293 15.6887 3.39274 15.448 3.4603C15.2073 3.52787 15.0553 3.58699 14.9877 3.64189C14.2782 3.89104 13.7461 4.08109 13.3956 4.20778C12.7537 4.44426 12.2385 4.68497 11.8458 4.92568C11.8331 4.89189 11.8331 4.85388 11.8458 4.81587C11.9049 4.72297 11.9471 4.65541 11.9683 4.61318C12.3652 4.41048 12.8424 4.19933 13.3956 3.98396C14.0291 3.7348 14.8568 3.44764 15.8787 3.12247V3.12668ZM14.9159 6.20946C14.9286 6.2348 14.937 6.26858 14.937 6.31081C14.937 6.35304 14.9201 6.40372 14.8906 6.47129C14.861 6.53885 14.8399 6.5853 14.823 6.61486C14.7892 6.6402 14.7554 6.66554 14.7216 6.69088C14.6879 6.71621 14.6625 6.72467 14.6499 6.72467C14.6245 6.72467 14.595 6.71199 14.5696 6.68243C14.4936 6.56841 14.4598 6.4375 14.4598 6.28547C14.4598 6.15878 14.4894 6.01098 14.5527 5.85051C14.595 5.73649 14.6583 5.60557 14.747 5.45355C14.7005 5.58868 14.671 5.69003 14.6541 5.7576C14.6203 5.88429 14.6034 5.99408 14.6034 6.08277C14.6034 6.2179 14.6414 6.33192 14.7132 6.42905C14.7596 6.42061 14.8019 6.39527 14.8357 6.34882C14.8441 6.34037 14.8694 6.29392 14.9159 6.20524V6.20946ZM14.1051 4.84122C14.0924 4.90879 14.0333 4.94257 13.9319 4.94257C13.7884 4.94257 13.7039 4.95524 13.6786 4.9848C13.6532 5.01014 13.6448 5.06926 13.6575 5.15795C13.6575 5.43666 13.5941 5.65625 13.4632 5.82517C13.3492 5.58868 13.2352 5.3522 13.1169 5.11571C13.0916 5.16217 13.0662 5.1875 13.0451 5.1875C13.024 5.1875 12.9944 5.17483 12.948 5.15372C12.9058 5.12838 12.8804 5.08614 12.8804 5.02702C12.8804 4.98479 12.8889 4.9468 12.9015 4.90457C12.9142 4.86234 12.9311 4.82011 12.9522 4.77365C13.0198 4.71876 13.062 4.69763 13.0831 4.71453C13.1591 4.77365 13.2225 4.86233 13.2774 4.97635C13.4252 5.27196 13.5096 5.43666 13.5308 5.462C13.5645 5.25085 13.5983 5.07348 13.6279 4.9299C13.6575 4.78632 13.7377 4.68074 13.8644 4.62162C13.9446 4.64696 14.0164 4.67229 14.0755 4.69763C14.1346 4.72297 14.1431 4.76942 14.0966 4.84544L14.1051 4.84122ZM21.3602 11.826C21.3728 11.8809 21.3602 11.9358 21.3137 11.9949C21.2715 12.0541 21.2166 12.0963 21.1575 12.1301L19.3542 12.8818C19.4556 12.7551 19.5865 12.6411 19.7428 12.5439C19.9032 12.4468 20.0764 12.3581 20.2706 12.2863C20.4649 12.2145 20.6042 12.1596 20.6929 12.1259C20.9759 12.0161 21.1997 11.9189 21.3602 11.8302V11.826ZM12.9058 7.10473C12.8846 7.13007 12.8509 7.18919 12.8002 7.27787C12.7495 7.36656 12.7031 7.4299 12.6651 7.47213C12.551 7.43834 12.4328 7.38344 12.3103 7.31165C12.1879 7.23986 12.0738 7.16385 11.964 7.08784C11.9894 6.97382 12.0485 6.85136 12.1372 6.72467C12.2512 6.58109 12.3357 6.4755 12.3906 6.39949C12.4243 6.44172 12.5088 6.4924 12.6439 6.55996C12.8889 6.68243 13.0071 6.78801 13.0071 6.88514C13.0071 6.96115 12.9733 7.03295 12.9058 7.10896V7.10473ZM10.9505 4.52027C10.9252 4.71031 10.6718 5.23817 10.1904 6.09966C9.97924 6.47973 9.87789 6.79223 9.87789 7.04139C9.87789 7.19764 9.90323 7.337 9.95813 7.46791C10.013 7.5946 10.1017 7.72973 10.2326 7.87332C10.3002 7.87332 10.3678 7.83531 10.4311 7.75507C10.4944 7.67906 10.5662 7.58615 10.638 7.4848C10.562 7.7804 10.4987 7.99156 10.4438 8.11403C10.3424 8.34207 10.2073 8.52365 10.0384 8.65034C9.92434 8.65034 9.82721 8.61656 9.7512 8.54477C9.67519 8.47298 9.6034 8.37585 9.54428 8.25761C9.50205 8.06335 9.48515 7.87754 9.48515 7.70017C9.48515 7.29477 9.58651 6.86825 9.78921 6.42484C9.83566 6.32349 10.2242 5.69004 10.9547 4.52027H10.9505ZM16.888 12.2314C16.888 12.2314 16.7909 12.3708 16.6558 12.5862C16.5629 12.7424 16.4488 12.8184 16.3221 12.8184C16.1279 12.6959 16.0139 12.6284 15.9885 12.6157C15.8618 12.5481 15.7394 12.5144 15.6254 12.5144C15.5578 12.6157 15.4987 12.7002 15.4438 12.7677C15.3678 12.8691 15.3002 12.9451 15.2326 13C15.1397 12.9873 15.0426 12.9578 14.9497 12.9071C14.6667 12.7635 14.5105 12.6917 14.4852 12.6833C14.5316 12.5566 14.6161 12.413 14.7385 12.2568C14.8145 12.1639 14.8821 12.0794 14.9412 12.0118L15.6591 12.3581L16.225 11.902L16.8923 12.2272L16.888 12.2314ZM12.2681 9.22045C12.2554 9.2669 12.1879 9.29646 12.0654 9.30068C11.9429 9.30913 11.8838 9.35979 11.8838 9.46115C11.85 9.7103 11.8289 9.85812 11.8247 9.89612C11.7993 10.065 11.7656 10.2086 11.7318 10.3226C11.6769 10.2762 11.5882 10.1199 11.47 9.85811C11.4151 9.73564 11.3517 9.63429 11.2757 9.55405C11.263 9.59628 11.2335 9.61318 11.1955 9.61318C11.1279 9.59206 11.0772 9.58362 11.0434 9.58362C10.9759 9.52872 10.9421 9.45693 10.9421 9.37247C10.9421 9.33868 10.959 9.25422 10.9928 9.11909C11.0012 9.09375 11.0265 9.07687 11.073 9.07687C11.1152 9.07687 11.149 9.08531 11.1743 9.09798C11.2968 9.19933 11.4024 9.32602 11.4868 9.48227C11.5797 9.67652 11.6515 9.82011 11.698 9.90879C11.7402 9.68497 11.7782 9.49493 11.8162 9.3429C11.8542 9.18665 11.9345 9.07264 12.0654 8.99663C12.2259 8.99663 12.3103 9.03886 12.3103 9.12754C12.3103 9.15288 12.2977 9.18666 12.2681 9.22045ZM29.7512 6.0701C29.7048 6.07854 29.6499 6.05744 29.595 6.01098C29.5358 5.96453 29.4852 5.91808 29.4387 5.8674C29.4472 5.84629 29.4978 5.80828 29.5992 5.7576C29.6752 5.76605 29.7132 5.79983 29.7216 5.85895C29.7301 5.91807 29.7385 5.98986 29.7512 6.0701ZM30.4522 10.8125C30.3171 10.9139 30.1819 10.9645 30.0468 10.9645C29.9708 10.9645 29.9075 10.9519 29.8526 10.9223C29.5823 10.7872 29.4007 10.5718 29.3036 10.272C29.4176 10.2255 29.5485 10.2002 29.7005 10.2002C29.8526 10.2002 29.9961 10.234 30.1144 10.2973C30.2368 10.3606 30.3298 10.4662 30.3973 10.6056C30.41 10.6394 30.4227 10.6731 30.4396 10.7027C30.4522 10.7323 30.4564 10.7703 30.448 10.8083L30.4522 10.8125ZM26.8754 9.62585C26.5502 9.88767 26.1152 10.0946 25.5662 10.2424C25.0806 10.3437 24.595 10.4451 24.1178 10.5465L22.589 10.728C22.5975 10.6858 22.8973 10.3818 23.4928 9.81589C24.0586 9.27535 24.3923 8.96706 24.4852 8.89527C24.709 8.78547 24.9455 8.73481 25.1946 8.73481C25.4902 8.73481 25.7858 8.80237 26.073 8.9375C26.3602 9.07264 26.6178 9.25 26.85 9.46537L26.8796 9.62585H26.8754ZM21.546 9.90879C21.47 9.95525 21.3939 10.0059 21.3137 10.0566C21.2335 10.1073 21.1617 10.1326 21.1026 10.1326C21.0434 10.1326 20.9928 10.1073 20.9505 10.0608C20.9083 10.0144 20.8661 9.95102 20.8196 9.87923C20.7732 9.80322 20.7478 9.73987 20.7478 9.68498C20.7478 9.60474 20.7943 9.53717 20.8914 9.48227C20.9505 9.35558 21.0603 9.28801 21.2166 9.28801C21.4066 9.28801 21.5122 9.3767 21.5291 9.54984C21.5417 9.57517 21.5502 9.62585 21.5502 9.69342V9.90457L21.546 9.90879ZM19.2444 9.67652C19.2909 9.74409 19.3162 9.80321 19.3162 9.84966C19.3162 9.9299 19.2571 10.0101 19.1346 10.0819C19.0755 10.1157 18.9784 10.1706 18.8517 10.2424C18.7504 10.2973 18.6743 10.3057 18.6279 10.272C18.5688 10.2128 18.5054 10.1453 18.4463 10.0693C18.3872 9.99324 18.3534 9.92567 18.3534 9.85811C18.3534 9.79898 18.383 9.73987 18.4463 9.68498C18.5477 9.47383 18.7039 9.37247 18.9108 9.37247C18.9911 9.37247 19.0629 9.3978 19.122 9.44848C19.1811 9.49915 19.2233 9.57517 19.2444 9.67652Z" fill="currentColor"/>
</svg>
