<svg width="40" height="16" viewBox="0 0 40 16" fill="none" xmlns="http://www.w3.org/2000/svg">
<path fill-rule="evenodd" clip-rule="evenodd" d="M27.0454 5.15597C27.0245 5.08925 26.9745 5.00167 26.8911 4.89742C26.8077 4.789 26.7284 4.68891 26.6576 4.59717C26.6159 4.68474 26.5908 4.77231 26.5783 4.86823C26.5658 4.95997 26.5575 5.06006 26.5575 5.16014C26.5575 5.26023 26.5658 5.41451 26.5867 5.61885C26.6075 5.82735 26.6159 5.99 26.6159 6.11093C26.6159 6.37782 26.6367 6.70309 26.6742 7.08257C26.766 7.97498 26.816 8.54213 26.816 8.78399C26.816 9.26356 26.791 9.6764 26.7368 10.0142C26.6826 10.3561 26.57 10.6897 26.3948 11.015C26.4407 10.573 26.4657 10.1059 26.4657 9.61385C26.4657 9.06756 26.4324 8.4462 26.3698 7.74562C26.3073 7.04921 26.2405 6.33194 26.1738 5.59383C26.1071 4.85571 26.0737 4.24271 26.0737 3.74646C26.0487 3.70059 26.032 3.64637 26.032 3.58799C26.032 3.50876 26.0654 3.41701 26.1321 3.31276C26.1988 3.20851 26.2656 3.1126 26.3323 3.01668C26.6075 3.6714 26.7827 4.12594 26.8661 4.38449C26.9495 4.64304 27.0078 4.90159 27.0412 5.16014L27.0454 5.15597ZM23.8719 3.05421C23.9053 3.03336 23.9261 3.02502 23.9303 3.02502H23.9511C23.6634 3.22519 23.3798 3.42119 23.1004 3.61719C22.4749 4.00918 22.1079 4.20935 21.9995 4.20935C21.9787 4.20935 21.9703 4.201 21.9703 4.18849C21.9703 4.17598 21.987 4.14679 22.0204 4.10926C22.2289 3.85488 22.5958 3.61301 23.1296 3.37948C23.605 3.17098 23.851 3.06673 23.8719 3.05839V3.05421ZM23.4507 5.07673C23.4048 5.12261 23.3423 5.14763 23.2589 5.14763C23.2172 5.14763 23.1838 5.13929 23.1505 5.11844L23.1088 5.07673C23.0754 5.13512 23.0379 5.19767 23.0003 5.25605C22.9586 5.31443 22.9086 5.34779 22.8419 5.34779C22.7418 5.33528 22.6751 5.30192 22.6375 5.24771C22.6 5.1935 22.5833 5.12261 22.5833 5.0392C22.5833 4.98082 22.5833 4.91827 22.5917 4.85572C22.6 4.79317 22.6042 4.72644 22.6125 4.65972C22.6125 4.61385 22.6125 4.57631 22.6042 4.55129L22.6751 4.40117C22.7209 4.44705 22.746 4.50959 22.746 4.593C22.746 4.64721 22.746 4.70142 22.7376 4.75146C22.7293 4.80568 22.7251 4.85989 22.7168 4.90993C22.7168 5.05172 22.7918 5.10593 22.9461 5.08091C23.0003 5.0267 23.0254 4.9558 23.0254 4.85989C23.0254 4.81819 23.017 4.7598 23.0045 4.68057C22.992 4.60133 22.9837 4.54296 22.9837 4.5096C22.9837 4.43037 23.0045 4.36781 23.042 4.31777C23.0629 4.34279 23.0879 4.44287 23.1171 4.61802C23.1463 4.79316 23.213 4.87656 23.3131 4.87656C23.3548 4.87656 23.3882 4.87657 23.4132 4.86823C23.4257 4.81402 23.4132 4.73895 23.3673 4.64304C23.3256 4.54712 23.3006 4.47623 23.3006 4.4387C23.3006 4.38032 23.3256 4.32194 23.3798 4.26773C23.4257 4.39283 23.4591 4.49291 23.4799 4.56798C23.5008 4.64304 23.5091 4.72228 23.5091 4.80985C23.5091 4.91828 23.4882 5.00585 23.4507 5.08091V5.07673ZM20.5191 3.09592C20.4983 3.20851 20.444 3.30859 20.3523 3.39199C20.2606 3.4754 20.1563 3.52962 20.0354 3.55881L20.0145 3.52962C20.1063 3.45455 20.2022 3.38366 20.2939 3.3086C20.2189 3.28358 20.148 3.26273 20.0771 3.25439C20.0062 3.24604 19.9228 3.2377 19.8227 3.2377C19.8769 3.13762 19.9061 3.0834 19.9144 3.07923C19.9603 3.02502 20.0187 3 20.0854 3C20.1188 3.01251 20.1897 3.02502 20.2939 3.02919C20.4023 3.03753 20.4732 3.05839 20.5149 3.10009L20.5191 3.09592ZM23.3298 6.41952C23.2714 6.57799 23.2214 6.69475 23.188 6.76981C23.1296 6.89074 23.0587 6.99917 22.9795 7.09925L22.4582 6.7573C22.4791 6.64888 22.5208 6.54045 22.5833 6.43203C22.6459 6.32361 22.7126 6.21518 22.7793 6.10676C22.8669 6.13178 22.9545 6.17765 23.0504 6.23603C23.1421 6.29441 23.238 6.35696 23.3298 6.41535V6.41952ZM19.1346 3.31693L19.0929 3.57548C19.0679 3.56714 19.0262 3.5463 18.972 3.5046C18.9178 3.46289 18.8761 3.44621 18.8427 3.44621C18.8094 3.54629 18.7843 3.70476 18.7718 3.92161C18.7593 4.13846 18.7385 4.30526 18.7134 4.42619C18.6551 4.38032 18.5883 4.30109 18.5216 4.18433C18.3465 3.88408 18.2464 3.71727 18.2214 3.68391C18.213 3.74229 18.1838 3.77565 18.1296 3.77565C18.0754 3.76314 18.0379 3.75063 18.0087 3.74646C17.9753 3.67974 17.9586 3.62136 17.9586 3.56715C17.9586 3.50042 17.9628 3.45038 17.9753 3.41701C17.9837 3.38365 18.0087 3.33362 18.0504 3.2669C18.1755 3.2669 18.2923 3.35863 18.3923 3.54629C18.4716 3.70475 18.555 3.8674 18.6425 4.02586C18.7176 3.73395 18.7885 3.4337 18.8636 3.13345C18.9178 3.13345 18.9636 3.1543 19.0095 3.19184C19.0512 3.23354 19.0929 3.27106 19.1346 3.31276V3.31693ZM20.1563 4.30943C20.0812 4.35113 19.8352 4.44705 19.414 4.60134C19.0887 4.72228 18.8344 4.84321 18.6551 4.97248C18.5883 5.01835 18.5216 5.07674 18.4507 5.14763C18.3798 5.21852 18.3256 5.28108 18.2839 5.33112C18.5717 5.17265 18.8302 5.03921 19.0596 4.93913C19.2889 4.83904 19.56 4.73061 19.8644 4.61802C20.0062 4.57214 20.1021 4.4679 20.1563 4.30943ZM22.9169 8.36281C22.9294 8.41702 22.9169 8.48375 22.8877 8.56298C22.8544 8.64221 22.8127 8.71727 22.7668 8.78399C22.7126 8.80485 22.6667 8.80067 22.625 8.77565C22.5833 8.75063 22.5375 8.68808 22.4832 8.59633C22.4749 8.53795 22.4749 8.48791 22.4749 8.45455C22.4749 8.22102 22.5375 7.99583 22.6667 7.77482C22.6417 7.92911 22.6125 8.07923 22.5875 8.22518C22.5875 8.35863 22.6334 8.46289 22.7293 8.53378C22.7752 8.54212 22.8127 8.52545 22.8377 8.48374C22.8627 8.44204 22.8919 8.40451 22.9169 8.36281ZM20.0854 6.81151C19.9728 6.99917 19.8852 7.13261 19.8185 7.21184C19.756 7.29108 19.6809 7.32445 19.5933 7.31194L19.0345 7.06172C19.0804 6.94079 19.1388 6.83236 19.2055 6.73228C19.2389 6.67807 19.3181 6.57382 19.4474 6.42369C19.6142 6.49876 19.7393 6.5488 19.8185 6.58216C19.9728 6.64888 20.0604 6.72394 20.0896 6.81151H20.0854ZM19.2055 8.36281C19.1847 8.49625 19.1638 8.60468 19.1471 8.69225C19.1263 8.77982 19.0762 8.85072 18.997 8.90076C18.9219 8.90076 18.8636 8.87157 18.8177 8.80901C18.7718 8.72144 18.7385 8.66305 18.7176 8.62969C18.7093 8.59633 18.7093 8.55046 18.7093 8.48791C18.7093 8.28774 18.7551 8.10426 18.8511 7.93746C18.8302 8.09592 18.8219 8.19599 18.8219 8.23769C18.8219 8.33778 18.8344 8.42118 18.8636 8.48791C18.8886 8.55463 18.9386 8.60884 19.0137 8.64637C19.0679 8.63386 19.1013 8.58383 19.1138 8.49625C19.1263 8.40868 19.1596 8.36281 19.2139 8.35447L19.2055 8.36281ZM24.9812 5.13928C24.8936 4.78065 24.7935 4.43036 24.6809 4.09675C24.5933 3.85071 24.4682 3.5171 24.3014 3.09592C24.0887 3.27523 23.9803 3.50459 23.9803 3.78816L24.5391 8.73394L24.5808 9.37615C23.8594 9.66806 23.138 9.96414 22.4207 10.2561C22.0996 10.377 21.7451 10.6189 21.3615 10.9858C21.0362 11.2944 20.7109 11.603 20.3898 11.9158C20.0145 12.2369 19.6475 12.437 19.2806 12.5163C19.0804 12.4912 18.9136 12.3745 18.7802 12.166C18.7802 11.9741 18.8219 11.7656 18.9011 11.5446C19.0429 11.2319 19.1805 10.9191 19.3223 10.6147C19.7018 10.4479 20.0854 10.2769 20.4732 10.1059C20.7526 9.97248 20.9737 9.84738 21.1321 9.73479C21.3073 9.54296 21.4324 9.32193 21.5074 9.0759C21.5825 8.82986 21.6242 8.56714 21.6242 8.28357C21.6242 8.16264 21.6159 8.05005 21.6033 7.93746C21.5908 7.82903 21.5742 7.71643 21.5575 7.60384C21.5408 7.49124 21.4741 7.07841 21.3615 6.37365C21.2197 5.50627 21.153 4.83487 21.153 4.36364C21.1738 4.38449 21.2489 4.50126 21.3823 4.71393C21.4282 4.79317 21.4741 4.84738 21.5116 4.8724C21.4782 4.61385 21.3907 4.30942 21.2531 3.9633C21.178 3.77564 21.0612 3.48791 20.9028 3.10425C20.8277 3.15013 20.761 3.23353 20.7026 3.35446C20.6776 3.42119 20.6317 3.52545 20.5733 3.66306L21.203 7.71643L21.3323 8.97582C21.1196 9.15513 20.8485 9.31777 20.5149 9.45956C20.1855 9.60134 19.6976 9.81401 19.0596 10.0934C18.7343 10.2352 18.3882 10.4854 18.0295 10.8524C17.7293 11.1735 17.4332 11.4946 17.1371 11.8115C16.791 12.1451 16.4449 12.3661 16.1071 12.4704C16.0195 12.4704 15.9403 12.4537 15.8611 12.4162C15.786 12.3787 15.7234 12.3244 15.6776 12.2494C15.59 12.141 15.5483 12.0075 15.5483 11.849C15.5483 11.7406 15.5692 11.6239 15.6067 11.4946C15.6484 11.3653 15.6984 11.2402 15.7568 11.1193C15.8652 10.8774 16.0154 10.7148 16.2072 10.6272L16.7576 10.5688C17.0245 10.5021 17.2497 10.4062 17.4374 10.2769C17.6709 10.1184 17.8085 9.91826 17.846 9.68473C17.8669 9.47206 17.8752 9.25939 17.8752 9.05505C17.8752 8.63387 17.821 8.1251 17.7168 7.5246C17.6626 7.21184 17.5583 6.7156 17.3957 6.0317C17.2622 5.46456 17.1621 4.96831 17.0954 4.53878L17.1747 4.36781C17.233 4.40951 17.3081 4.47623 17.3957 4.57631C17.4374 4.62218 17.4999 4.70142 17.5875 4.80568C17.5958 4.79317 17.6209 4.78065 17.6667 4.77648C17.5541 4.46372 17.4207 4.16347 17.2664 3.87573C17.1913 3.74229 17.0287 3.45871 16.7743 3.02502C16.766 3.04587 16.7076 3.16265 16.595 3.37532C16.5199 3.51711 16.4866 3.63387 16.4866 3.73395C16.4866 3.81318 16.5033 3.88407 16.5366 3.94246L17.5583 8.63804L17.6584 9.35946C17.5166 9.53461 17.3456 9.65555 17.1413 9.72644C16.937 9.79733 16.7159 9.83069 16.4741 9.83069C16.1738 9.83069 15.8652 9.61384 15.5525 9.18015C15.3523 8.90492 15.2105 8.72978 15.1229 8.65055C14.8978 8.70893 14.7018 8.82569 14.5433 9.00084C14.4182 9.14262 14.3014 9.33028 14.2013 9.57214C14.1138 9.80567 14.0262 10.0392 13.9428 10.2727C13.8344 10.548 13.7218 10.7648 13.6008 10.9233C13.5091 11.0025 13.4215 11.0567 13.3423 11.0901C13.2631 11.1193 13.1713 11.1276 13.0712 11.1151C12.7501 10.8816 12.5166 10.5688 12.3707 10.1726C12.2497 9.84737 12.1913 9.45122 12.1913 8.9925C12.1913 8.81736 12.1997 8.62553 12.2205 8.41702C12.2414 8.20851 12.2622 8.02503 12.2914 7.87073C12.2247 7.97916 12.1747 8.10426 12.1455 8.24604C12.1163 8.38783 12.0787 8.56298 12.0412 8.77148C12.0162 8.97999 11.9995 9.21352 11.9995 9.47206C11.9995 9.98499 12.0746 10.4312 12.2205 10.8149C12.3957 11.2569 12.6626 11.6072 13.0295 11.8657C13.4299 11.8657 13.7259 11.6906 13.9219 11.3361C14.0471 10.9817 14.1763 10.6272 14.3014 10.2644C14.4599 9.83069 14.6934 9.54296 15.002 9.40534C15.0354 9.43036 15.2439 9.69308 15.6234 10.1852C15.7651 10.3645 15.9153 10.4937 16.0737 10.5646C15.9278 10.7106 15.8027 10.8732 15.7026 11.0567C15.6484 11.1485 15.565 11.332 15.4524 11.5988C15.4274 11.6864 15.4065 11.7573 15.3982 11.8199C15.3898 11.8782 15.3815 11.9324 15.3815 11.9783C15.3815 12.2577 15.4691 12.4912 15.64 12.6789C15.7943 12.8207 15.9653 12.8874 16.1613 12.8874C16.228 12.8874 16.2989 12.8791 16.3698 12.8582C16.6492 12.7331 16.962 12.5038 17.3123 12.1785C17.6 11.8991 17.8877 11.6197 18.1838 11.3486C18.5174 11.0567 18.8344 10.8566 19.1346 10.7481C19.1096 10.8065 18.997 11.0567 18.8052 11.4987C18.6634 11.8073 18.5758 12.0617 18.5341 12.2702C18.5591 12.4245 18.6259 12.5705 18.7301 12.7039C18.8344 12.8415 18.9553 12.9291 19.0971 12.9708C19.1722 12.9917 19.2389 13 19.2973 13C19.4057 13 19.5141 12.9791 19.6225 12.9333C19.731 12.8916 19.8352 12.8332 19.9269 12.7581C20.0854 12.6372 20.369 12.4078 20.7693 12.0659C21.3615 11.5655 21.8285 11.2152 22.1705 11.0192C22.5124 10.8232 22.8252 10.6647 23.1171 10.548C23.409 10.4312 23.7259 10.3353 24.0721 10.2644C24.339 10.1768 24.5391 9.98916 24.6726 9.69308C24.7268 9.58466 24.8102 9.3136 24.9228 8.87156C24.9228 8.50459 24.8269 7.64554 24.6309 6.29858C24.5433 5.69808 24.5016 5.18516 24.5016 4.75564L24.61 4.62636C24.6684 4.67224 24.7476 4.78482 24.8394 4.9558C24.8852 5.04337 24.9269 5.10593 24.9603 5.14763L24.9812 5.12677V5.13928ZM15.6025 3.89659C15.615 3.9508 15.6234 3.99667 15.6234 4.03837C15.6234 4.08007 15.6192 4.12177 15.6067 4.17181C15.5983 4.22185 15.5775 4.2844 15.5525 4.3553C15.4941 4.41368 15.4149 4.44704 15.3231 4.44704C15.2481 4.44704 15.1938 4.43036 15.1521 4.397C15.027 4.41785 14.8602 4.55963 14.6517 4.82652C14.5183 5.00167 14.414 5.11843 14.3431 5.17681C13.8677 5.598 13.4215 5.92744 13.0003 6.16931C13.1088 6.06923 13.3506 5.85654 13.7301 5.5271C14.2514 5.0809 14.6267 4.68474 14.8602 4.33445C14.7393 4.29275 14.6684 4.22603 14.6392 4.12594C14.6392 3.96748 14.6601 3.82152 14.7059 3.69224C14.7476 3.56297 14.8227 3.45038 14.9228 3.35864C15.1229 3.4337 15.2814 3.5171 15.4023 3.61719C15.4816 3.68391 15.5483 3.77566 15.6025 3.89659ZM16.6033 7.94162C16.5616 8.12093 16.545 8.21685 16.545 8.22102C16.5116 8.32945 16.4532 8.40867 16.374 8.46289C16.3198 8.46289 16.2739 8.44203 16.2405 8.39616C16.203 8.35446 16.1738 8.30443 16.1446 8.25022C16.1446 8.07507 16.1655 7.9166 16.203 7.77064C16.2447 7.62469 16.3073 7.46205 16.3948 7.29108C16.3948 7.33695 16.3823 7.40784 16.3531 7.49958C16.2948 7.71226 16.2614 7.84988 16.2614 7.90826C16.2614 8.03337 16.3198 8.12511 16.4324 8.17932C16.4657 8.15847 16.4908 8.11677 16.5116 8.05005C16.5325 7.98332 16.5616 7.94579 16.6033 7.94162ZM15.932 6.29858C15.8319 6.54045 15.7068 6.7448 15.5525 6.91994C15.5191 6.89492 15.4274 6.83653 15.2731 6.75313C15.1188 6.66972 15.0229 6.59049 14.9812 6.5196L14.6017 7.09925C14.4557 7.05338 14.3306 7.00333 14.2305 6.94912C14.0888 6.86989 14.0095 6.79066 13.9887 6.70726L14.4099 6.16515L15.0187 6.48624L15.3982 5.95664C15.3982 5.95664 15.5066 6.01502 15.6776 6.10676C15.7902 6.16514 15.8736 6.23186 15.9278 6.29858H15.932ZM13.1088 6.80734C13.0629 7.09925 13.0254 7.3161 13.0003 7.45788C12.9461 7.71226 12.8502 7.88323 12.7084 7.97915C12.6292 7.97915 12.5458 7.96247 12.4624 7.92493C12.379 7.8874 12.2998 7.83736 12.2289 7.77064C12.1621 7.64554 12.1121 7.49542 12.0746 7.32445C12.037 7.15347 12.0204 6.99083 12.0204 6.8282C12.0204 6.56131 12.0662 6.24854 12.1621 5.88574C12.2164 5.67307 12.3081 5.36865 12.4415 4.97665L12.7126 4.48457C12.6334 4.7598 12.5541 5.03086 12.4707 5.30609C12.379 5.66472 12.329 5.97332 12.329 6.2277C12.329 6.4362 12.3623 6.62385 12.4249 6.79483C12.4874 6.96581 12.5958 7.11176 12.7501 7.24104C12.8502 7.24104 12.9169 7.17432 12.9503 7.03671C12.9837 6.89909 13.0379 6.82402 13.1088 6.81151V6.80734ZM13.8511 8.53795C13.8427 8.66305 13.8302 8.77565 13.8094 8.86739C13.7885 8.95913 13.7259 9.02585 13.6175 9.05921C13.5758 9.05921 13.5341 9.04671 13.4883 9.01752C13.4424 8.9925 13.4132 8.94246 13.3965 8.87574C13.3882 8.82153 13.3882 8.78399 13.3882 8.7548C13.3882 8.6297 13.4048 8.50876 13.4382 8.39616C13.4507 8.35029 13.53 8.16264 13.6801 7.83736C13.6926 7.90409 13.6676 8.02086 13.605 8.18349C13.5425 8.34613 13.5091 8.46289 13.5091 8.52961C13.5091 8.6422 13.5675 8.72561 13.6801 8.77982L13.8511 8.53795ZM15.4732 4.14263C15.4732 4.14263 15.419 4.16347 15.3732 4.16347C15.3064 4.16347 15.2314 4.13845 15.1521 4.08424L15.2105 3.83403C15.2689 3.85905 15.3231 3.90075 15.3648 3.95497C15.4065 4.00918 15.444 4.07173 15.4691 4.14679L15.4732 4.14263ZM15.0229 4.04253C14.8894 4.06756 14.8144 4.0342 14.7935 3.93412C14.8018 3.8674 14.831 3.83403 14.8852 3.83403C14.9269 3.83403 14.9603 3.85072 14.9895 3.87991C15.0187 3.9091 15.0312 3.94246 15.0229 3.97582V4.04671V4.04253Z" fill="currentColor"/>
</svg>
