<svg width="40" height="16" viewBox="0 0 40 16" fill="none" xmlns="http://www.w3.org/2000/svg">
<path fill-rule="evenodd" clip-rule="evenodd" d="M26.5721 4.15369C26.5974 4.31369 26.5511 4.46527 26.429 4.60001C26.3869 4.60843 26.349 4.59159 26.3069 4.54948C26.2942 4.53685 26.2648 4.49474 26.2142 4.42737C26.2142 4.27159 26.2311 4.12843 26.2648 3.99369C26.2985 3.85895 26.3532 3.71159 26.4248 3.54738C26.4374 3.59369 26.4248 3.67791 26.3911 3.80001C26.3532 3.92212 26.3364 4.01053 26.3364 4.06106C26.3364 4.16211 26.3827 4.2379 26.4795 4.29263L26.5721 4.14948V4.15369ZM28.37 5.07158C28.29 5.09264 28.2353 5.09684 28.21 5.08C28.1342 4.97053 28.0795 4.88633 28.0374 4.82738C27.9953 4.76843 27.9616 4.71789 27.9364 4.68421L27.8142 4.9158C27.8395 5.24001 27.8942 5.64843 27.9742 6.13685C28.1974 7.50948 28.3111 8.21684 28.3195 8.25053C28.3742 8.66737 28.3995 9.06316 28.3995 9.43368C28.3995 9.83789 28.37 10.2 28.3153 10.5242C28.2564 10.8484 28.1511 11.1811 27.9953 11.5263C28.0416 11.4 28.0753 11.2442 28.0964 11.0674C28.1174 10.8905 28.1258 10.7095 28.1258 10.5284C28.1258 10.3726 28.1174 10.2 28.1048 10.0063C28.0921 9.81264 28.0795 9.6358 28.0627 9.46738L27.2753 4.08211C27.229 4.01474 27.2037 3.94738 27.2037 3.88001C27.2037 3.80001 27.2585 3.6779 27.3637 3.52211C27.4732 3.36211 27.5364 3.25263 27.5574 3.18526C27.6795 3.37474 27.789 3.60211 27.89 3.87158C28.1806 4.61263 28.3364 5.01264 28.3658 5.0758L28.37 5.07158ZM25.8942 3.49685C25.8942 3.5558 25.8732 3.61896 25.8353 3.68212C25.7932 3.74527 25.7469 3.78317 25.6921 3.80001C25.389 3.93475 24.6732 4.22105 23.5406 4.65895C23.0142 4.86105 22.5848 5.0379 22.2479 5.18526C22.2564 5.10526 22.2942 5.02106 22.37 4.93264C22.4458 4.84422 22.5216 4.78948 22.6016 4.76001C22.9806 4.64633 23.3932 4.49896 23.8437 4.3137C25.1574 3.78738 25.8395 3.51369 25.8942 3.49685ZM26.0374 5.77053C25.9827 5.9979 25.9069 6.17053 25.8058 6.28422C25.73 6.37264 25.65 6.42738 25.5616 6.45685C25.4732 6.48211 25.4016 6.49895 25.3511 6.49895C25.1742 6.49895 25.0521 6.41895 24.9764 6.25474C24.9764 6.11158 24.9932 5.99369 25.0269 5.89684C25.0606 5.8 25.1237 5.72422 25.2206 5.66949C25.1742 5.77896 25.149 5.87579 25.149 5.96421C25.149 5.98527 25.1574 6.02317 25.17 6.07369C25.2374 6.16632 25.33 6.21685 25.4521 6.21685C25.5321 6.21685 25.6121 6.19158 25.6879 6.14526C25.7637 6.09895 25.8227 6.05263 25.8564 6.00211C25.8227 5.92632 25.7595 5.86737 25.6627 5.81684C25.57 5.76632 25.4774 5.7158 25.389 5.66949L25.5406 5.41685C25.6627 5.45896 25.7637 5.50105 25.8479 5.55158C25.9321 5.6021 25.9953 5.67369 26.0332 5.77053H26.0374ZM23.0479 3.89264C23.0479 3.89264 23.0142 3.93895 22.9932 3.99369C22.9679 4.04843 22.9427 4.0779 22.909 4.08632C22.8416 4.02738 22.8079 3.96 22.8079 3.88421C22.8079 3.87579 22.8416 3.77896 22.909 3.58948C22.93 3.53054 22.9342 3.46737 22.93 3.40842C22.8374 3.5179 22.7742 3.62738 22.7448 3.74527C22.7153 3.86317 22.6985 4.01475 22.6985 4.1958C22.7069 4.20843 22.7195 4.24632 22.7406 4.30527C22.7827 4.37263 22.8332 4.3979 22.8921 4.38527C22.9679 4.33895 23.0142 4.26737 23.0395 4.17474C23.0648 4.08211 23.069 3.98527 23.0564 3.89264H23.0479ZM23.8985 6.12422L23.8185 6.37685C23.7511 6.33475 23.6795 6.3179 23.6079 6.3179C23.5195 6.3179 23.4732 6.36 23.4648 6.44842C23.4648 6.60421 23.4479 6.76 23.4142 6.92421C23.3595 7.13474 23.3216 7.28632 23.3048 7.38737C23.25 7.34106 23.1616 7.17263 23.0437 6.88211C22.989 6.74737 22.9216 6.6379 22.8416 6.5579C22.8416 6.61264 22.8121 6.6379 22.749 6.6379C22.7153 6.6379 22.6816 6.63369 22.6521 6.62106C22.6227 6.61263 22.6016 6.60421 22.5848 6.60421C22.5595 6.57053 22.5427 6.52421 22.5427 6.46105C22.5427 6.40632 22.5637 6.33896 22.6016 6.25896C22.6437 6.17896 22.6732 6.12001 22.6942 6.08632C22.8206 6.12843 22.9216 6.20842 22.9974 6.33053C23.0985 6.53263 23.1995 6.73474 23.3006 6.93684C23.3342 6.65474 23.3721 6.44843 23.4185 6.32633C23.4606 6.20001 23.5237 6.09054 23.6037 5.99791C23.6374 5.98948 23.6753 5.9979 23.7216 6.00632C23.7637 6.01895 23.8227 6.05685 23.8985 6.1158V6.12422ZM27.789 11.7411C27.7637 11.7326 27.7216 11.7453 27.6627 11.7747C27.6037 11.8042 27.5532 11.8253 27.5027 11.8421C27.4521 11.8547 27.3932 11.8632 27.3258 11.8632C27.2374 11.8632 27.1616 11.8463 27.0942 11.8168C27.0269 11.7874 26.9721 11.7369 26.9342 11.6695C26.9932 11.5811 27.0732 11.5347 27.1658 11.5263C27.1995 11.5347 27.229 11.56 27.2585 11.6021C27.2837 11.6442 27.309 11.6695 27.33 11.6695C27.3637 11.6232 27.3974 11.5768 27.4311 11.5347C27.4648 11.4926 27.4816 11.4505 27.4816 11.4084C27.4479 11.3537 27.4142 11.3158 27.3764 11.2905C27.3385 11.2653 27.2921 11.2611 27.229 11.2737C27.1069 11.3495 26.9974 11.4379 26.9006 11.5474C26.8037 11.6568 26.7364 11.7663 26.7027 11.88C26.7153 11.9263 26.7574 11.9684 26.829 12.0021C26.9006 12.0358 26.9427 12.0611 26.9553 12.0821C26.8879 12.1495 26.8458 12.1958 26.8248 12.2253C26.7785 12.2926 26.7574 12.3516 26.7658 12.3979C26.8332 12.3432 27.0227 12.2505 27.33 12.1158C27.5658 12.0147 27.7216 11.8884 27.7932 11.7411H27.789ZM19.9574 3.5979L19.8858 3.82947C19.8606 3.8379 19.8185 3.82948 19.7637 3.80843C19.709 3.78737 19.6753 3.77895 19.6627 3.77895C19.6164 3.77895 19.5869 3.80842 19.5827 3.87158C19.5069 4.20842 19.4353 4.54526 19.3595 4.88211C19.2921 4.83579 19.2079 4.69684 19.1069 4.46105C19.0058 4.22947 18.8837 4.11159 18.7448 4.11159C18.7027 4.11159 18.669 4.11158 18.6437 4.12C18.5637 4.08632 18.5216 4.03158 18.5216 3.96C18.5216 3.91789 18.5385 3.85474 18.5764 3.76632C18.6142 3.6779 18.6353 3.62316 18.6437 3.60632C18.8206 3.58105 18.9679 3.69895 19.0942 3.96C19.2206 4.22105 19.3174 4.35579 19.3932 4.35579C19.4269 4.13263 19.4521 3.96 19.4732 3.84211C19.5195 3.61474 19.6037 3.49685 19.7258 3.49685C19.7848 3.49685 19.8648 3.53053 19.9574 3.5979ZM27.8395 12.2463C27.7806 12.3474 27.709 12.4274 27.629 12.4905C27.549 12.5495 27.4395 12.6084 27.3048 12.6674C27.17 12.7263 27.069 12.7684 27.0016 12.7937C26.8753 12.8484 26.7742 12.899 26.6985 12.9453C26.7532 12.8526 26.8248 12.7642 26.909 12.6842C26.9974 12.6042 27.09 12.5411 27.1869 12.4989C27.2837 12.4568 27.3932 12.4105 27.5111 12.3684C27.629 12.3263 27.7385 12.2842 27.8395 12.2505V12.2463ZM21.8269 4.84001L21.4311 4.41474C21.4311 4.73895 21.4606 5.10947 21.5237 5.52632C21.6164 6.16632 21.7132 6.80211 21.8058 7.4379C21.8395 7.64842 21.8648 7.8758 21.8858 8.12843C21.9069 8.38106 21.9153 8.62947 21.9153 8.86947C21.9153 9.28632 21.8858 9.66527 21.8311 10.0063C21.7721 10.3474 21.6711 10.68 21.5237 11.0126C21.5995 10.5747 21.6332 10.1032 21.6332 9.5979C21.6332 9.0379 21.5869 8.42316 21.49 7.74947C21.4564 7.49263 21.3511 6.8779 21.1785 5.90106C21.0353 5.10106 20.9427 4.48632 20.8964 4.06106C20.8164 3.97264 20.7742 3.87159 20.7742 3.7579C20.7742 3.66948 20.7995 3.57684 20.8458 3.47579C20.9258 3.32 21.0058 3.16421 21.09 3C21.25 3.29053 21.4142 3.57685 21.5742 3.85895C21.7427 4.20421 21.8269 4.52843 21.8269 4.84001ZM25.6964 11.9558C25.6711 12.0484 25.6037 12.1579 25.5027 12.28C25.3806 12.4274 25.3048 12.5326 25.2711 12.5916C25.1237 12.5158 24.9764 12.4442 24.8248 12.3684C24.6479 12.2589 24.5637 12.1411 24.5637 12.0147C24.6564 11.8674 24.7321 11.7537 24.7869 11.6695C24.8416 11.5895 24.9006 11.5263 24.9679 11.4758C25.1364 11.5684 25.2627 11.6358 25.3427 11.6779C25.4985 11.7663 25.6164 11.8547 25.6964 11.9516V11.9558ZM17.2164 4.4779C17.2374 4.51158 17.2458 4.54526 17.2458 4.57895C17.2458 4.62526 17.2248 4.68843 17.1869 4.76001C17.1448 4.8358 17.1195 4.88631 17.1069 4.92C17.0816 4.95368 17.0395 4.97054 16.9848 4.97054C16.9385 4.97054 16.8921 4.95368 16.8416 4.92C16.749 4.77263 16.6985 4.60001 16.6985 4.40633C16.6985 4.25896 16.7237 4.10737 16.7742 3.95158C16.8248 3.79579 16.8921 3.65264 16.9806 3.5179C16.9469 3.66106 16.9216 3.77053 16.9006 3.85053C16.8585 4.01896 16.8416 4.14948 16.8416 4.24633C16.8416 4.41475 16.8879 4.5579 16.9848 4.67158C17.0437 4.69263 17.09 4.6758 17.1195 4.62527C17.149 4.57474 17.1827 4.52421 17.2164 4.4779ZM26.5048 8.41053C26.4248 8.38527 26.3364 8.36842 26.2437 8.36842C26.05 8.36842 25.7511 8.47369 25.3553 8.68001C24.9595 8.89053 24.6437 8.99158 24.4164 8.99158C24.3279 8.99158 24.2395 8.98317 24.1553 8.97054C24.0669 8.9579 23.9827 8.8779 23.9027 8.73895C23.8479 8.62527 23.7932 8.50737 23.7427 8.38527L23.469 9.08422C23.469 9.26527 23.5321 9.52211 23.6627 9.85053C23.7511 10.0779 23.8058 10.2253 23.8227 10.2842C23.2837 10.6674 22.6858 11.0295 22.0332 11.3663C21.469 11.6611 20.8458 11.9516 20.1637 12.2337C19.8142 12.3811 19.1742 12.6379 18.2437 13L19.4269 12.7474C19.4521 12.7474 19.49 12.7474 19.5364 12.7558H19.73C20.2353 12.7558 20.7827 12.6295 21.3679 12.3726C21.8648 12.1242 22.3658 11.8758 22.8627 11.6232C23.2332 11.4758 23.5406 11.2105 23.7806 10.8358C23.97 10.5411 24.1258 10.1705 24.2437 9.72421C24.8079 9.49684 25.3806 9.26527 25.9532 9.03791C25.9785 9.07159 25.9953 9.11369 25.9953 9.16843C25.9953 9.18948 25.9532 9.32001 25.8648 9.56422C25.8311 9.65685 25.8185 9.74106 25.8227 9.80843C26.0121 9.63158 26.1637 9.42105 26.2774 9.17263C26.3658 8.97895 26.4416 8.72212 26.509 8.40633L26.5048 8.41053ZM19.229 10.2716C19.2164 10.3642 19.1069 10.5958 18.9048 10.9579C18.8121 11.1263 18.7616 11.2653 18.7616 11.3705C18.7616 11.4379 18.77 11.4968 18.7869 11.5432C18.8037 11.5895 18.8374 11.6442 18.8921 11.7032C18.9342 11.6905 18.9679 11.6526 18.9974 11.5937C19.0269 11.5347 19.0564 11.4926 19.0816 11.4716C19.1069 11.56 19.1027 11.6442 19.0606 11.7284C19.0185 11.8126 18.9553 11.8968 18.8669 11.9768C18.8079 11.9895 18.7532 11.9769 18.7111 11.9432C18.669 11.9053 18.6227 11.8253 18.5764 11.7074C18.6227 11.4295 18.7027 11.1769 18.8079 10.9453C18.9174 10.7137 19.0521 10.4905 19.2206 10.2716H19.229ZM14.8542 7.21053C14.8753 7.29053 14.8711 7.38316 14.8458 7.48842C14.8206 7.59369 14.77 7.68632 14.6942 7.76632C14.6058 7.77474 14.5342 7.74527 14.4837 7.68632C14.429 7.62737 14.3953 7.55158 14.3827 7.46316C14.3827 7.28211 14.3995 7.12632 14.4332 7C14.4669 6.87368 14.53 6.76001 14.6269 6.66738C14.6142 6.72633 14.5932 6.81053 14.5679 6.92C14.5427 7.02947 14.5258 7.10948 14.5258 7.16422C14.5258 7.30737 14.5721 7.41263 14.669 7.48842C14.7237 7.48 14.7616 7.4379 14.7869 7.36211C14.8121 7.28632 14.8374 7.23579 14.8627 7.21474L14.8542 7.21053ZM14.1469 3.52211L14.0753 3.76632C13.9953 3.72421 13.9195 3.70738 13.8521 3.70738C13.7764 3.70738 13.7258 3.74948 13.7006 3.8379C13.709 3.86317 13.709 3.90948 13.709 3.96843C13.709 4.04422 13.6964 4.13684 13.6669 4.25053C13.6079 4.51158 13.5742 4.67158 13.5742 4.72632C13.5742 4.81474 13.5911 4.88212 13.629 4.93264C13.6669 4.98317 13.7427 5.02106 13.8564 5.05054C13.8648 5.06317 13.9111 5.12632 13.9995 5.23159C14.0585 5.30738 14.0921 5.37053 14.0921 5.42527C14.0921 5.48 14.0711 5.52632 14.0332 5.56842C13.8311 5.56842 13.6542 5.58948 13.5027 5.63579C13.3511 5.6779 13.2121 5.75368 13.0816 5.85474C13.0816 6.09895 13.1153 6.37684 13.1785 6.69684C13.2416 7.01684 13.3048 7.32 13.3637 7.61053C13.389 7.75369 13.41 7.88843 13.4227 8.02317C13.4353 8.1579 13.4437 8.30527 13.4437 8.46948C13.4437 8.63369 13.4353 8.78527 13.4142 8.92843C13.3932 9.07159 13.3553 9.22737 13.3048 9.38737C13.3469 9.20632 13.3637 9.02527 13.3637 8.84001C13.3637 8.65475 13.3553 8.49475 13.3342 8.37685C13.3132 8.25475 13.2416 7.93053 13.1237 7.40842C13.0648 7.16 13.0185 6.95369 12.9932 6.79369C12.9679 6.63369 12.9511 6.46106 12.9511 6.28C12.9511 6.12 12.9595 5.98948 12.9764 5.89684C12.9932 5.80421 13.0269 5.68631 13.0816 5.55158C13.1406 5.48421 13.2374 5.43369 13.3679 5.40422C13.4985 5.37475 13.5869 5.34527 13.6248 5.32C13.5827 5.24 13.5111 5.1979 13.4016 5.1979C13.3469 5.1979 13.3006 5.21475 13.2542 5.24843C13.2121 5.28212 13.17 5.31158 13.1364 5.34105C13.1153 5.29474 13.1195 5.24 13.1448 5.18526C13.17 5.12632 13.1995 5.07158 13.2248 5.01685C13.2332 5.00842 13.2753 4.98316 13.3511 4.94106C13.4269 4.89895 13.4564 4.84843 13.4353 4.79369C13.3932 4.73895 13.3427 4.62526 13.2753 4.44842C13.1658 4.17895 13.0437 4.0358 12.9006 4.02317C12.7195 3.98106 12.6269 3.89685 12.6269 3.77053C12.6269 3.7579 12.6395 3.71579 12.669 3.64842L12.7911 3.41685C12.9679 3.49264 13.1111 3.64421 13.2248 3.87158C13.3132 4.06106 13.4016 4.25053 13.4985 4.43579C13.5321 4.25895 13.5742 4.07369 13.6206 3.8758C13.6669 3.6779 13.7469 3.52211 13.8521 3.41685C13.9658 3.3958 14.0627 3.43368 14.1342 3.52632L14.1469 3.52211ZM20.7574 8.62527C20.7237 8.88632 20.69 9.14738 20.6564 9.40422C20.5806 9.68633 20.4206 9.88001 20.1721 9.98106C20.0795 9.99369 20.0037 10.0021 19.949 10.0021C19.7469 10.0021 19.4648 9.93475 19.0985 9.80001C18.7364 9.66527 18.4669 9.58948 18.2985 9.56842C18.0542 9.68211 17.8437 9.77474 17.6627 9.84211C17.3848 9.94316 17.149 9.99369 16.9553 9.99369C16.6648 9.99369 16.4248 9.90105 16.2269 9.71158C16.1132 9.65263 15.9995 9.48421 15.8816 9.21053C15.7679 8.93684 15.6374 8.8021 15.4985 8.8021C15.4437 8.8021 15.3721 8.81896 15.2879 8.85264C15.1995 8.91159 15.1321 8.96632 15.0858 9.01263C14.9721 9.12632 14.9132 9.25264 14.9132 9.38737C14.9132 9.46316 14.93 9.53054 14.9637 9.58948C15.0564 9.85054 15.3637 10.0821 15.8774 10.28C16.3911 10.4779 16.6858 10.6547 16.7532 10.8105L16.5595 11.56C16.3448 11.4168 16.1174 11.3074 15.8816 11.2232C15.6458 11.1389 15.4016 11.0968 15.1532 11.0968C15.0269 11.0968 14.8837 11.1137 14.7279 11.1474C14.4164 11.2147 14.1132 11.3242 13.81 11.4716C13.6079 11.5726 13.3216 11.7368 12.9511 11.9684C12.5006 12.2632 12.2227 12.4442 12.1216 12.5032C11.8185 12.6926 11.5237 12.8442 11.2416 12.9579C11.0142 12.979 10.8079 12.9326 10.6269 12.8232C10.4458 12.7137 10.29 12.5621 10.1637 12.3726C10.1174 12.2379 10.0795 12.1074 10.0458 11.9853C10.0164 11.859 9.99951 11.7369 9.99951 11.6147C9.99951 11.5137 10.0037 11.4421 10.0164 11.3958C10.0248 11.3537 10.05 11.2947 10.0921 11.219C10.2185 10.8947 10.45 10.5705 10.7785 10.2379C10.9806 10.0358 11.2921 9.77475 11.709 9.45896C11.5953 9.64001 11.3764 9.88843 11.0521 10.1958C10.8164 10.4232 10.6732 10.5705 10.6185 10.6295C10.5048 10.7642 10.4164 10.8947 10.3574 11.0253C10.2985 11.1516 10.2648 11.2863 10.2648 11.4211C10.2648 11.5137 10.2816 11.6147 10.3195 11.7158C10.3574 11.8168 10.4121 11.9179 10.4921 12.019C10.5679 12.12 10.6648 12.1958 10.7785 12.2505C10.8921 12.3053 11.0227 12.3305 11.1616 12.3305C11.2416 12.3305 11.3216 12.3221 11.4058 12.3011C11.6837 12.1663 12.0248 11.9684 12.4374 11.7032C12.7153 11.5221 12.9174 11.3874 13.0437 11.299C13.3679 11.0842 13.6416 10.9158 13.8606 10.7937C14.1553 10.6253 14.4458 10.499 14.7279 10.4105C14.6606 10.2337 14.6269 10.0484 14.6269 9.85474C14.6269 9.59368 14.6858 9.32001 14.7995 9.03791C14.8795 8.8358 15.0142 8.58316 15.2037 8.28C15.33 8.15369 15.4311 8.06948 15.5069 8.03158C15.5827 7.99369 15.6627 7.97685 15.7511 7.97685C15.7974 7.97685 15.8479 7.98527 15.9027 8.00632C16.13 8.45264 16.269 8.70527 16.3153 8.77264C16.5258 9.05475 16.7616 9.1979 17.0311 9.1979C17.0564 9.18526 17.1027 9.17685 17.1616 9.17685C17.3048 9.17685 17.389 9.16001 17.4227 9.12632C17.309 8.94948 17.25 8.76421 17.25 8.57053C17.25 8.39369 17.2964 8.17895 17.3932 7.92211C17.469 7.72 17.5448 7.51369 17.6248 7.30737C17.6795 7.21474 17.7553 7.12212 17.8521 7.03791C17.949 6.9537 18.0458 6.86947 18.1385 6.78947C18.1385 6.76421 18.1216 6.72632 18.0921 6.68421C18.0627 6.64211 18.029 6.6 17.9953 6.56632C17.9953 6.46526 18.0079 6.36843 18.0374 6.27159C18.0458 6.24632 18.109 6.08632 18.2311 5.7958C18.3995 5.85474 18.53 5.91369 18.6269 5.96843C18.7195 6.02317 18.8206 6.10738 18.9216 6.22106C18.8753 6.29685 18.85 6.36422 18.85 6.43159C18.85 6.45264 18.8585 6.48212 18.8711 6.52422C18.9974 6.65896 19.2879 6.86948 19.7385 7.15159C20.4206 7.57685 20.7574 8.02317 20.7574 8.49474C20.749 8.54948 20.749 8.59159 20.749 8.62527H20.7574ZM12.3911 8.25053C12.3321 8.25053 12.2816 8.30106 12.2437 8.3979C12.2058 8.49474 12.1679 8.55369 12.1342 8.57475C12.0964 8.5958 12.0627 8.60421 12.029 8.60421C11.9532 8.60421 11.8985 8.57053 11.8564 8.50316C11.7679 8.36 11.7048 8.21685 11.6711 8.07369C11.6332 7.93053 11.6164 7.77895 11.6164 7.62316C11.6164 7.38737 11.6753 7.10948 11.789 6.78527C11.8648 6.58317 12.0669 6.14527 12.3953 5.47159C12.05 5.82948 11.7806 6.25053 11.5785 6.73895C11.3764 7.22737 11.2753 7.7158 11.2753 8.20843C11.2753 8.50317 11.309 8.77684 11.3764 9.02526C11.41 9.07158 11.469 9.15579 11.5574 9.2779C11.6374 9.37053 11.7258 9.42105 11.8185 9.42105C11.8648 9.42105 11.9153 9.40843 11.97 9.37896C12.0964 9.23159 12.1932 9.06317 12.2564 8.8779C12.3195 8.69264 12.3658 8.48211 12.3911 8.24633V8.25053ZM17.6164 12.12C17.5027 12.0189 17.3974 11.9432 17.3048 11.8926C17.2121 11.8421 17.0816 11.7874 16.9216 11.7242L16.4669 12.2884C16.2564 12.1621 16.05 12.0316 15.8395 11.9053L15.4142 12.4695C15.3932 12.5621 15.4437 12.6421 15.5658 12.7011C15.7427 12.7895 15.8437 12.8442 15.869 12.8737C15.9785 12.8863 16.0753 12.8189 16.1637 12.6716C16.2774 12.4779 16.3616 12.36 16.4164 12.3179C16.6437 12.4526 16.8795 12.5874 17.1153 12.7221L17.6206 12.1158L17.6164 12.12ZM20.4458 8.98737C20.3195 9.10947 20.1679 9.16843 19.9911 9.16843C19.8564 9.16843 19.6795 9.1221 19.4564 9.02526C19.3427 8.97895 19.1785 8.90737 18.9721 8.81474C18.9932 8.76842 19.0648 8.5579 19.1827 8.18737C19.229 8.04 19.2753 7.92211 19.3258 7.83369C19.6627 8.02316 19.8942 8.17474 20.0248 8.28842C20.2606 8.49895 20.4037 8.73053 20.45 8.98737H20.4458ZM18.9006 8.33896C18.8669 8.37264 18.8079 8.4358 18.7195 8.53264C18.5932 8.65895 18.4753 8.72632 18.3742 8.72632C18.3279 8.72632 18.2816 8.71368 18.2311 8.68421C18.0837 8.63789 17.949 8.56211 17.8269 8.46105C17.7048 8.36 17.629 8.24211 17.5953 8.10737C17.6164 7.96 17.6837 7.82947 17.7974 7.71158C17.9111 7.5979 18.0416 7.5179 18.1932 7.48001C18.2185 7.48001 18.2564 7.48001 18.3027 7.47159C18.4837 7.47159 18.6185 7.53053 18.7069 7.64421C18.7616 7.73263 18.8079 7.82526 18.85 7.92211C18.8921 8.01895 18.909 8.11158 18.909 8.2V8.25896C18.909 8.28422 18.909 8.31369 18.9006 8.33896Z" fill="currentColor"/>
</svg>
