<svg width="40" height="16" viewBox="0 0 40 16" fill="none" xmlns="http://www.w3.org/2000/svg">
<path fill-rule="evenodd" clip-rule="evenodd" d="M27.3616 4.71369C27.3279 4.70106 27.2858 4.64632 27.2311 4.55369C27.1764 4.46105 27.1216 4.39369 27.0711 4.36L26.97 4.56211C26.97 4.85685 26.9911 5.20633 27.029 5.60212C27.1216 6.53685 27.1721 7.12632 27.1721 7.36211C27.1721 7.96843 27.1553 8.42316 27.1216 8.72632C27.0669 9.21895 26.9532 9.65684 26.7764 10.04C26.8185 9.61474 26.8353 9.18948 26.8353 8.76843C26.8353 8.29685 26.81 7.74526 26.7595 7.11789C26.709 6.48632 26.6585 5.83791 26.6037 5.16843C26.549 4.49896 26.5237 3.96 26.5237 3.55579C26.57 3.46316 26.6248 3.35791 26.6837 3.24843C26.7427 3.13896 26.81 3.05474 26.8858 3C27.0416 3.57263 27.1974 4.14527 27.3616 4.7179V4.71369ZM23.8542 4.16632C23.8542 4.23369 23.8416 4.32632 23.8121 4.44842C23.7827 4.57053 23.77 4.65896 23.77 4.72212C23.77 4.76843 23.7785 4.82316 23.7995 4.88211C23.7785 4.90737 23.7616 4.93264 23.749 4.95369C23.7364 4.97474 23.7195 4.97054 23.6985 4.94527L23.6395 4.88632C23.5048 5.09685 23.3111 5.28211 23.0542 5.45053C23.0121 5.47579 22.7848 5.60211 22.3679 5.82527C22.4479 5.74527 22.6627 5.58105 23.0037 5.32842C23.2732 5.13895 23.45 4.94947 23.5385 4.76421C23.5258 4.74316 23.4711 4.69685 23.37 4.61685C23.2732 4.54106 23.2227 4.46948 23.2227 4.41053C23.2227 4.38527 23.2311 4.35159 23.2521 4.30948C23.3111 4.21685 23.3616 4.14948 23.3953 4.1158C23.4542 4.05685 23.5216 4.01054 23.5974 3.98527C23.6521 3.97685 23.7069 3.99369 23.7574 4.03158C23.8121 4.06948 23.8416 4.1158 23.85 4.16632H23.8542ZM23.8837 6.69264C23.8837 6.69264 23.9048 6.74317 23.9048 6.78527C23.9048 6.84422 23.8711 6.92843 23.8079 7.03791C23.7448 7.14738 23.6816 7.16422 23.6227 7.09685C23.5553 7.00843 23.5216 6.91158 23.5216 6.8021C23.5216 6.71368 23.5385 6.63369 23.5679 6.5579C23.5974 6.48211 23.6437 6.39369 23.7027 6.28422C23.6816 6.36001 23.6648 6.43158 23.6521 6.50316C23.6395 6.57474 23.6311 6.62106 23.6311 6.65053C23.6311 6.74316 23.6564 6.82316 23.7111 6.88211C23.7574 6.88211 23.7953 6.86105 23.8164 6.81474C23.8416 6.77263 23.8627 6.73053 23.8837 6.68843V6.69264ZM22.3595 4.76421C22.3721 4.73895 22.3806 4.70106 22.3806 4.65475C22.3806 4.60001 22.3553 4.52843 22.3048 4.44422C22.2542 4.3558 22.229 4.28422 22.229 4.23369C22.229 4.16633 22.2542 4.09475 22.3006 4.02317C22.2753 3.94738 22.2416 3.89264 22.2037 3.85053C22.1658 3.80843 22.1153 3.7958 22.0479 3.80843C21.9385 3.85053 21.8542 3.9179 21.7869 4.01474C21.7195 4.11158 21.6858 4.21685 21.6858 4.32211C21.7658 4.42316 21.8669 4.50738 21.989 4.57475C21.5385 4.98738 21.0879 5.3958 20.6458 5.80843C20.9574 5.63158 21.2185 5.46316 21.4332 5.30316C21.7153 5.08842 21.9427 4.86106 22.1111 4.62527L22.3132 4.80632L22.3637 4.76421H22.3595ZM20.1448 3.16843C20.1237 3.22317 20.0648 3.32843 19.9679 3.49264C19.8711 3.65264 19.8206 3.78738 19.8206 3.88843C19.8206 3.94316 19.829 3.9979 19.85 4.06106C19.8585 4.06106 19.8795 4.07369 19.9174 4.09474C19.9553 4.12 19.9848 4.12001 20.0142 4.09895C20.0479 4.03159 20.0732 3.98948 20.0858 3.96843C20.0942 3.99369 20.0942 4.03158 20.0942 4.07789C20.0942 4.18737 20.0521 4.2758 19.9721 4.35159C19.8921 4.36422 19.8121 4.34316 19.7279 4.28C19.6816 4.19158 19.6564 4.10316 19.6564 4.00632C19.6564 3.88001 19.7153 3.72843 19.829 3.56001C19.9764 3.37895 20.0816 3.24843 20.1406 3.16422L20.1448 3.16843ZM22.3679 6.61264C22.389 6.6379 22.389 6.67158 22.3721 6.71369C22.3553 6.75579 22.3385 6.7979 22.3258 6.84421C22.3006 6.83579 22.2753 6.8358 22.25 6.8358H22.2037C22.0437 6.8358 21.9469 6.97475 21.9174 7.24843C21.8879 7.52633 21.8374 7.69053 21.77 7.74527C21.669 7.48422 21.5595 7.26105 21.4458 7.08C21.4248 7.10526 21.3869 7.12211 21.3364 7.12211C21.3027 7.12211 21.269 7.11789 21.2353 7.10526C21.2016 7.09684 21.1427 7.0758 21.0627 7.05054C21.05 7.00843 21.0416 6.97896 21.0416 6.95791C21.0416 6.92422 21.05 6.88632 21.0627 6.84843C21.0753 6.81053 21.1006 6.75579 21.1342 6.69684C21.2142 6.62947 21.2942 6.60422 21.3785 6.61685C21.4374 6.69264 21.5006 6.78106 21.5595 6.89054C21.6395 7.05896 21.7237 7.22316 21.8121 7.38737C21.8585 7.18527 21.8964 7.01264 21.93 6.87369C21.9595 6.73053 22.0437 6.62948 22.1785 6.57053L22.3721 6.62106L22.3679 6.61264ZM17.1932 3.45896L17.1637 3.65264C17.0837 3.65264 17.0037 3.65263 16.9195 3.64421C16.8521 3.71158 16.8058 3.81263 16.7764 3.94737C16.7174 4.25895 16.6627 4.44001 16.6164 4.49474C16.5364 4.30106 16.4732 4.15369 16.4227 4.06106C16.3342 3.88001 16.2079 3.78738 16.0395 3.78738C16.0058 3.76212 15.989 3.72842 15.989 3.68632C15.989 3.65263 15.9932 3.61475 16.0058 3.57685C16.0142 3.53475 16.0269 3.50106 16.0395 3.46738C16.0942 3.36632 16.1574 3.35369 16.2332 3.42527C16.3258 3.52632 16.4185 3.66948 16.5069 3.85053C16.549 3.94317 16.5911 4.04 16.6374 4.13263C16.65 4.11158 16.6879 3.97264 16.7469 3.72001C16.789 3.54317 16.8648 3.42527 16.9785 3.36633C17.0542 3.37475 17.1216 3.40843 17.189 3.46738L17.1932 3.45896ZM25.2185 8.0358L24.8142 4.49053L24.8942 4.3179L25.1764 4.62106C25.1764 4.38527 25.1174 4.12422 24.9995 3.8379C24.8816 3.55159 24.7679 3.27789 24.6627 3.01263C24.5364 3.18947 24.4606 3.29053 24.4395 3.32422C24.3721 3.44632 24.3385 3.56842 24.3385 3.68632C24.3385 3.77895 24.3637 3.87158 24.41 3.96L24.9364 8.50738C24.7469 8.65053 24.5827 8.75158 24.4395 8.81895C24.2458 8.91158 24.0606 8.96211 23.8921 8.96211C23.8121 8.96211 23.749 8.96211 23.7111 8.95369C23.5679 8.90737 23.45 8.81053 23.3574 8.67158C23.29 8.57053 23.2311 8.43579 23.1764 8.26737C23.0627 8.17895 22.9237 8.13685 22.7637 8.13685C22.6542 8.13685 22.5364 8.15791 22.4058 8.1958C22.2753 8.23791 22.149 8.28843 22.0269 8.34737C21.7448 8.48211 21.4585 8.6758 21.1679 8.93264C21.0753 9.01264 20.81 9.26527 20.3806 9.69053C20.069 10.0021 19.7995 10.2379 19.5721 10.4063C19.2606 10.6337 18.9574 10.7853 18.6627 10.8611C18.4942 10.84 18.3342 10.7432 18.1785 10.5663C18.1237 10.4442 18.0985 10.3347 18.0985 10.2337C18.0985 10.12 18.1237 9.99369 18.1785 9.85895C18.2332 9.72421 18.2964 9.58948 18.3721 9.45474C18.7637 9.26527 19.1553 9.0758 19.5553 8.8779C19.8121 8.73475 20.0185 8.56632 20.17 8.37264C20.25 8.19579 20.3174 8.01896 20.3679 7.8379C20.4185 7.65685 20.4437 7.48422 20.4437 7.32422C20.4437 7.01264 20.3511 6.74316 20.17 6.51579C19.9595 6.21263 19.6985 6.04422 19.3827 6.01054C19.1132 6.05685 18.9069 6.22106 18.7679 6.50738C18.6879 6.66317 18.6079 6.92001 18.5364 7.28633C18.5953 7.44633 18.6837 7.55579 18.7932 7.61053C18.9027 7.66527 19.0458 7.69053 19.2227 7.69053C19.3153 7.68211 19.4164 7.67791 19.5174 7.66949C19.6185 7.66106 19.7153 7.66106 19.8121 7.66106C19.8458 7.66106 19.8964 7.66106 19.9637 7.66949C20.0227 7.67791 20.0648 7.69895 20.09 7.73684C20.1153 7.77474 20.1237 7.8379 20.1237 7.93474V8.05685C19.6269 8.33895 19.1342 8.59579 18.6542 8.83158C18.1742 9.06316 17.6732 9.28633 17.1553 9.49685C16.6374 9.70738 16.1195 9.90948 15.61 10.099C15.1469 10.2674 14.6248 10.4484 14.0521 10.6463C14.7469 10.5368 15.4416 10.4316 16.1321 10.3221C16.8269 10.0779 17.5216 9.8379 18.2248 9.59369C18.1911 9.68211 18.1279 9.82526 18.0311 10.0274C17.9637 10.1958 17.93 10.3474 17.93 10.4821C17.93 10.5411 17.9385 10.6126 17.9595 10.6926C17.9806 10.7726 18.0058 10.8358 18.0395 10.8863C18.1658 11.0463 18.3048 11.1684 18.4521 11.2484C18.5995 11.3284 18.7679 11.3579 18.9574 11.3411C19.2269 11.1979 19.5048 10.9958 19.7953 10.7347C19.8416 10.6926 20.0985 10.4442 20.5616 9.98527C20.9574 9.58949 21.2942 9.30317 21.5637 9.12632C21.7869 8.98317 22.01 8.87789 22.2416 8.8021C22.3427 8.74737 22.4395 8.72212 22.5364 8.72212C22.6795 8.72212 22.8142 8.82316 22.9406 9.02526C23.109 9.29474 23.2269 9.45474 23.29 9.50527C23.3532 9.55579 23.4164 9.58947 23.4711 9.60632C23.5258 9.62316 23.6058 9.63158 23.6985 9.63158C23.8332 9.63158 23.9595 9.61475 24.0774 9.57685C24.1953 9.53896 24.3132 9.48842 24.4353 9.42105C24.7048 9.33263 24.8985 9.13895 25.0121 8.8358C25.0795 8.57474 25.1511 8.30527 25.2227 8.0358H25.2185ZM22.49 10.3895C22.3679 10.5705 22.25 10.7516 22.1364 10.9368L21.4879 10.6042C21.5427 10.4947 21.5974 10.3979 21.6479 10.3053C21.7027 10.2126 21.77 10.1326 21.85 10.0568C21.9595 10.1032 22.0732 10.1495 22.1953 10.2C22.3174 10.2505 22.4142 10.3095 22.49 10.3937V10.3895ZM14.4142 3.88001C14.4269 3.92633 14.4227 3.98106 14.3932 4.0358C14.3679 4.09475 14.3385 4.14948 14.309 4.20422C14.2795 4.25895 14.2374 4.28422 14.1827 4.28422C14.1364 4.28422 14.0732 4.25895 13.989 4.20422C13.9764 4.17053 13.9637 4.13264 13.9595 4.08632C13.9511 4.04422 13.9511 4.00211 13.9511 3.96843C13.9511 3.82527 13.9974 3.67368 14.0942 3.51368C14.1616 3.4 14.2585 3.26947 14.389 3.11789C14.3764 3.16421 14.3258 3.26948 14.2374 3.4379C14.149 3.60632 14.1069 3.72422 14.1069 3.80843C14.1069 3.90106 14.1448 3.98526 14.2164 4.05263C14.2627 4.05263 14.3048 4.04001 14.3385 4.01054C14.3721 3.98527 14.3974 3.93896 14.4185 3.88001H14.4142ZM16.3848 9.03369C16.2837 9.14738 16.1827 9.26106 16.0816 9.36633C15.9385 9.28633 15.8374 9.22316 15.77 9.18526C15.6437 9.10526 15.5679 9.02527 15.5469 8.95369L15.9427 8.49895C16.1195 8.58737 16.2458 8.65895 16.3258 8.7179C16.4058 8.77685 16.4479 8.8358 16.4479 8.90317C16.4479 8.93685 16.4269 8.97895 16.389 9.03369H16.3848ZM19.2353 12.1958C18.8311 12.3853 18.4016 12.5495 17.9427 12.6842C17.4837 12.8232 17.0416 12.92 16.6079 12.9705C16.4058 12.9916 16.2079 13 16.01 13C15.6311 13 15.269 12.9537 14.9195 12.8653C14.57 12.7769 14.2458 12.6295 13.9511 12.4358C13.6564 12.2421 13.4206 11.9895 13.2521 11.6863C13.0837 11.3832 12.9995 11.0547 12.9995 10.6968C12.9995 10.5874 12.9995 10.5074 13.0079 10.4526C13.13 9.77895 13.2732 9.25685 13.4416 8.88632C13.6774 8.36 14.0185 7.92211 14.4606 7.57264C14.3595 7.3958 14.0816 7.21053 13.6227 7.01685C13.2395 6.84842 13.0458 6.62527 13.0458 6.35159C13.0458 6.29264 13.0458 6.24633 13.0542 6.22106C13.1132 6.03159 13.1806 5.8421 13.2479 5.65684C13.3069 5.53474 13.3995 5.44632 13.5216 5.39579C13.7995 5.33684 14.0858 5.29053 14.389 5.26527C14.6921 5.24 15.0079 5.22316 15.3406 5.22316C15.7869 5.22316 16.229 5.24421 16.6711 5.29053C17.1132 5.33684 17.589 5.39579 18.1027 5.47579L18.2121 5.57685C18.17 5.80422 18.0774 6.00632 17.93 6.17474C17.7827 6.34316 17.5974 6.46527 17.3742 6.53685C16.6669 6.84001 16.2332 7.02948 16.069 7.10106C15.5721 7.33685 15.1385 7.58527 14.7764 7.85053C14.3174 8.17475 13.9679 8.51158 13.7237 8.86106C13.4206 9.29053 13.269 9.7579 13.269 10.2547C13.269 10.7853 13.4879 11.24 13.9258 11.6189C14.2711 11.8884 14.6585 12.0821 15.0921 12.1958C15.5258 12.3095 15.9974 12.3684 16.5027 12.3684C16.8185 12.3684 17.1721 12.3516 17.5637 12.3179C18.5069 12.2379 19.0627 12.1958 19.2311 12.1958H19.2353ZM23.6732 4.48632V4.37685C23.6648 4.33475 23.6479 4.30105 23.6227 4.27579C23.5974 4.25053 23.5637 4.23369 23.5216 4.23369C23.4795 4.23369 23.4585 4.25896 23.45 4.3137C23.4585 4.32212 23.4837 4.3558 23.5342 4.41474C23.5848 4.47369 23.6311 4.49895 23.669 4.48632H23.6732ZM22.1364 4.3137C22.1027 4.32633 22.0606 4.31369 22.01 4.26737C21.9595 4.22527 21.9132 4.18317 21.8753 4.14106C21.8753 4.08633 21.909 4.06106 21.9764 4.06106C22.0774 4.06106 22.1279 4.10316 22.1279 4.18316L22.1364 4.3137ZM19.7195 6.99158C19.6437 7.01685 19.5595 7.03369 19.4669 7.03369C19.2774 7.03369 19.109 6.98738 18.9616 6.89054C18.9195 6.80211 18.9069 6.74738 18.9195 6.73053C18.9953 6.68422 19.0669 6.65895 19.1427 6.65895C19.2353 6.65895 19.3406 6.70106 19.4542 6.78106C19.4753 6.79369 19.5637 6.86527 19.7153 6.99158H19.7195ZM17.2353 6.03158C16.9448 6.16632 16.5069 6.37263 15.9216 6.64632C15.4164 6.89474 15.0037 7.14316 14.6795 7.39579C14.6795 7.24 14.6374 7.10105 14.5532 6.97474C14.469 6.84842 14.3595 6.73053 14.229 6.62106C14.0985 6.51158 13.9595 6.40633 13.8079 6.31369C13.7195 6.25896 13.6016 6.18738 13.4542 6.09054C13.669 6.02317 13.8921 5.97684 14.1153 5.94737C14.3427 5.92211 14.5827 5.90527 14.8395 5.90527C15.109 5.90527 15.5132 5.92632 16.0521 5.96421C16.5911 6.00632 16.9869 6.02317 17.2353 6.02317V6.03158Z" fill="currentColor"/>
</svg>
