<svg width="40" height="16" viewBox="0 0 40 16" fill="none" xmlns="http://www.w3.org/2000/svg">
<path fill-rule="evenodd" clip-rule="evenodd" d="M30.1673 5.60427C30.0931 5.5672 30.0143 5.48842 29.9356 5.37257C29.8522 5.25209 29.7826 5.17794 29.7224 5.15014L29.6344 5.30769C29.6344 5.66914 29.6761 6.1279 29.7548 6.6747C29.9402 7.92123 30.0329 8.69972 30.0329 9.01019C30.0329 9.49212 30.0004 9.92771 29.9309 10.3123C29.8661 10.6969 29.7363 11.063 29.5417 11.4152C29.588 11.253 29.6205 11.0538 29.6436 10.8267C29.6668 10.595 29.6761 10.3772 29.6761 10.1687C29.6761 9.90917 29.6761 9.71455 29.6668 9.58943C29.6436 9.42725 29.6344 9.30676 29.6344 9.23262L29.1988 4.90454C29.208 4.86747 29.208 4.80723 29.208 4.72845C29.208 4.64041 29.1941 4.51529 29.1617 4.34847C29.1339 4.18629 29.1154 4.0658 29.1154 3.99166C29.1154 3.87118 29.1339 3.77387 29.1663 3.69046C29.1988 3.60705 29.2729 3.519 29.3841 3.42169C29.6436 4.14921 29.9031 4.87674 30.1626 5.59963L30.1673 5.60427ZM28.8651 5.37257C28.7771 5.53476 28.6427 5.66914 28.4666 5.77108C28.3554 5.84522 28.1654 5.9379 27.892 6.05375C27.6232 6.1696 27.424 6.26691 27.2989 6.35032C27.3359 6.26691 27.3869 6.19277 27.4564 6.1279C27.5259 6.06302 27.5954 6.00278 27.6788 5.95181C27.6927 5.94254 27.9476 5.83133 28.4342 5.61817C28.6103 5.53476 28.7585 5.45598 28.8698 5.37257H28.8651ZM25.4824 5.92864C25.4685 6.09083 25.4268 6.24375 25.3665 6.37813C25.3016 6.51715 25.2182 6.64689 25.1163 6.77201C25.2877 6.55885 25.3712 6.28081 25.3712 5.9379C25.3712 5.77572 25.3573 5.63207 25.3341 5.51622C25.3063 5.39574 25.2599 5.25672 25.1951 5.09453C25.1348 5.00649 25.0977 4.95088 25.0838 4.92771C25.0468 4.86284 25.0282 4.79333 25.0282 4.72845C25.0282 4.66821 25.0607 4.60797 25.1302 4.53846C25.2507 4.67748 25.3387 4.84894 25.4036 5.04356C25.4685 5.23818 25.4963 5.44671 25.4963 5.65987C25.4963 5.78035 25.4963 5.8684 25.487 5.92864H25.4824ZM28.9068 9.51066C28.7585 9.42261 28.5825 9.37628 28.3832 9.37628C28.2349 9.37628 28.0774 9.39945 27.9105 9.44115C27.7437 9.48286 27.5769 9.5431 27.4054 9.60797C27.1367 8.02317 26.8772 6.4291 26.6177 4.83504L26.6965 4.73309L27.1737 5.23355C26.905 4.557 26.6408 3.88508 26.3721 3.20852C26.2701 3.2734 26.1867 3.37999 26.1265 3.519C26.0987 3.59315 26.0523 3.72289 25.9921 3.90825C26.1126 4.41335 26.2284 5.05746 26.3489 5.84523C26.4462 6.50324 26.5482 7.20297 26.6547 7.93976C26.7613 8.67655 26.8679 9.29287 26.9699 9.77943C26.7335 9.94161 26.5111 10.0621 26.3072 10.1409C26.1033 10.2196 25.8809 10.2567 25.6446 10.2567C25.5426 10.2567 25.4638 10.2567 25.4129 10.2475C25.1673 10.164 24.9726 10.0065 24.8244 9.77016L24.6112 9.15848C24.5509 8.65339 24.4814 7.94903 24.4073 7.04078C24.3285 6.13253 24.2636 5.45598 24.2127 5.01112C24.1154 4.20482 23.9995 3.5329 23.8698 3C23.8049 3.06024 23.74 3.15756 23.6798 3.30121C23.652 3.37535 23.601 3.4912 23.5361 3.64411C23.7215 4.43651 23.8698 5.3633 23.981 6.42447C24.0644 7.37442 24.1478 8.32437 24.2358 9.26969C24.3239 9.81186 24.3795 10.1177 24.4027 10.1918C24.5 10.5255 24.6714 10.7665 24.9263 10.9147C25.0236 10.9518 25.0978 10.975 25.1487 10.9889C25.1997 10.9981 25.2924 11.0074 25.4268 11.0074C25.6353 11.0074 25.8531 10.9657 26.0848 10.8869C26.2331 10.836 26.5621 10.6738 27.0764 10.3957C27.1506 10.544 27.1969 10.6367 27.2108 10.6784C27.2247 10.7201 27.2433 10.7757 27.2664 10.8499C27.3637 11.0445 27.4889 11.2067 27.6371 11.3411C27.7901 11.4754 27.9569 11.5403 28.1422 11.5403C28.3647 11.5403 28.5361 11.4384 28.652 11.2298C28.7029 11.1279 28.8049 10.9425 28.9532 10.6738C29.0644 10.4421 29.12 10.2382 29.12 10.0528C29.12 9.95088 29.1061 9.85357 29.0737 9.77016C29.0459 9.68675 28.9902 9.5987 28.9068 9.51066ZM22.5352 4.13995C22.512 4.28823 22.4981 4.37164 22.4889 4.38554C22.4518 4.49676 22.3915 4.58017 22.3128 4.63114C22.2386 4.61724 22.1737 4.59407 22.1228 4.557C22.0718 4.52456 22.044 4.46896 22.044 4.39481C22.044 4.23263 22.0857 4.0519 22.1645 3.84801C22.2386 3.70899 22.285 3.60241 22.3081 3.53754C22.3081 3.58851 22.285 3.67655 22.2433 3.8063C22.1969 3.93142 22.1784 4.02873 22.1784 4.09361C22.1784 4.20482 22.2247 4.28823 22.3128 4.34847C22.373 4.35774 22.4193 4.3253 22.4564 4.2558C22.4935 4.18629 22.5213 4.14458 22.5352 4.13995ZM25.8809 8.33365C25.8577 8.43096 25.8345 8.52827 25.8021 8.62095C25.7743 8.71826 25.7187 8.78776 25.6446 8.8341C25.5843 8.86191 25.5333 8.86191 25.4963 8.82484C25.4546 8.78777 25.4221 8.73216 25.3897 8.65802C25.3758 8.58388 25.3665 8.52363 25.3665 8.48193C25.3665 8.37071 25.3897 8.25486 25.4314 8.13902C25.4963 8 25.5426 7.89342 25.5658 7.82854C25.538 7.99073 25.5055 8.15292 25.4777 8.31974C25.4777 8.37998 25.487 8.43096 25.5009 8.46803C25.5148 8.50973 25.5472 8.5468 25.6028 8.58387C25.7048 8.58387 25.7836 8.50046 25.8345 8.33828H25.8809V8.33365ZM20.3433 4.50602C20.3155 4.5709 20.2785 4.60797 20.2414 4.60797C20.2182 4.60797 20.1812 4.58943 20.1302 4.54773C20.0792 4.50602 20.0375 4.49212 20.0097 4.49675C19.8892 4.80259 19.6761 5.09453 19.3656 5.3772C18.4759 6.1696 18.0079 6.60056 17.9661 6.66543C18.6103 5.9101 19.2544 5.15478 19.9031 4.39481C19.7826 4.33457 19.6992 4.29286 19.6483 4.26043C19.5463 4.20019 19.4768 4.13068 19.449 4.04727C19.5231 3.7785 19.6761 3.61168 19.9031 3.53754C19.9541 3.52827 20.0004 3.54681 20.0375 3.58388C20.0746 3.62095 20.107 3.67192 20.1302 3.73216C20.158 3.79704 20.1673 3.87118 20.1673 3.95922C20.1673 4.04264 20.1534 4.09824 20.1209 4.13531C20.1302 4.14921 20.1858 4.20482 20.2877 4.30213C20.3619 4.36701 20.3804 4.43652 20.3433 4.50139V4.50602ZM27.0625 11.5913C27.0625 11.5913 27.0857 11.6515 27.0857 11.7025C27.0857 11.7535 27.0718 11.8091 27.0394 11.8647C27.0116 11.9203 26.9791 11.9759 26.9513 12.0269C26.803 12.0037 26.6547 11.9852 26.5065 11.9713C26.3118 12.2308 26.0245 12.4347 25.6399 12.5829C25.1719 12.722 24.8336 12.8332 24.6158 12.9166C24.6992 12.8564 25.0143 12.7081 25.5611 12.4717C25.9597 12.2956 26.2331 12.0918 26.3721 11.8693C26.4231 11.7813 26.4694 11.6747 26.5065 11.5449C26.5435 11.4198 26.6316 11.3318 26.7752 11.2762C26.8401 11.2901 26.8911 11.3133 26.9189 11.3411C26.9467 11.3689 26.9977 11.4523 27.0625 11.5867V11.5913ZM17.9198 4.2975C17.9476 4.35774 17.9383 4.43188 17.8827 4.51993C17.8271 4.60797 17.7947 4.67748 17.7901 4.71919C17.7391 4.77016 17.6881 4.79796 17.6325 4.79796C17.6186 4.79796 17.5862 4.78406 17.5445 4.75162C17.4842 4.66821 17.4564 4.58017 17.4564 4.48285C17.4564 4.38554 17.4842 4.2836 17.5352 4.17238C17.6186 4.038 17.6742 3.94069 17.702 3.88508C17.702 3.93142 17.6835 4.00556 17.6464 4.11678C17.6093 4.22799 17.5908 4.2975 17.5908 4.32994C17.5908 4.41335 17.6279 4.48286 17.702 4.5431C17.7484 4.53383 17.7947 4.48749 17.8457 4.39945C17.8735 4.34847 17.9013 4.31603 17.9244 4.2975H17.9198ZM23.7354 10.8128C23.4295 11.063 23.2303 11.2206 23.133 11.2808C22.8966 11.4291 22.6603 11.5032 22.4193 11.5032C22.3591 11.5032 22.2618 11.4893 22.132 11.4569C22.0579 11.4106 22.0208 11.3364 22.0208 11.2252C22.0208 11.1603 22.0347 11.1047 22.0672 11.0677L22.3359 10.6784C22.2989 10.6645 22.2711 10.6506 22.2479 10.6321C22.2247 10.6182 22.183 10.5765 22.1135 10.5116C22.1274 10.4143 22.1598 10.3309 22.2155 10.2567C22.2989 10.1455 22.4193 10.0575 22.5815 9.98795C22.6557 10.0111 22.6927 10.0667 22.6927 10.1548C22.6927 10.2057 22.6742 10.2521 22.6371 10.2892C22.614 10.3401 22.5908 10.3679 22.5584 10.3679C22.475 10.3031 22.4286 10.266 22.4147 10.2567C22.4008 10.2845 22.3869 10.317 22.3823 10.3448C22.4101 10.4421 22.475 10.4884 22.5723 10.4884C22.6325 10.4884 22.7113 10.4652 22.804 10.4235C22.9013 10.3772 22.9522 10.3587 22.9615 10.3587V10.405C22.9383 10.4513 22.9105 10.5069 22.8735 10.5718C22.6788 10.6599 22.5398 10.7294 22.4518 10.785C22.2896 10.8823 22.2155 11.0028 22.2294 11.1511C22.3313 11.2159 22.461 11.253 22.6093 11.253C22.7715 11.253 22.9522 11.202 23.1469 11.0955C23.3415 10.9935 23.5315 10.8916 23.7076 10.7943L23.74 10.8174L23.7354 10.8128ZM15.3294 4.45042C15.2785 4.62651 15.246 4.72382 15.2414 4.73772C15.2136 4.78869 15.1673 4.8304 15.107 4.85821C15.0051 4.87211 14.9309 4.81187 14.8846 4.66821C14.9217 4.39945 14.9448 4.25579 14.9495 4.23262C14.9865 4.09361 15.0468 3.95459 15.1256 3.82021C15.1348 3.87118 15.1163 3.96386 15.0746 4.09361C15.0329 4.22336 15.0143 4.31603 15.0143 4.367C15.0143 4.47822 15.0607 4.56163 15.1487 4.62187L15.3248 4.44579L15.3294 4.45042ZM23.4249 11.7257C22.7715 11.9852 22.4147 12.1242 22.3591 12.1474C22.1135 12.2215 21.8911 12.2586 21.6918 12.2586C21.4092 12.2586 21.1589 12.1891 20.9365 12.0454C20.9365 11.8137 21.0801 11.6237 21.3721 11.4662C21.7057 11.2808 21.905 11.1279 21.9745 11.0121C21.9281 11.0213 21.8864 11.0306 21.8447 11.0491C21.803 11.0677 21.7521 11.0908 21.6965 11.1233C21.6594 11.1511 21.613 11.1696 21.5528 11.1696C21.5157 11.1696 21.4601 11.1603 21.386 11.1372C21.3118 11.114 21.247 11.0908 21.196 11.0723C21.1821 11.0491 21.196 11.0167 21.2284 10.9796C21.2655 10.9379 21.2979 10.9194 21.3304 10.9194C21.3952 10.9564 21.4694 10.9889 21.5435 11.0213C21.5528 10.9981 21.576 10.9657 21.6177 10.9286C21.6594 10.8916 21.6779 10.8545 21.6779 10.8221C21.6269 10.734 21.5667 10.6877 21.5018 10.6877C21.4416 10.6877 21.3628 10.734 21.2562 10.8313C21.1914 10.9055 21.1218 10.975 21.057 11.0445C20.9967 11.0816 20.9689 11.1233 20.9689 11.165C20.9689 11.2067 21.0014 11.2623 21.0709 11.3225C21.1172 11.3596 21.1636 11.392 21.2145 11.4245C21.1172 11.5125 21.057 11.5774 21.0245 11.6145C20.9272 11.7257 20.8531 11.8462 20.8021 11.9805C20.7928 12.0083 20.7882 12.0408 20.7789 12.0732C20.7697 12.1057 20.7697 12.1381 20.7697 12.1659C20.7697 12.2122 20.7789 12.2539 20.7928 12.2956C20.8067 12.3373 20.8345 12.3698 20.8716 12.4022C21.0709 12.4764 21.284 12.5134 21.5065 12.5134C21.8401 12.5134 22.1737 12.4393 22.5028 12.2956C22.8318 12.152 23.1469 11.962 23.4434 11.7349L23.4249 11.7257ZM12.7808 3.72753C12.7901 3.78777 12.7854 3.84338 12.7762 3.89435C12.7669 3.94532 12.7437 3.99629 12.7159 4.0519C12.6325 3.93142 12.5306 3.88971 12.4054 3.91751C12.3035 4.3114 12.2016 4.70528 12.1042 5.09453C12.0579 5.05746 11.9745 4.88137 11.8494 4.5709C11.7521 4.3392 11.5945 4.24189 11.3721 4.2697C11.3489 4.24189 11.3396 4.19092 11.3396 4.12605C11.3396 4.06581 11.3489 4.01483 11.3628 3.96849C11.3767 3.92215 11.3952 3.88508 11.4138 3.85264C11.4323 3.8202 11.4648 3.80167 11.5065 3.80167C11.5296 3.80167 11.5713 3.81094 11.6269 3.82484C11.7104 3.90825 11.7891 4.02873 11.8679 4.18628C11.9467 4.34384 12.0347 4.51992 12.1274 4.71455C12.1413 4.66821 12.183 4.48285 12.2479 4.14921C12.2942 3.91288 12.3637 3.73216 12.4611 3.61631C12.5445 3.61631 12.6093 3.62095 12.6649 3.63485C12.7205 3.64412 12.7576 3.67656 12.7808 3.72753ZM13.6381 5.83133C13.5871 5.94254 13.5361 6.05375 13.4944 6.16497C13.4342 6.27618 13.3647 6.38276 13.2813 6.48934C13.2349 6.45227 13.1469 6.40593 13.0125 6.34569C12.7901 6.24374 12.6788 6.12789 12.6788 6.00278L13.0449 5.46988C13.0449 5.46988 13.1469 5.53476 13.3322 5.6367C13.4573 5.71084 13.5593 5.77572 13.6334 5.83596L13.6381 5.83133ZM23.5361 7.64319L23.2905 8.26413C23.0913 8.40315 22.6835 8.62094 22.0672 8.90825C21.5945 9.13068 21.335 9.25116 21.2887 9.27433C21.0801 9.36238 20.7558 9.49212 20.3109 9.66358C19.9309 9.8026 19.6019 9.92771 19.3193 10.0297C18.9949 10.7062 18.5129 11.3086 17.8827 11.8369C17.2525 12.3652 16.5806 12.7359 15.8716 12.9444C15.7002 12.9815 15.5287 13 15.3619 13C15.1951 13 15.019 12.9768 14.8614 12.9351C14.7039 12.8888 14.5741 12.8146 14.4629 12.7034C14.3656 12.5922 14.2961 12.4578 14.2451 12.2956C14.1988 12.1381 14.171 11.9666 14.171 11.7905C14.171 11.5449 14.208 11.304 14.2822 11.0677C13.8837 11.2437 13.4481 11.392 12.9847 11.5125C12.5213 11.633 12.0764 11.6886 11.6455 11.6886C11.2887 11.6886 10.9689 11.6515 10.6909 11.582C10.4082 11.5125 10.1302 11.3874 9.85679 11.2113C9.58339 10.9657 9.37949 10.7294 9.24511 10.4977C9.08292 10.215 8.99951 9.91381 8.99951 9.5848C9.03658 9.20482 9.10609 8.84801 9.21267 8.5051C9.31462 8.16219 9.4629 7.81465 9.64826 7.45784C9.56022 7.78221 9.49071 8.03707 9.449 8.21316C9.36096 8.56997 9.31462 8.84801 9.31462 9.04727C9.31462 9.39481 9.41193 9.68675 9.60192 9.91381C9.84752 10.2706 10.158 10.5301 10.538 10.6923C10.918 10.8545 11.335 10.9379 11.7938 10.9379C12.0394 10.9379 12.2896 10.9147 12.5491 10.873C13.2674 10.7386 13.9346 10.5116 14.5509 10.1965C15.0607 9.93698 15.6585 9.5431 16.3396 9.01946C16.3396 8.7507 16.2331 8.21316 16.0153 7.40686C15.9133 7.01298 15.8577 6.68397 15.8577 6.4152C15.8206 6.35496 15.8021 6.29936 15.8021 6.24838C15.8021 6.16497 15.8392 6.06302 15.9133 5.9379C16.0338 5.74328 16.0894 5.64597 16.0894 5.6367C16.1265 5.69694 16.2192 5.81279 16.3674 5.97961C16.5899 6.24838 16.7196 6.46617 16.7567 6.63763C16.7289 6.6608 16.6826 6.66543 16.6177 6.6608C16.5528 6.65153 16.4926 6.6469 16.4323 6.63763C16.3813 6.63763 16.3396 6.65153 16.3118 6.68396C16.5343 7.17516 16.6455 7.68953 16.6455 8.2317C16.6455 8.7229 16.5435 9.15848 16.335 9.5431C16.0848 9.79333 15.7882 10.0389 15.4546 10.2753C15.2924 10.3865 14.9726 10.5857 14.5 10.8777C14.4907 10.9379 14.4861 10.9935 14.4814 11.0491C14.4814 11.1047 14.4768 11.1696 14.4768 11.2437C14.4768 11.443 14.5092 11.6191 14.5788 11.772C14.6436 11.9249 14.7595 12.0408 14.9217 12.1242C15.1534 12.2076 15.3712 12.2447 15.5797 12.2447C15.9133 12.2447 16.2748 12.152 16.6687 11.9666C16.8401 11.8832 17.1737 11.6932 17.6696 11.3874C17.892 11.2113 18.1191 11.0259 18.3461 10.8406C18.6056 10.6089 18.7817 10.3911 18.8698 10.1826C18.5732 10.2104 18.2766 10.2428 17.98 10.2706C17.804 10.2706 17.6557 10.2521 17.5398 10.2196C17.424 10.1872 17.3128 10.1131 17.2016 10.0019C17.1506 9.89064 17.1228 9.77016 17.1228 9.63578C17.1228 9.45042 17.183 9.24189 17.2989 9.01483C17.3637 8.88971 17.4889 8.69973 17.6649 8.44949C17.7391 8.36145 17.8549 8.31511 18.0079 8.31511C18.0588 8.31511 18.1098 8.31511 18.1654 8.32438C18.2164 8.33364 18.2674 8.33828 18.323 8.34755C18.5222 8.43559 18.7029 8.57461 18.8698 8.75997C19.0319 8.94532 19.1524 9.14921 19.2266 9.37164C19.449 9.34847 19.6714 9.27897 19.8939 9.15848C19.6066 8.98239 19.3888 8.74143 19.2497 8.44022C19.1107 8.13902 19.0366 7.81464 19.0366 7.4671C19.0366 7.36515 19.0366 7.29101 19.0459 7.24467C19.2544 6.85079 19.5602 6.54958 19.9634 6.33179C20.3665 6.11863 20.8021 6.00742 21.2701 6.00742H21.4462C21.5343 6.02132 21.5991 6.03059 21.6362 6.03059C21.8679 6.07693 22.0625 6.13253 22.2294 6.20667C22.3962 6.28081 22.5537 6.39203 22.702 6.54031C22.5769 6.51251 22.4286 6.48934 22.2618 6.47544C22.095 6.46154 21.9281 6.45227 21.766 6.45227C21.3304 6.45227 20.9226 6.50325 20.5472 6.60056C20.1719 6.7025 19.8197 6.86006 19.4861 7.07322C19.4861 7.59222 19.6946 8.0139 20.107 8.34291C20.2182 8.40315 20.3387 8.44486 20.4685 8.4773C20.5982 8.5051 20.7233 8.52363 20.8392 8.52363C21.1497 8.52363 21.5991 8.37535 22.183 8.07878C22.7669 7.78221 23.2117 7.63392 23.5176 7.63392L23.5361 7.64319ZM14.7409 7.84244C14.7039 7.85171 14.6668 7.89805 14.6344 7.98146C14.6019 8.06487 14.5509 8.10658 14.4861 8.09731C14.398 8.03244 14.3517 7.94439 14.3517 7.84244C14.3517 7.79147 14.3888 7.65245 14.4629 7.43003C14.4907 7.34198 14.5092 7.27248 14.5092 7.21687C14.398 7.4532 14.3332 7.59685 14.31 7.65246C14.2497 7.81001 14.2219 7.95829 14.2219 8.09731C14.2451 8.18072 14.2729 8.2456 14.31 8.29657C14.3471 8.34755 14.398 8.37535 14.4675 8.37535C14.5649 8.32901 14.6344 8.25487 14.6807 8.14365C14.6946 8.10658 14.7178 8.00463 14.7456 7.84244H14.7409ZM11.9374 6.53105C11.9096 6.54032 11.8772 6.57739 11.8494 6.6469C11.8216 6.71641 11.7891 6.75811 11.7613 6.77665C11.6733 6.71641 11.6269 6.62373 11.6269 6.49861C11.6269 6.45227 11.6455 6.36886 11.6779 6.24838C11.7104 6.1279 11.7335 6.03522 11.7382 5.97498C11.6501 6.10936 11.5852 6.23911 11.5435 6.36423C11.5018 6.48935 11.4833 6.62836 11.4833 6.77665C11.5065 6.86006 11.5435 6.92956 11.5945 6.98981C11.6455 7.05005 11.7057 7.06395 11.7706 7.03615C11.8308 6.9481 11.8679 6.87396 11.8864 6.81371C11.905 6.75347 11.9235 6.6608 11.9374 6.53568V6.53105ZM10.5241 6.41984C10.4592 6.51715 10.3943 6.60982 10.3341 6.69787C10.2831 6.74884 10.2136 6.76738 10.1348 6.75348C10.0375 6.64226 9.97727 6.53568 9.94483 6.43837C9.91703 6.33642 9.89849 6.22521 9.89849 6.10009C10.0607 5.55329 10.2275 5.00185 10.399 4.45505C10.1256 4.87674 9.93093 5.21038 9.81972 5.45598C9.63436 5.86376 9.54168 6.24375 9.54168 6.60056C9.54168 6.73958 9.55558 6.87859 9.58802 7.01298C9.61582 7.14736 9.67143 7.28174 9.74557 7.4254C9.84752 7.52271 9.96337 7.55051 10.0885 7.51344C10.2275 7.39296 10.3433 7.26321 10.4268 7.11492C10.5102 6.96664 10.5565 6.80909 10.5565 6.6469C10.5565 6.58202 10.5472 6.50788 10.5241 6.42447V6.41984ZM12.5491 8.38925C12.512 8.35218 12.475 8.32438 12.4332 8.31048C12.3915 8.29657 12.3406 8.2734 12.2711 8.2456C12.1598 8.34291 12.0764 8.5051 12.0162 8.73679C11.9281 9.08434 11.8772 9.26506 11.8725 9.28359C11.7243 8.97776 11.576 8.67192 11.4277 8.36145C11.4184 8.35218 11.3906 8.34291 11.3443 8.32901C11.2979 8.31511 11.2655 8.32901 11.2516 8.36145C11.2377 8.38925 11.2145 8.44022 11.1775 8.50973C11.145 8.57924 11.1265 8.63948 11.1265 8.68119C11.1265 8.74143 11.1543 8.7924 11.2053 8.83874C11.3767 8.82484 11.5018 8.92215 11.5852 9.12604C11.7104 9.43652 11.7845 9.60797 11.8077 9.63578C11.9096 9.53846 11.9838 9.38091 12.0208 9.15848C12.0347 9.038 12.0672 8.85728 12.1089 8.61168C12.132 8.55144 12.1645 8.52363 12.2108 8.52363C12.2711 8.52363 12.3545 8.55144 12.4657 8.61168L12.5537 8.38925H12.5491ZM28.6751 10.6691C28.6103 10.7294 28.5176 10.7572 28.3971 10.7572C28.3091 10.7572 28.221 10.7387 28.1283 10.7016C28.0079 10.6367 27.9013 10.5579 27.7993 10.4699C27.6974 10.3818 27.6325 10.2845 27.5954 10.1826C27.7066 10.1177 27.841 10.0806 27.994 10.0806C28.2164 10.0806 28.3971 10.1316 28.5408 10.2382C28.6056 10.3216 28.652 10.3911 28.6751 10.456C28.6983 10.5209 28.6983 10.5904 28.6751 10.6738V10.6691ZM19.9541 4.07507V4.0102C19.9541 3.89898 19.8985 3.84338 19.7873 3.84338C19.7502 3.84338 19.7224 3.85727 19.6992 3.88971C19.7363 3.94068 19.778 3.98239 19.8197 4.00556C19.8661 4.03336 19.9078 4.05653 19.9541 4.0797V4.07507ZM26.8818 11.6469C26.8355 11.5867 26.7799 11.5589 26.7057 11.5589C26.6408 11.5589 26.5945 11.5913 26.5713 11.6608C26.6177 11.6515 26.664 11.6608 26.715 11.6701C26.7752 11.6979 26.8169 11.7164 26.8355 11.7257L26.8818 11.6469ZM18.4944 9.51066C18.3925 9.37628 18.2674 9.26969 18.1237 9.18165C17.98 9.09824 17.8225 9.0519 17.651 9.0519C17.6047 9.0797 17.5676 9.1075 17.5352 9.13067C17.5028 9.15384 17.4889 9.18628 17.4981 9.23262C17.5723 9.34383 17.6696 9.41798 17.7947 9.45969C17.9152 9.50139 18.0588 9.51993 18.221 9.51993C18.3461 9.51993 18.4388 9.51993 18.499 9.51066H18.4944Z" fill="currentColor"/>
</svg>
