<svg width="40" height="16" viewBox="0 0 40 16" fill="none" xmlns="http://www.w3.org/2000/svg">
<path fill-rule="evenodd" clip-rule="evenodd" d="M30.5796 5.14011C30.5198 5.11448 30.4515 5.05468 30.3746 4.96497C30.2977 4.87527 30.2379 4.78557 30.1909 4.70013L30.0969 4.94788C30.0969 5.26399 30.1311 5.64845 30.1994 6.10552C30.3575 7.15635 30.4344 7.82273 30.4344 8.10466V8.63862C30.4344 9.2452 30.4216 9.68518 30.3916 9.95003C30.3447 10.3943 30.2464 10.8129 30.0926 11.2016C30.0926 8.67279 29.8833 6.19522 29.469 3.76891C29.4903 3.64503 29.5288 3.52115 29.5928 3.38872C29.6356 3.30756 29.7039 3.19222 29.8064 3.03844C29.9688 3.38018 30.1225 3.73473 30.2635 4.09782C30.4045 4.46519 30.507 4.8112 30.5753 5.14011H30.5796ZM26.8803 3.13242C26.7778 3.26911 26.624 3.38872 26.419 3.49124C26.1328 3.63648 25.8466 3.77745 25.5561 3.92268C25.5134 3.89705 25.5219 3.8458 25.5775 3.76891C25.7569 3.61086 25.9662 3.48271 26.2139 3.38019C26.325 3.3332 26.4489 3.28193 26.5941 3.23067C26.7394 3.17941 26.8333 3.14524 26.8803 3.13242ZM27.0427 4.55916C26.9487 4.73857 26.7778 4.87954 26.5386 4.9906C26.2994 5.10167 26.0687 5.20419 25.8509 5.29816C25.8509 5.24263 25.8808 5.18283 25.9448 5.11449C26.026 5.0376 26.0858 4.98633 26.12 4.95216C26.1114 4.94362 26.0644 4.91371 25.9747 4.85818C25.885 4.80265 25.8295 4.7514 25.7996 4.70441C25.8252 4.57626 25.8893 4.46091 25.9875 4.36267C26.0858 4.26442 26.2097 4.17899 26.3506 4.11064C26.4617 4.11064 26.5343 4.14909 26.577 4.22171C26.6027 4.31568 26.56 4.39257 26.4446 4.44811C26.3976 4.43529 26.3635 4.42247 26.3421 4.4182C26.2609 4.39257 26.1969 4.39257 26.1456 4.4182L26.0431 4.52072C26.1114 4.58906 26.1926 4.63605 26.2823 4.66595C26.3763 4.69158 26.4873 4.71295 26.6155 4.72576C26.6625 4.69159 26.7394 4.65741 26.8462 4.62751C26.9529 4.59761 27.017 4.57625 27.0341 4.55916H27.0427ZM28.4694 4.94788C28.2216 4.29859 27.9782 3.6493 27.7304 3C27.6407 3.0598 27.5553 3.16233 27.4741 3.29902C27.4314 3.36737 27.3758 3.49124 27.299 3.66638C27.4613 4.29432 27.6151 5.02905 27.7518 5.87057C27.8628 6.62238 27.9739 7.36993 28.0892 8.11748C28.0978 8.23281 28.102 8.34814 28.1106 8.4592C28.1191 8.57027 28.1191 8.68133 28.1191 8.79239C28.1191 8.9718 28.102 9.12559 28.0636 9.26228C28.0251 9.39898 27.9525 9.51431 27.8415 9.61256C27.8415 9.53567 27.8415 9.42033 27.85 9.26228C27.8585 9.10423 27.8585 8.98889 27.8585 8.912C27.8585 8.78385 27.85 8.66425 27.8372 8.56173C27.8244 8.45921 27.7945 8.36523 27.756 8.27553C27.6108 7.98078 27.4314 7.69458 27.2135 7.42119C26.9957 7.14353 26.6027 6.73346 26.0345 6.18668C25.5433 5.69971 25.2144 5.37078 25.0521 5.19137C24.6975 4.80692 24.4284 4.46092 24.2404 4.14482C24.2874 4.17899 24.343 4.21316 24.4028 4.24306C24.4626 4.27296 24.5266 4.27724 24.5864 4.26015C24.4626 4.06792 24.3002 3.8757 24.0952 3.68775C23.9927 3.59377 23.7962 3.42718 23.5014 3.19651C23.3904 3.37592 23.3391 3.55106 23.3391 3.73047C23.3391 4.03803 23.5527 4.43101 23.9841 4.90944C24.2703 5.22982 24.454 5.44768 24.5266 5.55447C24.7744 5.90475 25.1717 6.33191 25.727 6.83597C26.1584 7.22469 26.4147 7.45964 26.4959 7.54507C26.906 7.94661 27.2007 8.28834 27.3758 8.57027C27.6279 8.96754 27.756 9.37762 27.756 9.80052C27.5766 9.99701 27.3887 10.1807 27.1836 10.343C27.0128 10.4797 26.8034 10.6207 26.56 10.7616C26.5343 10.783 26.2609 10.9411 25.7483 11.2315C25.6031 11.3127 25.4493 11.4109 25.2785 11.5177C25.4408 11.4579 25.7654 11.3682 26.2481 11.2572C26.7308 11.1461 27.0854 11.0265 27.3203 10.9026C27.6877 10.5352 27.9568 10.091 28.1191 9.56984C28.2558 9.13413 28.3242 8.60872 28.3242 8.00214C28.3242 7.55789 28.2814 7.03673 28.2003 6.44297C28.1191 5.84921 28.038 5.28962 27.9653 4.75993L28.0892 4.5549C28.1447 4.63179 28.2045 4.70867 28.2729 4.78983C28.3412 4.871 28.4053 4.92226 28.4694 4.94362V4.94788ZM22.7368 4.33276C22.7453 4.42674 22.7197 4.52072 22.6685 4.60616C22.6172 4.69159 22.5659 4.77702 22.5189 4.85818C22.4164 4.96925 22.2883 5.02051 22.1388 5.02051C22.0704 5.02051 22.0192 5.01197 21.985 4.99916C21.9081 4.92227 21.8739 4.83255 21.8739 4.72149C21.8739 4.62751 21.9209 4.49509 22.0192 4.33276C22.1644 4.09355 22.237 3.96541 22.2456 3.94405C22.2584 4.0124 22.2285 4.11492 22.1601 4.25161C22.0875 4.38831 22.0533 4.48655 22.0533 4.55062C22.0533 4.63178 22.096 4.70013 22.1772 4.75567C22.2541 4.76421 22.3139 4.75566 22.3566 4.73858C22.3993 4.72149 22.4634 4.68732 22.5446 4.63178C22.536 4.57625 22.4933 4.50791 22.4164 4.42248C22.3395 4.33704 22.2968 4.27723 22.2968 4.24306C22.2968 4.18753 22.3395 4.13199 22.4292 4.08073C22.472 4.10209 22.5189 4.13627 22.5745 4.18753C22.63 4.23879 22.6855 4.29005 22.7368 4.33704V4.33276ZM22.0619 3.09398C21.6518 3.20504 21.1648 3.3631 20.6052 3.57668C20.2891 3.69201 19.8107 3.87569 19.17 4.13199C19.076 4.14481 18.9905 4.20461 18.9137 4.30713C18.8667 4.37548 18.8197 4.46947 18.7812 4.5848C19.8278 4.15336 20.8743 3.72192 21.9295 3.28193L22.0619 3.09825V3.09398ZM20.114 6.03717C20.0029 6.22085 19.8961 6.40453 19.7851 6.57967C19.6826 6.55831 19.5672 6.51986 19.4348 6.45579C19.2853 6.37462 19.17 6.31483 19.0973 6.28066C19.123 6.16532 19.1742 6.04998 19.2426 5.94319C19.3109 5.83213 19.3921 5.71679 19.4903 5.59291C19.6185 5.64844 19.7509 5.69971 19.879 5.7467C20.0243 5.82359 20.1012 5.91756 20.114 6.03289V6.03717ZM24.1037 11.4494C23.9756 11.68 23.7876 11.8723 23.5441 12.0218C23.3007 12.1713 23.0486 12.2482 22.7795 12.2482C22.63 12.2482 22.5019 12.2311 22.3993 12.1927C22.2968 12.1542 22.2199 12.0816 22.1729 11.9705C22.2071 11.8125 22.2755 11.6715 22.3823 11.5391C22.489 11.4067 22.6215 11.317 22.7752 11.2614C22.7283 11.2273 22.6556 11.1974 22.5659 11.176C22.472 11.1504 22.3908 11.129 22.3139 11.1076C22.3481 10.9624 22.4292 10.8941 22.5617 10.8941C22.6386 10.8941 22.7154 10.9112 22.7923 10.9496C22.8692 10.988 22.9461 11.0222 23.023 11.0564C23.0657 11.2016 22.9632 11.3383 22.7197 11.475C22.4762 11.6117 22.3566 11.6971 22.3566 11.7313C22.3566 11.8082 22.472 11.8851 22.7069 11.9663C23.2622 11.9663 23.7236 11.7911 24.0995 11.4451L24.1037 11.4494ZM17.9525 5.06323C17.9098 5.04187 17.8714 5.00769 17.8286 4.9607C17.7688 4.88381 17.709 4.80692 17.6535 4.72576C17.6535 5.12303 17.6877 5.60145 17.7518 6.16531C17.8158 6.72918 17.8799 7.27169 17.9397 7.78856C17.9483 7.92525 17.9568 8.05339 17.9653 8.17727C17.9739 8.30115 17.9824 8.44212 17.9824 8.5959C17.9824 9.01453 17.9397 9.39043 17.8585 9.73217C17.7774 10.0739 17.6321 10.4071 17.4271 10.736C17.5296 10.249 17.5809 9.71935 17.5809 9.1384C17.5809 8.60444 17.5382 8.02777 17.457 7.39984C17.3758 6.77617 17.2904 6.13541 17.205 5.48184C17.1195 4.82828 17.0768 4.26869 17.0768 3.80735L17.4057 3.20077C17.4271 3.27766 17.5296 3.58095 17.7133 4.11491C17.8415 4.49082 17.9226 4.80692 17.9483 5.05895L17.9525 5.06323ZM26.3165 7.80137C26.2268 7.74157 26.1328 7.68604 26.0303 7.63905C25.9277 7.59206 25.8081 7.54079 25.6714 7.48526C25.2485 7.3742 24.8257 7.26314 24.4113 7.14781C23.5484 6.92995 22.8265 6.81888 22.237 6.81888C21.9295 6.81888 21.6134 6.84878 21.293 6.91286C21.0751 7.04101 20.9043 7.24605 20.7804 7.52798C20.7035 7.69031 20.6266 7.94661 20.5454 8.28834C20.6138 8.51474 20.7804 8.7027 21.0495 8.8522C21.1947 8.92909 21.4126 9.0487 21.7073 9.21102C21.2716 9.39043 20.8316 9.56557 20.3959 9.74498C20.0542 9.88168 19.7039 10.0696 19.3494 10.3088C19.0632 10.5053 18.7428 10.7574 18.384 11.0564C17.7688 11.5904 17.457 11.8595 17.4527 11.868C17.0896 12.167 16.7607 12.402 16.4703 12.5643C16.3891 12.5771 16.325 12.5856 16.2866 12.5856C16.1926 12.5856 16.1072 12.5686 16.0303 12.5344C15.9534 12.5002 15.8936 12.4404 15.8466 12.3592C15.8252 12.214 15.8167 12.073 15.8167 11.9278C15.8167 11.5391 15.8978 11.1632 16.0559 10.8001C16.2182 10.437 16.4446 10.1081 16.7394 9.80479C16.7394 9.79625 16.7479 9.75779 16.7693 9.68517C16.7906 9.61256 16.7992 9.55276 16.7992 9.50577C16.7992 9.39471 16.7565 9.31354 16.6753 9.25801C16.4446 9.18966 16.2011 9.15549 15.9491 9.15549C15.6971 9.15549 15.1204 9.26228 14.1977 9.47159C13.7791 9.56557 13.4288 9.61684 13.1426 9.61684C13.0145 9.62965 12.5702 9.71508 11.8098 9.87313C11.2417 9.98846 10.7761 10.0483 10.4173 10.0483C10.0157 10.0483 9.66119 9.98847 9.36218 9.86459C9.0119 9.71935 8.72143 9.48868 8.48221 9.1683C8.42241 9.01025 8.38823 8.8522 8.38823 8.6856C8.38823 8.51901 8.41386 8.34814 8.46085 8.18155C8.50784 8.01922 8.57192 7.86544 8.64454 7.72875L8.99481 7.7074C9.19131 7.58352 9.31092 7.34003 9.35363 6.96839C9.36218 6.85733 9.37926 6.69927 9.40489 6.48569C9.37926 6.53268 9.35363 6.57967 9.328 6.63093C9.30237 6.67791 9.29383 6.7249 9.29383 6.77616C9.25966 6.84451 9.21694 6.8915 9.16568 6.91286C9.11442 6.93849 9.02899 6.94276 8.90511 6.92995C8.70861 6.71209 8.60609 6.43016 8.60609 6.08843C8.60609 5.85776 8.64881 5.58864 8.73851 5.28963C8.77269 5.16575 8.85812 4.92226 8.99481 4.56344C8.77696 4.87954 8.60609 5.19992 8.48221 5.52884C8.3327 5.91756 8.25581 6.2892 8.25581 6.6352C8.25581 6.80607 8.28144 6.98548 8.32843 7.16916C8.37542 7.35284 8.44377 7.51944 8.53347 7.67322C8.31989 8.17727 8.20028 8.46776 8.17465 8.5361C8.05932 8.86502 7.99951 9.16831 7.99951 9.45024C7.99951 9.50577 8.00806 9.59547 8.02087 9.71508C8.3028 10.1038 8.64881 10.3857 9.06743 10.5566C9.42198 10.7018 9.84915 10.7702 10.3489 10.7702C10.7676 10.7702 11.2759 10.7104 11.8782 10.595C12.2114 10.5352 12.7069 10.4327 13.3562 10.2875C13.7748 10.1764 14.1934 10.0696 14.6163 9.95857C14.8812 9.89022 15.1375 9.85605 15.3767 9.85605C15.5219 9.85605 15.6415 9.86886 15.7441 9.89022C15.8466 9.91585 15.9406 9.94148 16.0217 9.96711C16.0474 10.0611 15.9961 10.1679 15.8594 10.2832C15.68 10.4413 15.586 10.5267 15.5732 10.5395L15.5433 10.5096C15.2955 10.7018 15.0563 10.8941 14.8171 11.082C14.5309 11.3084 14.36 11.5391 14.3045 11.7783C14.5437 11.5946 14.8299 11.3938 15.1674 11.1717C15.4536 10.988 15.7398 10.8044 16.0303 10.6164C15.8808 10.9496 15.7825 11.1931 15.7312 11.3426C15.6373 11.6288 15.586 11.8851 15.586 12.1115C15.586 12.4191 15.6629 12.6796 15.821 12.8889C15.9149 12.9658 16.0345 13 16.1798 13C16.2396 13 16.3207 12.9915 16.419 12.9701C16.5172 12.9487 16.5941 12.9317 16.6497 12.9188C17.6321 12.1585 18.1875 11.7313 18.3113 11.6373C18.6744 11.3725 19.0119 11.1375 19.328 10.941C19.8406 10.6121 20.319 10.3516 20.7633 10.1636C21.2887 9.93294 21.8056 9.77062 22.3096 9.68091C22.3524 9.70227 22.3908 9.74926 22.4292 9.83042C22.4677 9.90731 22.5061 9.95856 22.5488 9.97992L22.5702 9.61256C22.9717 9.49723 23.3946 9.37334 23.8304 9.24519C24.2661 9.11704 24.7189 8.98036 25.1845 8.84367C25.5177 8.74969 25.774 8.6258 25.9448 8.47629L26.3464 7.80137H26.3165ZM13.2878 3.77317L13.2793 3.99957C13.2451 4.02093 13.1981 4.01666 13.1426 3.99103C13.0828 3.9654 13.0444 3.94831 13.023 3.94831C12.9418 4.07646 12.8692 4.35839 12.8094 4.78983C12.7838 5.00342 12.7368 5.17429 12.677 5.30244C12.6001 5.21274 12.5275 5.07177 12.4549 4.871C12.3823 4.6745 12.3182 4.53353 12.2669 4.45237C12.2413 4.49936 12.2071 4.52499 12.1644 4.52499C12.1516 4.52499 12.1089 4.51645 12.0405 4.50364C11.9722 4.42248 11.9252 4.36267 11.8953 4.3285C11.8398 4.26015 11.8141 4.19607 11.8141 4.13199C11.8141 4.09782 11.8227 4.05938 11.844 4.02094L12.0576 3.81589C12.2071 3.92696 12.331 4.09355 12.425 4.31995C12.583 4.68731 12.6642 4.87527 12.6727 4.88381C12.7154 4.80265 12.7539 4.58479 12.7966 4.22597C12.8393 3.86715 12.9803 3.69201 13.228 3.69201L13.2878 3.77317ZM14.8769 7.25886C14.8983 7.34003 14.8897 7.42546 14.8556 7.51517C14.7958 7.62623 14.7488 7.70739 14.7231 7.76292C14.7103 7.76292 14.6761 7.77147 14.6249 7.78856C14.5736 7.80565 14.5352 7.80564 14.5053 7.78428C14.4241 7.68176 14.3814 7.57498 14.3814 7.46818C14.3814 7.34431 14.4284 7.19052 14.5266 7.00684C14.5736 6.92567 14.6206 6.84024 14.6719 6.75053C14.6719 6.79752 14.6591 6.86161 14.6292 6.94704C14.5694 7.12645 14.5352 7.2375 14.5352 7.28449C14.5352 7.36565 14.5736 7.44254 14.6462 7.51089C14.689 7.51089 14.7231 7.47245 14.7573 7.39984C14.7915 7.32295 14.8299 7.28023 14.8684 7.26742L14.8769 7.25886ZM13.3818 5.59719C13.322 5.78087 13.2024 5.93464 13.023 6.05425C12.8436 6.17385 12.6556 6.24221 12.4506 6.26357C12.472 6.20376 12.5403 6.14823 12.6556 6.10124C12.929 5.98591 13.0914 5.88765 13.1383 5.81503C13.0914 5.80649 12.9974 5.79369 12.8564 5.77233C12.7154 5.75097 12.6129 5.74242 12.5446 5.74242C12.4164 5.74242 12.3054 5.76805 12.2157 5.82359C12.3054 5.69971 12.3609 5.62709 12.378 5.61C12.4463 5.54166 12.5232 5.49893 12.6129 5.48612C12.8778 5.48612 13.1341 5.52457 13.3818 5.59719ZM11.0837 7.31867C11.0409 7.53226 11.0025 7.66895 10.9598 7.73303C10.9171 7.7971 10.853 7.84408 10.7633 7.86971C10.7163 7.84835 10.6693 7.827 10.6309 7.7971C10.5881 7.77147 10.5668 7.73729 10.5582 7.69885C10.5497 7.6604 10.5497 7.61342 10.5497 7.56216C10.5497 7.46818 10.5753 7.36566 10.6223 7.26314C10.6693 7.16062 10.7163 7.06237 10.7676 6.96412C10.7676 6.98975 10.7547 7.05383 10.7334 7.14781C10.7078 7.24179 10.6992 7.3144 10.6992 7.36139C10.6992 7.4511 10.7419 7.51944 10.8231 7.56642C10.8914 7.57497 10.9427 7.53225 10.9811 7.44682C11.0196 7.36138 11.0538 7.31439 11.0879 7.31012L11.0837 7.31867ZM12.6514 11.8894C12.5488 12.12 12.4036 12.3379 12.2114 12.5344C12.032 12.4233 11.9038 12.3379 11.8227 12.2781C11.6732 12.167 11.5877 12.0602 11.5664 11.9492L11.985 11.428C12.2242 11.5305 12.4463 11.6843 12.6514 11.8894ZM25.099 8.19009C24.1892 8.48483 23.2921 8.73687 22.4036 8.95046C22.3096 8.71979 22.1046 8.51047 21.7885 8.32678C21.3699 8.07903 21.1221 7.9167 21.0409 7.83554C21.1178 7.74157 21.2118 7.67322 21.3271 7.63477C21.4425 7.59633 21.5792 7.57924 21.7372 7.57924C21.8184 7.57924 21.9465 7.58779 22.1174 7.60061C22.2883 7.61342 22.4079 7.62196 22.4762 7.62196C22.8094 7.69031 23.1469 7.75438 23.4801 7.81845C24.155 7.9466 24.6975 8.07476 25.099 8.19864V8.19009Z" fill="currentColor"/>
</svg>
