<svg width="40" height="16" viewBox="0 0 40 16" fill="none" xmlns="http://www.w3.org/2000/svg">
<path fill-rule="evenodd" clip-rule="evenodd" d="M30.685 5.53821C30.685 5.53821 30.6341 5.45021 30.5553 5.29736C30.4766 5.14451 30.3978 5.03798 30.3145 4.9824C30.2543 5.15377 30.2265 5.34368 30.2265 5.56137C30.2265 5.73738 30.2357 5.91802 30.2589 6.09402C30.3237 6.63594 30.3608 6.93701 30.3608 6.99259C30.4117 7.43724 30.4534 7.79389 30.4812 8.0579C30.5831 8.88699 30.6387 9.50764 30.6387 9.91524C30.6387 10.3228 30.6016 10.698 30.5229 11.0454C30.4442 11.3881 30.3145 11.7124 30.1292 12.0088C30.2033 11.4993 30.2404 10.9667 30.2404 10.4201C30.2404 9.79018 30.194 9.10468 30.106 8.36359C30.018 7.62251 29.9254 6.8629 29.8328 6.0894C29.7401 5.31589 29.6938 4.63965 29.6938 4.06068C29.6568 4.00046 29.6382 3.94025 29.6382 3.87078C29.6382 3.78277 29.6799 3.66698 29.7587 3.52802C29.8837 3.31496 29.9532 3.19917 29.9578 3.18527C30.0968 3.56971 30.245 3.95415 30.3932 4.32932C30.5507 4.78323 30.6433 5.1862 30.6804 5.54285L30.685 5.53821ZM26.2709 4.22742C26.2709 4.46364 26.1876 4.63965 26.0162 4.75081C25.9513 4.77397 25.8911 4.75081 25.8448 4.6767C25.7985 4.60723 25.7661 4.55628 25.7522 4.52849C25.7383 4.45438 25.729 4.39417 25.729 4.35248C25.729 4.23205 25.7522 4.12089 25.7939 4.00973C25.8402 3.89856 25.8958 3.77351 25.9699 3.62992C25.9699 3.68087 25.9513 3.77351 25.9189 3.90783C25.8865 4.04215 25.868 4.13015 25.868 4.17647C25.868 4.31079 25.9143 4.41269 26.0116 4.4868C26.0764 4.49606 26.1227 4.45438 26.1505 4.36638C26.1783 4.27837 26.2153 4.23205 26.2663 4.23205L26.2709 4.22742ZM25.6503 5.70496C25.5623 5.86244 25.4928 5.9736 25.4511 6.04771C25.3631 6.19592 25.2658 6.28856 25.1639 6.32561C25.1408 6.2515 25.0065 6.16814 24.7517 6.07087C24.6313 6.02455 24.5757 5.9736 24.5757 5.91339C24.5757 5.85317 24.6174 5.7837 24.6961 5.70032L25.0065 5.34368C25.1084 5.33442 25.2195 5.36684 25.3399 5.43631C25.4604 5.50579 25.5623 5.59379 25.6503 5.69569V5.70496ZM23.7698 3.73645C23.7698 3.86151 23.7466 3.95415 23.7049 4.01436C23.6401 3.97731 23.5845 3.94951 23.5428 3.93099C23.5011 3.91246 23.4641 3.91246 23.427 3.92635C23.3437 4.06068 23.2695 4.36638 23.1954 4.84808C23.1584 5.07041 23.1074 5.25104 23.038 5.39463C22.9731 5.30663 22.9036 5.18156 22.8388 5.01482C22.6998 4.66744 22.5887 4.44975 22.5146 4.35711L22.4358 4.52385C22.371 4.50069 22.3061 4.46364 22.2413 4.41269C22.1764 4.36174 22.1162 4.2969 22.056 4.22279C22.0699 4.10236 22.0931 4.01436 22.1162 3.94951C22.144 3.88467 22.195 3.82909 22.2783 3.77814C22.4405 3.82446 22.6304 4.06531 22.8434 4.50996C22.9314 4.69523 23.0194 4.76934 23.1121 4.73229C23.1491 4.3988 23.1769 4.19963 23.1908 4.13015C23.2418 3.89857 23.3344 3.73182 23.4687 3.62066C23.5336 3.60676 23.5891 3.61139 23.6355 3.62992C23.6818 3.66698 23.7235 3.6994 23.7698 3.73182V3.73645ZM23.3575 7.76146C23.3575 7.85873 23.339 7.956 23.3066 8.04863C23.2742 8.1459 23.214 8.21075 23.1213 8.2478C23.0565 8.27096 23.0009 8.25243 22.9592 8.19685C22.9175 8.14127 22.8805 8.07179 22.8434 7.99305C22.8342 7.956 22.8342 7.90042 22.8342 7.82631C22.8342 7.70125 22.8573 7.58082 22.899 7.46503C22.9453 7.34923 23.0009 7.22881 23.075 7.10375C23.038 7.28902 23.0055 7.46966 22.9731 7.6503C22.9731 7.78462 23.0194 7.88652 23.1167 7.96063C23.1769 7.97452 23.2279 7.94673 23.2649 7.87726C23.3066 7.80778 23.3344 7.76609 23.3483 7.76146H23.3575ZM20.2126 4.36174C20.1107 4.59796 19.9578 4.82492 19.7633 5.03335C19.5688 5.24641 19.3464 5.41316 19.1009 5.53821C18.8045 5.61232 18.5127 5.6818 18.2209 5.75127C18.6007 5.55211 18.8833 5.39926 19.0732 5.30199C19.2631 5.20009 19.4205 5.08893 19.5456 4.96387C19.4622 4.94998 19.3696 4.93608 19.2584 4.91755C19.1473 4.90366 19.0454 4.8944 18.9481 4.8944C18.7767 4.8944 18.6424 4.91292 18.5359 4.94535C18.434 4.97777 18.3413 5.04724 18.258 5.14914C18.2811 4.96387 18.3599 4.78323 18.5034 4.60259C18.6424 4.42659 18.8091 4.31543 18.9944 4.26911C19.0546 4.25521 19.1148 4.24595 19.1797 4.24595H19.3279C19.4669 4.24595 19.5965 4.25521 19.7123 4.26911C19.8281 4.283 19.9949 4.31542 20.2172 4.35711L20.2126 4.36174ZM17.4891 4.48217C17.4891 4.69523 17.4057 4.84808 17.2343 4.93608C17.0861 4.90829 17.0028 4.83881 16.9796 4.73691C16.9796 4.53775 17.0028 4.35711 17.0537 4.20426C17.1 4.04678 17.1788 3.88004 17.2807 3.69477C17.3038 3.76887 17.2807 3.88467 17.2204 4.04678C17.1556 4.20426 17.1278 4.32006 17.1278 4.3849C17.1278 4.50533 17.1973 4.5887 17.3409 4.63965C17.364 4.63038 17.3872 4.60259 17.4057 4.55164C17.4289 4.50069 17.4567 4.47754 17.4937 4.4868L17.4891 4.48217ZM20.5136 7.79388C20.4905 7.91431 20.4673 8.01621 20.4488 8.09958C20.4256 8.18296 20.3839 8.25706 20.3145 8.31728C20.2172 8.33117 20.1385 8.30801 20.0829 8.25243C20.0227 8.19222 19.9949 8.11348 19.9949 8.02084C19.9949 7.67346 20.069 7.38166 20.2172 7.1547C20.2172 7.21491 20.1987 7.30755 20.1616 7.43261C20.1246 7.55766 20.106 7.65956 20.106 7.73367C20.106 7.83094 20.1292 7.90968 20.1709 7.96526L20.3284 8.06716L20.472 7.79852H20.5183L20.5136 7.79388ZM28.0634 5.03798C28.0171 4.75544 27.9059 4.40806 27.7299 3.9912C27.4798 3.4076 27.3409 3.07411 27.3177 3C27.1834 3.09727 27.0954 3.19454 27.0444 3.30107C26.9981 3.40296 26.9703 3.52339 26.9703 3.65771C26.9703 3.78277 26.9981 3.97731 27.0583 4.23669C27.1185 4.49607 27.1463 4.6906 27.1463 4.81566L27.8921 9.26216L27.9384 10.0959C27.5771 10.3784 27.1417 10.5174 26.6368 10.5174C26.4006 10.5174 26.1598 10.4757 25.9143 10.3969C26.0162 10.1005 26.0857 9.89671 26.1135 9.78555C26.1737 9.55396 26.2015 9.3409 26.2015 9.14173C26.2015 8.87309 26.1459 8.64613 26.0347 8.4516C25.9884 8.33117 25.9282 8.24317 25.8494 8.18296C25.7707 8.12274 25.6734 8.10885 25.553 8.13664C25.2056 8.34507 24.9323 8.62297 24.7285 8.97036C24.5294 9.31774 24.4275 9.68365 24.4275 10.0588C24.4275 10.1561 24.4275 10.2302 24.4367 10.2811C23.6447 10.6146 22.7739 10.7814 21.8244 10.7814C21.5419 10.7814 21.2594 10.7675 20.9676 10.7351C20.6804 10.7073 20.4071 10.661 20.157 10.6007C19.666 10.4433 19.2955 10.2858 19.0361 10.1237C18.6378 9.86429 18.434 9.55396 18.434 9.18805C18.2765 9.26216 18.0403 9.51691 17.7207 9.95693C17.4706 10.3043 17.188 10.4803 16.8777 10.4803C16.7063 10.4664 16.5627 10.3969 16.4377 10.2811C16.3173 10.1607 16.1968 9.94766 16.0857 9.63733C16.0208 9.09078 15.9699 8.44234 15.9421 7.69199C15.9143 6.94164 15.8865 6.20056 15.8587 5.45947C15.8309 4.71839 15.7846 4.06068 15.7198 3.4817C15.5623 3.61603 15.4604 3.76424 15.4048 3.92635C15.3492 4.08847 15.3214 4.283 15.3214 4.50533C15.3214 4.65354 15.3677 5.01482 15.4557 5.59379C15.4928 5.83928 15.5113 6.04771 15.5113 6.21445C15.5113 6.42751 15.5437 6.98333 15.6132 7.88189C15.641 8.28022 15.6595 8.61371 15.6595 8.87309C15.6595 9.14636 15.641 9.4289 15.5993 9.71144C15.5576 9.99861 15.5021 10.2487 15.4279 10.4618C14.6498 11.0639 13.9921 11.4761 13.4502 11.7077C12.9777 11.9069 12.5331 12.0088 12.1255 12.0088C11.8754 12.0088 11.6345 11.9717 11.4029 11.9023C11.1714 11.8328 10.949 11.7216 10.7267 11.5734C10.4951 11.3881 10.3839 11.1241 10.3839 10.786C10.3839 10.6517 10.3978 10.5359 10.4303 10.4433C10.5183 10.0496 10.5924 9.78092 10.6526 9.6327C10.773 9.34553 10.9351 9.16952 11.1436 9.10931C11.3149 8.99815 11.4493 8.82677 11.5419 8.59982C11.5789 8.51181 11.6438 8.29875 11.7318 7.96526C11.6855 7.97916 11.6345 8.03011 11.5743 8.11348C11.5141 8.19685 11.4678 8.25707 11.4354 8.28949C11.4029 8.32191 11.352 8.34043 11.2871 8.34043C11.1667 8.34043 11.0787 8.28949 11.0185 8.18296C10.9814 8.03474 10.9629 7.85873 10.9629 7.65957C10.9629 7.33534 11.0324 6.99259 11.176 6.63594C11.2964 6.33024 11.4632 6.02918 11.6762 5.72348C11.352 6.13108 11.0972 6.51088 10.9212 6.86753C10.6896 7.32608 10.5785 7.76609 10.5785 8.17832C10.5785 8.47476 10.6387 8.75729 10.7545 9.02131C10.5322 9.41501 10.3747 9.72534 10.2774 9.95693C10.1385 10.2811 10.0458 10.61 9.99951 10.9342C10.0227 11.1473 10.0458 11.365 10.0783 11.578C10.1431 11.9995 10.3191 12.2913 10.6016 12.4581C10.8101 12.5924 11.0092 12.685 11.2084 12.736C11.4029 12.7869 11.616 12.8147 11.8383 12.8147C12.2922 12.8147 12.7925 12.685 13.3483 12.4257C13.7188 12.2543 14.1727 11.9949 14.7147 11.6475C14.9277 11.5086 15.1408 11.3094 15.3492 11.0593C15.5206 10.837 15.692 10.6146 15.8587 10.3923C15.9606 10.7721 16.1644 11.05 16.4701 11.226C16.5952 11.2723 16.7017 11.2909 16.7943 11.2909C17.1 11.2909 17.4103 11.0639 17.7299 10.6146C17.9662 10.2811 18.1097 10.0866 18.1653 10.0264L18.2302 10.2811C18.6146 10.749 19.0963 11.0871 19.6753 11.2909C20.1663 11.4669 20.7452 11.5595 21.4215 11.5595C21.8893 11.5595 22.3663 11.5132 22.8573 11.4252C23.3483 11.3372 23.8254 11.2214 24.2932 11.0824C24.4275 10.9713 24.5757 10.9157 24.7378 10.9157C25.0435 11.0037 25.3446 11.0917 25.6503 11.1843C25.9097 11.2723 26.1829 11.3187 26.4747 11.3187C26.7665 11.3187 27.0398 11.2723 27.2992 11.1797C27.5586 11.0871 27.7855 10.9528 27.9754 10.7721C28.17 10.2811 28.2626 9.74386 28.2626 9.16026C28.2626 8.65076 28.1607 7.87262 27.9523 6.83511C27.7438 5.79759 27.6419 5.02872 27.6419 4.52385L28.0773 5.03335L28.0634 5.03798ZM18.1607 7.02964C18.1746 7.10375 18.1839 7.14544 18.1839 7.15007C18.1839 7.22418 18.1097 7.26586 17.9615 7.2705C17.8133 7.27976 17.7485 7.35387 17.7716 7.50208C17.7438 7.71051 17.716 7.88189 17.6929 8.02547C17.6697 8.16443 17.628 8.28485 17.5586 8.38212C17.4752 8.33117 17.3872 8.16906 17.2853 7.89115C17.1834 7.61788 17.0398 7.49745 16.8453 7.53451C16.7943 7.48819 16.7665 7.4465 16.7665 7.40018C16.7665 7.37239 16.7851 7.32145 16.8175 7.2566C16.8499 7.19176 16.8684 7.13617 16.8684 7.09912C16.9055 7.02501 16.9703 6.99722 17.0583 7.02038C17.1417 7.09449 17.2112 7.20565 17.2714 7.35387C17.4196 7.71515 17.5076 7.91895 17.54 7.956C17.5632 7.92821 17.6141 7.73367 17.6975 7.37703C17.7577 7.11765 17.8596 6.98796 18.0078 6.98796C18.0542 6.98796 18.1051 6.99722 18.1653 7.02038L18.1607 7.02964ZM14.2932 7.76146C14.3163 7.83557 14.3071 7.92821 14.27 8.03937C14.233 8.15053 14.1866 8.2339 14.1264 8.29412C14.0662 8.32191 14.006 8.32191 13.9365 8.28485C13.8717 8.2478 13.83 8.20148 13.8161 8.1459C13.8022 8.09032 13.7929 8.03474 13.7929 7.97453V7.84021C13.7929 7.68272 13.8115 7.53914 13.8439 7.40018C13.8763 7.26123 13.9319 7.11301 14.006 6.9509C14.006 7.01575 13.9921 7.12691 13.9597 7.28439C13.9319 7.44187 13.9134 7.55767 13.9134 7.64104C13.9134 7.7661 13.9319 7.8541 13.9736 7.90968C14.0153 7.96063 14.0662 7.99768 14.1357 8.02084L14.2932 7.7661V7.76146ZM13.5382 3.62529L13.4919 3.85688C13.4919 3.85688 13.4456 3.84298 13.3761 3.81983C13.3066 3.79204 13.2464 3.78277 13.2047 3.78277C13.1769 3.78277 13.1399 3.79203 13.1028 3.81519C13.038 4.23205 12.9731 4.64428 12.9129 5.06114C13.0009 5.0843 13.0796 5.12598 13.1537 5.18156C13.2232 5.24178 13.302 5.32052 13.3807 5.42705C13.3807 5.60306 13.2232 5.70496 12.9036 5.72811C12.584 5.75127 12.3895 5.83465 12.3154 5.98286C12.4729 6.81195 12.6257 7.64104 12.7832 8.47476C12.7832 8.91941 12.6859 9.31774 12.496 9.66512C12.6165 9.37795 12.672 9.06299 12.672 8.7295C12.672 8.45623 12.6304 8.12737 12.5516 7.7522C12.4312 7.20565 12.3154 6.65447 12.195 6.10792C12.2413 5.94581 12.2783 5.83001 12.3154 5.76517C12.3802 5.64011 12.4729 5.55674 12.5933 5.51969C12.6211 5.49653 12.6906 5.48263 12.7971 5.48263C12.9036 5.48263 12.9777 5.4641 13.0148 5.43168C12.9638 5.40852 12.9268 5.39463 12.9036 5.38536C12.8156 5.34831 12.7462 5.32978 12.6906 5.32978C12.6674 5.32978 12.635 5.33905 12.5887 5.35294C12.5238 5.41779 12.4821 5.47337 12.4682 5.51042C12.4405 5.46411 12.4312 5.41778 12.4497 5.3622C12.4682 5.30662 12.4868 5.25104 12.5099 5.20009C12.5748 5.12598 12.6674 5.07967 12.7786 5.06577C12.6535 4.73228 12.5701 4.53775 12.5331 4.47754C12.459 4.35711 12.3756 4.29227 12.2876 4.27837C12.2042 4.25058 12.1394 4.22279 12.0838 4.19963C12.0282 4.17647 11.9865 4.14405 11.9541 4.09773C11.9912 3.92172 12.019 3.81519 12.0329 3.78277C12.0468 3.75035 12.0792 3.71329 12.1348 3.67624C12.2969 3.76424 12.4451 3.92172 12.5794 4.14405C12.6813 4.32932 12.7925 4.51459 12.9036 4.69986C12.9175 4.43122 12.9361 4.16258 12.9592 3.8893C12.9963 3.7133 13.075 3.57897 13.1908 3.49097C13.3298 3.49097 13.4456 3.53729 13.5336 3.63455L13.5382 3.62529ZM19.1519 12.2635C19.1009 12.3516 19.0315 12.4581 18.9388 12.5739C18.8879 12.6387 18.8045 12.7406 18.6933 12.8749C18.5683 12.8101 18.4386 12.736 18.3043 12.6619C18.17 12.5878 18.0449 12.5415 17.9245 12.5276C17.9708 12.3793 18.0634 12.2311 18.2116 12.0829C18.295 11.9995 18.3738 11.9254 18.4571 11.8513C18.5776 11.9115 18.698 11.9717 18.8277 12.0412C18.9574 12.1061 19.0639 12.1802 19.1426 12.2635H19.1519ZM17.9059 12.3654C17.9059 12.3654 17.8226 12.4951 17.6744 12.7314C17.5632 12.9074 17.4567 13 17.3501 13C17.276 13 17.1927 12.9537 17.1047 12.8564C17.0398 12.8194 16.9889 12.7916 16.9611 12.7777C16.8499 12.7175 16.7619 12.6758 16.6924 12.6572C16.7573 12.5322 16.8314 12.4164 16.9101 12.3145C16.9889 12.2126 17.0815 12.12 17.1927 12.0459C17.3131 12.0736 17.4289 12.12 17.5493 12.1802C17.6697 12.2404 17.7855 12.3006 17.9059 12.3701V12.3654ZM13.2603 10.1654L13.1954 10.434C13.1954 10.434 13.1352 10.3969 13.0565 10.3506C12.9777 10.3043 12.9175 10.2811 12.8712 10.2904C12.8434 10.3553 12.8156 10.5266 12.7971 10.7999C12.7786 11.0732 12.7091 11.2538 12.5933 11.3326C12.5424 11.2862 12.4775 11.1566 12.3988 10.9389C12.32 10.7212 12.1996 10.61 12.0375 10.61C12.0607 10.4757 12.0745 10.3877 12.0884 10.3506C12.0977 10.3089 12.1348 10.2765 12.195 10.2441C12.3154 10.3043 12.4127 10.4294 12.4914 10.6285C12.5701 10.8231 12.6257 10.9435 12.6628 10.9805C12.6767 10.8092 12.6906 10.6378 12.7091 10.4572C12.7462 10.2348 12.8295 10.0774 12.9546 9.98935C13.0148 9.98008 13.0657 9.99398 13.1121 10.0264C13.1584 10.0588 13.2093 10.1051 13.2695 10.1654H13.2603ZM25.8448 9.7207C25.7059 9.80408 25.5669 9.88282 25.4326 9.96619C25.3492 10.0125 25.2705 10.031 25.1871 10.031C25.1593 10.031 25.113 10.0218 25.0528 10.0079C25.0528 9.99861 24.9972 9.93376 24.886 9.81334C24.7749 9.69291 24.7378 9.58175 24.7749 9.48448C24.8119 9.43816 24.8721 9.35943 24.9509 9.239C25.0713 9.08152 25.1825 8.98888 25.2936 8.95183C25.3168 8.94256 25.3492 8.94257 25.3955 8.94257C25.5067 8.94257 25.5947 9.00278 25.6642 9.11857C25.7105 9.22047 25.7522 9.327 25.7985 9.4289C25.7985 9.43817 25.8078 9.47522 25.8263 9.5447C25.8448 9.61417 25.8494 9.67439 25.8448 9.71607V9.7207Z" fill="currentColor"/>
</svg>
