<svg width="40" height="16" viewBox="0 0 40 16" fill="none" xmlns="http://www.w3.org/2000/svg">
<path fill-rule="evenodd" clip-rule="evenodd" d="M32.8458 5.38307C32.779 5.3608 32.701 5.29399 32.6175 5.18263C32.534 5.07127 32.4616 4.99889 32.4115 4.97105C32.4115 4.98775 32.3948 5.01002 32.3558 5.03786C32.3169 5.0657 32.3057 5.09355 32.3224 5.11582L32.289 5.10467C32.289 5.57238 32.3336 6.12918 32.4226 6.76949C32.5117 7.40981 32.6008 8.02784 32.6899 8.6236C32.7122 8.81848 32.7289 9.01336 32.7456 9.2138C32.7623 9.41425 32.7679 9.60912 32.7679 9.804C32.7679 10.2327 32.7344 10.6281 32.6621 10.99C32.5897 11.3519 32.4672 11.7138 32.289 12.0757C32.3391 11.853 32.3781 11.6136 32.4004 11.3519C32.4226 11.0902 32.4338 10.8341 32.4338 10.5835C32.4338 9.98217 32.3614 9.15256 32.2111 8.10022C32.1053 7.37082 32.044 6.88085 32.0218 6.6303C31.8714 5.71159 31.7267 4.7873 31.5875 3.86859C31.6153 3.69599 31.6654 3.54567 31.7267 3.41204C31.7879 3.27841 31.8714 3.16148 31.9772 3.06682C32.0496 3.2617 32.1777 3.55122 32.3558 3.93541C32.6287 4.52004 32.7957 5.00445 32.8458 5.38307ZM28.7033 3.55679C28.6198 3.69599 28.514 3.81291 28.3748 3.902C28.2356 3.99109 28.063 4.07461 27.8458 4.14699C27.6287 4.21937 27.4672 4.28062 27.3558 4.32517C27.1554 4.39755 26.9939 4.48663 26.8659 4.58129C26.9327 4.42539 27.0329 4.29733 27.1721 4.19154C27.3113 4.08575 27.4839 4.00223 27.701 3.92985C27.9182 3.85747 28.0797 3.80735 28.191 3.76838C28.397 3.69599 28.5696 3.62361 28.7033 3.55679ZM28.7144 5.02673C28.6699 5.22161 28.5028 5.37195 28.2133 5.48331C27.8068 5.63921 27.5674 5.745 27.5006 5.79511C27.5006 5.75056 27.5284 5.69488 27.5841 5.62806C27.6398 5.56124 27.6732 5.50557 27.6788 5.46103C27.5396 5.41092 27.4672 5.31068 27.4672 5.17149C27.4672 5.08797 27.5062 5.00446 27.5897 4.92094C27.6732 4.83742 27.7456 4.76504 27.8124 4.71493C27.9071 4.64255 28.0017 4.60356 28.0908 4.60356C28.1799 4.60356 28.2523 4.63697 28.3135 4.70378C28.2912 4.84298 28.2356 4.93764 28.1465 4.98218C28.0852 4.93764 28.0184 4.91537 27.9349 4.91537C27.8681 4.91537 27.818 4.93207 27.779 4.97105L27.7233 5.02673C27.7456 5.09355 27.8013 5.14365 27.8959 5.17149C27.9906 5.19933 28.0574 5.22161 28.1019 5.23832L28.7144 5.02673ZM30.5518 5.36081C30.5518 5.00446 30.4516 4.60913 30.2512 4.16927C30.1788 4.0078 29.9783 3.64032 29.6498 3.06682C29.5774 3.19488 29.5051 3.32294 29.4327 3.45657C29.3603 3.5902 29.3269 3.7127 29.3269 3.82406C29.3269 3.90758 29.338 3.96326 29.3603 4.00224C29.3881 4.21939 29.5496 5.1882 29.8391 6.91982C29.9449 7.56013 30.0284 8.14477 30.0953 8.67929C30.0953 8.80735 30.112 8.98551 30.1509 9.22493C30.1899 9.46435 30.2066 9.64254 30.2066 9.75947C30.2066 9.93207 30.1788 10.0824 30.1287 10.216C30.0173 9.84299 29.8336 9.46993 29.5719 9.09131C29.3547 8.7795 29.0875 8.45099 28.759 8.11135C28.6977 8.04453 28.4639 7.81069 28.0463 7.4098C27.5507 6.92539 27.1665 6.53006 26.8993 6.21826C26.8269 6.11247 26.6431 5.90646 26.3536 5.59465C25.9527 5.15479 25.7133 4.7873 25.6409 4.4922L26.0641 4.46994C25.6799 4.11359 25.2901 3.75724 24.906 3.40089C24.8224 3.49555 24.7723 3.61804 24.7445 3.76838C24.7166 3.91871 24.7055 4.09132 24.7055 4.29176C24.8781 4.67595 25.1008 5.06571 25.3737 5.46103C25.6186 5.81738 25.9026 6.17929 26.22 6.54121C26.4204 6.76949 26.7378 7.1147 27.1777 7.5657C27.5953 7.99443 27.9238 8.33964 28.1688 8.5902C28.5696 9.01336 28.8814 9.35856 29.1042 9.62582C29.4215 10.01 29.6888 10.3719 29.9059 10.706C29.5941 11.1013 29.1765 11.4799 28.6476 11.853C28.1966 12.1481 27.74 12.4488 27.289 12.7439C27.534 12.6826 27.7957 12.6214 28.0685 12.5546C28.3414 12.4877 28.5696 12.4154 28.7478 12.3318C29.3937 12.0256 29.8558 11.5802 30.1287 10.9955C30.3569 10.5056 30.4739 9.88195 30.4739 9.12471C30.3013 7.78841 30.1342 6.44654 29.9728 5.10467C30.0006 5.02116 30.0396 4.98218 30.0841 4.98218C30.1064 4.98218 30.201 5.07684 30.3736 5.27172C30.4405 5.3441 30.5017 5.37751 30.5518 5.36081ZM23.5808 4.00224C23.6031 4.11916 23.5975 4.23051 23.5585 4.3363C23.5195 4.44209 23.4527 4.52004 23.3469 4.58129C23.3024 4.59799 23.2634 4.58129 23.2244 4.54788C23.1576 4.48663 23.1186 4.45323 23.1131 4.44766C23.1131 4.24722 23.1353 4.06348 23.1855 3.89644C23.2356 3.72941 23.308 3.56236 23.4026 3.40089C23.4416 3.48998 23.4249 3.61248 23.3636 3.77395C23.3024 3.93542 23.269 4.0245 23.269 4.04677C23.269 4.13029 23.3191 4.18596 23.4249 4.2138C23.4472 4.1971 23.4639 4.1637 23.4806 4.10245C23.4973 4.04121 23.5307 4.0078 23.5808 4.00224ZM23.7033 5.65034C23.72 5.73386 23.7033 5.81738 23.6587 5.9009C23.6142 5.98442 23.5696 6.06793 23.5251 6.14032C23.3636 6.29065 23.1855 6.36303 22.9906 6.36303C22.9405 6.36303 22.8959 6.36304 22.8681 6.3519C22.7289 6.28508 22.6565 6.15701 22.6565 5.97327C22.6565 5.88975 22.6621 5.83408 22.6788 5.79511C22.6955 5.75613 22.7066 5.73385 22.7122 5.71715L23.0574 5.11582C23.0574 5.16593 23.0184 5.29955 22.946 5.50556C22.9015 5.63363 22.8792 5.72272 22.8792 5.77283C22.8792 5.87862 22.9182 5.96771 23.0017 6.0401C23.0964 6.0568 23.1743 6.05123 23.2356 6.03452C23.2968 6.01782 23.3748 5.97884 23.4806 5.92873C23.4973 5.85635 23.4249 5.7784 23.2634 5.70045C23.1019 5.62249 23.024 5.55568 23.024 5.49444C23.024 5.43319 23.0685 5.36637 23.1576 5.28285C23.308 5.32739 23.4082 5.36638 23.4583 5.39422C23.5752 5.46103 23.6587 5.54455 23.7033 5.65034ZM25.3514 6.74164C25.3904 6.78062 25.3904 6.83074 25.3625 6.89199C25.3347 6.95324 25.3068 7.00334 25.2846 7.04232C25.2456 7.04232 25.1955 7.03119 25.1342 7.01448C25.073 6.99778 25.034 6.98663 25.0284 6.98663C24.9783 6.98663 24.9338 7.00334 24.906 7.04232C24.8781 7.1147 24.8336 7.26504 24.7723 7.48219C24.7111 7.69934 24.6554 7.87194 24.6053 8C24.5552 7.95546 24.4884 7.81069 24.4104 7.56013C24.3325 7.30957 24.1988 7.20378 24.0039 7.23162C23.9427 7.19265 23.9149 7.14811 23.9149 7.098C23.9149 7.05902 23.9316 7.0089 23.9705 6.94765C24.0095 6.88641 24.0318 6.8363 24.0374 6.79733C24.0763 6.66926 24.1376 6.64698 24.2267 6.71937C24.3325 6.80845 24.416 6.92539 24.4828 7.07572C24.5051 7.12583 24.5552 7.27061 24.6276 7.49889C24.6554 7.44878 24.7055 7.31514 24.7779 7.10356C24.8503 6.89197 24.9282 6.74722 25.0173 6.6637C25.1732 6.6637 25.2846 6.69153 25.3514 6.74164ZM22.1443 3C22.1443 3.08909 22.1109 3.17261 22.0385 3.25056C21.9661 3.32851 21.8881 3.37862 21.799 3.40089C20.3792 3.91314 18.965 4.42539 17.5452 4.93764C17.5285 4.84856 17.5563 4.75947 17.6175 4.66482C17.6788 4.57017 17.7623 4.49777 17.857 4.44766C18.4082 4.26949 18.9316 4.09688 19.4382 3.92428C21.1086 3.35078 22.0106 3.04454 22.1443 3ZM20.808 5.18263C20.5852 5.01003 20.3403 4.87082 20.073 4.75947C19.9115 4.93764 19.8057 5.05456 19.7612 5.10467C19.6721 5.2216 19.5997 5.35524 19.5496 5.49444C19.5997 5.53341 19.7333 5.60023 19.9505 5.70602C20.112 5.78954 20.2456 5.86192 20.3403 5.92873C20.446 5.81181 20.5296 5.69488 20.5964 5.57795C20.6632 5.46102 20.7356 5.33297 20.808 5.18263ZM28.6142 9.54788C28.1186 9.54788 27.5953 9.48106 27.044 9.34743C26.6431 9.25277 26.1532 9.10244 25.5797 8.89643C25.0062 8.69041 24.5997 8.56236 24.3714 8.50111C23.9316 8.38975 23.5084 8.33408 23.0908 8.33408C22.8681 8.33408 22.6676 8.35078 22.4895 8.37861C22.4616 8.37861 22.4171 8.37862 22.367 8.36749C22.1053 8.36749 21.9048 8.47885 21.7656 8.70156C21.6933 8.81849 21.6097 9.04678 21.5207 9.38085C21.6042 9.40312 21.6821 9.41426 21.7656 9.41426C21.7823 9.41426 21.9605 9.38641 22.3002 9.3363C22.3948 9.31959 22.5062 9.31402 22.6231 9.31402C22.7345 9.31402 22.818 9.31959 22.8681 9.3363C23.024 9.29175 23.1799 9.26949 23.3358 9.26949C23.6309 9.26949 24.0429 9.36971 24.5719 9.57016C24.9227 9.70379 25.1565 9.7873 25.2846 9.82628C25.2456 9.85412 25.1955 9.88196 25.1231 9.89866C25.0507 9.91537 25.0117 9.93208 24.995 9.93764C24.1766 10.2327 23.3636 10.5278 22.5563 10.8174C22.2389 10.912 21.9661 10.9844 21.7489 11.0234C21.5318 11.0624 21.2812 11.0846 21.0084 11.0846C20.6576 11.0846 20.318 11.0345 19.9839 10.9399C20.1342 10.8118 20.2456 10.6559 20.3291 10.461C20.3904 10.3107 20.4349 10.1381 20.4627 9.9432C20.4906 9.74832 20.5073 9.57572 20.5073 9.42539C20.5073 9.15256 20.4683 8.91314 20.3959 8.71827C20.3235 8.52339 20.1844 8.35634 19.9839 8.22271C19.8503 8.1559 19.7278 8.1225 19.6164 8.1225C19.5496 8.1225 19.4772 8.1392 19.4048 8.17818C19.1543 8.46214 18.9594 8.76281 18.8202 9.08018C18.681 9.39755 18.6142 9.7372 18.6142 10.0935C18.6142 10.3441 18.6532 10.5835 18.7256 10.8062C18.6086 10.8898 18.4694 10.9399 18.3191 10.9566C18.1688 10.9733 17.985 10.9844 17.779 10.9844C17.5507 10.912 17.3503 10.7617 17.1832 10.5334C17.0162 10.3051 16.9104 10.0713 16.8659 9.82628L16.1643 4.19154L15.975 3.07796C15.8859 3.15034 15.808 3.2617 15.7411 3.40646C15.6743 3.55123 15.6131 3.68487 15.563 3.81293L16.142 7.57683C16.2144 8.3285 16.2924 9.07461 16.3759 9.81515C16.504 10.6782 16.7935 11.3241 17.2556 11.7639C17.4394 11.8808 17.6398 11.9421 17.8458 11.9421C18.0296 11.9421 18.2467 11.892 18.4973 11.7918C18.7478 11.6915 18.9761 11.5913 19.1933 11.4967C19.3046 11.608 19.4382 11.7027 19.5942 11.7862C19.7055 11.8474 19.8447 11.9087 20.0173 11.9755C20.4015 11.9755 20.7801 11.9588 21.1532 11.9198C21.5262 11.8808 21.8547 11.8252 22.1443 11.7472C22.4338 11.6693 22.779 11.5579 23.1743 11.4131C23.5696 11.2684 23.9204 11.1347 24.2155 11.0178C24.7055 10.8341 24.9561 10.7338 24.9728 10.7283C25.3959 10.5779 25.8135 10.4666 26.22 10.3942C26.3982 10.3552 26.5819 10.3274 26.7656 10.3051C26.9494 10.2828 27.1276 10.2717 27.289 10.2717C27.4505 10.2717 27.6342 10.2828 27.818 10.3051C28.0017 10.3274 28.1743 10.3552 28.3358 10.3942C28.5307 10.1492 28.6253 9.9098 28.6253 9.67038C28.6253 9.60913 28.6253 9.57015 28.6142 9.54788ZM21.5763 6.9755C21.5763 7.08686 21.5652 7.18151 21.5374 7.25946C21.5095 7.33741 21.465 7.43763 21.3982 7.55456C21.3313 7.57126 21.2645 7.55456 21.1977 7.52672C21.1309 7.49332 21.0864 7.44321 21.0697 7.37082C21.0529 7.29844 21.0418 7.23163 21.0418 7.16481C21.0418 7.07573 21.0585 6.98108 21.0975 6.87529C21.1031 6.85858 21.1476 6.76392 21.2311 6.58574C21.2088 6.72494 21.1977 6.8363 21.1977 6.91982C21.1977 7.07016 21.2423 7.17038 21.3313 7.23162C21.3926 7.23719 21.4371 7.20378 21.4761 7.12026C21.5151 7.03674 21.5485 6.99221 21.5763 6.9755ZM19.5051 5.32739C19.4104 5.54454 19.3325 5.70045 19.2823 5.79511C19.1877 5.97328 19.0708 6.06236 18.9371 6.06236C18.7979 6.00111 18.6587 5.94543 18.5251 5.88418C18.3636 5.79509 18.2801 5.70044 18.2801 5.59465L18.7924 5.07127L19.5051 5.32739ZM25.9527 12.3652C25.7745 12.5434 25.5574 12.6938 25.3068 12.8162C25.0563 12.9387 24.8002 13 24.5496 13C24.3881 13 24.2322 12.9722 24.0819 12.922C23.9705 12.8608 23.9149 12.7773 23.9149 12.6659C23.9149 12.6158 23.9316 12.5601 23.9705 12.51C24.0151 12.4209 24.0986 12.3263 24.2155 12.2316C24.2768 12.1815 24.377 12.1036 24.5273 11.9978C24.4327 11.9309 24.3436 11.8975 24.2712 11.8975C24.1877 11.8975 24.1264 11.9309 24.0819 11.9978C24.0819 11.9142 24.1042 11.8419 24.1543 11.7751C24.2044 11.7082 24.2656 11.6581 24.3492 11.6303C24.5886 11.6303 24.7723 11.6915 24.906 11.8196C24.906 11.9811 24.75 12.1314 24.4382 12.265C24.2879 12.3318 24.2155 12.3931 24.2155 12.4543C24.2155 12.5156 24.2601 12.5824 24.3492 12.6659C24.4605 12.6938 24.5774 12.7105 24.7055 12.7105C24.8614 12.7105 25.0229 12.6882 25.1843 12.6436C25.2289 12.6269 25.485 12.5379 25.9527 12.3652ZM18.1688 7.94432C18.1187 8.12249 18.0518 8.28396 17.9683 8.42872C17.8848 8.57349 17.779 8.72382 17.6454 8.87972C17.9293 8.52338 18.0685 8.11692 18.0685 7.66592C18.0685 7.40423 18.0073 7.17038 17.8904 6.95323L17.779 6.87529L17.9683 6.54121C18.1521 6.80847 18.2467 7.11471 18.2467 7.46548C18.2467 7.63809 18.2189 7.79398 18.1688 7.94432ZM14.7835 4.08018C14.7612 4.20824 14.7278 4.31403 14.6832 4.40868C14.6387 4.50334 14.5775 4.58686 14.4939 4.65925C14.4216 4.66481 14.3547 4.65367 14.2991 4.61469C14.2434 4.57572 14.1988 4.49778 14.1599 4.36972C14.1432 4.26393 14.1376 4.19153 14.1376 4.14699C14.1376 3.99109 14.1654 3.84076 14.2155 3.69599C14.2656 3.55122 14.3436 3.38976 14.4383 3.21158C14.3937 3.34521 14.3603 3.45658 14.338 3.54566C14.3158 3.63475 14.3046 3.74054 14.3046 3.85746C14.3046 4.03564 14.3492 4.1804 14.4383 4.29176C14.4605 4.33631 14.4884 4.353 14.5273 4.3363C14.5663 4.31959 14.5997 4.29733 14.6276 4.25836C14.6665 4.23608 14.6888 4.20824 14.6944 4.1804C14.6999 4.15256 14.7111 4.11915 14.7167 4.08018H14.7835ZM13.4694 5.02673C13.3971 5.29956 13.2579 5.56682 13.0574 5.82851C13.0351 5.81181 12.9071 5.74499 12.6677 5.61693C12.5062 5.53341 12.4227 5.43875 12.4227 5.32739C12.5173 5.17149 12.5897 5.05456 12.6342 4.98218C12.7178 4.84855 12.8069 4.74277 12.9015 4.65925C12.9962 4.70936 13.0964 4.75946 13.1966 4.80957C13.2968 4.85969 13.3859 4.93208 13.4694 5.02673ZM11.6432 3.50111L11.5652 3.81293C11.5151 3.80736 11.4706 3.79621 11.4316 3.77951C11.3258 3.74053 11.2478 3.7294 11.1977 3.73497C11.1476 3.8686 11.1086 4.04121 11.0864 4.25836C11.0363 4.73163 10.9861 5.0323 10.9416 5.14923C10.8469 5.12696 10.7077 4.93763 10.5296 4.58129C10.4461 4.40868 10.3514 4.31403 10.2456 4.28619C10.1398 4.25835 10.0563 4.23052 9.99505 4.19154C9.93381 4.15257 9.89483 4.09132 9.87256 4.00224C9.88926 3.87417 9.90597 3.7461 9.92824 3.61247C9.95608 3.52896 10.0062 3.48998 10.073 3.48998C10.112 3.48998 10.1565 3.50669 10.2066 3.53453C10.3403 3.65146 10.4572 3.81848 10.5518 4.0245C10.6465 4.23051 10.7412 4.43096 10.8302 4.62584C10.8692 4.55346 10.9082 4.35857 10.9583 4.0412C11.0084 3.72383 11.0919 3.51225 11.22 3.40089C11.3926 3.37862 11.5318 3.41202 11.6432 3.50111ZM12.1665 7.5323C12.1832 7.56014 12.1888 7.60467 12.1888 7.66592C12.1888 7.7383 12.1777 7.81069 12.1498 7.87751C12.122 7.94432 12.0942 8.01113 12.0663 8.07794C12.0162 8.12805 11.955 8.1559 11.8881 8.1559C11.838 8.1559 11.7935 8.13919 11.7657 8.10022C11.6821 7.98886 11.6432 7.85523 11.6432 7.69933C11.6432 7.57127 11.671 7.42651 11.7322 7.2539C11.8158 7.05902 11.8714 6.92538 11.8993 6.84186C11.916 6.90868 11.9104 6.98107 11.8881 7.06459C11.8269 7.33185 11.7991 7.47104 11.7991 7.48774C11.7991 7.63808 11.8603 7.74944 11.9884 7.82182L12.1665 7.5323ZM11.5095 5.75055C11.504 5.84521 11.4928 5.9176 11.4761 5.96214C11.4594 6.00668 11.426 6.04009 11.3759 6.06236C11.0697 6.06236 10.8636 6.07907 10.7523 6.10691C10.5296 6.16816 10.3737 6.29065 10.2846 6.48552C10.3904 6.85858 10.4683 7.15367 10.524 7.38195C10.5797 7.61024 10.6242 7.83853 10.6521 8.06681C10.6799 8.2951 10.7133 8.55122 10.7523 8.83519C10.7523 8.96325 10.7356 9.08017 10.7022 9.1971C10.6688 9.31403 10.6075 9.43096 10.5184 9.54788C10.602 9.38641 10.6409 9.19711 10.6409 8.97996C10.6409 8.75168 10.5908 8.47883 10.4962 8.16703C10.4015 7.8942 10.3069 7.61582 10.2178 7.34299C10.1899 7.2372 10.1677 7.15925 10.151 7.098C10.112 6.94767 10.0953 6.81402 10.0953 6.68596C10.0953 6.46324 10.1677 6.26838 10.3069 6.10691C10.4461 5.94544 10.691 5.8118 11.0418 5.71715C10.975 5.67261 10.9193 5.63921 10.8748 5.6225C10.8302 5.6058 10.7857 5.59465 10.7412 5.59465C10.6799 5.59465 10.6354 5.61136 10.5964 5.65034C10.5129 5.73386 10.4628 5.77839 10.4405 5.78396C10.4349 5.71715 10.4405 5.65591 10.4572 5.60023C10.4739 5.54455 10.5129 5.47216 10.5741 5.38307C10.6576 5.29398 10.7467 5.24945 10.8414 5.24945C10.9472 5.24945 11.0641 5.3107 11.1977 5.42762C11.3481 5.58352 11.4483 5.68931 11.5095 5.75055ZM8.38036 7.06459C8.38036 7.34856 8.34695 7.59354 8.28013 7.81069C8.21332 8.02784 8.09082 8.21714 7.91265 8.37861C7.86811 8.40089 7.82913 8.41202 7.79016 8.41202C7.74561 8.41202 7.68993 8.39532 7.62869 8.36191C7.56744 8.3285 7.51733 8.30623 7.48949 8.28953C7.4004 8.11692 7.33916 7.94431 7.30018 7.76614C7.2612 7.58797 7.2445 7.40422 7.2445 7.20935C7.2445 6.76391 7.36143 6.29064 7.58971 5.78396C7.76232 5.41091 8.01844 4.99333 8.35808 4.52562C8.30797 4.68152 8.20218 4.92094 8.04628 5.24945C7.77902 5.82851 7.64539 6.27394 7.64539 6.58574C7.64539 6.76948 7.66766 6.93096 7.71777 7.06459C7.76789 7.19822 7.85697 7.34299 7.9906 7.49889C8.09639 7.49889 8.16878 7.43208 8.21889 7.29288C8.269 7.15368 8.31911 7.0813 8.38036 7.06459ZM14.906 8.48998C14.7501 8.19488 14.5329 7.93319 14.2545 7.71047C13.9761 7.48776 13.681 7.35969 13.3692 7.32071C12.9962 7.48218 12.7233 7.76614 12.5452 8.16703C12.3948 8.50111 12.3224 8.89086 12.3224 9.3363C12.406 9.54231 12.5285 9.68708 12.6899 9.7706C12.8069 9.83184 12.9739 9.85968 13.1799 9.85968C13.2189 9.85968 13.3302 9.84856 13.5251 9.83185C13.72 9.81515 13.8648 9.804 13.9705 9.804C14.1432 9.804 14.2879 9.82628 14.4048 9.86526C14.5218 9.90423 14.622 9.98774 14.7055 10.1158C14.3269 10.3831 13.9427 10.5947 13.5585 10.7506C13.1743 10.9065 12.7345 11.0456 12.2445 11.1737C12.0663 11.2182 11.6265 11.3185 10.9193 11.4744C10.7189 11.5022 10.5351 11.5245 10.3625 11.5356C10.1899 11.5468 10.034 11.5523 9.8837 11.5523C9.3269 11.5523 8.8592 11.4688 8.48058 11.3073C8.02958 11.1069 7.68437 10.784 7.45608 10.3385C7.36143 10.1436 7.31132 9.9265 7.31132 9.68151C7.31132 9.49777 7.33915 9.29175 7.39483 9.06903C7.45051 8.84631 7.51733 8.64588 7.58971 8.4677C7.19439 9.11915 6.99951 9.84298 6.99951 10.6281C6.99951 10.9566 7.11087 11.2628 7.33915 11.5523C7.56744 11.8419 7.82913 12.0367 8.1298 12.1425C8.43047 12.2483 8.70886 12.3151 8.95942 12.3541C9.20998 12.3931 9.48837 12.4098 9.78347 12.4098C10.0786 12.4098 10.3792 12.3875 10.7022 12.343C11.0251 12.2984 11.3314 12.2428 11.6209 12.1759C12.1832 12.0423 12.7233 11.8586 13.2356 11.6303C13.7478 11.402 14.2545 11.1236 14.7501 10.7951C14.867 10.5891 14.9616 10.3664 15.0229 10.127C15.0841 9.88753 15.1175 9.65368 15.1175 9.41426C15.1175 9.23052 15.1008 9.06348 15.073 8.92428C15.0452 8.78508 14.9895 8.64031 14.906 8.48998ZM9.39372 9.1804C9.39372 9.31403 9.37701 9.42539 9.34917 9.52005C9.32134 9.6147 9.25452 9.70935 9.15987 9.804C9.08748 9.79843 9.02067 9.77617 8.95942 9.74276C8.89817 9.70935 8.86477 9.65923 8.84806 9.59242C8.84806 9.3697 8.8759 9.15813 8.93715 8.95768C8.96499 8.85189 9.04294 8.67371 9.15987 8.41202C9.16543 8.4844 9.13759 8.61247 9.07635 8.78508C9.0151 8.95768 8.98169 9.08575 8.98169 9.16927C8.98169 9.3029 9.04294 9.40868 9.15987 9.4922C9.22111 9.46993 9.26566 9.41426 9.2935 9.32517C9.32134 9.23608 9.35474 9.18596 9.39372 9.1804ZM20.0619 10.0045L19.3714 10.4499C19.2434 10.2272 19.1654 10.0768 19.1264 9.99331C19.0541 9.81514 19.0151 9.64254 19.0151 9.48107C19.0151 9.3196 19.0596 9.16369 19.1487 9.03563C19.171 9.03006 19.21 9.0245 19.2601 9.0245C19.3937 9.0245 19.5162 9.06347 19.6276 9.14699C19.6777 9.18597 19.7389 9.23608 19.8057 9.30289C19.9338 9.49777 20.0173 9.73163 20.0619 10.0045ZM14.1376 8.87972C14.0541 8.89643 13.9594 8.90757 13.8481 8.92428C13.7367 8.94098 13.6365 8.94654 13.5474 8.94654C13.3414 8.94654 13.1632 8.90757 13.024 8.83519C12.9628 8.78508 12.9071 8.72939 12.8514 8.66814C12.7957 8.60689 12.7679 8.55122 12.7679 8.50111C12.7679 8.451 12.7957 8.40088 12.8458 8.35634C12.9071 8.27282 12.985 8.23384 13.0797 8.23384C13.2189 8.27839 13.3636 8.31736 13.5028 8.35634C13.5975 8.40645 13.7033 8.48441 13.8146 8.5902C13.926 8.69599 14.0318 8.79064 14.1376 8.87972Z" fill="currentColor"/>
</svg>
