<svg width="40" height="16" viewBox="0 0 40 16" fill="none" xmlns="http://www.w3.org/2000/svg">
<path fill-rule="evenodd" clip-rule="evenodd" d="M26.7692 5.77014C26.7492 5.69514 26.7042 5.61514 26.6392 5.52515C26.5743 5.43515 26.5093 5.34515 26.4493 5.26015L26.3193 5.49015C26.3193 5.81514 26.3443 6.18513 26.3993 6.59012C26.5343 7.6101 26.5993 8.24009 26.5993 8.48009V8.86008C26.5993 9.41507 26.5843 9.84006 26.5493 10.1401C26.4943 10.605 26.3893 11.015 26.2293 11.37C26.2693 10.975 26.2893 10.5851 26.2893 10.2001C26.2893 9.65507 26.2493 9.02008 26.1743 8.30509C26.0993 7.5901 26.0193 6.85512 25.9393 6.10513C25.8593 5.35515 25.8193 4.73516 25.8193 4.25017L26.1593 3.70018C26.3043 4.00517 26.4343 4.35017 26.5493 4.73516C26.6642 5.12015 26.7342 5.46515 26.7692 5.77014ZM22.2793 3.93017L22.1093 3.81018C21.8893 4.11517 21.6293 4.38517 21.3294 4.61016C21.0644 4.81016 20.7544 4.98515 20.3994 5.13015C20.7994 4.85016 21.0744 4.65016 21.2294 4.53017C21.5543 4.27017 21.8243 4.01517 22.0293 3.76018C22.0093 3.73518 21.9543 3.69018 21.8693 3.63518C21.7843 3.58018 21.7393 3.51518 21.7393 3.44019C21.7543 3.36019 21.7943 3.27519 21.8643 3.18519C21.9343 3.09519 22.0093 3.03519 22.0893 3.01019C22.1343 2.99019 22.1793 3.00019 22.2143 3.03519C22.2493 3.07019 22.2743 3.11519 22.2793 3.16019C22.2593 3.22019 22.2493 3.27519 22.2493 3.32019C22.2493 3.38018 22.2693 3.45518 22.3093 3.54018C22.3493 3.62518 22.3693 3.69518 22.3693 3.74018C22.3693 3.80518 22.3393 3.87018 22.2793 3.93017ZM22.5993 5.05015C22.6393 4.95515 22.6643 4.89016 22.6743 4.84516C22.6843 4.80016 22.6893 4.74016 22.6893 4.66016C22.6893 4.52516 22.6543 4.40516 22.5893 4.30017C22.5493 4.34017 22.5293 4.39017 22.5293 4.45016C22.5293 4.47016 22.5393 4.51516 22.5543 4.58016C22.5693 4.64516 22.5793 4.70016 22.5793 4.74016C22.5793 4.78016 22.5693 4.81516 22.5493 4.85016C22.4143 4.86516 22.3393 4.78016 22.3243 4.60016C22.3093 4.42017 22.2943 4.32017 22.2793 4.30017C22.2193 4.36016 22.1893 4.44517 22.1893 4.56016C22.1893 4.66516 22.2043 4.77016 22.2393 4.87016C22.1943 4.97016 22.1243 5.02015 22.0293 5.02015C21.9293 4.98515 21.8793 4.93016 21.8793 4.85016C21.8793 4.84516 21.8943 4.77516 21.9193 4.65016C21.9243 4.61516 21.9293 4.57516 21.9293 4.53017C21.9293 4.47517 21.9143 4.42517 21.8893 4.38017C21.8043 4.53516 21.7593 4.70516 21.7593 4.90016C21.7593 5.04515 21.7893 5.16515 21.8493 5.26015C21.8893 5.28015 21.9293 5.29015 21.9693 5.29015C22.0343 5.29015 22.0993 5.27015 22.1593 5.22515C22.2193 5.18015 22.2643 5.13515 22.2993 5.08015L22.3493 5.11015C22.3493 5.11015 22.3993 5.13015 22.4393 5.13015C22.5193 5.13015 22.5743 5.10515 22.5993 5.05015ZM22.8193 6.29013C22.7393 6.45013 22.6793 6.56512 22.6393 6.64012C22.5593 6.78012 22.4743 6.86512 22.3893 6.89012C22.3643 6.85512 22.2543 6.78512 22.0593 6.67012C21.9193 6.59013 21.8493 6.50013 21.8493 6.40013C21.8893 6.30513 21.9343 6.21013 21.9893 6.10513C22.0443 6.00013 22.1143 5.92014 22.1993 5.86014C22.3343 5.91514 22.4493 5.97514 22.5493 6.04013C22.6493 6.10513 22.7393 6.19013 22.8193 6.29013ZM20.6494 3.62018C19.9644 3.90518 19.2794 4.19017 18.5994 4.47016C18.5144 4.51516 18.4444 4.57016 18.3944 4.63016C18.3444 4.69016 18.3194 4.76016 18.3194 4.84016C18.5544 4.70016 18.8294 4.56516 19.1494 4.43016C19.3344 4.35517 19.6244 4.24017 20.0094 4.08017C20.1344 4.02517 20.2694 3.97018 20.4044 3.90518C20.5394 3.84018 20.6244 3.74518 20.6494 3.62018ZM22.8993 7.9201C22.9193 8.0051 22.8943 8.10509 22.8193 8.22009C22.7743 8.13509 22.7193 8.12009 22.6593 8.18009C22.6543 8.19509 22.5943 8.40509 22.4793 8.81008C22.4393 8.94508 22.3893 9.05508 22.3293 9.15007C22.3143 9.13508 22.2693 9.03008 22.1893 8.83008C22.1343 8.69508 22.0643 8.63508 21.9793 8.64008L21.9393 8.68008C21.8793 8.64508 21.8293 8.60009 21.7893 8.54009C21.7493 8.45509 21.7193 8.39009 21.6993 8.35009C21.6993 8.29009 21.7193 8.22509 21.7593 8.15009C21.7993 8.0751 21.8293 8.02009 21.8493 7.9801C21.9743 8.04009 22.0793 8.15509 22.1593 8.32009C22.2393 8.48509 22.3143 8.64508 22.3893 8.79008C22.4443 8.57009 22.4993 8.34509 22.5593 8.1201C22.6243 7.9851 22.7393 7.9201 22.8993 7.9201ZM19.3294 5.99014C19.3294 6.11513 19.3194 6.22513 19.2994 6.31513C19.2794 6.40513 19.2244 6.46513 19.1394 6.50012C19.0544 6.50512 18.9944 6.47012 18.9594 6.39013C18.9244 6.31013 18.9044 6.25513 18.8994 6.22013C18.8944 6.18513 18.8894 6.13013 18.8894 6.05013C18.8894 5.91014 18.9144 5.76514 18.9644 5.62014C19.0144 5.47515 19.0794 5.34515 19.1594 5.23015C19.1044 5.45014 19.0544 5.67014 18.9994 5.89014C18.9994 6.03013 19.0544 6.14513 19.1594 6.23013C19.1844 6.21513 19.2144 6.17513 19.2394 6.11013C19.2644 6.04513 19.2944 6.00514 19.3294 5.99014ZM24.4993 9.36007C24.4993 8.74008 24.4093 7.8651 24.2293 6.74012C24.1243 6.08013 24.0443 5.56514 23.9993 5.20015L24.0393 5.08015L24.4693 5.53015C24.4293 5.29015 24.3293 4.98016 24.1693 4.60016C24.0343 4.30017 23.9043 3.99518 23.7793 3.69018C23.6943 3.75018 23.6193 3.85018 23.5593 3.99017C23.5243 4.06517 23.4793 4.17517 23.4193 4.33017C23.6743 5.75514 23.8243 6.61512 23.8693 6.90012C24.0093 7.7601 24.1343 8.63509 24.2393 9.52007C24.0193 9.68007 23.7093 9.83006 23.3093 9.97006C23.0943 10.0451 22.7693 10.1551 22.3293 10.31C22.0293 10.425 21.7343 10.5751 21.4394 10.77C21.2044 10.925 20.9344 11.125 20.6294 11.37C20.1694 11.755 19.9044 11.975 19.8394 12.03C19.5394 12.255 19.2544 12.435 18.9794 12.56C18.8994 12.575 18.8344 12.58 18.7894 12.58C18.6094 12.58 18.4644 12.525 18.3594 12.41C18.2444 12.25 18.1894 12.08 18.1894 11.9C18.1894 11.695 18.2644 11.445 18.4194 11.15C18.4994 10.99 18.6294 10.755 18.8094 10.4501C18.5644 10.745 18.3744 11.035 18.2394 11.325C18.1044 11.615 18.0244 11.935 17.9894 12.28C17.9644 12.435 18.0194 12.58 18.1594 12.72C18.2344 12.795 18.3644 12.885 18.5494 13C18.8694 13 19.1844 12.92 19.4994 12.76C19.7344 12.64 20.0094 12.45 20.3294 12.19C20.7944 11.805 21.0644 11.585 21.1394 11.53C21.4543 11.305 21.7493 11.155 22.0293 11.09C22.5443 10.905 23.0593 10.715 23.5793 10.5201C24.1943 10.2851 24.4993 9.90006 24.4993 9.36007ZM20.1094 10.3401C20.1344 10.3851 20.1494 10.4351 20.1494 10.4801C20.1494 10.5151 20.1394 10.555 20.1194 10.6C20.0644 10.725 20.0344 10.795 20.0294 10.81C19.9944 10.835 19.9444 10.85 19.8694 10.85C19.8244 10.85 19.7594 10.845 19.6794 10.83L19.6394 10.78C19.5344 10.975 19.3544 11.135 19.0994 11.27C18.7994 11.405 18.5794 11.5 18.4394 11.56C18.4994 11.485 18.7244 11.335 19.1094 11.11C19.3944 10.935 19.5544 10.725 19.5894 10.4801C19.6444 10.3951 19.6944 10.325 19.7394 10.2801C19.8194 10.2051 19.8894 10.1701 19.9494 10.1701C20.0144 10.1701 20.0694 10.2251 20.1094 10.3401ZM15.9495 4.18017L15.8795 4.42017C15.7945 4.39517 15.7095 4.36517 15.6295 4.33017C15.6095 4.33017 15.5845 4.34017 15.5495 4.36017C15.5095 4.45516 15.4695 4.62516 15.4245 4.87016C15.3795 5.11515 15.3295 5.30015 15.2695 5.42015C15.3945 5.52015 15.4745 5.58514 15.4995 5.61014C15.5745 5.67514 15.6345 5.76014 15.6895 5.86014C15.7045 5.90514 15.6945 5.95514 15.6695 6.00514C15.6445 6.05513 15.6195 6.10013 15.5995 6.14013C15.3245 6.14013 15.1245 6.15013 14.9995 6.17513C14.8745 6.20013 14.7645 6.27513 14.6695 6.40013C14.6695 6.64512 14.6995 6.93012 14.7545 7.25511C14.8095 7.5801 14.8645 7.8851 14.9195 8.18009C14.9395 8.30509 14.9545 8.43509 14.9695 8.57008C14.9845 8.70508 14.9895 8.83008 14.9895 8.95008C14.9895 9.13007 14.9745 9.30007 14.9445 9.45507C14.9145 9.61007 14.8645 9.77006 14.7995 9.93006C14.8345 9.81006 14.8545 9.68506 14.8695 9.55507C14.8845 9.42507 14.8895 9.29507 14.8895 9.16007C14.8895 8.88008 14.8545 8.54508 14.7895 8.16009C14.6345 7.26511 14.5595 6.70012 14.5595 6.46012C14.5845 6.34513 14.6245 6.24513 14.6745 6.15513C14.7245 6.06514 14.7995 6.00013 14.8995 5.96013L15.3395 5.84014C15.2845 5.76014 15.2145 5.72014 15.1195 5.72014C15.0645 5.72014 15.0195 5.73514 14.9795 5.77014C14.9395 5.80514 14.9145 5.81514 14.8995 5.81014C14.8845 5.77014 14.8895 5.72514 14.9145 5.67514C14.9395 5.62514 14.9645 5.57515 14.9895 5.53015L15.1895 5.45015C15.1095 5.15515 14.9995 4.89516 14.8595 4.66016C14.8395 4.71516 14.8045 4.74016 14.7595 4.74016C14.7345 4.74016 14.6645 4.71016 14.5595 4.65016C14.4995 4.61516 14.4545 4.59516 14.4295 4.59016C14.4295 4.40516 14.4795 4.25517 14.5795 4.15017C14.7745 4.15017 14.9195 4.25517 15.0195 4.47016C15.0995 4.65516 15.1845 4.84016 15.2695 5.02015C15.3245 4.78016 15.3645 4.60516 15.3995 4.49016C15.4595 4.27517 15.5545 4.13017 15.6895 4.05017C15.7945 4.05017 15.8845 4.09517 15.9495 4.18017ZM16.5194 9.12008C16.5344 9.18008 16.5194 9.24507 16.4894 9.31507C16.4544 9.38507 16.4144 9.47007 16.3594 9.57007C16.3394 9.57507 16.3144 9.59006 16.2794 9.61506C16.2444 9.64006 16.2145 9.64506 16.1795 9.63006C16.0645 9.52506 16.0095 9.39007 16.0095 9.23007C16.0095 9.11507 16.0345 8.99008 16.0895 8.84508C16.1445 8.70008 16.1945 8.56509 16.2494 8.44009C16.2644 8.50009 16.2494 8.60509 16.2045 8.76008C16.1595 8.91508 16.1395 9.02008 16.1395 9.08008C16.1395 9.21507 16.2045 9.30507 16.3394 9.36007L16.5194 9.12008ZM20.5894 7.27011C20.7094 7.39511 20.7694 7.5501 20.7694 7.7301C20.7694 7.8501 20.7394 7.9901 20.6844 8.15009C20.6294 8.31009 20.5744 8.46509 20.5194 8.61008C20.2944 8.88508 20.0044 9.08507 19.6594 9.21007C19.3594 9.31507 18.9944 9.37007 18.5694 9.37007C18.4044 10.1051 17.9044 10.71 17.0694 11.19C16.3344 11.55 15.6045 11.915 14.8795 12.28C14.5745 12.34 14.2495 12.39 13.9095 12.435C13.5695 12.48 13.2645 12.5 12.9995 12.5C13.7195 12.205 14.3095 11.955 14.7695 11.75C15.4345 11.45 16.0145 11.165 16.4994 10.89C17.0744 10.57 17.6244 10.2151 18.1594 9.83006C18.0594 9.44507 17.9644 9.05508 17.8694 8.67008C17.8694 8.55509 17.8894 8.44509 17.9344 8.33509C17.9794 8.22509 18.0194 8.13509 18.0544 8.07009C18.0894 8.0051 18.1444 7.9601 18.2094 7.9401C18.2344 8.1451 18.2744 8.29509 18.3194 8.38009C18.3994 8.53509 18.5194 8.61008 18.6794 8.61008C18.7394 8.61008 18.7994 8.61009 18.8594 8.62009C18.9194 8.62509 18.9844 8.63508 19.0494 8.64008C19.1094 8.64008 19.1594 8.63509 19.2044 8.62009C19.2494 8.60509 19.2844 8.57509 19.3194 8.53009C19.3994 8.1251 19.4694 7.8401 19.5294 7.6801C19.6444 7.38511 19.8094 7.15511 20.0294 6.99012C20.1694 7.00512 20.2794 7.02512 20.3594 7.06012C20.4394 7.09511 20.5144 7.16511 20.5894 7.27011ZM22.1093 3.44019C22.0943 3.40019 22.0843 3.36519 22.0693 3.33019C22.0543 3.29519 22.0343 3.27519 21.9993 3.27019L21.9393 3.32019C21.9743 3.36018 21.9993 3.39019 22.0243 3.41518C22.0493 3.44018 22.0743 3.44519 22.1093 3.44019ZM20.3694 8.11009C20.2444 8.22509 20.0994 8.32009 19.9394 8.39509C19.7794 8.47009 19.6244 8.51509 19.4694 8.53009C19.4944 8.42509 19.5244 8.31509 19.5594 8.21009C19.6194 8.01009 19.7044 7.8601 19.8094 7.7601C20.0644 7.7601 20.2494 7.8751 20.3694 8.11009ZM19.9194 10.55C19.8794 10.595 19.8244 10.585 19.7494 10.51C19.7444 10.4551 19.7644 10.4351 19.8194 10.4501C19.8794 10.4651 19.9144 10.4951 19.9194 10.55Z" fill="currentColor"/>
</svg>
