<svg width="40" height="16" viewBox="0 0 40 16" fill="none" xmlns="http://www.w3.org/2000/svg">
<path fill-rule="evenodd" clip-rule="evenodd" d="M22.6774 3.65324C22.6416 3.73378 22.6102 3.80537 22.5789 3.87695C22.5342 3.86353 22.5029 3.85012 22.4805 3.84564C22.3821 3.79643 22.3284 3.76958 22.3194 3.76958C22.212 4.17226 22.1091 4.57047 22.0062 4.97316C21.957 4.92394 21.8809 4.78523 21.787 4.566C21.6885 4.34228 21.5856 4.2349 21.4693 4.2349C21.2814 4.20806 21.1919 4.1141 21.1919 3.9575C21.1919 3.92171 21.2009 3.88143 21.2232 3.84117C21.2322 3.79642 21.2501 3.76063 21.2769 3.73379C21.3396 3.67115 21.4067 3.66219 21.4693 3.71141C21.5767 3.77405 21.6662 3.868 21.7378 3.98881C21.8317 4.19015 21.9257 4.38702 22.0152 4.57942C22.042 4.30649 22.0778 4.09172 22.1181 3.93512C22.1583 3.77852 22.2299 3.62192 22.3373 3.47427C22.3821 3.48322 22.4268 3.4877 22.476 3.49665C22.57 3.5235 22.6326 3.57718 22.6684 3.65772L22.6774 3.65324ZM22.8921 6.42282C22.8921 6.50335 22.8742 6.59284 22.8384 6.69127C22.8026 6.78971 22.7579 6.8792 22.6997 6.95973C22.6192 6.98658 22.5521 6.97762 22.4894 6.92393C22.4268 6.87024 22.3865 6.83445 22.3642 6.81207C22.3552 6.77628 22.3552 6.7226 22.3552 6.65101C22.3552 6.5302 22.3731 6.41387 22.4044 6.30201C22.4358 6.19016 22.4894 6.0783 22.561 5.96197C22.561 5.99776 22.5476 6.0783 22.5163 6.1991C22.4894 6.31991 22.4715 6.40044 22.4715 6.43624C22.4715 6.55704 22.5252 6.64653 22.6326 6.7047C22.7042 6.71812 22.7489 6.68233 22.7668 6.59284C22.7847 6.50335 22.8116 6.44967 22.8474 6.42729H22.8921V6.42282ZM19.08 4.25279C19.08 4.40939 19.0353 4.5481 18.9458 4.66443C18.8563 4.78076 18.7311 4.88367 18.5745 4.96868C18.5163 4.9821 18.4715 4.99106 18.4358 4.99106C18.2836 4.99106 18.1941 4.92841 18.1673 4.80761C18.1673 4.63759 18.1986 4.46756 18.2657 4.30201C18.3105 4.19463 18.3821 4.04698 18.4894 3.86353C18.4894 3.91275 18.4671 4.00671 18.4268 4.14093C18.3821 4.27516 18.3642 4.37808 18.3642 4.44072C18.3642 4.47651 18.3686 4.52126 18.3821 4.57047C18.391 4.61969 18.4313 4.66891 18.4939 4.70918C18.5655 4.70918 18.6371 4.69127 18.7042 4.65995C18.7713 4.62863 18.8429 4.57942 18.9145 4.51678C18.9145 4.4452 18.8474 4.36913 18.7176 4.28411C18.5834 4.20358 18.5208 4.14094 18.5208 4.0962C18.5208 4.04699 18.57 3.98434 18.6729 3.91276C18.7668 3.94855 18.8519 3.99329 18.9369 4.05146C19.0174 4.10962 19.0711 4.17226 19.0935 4.24385L19.08 4.25279ZM25.7601 10.9105C25.7601 10.9553 25.7333 11 25.6796 11.0492C25.6259 11.0984 25.5856 11.1387 25.5543 11.1655L22.7624 12.1857C22.74 12.1007 22.7892 12.0246 22.9145 11.953C23.0353 11.8859 23.1024 11.8456 23.1203 11.8277C23.957 11.5638 24.8384 11.255 25.7601 10.906V10.9105ZM17.0085 4.566C17.0085 4.73602 16.9637 4.88367 16.8787 5.00448C16.834 5.02685 16.7982 5.03579 16.7713 5.03579C16.6997 5.03579 16.6416 4.99999 16.5924 4.92393C16.5476 4.84787 16.5073 4.76286 16.4805 4.67337C16.4805 4.47203 16.5029 4.29754 16.5521 4.14541C16.5968 3.99329 16.6774 3.86801 16.7847 3.76958C16.74 3.84116 16.7042 3.93065 16.6729 4.03803C16.6416 4.14542 16.6237 4.24384 16.6237 4.3378C16.6237 4.48098 16.6595 4.59731 16.7311 4.69127C16.7668 4.72707 16.8026 4.74496 16.8384 4.74496C16.8742 4.74496 16.9011 4.71813 16.919 4.66891C16.9369 4.61969 16.9503 4.58389 16.9548 4.56152H17.0085V4.566ZM28.0599 8.69127C27.872 8.67785 27.702 8.66443 27.5409 8.64653C27.3798 8.63311 27.2635 8.60627 27.1919 8.57047C27.1919 8.05593 27.1516 7.46532 27.0666 6.80313C26.9861 6.14094 26.9055 5.50112 26.825 4.88814L26.9324 4.62864C26.9771 4.65101 27.0532 4.72259 27.1695 4.8434C27.2545 4.93736 27.3396 4.99106 27.4156 5.00448L26.6416 3.14766C26.6147 3.1924 26.5566 3.26399 26.4715 3.37137C26.3552 3.53692 26.3015 3.67561 26.3015 3.79194C26.3015 3.85011 26.3105 3.89934 26.3328 3.94408C26.3328 4.34676 26.4402 5.31321 26.655 6.85236C26.7489 7.51902 26.7937 8.09173 26.7937 8.57047C26.4492 8.52126 26.0868 8.46309 25.6975 8.40045C25.3082 8.33781 24.9995 8.26175 24.7624 8.17674C24.8205 8.04698 24.8563 7.93512 24.8698 7.83669C24.8832 7.73825 24.8921 7.62193 24.8921 7.47875C24.8921 7.33557 24.8787 7.18792 24.8474 7.03132C24.8205 6.8792 24.7847 6.72706 24.7489 6.57494C24.6639 6.31096 24.5789 6.02908 24.4894 5.73825C24.4044 5.44295 24.3597 5.1924 24.3597 4.97763C24.3597 4.96421 24.3507 4.91052 24.3328 4.82103C24.3149 4.73155 24.306 4.65996 24.306 4.61074C24.306 4.51678 24.3373 4.45414 24.4044 4.41835C24.4536 4.4452 24.5029 4.49889 24.5566 4.57047C24.6416 4.7047 24.7176 4.78076 24.7803 4.79419C24.7445 4.60627 24.6729 4.37808 24.5655 4.10515C24.2926 3.41611 24.1494 3.04922 24.136 3C24.0375 3.08054 23.9525 3.18792 23.8899 3.33109C23.8272 3.47427 23.7646 3.61297 23.7064 3.75167C23.7691 4.04698 23.9033 4.73602 24.1047 5.82326C24.2613 6.69127 24.4089 7.37137 24.5431 7.87249C24.3194 7.90828 24.1404 7.93064 23.9973 7.94407C23.8541 7.95301 23.6125 7.96197 23.2769 7.96197H22.8921C22.7982 8.09172 22.7311 8.21253 22.6818 8.33334C22.6371 8.44967 22.6102 8.57941 22.6102 8.71364C23.004 8.71364 23.4201 8.74944 23.8541 8.82103C24.1315 8.86577 24.5252 8.94631 25.0353 9.06711C23.9481 9.53244 23.3664 9.77852 23.2948 9.80984C22.9279 9.95302 22.5789 10.0694 22.2478 10.1633C21.9167 10.2573 21.6125 10.3244 21.3351 10.3691C21.0577 10.4139 20.7668 10.4318 20.4581 10.4318C20.0196 10.4318 19.5901 10.3736 19.1606 10.2617C18.9816 10.1902 18.834 10.0783 18.7132 9.93064C18.5968 9.77852 18.5163 9.61298 18.4805 9.42506C19.2948 9.16108 20.1181 8.89261 20.9413 8.61968C21.0756 8.55704 21.183 8.44967 21.2635 8.30649C21.344 8.16332 21.3977 8.00224 21.4246 7.82326C21.3977 7.83669 21.3664 7.82774 21.3396 7.79642C21.3127 7.7651 21.2903 7.74273 21.2769 7.73825C20.4089 7.51006 19.7601 7.35347 19.3217 7.2774C18.5968 7.14317 17.9167 7.07159 17.2814 7.07159C17.0443 7.07159 16.8071 7.08054 16.5745 7.10291C16.3463 7.16108 16.1449 7.28188 15.9749 7.46085C15.8049 7.64429 15.6885 7.85458 15.6304 8.08724C15.6214 8.11409 15.6214 8.15436 15.6214 8.20358C15.6214 8.38255 15.6975 8.57942 15.8541 8.78971C16.0062 9 16.2657 9.22371 16.6237 9.46085C16.561 9.4877 16.4536 9.54138 16.3105 9.61297C16.1941 9.66219 16.0912 9.70246 15.9973 9.72931C15.6975 9.82774 15.4246 9.95302 15.183 10.1051C14.8742 10.2975 14.476 10.6197 13.9794 11.0716C13.5409 11.4653 13.2232 11.7383 13.0219 11.8859C12.655 12.1588 12.3105 12.3557 11.9794 12.4765C11.8451 12.4631 11.7199 12.4318 11.6035 12.387C11.4872 12.3423 11.3977 12.2752 11.3261 12.1902C11.2411 12.0022 11.1964 11.8233 11.1964 11.6443C11.1964 11.5235 11.2053 11.4161 11.2277 11.3221C11.2501 11.2282 11.268 11.1566 11.2859 11.1029C11.3038 11.0492 11.3843 10.8166 11.5275 10.4004C11.5856 10.2438 11.6259 10.123 11.6438 10.0336C11.3709 10.5973 11.2277 10.9016 11.2143 10.9374C11.0711 11.2953 10.9995 11.6174 10.9995 11.9038C10.9995 12.1633 11.0622 12.4094 11.183 12.6465C11.3127 12.7673 11.4335 12.8568 11.5498 12.915C11.6662 12.9732 11.7915 13 11.9257 13C12.0107 13 12.1002 12.9821 12.1941 12.9463C12.4894 12.8255 12.8116 12.6242 13.1606 12.3468C13.4559 12.0962 13.7512 11.8456 14.051 11.5951C14.4313 11.2729 14.74 11.0313 14.9727 10.8747C15.3172 10.6376 15.6483 10.472 15.9704 10.3691C16.1852 10.2707 16.4044 10.1633 16.6237 10.0559C16.7758 9.99328 16.9011 9.95749 16.9995 9.95749C17.0979 9.95749 17.1874 9.98434 17.259 10.0336V9.91722C17.259 9.85906 17.268 9.8188 17.2814 9.8009C17.6035 9.68009 17.8228 9.60402 17.9346 9.56823C18.051 9.53691 18.1762 9.51007 18.3194 9.48769V9.81879C18.3194 9.93512 18.3284 10.0515 18.3418 10.1723C18.3552 10.2931 18.3865 10.396 18.4268 10.4855C18.5431 10.7226 18.7176 10.8971 18.9548 11.0134C19.1427 11.0984 19.3575 11.1566 19.5991 11.1834C19.8407 11.2103 20.0554 11.2282 20.2344 11.2282C20.6908 11.2282 21.1472 11.1656 21.5991 11.0447C21.8854 10.9732 22.1807 10.8792 22.4805 10.7673C22.6953 10.6868 22.9816 10.5705 23.3396 10.4139C23.5543 10.3289 23.7691 10.2394 23.9838 10.1454C24.3686 9.98881 24.7266 9.85906 25.0577 9.75167C25.3888 9.64877 25.693 9.57271 25.9704 9.51902C26.2478 9.4698 26.561 9.44295 26.9055 9.44295C26.9279 9.59507 26.9369 9.73826 26.9369 9.88143C26.9369 10.123 26.919 10.3691 26.8787 10.6152C26.8384 10.8613 26.7892 11.0805 26.7221 11.2774C26.8429 11.0761 26.9324 10.8837 26.9906 10.6958C27.0487 10.5078 27.1248 10.1409 27.2143 9.59061C27.2053 9.56824 27.2053 9.54586 27.2053 9.51454C27.2053 9.42058 27.259 9.37584 27.3664 9.37584C27.3932 9.37584 27.4559 9.38478 27.5543 9.3982C27.6528 9.41163 27.7154 9.41163 27.7422 9.3982C27.7915 9.32661 27.8407 9.20582 27.8854 9.03132C27.9302 8.8613 27.9883 8.74496 28.051 8.6868L28.0599 8.69127ZM14.4984 3.83669L14.4358 4.10515C14.3865 4.08277 14.3373 4.06488 14.297 4.05146C14.2523 4.03803 14.2165 4.02908 14.1807 4.02908C14.1449 4.02908 14.1181 4.03803 14.1047 4.05146C14.0689 4.15884 14.0331 4.36465 13.9928 4.66443C13.9525 4.96421 13.8944 5.18344 13.8138 5.31767C13.6796 5.08948 13.5409 4.85682 13.4067 4.61968C13.2859 4.48546 13.1293 4.41387 12.9458 4.41387C12.9369 4.3915 12.9369 4.35571 12.9369 4.30649C12.9369 4.24833 12.9503 4.18121 12.9816 4.10962C13.0085 4.03356 13.0308 3.97987 13.0443 3.94408C13.0711 3.91723 13.1114 3.90828 13.1561 3.9217C13.2009 3.93512 13.2456 3.9575 13.2814 3.98435C13.3977 4.09173 13.5051 4.24385 13.6035 4.44519C13.7557 4.73155 13.8407 4.89262 13.863 4.92841C13.863 4.65548 13.8899 4.42282 13.9391 4.23042C13.9883 4.03803 14.0823 3.86801 14.2165 3.72483C14.2747 3.70246 14.3284 3.70694 14.3776 3.73379C14.4358 3.783 14.476 3.81432 14.5073 3.83222L14.4984 3.83669ZM19.8675 12.0962C19.702 12.2528 19.523 12.3781 19.3306 12.4676C19.1382 12.557 18.9279 12.6018 18.7087 12.6018C18.5566 12.6018 18.4179 12.5749 18.2881 12.5257C18.2255 12.481 18.1897 12.4139 18.1897 12.3199C18.1897 12.2931 18.1986 12.2617 18.212 12.2349C18.2702 12.1409 18.3463 12.0559 18.4358 11.9754C18.4626 11.9485 18.5566 11.877 18.7132 11.7696C18.6326 11.7069 18.5387 11.6711 18.4223 11.6711H18.3597C18.3328 11.6846 18.3149 11.6935 18.306 11.6935C18.2926 11.6577 18.306 11.6175 18.3552 11.5772C18.4 11.5324 18.4447 11.4966 18.4894 11.4608C18.646 11.4161 18.8071 11.4609 18.9727 11.5906C18.9727 11.698 18.8787 11.8098 18.6863 11.9306C18.4984 12.047 18.4 12.1275 18.4 12.1723C18.4 12.2304 18.4671 12.2886 18.6058 12.3423C18.7221 12.3557 18.7982 12.3646 18.8429 12.3646C19.0085 12.3646 19.1785 12.3378 19.3575 12.2796C19.5856 12.1946 19.7557 12.132 19.863 12.0962H19.8675ZM14.3597 5.81432C14.3597 5.93065 14.3284 6.02014 14.2613 6.08278H14.0554C13.8183 6.08278 13.6349 6.10067 13.5006 6.14093C13.3664 6.1812 13.2635 6.27517 13.183 6.42729C13.2098 6.62864 13.2724 6.88367 13.3664 7.20135C13.4962 7.65325 13.5722 7.91723 13.5901 7.99777C13.6483 8.24833 13.6751 8.48546 13.6751 8.7047C13.6751 9.02684 13.608 9.32214 13.4693 9.59507C13.5498 9.39373 13.5856 9.17896 13.5856 8.95078C13.5856 8.76286 13.5633 8.57941 13.5141 8.39149C13.4693 8.20357 13.4022 7.98882 13.3172 7.74721C13.2322 7.5056 13.1651 7.2953 13.1248 7.12528C13.08 6.95526 13.0622 6.78971 13.0622 6.63311C13.0622 6.44519 13.1069 6.26622 13.2009 6.08724C13.2948 6.00223 13.4022 5.93065 13.5275 5.87249C13.6528 5.81432 13.7825 5.78748 13.9212 5.78748C13.8586 5.69352 13.7512 5.65324 13.608 5.67114C13.5633 5.66219 13.5185 5.68009 13.4693 5.71589C13.4201 5.75168 13.3843 5.76958 13.3619 5.76958C13.3843 5.5906 13.4693 5.46086 13.6214 5.38479C13.7736 5.36242 13.9123 5.39821 14.042 5.49217C14.1226 5.55034 14.2255 5.66219 14.3552 5.82326L14.3597 5.81432ZM14.8519 8.95973C14.8742 9.05369 14.8653 9.14765 14.8295 9.23714C14.7937 9.3311 14.7355 9.42058 14.6595 9.5056C14.6013 9.52797 14.5566 9.51901 14.5208 9.48322C14.485 9.44742 14.4492 9.37136 14.4134 9.2595C14.4 9.1387 14.4044 9.0358 14.4223 8.94631C14.4447 8.8613 14.5118 8.64653 14.6281 8.30201C14.6281 8.36018 14.6147 8.45414 14.5834 8.59284C14.5566 8.72707 14.5387 8.83445 14.5387 8.91499C14.5387 9.04922 14.5789 9.16107 14.655 9.24608C14.6997 9.23266 14.7355 9.1745 14.7713 9.07607C14.7847 9.03133 14.8116 8.99553 14.8474 8.95973H14.8519ZM17.8496 11.7741L17.4425 12.3736C17.4156 12.3512 17.3038 12.302 17.1114 12.2215C16.8384 12.1052 16.7042 11.9843 16.7042 11.8546C16.7132 11.8456 16.7803 11.7472 16.91 11.5548C16.995 11.4251 17.08 11.3624 17.1561 11.3624C17.1651 11.3624 17.1874 11.3714 17.2322 11.3848C17.2769 11.4116 17.3753 11.4653 17.5275 11.5459C17.6796 11.6264 17.7915 11.698 17.8541 11.7696L17.8496 11.7741ZM20.127 8.23042C19.9212 8.30201 19.438 8.45414 18.6863 8.69127C18.0912 8.87919 17.6125 9.04026 17.2456 9.17449C17.183 8.95972 16.9816 8.75392 16.646 8.55705C16.3105 8.36018 16.1002 8.16779 16.0241 7.98435C16.2165 7.92171 16.4134 7.87249 16.6147 7.84564C16.8161 7.8188 17.0129 7.8009 17.2053 7.8009C18.1807 7.94408 19.1516 8.08725 20.127 8.23042Z" fill="currentColor"/>
</svg>
