<svg width="40" height="16" viewBox="0 0 40 16" fill="none" xmlns="http://www.w3.org/2000/svg">
<path fill-rule="evenodd" clip-rule="evenodd" d="M28.1136 5.94639C28.0989 5.88244 28.0644 5.80866 28.0054 5.72012C27.912 5.57747 27.8578 5.49877 27.8529 5.48401C27.8283 5.81358 27.8185 6.15298 27.8185 6.49729C27.8185 6.8121 27.8185 7.13183 27.8283 7.45155C27.8382 7.77619 27.8431 8.09592 27.8529 8.42056C27.8529 9.00099 27.8234 9.47811 27.7595 9.84702C27.6709 10.334 27.5184 10.7718 27.2971 11.1554C27.3906 10.7767 27.4594 10.3684 27.4988 9.92573C27.5381 9.48303 27.5578 9.05017 27.5578 8.61731C27.5578 8.23856 27.5381 7.60403 27.4939 6.70389C27.4496 5.80866 27.4299 5.22331 27.4299 4.9577C27.3758 4.90359 27.3463 4.83965 27.3463 4.77078C27.3463 4.71668 27.3512 4.67241 27.366 4.64781C27.3758 4.6183 27.4053 4.57403 27.4545 4.50516C27.5037 4.4363 27.5381 4.38711 27.5627 4.3576C27.6168 4.29365 27.6709 4.24939 27.73 4.21495C27.7447 4.30841 27.8234 4.59862 27.9661 5.09051C28.0694 5.4545 28.1185 5.73487 28.1185 5.94146L28.1136 5.94639ZM23.485 3.1033C23.4555 3.16724 23.4358 3.23118 23.4358 3.29021C23.4358 3.34924 23.4555 3.42794 23.4998 3.51648C23.544 3.60502 23.5637 3.66405 23.5637 3.69356C23.5637 3.7575 23.5244 3.82636 23.4456 3.90506L23.303 3.75258C23.1948 3.89523 23.0669 4.0182 22.9193 4.13133C22.7718 4.23955 22.6193 4.32809 22.452 4.39203C22.634 4.24939 22.7668 4.14117 22.8554 4.06247C23.0275 3.91491 23.1407 3.77717 23.1849 3.64928C23.121 3.60993 23.0571 3.56567 22.9882 3.5214C22.9193 3.47221 22.8997 3.40826 22.9243 3.31972C22.9882 3.19183 23.0915 3.08854 23.244 3C23.4014 3.02459 23.4801 3.05903 23.4801 3.10822L23.485 3.1033ZM23.7703 4.39203C23.7063 4.42155 23.6768 4.48057 23.6768 4.55927C23.6768 4.58878 23.6768 4.64289 23.6867 4.71175C23.6867 4.76094 23.6768 4.79537 23.6621 4.81997C23.544 4.81997 23.4801 4.7757 23.4752 4.69208C23.4653 4.60354 23.4653 4.52976 23.4653 4.46581C23.4653 4.40187 23.4653 4.3576 23.4555 4.33792C23.3866 4.40679 23.3473 4.50517 23.3473 4.62322V4.83472C23.3227 4.86424 23.2882 4.89375 23.2489 4.92327C23.2046 4.95278 23.1604 4.94786 23.1112 4.91834C23.0571 4.86916 23.0275 4.81505 23.0275 4.75111C23.0374 4.68716 23.0472 4.62814 23.0571 4.56911C23.0669 4.51008 23.0767 4.46582 23.0767 4.43138C23.0767 4.37728 23.0669 4.333 23.0521 4.30349C22.9243 4.52484 22.8751 4.76586 22.8997 5.02164C22.9292 5.11018 23.0079 5.16921 23.1259 5.19872C23.1505 5.18888 23.2341 5.13478 23.3866 5.03148C23.4358 5.00197 23.4801 4.98229 23.5293 4.98229C23.5834 4.98229 23.6424 5.00196 23.7063 5.04132C23.7457 4.97737 23.7801 4.91343 23.8047 4.8544C23.8342 4.79046 23.8441 4.72159 23.8441 4.64289C23.8441 4.56419 23.8195 4.48057 23.7752 4.39695L23.7703 4.39203ZM22.0684 5.00689L21.6552 5.48893C21.488 5.42007 21.3699 5.36104 21.2912 5.32169C21.1486 5.25283 21.0649 5.16921 21.0305 5.07575L21.4338 4.61338C21.5814 4.68224 21.7044 4.74618 21.7978 4.79537C21.8913 4.84456 21.9848 4.91342 22.0684 5.00196V5.00689ZM20.2484 3.88539L20.0959 4.12149C19.6139 4.30841 19.2597 4.44614 19.0236 4.53468C18.2612 4.83472 17.666 5.07575 17.243 5.26759C17.2725 5.18888 17.3315 5.1151 17.4102 5.04132C17.4496 5.00196 17.5234 4.95278 17.6365 4.88883C18.5121 4.55927 19.3827 4.22479 20.2582 3.88539H20.2484ZM26.092 5.60699C26.0772 5.49877 26.0625 5.38564 26.0428 5.27742C25.9149 4.88392 25.7969 4.49041 25.6788 4.0969C25.5903 4.16084 25.5165 4.24938 25.4525 4.36744C25.423 4.43138 25.3689 4.52976 25.3001 4.66257C25.3001 4.91343 25.3345 5.57255 25.4083 6.63502C25.4378 7.10723 25.4575 7.51057 25.4575 7.84014C25.1722 7.94835 24.9557 8.02705 24.8082 8.06641C24.5573 8.13527 24.3261 8.17462 24.1244 8.17462C24.336 7.909 24.4835 7.68274 24.5622 7.50566C24.6409 7.32858 24.6901 7.16134 24.7049 7.00393C24.636 6.85637 24.518 6.72356 24.3606 6.61043C24.2031 6.49729 23.9572 6.394 23.6276 6.31038C23.5981 6.30054 23.5391 6.28579 23.4604 6.26119H23.2243C22.7816 6.26119 22.3242 6.46287 21.8421 6.86129C21.4634 7.22529 21.0846 7.58436 20.7108 7.94835C20.6321 7.92376 20.5534 7.87457 20.4698 7.80078C20.3861 7.727 20.3074 7.64339 20.2287 7.55977C20.1599 7.45155 20.1058 7.34826 20.0713 7.25972C20.0369 7.17118 20.0172 7.07772 20.0172 6.98426C20.0172 6.93016 20.0172 6.88097 20.0271 6.8367C20.0369 6.79243 20.0516 6.75308 20.0762 6.71372C19.9582 6.71372 19.791 6.80718 19.5794 6.99902C19.2745 7.27447 19.0974 7.42695 19.0482 7.46138C18.8662 7.60403 18.5366 7.7762 18.0546 7.98279C17.3069 8.30743 16.8495 8.69109 16.6872 9.13871C16.8839 9.13871 17.1446 9.1633 17.4643 9.20757C17.4939 9.21741 17.9267 9.2912 18.7531 9.43384C18.3989 9.51254 18.1038 9.58141 17.8677 9.63552C17.5037 9.72406 17.0118 9.85194 16.392 10.0241C16.3232 10.1176 16.2494 10.211 16.1805 10.3094C16.1117 10.4029 16.0625 10.4963 16.0379 10.5947C16.0772 10.6193 16.397 10.7226 16.9921 10.9144C17.2135 10.9833 17.3856 11.0767 17.5135 11.1849C16.9479 11.5637 16.4314 11.8391 15.969 12.0113C15.3935 12.2327 14.818 12.3409 14.2474 12.3409C13.9966 12.3409 13.7309 12.3163 13.4555 12.272C13.2095 12.2032 12.9931 12.0851 12.7964 11.9179C12.575 11.7309 12.4324 11.5244 12.3733 11.303C12.3733 11.2735 12.3635 11.2243 12.3487 11.1604V11.0325C12.3487 10.8455 12.3881 10.6488 12.4668 10.4422C12.5209 10.2996 12.6734 10.0044 12.9292 9.55681C12.6439 9.92081 12.4373 10.2209 12.3045 10.4668C12.0979 10.8455 11.9995 11.1899 11.9995 11.5047C11.9995 11.7162 12.0389 11.9179 12.1176 12.1048C12.3143 12.4097 12.575 12.636 12.8947 12.7836C13.2194 12.9311 13.5735 13 13.9572 13C14.1687 13 14.3802 12.9754 14.5967 12.9311C14.9508 12.8524 15.2951 12.7541 15.6345 12.636C15.9739 12.518 16.2986 12.3802 16.6134 12.2179C16.9282 12.0556 17.2135 11.8539 17.4693 11.6031C17.725 11.3571 17.9218 11.0718 18.0546 10.7472C17.9907 10.6291 17.8726 10.5307 17.7004 10.452C17.607 10.4127 17.4643 10.3586 17.2774 10.2848C17.8972 10.1274 18.5366 10.0044 19.1909 9.9208C19.8451 9.83226 20.5091 9.79291 21.1879 9.79291L21.4732 9.26168C20.9321 9.26168 20.1648 9.13871 19.181 8.89769C18.5514 8.74029 18.1087 8.63699 17.848 8.59272C17.8726 8.57796 18.0792 8.47467 18.4727 8.28775C18.6006 8.22381 18.7186 8.15494 18.8269 8.07624C18.8908 8.04672 19.0728 7.88933 19.3679 7.61387C19.5794 7.42696 19.7614 7.35317 19.909 7.40236C19.8844 7.47122 19.8746 7.53517 19.8746 7.58928C19.8746 7.69749 19.9729 7.91884 20.1697 8.2484C20.2484 8.38121 20.2878 8.50418 20.2878 8.6124C20.2878 8.68126 20.273 8.75012 20.2386 8.81406C20.332 8.77471 20.4058 8.71569 20.4501 8.63699C20.8534 8.74521 21.2518 8.80423 21.6552 8.80423C21.9848 8.80423 22.3143 8.7698 22.6488 8.69602C22.9341 8.77472 23.2292 8.81406 23.544 8.81406C23.79 8.81406 24.0359 8.79439 24.2868 8.75012C24.5376 8.70585 24.7983 8.65174 25.0639 8.57796C25.3689 8.43532 25.5853 8.21397 25.7034 7.91884C25.7969 7.68273 25.846 7.37285 25.846 6.98426C25.846 6.82686 25.8362 6.59075 25.8116 6.27595C25.787 5.96114 25.7772 5.73488 25.7772 5.59223V5.4545C25.7772 5.39548 25.7772 5.34137 25.787 5.2971C25.8264 5.32661 25.8756 5.39055 25.9395 5.47909C26.0034 5.56763 26.0576 5.61682 26.1067 5.62666L26.092 5.60699ZM23.908 10.9882C23.908 11.0669 23.8883 11.1456 23.8441 11.2194C23.7998 11.2932 23.7309 11.3719 23.6375 11.4555C23.544 11.5391 23.4112 11.5785 23.2341 11.5785C23.2046 11.5785 23.1653 11.5735 23.1161 11.5588C23.0669 11.5489 22.998 11.5145 22.9095 11.4604C22.821 11.4063 22.7472 11.3768 22.6931 11.3768C22.639 11.3768 22.5898 11.3915 22.5504 11.426C22.3537 11.5686 22.1913 11.6867 22.0684 11.7801C21.8175 11.9621 21.6454 12.0802 21.5617 12.1343C21.3404 12.2769 21.1535 12.3851 21.001 12.4589C20.8485 12.5327 20.6665 12.5967 20.4648 12.6409C20.6468 12.577 20.8485 12.4737 21.0649 12.336C21.2371 12.2277 21.4338 12.09 21.6503 11.9228C21.8667 11.7555 22.0487 11.6227 22.2012 11.5194C22.4127 11.3719 22.6094 11.2538 22.7914 11.1653C22.8406 11.1751 22.8898 11.1849 22.9439 11.1948C22.998 11.2046 23.0472 11.2341 23.0866 11.2735C23.1259 11.2587 23.2292 11.1849 23.3915 11.0472C23.5194 10.9439 23.6227 10.8947 23.7113 10.8947C23.7654 10.8947 23.8342 10.9243 23.9129 10.9882H23.908ZM15.4181 6.30054C15.3788 6.37925 15.3394 6.46286 15.3001 6.55632C15.2607 6.64486 15.2164 6.71864 15.1722 6.77275C15.3148 6.4727 15.3837 6.14805 15.3837 5.7939C15.3837 5.60698 15.364 5.43975 15.3197 5.29218C15.2755 5.14462 15.2017 5.01181 15.1033 4.88392C15.1181 4.8544 15.1377 4.81013 15.1623 4.75602C15.1869 4.70191 15.2115 4.66749 15.2312 4.66257C15.3246 4.79046 15.3984 4.93802 15.4427 5.1151C15.4919 5.29218 15.5116 5.46926 15.5116 5.65125C15.5116 5.8726 15.482 6.08903 15.4181 6.30054ZM20.2238 11.908C19.9238 12.2327 19.5548 12.3901 19.1122 12.3901C19.0728 12.3901 19.0285 12.3901 18.9843 12.3851C18.9351 12.3851 18.8711 12.3655 18.7826 12.3458C18.6941 12.3212 18.6547 12.2671 18.6547 12.1786C18.6547 12.1294 18.6744 12.0703 18.7186 12.0015C18.7629 11.9326 18.8219 11.8637 18.8957 11.7949C18.9695 11.726 19.058 11.667 19.1613 11.6129C19.1318 11.5735 19.0728 11.5539 18.9941 11.5539C18.9449 11.5539 18.9006 11.5637 18.8515 11.5785C18.8219 11.5293 18.8219 11.4899 18.8613 11.4506C18.9006 11.4112 18.9498 11.3768 19.0138 11.3424C19.1613 11.3178 19.2941 11.3571 19.4024 11.4604C19.3778 11.5883 19.2941 11.6916 19.1564 11.7801C18.9695 11.8982 18.8564 11.9818 18.8269 12.0261C18.9449 12.1343 19.0925 12.1933 19.2646 12.1933C19.4073 12.1933 19.609 12.1441 19.8647 12.0408C20.0467 11.972 20.1648 11.9277 20.2189 11.9129L20.2238 11.908ZM16.1412 7.54993C16.1313 7.58928 16.1264 7.62863 16.1166 7.66798C16.1067 7.70733 16.0871 7.7516 16.0576 7.79587C15.9002 7.75652 15.8067 7.73684 15.7723 7.73684C15.6788 7.8549 15.6149 8.05165 15.5903 8.33202C15.5608 8.61239 15.5263 8.80423 15.4771 8.90261C15.423 8.83866 15.3689 8.75504 15.3246 8.64191C15.2066 8.37629 15.1377 8.21889 15.1131 8.17954C15.0984 8.1697 15.0344 8.15986 14.9262 8.14511C14.818 8.13035 14.7442 8.09592 14.7147 8.05165C14.7147 7.94344 14.7245 7.84998 14.7442 7.78111C14.7639 7.71225 14.818 7.65814 14.9016 7.62863C15.0492 7.68274 15.1672 7.80079 15.2459 7.98279C15.3246 8.16478 15.4033 8.33694 15.482 8.50418C15.5066 8.31727 15.5312 8.12051 15.5657 7.92375C15.6198 7.71224 15.7231 7.55976 15.8706 7.46138C15.91 7.45155 15.9444 7.46138 15.9789 7.47122C16.0821 7.52041 16.1363 7.54009 16.1461 7.54009L16.1412 7.54993ZM13.8047 6.24151C13.7654 6.37432 13.6178 6.68421 13.3669 7.16134C13.1604 7.55485 13.062 7.86965 13.062 8.10576C13.062 8.34186 13.1407 8.55337 13.2981 8.76488C13.3669 8.78947 13.4358 8.77964 13.5047 8.73537C13.5735 8.6911 13.6227 8.63207 13.6621 8.55337C13.6768 8.48942 13.7063 8.44515 13.7457 8.41072C13.7703 8.47467 13.7801 8.53861 13.7801 8.59764C13.7801 8.70094 13.7457 8.8239 13.6719 8.97639C13.6326 9.06493 13.5637 9.18298 13.4604 9.34038C13.3719 9.40925 13.2735 9.4486 13.1554 9.4486C13.1161 9.4486 13.0669 9.43876 13.003 9.424C12.8997 9.3453 12.8259 9.24693 12.7865 9.12888C12.7423 9.01082 12.7226 8.87309 12.7226 8.71569C12.7226 8.65174 12.7226 8.5878 12.7324 8.51894C12.7423 8.45007 12.7472 8.38121 12.757 8.31235C12.8751 7.909 13.0177 7.54009 13.1899 7.19577C13.3571 6.85145 13.5637 6.53172 13.8096 6.23167L13.8047 6.24151ZM23.3079 3.39842V3.34924C23.2981 3.31973 23.2882 3.29513 23.2735 3.28037C23.2341 3.22626 23.1948 3.21643 23.1554 3.25578C23.1554 3.29513 23.18 3.32465 23.2341 3.34924C23.2833 3.37384 23.3128 3.38859 23.3128 3.39842H23.3079ZM24.2769 7.57944C23.908 7.74668 23.5047 7.87457 23.0669 7.96803C22.6291 8.06149 22.2012 8.11067 21.7732 8.11067C21.4978 8.11067 21.2518 8.09591 21.0305 8.06148C21.4929 7.61387 21.7831 7.34825 21.8913 7.26955C22.2356 7.00885 22.575 6.88096 22.9046 6.88096C23.0374 6.88096 23.1997 6.91048 23.3965 6.96458C23.5883 7.01869 23.7654 7.09739 23.9277 7.19577C24.09 7.29415 24.2031 7.42203 24.2769 7.57944ZM23.7211 11.1899C23.6818 11.2587 23.6129 11.3079 23.5194 11.3325L23.2489 11.3424C23.3374 11.2095 23.4456 11.1407 23.5785 11.1407C23.6326 11.1407 23.6818 11.1554 23.7211 11.1899Z" fill="currentColor"/>
</svg>
