<svg width="40" height="16" viewBox="0 0 40 16" fill="none" xmlns="http://www.w3.org/2000/svg">
<path fill-rule="evenodd" clip-rule="evenodd" d="M28.4222 5.02944C28.3539 5.02418 28.2908 4.98213 28.2329 4.90326C28.1751 4.8244 28.1225 4.75079 28.0752 4.67193L27.9701 4.81914C27.9701 5.19243 28.0069 5.63407 28.0805 6.15457C28.1541 6.67508 28.2277 7.1693 28.296 7.63723C28.3223 7.83176 28.3434 8.01578 28.3591 8.18928C28.3749 8.36278 28.3802 8.54679 28.3802 8.75184C28.3802 9.08307 28.3591 9.36698 28.3118 9.60884C28.2645 9.85069 28.1804 10.1136 28.0542 10.3922L28.0226 10.0978C28.0647 10.0505 28.091 9.96635 28.1068 9.84543C28.1225 9.7245 28.1383 9.59306 28.1593 9.44585L27.5915 4.43007C27.5915 4.31966 27.5757 4.16194 27.5389 3.96741C27.5021 3.77288 27.4864 3.63618 27.4864 3.55731C27.4864 3.43639 27.5021 3.33649 27.5337 3.25763C27.5652 3.17876 27.6336 3.08938 27.7387 3C27.8597 3.23659 27.9806 3.57308 28.112 4.00421C28.2435 4.43533 28.3434 4.77708 28.4222 5.02944ZM25.0679 4.00947C25.0679 4.17771 25.0048 4.31967 24.8786 4.44059C24.8102 4.46162 24.7524 4.45111 24.7051 4.40379C24.6578 4.35647 24.621 4.29864 24.5947 4.21977C24.5789 4.0305 24.6157 3.83596 24.6998 3.64143C24.7261 3.57834 24.7839 3.47844 24.8681 3.33649C24.8628 3.36278 24.826 3.47845 24.7629 3.68349C24.7261 3.78864 24.7103 3.86751 24.7103 3.91483C24.7103 4.04101 24.7682 4.13565 24.8786 4.19874C24.9259 4.19874 24.9627 4.16719 24.989 4.10936C25.0153 4.05152 25.0416 4.01473 25.0679 4.00947ZM24.111 5.22923C24.0321 5.39222 23.9743 5.5184 23.927 5.60778C23.8796 5.69716 23.8323 5.77077 23.785 5.8286L23.2172 5.5552C23.2329 5.46583 23.2592 5.38171 23.3013 5.31336C23.3066 5.29759 23.3959 5.17666 23.5642 4.94533C23.6904 4.98739 23.7955 5.02419 23.8744 5.061C23.9532 5.0978 24.0321 5.15037 24.111 5.22923ZM24.805 5.87067C24.805 5.87067 24.6735 5.79706 24.479 5.69191C24.4212 5.66562 24.3686 5.62356 24.3108 5.57624C24.2056 5.57624 24.111 5.63933 24.0268 5.76551C23.9795 5.83386 23.9112 5.94427 23.8271 6.09148C23.8008 6.08623 23.6641 6.02314 23.417 5.91273C23.3328 5.87592 23.2487 5.85489 23.1646 5.83912C23.0594 6.00736 22.9543 6.1756 22.8491 6.34385C22.8281 6.38591 22.8176 6.41746 22.8176 6.43849C22.8176 6.48581 22.8807 6.52787 23.0016 6.55416C23.1225 6.58045 23.1961 6.61199 23.2172 6.64879C23.2855 6.68559 23.3381 6.70137 23.3749 6.70137C23.459 6.70137 23.5379 6.61725 23.6168 6.45426C23.6956 6.29128 23.7587 6.19138 23.806 6.15457C24.0216 6.26498 24.2424 6.38065 24.458 6.49106L24.805 5.87067ZM22.4285 4.56678C22.4916 4.67193 22.5232 4.79811 22.5232 4.94533C22.5232 5.09254 22.4864 5.22398 22.4075 5.32388C22.2813 5.30285 22.1288 5.35016 21.9553 5.46057C21.8344 5.53944 21.745 5.58149 21.6819 5.59727C21.5505 5.59727 21.4611 5.53944 21.4191 5.42903C21.4191 5.25553 21.4296 5.10831 21.4454 4.99264C21.4611 4.87698 21.5032 4.7508 21.5663 4.60884H21.6083C21.6083 4.60884 21.6294 4.67193 21.6294 4.73502C21.6294 4.77182 21.6189 4.84017 21.5926 4.94006C21.5663 5.03996 21.5558 5.11883 21.5558 5.16615C21.5558 5.24501 21.5768 5.29232 21.6189 5.3081C21.6609 5.32387 21.724 5.32913 21.8081 5.3081C21.908 5.26604 21.9553 5.16615 21.9553 5.00316C21.9501 4.91904 21.9448 4.85595 21.9448 4.81389C21.9448 4.77183 21.9448 4.7245 21.9606 4.67193C21.9711 4.61935 22.0079 4.57729 22.071 4.54049C22.0763 4.56678 22.0815 4.61935 22.0815 4.6877V4.81389C22.0815 4.90327 22.0868 4.97161 22.0973 5.00842C22.1078 5.04522 22.1394 5.08202 22.1972 5.11882C22.255 5.11882 22.2971 5.11882 22.3339 5.11357C22.3707 5.11357 22.3917 5.09254 22.4075 5.05573C22.4075 5.01893 22.3917 4.96636 22.3654 4.88749C22.3391 4.80863 22.3234 4.75079 22.3234 4.70873C22.3234 4.64038 22.3602 4.5878 22.4285 4.56151V4.56678ZM22.1762 3.86225C22.1972 3.82019 22.1867 3.78339 22.1499 3.75184C22.1131 3.7203 22.0658 3.68875 22.0184 3.65195C22.0605 3.61514 22.0815 3.56257 22.0815 3.48371C22.0815 3.44165 22.0815 3.3733 22.071 3.28392C22.0447 3.22082 22.0184 3.17876 21.9974 3.15773C21.9553 3.11567 21.908 3.11042 21.8502 3.1367C21.7608 3.15248 21.6767 3.19979 21.6083 3.27865C21.54 3.35752 21.4979 3.4469 21.4822 3.5468C21.4664 3.63092 21.5137 3.69927 21.6136 3.74659C21.7135 3.79391 21.7713 3.83596 21.7871 3.86225C21.5347 4.1409 21.2035 4.43533 20.7987 4.74553C20.5673 4.91904 20.2151 5.18192 19.7471 5.52366C20.0153 5.40274 20.2676 5.26078 20.5148 5.09254C20.7093 4.9611 20.9511 4.77708 21.2298 4.54574C21.3087 4.51945 21.4243 4.40379 21.5873 4.20925C21.7293 4.04101 21.8344 3.95689 21.9133 3.95689C21.9711 3.95689 22.0237 3.98318 22.071 4.0305L22.1762 3.86225ZM20.1257 3.24185C20.0205 3.38907 19.8313 3.51525 19.5579 3.6204C19.3528 3.69927 19.2266 3.75184 19.1688 3.78864C18.58 4.07781 18.1436 4.28812 17.8544 4.43007C17.3286 4.6877 16.9028 4.92955 16.5821 5.14511C16.5821 4.97687 16.7135 4.82966 16.9711 4.70347C17.1446 4.61935 17.2603 4.551 17.3181 4.50368C18.2487 4.08307 19.1846 3.66246 20.1257 3.24185ZM21.7661 6.69085L21.703 6.90116C21.6767 6.90116 21.6189 6.88538 21.54 6.85384C21.4611 6.82229 21.398 6.81704 21.356 6.83807C21.2929 6.93796 21.2508 7.10095 21.2298 7.32703C21.2088 7.55311 21.172 7.71609 21.1141 7.80547C21.0721 7.77918 20.9827 7.64248 20.8512 7.40589C20.7461 7.21136 20.6146 7.12724 20.4517 7.16404C20.4096 7.12198 20.3886 7.07992 20.3886 7.03786C20.3886 7.01157 20.4043 6.96425 20.4306 6.90116C20.4569 6.83807 20.4727 6.79075 20.4727 6.75394L20.5568 6.68034C20.6672 6.74868 20.7724 6.86961 20.8618 7.03786C20.9932 7.28497 21.0773 7.42692 21.1141 7.46898C21.1404 7.30599 21.1772 7.13775 21.214 6.95899C21.2508 6.78023 21.3297 6.64354 21.4401 6.55416C21.4874 6.5489 21.5505 6.56467 21.6189 6.60673C21.6872 6.64879 21.7398 6.67508 21.7661 6.69085ZM16.6767 3.86225C16.6504 3.87802 16.6241 3.91483 16.5978 3.97792C16.5715 4.04101 16.5347 4.07781 16.4874 4.09359C16.4243 4.0673 16.3823 4.02524 16.356 3.97792C16.3297 3.9306 16.3192 3.87277 16.3192 3.80968C16.3192 3.78865 16.3297 3.7203 16.3507 3.60989C16.3717 3.49948 16.377 3.41536 16.3717 3.35752C16.3139 3.48371 16.2719 3.59412 16.2456 3.68876C16.2193 3.78339 16.2035 3.87802 16.2035 3.97792C16.2035 4.07781 16.2088 4.15142 16.2245 4.19874C16.2613 4.25657 16.2981 4.29338 16.3402 4.31967C16.3823 4.34596 16.4296 4.35121 16.4874 4.33544C16.6504 4.21452 16.7135 4.05678 16.6767 3.86225ZM25.0889 10.6866C25.0889 10.8391 25.0468 10.9758 24.9574 11.0862C24.8681 11.1966 24.7682 11.2545 24.6472 11.2545C24.6052 11.2545 24.5736 11.2492 24.5526 11.2334C24.4895 11.3018 24.4369 11.3491 24.4001 11.3754C24.3633 11.4017 24.316 11.4122 24.2687 11.4122C24.2266 11.4122 24.1898 11.3964 24.153 11.3701C24.1057 11.2702 24.0111 11.2229 23.8691 11.2229C23.8323 11.2229 23.806 11.2229 23.7797 11.2229C23.7535 11.2229 23.7166 11.2387 23.6588 11.2597C23.2803 11.5279 22.9017 11.7908 22.5232 12.0589C22.2866 12.2114 22.0868 12.327 21.9343 12.4059C21.7293 12.511 21.519 12.5899 21.2929 12.6477C21.5295 12.5216 21.7503 12.3901 21.9553 12.2587C22.2445 12.0641 22.4548 11.9169 22.5968 11.817C22.928 11.5804 23.1383 11.428 23.2277 11.3649C23.459 11.2019 23.6798 11.0757 23.8901 10.9758C23.9532 10.939 24.0479 10.96 24.1793 11.0284C24.3108 11.0967 24.3896 11.1335 24.4264 11.1335C24.4685 11.1335 24.5 11.1178 24.5211 11.0915C24.5421 11.0652 24.5579 11.0021 24.5736 10.9127L24.6367 10.7865L24.6998 11.0074C24.7997 11.0126 24.8733 10.9811 24.9259 10.9075C24.9785 10.8339 25.0311 10.7603 25.0889 10.6814V10.6866ZM26.5715 7.05889C26.4716 6.59621 26.377 6.11778 26.2824 5.6183C26.1877 5.11883 26.1404 4.67193 26.1404 4.27235L26.5505 4.65089C26.5137 4.38275 26.4401 4.10937 26.3297 3.8202C26.2508 3.62566 26.1352 3.36278 25.9722 3.03155C25.8933 3.05784 25.8302 3.13145 25.7829 3.25237C25.7145 3.42062 25.6672 3.52051 25.6462 3.5468C25.7145 4.0673 25.8039 4.67718 25.9091 5.37645C25.9511 5.63407 26.051 6.25447 26.2035 7.22713C26.3034 7.84227 26.398 8.46268 26.4979 9.07782C26.4138 9.14091 26.3244 9.18297 26.235 9.20926C26.1457 9.23555 26.0353 9.24606 25.9091 9.24606H25.7829C25.7408 9.24606 25.6988 9.24606 25.6567 9.23554C25.5989 9.19348 25.499 9.12514 25.3518 9.03576C25.2466 8.94638 25.2098 8.83596 25.2361 8.70978C25.2098 8.73607 25.1152 8.88328 24.9627 9.14091C24.8523 9.32492 24.7261 9.44585 24.5947 9.50894C24.5316 9.53523 24.4527 9.551 24.3633 9.551C24.2372 9.551 24.1373 9.51945 24.0637 9.45636C23.99 9.39327 23.948 9.33018 23.9322 9.26183C23.9164 9.19348 23.9112 9.13039 23.9112 9.0673C23.9112 8.98318 23.9164 8.89906 23.9322 8.81494C23.7797 8.98318 23.6273 9.14616 23.4801 9.30915C23.2908 9.49842 23.1068 9.59306 22.9227 9.59306C22.8229 9.59832 22.7387 9.58255 22.6599 9.54575C22.581 9.50894 22.5127 9.45637 22.4443 9.38802C22.376 9.31967 22.3444 9.26183 22.3444 9.204C22.3444 9.15668 22.3812 9.07782 22.4496 8.9674C22.5179 8.85699 22.5495 8.76762 22.5337 8.68875C22.4022 8.73081 22.1131 8.86226 21.6714 9.07782C21.3192 9.25132 21.03 9.35121 20.7987 9.37224C20.7776 9.18823 20.704 9.02524 20.5778 8.87803C20.4464 8.70452 20.2992 8.56256 20.1362 8.46267C19.9732 8.36277 19.805 8.3102 19.621 8.3102C19.5421 8.3102 19.4632 8.32072 19.3791 8.34175C19.1478 8.50999 18.9743 8.72029 18.8586 8.97266C18.7429 9.22503 18.6851 9.50368 18.6851 9.80336C18.7955 9.96635 18.9322 10.0768 19.0952 10.1346C19.2582 10.1924 19.4422 10.224 19.6525 10.224C19.7945 10.224 19.9259 10.2135 20.0521 10.1924C20.1783 10.1714 20.3097 10.1451 20.4517 10.1188C20.499 10.1872 20.52 10.2766 20.5148 10.3817C19.5631 11.2019 19.0794 11.6172 19.0742 11.6225C18.4906 12.0484 17.9543 12.2639 17.4548 12.2639C17.3076 12.2639 17.1656 12.2482 17.029 12.2219C16.8923 12.1956 16.7503 12.143 16.6031 12.0747C16.4138 11.8276 16.3192 11.5647 16.3192 11.2755C16.3192 11.1966 16.3297 11.1125 16.3507 11.0126C16.6451 10.8181 16.9448 10.6183 17.2445 10.4238C17.602 10.1872 17.8597 9.94532 18.0226 9.69821C18.0857 9.59306 18.1278 9.48791 18.1541 9.3775C18.1804 9.26709 18.1909 9.15668 18.1909 9.03576C18.1909 8.88854 18.1646 8.67298 18.1068 8.39433C18.0489 8.11567 18.0226 7.90536 18.0226 7.77392L18.2855 7.87907C18.2435 7.71083 18.1646 7.5163 18.0437 7.30074C17.9806 7.17981 17.8807 7.01157 17.7387 6.78549C17.6494 6.84333 17.581 6.92219 17.5337 7.02209C17.4864 7.12198 17.4496 7.25342 17.4233 7.40589C17.4653 7.64248 17.5389 7.9632 17.6441 8.36278C17.7282 8.67824 17.8176 8.99369 17.907 9.30915C17.3602 9.73501 16.7766 10.1293 16.1614 10.4869C15.6409 10.7865 15.0258 11.102 14.3108 11.4332C13.764 11.6856 13.1383 11.9537 12.4285 12.2429C13.5221 12.0694 14.1846 11.9537 14.4159 11.8959C15.1678 11.7224 15.7671 11.4595 16.2245 11.1178C16.2193 11.1966 16.2035 11.3123 16.1825 11.47C16.1614 11.6278 16.1509 11.7697 16.1509 11.8959C16.1509 12.0904 16.1772 12.2692 16.2298 12.4322C16.2824 12.5952 16.377 12.7266 16.5084 12.8318C16.724 12.9422 16.9816 13 17.2761 13C17.3129 13 17.3549 13 17.4128 13C17.4706 13 17.5337 12.9895 17.602 12.9842C18.254 12.7739 18.8691 12.4322 19.4527 11.9642C19.7209 11.7382 19.9837 11.4437 20.2519 11.0705C20.499 10.7287 20.6988 10.3922 20.8618 10.0715C21.2403 9.91904 21.4664 9.8244 21.5347 9.79811C21.7293 9.70873 21.9291 9.5878 22.1341 9.44059L22.1026 9.80863C22.1288 9.95058 22.2025 10.061 22.3181 10.1451C22.4338 10.2292 22.5705 10.2818 22.723 10.3028C22.9122 10.3239 23.091 10.2608 23.2592 10.1136C23.3223 10.0662 23.4538 9.91378 23.6588 9.66142L23.7219 9.97687C23.764 10.0768 23.8323 10.1451 23.9217 10.1924C24.0111 10.2398 24.111 10.2608 24.2161 10.2608C24.4107 10.2608 24.5842 10.1714 24.7314 9.98738C24.7787 9.92955 24.8786 9.76656 25.0258 9.49317C25.0626 9.57203 25.1099 9.64038 25.1783 9.70347C25.2466 9.76656 25.3097 9.81388 25.3728 9.85068C25.5042 9.92955 25.6515 9.96635 25.8144 9.96635C26.03 9.96635 26.2298 9.91378 26.4033 9.80863C26.5242 9.55626 26.6031 9.31441 26.6451 9.08833C26.6872 8.86225 26.7082 8.60989 26.7082 8.33649C26.7082 8.14196 26.6925 7.93165 26.6662 7.71609C26.6399 7.50053 26.6083 7.27971 26.5715 7.06415V7.05889ZM17.0447 6.15457L17.0132 6.36488C16.9764 6.37014 16.9448 6.36488 16.908 6.35437C16.8186 6.3123 16.7556 6.28601 16.7188 6.27024C16.6714 6.64879 16.6399 6.87487 16.6241 6.94848C16.6083 7.02209 16.5715 7.12724 16.5084 7.2692C16.4716 7.22188 16.4296 7.1325 16.3717 7.00631C16.2613 6.74869 16.1825 6.58571 16.1404 6.52261C16.1036 6.58045 16.0615 6.60673 16.0142 6.60673C15.9774 6.60673 15.9459 6.59622 15.9196 6.56993C15.8933 6.54364 15.8775 6.50684 15.8775 6.45952C15.8775 6.4122 15.8986 6.34385 15.9354 6.25447C15.9722 6.16509 15.9932 6.11778 15.9932 6.11252C16.0984 6.11252 16.1877 6.17035 16.2561 6.28076C16.3402 6.47529 16.4243 6.66983 16.5084 6.8591C16.5295 6.71189 16.5558 6.56467 16.5821 6.4122C16.6083 6.25973 16.6557 6.12829 16.7188 6.00736C16.8397 6.00736 16.9448 6.05468 17.0447 6.15457ZM12.765 4.88223C12.723 5.00316 12.6914 5.08728 12.6704 5.14511C12.6283 5.25026 12.581 5.33439 12.5337 5.39748C12.5757 5.27656 12.6125 5.1346 12.6494 4.9611C12.6862 4.7876 12.7019 4.62987 12.7019 4.48265C12.7019 4.27235 12.6756 4.08833 12.6231 3.9306C12.5705 3.77287 12.4759 3.62566 12.3444 3.48371L12.4496 3.2734C12.581 3.37855 12.6809 3.52577 12.744 3.70978C12.8071 3.8938 12.8386 4.08833 12.8386 4.28286C12.8386 4.36698 12.8386 4.46162 12.8229 4.56151C12.8123 4.66141 12.7913 4.77182 12.765 4.88223ZM15.6252 8.07887C15.6252 8.70978 15.2939 9.27234 14.6367 9.7613C14.1583 10.1136 13.5431 10.4132 12.7861 10.6656C12.5127 10.7497 12.2182 10.7918 11.9028 10.7918C11.5873 10.7918 11.3139 10.7445 11.0616 10.6446C10.8092 10.5447 10.5936 10.387 10.4096 10.1714C10.2677 10.0452 10.1678 9.88749 10.0994 9.70347C10.0311 9.51945 9.99951 9.31441 9.99951 9.09885C9.99951 8.92534 10.0153 8.74659 10.0416 8.56783C10.0679 8.38907 10.1362 8.1735 10.2414 7.92113C10.2414 7.83176 10.3307 7.65826 10.5042 7.40589C10.5936 7.27445 10.6409 7.17982 10.6409 7.12198C10.6409 7.01157 10.5621 6.91693 10.4096 6.83807C10.3307 6.62776 10.2939 6.40168 10.2939 6.16509C10.2939 5.80757 10.3938 5.42377 10.5884 5.01893C10.6304 4.92955 10.8302 4.58255 11.1877 3.98844C11.0405 4.33018 10.9301 4.59832 10.8512 4.7876C10.7093 5.12934 10.6409 5.42377 10.6409 5.66036C10.6409 5.82335 10.662 5.96004 10.7093 6.07571C10.7566 6.19138 10.8407 6.30704 10.9669 6.41745C11.0353 6.43323 11.0878 6.39643 11.1246 6.3123C11.1614 6.22818 11.193 6.1756 11.2193 6.15457C11.2351 6.22292 11.2403 6.2755 11.2403 6.3123C11.2403 6.43323 11.2088 6.55942 11.1404 6.70137C11.0721 6.84333 11.009 6.97476 10.9459 7.10095C10.7829 7.10095 10.6672 7.18507 10.5884 7.35857C10.5095 7.53208 10.4412 7.69506 10.3781 7.84753C10.357 7.93691 10.336 8.05258 10.315 8.19453C10.2939 8.33649 10.2834 8.45216 10.2834 8.55206C10.2834 8.73607 10.2992 8.88854 10.3307 9.00947C10.3623 9.13039 10.4254 9.25132 10.5148 9.37224C10.6988 9.62461 10.9196 9.80863 11.1772 9.92955C11.4348 10.0505 11.7293 10.1083 12.05 10.1083C12.2025 10.1083 12.3812 10.0925 12.5757 10.0557C13.0542 9.95584 13.5116 9.7876 13.948 9.54575C14.3844 9.3039 14.8155 8.99895 15.2361 8.62566C15.0836 8.55731 14.7261 8.50474 14.1635 8.47845C13.3171 8.43113 12.8912 8.12619 12.8912 7.56362C13.0226 7.01157 13.3013 6.48055 13.7167 5.97056C14.132 5.46057 14.6052 5.08728 15.131 4.85069C15.2203 4.82965 15.315 4.85594 15.4043 4.93481C15.4517 4.97687 15.52 5.05574 15.6041 5.16615C15.5831 5.28707 15.5673 5.40274 15.5516 5.52366C15.5253 5.6551 15.478 5.77077 15.4149 5.87067C15.3938 5.85489 15.3465 5.80232 15.2729 5.70768C15.1993 5.61304 15.131 5.55521 15.0679 5.53418C14.6946 5.57624 14.337 5.77077 13.9953 6.12303C13.806 6.31756 13.5484 6.65931 13.2172 7.14301C13.1804 7.23239 13.2014 7.32177 13.2803 7.40589C13.3223 7.45321 13.4012 7.51105 13.5116 7.57414C13.601 7.653 13.7167 7.70558 13.8533 7.73712C13.99 7.76867 14.1373 7.78444 14.3002 7.78444H14.5211C14.5999 7.78444 14.6735 7.78444 14.7524 7.77392C14.9469 7.77392 15.1204 7.79495 15.2624 7.83176C15.4043 7.86856 15.5253 7.95268 15.6252 8.07887ZM11.9764 8.32072C11.9553 8.37855 11.9291 8.43113 11.9028 8.48896C11.8765 8.54679 11.8292 8.56783 11.7661 8.55206C11.6609 8.46793 11.6083 8.36804 11.6083 8.24711C11.6083 8.18402 11.6346 8.08938 11.682 7.9632C11.7713 7.73186 11.8186 7.57939 11.8186 7.51104C11.7082 7.71609 11.6241 7.90011 11.5768 8.06309C11.5295 8.22608 11.5032 8.40484 11.5032 8.59411C11.54 8.66246 11.5873 8.72029 11.6451 8.76761C11.703 8.81493 11.7713 8.82019 11.8397 8.7939C11.908 8.73607 11.9553 8.66772 11.9711 8.58886C11.9869 8.50999 11.9922 8.42061 11.9711 8.32072H11.9764ZM21.8923 3.55731C21.8239 3.52051 21.7503 3.48896 21.6819 3.45216C21.6819 3.41535 21.7082 3.39958 21.7661 3.39958C21.8712 3.39958 21.9133 3.43639 21.8923 3.51525V3.55731ZM20.1888 9.48791C20.0679 9.50894 19.9522 9.51946 19.8313 9.51946C19.663 9.51946 19.5105 9.49316 19.3739 9.44059C19.2372 9.38801 19.1215 9.30389 19.0321 9.18297C19.0268 9.12514 19.0426 9.08833 19.0794 9.0673C19.1162 9.04627 19.1688 9.02524 19.2319 9.00421C19.4212 9.00421 19.5947 9.04627 19.7577 9.13565C19.9206 9.22503 20.0626 9.3407 20.1888 9.48791Z" fill="currentColor"/>
</svg>
