<svg width="40" height="16" viewBox="0 0 40 16" fill="none" xmlns="http://www.w3.org/2000/svg">
<path fill-rule="evenodd" clip-rule="evenodd" d="M28.4799 4.03066C28.4544 4.11158 28.4288 4.17547 28.4075 4.22658C28.3522 4.35009 28.2883 4.4523 28.2116 4.53322C28.1435 4.54174 28.0753 4.52044 28.0115 4.47359C27.9476 4.42674 27.9007 4.36712 27.8752 4.29897C27.8624 4.21805 27.8539 4.15843 27.8539 4.12436C27.8539 3.98807 27.8922 3.85179 27.9646 3.7155C28.0753 3.55366 28.1563 3.43014 28.2116 3.34922C28.2116 3.40459 28.1903 3.46848 28.152 3.54514C28.0583 3.72402 28.0072 3.84326 28.0072 3.91141C28.0072 3.97103 28.02 4.03066 28.0498 4.08603C28.1094 4.18824 28.1733 4.23936 28.2329 4.23936C28.2585 4.23936 28.284 4.22231 28.3096 4.18824C28.3351 4.15417 28.3564 4.1201 28.3777 4.08603C28.399 4.05195 28.4331 4.03492 28.4799 4.03492V4.03066ZM28.2244 5.74701C28.1776 5.862 28.1094 5.977 28.02 6.08347C27.9305 6.18995 27.8411 6.30068 27.7559 6.41141L27.0702 5.94293C27.0021 5.9983 26.9254 6.08347 26.836 6.19846C26.7253 6.35604 26.6571 6.44974 26.623 6.48382C26.4271 6.4029 26.2823 6.33902 26.1929 6.28791C26.0225 6.19421 25.9501 6.092 25.9799 5.98126C26.1588 5.75554 26.261 5.63202 26.2866 5.60221C26.3675 5.52555 26.4484 5.49149 26.5336 5.49149C26.6273 5.49149 26.7167 5.54259 26.7977 5.6448C26.8317 5.69165 26.8701 5.72998 26.9084 5.75128C26.951 5.77683 26.985 5.78534 27.0191 5.78534C27.1 5.78534 27.2065 5.70016 27.3428 5.53407C27.4748 5.36797 27.5813 5.28279 27.6665 5.28279C27.7559 5.28279 27.8496 5.35945 27.9518 5.50851C27.9987 5.54258 28.0498 5.57666 28.1052 5.61499C28.1605 5.65332 28.1988 5.69591 28.2287 5.74276L28.2244 5.74701ZM26.721 3.03833C25.6988 3.28961 24.681 3.55792 23.6716 3.83475C22.658 4.11584 21.6869 4.40119 20.7542 4.69505C20.4348 4.78875 20.1154 4.88246 19.8045 4.97189C19.4297 5.08689 19.1827 5.27427 19.0677 5.53407C19.1145 5.49148 19.1614 5.45316 19.2125 5.41057C21.5293 4.66099 23.9229 3.97104 26.3888 3.34497C26.4569 3.31942 26.5166 3.27683 26.5719 3.22146C26.6273 3.16609 26.6784 3.10647 26.7253 3.03833H26.721ZM24.8087 6.71805C24.7491 6.82027 24.6767 6.90971 24.6 6.99063C24.5234 7.07155 24.4339 7.1184 24.3402 7.1397C24.2977 7.16099 24.2551 7.1695 24.2082 7.1695C24.0804 7.1695 23.9782 7.10562 23.9101 6.97359C23.876 6.88415 23.859 6.8075 23.859 6.73936C23.859 6.61585 23.8973 6.49233 23.9697 6.3603C24.0464 6.23253 24.1188 6.10477 24.1954 5.98126C24.1401 6.10477 24.1017 6.19846 24.0847 6.26661C24.0634 6.33475 24.0549 6.41993 24.0549 6.52214C24.0549 6.59029 24.0634 6.65417 24.0847 6.71805C24.1316 6.82879 24.2125 6.87989 24.3317 6.87989C24.3743 6.87989 24.4169 6.87138 24.468 6.85434C24.5191 6.83731 24.5745 6.81601 24.6298 6.7862C24.6852 6.75638 24.715 6.72658 24.715 6.68399C24.715 6.65843 24.7065 6.62436 24.6852 6.58603C24.6639 6.5477 24.6469 6.51789 24.6298 6.48808C24.6128 6.46253 24.5617 6.41568 24.4765 6.35605C24.3913 6.29643 24.3488 6.24106 24.3488 6.19421C24.3488 6.16866 24.3743 6.12606 24.4297 6.0707C24.451 6.04514 24.4765 6.02811 24.5106 6.02811C24.5362 6.02811 24.5745 6.04514 24.6171 6.07921C24.6597 6.11328 24.7023 6.1431 24.7448 6.17291C24.8471 6.24105 24.8982 6.33049 24.8982 6.43696C24.8982 6.5264 24.8684 6.61585 24.8045 6.7138L24.8087 6.71805ZM30.6861 5.38926C30.6861 5.11669 30.6392 4.80154 30.5413 4.43953C30.4476 4.07752 30.2687 3.59625 30.0089 3C29.9322 3.12777 29.8556 3.26405 29.7789 3.40459C29.7023 3.54514 29.6767 3.67717 29.7023 3.79642L30.1324 8.97955L30.1537 10.0741C29.9961 10.155 29.8343 10.2147 29.6639 10.2487C29.4936 10.2828 29.3104 10.2998 29.1103 10.2998C28.7823 10.2998 28.497 10.2572 28.25 10.1678C28.3437 9.89523 28.4203 9.66099 28.4714 9.46934C28.5225 9.27343 28.5481 9.07752 28.5481 8.88161C28.5481 8.68569 28.5183 8.50256 28.4544 8.31942C28.3309 8.10647 28.1733 8.00426 27.9731 8.00426C27.5898 8.21721 27.3002 8.50682 27.0958 8.88161C26.8913 9.25639 26.7891 9.64395 26.7891 10.0486C26.3547 10.2189 25.8862 10.3509 25.3879 10.4404C24.8896 10.5341 24.3913 10.5767 23.8973 10.5767C23.4033 10.5767 22.8666 10.5426 22.3556 10.4702C21.8445 10.3978 21.3888 10.2913 20.9842 10.1465C20.7372 10.0358 20.537 9.89098 20.3794 9.70784C20.1963 9.49489 20.1026 9.27768 20.1026 9.05196C19.7534 9.41823 19.4126 9.78876 19.0719 10.155C18.8249 10.402 18.5779 10.5213 18.3266 10.5213C18.2457 10.5213 18.1818 10.5213 18.1435 10.5128C17.9603 10.4319 17.8198 10.3083 17.7261 10.1508C17.6324 9.98892 17.5728 9.80579 17.5515 9.59284V8.38757C17.5515 7.01618 17.5174 5.93441 17.4535 5.13799C17.3896 4.34156 17.3045 3.68142 17.2022 3.16609C17.1895 3.15332 17.1597 3.16609 17.1213 3.20868C17.0063 3.30238 16.9212 3.41312 16.87 3.53237C16.8189 3.65162 16.7934 3.77938 16.7934 3.91567C16.7934 4.05196 16.8189 4.21379 16.8658 4.41822C16.9595 4.8356 17.0106 5.10817 17.0106 5.24446C17.0106 5.3126 17.0106 5.36372 17.0021 5.39779C17.0787 5.90886 17.1213 6.48808 17.1384 7.1397C17.1554 7.79132 17.1724 8.44293 17.1937 9.09029C17.215 9.74191 17.2704 10.3126 17.3683 10.8024C17.428 10.9387 17.5259 11.0622 17.6537 11.1687C17.7815 11.2794 17.9135 11.3475 18.0413 11.3816C18.0753 11.3901 18.1222 11.3901 18.1861 11.3901C18.4331 11.3901 18.6801 11.2666 18.9314 11.0239C19.1145 10.8109 19.3019 10.6022 19.4936 10.3893C19.4936 11.0792 19.8045 11.6116 20.422 11.9949C20.5114 11.8799 20.5924 11.7095 20.669 11.4838C20.7712 11.1772 20.8309 10.9983 20.8522 10.9514C21.2142 11.1005 21.5932 11.207 21.985 11.2751C22.3811 11.339 22.8113 11.3731 23.2712 11.3731C23.7014 11.3731 24.123 11.3475 24.5447 11.2964C24.962 11.2453 25.3837 11.1729 25.8053 11.075C25.9416 11.0622 26.1588 10.994 26.4612 10.8748C26.7593 10.7555 26.9808 10.6959 27.1256 10.6959C27.2065 10.6959 27.2789 10.7044 27.3471 10.7257C27.4109 10.747 27.4791 10.7854 27.5472 10.8365C27.7857 10.9259 28.0157 10.994 28.2414 11.0451C28.4672 11.0963 28.7057 11.1218 28.9569 11.1218C29.1741 11.1218 29.3914 11.0877 29.6 11.0239C29.813 10.96 29.9876 10.8663 30.1324 10.7428C30.2687 10.4233 30.3624 10.1124 30.4135 9.81432C30.4646 9.51619 30.4902 9.17548 30.4902 8.79217C30.4902 8.6133 30.4902 8.48978 30.4859 8.41738C30.4859 8.34498 30.4689 8.17035 30.4518 7.88926C30.4518 7.62947 30.3922 7.01192 30.2687 6.04088C30.2133 5.61073 30.1878 5.25298 30.1878 4.96763C30.2346 4.92504 30.2815 4.88245 30.3326 4.83561C30.3581 4.87819 30.4178 4.97188 30.5072 5.12095C30.5668 5.23168 30.6307 5.31687 30.6903 5.38501L30.6861 5.38926ZM26.9552 12.1354C26.9638 12.2164 26.9425 12.3058 26.8956 12.3995C26.8743 12.4336 26.8189 12.523 26.721 12.6636C26.6273 12.6721 26.5464 12.638 26.4825 12.5699C26.4186 12.5017 26.3675 12.4165 26.3334 12.3143C26.3334 12.1653 26.359 12.0332 26.4058 11.9225C26.4527 11.8118 26.5336 11.6883 26.6528 11.5605C26.6528 11.6031 26.6273 11.6712 26.5719 11.7649C26.5166 11.8586 26.491 11.9438 26.491 12.0119C26.491 12.0588 26.5038 12.1056 26.5336 12.1567C26.5762 12.2717 26.6401 12.3441 26.7295 12.3697C26.7891 12.3782 26.8402 12.3399 26.8828 12.2632C26.9254 12.1865 26.951 12.144 26.9638 12.1354H26.9552ZM18.5438 4.97189C18.5523 4.8782 18.5566 4.79302 18.5608 4.71636C18.5608 4.63969 18.5651 4.5758 18.5651 4.52043C18.5651 4.30323 18.5481 4.11158 18.5097 3.94974C18.4714 3.7879 18.4075 3.63458 18.3096 3.48978C18.3223 3.43441 18.3351 3.39608 18.3394 3.37904C18.3735 3.29812 18.416 3.25127 18.4714 3.23424C18.6418 3.51533 18.7269 3.82623 18.7269 4.17546C18.7269 4.46081 18.6673 4.72913 18.5438 4.97189ZM21.7721 6.62862C21.7636 6.68824 21.721 6.72232 21.6401 6.72232C21.5379 6.70954 21.4612 6.70103 21.4143 6.70103C21.2908 6.70103 21.2312 6.77768 21.2312 6.93526C21.2099 7.0971 21.1716 7.27598 21.1077 7.46763C21.0183 7.69761 20.9544 7.87223 20.9118 7.98722C20.8351 7.91908 20.7414 7.70187 20.6264 7.33134C20.537 7.03747 20.3922 6.89267 20.1878 6.89267C20.1324 6.8586 20.1068 6.80323 20.1068 6.73083C20.1068 6.68398 20.1239 6.60732 20.158 6.50511C20.2005 6.42419 20.2304 6.37308 20.2516 6.35179C20.307 6.29642 20.3624 6.29217 20.4263 6.34328C20.52 6.47956 20.6179 6.67973 20.7116 6.94804C20.8351 7.28876 20.9118 7.49744 20.9459 7.56984C21.0353 7.25042 21.1077 7.01192 21.1716 6.85434C21.2823 6.57325 21.4399 6.41994 21.6528 6.39438C21.6954 6.42845 21.7295 6.45826 21.7593 6.47955C21.7891 6.50511 21.8062 6.53067 21.8062 6.55622C21.8062 6.569 21.7976 6.59455 21.7764 6.62862H21.7721ZM22.7644 8.92845C22.7644 9.03066 22.7431 9.12436 22.7048 9.2138C22.6665 9.30324 22.5983 9.37564 22.5089 9.42675C22.462 9.42675 22.4152 9.40119 22.3641 9.35434C22.313 9.30749 22.2874 9.26065 22.2704 9.20954C22.2619 9.13288 22.2619 9.08177 22.2619 9.0477C22.2619 8.74105 22.3343 8.45571 22.4748 8.18739C22.4748 8.21295 22.462 8.29813 22.4408 8.44293C22.4152 8.58774 22.4067 8.69421 22.4067 8.77087C22.4067 8.91567 22.4493 9.03067 22.5302 9.12011C22.5856 9.12862 22.6281 9.10732 22.6622 9.06047C22.6963 9.01363 22.7304 8.96678 22.7644 8.92845ZM15.1409 4.97189C15.1068 5.08263 15.077 5.17206 15.0472 5.24872C15.0217 5.32538 14.9706 5.38927 14.9024 5.44463C14.8343 5.43611 14.7746 5.41055 14.7235 5.35945C14.6724 5.30834 14.6213 5.2402 14.5745 5.15928C14.5745 4.908 14.6426 4.63543 14.7789 4.34157C14.8939 4.09029 15.0131 3.83901 15.1367 3.58347C15.0004 3.96678 14.8683 4.34157 14.7363 4.71636C14.7363 4.80579 14.7533 4.88245 14.7917 4.95059C14.83 5.01874 14.8939 5.07836 14.9919 5.13372L15.0728 4.97189H15.1324H15.1409ZM13.5566 3.72401L13.4629 3.98807C13.4075 3.94122 13.3522 3.88585 13.2883 3.83049C13.2244 3.77512 13.1648 3.74532 13.1051 3.74532C13.0498 3.84753 13.0157 4.07325 13.0029 4.41822C12.9901 4.7632 12.9092 4.98893 12.7687 5.09114C12.7091 5.023 12.6281 4.86542 12.5302 4.62266C12.4322 4.37564 12.33 4.24361 12.2278 4.22232C12.0574 4.24787 11.9467 4.20954 11.8999 4.0988C11.8999 3.99659 11.9169 3.89864 11.9467 3.8092C11.9765 3.71976 12.0319 3.63884 12.1043 3.57921C12.2746 3.66865 12.4194 3.84327 12.5344 4.0988C12.6963 4.4523 12.7985 4.65673 12.8411 4.71209C12.8624 4.49489 12.8879 4.26916 12.922 4.03066C12.9561 3.79216 13.0242 3.6005 13.1264 3.44292C13.2201 3.43014 13.3053 3.44718 13.382 3.49829C13.4586 3.5494 13.514 3.62181 13.5566 3.71976V3.72401ZM13.3607 6.62862C13.2798 6.80749 13.2201 6.93952 13.1861 7.02896C13.1094 7.1908 13.02 7.28024 12.9092 7.29301C12.8837 7.23765 12.7815 7.16951 12.6111 7.08859C12.4407 7.00767 12.3556 6.931 12.3556 6.86286C12.3556 6.80323 12.3982 6.73083 12.4791 6.64991C12.5387 6.54769 12.5983 6.44974 12.6537 6.3603C12.7091 6.26661 12.7559 6.20699 12.7985 6.18143C12.8922 6.22402 12.9944 6.28365 13.0966 6.36457C13.1435 6.40716 13.2329 6.49233 13.3607 6.62862ZM19.2593 11.7606C19.2338 11.8501 19.2039 11.9395 19.1784 12.0375C19.1315 12.1482 19.0634 12.2121 18.974 12.2334C18.8121 12.2334 18.6844 12.1738 18.5949 12.0503C18.416 12.3101 18.1477 12.5187 17.7857 12.6721C17.6367 12.7402 17.3002 12.8509 16.7721 13C17.3385 12.6848 17.905 12.3782 18.4672 12.0716C18.5268 11.9608 18.5779 11.8756 18.6205 11.816C18.6971 11.6925 18.7993 11.5733 18.9356 11.4583C19.0251 11.437 19.0932 11.4668 19.1401 11.5392C19.1741 11.6158 19.2125 11.6882 19.2508 11.7649L19.2593 11.7606ZM14.5276 9.71636C14.5276 9.83135 14.5063 9.93782 14.4595 10.04C14.4169 10.138 14.3487 10.2146 14.2593 10.27C14.2125 10.2572 14.1614 10.236 14.1102 10.2019C14.0591 10.1721 14.0293 10.138 14.0251 10.0997C14.0166 10.0613 14.0166 10.0315 14.0166 10.006V9.95912C14.0166 9.82283 14.0506 9.68228 14.123 9.54174C14.1954 9.39693 14.2636 9.26065 14.3317 9.12437C14.2763 9.31602 14.221 9.50767 14.1699 9.69507C14.1699 9.8058 14.2125 9.89097 14.2934 9.95059C14.3402 9.95911 14.3786 9.92078 14.4126 9.84412C14.4467 9.76746 14.4808 9.72487 14.5319 9.71636H14.5276ZM15.8862 8C15.9203 7.95741 15.9373 7.90204 15.9373 7.82538C15.9373 7.71465 15.8692 7.54855 15.7329 7.32283C15.5625 7.03748 15.4646 6.86712 15.4348 6.81175C15.3581 6.84582 15.29 6.92675 15.2304 7.05878C15.1367 7.25469 15.0855 7.3569 15.077 7.36542C15.2729 8.3322 15.4731 9.29897 15.669 10.27C15.1835 10.7044 14.6767 11.0622 14.1401 11.3348C13.6034 11.6073 13.02 11.8203 12.3854 11.9779C12.1341 12.0247 11.9552 12.0545 11.8487 12.0588C11.7423 12.0673 11.623 12.0673 11.4867 12.0673C11.0992 12.0673 10.7627 12.0077 10.4731 11.8927C10.1409 11.7564 9.86834 11.5392 9.66391 11.2368C9.54892 11.0877 9.468 10.9344 9.42541 10.7811C9.38282 10.6278 9.35726 10.4446 9.35726 10.2359C9.35726 9.98467 9.39985 9.69932 9.48077 9.37564C9.52762 9.17973 9.60854 8.91568 9.72779 8.58774L9.96203 8.63884C10.1196 8.5494 10.2389 8.32369 10.3198 7.95316C10.3752 7.71466 10.4135 7.56133 10.4433 7.49318C10.3964 7.52726 10.3539 7.58688 10.3198 7.6678C10.2857 7.74872 10.2516 7.80409 10.2176 7.82964C10.1622 7.84242 10.1154 7.83815 10.0728 7.82112C10.0302 7.79982 9.98333 7.76576 9.92796 7.71891C9.83852 7.51448 9.79593 7.30154 9.79593 7.08433C9.79593 6.79046 9.86834 6.47956 10.0089 6.14311C10.0855 5.96423 10.2346 5.68313 10.4603 5.29557C10.1665 5.69165 9.94074 6.0707 9.77464 6.42845C9.57021 6.8799 9.468 7.30579 9.468 7.70613C9.468 8.01278 9.52762 8.30239 9.64261 8.57496C9.47225 8.91568 9.33597 9.23936 9.23801 9.546C9.14006 9.85264 9.0634 10.1891 9.00803 10.5596C8.99951 10.6193 8.99951 10.7087 8.99951 10.8237C8.99951 11.1729 9.07617 11.4881 9.22524 11.7734C9.3743 12.0588 9.59576 12.3058 9.88963 12.5102C10.1409 12.6252 10.4007 12.7147 10.6605 12.77C10.9246 12.8297 11.1844 12.8552 11.4441 12.8552C11.7039 12.8552 11.9637 12.8297 12.2108 12.7828C12.4578 12.736 12.7091 12.6678 12.9689 12.5784C13.4373 12.408 13.9143 12.1652 14.3913 11.8543C14.8215 11.5733 15.2474 11.2496 15.669 10.8748C15.7925 10.7044 15.8777 10.5213 15.9288 10.3296C15.9799 10.1337 16.0055 9.92504 16.0055 9.69932C16.0055 9.41397 15.9629 9.09029 15.882 8.72828C15.8394 8.56644 15.7627 8.27257 15.6477 7.85093C15.7244 7.89778 15.8011 7.94463 15.882 7.99574L15.8862 8ZM12.9135 9.23509L12.8198 9.49915L12.5046 9.35434C12.4578 9.44804 12.4152 9.58433 12.3811 9.75468C12.313 10.1167 12.2533 10.3424 12.2065 10.4404C12.0915 10.3722 11.9723 10.1806 11.8487 9.86968C11.7806 9.69933 11.7039 9.57581 11.623 9.50341C11.5975 9.55877 11.5464 9.58433 11.4697 9.58433C11.393 9.58433 11.3377 9.56303 11.2951 9.5247C11.2866 9.49914 11.2866 9.45656 11.2866 9.4012C11.2866 9.29898 11.3036 9.2138 11.3334 9.14139C11.3632 9.06899 11.4186 9.00511 11.5038 8.954C11.6614 9.05621 11.7934 9.21807 11.9041 9.44379C11.9936 9.64822 12.083 9.84838 12.1809 10.0486C12.2235 9.98041 12.2661 9.8356 12.313 9.61839C12.3896 9.25638 12.5259 9.07751 12.7303 9.07751L12.9135 9.23936V9.23509ZM28.1861 9.54174C27.9476 9.69932 27.7048 9.77599 27.462 9.77599C27.3939 9.71636 27.3258 9.64821 27.2534 9.58007C27.181 9.51192 27.1469 9.44804 27.1469 9.38416C27.1469 9.33731 27.1724 9.28621 27.2278 9.23084C27.2874 9.13715 27.3769 9.05196 27.4876 8.9753C27.5983 8.89864 27.7048 8.86457 27.7985 8.86457C27.9603 8.86457 28.0668 8.96253 28.1137 9.1627L28.1861 9.54174ZM19.0166 11.9012C19.0166 11.9012 18.9697 11.931 18.9356 11.931C18.8888 11.931 18.8547 11.914 18.8334 11.8799L18.7823 11.8288C18.7951 11.7734 18.8249 11.7479 18.8632 11.7479C18.8973 11.7479 18.9314 11.7649 18.9654 11.799C18.9995 11.8331 19.0166 11.8671 19.0166 11.9012Z" fill="currentColor"/>
</svg>
