<svg width="40" height="16" viewBox="0 0 40 16" fill="none" xmlns="http://www.w3.org/2000/svg">
<path fill-rule="evenodd" clip-rule="evenodd" d="M29.553 5.36237C29.4707 5.38405 29.397 5.33203 29.3363 5.20633C29.254 5.04594 29.1846 4.95058 29.1282 4.91591L29.0155 5.05028C29.0502 5.49241 29.1239 6.09493 29.2409 6.85349C29.3536 7.61205 29.4273 8.15821 29.4533 8.49198V9.03381C29.4533 9.81838 29.4187 10.3949 29.3493 10.772C29.28 11.1448 29.1629 11.5002 28.9939 11.834C29.0632 11.6693 29.1152 11.4785 29.1456 11.2661C29.1759 11.0538 29.1933 10.8327 29.1933 10.5943C29.1933 10.4122 29.1933 10.2302 29.1846 10.0481C29.1759 9.86606 29.1716 9.684 29.1629 9.50195L28.6211 5.18466C28.5994 5.01994 28.5864 4.89424 28.5777 4.81188C28.5431 4.54313 28.5041 4.33941 28.465 4.20937C28.5431 3.9883 28.5864 3.85826 28.5994 3.82358C28.6601 3.68488 28.7425 3.57651 28.8378 3.50282C28.9679 3.75856 29.1022 4.06632 29.2323 4.41743C29.3146 4.63849 29.423 4.95492 29.553 5.36237ZM25.4741 4.85089C25.3224 4.85089 25.1837 4.88556 25.058 4.95492C24.954 5.02427 24.876 5.07629 24.8283 5.11096C24.7459 5.13697 24.6809 5.12831 24.6289 5.08062C24.5812 5.03294 24.5465 4.96359 24.5249 4.87256C24.5379 4.68618 24.5465 4.53013 24.5509 4.40442C24.5509 4.27872 24.5855 4.17035 24.6506 4.08366C24.6766 4.14001 24.6939 4.20503 24.6939 4.28305C24.6939 4.3394 24.6939 4.39575 24.6852 4.44777C24.6766 4.50412 24.6722 4.56047 24.6636 4.61248C24.6636 4.75986 24.7503 4.82488 24.9237 4.81188C25.006 4.7642 25.0494 4.68184 25.0494 4.56047C25.0364 4.43043 25.0277 4.33074 25.0277 4.27005C25.0277 4.17469 25.0537 4.09233 25.11 4.03164C25.1317 4.05765 25.1447 4.10533 25.1534 4.17035C25.1621 4.23537 25.1621 4.27438 25.1621 4.29172C25.1621 4.41742 25.1707 4.50412 25.1837 4.5518C25.1967 4.59948 25.2357 4.62549 25.2964 4.62549C25.3094 4.62549 25.3441 4.61682 25.4005 4.60381C25.4221 4.56047 25.4178 4.49978 25.3961 4.41743C25.3701 4.33507 25.3614 4.28305 25.3614 4.26138C25.3614 4.20503 25.3875 4.16168 25.4438 4.12701C25.5132 4.21803 25.5478 4.3394 25.5478 4.49111C25.5478 4.62115 25.5218 4.74252 25.4741 4.85522V4.85089ZM25.8469 3C24.7243 3.34677 23.6016 3.68921 22.4876 4.03164C22.1278 4.16168 21.768 4.29172 21.4169 4.41743C20.9921 4.58214 20.6974 4.78153 20.524 5.01127C21.0355 4.75986 21.5947 4.53446 22.1972 4.3264C22.5873 4.19636 23.1638 4.0143 23.9354 3.78457C24.8586 3.51582 25.4351 3.34244 25.6605 3.26441C25.7082 3.23841 25.7559 3.19506 25.7949 3.14304C25.8383 3.09103 25.8556 3.04334 25.8469 3.00433V3ZM25.6909 5.93455L25.2531 6.50672C25.3354 6.57607 25.4221 6.64543 25.5132 6.71478C25.6302 6.81015 25.6909 6.89684 25.6909 6.96619C25.6909 6.9922 25.6822 7.02687 25.6605 7.06155C25.6345 7.08322 25.5608 7.17425 25.4438 7.3303C25.3614 7.443 25.2791 7.49068 25.1924 7.47768C25.0407 7.33897 24.889 7.19593 24.7459 7.05288C24.7459 6.99653 24.7936 6.93585 24.8933 6.86649C24.941 6.84048 24.9887 6.78414 25.0407 6.70178C25.0884 6.61942 25.136 6.56307 25.1881 6.53706C25.1664 6.45904 25.084 6.37234 24.9323 6.27698C24.7849 6.18162 24.7243 6.09059 24.7503 6.00824L25.2921 5.44473L25.6995 5.94322L25.6909 5.93455ZM23.9007 7.22627C23.9093 7.29562 23.9007 7.37365 23.8833 7.46467C23.866 7.5557 23.84 7.6554 23.8053 7.7681C23.762 7.78977 23.7273 7.79844 23.7013 7.79844C23.6449 7.79844 23.5973 7.77243 23.5539 7.72475C23.5106 7.67707 23.4846 7.61639 23.4715 7.54703C23.4715 7.3173 23.4802 7.13091 23.4976 6.9922C23.5149 6.84916 23.5539 6.68877 23.6189 6.50672C23.6276 6.58474 23.6189 6.69744 23.5973 6.84916C23.5756 7.00087 23.5669 7.09189 23.5669 7.1179C23.5669 7.22193 23.5799 7.30429 23.6103 7.36931C23.6363 7.43 23.6883 7.48201 23.7663 7.52536L23.9007 7.22193V7.22627ZM23.6839 4.65583L23.6233 4.79021C22.4226 5.30169 21.2219 5.81751 20.0255 6.329C20.1772 6.04292 20.5283 5.80884 21.0745 5.62245C21.4646 5.49241 21.7117 5.39272 21.8244 5.33203C22.4399 5.11097 23.0641 4.88557 23.6883 4.65583H23.6839ZM22.739 6.44603C22.6263 6.36801 22.5136 6.28999 22.4009 6.20763C22.2882 6.12527 22.1755 6.07759 22.0715 6.06025C21.9544 6.19029 21.8721 6.29432 21.8201 6.36367C21.7377 6.48071 21.6813 6.59775 21.6553 6.70611L22.1148 6.96619C22.1712 7.00087 22.2275 7.01821 22.2795 7.01821C22.3706 7.01821 22.4572 6.93151 22.5396 6.75813C22.622 6.58474 22.687 6.48071 22.739 6.44603ZM27.3771 5.37538C27.3294 5.14564 27.2513 4.8899 27.143 4.59948C27.0346 4.31339 26.8526 3.91027 26.5968 3.39879C26.5058 3.48114 26.4494 3.54617 26.4191 3.59818C26.3931 3.64586 26.3324 3.81057 26.2414 4.08799C26.2977 4.58214 26.4104 5.24534 26.5838 6.08626C26.7919 7.10489 26.9219 7.76809 26.9696 8.07152C27.0866 8.79974 27.1473 9.48028 27.1473 10.1088C26.9826 10.2258 26.8699 10.2995 26.8179 10.3255C26.7659 10.3515 26.6965 10.3775 26.6055 10.3992C26.3367 10.3992 26.1373 10.3862 26.0116 10.3559C25.7949 10.3082 25.6259 10.2085 25.5002 10.0524C25.4395 10.0091 25.4048 9.95708 25.4048 9.88773C25.4048 9.86606 25.4178 9.80971 25.4395 9.71435C25.4655 9.61899 25.4741 9.54963 25.4655 9.50195C25.3614 9.5713 25.1491 9.77069 24.8326 10.0958C24.5769 10.3515 24.3515 10.5293 24.1608 10.6333C23.97 10.733 23.762 10.785 23.5409 10.785C23.1248 10.785 22.7823 10.6593 22.5093 10.4122C22.83 10.1912 23.0511 10.0481 23.1768 9.98743C23.4282 9.85739 23.6666 9.77503 23.8963 9.74903C23.9223 9.68834 23.97 9.58865 24.0307 9.45861C24.0741 9.34591 24.0914 9.24187 24.0914 9.14651C24.0914 9.1205 24.0827 9.06848 24.0697 8.99913C23.8833 8.95578 23.5756 8.88643 23.1551 8.7824C22.5439 8.65236 22.0194 8.58301 21.586 8.58301C21.3346 8.58301 21.0918 8.60902 20.8491 8.6567C20.6064 8.70438 20.3853 8.7824 20.1816 8.88643C20.0429 8.94278 19.9605 9.04248 19.9302 9.18985C19.9041 9.33723 19.8781 9.51062 19.8565 9.71868C19.8781 9.71001 19.9692 9.67534 20.1252 9.60598C20.2206 9.56264 20.3159 9.53229 20.407 9.51062C20.615 9.57997 20.8101 9.71001 20.9878 9.8964C21.1005 10.0134 21.2435 10.1955 21.4256 10.4382C21.2392 10.5509 21.0528 10.6333 20.8708 10.6896C20.6887 10.746 20.4893 10.772 20.2726 10.772C20.0429 10.772 19.8348 10.6896 19.6484 10.5293C19.462 10.3645 19.319 10.1738 19.2236 9.95275C19.1543 9.61899 19.1066 9.29389 19.0849 8.97312C19.0589 8.65236 19.0502 8.28392 19.0502 7.85913C19.0502 7.81578 19.0589 7.50369 19.0719 6.91851C19.0849 6.33334 19.0936 5.91287 19.0936 5.65279C19.0936 5.29302 19.0849 4.94625 19.0632 4.61682C19.0416 4.28738 19.0025 3.97529 18.9505 3.68487C18.8942 3.74122 18.8378 3.82792 18.7728 3.94495C18.6818 4.11834 18.6298 4.21803 18.6168 4.24838C18.6774 4.67317 18.7208 5.09796 18.7468 5.52709C18.7728 5.95622 18.7815 6.43303 18.7815 6.95318C18.7815 7.18725 18.7815 7.54703 18.7728 8.02384C18.7641 8.50065 18.7641 8.86476 18.7641 9.1075C18.7858 9.31556 18.8118 9.63632 18.8465 10.0655C18.9245 10.6896 19.1499 11.1318 19.5314 11.3875C19.7394 11.4785 19.9562 11.5219 20.1859 11.5219C20.4763 11.5219 20.7624 11.4612 21.0398 11.3398C21.3172 11.2185 21.5947 11.0581 21.8721 10.8544C22.1625 11.0884 22.3879 11.2531 22.5483 11.3442C22.7997 11.4915 23.0511 11.5739 23.3068 11.5956C23.6059 11.5956 23.8877 11.5132 24.1608 11.3442C24.4815 11.1448 24.8196 10.7893 25.1794 10.2822L25.2531 10.6766C25.3701 10.8934 25.5522 11.0321 25.7949 11.1014C25.9423 11.1448 26.1764 11.1621 26.5015 11.1621C26.8699 11.0321 27.13 10.811 27.2817 10.5076C27.4074 10.2648 27.4681 9.93975 27.4681 9.52796C27.4681 9.30689 27.4117 8.80407 27.3034 8.01951C27.2557 7.6814 27.2297 7.40399 27.2297 7.19593C27.221 7.13958 27.1603 6.82315 27.0433 6.25097C26.9653 5.8782 26.9306 5.5661 26.9306 5.31469C26.9306 5.21933 26.9306 5.14564 26.9393 5.09796C26.9999 5.12397 27.0693 5.17598 27.1473 5.25401C27.2513 5.36671 27.312 5.4274 27.3337 5.4404L27.3771 5.37972V5.37538ZM20.1252 4.82488C20.0819 4.82488 20.0559 4.85089 20.0429 4.89857C20.0299 4.94625 20.0168 4.9766 19.9995 4.98093C19.8955 4.92458 19.8435 4.82922 19.8435 4.69051C19.8435 4.62983 19.8521 4.54313 19.8738 4.43043C19.8955 4.31773 19.9041 4.24838 19.9041 4.2137C19.8261 4.39575 19.7828 4.51278 19.7698 4.56913C19.7351 4.68617 19.7178 4.81187 19.7178 4.94191C19.7178 4.96792 19.7178 5.01561 19.7264 5.07629C19.7871 5.202 19.8478 5.26701 19.9041 5.27568C19.9822 5.241 20.0299 5.18899 20.0515 5.1153C20.0732 5.04161 20.0949 4.94625 20.1252 4.82922V4.82488ZM25.7949 12.2198C25.8166 12.2761 25.8166 12.3325 25.7949 12.3845C25.7732 12.4408 25.7082 12.5319 25.5955 12.6662C25.5392 12.6576 25.5002 12.6316 25.4698 12.5795C25.4438 12.5275 25.4265 12.4755 25.4265 12.4192C25.4135 12.3021 25.4265 12.1764 25.4785 12.0464C25.4915 12.0117 25.5478 11.899 25.6432 11.7126C25.6085 11.808 25.5825 11.886 25.5695 11.9467C25.5565 12.0074 25.5478 12.0681 25.5478 12.1374C25.5478 12.2328 25.5782 12.3195 25.6432 12.3975C25.6779 12.3888 25.7039 12.3671 25.7256 12.3281C25.7472 12.2891 25.7689 12.2544 25.7862 12.2198H25.7949ZM20.0645 7.92414C20.0082 8.04118 19.9692 8.12354 19.9388 8.17555C19.8825 8.26658 19.8305 8.33593 19.7828 8.38361C19.9085 8.20156 19.9692 7.99783 19.9692 7.7681C19.9692 7.49935 19.8955 7.24361 19.7524 7.00953C19.7394 6.96619 19.7524 6.91851 19.7958 6.86216C19.8391 6.80581 19.8608 6.77547 19.8695 6.7668C20.0342 6.96619 20.1209 7.22627 20.1209 7.53836C20.1209 7.6554 20.1035 7.78543 20.0689 7.92414H20.0645ZM17.5374 4.98093C17.5374 4.98093 17.4811 4.95059 17.4334 4.90724C17.3857 4.85089 17.3467 4.82055 17.3207 4.81188C17.0693 5.16732 16.7702 5.47941 16.4148 5.74816C16.094 5.99956 15.7342 6.20763 15.3311 6.37234C15.6649 6.17728 15.9813 5.95622 16.2891 5.70481C16.6488 5.40572 16.9566 5.1023 17.2037 4.79021C17.1777 4.73386 17.0953 4.66017 16.9609 4.56047C16.8266 4.46511 16.7572 4.37841 16.7572 4.30039C16.7572 4.25271 16.7875 4.18769 16.8526 4.101C16.9566 3.96229 17.0823 3.86259 17.2253 3.79757C17.3077 3.7759 17.3771 3.79758 17.4334 3.84959C17.4898 3.90594 17.5244 3.97963 17.5374 4.07933C17.4811 4.16168 17.4551 4.24404 17.4551 4.31773C17.4551 4.37842 17.4811 4.45644 17.5374 4.54747C17.5938 4.63849 17.6198 4.71218 17.6198 4.7642C17.6198 4.82488 17.5938 4.89424 17.5374 4.97226V4.98093ZM17.1517 6.72779C17.1517 6.72779 17.1126 6.7928 17.078 6.87949C17.0433 6.96619 16.9956 7.00953 16.9306 7.00953C16.8526 6.92718 16.8179 6.81881 16.8179 6.68877C16.8439 6.52839 16.8742 6.36801 16.9002 6.21196C16.8222 6.37235 16.7745 6.48071 16.7529 6.54573C16.7095 6.67144 16.6922 6.78847 16.6922 6.90117C16.6922 6.91417 16.7009 6.96619 16.7139 7.05288C16.7269 7.13958 16.7572 7.20893 16.7962 7.26528C16.8439 7.29128 16.8959 7.29129 16.9479 7.26094C16.9999 7.2306 17.0346 7.19159 17.0563 7.15258C17.078 7.10923 17.104 7.05722 17.1343 6.99653C17.1647 6.93585 17.182 6.88383 17.182 6.84048C17.182 6.80581 17.1733 6.77113 17.1517 6.73645V6.72779ZM23.3935 12.2935C23.2548 12.4192 23.1291 12.5189 23.0207 12.6012C22.908 12.6792 22.7867 12.7529 22.648 12.8136C22.5093 12.8743 22.3792 12.922 22.2622 12.9523C22.1452 12.9827 22.0151 13 21.8764 13C21.807 13 21.742 12.9957 21.677 12.9827C21.6163 12.974 21.547 12.9436 21.4733 12.896C21.3996 12.8483 21.3649 12.7833 21.3649 12.6966C21.3649 12.6532 21.3779 12.6099 21.3996 12.5665C21.4256 12.5232 21.4689 12.4538 21.5296 12.3628C21.5903 12.2718 21.6553 12.1981 21.716 12.1461C21.6597 12.1114 21.6207 12.0854 21.5903 12.0637C21.5643 12.042 21.5296 12.016 21.495 11.9814C21.495 11.8903 21.5383 11.7993 21.6207 11.6996L21.8504 11.4699C21.9414 11.4699 21.9978 11.4915 22.0151 11.5306C22.0238 11.5739 22.0108 11.6129 21.9804 11.6563C21.9501 11.6996 21.9198 11.7386 21.8937 11.782C21.8721 11.782 21.8504 11.7603 21.8331 11.7213C21.8114 11.6779 21.7854 11.6693 21.7507 11.6909L21.677 11.7516C21.7117 11.8123 21.7637 11.86 21.8374 11.886C21.9111 11.912 21.9631 11.9337 21.9978 11.9467C22.1018 11.8903 22.2058 11.834 22.3099 11.782C22.2969 11.886 22.1668 12.0074 21.9241 12.1504C21.6813 12.2935 21.56 12.4062 21.56 12.4885C21.56 12.5709 21.625 12.6532 21.7594 12.7269C21.8417 12.7486 21.9241 12.7573 22.0108 12.7573C22.2275 12.7573 22.4659 12.6966 22.7303 12.5795C23.1378 12.3932 23.3632 12.2935 23.3979 12.2891L23.3935 12.2935ZM14.9063 3.86693C14.8153 4.15301 14.6766 4.40008 14.4902 4.61682C14.2691 4.87256 14.0264 5.02428 13.762 5.07629C13.5799 5.09797 13.4065 5.11964 13.2331 5.13698L13.7966 4.85522C14.0264 4.73819 14.2128 4.62116 14.3602 4.49979C14.0914 4.47378 13.8227 4.4391 13.5582 4.40442C13.3242 4.40442 13.1335 4.46077 12.9947 4.56913C13.0424 4.27871 13.1725 4.07499 13.3805 3.96229C13.5886 3.84959 13.8487 3.78891 14.1608 3.78891C14.2778 3.78891 14.3948 3.79757 14.5075 3.81057C14.6202 3.82358 14.7546 3.84092 14.9063 3.86259V3.86693ZM11.9848 4.52145C12.0064 4.63849 11.9934 4.75553 11.9414 4.86389C11.8937 4.97659 11.8157 5.06328 11.7117 5.13264C11.6553 5.12397 11.612 5.09796 11.5773 5.04595C11.5426 4.99393 11.5166 4.93758 11.5036 4.88123C11.4906 4.82054 11.482 4.75986 11.482 4.69051C11.482 4.5518 11.4993 4.43043 11.534 4.3264C11.5686 4.22237 11.6293 4.101 11.7117 3.96229C11.69 4.04031 11.6683 4.13568 11.651 4.25705C11.6293 4.37842 11.6207 4.45644 11.6207 4.49111C11.6207 4.58214 11.6293 4.64716 11.6467 4.69484C11.664 4.73819 11.6987 4.79454 11.755 4.85522C11.8157 4.84655 11.8591 4.79888 11.8851 4.70351C11.9111 4.60815 11.9414 4.54746 11.9848 4.52145ZM13.8357 7.06155C13.801 7.10489 13.7533 7.20026 13.6883 7.35197C13.6276 7.50369 13.5539 7.61205 13.4716 7.67273C13.3805 7.64673 13.2765 7.59038 13.1595 7.50802C12.9861 7.39099 12.8864 7.32596 12.856 7.30863C12.856 7.19593 12.8994 7.07456 12.9817 6.94452C13.0164 6.88817 13.0988 6.7798 13.2331 6.61075C13.3285 6.63676 13.4325 6.69744 13.5366 6.7928C13.6406 6.88817 13.7403 6.97486 13.84 7.05722L13.8357 7.06155ZM17.8842 12.0464C17.8235 12.0811 17.7455 12.1764 17.6588 12.3325C17.5721 12.4885 17.4941 12.5665 17.4247 12.5665C17.3771 12.5665 17.325 12.5405 17.2687 12.4928C17.26 12.4842 17.1733 12.4235 17.0086 12.3065C16.9046 12.2284 16.8526 12.1591 16.8526 12.0897L17.299 11.5392C17.4291 11.6303 17.5678 11.7213 17.7065 11.808C17.7975 11.886 17.8539 11.964 17.8842 12.0464ZM14.9497 9.62332C14.9497 9.77503 14.9063 9.91374 14.824 10.0394C14.7676 10.0524 14.7286 10.0481 14.6983 10.0308C14.6722 10.0091 14.6246 9.93975 14.5639 9.82271C14.5422 9.74036 14.5335 9.658 14.5335 9.58431C14.5335 9.48895 14.5465 9.38925 14.5682 9.28955C14.5942 9.18985 14.6246 9.09016 14.6679 8.9948C14.6549 9.1075 14.6462 9.21587 14.6462 9.32857C14.6462 9.4326 14.6592 9.51929 14.6809 9.59298C14.7069 9.66667 14.7503 9.71868 14.8196 9.75336C14.8456 9.74469 14.863 9.71868 14.8716 9.67534C14.8803 9.63199 14.902 9.61465 14.9453 9.62766L14.9497 9.62332ZM17.6848 7.06589C17.5331 7.23927 17.4551 7.456 17.4551 7.71174C17.5114 8.06718 17.5678 8.41396 17.6328 8.76073C17.4334 8.87343 17.2947 8.94278 17.2253 8.96879C17.078 9.02514 16.9306 9.05115 16.7789 9.05115C16.7442 9.05115 16.6965 9.05115 16.6402 9.04248C16.5795 9.03381 16.5231 9.0208 16.4668 8.99913C16.2934 8.99913 16.1677 8.9081 16.094 8.73038C16.0507 8.63502 15.9986 8.48331 15.9293 8.28392C15.8253 8.38795 15.7559 8.49198 15.7169 8.60034C15.6779 8.70871 15.6605 8.82575 15.6605 8.94712C15.6605 9.06415 15.7472 9.38925 15.9206 9.92674C15.9986 10.1608 16.0333 10.3602 16.0333 10.5206C15.7342 10.8934 15.3311 11.2098 14.8153 11.4655C14.5249 11.6129 14.0437 11.7906 13.3675 12.0074C13.0814 12.055 12.8604 12.0897 12.7 12.1114C12.5396 12.1331 12.3706 12.1417 12.1885 12.1417C11.8417 12.1417 11.5383 12.0897 11.2739 11.9857C11.0095 11.8817 10.7884 11.6996 10.6064 11.4352C10.5023 11.3095 10.4286 11.1751 10.381 11.0234C10.3376 10.876 10.3116 10.707 10.3116 10.5206C10.3116 10.3906 10.3159 10.2865 10.3289 10.2085C10.3419 10.1305 10.3636 10.0091 10.407 9.84439C10.4503 9.80104 10.485 9.69267 10.5197 9.51495C10.5543 9.33723 10.654 9.27221 10.8231 9.31122C10.9835 9.2202 11.1048 9.08582 11.1915 8.91244C11.2782 8.73472 11.3216 8.47031 11.3216 8.11487C11.2956 8.16255 11.2652 8.21023 11.2392 8.24924C11.1569 8.37494 11.1048 8.44863 11.0832 8.46597C11.0051 8.544 10.9315 8.56567 10.8534 8.53966C10.7494 8.42262 10.6757 8.30125 10.628 8.17988C10.5847 8.05851 10.5587 7.92848 10.5587 7.78977C10.7451 7.21326 10.9358 6.63676 11.1309 6.06459C10.8101 6.49372 10.5847 6.84048 10.446 7.1049C10.2162 7.53403 10.1035 7.92414 10.1035 8.27091C10.1035 8.4573 10.1382 8.63936 10.2119 8.81274C10.2856 8.98613 10.394 9.14651 10.5413 9.28955C10.4026 9.57563 10.3029 9.80537 10.2379 9.98743C10.1556 10.2215 10.0862 10.4729 10.0299 10.7373C10.0082 10.876 9.99951 11.0104 9.99951 11.1448C9.99951 11.3962 10.0472 11.6303 10.1382 11.847C10.2292 12.0637 10.3723 12.2501 10.5587 12.4018C10.7927 12.5839 11.0398 12.7139 11.2956 12.7919C11.5513 12.87 11.8287 12.9133 12.1278 12.9133C12.5699 12.9133 13.0468 12.8309 13.5539 12.6619C13.9484 12.5319 14.3732 12.3455 14.824 12.1114C15.3008 11.938 15.6779 11.6172 15.9466 11.1534C16.1677 10.7807 16.3194 10.3125 16.3931 9.74903C16.4755 9.77503 16.5621 9.79237 16.6532 9.79237C16.8005 9.79237 16.9479 9.76203 17.0953 9.69701C17.2427 9.63632 17.3901 9.5713 17.5288 9.51062C17.6805 9.37191 17.7888 9.21587 17.8582 9.03815C17.9232 8.86043 17.9579 8.66103 17.9579 8.43997C17.9579 8.2319 17.9319 8.0065 17.8755 7.75942C17.8192 7.51235 17.7542 7.28262 17.6761 7.06589H17.6848ZM13.762 9.3329C13.7706 9.41092 13.749 9.48461 13.7013 9.56263L13.3979 9.38491C13.2592 9.80104 13.1248 10.2172 12.9904 10.6333C12.9341 10.4816 12.882 10.3385 12.8344 10.2128C12.7867 10.0828 12.713 9.92241 12.6176 9.72735L12.5569 9.84005C12.5006 9.81838 12.4442 9.7967 12.3792 9.76636C12.3185 9.74035 12.2925 9.68834 12.3055 9.61899C12.3185 9.53663 12.3315 9.46727 12.3402 9.41526C12.3489 9.36324 12.3749 9.31989 12.4182 9.28522C12.6003 9.3329 12.726 9.46294 12.804 9.671C12.882 9.87906 12.9557 10.0785 13.0338 10.2735C13.0684 10.2042 13.1074 10.0394 13.1465 9.77503C13.2158 9.36758 13.3545 9.15084 13.5626 9.12917C13.5843 9.15518 13.6189 9.18986 13.6666 9.22453C13.7143 9.25921 13.7446 9.29389 13.762 9.32857V9.3329ZM17.3424 4.43476V4.30906C17.351 4.24838 17.3337 4.19636 17.2904 4.15301C17.247 4.10967 17.1993 4.09233 17.143 4.09233C17.0953 4.09233 17.039 4.11834 16.9783 4.16602C16.9913 4.2267 17.0476 4.28305 17.1517 4.3264C17.2514 4.36974 17.3164 4.40875 17.3424 4.43476ZM22.8257 9.53229C22.6957 9.62332 22.5613 9.71435 22.4312 9.80104C22.3012 9.89207 22.1755 9.96576 22.0585 10.0178L21.508 9.40225C21.7984 9.40225 22.0411 9.41092 22.2362 9.42826C22.4312 9.4456 22.6263 9.48027 22.83 9.52796L22.8257 9.53229Z" fill="currentColor"/>
</svg>
