<svg width="40" height="16" viewBox="0 0 40 16" fill="none" xmlns="http://www.w3.org/2000/svg">
<path fill-rule="evenodd" clip-rule="evenodd" d="M32.3605 8.82496C32.3605 9.24791 32.327 9.65411 32.2558 10.0477C32.1846 10.4414 32.0757 10.8225 31.9292 11.1993C32.0045 10.7764 32.038 10.3241 32.038 9.84254C32.038 9.56197 32.0213 9.26046 31.9878 8.93802L31.4141 3.86265C31.4015 3.82914 31.3931 3.7747 31.3931 3.70351C31.3931 3.59045 31.4266 3.47739 31.4936 3.36014C31.5606 3.24708 31.6444 3.13819 31.7449 3.03769C31.8035 3.19263 31.8957 3.41458 32.0171 3.69934C32.2181 4.17672 32.3312 4.55779 32.3605 4.84673L31.9794 4.32328L31.9082 4.44473L32.3605 8.82496ZM28.2189 3.65746C28.2273 3.69933 28.2106 3.7412 28.1771 3.78308C28.1436 3.82496 28.1017 3.87102 28.0472 3.91709C27.1302 4.24372 26.6235 4.42798 26.5313 4.46148C25.9953 4.66249 25.4928 4.86768 25.0238 5.07287C25.0238 4.88024 25.1369 4.74624 25.3672 4.67086C25.7148 4.56198 25.9074 4.49498 25.9409 4.46985C26.6988 4.20185 27.4568 3.92965 28.2231 3.65746H28.2189ZM27.6075 5.54607L27.528 5.79732C27.461 5.77219 27.394 5.7387 27.327 5.7052C27.2851 5.7052 27.2642 5.7345 27.2558 5.79732C27.2558 6.01088 27.2432 6.19934 27.2223 6.35847C27.1972 6.5176 27.1553 6.68509 27.0967 6.86097C27.0297 6.79397 26.9501 6.66416 26.8538 6.47572C26.7617 6.28309 26.6779 6.14909 26.6025 6.06952C26.5816 6.12396 26.5565 6.14909 26.523 6.14909C26.4643 6.12815 26.4141 6.11558 26.3806 6.10721C26.3555 6.11558 26.3303 6.1072 26.3052 6.08626C26.2801 6.06532 26.2591 6.04439 26.2382 6.02764C26.2382 5.82664 26.3094 5.66751 26.4476 5.54607C26.5732 5.6047 26.6905 5.72613 26.7993 5.9062C26.8873 6.06114 26.9752 6.2119 27.0715 6.35847C27.0967 6.13652 27.1302 5.95646 27.1678 5.80989C27.2055 5.66751 27.2684 5.54187 27.3647 5.433C27.507 5.42043 27.5866 5.45813 27.6075 5.54188V5.54607ZM25.3756 6.83166C25.3756 6.91959 25.3504 7.00335 25.3044 7.08711C25.2583 7.17086 25.1955 7.22948 25.1117 7.26298C25.0029 7.26298 24.9317 7.25461 24.8898 7.24204C24.8479 7.22948 24.8186 7.1876 24.7977 7.1206C24.7851 6.96566 24.8019 6.81491 24.8521 6.66835C24.9024 6.52178 24.9694 6.3794 25.0573 6.24539C25.0657 6.30402 25.0489 6.39615 25.007 6.52178C24.9652 6.6474 24.9484 6.73116 24.9484 6.77723C24.9484 6.86517 24.9735 6.93636 25.028 6.99917C25.1034 7.02429 25.1662 7.01592 25.2206 6.96985C25.2751 6.92379 25.3253 6.87773 25.3714 6.82748L25.3756 6.83166ZM22.26 5.48325C22.2935 5.58375 22.2516 5.68845 22.1302 5.79314C22.038 5.8727 21.971 5.92714 21.9375 5.95227C21.8831 5.96483 21.837 5.98158 21.7952 6.00252C21.7533 6.02346 21.7156 6.01926 21.6737 5.99413C21.7072 5.95226 21.7491 5.91876 21.7952 5.89364C21.9627 5.80151 22.0506 5.75126 22.0548 5.74289C21.9668 5.70939 21.8789 5.69263 21.7826 5.69263C21.6402 5.69263 21.5146 5.73451 21.4015 5.81407C21.3931 5.76801 21.4225 5.70519 21.4853 5.62981C21.5481 5.55444 21.6193 5.50418 21.6947 5.48325C21.77 5.46231 21.8622 5.45394 21.9627 5.45394C22.0757 5.45394 22.172 5.46231 22.2558 5.48325H22.26ZM23.5079 7.39281C23.4074 7.60637 23.3362 7.74037 23.2985 7.79481C23.1896 7.94975 23.0724 8.02094 22.9467 8.00419C22.9384 7.99582 22.8295 7.93301 22.6159 7.81157C22.4903 7.73619 22.4317 7.65243 22.4442 7.55192C22.5657 7.35092 22.7206 7.17504 22.9049 7.0201C23.064 7.0871 23.1687 7.13317 23.2148 7.16248C23.3278 7.22111 23.4241 7.30068 23.5079 7.39281ZM20.0112 3.11307L19.7809 3.34339C19.0774 3.46483 18.6503 3.5402 18.4953 3.5737C18.0389 3.66583 17.6159 3.7789 17.2307 3.90452C17.2181 3.85846 17.2307 3.80402 17.2809 3.74958C17.3312 3.69515 17.3814 3.64489 17.44 3.60302C17.7332 3.54439 18.0514 3.4774 18.3948 3.40202C19.1067 3.24708 19.6427 3.15076 20.0112 3.10888V3.11307ZM26.9878 11.6474C26.7658 11.9028 26.5439 12.0997 26.3136 12.242C26.0246 12.4221 25.7441 12.5142 25.4677 12.5142C25.3211 12.5142 25.1871 12.4891 25.0657 12.4431C24.9903 12.397 24.9568 12.3174 24.9568 12.2002C24.9568 12.1541 24.9694 12.0955 24.9987 12.0285L25.3588 11.5553C25.2792 11.5134 25.2206 11.4799 25.1829 11.4506C25.1452 11.4213 25.1159 11.3836 25.0866 11.3333C25.1075 11.2245 25.162 11.1281 25.2457 11.0402C25.3044 10.9816 25.3965 10.9104 25.5179 10.8308C25.6101 10.8308 25.6812 10.8392 25.7273 10.8601C25.7734 10.8811 25.7985 10.9062 25.7985 10.9397C25.7985 10.9606 25.7901 10.9899 25.7692 11.0318L25.5975 11.191C25.6101 11.1323 25.5556 11.0821 25.4258 11.0486C25.3839 11.0695 25.3462 11.0905 25.3044 11.1198C25.3504 11.1993 25.4216 11.2621 25.5137 11.2998C25.5472 11.3124 25.6394 11.3375 25.7859 11.371C25.8278 11.3459 25.8823 11.3208 25.9576 11.2956C26.033 11.2705 26.1 11.2496 26.1586 11.2286C26.1126 11.3543 25.9367 11.4799 25.6352 11.5971C25.3337 11.7144 25.1746 11.8777 25.1536 12.0829C25.3127 12.196 25.4928 12.2546 25.6854 12.2546C25.8948 12.2546 26.1209 12.1876 26.368 12.0536C26.4895 11.9866 26.6946 11.8484 26.9794 11.6432L26.9878 11.6474ZM21.5313 7.53518C21.5062 7.62312 21.4769 7.71106 21.4518 7.79481C21.4057 7.90369 21.3429 7.97069 21.2591 8.00419C21.2005 8.01675 21.1419 7.99581 21.0874 7.94556C21.033 7.86599 20.9953 7.81155 20.966 7.78643C20.9534 7.75293 20.9451 7.71525 20.9451 7.67756V7.58543C20.9451 7.43887 20.9786 7.28811 21.0456 7.13735C21.1126 6.9866 21.1586 6.88609 21.188 6.83166C21.1754 6.88609 21.1586 6.96148 21.1377 7.06198C21.1168 7.16248 21.1084 7.23785 21.1084 7.29229C21.1084 7.47236 21.1586 7.61474 21.2591 7.71525C21.3052 7.74875 21.3596 7.7278 21.4141 7.65661C21.4727 7.58124 21.5104 7.54356 21.5313 7.53518ZM29.9024 4.94305C29.8689 4.68342 29.76 4.34841 29.5715 3.9464C29.337 3.44389 29.1946 3.12982 29.1486 3C29.069 3.11307 28.9895 3.22613 28.9183 3.34339C28.8261 3.48995 28.7759 3.61977 28.7759 3.72446C28.7759 3.8124 28.8094 3.90034 28.8764 3.98409C28.9308 4.4866 29.0104 5.05193 29.1235 5.68426C29.2323 6.3124 29.3454 6.93635 29.4543 7.55192C29.5632 8.1675 29.6511 8.73283 29.7097 9.25209C29.4627 9.46147 29.2491 9.61641 29.0648 9.72529C28.8094 9.88023 28.5665 9.98074 28.332 10.0268C28.198 10.0477 28.064 10.0561 27.93 10.0561C27.6494 10.0561 27.3856 10.01 27.1427 9.92211C26.8998 9.82998 26.6947 9.68761 26.5355 9.49498C26.971 9.2521 27.4568 9.13484 27.9928 9.13484C28.0598 8.95477 28.1059 8.82497 28.1268 8.75378C28.1519 8.6784 28.1687 8.5737 28.1812 8.43132C27.8797 8.27638 27.5405 8.15495 27.1595 8.0712C26.7826 7.98326 26.4057 7.94138 26.0288 7.94138C25.3839 7.94138 24.806 8.05444 24.291 8.28475C24.203 8.43132 24.1444 8.54858 24.1109 8.63652C24.0523 8.7789 24.0188 8.90034 24.0188 9.00921C24.0188 9.06784 24.0271 9.13065 24.0481 9.18928C24.09 9.16415 24.1486 9.11809 24.224 9.05946C24.2993 9.00084 24.3705 8.96734 24.4292 8.95896C24.5757 8.9799 24.7307 9.03434 24.8898 9.13066C24.9484 9.16416 25.0824 9.2521 25.2834 9.39029C25.1704 9.51592 25.0029 9.63317 24.7851 9.74204C24.5673 9.85092 24.3496 9.92629 24.136 9.97236C24.1025 9.98073 24.0523 9.98074 23.9853 9.98074C23.8094 9.98074 23.6461 9.94305 23.4911 9.87186C23.3362 9.79648 23.1812 9.6918 23.0305 9.54942C23.0096 9.49498 23.0179 9.43216 23.0514 9.35678C23.0849 9.2814 23.0933 9.22697 23.0807 9.1851C22.7541 9.44054 22.4275 9.69598 22.105 9.94723C22.0129 9.9598 21.9459 9.96818 21.904 9.96818C21.77 9.96818 21.6444 9.94305 21.523 9.88861C21.1419 9.4866 20.6813 8.96734 20.1452 8.33082C19.3161 7.33836 18.8638 6.80653 18.7968 6.73116C18.2943 6.15327 17.8044 5.65076 17.3312 5.21525L17.4317 5.11475C18.5163 4.85512 19.5715 4.65411 20.5975 4.5201C21.6235 4.3861 22.6578 4.31909 23.7047 4.31909C23.7173 4.34003 23.7466 4.36934 23.7968 4.41122C23.8513 4.46985 23.8638 4.53267 23.8387 4.5913C23.7466 4.7253 23.4451 5.07705 22.9426 5.64657C22.5657 6.0737 22.3102 6.44222 22.1679 6.7521C22.5824 6.30403 23.0012 5.85176 23.4241 5.39531C23.9015 4.84673 24.1737 4.32329 24.2491 3.82915C24.224 3.73702 24.1737 3.67421 24.1025 3.64909C24.0313 3.62396 23.935 3.60721 23.8178 3.60721C21.5858 3.60721 19.4501 3.8794 17.4065 4.4196C17.172 4.49917 17.0129 4.67923 16.9333 4.95142C16.9124 5.01005 16.8747 5.25712 16.8245 5.68426C16.925 5.80988 17.1846 6.12814 17.6075 6.63903C18.1687 7.31742 18.5874 7.85343 18.8555 8.24707C18.9769 8.44807 19.0983 8.6449 19.2282 8.84171C19.3077 8.96734 19.3496 9.08041 19.3496 9.17254C19.3496 9.2856 19.3077 9.37773 19.2198 9.44473C19.0606 9.55361 18.9015 9.63316 18.7508 9.6876C18.6 9.74204 18.4451 9.76717 18.2818 9.76717C18.0807 9.76717 17.9132 9.71692 17.7792 9.61642C17.7332 9.51592 17.6871 9.41123 17.6369 9.29816C17.5908 9.18928 17.5657 9.0804 17.5657 8.9799C17.5657 8.90033 17.5782 8.82914 17.6075 8.77052C17.2181 8.9464 16.8287 9.11809 16.4434 9.29397C16.2759 9.00084 16.1 8.77471 15.9116 8.61977C15.6561 8.4062 15.4007 8.31408 15.1369 8.34758C14.9275 8.46902 14.7642 8.64489 14.6427 8.8794C14.5673 9.02178 14.4836 9.23953 14.3915 9.54104C14.3663 9.6206 14.3496 9.67923 14.3496 9.71273C14.3496 9.8928 14.4501 10.0477 14.6511 10.1734C14.8102 10.2655 15.0112 10.3157 15.2541 10.3157C15.4091 10.3157 15.5556 10.299 15.698 10.2655C15.8404 10.232 15.9744 10.1901 16.1084 10.1357C16.1503 10.2948 16.0707 10.4707 15.8781 10.6591C15.7692 10.7596 15.6059 10.9146 15.3839 11.1198C15.1285 11.2998 14.8772 11.4841 14.6302 11.6725C14.1151 12.0494 13.6712 12.2337 13.3027 12.2337C13.1561 12.2337 13.0054 12.2085 12.8504 12.1541C12.6955 12.0997 12.5824 11.995 12.5154 11.8358C12.4484 11.6767 12.4107 11.4883 12.4107 11.2663C12.4107 11.0653 12.4359 10.8853 12.4819 10.7219C12.6243 10.6759 12.7499 10.6214 12.863 10.5544C12.9761 10.4916 13.1059 10.4121 13.2566 10.3199C13.466 10.1776 13.6251 10.0017 13.734 9.78812C13.8429 9.57455 13.9141 9.34003 13.9392 9.08459C13.9392 9.06365 13.9392 9.03015 13.9476 8.98409C13.9476 8.80821 13.9099 8.6407 13.8303 8.48157C13.755 8.32244 13.6503 8.18844 13.5246 8.08794L13.2943 8.59045C13.2943 8.71608 13.3194 8.86683 13.3739 9.04271C13.399 9.14321 13.4493 9.28979 13.5246 9.48661C12.93 9.77974 12.3228 10.0142 11.7072 10.1859C11.0916 10.3576 10.4677 10.4414 9.83954 10.4414C9.06065 10.4414 8.35713 10.4163 7.72899 10.3618C7.10085 10.3074 6.52296 10.1985 5.99951 10.031C6.11258 10.1441 6.22564 10.2404 6.33452 10.3241C6.4434 10.4037 6.5774 10.4874 6.73234 10.5754L7.53636 10.9983C7.79599 11.0863 8.05981 11.1449 8.32363 11.1784C8.58745 11.2119 8.86383 11.2286 9.15278 11.2286C9.28678 11.2286 9.42916 11.2286 9.5841 11.2203C9.73904 11.2119 9.87305 11.2035 9.98611 11.191C10.3421 11.1575 10.7483 11.0946 11.2131 10.9983C11.5606 10.9313 11.9459 10.8434 12.3689 10.7387C12.2809 11.0151 12.2265 11.2035 12.1972 11.3124C12.1511 11.5134 12.126 11.7144 12.126 11.9154C12.126 12.0913 12.1427 12.242 12.1762 12.3677C12.2349 12.5226 12.3228 12.6524 12.4317 12.7655C12.5405 12.8744 12.6746 12.9539 12.8295 13C13.1645 13 13.4744 12.9456 13.7633 12.8325C14.0523 12.7236 14.3412 12.5645 14.626 12.3551C14.827 12.2127 15.028 12.0494 15.2248 11.8568C15.4216 11.6642 15.7148 11.3668 16.1042 10.9564C16.2173 10.6214 16.3806 10.2697 16.5983 9.90118C16.6905 9.7923 16.8035 9.71273 16.9292 9.65829C17.0548 9.60385 17.2055 9.57035 17.373 9.55779C17.3856 9.64573 17.3982 9.78392 17.4149 9.98074C17.44 10.1399 17.5029 10.2655 17.595 10.3534C17.7206 10.4539 17.9007 10.5042 18.1268 10.5042C18.3069 10.5042 18.4786 10.4833 18.6461 10.4372C18.8136 10.3911 18.956 10.3199 19.0816 10.2152C19.2072 10.1106 19.3161 9.98911 19.3998 9.84674C19.4836 9.70436 19.5548 9.54941 19.6176 9.37353C19.6595 9.26466 19.7097 9.10971 19.7684 8.90033C19.9484 9.12228 20.2164 9.46566 20.5724 9.93467C20.899 10.3241 21.2382 10.5879 21.5858 10.7303C21.6444 10.7513 21.7072 10.7596 21.7658 10.7596C22.0087 10.7596 22.26 10.5796 22.528 10.2152C22.7206 9.95561 22.8379 9.80486 22.8714 9.77136C22.8504 9.93887 22.8923 10.1022 22.9928 10.2571C23.0933 10.4163 23.2189 10.5419 23.3655 10.634C23.4744 10.6675 23.5539 10.6884 23.6084 10.6926C23.6628 10.6968 23.7382 10.701 23.8387 10.701C24.1486 10.701 24.492 10.6005 24.873 10.3995C25.1829 10.2111 25.4928 10.0226 25.8069 9.83836C25.9534 9.95981 26.1712 10.144 26.4601 10.3911C26.7072 10.5796 26.9543 10.6968 27.193 10.7429C27.373 10.789 27.5657 10.8141 27.7667 10.8141C28.1268 10.8141 28.4744 10.7345 28.801 10.5796C29.1276 10.4204 29.4292 10.2069 29.7055 9.93049C29.7977 9.69599 29.8647 9.46147 29.8982 9.23116C29.9317 9.00084 29.9484 8.75377 29.9484 8.49413C29.9484 8.13819 29.9065 7.71943 29.827 7.23785C29.7265 6.78978 29.6302 6.34171 29.5338 5.88944C29.4208 5.37437 29.3412 4.92631 29.3035 4.55361C29.3119 4.53267 29.3245 4.49498 29.3454 4.43217C29.3663 4.36935 29.3957 4.32748 29.4375 4.30235C29.5925 4.51173 29.7474 4.71692 29.8982 4.9263L29.9024 4.94305ZM13.9434 4.34841C13.9685 4.37353 13.9853 4.40704 13.9853 4.44892C13.9853 4.48242 13.9685 4.52847 13.935 4.58291C13.9015 4.64154 13.8806 4.68761 13.8764 4.72948C13.822 4.80905 13.7591 4.85093 13.6838 4.85093C13.6419 4.85093 13.6 4.83417 13.5581 4.79649C13.5163 4.7588 13.4828 4.71273 13.4576 4.64992C13.4325 4.5871 13.4241 4.5243 13.4241 4.44892V4.31909C13.4367 4.26047 13.4451 4.2186 13.4451 4.19766C13.5372 3.98409 13.6419 3.80402 13.755 3.65327C13.755 3.69514 13.7131 3.81659 13.6335 4.02597C13.5916 4.12647 13.5749 4.20603 13.5749 4.26884C13.5749 4.39028 13.6503 4.48242 13.7968 4.54942L13.9476 4.34841H13.9434ZM16.1126 5.95645L15.9911 6.08626L15.8488 5.9062C15.6813 6.16164 15.4216 6.39614 15.074 6.60971C14.7809 6.78559 14.4836 6.9531 14.1905 7.1206C14.2826 7.03266 14.5548 6.83585 15.0029 6.52597C15.3504 6.28309 15.6059 6.05277 15.765 5.83082C15.7441 5.81826 15.6729 5.78476 15.5472 5.73033C15.4216 5.67589 15.3421 5.61306 15.3002 5.53769C15.3421 5.41625 15.4007 5.31156 15.4844 5.21944C15.5682 5.12731 15.6645 5.06868 15.7692 5.04355C15.8488 5.01005 15.9158 5.0268 15.9702 5.0938C15.9786 5.10636 16.0121 5.16919 16.0707 5.28644V5.60888C16.0707 5.70938 16.0791 5.82245 16.1 5.95227L16.1126 5.95645ZM19.961 11.505C19.9735 11.6139 19.9526 11.7186 19.9024 11.8275C19.8479 11.9364 19.7725 12.0369 19.672 12.129C19.605 12.129 19.5548 12.0955 19.5255 12.0243C19.4962 11.9531 19.471 11.8861 19.4501 11.8191C19.4501 11.4841 19.559 11.1616 19.7725 10.8559C19.7181 11.0695 19.6637 11.2873 19.6134 11.5092C19.6134 11.6432 19.6679 11.7479 19.7725 11.8191L19.9652 11.5092L19.961 11.505ZM17.7918 11.7772C17.7918 11.9112 17.7248 12.0536 17.5908 12.2002C17.5154 12.2755 17.4484 12.3467 17.3814 12.4221C17.2893 12.3802 17.2055 12.3384 17.1385 12.2923C16.8915 12.1248 16.7575 12.0369 16.7365 12.0327C16.8454 11.7772 16.9962 11.5595 17.1888 11.3794C17.4149 11.4715 17.6159 11.6055 17.7918 11.7814V11.7772ZM11.6695 7.00335C11.6109 7.11223 11.5439 7.21692 11.4727 7.3258C11.4015 7.43468 11.322 7.53518 11.2256 7.62731C11.2131 7.61475 11.0833 7.53517 10.832 7.39698C10.6645 7.30486 10.5682 7.20436 10.5389 7.10386L10.9995 6.55946L11.6612 7.00335H11.6695ZM8.84708 4.23954L8.76752 4.48242L8.41576 4.39029C8.34038 4.52429 8.29013 4.75042 8.26501 5.06449C8.23988 5.37856 8.18963 5.60888 8.12263 5.74707C8.0305 5.67169 7.94256 5.5335 7.86718 5.32831C7.79181 5.12311 7.71224 4.97656 7.63268 4.88024L7.56149 5.02262C7.56149 5.02262 7.49449 4.97237 7.40655 4.91793C7.31442 4.8593 7.26417 4.80068 7.25161 4.73367C7.27254 4.6248 7.29348 4.53685 7.31023 4.46566C7.33117 4.39447 7.37723 4.34841 7.45261 4.31909C7.62849 4.42797 7.77924 4.62479 7.90487 4.91374C7.997 5.12312 8.064 5.25713 8.10588 5.32413C8.13938 5.11475 8.18125 4.89699 8.22732 4.66248C8.27338 4.42797 8.35295 4.23953 8.45764 4.10134C8.54976 4.1139 8.62514 4.13066 8.68377 4.14741C8.74239 4.16416 8.79683 4.19766 8.85127 4.24372L8.84708 4.23954ZM10.4635 7.22529L9.93167 7.88694L9.24909 7.50587C9.30353 7.39699 9.36216 7.28812 9.42497 7.17086C9.48779 7.05361 9.55897 6.95729 9.64273 6.8861C9.76836 6.90703 9.91073 6.95729 10.0657 7.03686C10.2876 7.14992 10.4216 7.21273 10.4677 7.22948L10.4635 7.22529ZM8.54557 6.22865C8.56651 6.28309 8.56233 6.33752 8.5372 6.38777C8.51207 6.44221 8.48276 6.49247 8.45764 6.53853C8.25663 6.53853 8.08913 6.5511 7.95512 6.58041C7.82112 6.60553 7.71224 6.67253 7.63268 6.78141C7.72062 7.16248 7.80856 7.54356 7.89231 7.91626C7.90487 8.00838 7.91743 8.1005 7.93418 8.18426C7.94675 8.26801 7.95512 8.34757 7.95512 8.41876C7.95512 8.64489 7.90906 8.86265 7.81274 9.07203C7.84625 8.9799 7.863 8.86264 7.863 8.72864C7.863 8.54857 7.82531 8.33501 7.75412 8.08376C7.67874 7.87019 7.61174 7.65662 7.54474 7.43886C7.49867 7.25042 7.47355 7.09548 7.47355 6.97822C7.47355 6.80234 7.5238 6.65578 7.6243 6.53434C7.7248 6.4129 7.90068 6.31659 8.14775 6.24121C8.10169 6.20771 8.05563 6.1784 8.00537 6.15746C7.95931 6.13233 7.92162 6.12396 7.8965 6.12396C7.88393 6.12396 7.85462 6.13233 7.81693 6.14489C7.81693 6.1784 7.80437 6.19934 7.78343 6.2119C7.75831 6.22027 7.73318 6.23283 7.69968 6.24539C7.68712 6.20352 7.69968 6.15327 7.72899 6.09045C7.76249 6.02764 7.78762 5.98157 7.80018 5.95645C7.85462 5.88107 7.92581 5.84758 8.02212 5.84758C8.0975 5.84758 8.16869 5.8727 8.24407 5.92295C8.31944 5.9732 8.3697 6.01089 8.4032 6.0402C8.4702 6.09464 8.52045 6.15745 8.55395 6.23283L8.54557 6.22865ZM26.4936 8.77052L25.9828 9.06365C25.9367 9.06365 25.8864 9.03016 25.8362 8.96316C25.7859 8.89615 25.7399 8.82915 25.7022 8.76215C25.7776 8.72865 25.8697 8.7119 25.9828 8.7119C26.0581 8.7119 26.1419 8.72027 26.234 8.73283C26.3261 8.74539 26.4141 8.75796 26.4936 8.77471V8.77052ZM15.8823 5.54607C15.7692 5.50419 15.6561 5.44556 15.5514 5.36599C15.5849 5.32412 15.6226 5.30737 15.6603 5.30737C15.6938 5.30737 15.7273 5.31575 15.7608 5.33669C15.8194 5.38275 15.8613 5.45394 15.8823 5.54607ZM15.6729 9.47404C15.5849 9.50755 15.497 9.52429 15.4132 9.52429C15.1913 9.52429 14.9861 9.44891 14.8019 9.29397C14.8102 9.25209 14.8521 9.20184 14.9317 9.13484C15.074 9.1139 15.2081 9.14321 15.3421 9.22696C15.4174 9.27303 15.5263 9.35678 15.6729 9.47822V9.47404Z" fill="currentColor"/>
</svg>
