<svg width="40" height="16" viewBox="0 0 40 16" fill="none" xmlns="http://www.w3.org/2000/svg">
<path fill-rule="evenodd" clip-rule="evenodd" d="M29.4415 6.02756C29.375 6.02756 29.2894 5.95627 29.1896 5.80894C29.0518 5.60456 28.9757 5.49524 28.9615 5.47623L28.8712 5.61407C28.8712 6.06084 28.8997 6.78327 28.952 7.78137C29.0043 8.77946 29.0328 9.52567 29.0328 10.0295C29.0328 10.9325 28.8189 11.75 28.3959 12.4819C28.4957 12.2015 28.567 11.8831 28.6145 11.5314C28.6621 11.1797 28.6811 10.8137 28.6811 10.443L28.3484 4.30703C28.3103 4.15494 28.3484 3.97433 28.4719 3.76996C28.5717 3.63213 28.6383 3.53232 28.6763 3.47528C28.9567 4.12167 29.1278 4.53042 29.1896 4.70627C29.356 5.18631 29.4415 5.62832 29.4415 6.02756ZM24.7314 4.89638C24.7409 4.99619 24.7172 5.09126 24.6697 5.18631C24.6221 5.28137 24.5556 5.35742 24.47 5.4097C24.356 5.47149 24.2752 5.40969 24.2324 5.23859C24.2229 5.20057 24.2229 5.14829 24.2229 5.07699C24.2229 4.93916 24.2562 4.79183 24.3179 4.63974C24.3845 4.48289 24.451 4.3308 24.5176 4.17871C24.5176 4.24525 24.4938 4.35932 24.4415 4.52092C24.394 4.68251 24.3655 4.78707 24.3655 4.83935C24.3655 4.94391 24.3987 5.03898 24.47 5.11502C24.5366 5.12928 24.5889 5.11501 24.6221 5.05798C24.6554 5.0057 24.6934 4.95342 24.7314 4.89638ZM25.8959 3.00476C25.6155 3.09031 25.3351 3.16635 25.0499 3.2424L19.47 5.10075C19.4035 5.13877 19.3465 5.18155 19.3084 5.22433C19.2419 5.30988 19.2086 5.39068 19.2181 5.47623C20.1687 5.0865 21.2571 4.69201 22.4786 4.28802C23.5813 3.93631 24.6839 3.58461 25.7866 3.22814L25.8911 3L25.8959 3.00476ZM24.3892 6.57414C24.2989 6.77851 24.2371 6.90684 24.2086 6.94962C24.1421 7.05418 24.0423 7.16825 23.914 7.29182C23.8474 7.19201 23.7524 7.10172 23.6288 7.01616C23.5765 6.97814 23.4577 6.91159 23.2771 6.81178C23.1868 6.8498 23.1107 6.94486 23.0489 7.0922C22.9871 7.23953 22.9206 7.33935 22.8446 7.38213C22.6449 7.29182 22.5024 7.22053 22.4121 7.17776C22.2457 7.08745 22.1602 6.98763 22.1602 6.88307L22.5689 6.3365C22.8351 6.42205 23.0727 6.53612 23.2771 6.68822L23.7809 6.07034C23.8046 6.09885 23.9044 6.1749 24.0898 6.29372C24.2704 6.41254 24.375 6.50285 24.3987 6.57414H24.3892ZM18.1725 4.65874C18.1202 4.7633 18.0489 4.85362 17.9539 4.92016C17.8636 4.9867 17.7543 5.03421 17.6354 5.05798C17.5071 5.04372 17.4168 4.98194 17.374 4.87738C17.3598 4.71578 17.4026 4.54468 17.4976 4.35457C17.5261 4.29278 17.6212 4.15019 17.7828 3.92205L17.7352 4.11692C17.7638 4.06464 17.8018 4.03612 17.8398 4.03612C17.8873 4.03612 17.9396 4.06464 18.0014 4.11692C18.0632 4.1692 18.1202 4.22148 18.1725 4.26426C18.2343 4.29278 18.2628 4.34031 18.2628 4.4021C18.2628 4.44012 18.2533 4.48289 18.2343 4.53518C18.2153 4.5827 18.1963 4.63023 18.1725 4.66825V4.65874ZM22.1982 9.04087C22.1744 9.16444 22.1459 9.26901 22.1079 9.35456C22.0698 9.44011 22.0033 9.51616 21.913 9.57794C21.837 9.55418 21.7752 9.52566 21.7324 9.48764C21.6849 9.44961 21.6659 9.40209 21.6659 9.3403C21.6564 9.27851 21.6564 9.23573 21.6564 9.21672C21.6564 9.05512 21.6849 8.90304 21.7467 8.75095C21.7704 8.69867 21.8417 8.55608 21.9653 8.32794C21.9558 8.3517 21.9273 8.43726 21.8797 8.58936C21.8322 8.74145 21.8037 8.86502 21.8037 8.95532C21.8037 9.09791 21.8512 9.21198 21.951 9.28803C21.9986 9.27852 22.0413 9.24999 22.0841 9.20246C22.1269 9.15493 22.1649 9.10266 22.2029 9.05038L22.1982 9.04087ZM20.9339 6.82604L20.8674 7.06368L20.5917 6.99715C20.5299 7.11122 20.4824 7.32985 20.4444 7.64829C20.4064 7.96673 20.3398 8.18536 20.24 8.29942C20.2305 8.28992 20.1544 8.09981 20.0024 7.72909C19.9121 7.50095 19.7647 7.38689 19.5698 7.38689C19.5033 7.36312 19.4653 7.31558 19.4653 7.23953C19.4653 7.20151 19.47 7.1635 19.4843 7.13023C19.4938 7.09696 19.5033 7.05893 19.5128 7.02091C19.5223 6.98288 19.5318 6.94487 19.5508 6.9116C19.5698 6.87833 19.6079 6.85931 19.6602 6.85931C19.7885 6.90684 19.8978 7.00666 19.9786 7.1635C20.0641 7.32034 20.1402 7.46768 20.2162 7.60075C20.2448 7.55323 20.3113 7.39163 20.4111 7.11121C20.4871 6.90684 20.5822 6.76426 20.6963 6.68822C20.7723 6.69772 20.8294 6.70722 20.8626 6.72147C20.8959 6.73573 20.9197 6.769 20.9387 6.82604H20.9339ZM15.0927 4.82985C15.1164 4.88213 15.1164 4.94867 15.0927 5.02472C15.0689 5.10076 15.0356 5.1673 14.9881 5.22433C14.9406 5.28136 14.8835 5.30988 14.817 5.30988C14.779 5.30988 14.7505 5.29563 14.7267 5.26236C14.6506 5.16255 14.6126 5.04372 14.6126 4.91064C14.6126 4.79657 14.6316 4.6825 14.6697 4.56843C14.7077 4.45437 14.76 4.3308 14.8313 4.20247C14.8313 4.21198 14.817 4.27852 14.7932 4.4116C14.7647 4.54468 14.7552 4.64448 14.7552 4.71577C14.7552 4.8536 14.8027 4.95343 14.9026 5.02472C14.9501 5.02472 14.9833 5.0057 15.0119 4.96293C15.0404 4.92015 15.0689 4.87738 15.0974 4.82985H15.0927ZM27.2172 10.1008L26.5803 5.30038L26.6849 5.13878C26.7514 5.23859 26.8275 5.3384 26.9035 5.44771C26.9795 5.55228 27.0603 5.62357 27.1411 5.65208C27.1031 5.3479 26.9986 5.00095 26.8274 4.61597C26.6563 4.22623 26.4948 3.86027 26.3427 3.50856C26.2524 3.60837 26.1716 3.71768 26.1098 3.84125C26.0432 3.96482 26.0147 4.08365 26.0147 4.20723C26.0147 4.24525 26.0242 4.29278 26.0385 4.35457L26.9273 10.6853C26.7514 10.8469 26.5518 10.9468 26.3284 10.9943C26.105 11.0418 25.8341 11.0608 25.5109 11.0608H25.0071C25.1354 10.6568 25.202 10.2671 25.202 9.88687C25.202 9.64448 25.1735 9.42585 25.1212 9.23574C25.0451 9.10741 24.9691 9.00285 24.8883 8.9268C24.8075 8.85076 24.7124 8.81274 24.5984 8.81274C24.5223 8.81274 24.4558 8.82699 24.394 8.86026C24.1516 9.03611 23.9282 9.28326 23.7333 9.6017C23.5337 9.92014 23.4054 10.2243 23.3436 10.5143C23.3198 10.6188 23.3103 10.7186 23.3103 10.8089C23.3103 10.9468 23.3389 11.0656 23.4006 11.1606C22.9681 11.327 22.5546 11.4553 22.1554 11.5409C21.7609 11.6264 21.3617 11.674 20.9577 11.674C20.606 11.674 20.2638 11.6264 19.9311 11.5314C19.5984 11.4363 19.3037 11.2937 19.0518 11.1036C18.7714 10.7091 18.548 10.2006 18.3769 9.57318C18.2486 9.0171 18.1202 8.46102 18.0014 7.90969C17.8398 7.2633 17.6307 6.7405 17.374 6.34601C17.2837 6.43156 17.2172 6.54563 17.1792 6.69772C17.1554 6.8403 17.1316 6.98288 17.1126 7.12071C17.3645 7.66254 17.5214 8.00474 17.5784 8.14733C17.8351 8.78421 17.9919 9.39258 18.0442 9.96292C17.6545 10.557 17.1934 11.0323 16.6516 11.3888C16.0575 11.7833 15.4396 11.9829 14.7932 11.9829C14.6649 11.8783 14.5984 11.7452 14.5984 11.5836C14.5984 11.4553 14.6269 11.2795 14.6887 11.0608C15.0594 10.7566 15.2875 10.5665 15.3636 10.4905C15.6012 10.2481 15.7533 9.99144 15.8294 9.72528C15.8959 9.62072 15.9434 9.52566 15.9624 9.44486C15.9814 9.36406 15.991 9.26425 15.991 9.14067C15.991 9.01235 15.9149 8.68916 15.7628 8.1711C15.701 7.96673 15.6725 7.78137 15.6725 7.62453C15.6725 7.59601 15.6725 7.55323 15.682 7.50095C15.6963 7.51521 15.72 7.54848 15.7486 7.60551C15.7771 7.65779 15.8151 7.6863 15.8626 7.6863C15.8769 7.65779 15.8959 7.65304 15.9197 7.6768C15.9434 7.70057 15.9624 7.70531 15.9767 7.70056C15.8721 7.44866 15.7676 7.19676 15.6678 6.94962C15.5917 6.79753 15.4919 6.69772 15.3731 6.65494C15.2448 6.89734 15.1782 7.14448 15.1782 7.39639C15.1782 7.68631 15.2305 8.04753 15.3398 8.48003C15.3636 8.57984 15.4586 8.9268 15.625 9.53041C15.0309 10.0342 14.337 10.4952 13.5385 10.923C12.9681 11.2272 12.2172 11.5789 11.2809 11.9734C10.5204 12.2918 9.75997 12.6103 8.99951 12.9335L9.02328 13C10.1497 12.8099 11.1145 12.5865 11.9225 12.3251C12.9016 12.0066 13.7809 11.6027 14.5556 11.1179C14.47 11.4125 14.4273 11.5789 14.4178 11.6074C14.3797 11.7833 14.3607 11.9496 14.3607 12.1112C14.3607 12.1968 14.3655 12.2728 14.3797 12.3488C14.3892 12.4249 14.4035 12.4819 14.4178 12.52C14.5318 12.7624 14.7362 12.8717 15.0356 12.8527C15.6963 12.7529 16.3189 12.4867 16.894 12.0542C17.5119 11.5979 17.9301 11.0561 18.1487 10.4334C18.2105 10.7139 18.2818 10.961 18.3579 11.1701C18.4387 11.3793 18.5432 11.5741 18.6716 11.7595C18.9615 12.0257 19.2752 12.2158 19.6174 12.3298C19.9596 12.4439 20.3493 12.5009 20.7818 12.5009C21.2856 12.5009 21.856 12.4106 22.4929 12.2253C23.0109 12.0827 23.5242 11.8926 24.0328 11.6549C24.375 11.8546 24.7932 11.9496 25.2875 11.9496C25.7533 11.9496 26.1811 11.8641 26.5756 11.6977C26.8274 11.5741 26.989 11.346 27.0651 11.0038C27.1031 10.8137 27.1506 10.519 27.2124 10.115L27.2172 10.1008ZM12.6497 4.07889C12.6354 4.1787 12.6212 4.25951 12.6022 4.32605C12.5879 4.39259 12.5404 4.39733 12.4643 4.34505C12.4358 4.30703 12.3835 4.28802 12.317 4.28802C12.279 4.28802 12.2314 4.29753 12.1697 4.31179C12.0936 4.41635 12.0413 4.61122 12.0081 4.88688C11.9795 5.16255 11.932 5.35741 11.8702 5.46197C11.7942 5.40969 11.7086 5.25285 11.6183 5.00095C11.528 4.74429 11.4045 4.62072 11.2524 4.62072C11.2048 4.62072 11.1668 4.62072 11.1383 4.63022C11.0765 4.5922 11.048 4.53517 11.048 4.45913C11.048 4.40685 11.0622 4.34981 11.086 4.28802C11.1145 4.22623 11.143 4.15969 11.1811 4.08365C11.3046 4.07414 11.4092 4.15494 11.5043 4.32129C11.5993 4.48764 11.6944 4.65874 11.7942 4.83459C11.8417 4.83459 11.8797 4.77757 11.9178 4.6635C11.9463 4.44487 11.9891 4.28802 12.0366 4.20247C12.0841 4.11692 12.1602 4.03613 12.26 3.96959C12.3265 3.95533 12.4026 3.96957 12.4786 4.00284C12.5546 4.04087 12.6069 4.06939 12.6402 4.08365L12.6497 4.07889ZM12.5119 5.99429C12.4643 6.15589 12.2742 6.25095 11.932 6.27946C11.5898 6.30798 11.4187 6.42205 11.4187 6.61217C11.4187 6.67396 11.4282 6.75475 11.4425 6.84981C11.4567 6.94962 11.5328 7.22529 11.6706 7.68156C11.7372 7.90019 11.7847 8.0808 11.8084 8.21388C11.8322 8.34696 11.8417 8.48003 11.8417 8.60836C11.8417 8.75094 11.8132 8.92205 11.7514 9.12167C11.7609 9.07414 11.7609 9.01236 11.7609 8.9268C11.7609 8.7462 11.7372 8.55608 11.6944 8.35646C11.5565 7.82414 11.4235 7.29182 11.2951 6.75951C11.2951 6.55989 11.3427 6.36026 11.433 6.15588C11.4853 6.11786 11.5661 6.07984 11.6801 6.04182C11.7894 6.0038 11.913 5.96102 12.0508 5.91824C11.9748 5.8422 11.8702 5.80418 11.7419 5.80418C11.7039 5.80418 11.6468 5.81369 11.5708 5.82795L11.4805 5.91824C11.452 5.90398 11.4425 5.86597 11.4615 5.80418C11.4805 5.74239 11.4995 5.69486 11.5138 5.65684C11.528 5.61882 11.5708 5.58554 11.6326 5.56178C11.6991 5.53326 11.7419 5.51901 11.7657 5.5095C11.9083 5.48574 12.0556 5.53802 12.1982 5.65684C12.2362 5.68536 12.3408 5.79943 12.5166 5.99905L12.5119 5.99429ZM24.855 10.4667C24.855 10.4667 24.7362 10.5333 24.5698 10.6473C24.4558 10.7234 24.3512 10.7614 24.2609 10.7614C24.1991 10.7614 24.1373 10.7424 24.0803 10.7044C23.9948 10.6378 23.914 10.5618 23.8284 10.4857C23.7429 10.4097 23.7048 10.3336 23.7048 10.2576C23.7048 10.2053 23.7191 10.1578 23.7524 10.1198C23.8046 10.0152 23.8997 9.91064 24.0375 9.81083C24.1754 9.71102 24.3037 9.66349 24.4273 9.66349C24.6174 9.66349 24.7362 9.78707 24.779 10.0295C24.7932 10.077 24.8122 10.1435 24.836 10.2291C24.8598 10.3146 24.8645 10.3954 24.8598 10.462L24.855 10.4667ZM17.8065 4.73954C17.9491 4.71103 18.0252 4.66825 18.0252 4.61597C18.0252 4.5922 17.9586 4.52567 17.8208 4.4116C17.7448 4.34981 17.7067 4.29277 17.7067 4.24049C17.7067 4.21672 17.7162 4.1882 17.74 4.15018C17.6782 4.23573 17.6354 4.31178 17.6069 4.38782C17.5784 4.46387 17.5689 4.54943 17.5689 4.63974C17.5832 4.70628 17.664 4.74429 17.8065 4.74429V4.73954Z" fill="currentColor"/>
</svg>
