<svg width="40" height="16" viewBox="0 0 40 16" fill="none" xmlns="http://www.w3.org/2000/svg">
<path fill-rule="evenodd" clip-rule="evenodd" d="M28.9615 5.31223C28.9151 5.27847 28.8518 5.19831 28.7759 5.07594C28.6999 4.94936 28.624 4.86498 28.548 4.81857C28.548 5.36709 28.5902 6.09282 28.6788 6.99577C28.721 7.44303 28.7632 7.88185 28.8097 8.32067C28.8223 8.51477 28.835 8.70464 28.8518 8.88607C28.8645 9.06751 28.8729 9.23629 28.8729 9.39241C28.8729 9.83966 28.8392 10.2447 28.7675 10.6076C28.6957 10.9705 28.5691 11.3333 28.3877 11.692C28.4341 11.5696 28.4679 11.4219 28.489 11.2447C28.5101 11.0675 28.5185 10.903 28.5185 10.7468C28.5185 10.5527 28.5185 10.3924 28.5101 10.27C28.4848 9.77637 28.4679 9.51477 28.4679 9.48101L27.9615 4.39662C27.9278 4.24051 27.9109 4.10126 27.9109 3.97046C27.9109 3.78059 27.9447 3.60759 28.0164 3.45569C28.0881 3.29957 28.2021 3.1772 28.354 3.08016C28.3666 3.14767 28.489 3.50632 28.7168 4.15189C28.8772 4.61603 28.9615 5.00421 28.9615 5.30801V5.31223ZM23.5143 4.02531C23.5143 4.13502 23.4974 4.2405 23.4594 4.3502C23.4215 4.45991 23.3624 4.5443 23.2822 4.61181C23.2021 4.63712 23.1388 4.62869 23.0966 4.58228C23.0544 4.53587 23.0122 4.46835 22.97 4.37974C22.9615 4.33755 22.9615 4.28691 22.9615 4.2194C22.9615 4.05907 22.9953 3.89028 23.0628 3.71307C23.0966 3.62024 23.1388 3.5232 23.1936 3.43038C23.1725 3.48945 23.1514 3.56961 23.1345 3.66244C23.1134 3.75527 23.105 3.83966 23.105 3.90717C23.105 4.07595 23.1472 4.2194 23.2358 4.33332C23.3286 4.35442 23.3961 4.31223 23.4299 4.20675C23.4637 4.10126 23.4932 4.04218 23.5227 4.02952L23.5143 4.02531ZM21.9658 3.37552C21.9658 3.64556 21.8434 3.87763 21.6029 4.07595C21.5227 4.0886 21.4426 4.08017 21.3708 4.05063C21.2949 4.02109 21.2527 3.97889 21.24 3.92404C21.2274 3.86919 21.2189 3.81012 21.2189 3.74261C21.2189 3.6329 21.2442 3.52742 21.2907 3.41772C21.3118 3.3713 21.3666 3.27425 21.4637 3.12235C21.4637 3.13501 21.451 3.1983 21.4299 3.30379C21.4046 3.41349 21.3961 3.49367 21.3961 3.54852C21.3961 3.61603 21.4088 3.67088 21.4299 3.71729C21.4552 3.75949 21.4974 3.79746 21.5565 3.82278C21.6113 3.83122 21.6493 3.82278 21.6788 3.81434C21.7379 3.75527 21.7843 3.70886 21.8096 3.68354C21.8096 3.61603 21.759 3.54852 21.6577 3.48101C21.5565 3.4135 21.5058 3.35443 21.5058 3.29957C21.5058 3.25316 21.5227 3.20675 21.5565 3.16877C21.5902 3.14346 21.6282 3.12658 21.6662 3.12658C21.721 3.12658 21.7759 3.15611 21.8392 3.2194C21.8603 3.23206 21.9025 3.28692 21.97 3.37974L21.9658 3.37552ZM23.4257 6.10126C23.4383 6.22784 23.4257 6.31224 23.3835 6.34599C23.3413 6.37975 23.2738 6.39662 23.1725 6.39662C23.0586 6.39662 22.9784 6.40927 22.9278 6.43037C22.8814 6.45569 22.8561 6.53164 22.8561 6.65822C22.8561 6.78481 22.8476 6.89029 22.8265 6.97046C22.8054 7.05062 22.7337 7.24473 22.6156 7.54853C22.5818 7.50633 22.4805 7.31223 22.3118 6.96202C22.1978 6.7173 22.0459 6.58227 21.8561 6.54851C21.8687 6.47257 21.8814 6.40084 21.8983 6.32489C21.9236 6.24894 21.97 6.19831 22.0291 6.17299C22.1725 6.2616 22.2949 6.40928 22.4046 6.62025C22.4848 6.81012 22.5691 6.99578 22.6577 7.17722C22.7253 6.86498 22.7801 6.63713 22.8181 6.48945C22.8983 6.21097 23.0417 6.07594 23.2442 6.07594C23.2907 6.07594 23.3539 6.08438 23.4257 6.10548V6.10126ZM19.375 4.54008C19.3413 4.68776 19.316 4.78059 19.3033 4.81434C19.2611 4.92405 19.2105 5.00843 19.143 5.07594C19.067 5.07594 19.0122 5.05063 18.97 4.99577C18.9278 4.94092 18.8983 4.87342 18.8772 4.79325C18.8561 4.62447 18.894 4.43037 18.9869 4.21518C19.0333 4.10548 19.0839 3.99999 19.1388 3.89029C19.105 4.03375 19.0755 4.15189 19.0544 4.24472C19.0291 4.33755 19.0206 4.41349 19.0206 4.46835C19.0206 4.61603 19.0839 4.71729 19.2147 4.77215C19.24 4.75105 19.2653 4.71307 19.2864 4.64978C19.3075 4.58649 19.3371 4.55274 19.3793 4.54008H19.375ZM23.0712 8.83544C23.0712 8.94515 23.0586 9.03798 23.0375 9.11815C23.0122 9.19832 22.9615 9.26582 22.8814 9.32067C22.8054 9.33333 22.7464 9.31224 22.7042 9.24895C22.662 9.18988 22.6324 9.11393 22.6198 9.02532C22.6198 8.8692 22.6324 8.73418 22.6535 8.61604C22.6788 8.49789 22.721 8.38819 22.7885 8.28692C22.797 8.35443 22.7885 8.44304 22.7675 8.55696C22.7464 8.66666 22.7379 8.73417 22.7379 8.75527C22.7379 8.8692 22.7801 8.9578 22.8603 9.01687C22.9194 9.02531 22.9658 8.99578 22.9953 8.9367C23.0248 8.87763 23.0502 8.84388 23.0712 8.83544ZM27.3244 9.8481C27.1683 9.69198 26.97 9.61604 26.7253 9.61604C26.354 9.69199 25.9826 9.7595 25.6113 9.82701C25.3961 8.82279 25.2864 8.31224 25.2864 8.29958C25.2316 7.96203 25.2063 7.64979 25.2063 7.35865C25.3329 7.26582 25.5354 7.11814 25.8054 6.92405C26.2105 6.62025 26.5227 6.34599 26.7464 6.10548L26.8561 6.21519C26.932 6.04641 26.9826 5.89452 27.0164 5.75528C27.0502 5.61604 27.067 5.45148 27.067 5.26582C27.0417 5.13924 27.0037 5.05063 26.9615 5.00843C26.9194 4.96624 26.8603 4.94092 26.7928 4.94092C26.6493 4.97467 26.5312 5.0464 26.4299 5.15189C26.3961 5.18565 26.3455 5.25738 26.278 5.36286C26.2442 5.41771 26.2274 5.46835 26.2274 5.51477C26.2274 5.59072 26.2864 5.6751 26.4004 5.77637C26.548 5.90295 26.6324 5.98311 26.6535 6.00843C26.4299 6.23206 26.1978 6.43459 25.9531 6.61603C25.7421 6.77636 25.4932 6.94515 25.2021 7.12236C25.1556 6.77637 25.105 6.41349 25.0544 6.03375C25.0037 5.654 24.9784 5.32489 24.9784 5.0464C24.9784 4.95358 24.9784 4.87341 24.9826 4.81012C24.9826 4.74683 24.9911 4.67932 24.9995 4.61181L25.413 5.00843L25.4637 4.96623C25.4088 4.67088 25.3033 4.33333 25.1388 3.95358C25.0923 3.84387 24.9447 3.52743 24.6915 3C24.6113 3.06751 24.5354 3.17721 24.4679 3.33332C24.4341 3.41349 24.375 3.54008 24.2949 3.70886C24.316 3.89873 24.4088 4.50633 24.5776 5.53165C24.6999 6.27426 24.759 6.8903 24.759 7.37553C24.5776 7.48523 24.3919 7.59493 24.2063 7.70885C24.0206 7.82278 23.8603 7.92827 23.7253 8.0211C24.0755 7.90717 24.4257 7.78903 24.7801 7.66667L25.1345 9.98735C24.7548 10.1477 24.3666 10.2743 23.97 10.3671C23.5734 10.4599 23.1683 10.5021 22.7632 10.5021C22.5354 10.5021 22.316 10.4895 22.1134 10.4599C21.9109 10.4346 21.7126 10.384 21.5143 10.3165C21.3582 10.2236 21.2189 10.097 21.0881 9.94515C20.9615 9.79325 20.8603 9.63713 20.7928 9.47258C20.6831 8.89874 20.5987 8.22362 20.5396 7.44725C20.5058 6.98312 20.4637 6.27848 20.4172 5.34177C20.3708 4.40506 20.3244 3.72996 20.2864 3.31646C20.2274 3.37131 20.1683 3.43459 20.1177 3.51476C20.067 3.59071 19.9953 3.71729 19.8983 3.88607C19.9404 4.27847 19.97 4.75527 19.9953 5.32489C20.0206 5.89029 20.0459 6.45148 20.0755 7.00422C20.105 7.55696 20.143 8.0464 20.1936 8.47257C20.1852 8.51476 20.1852 8.57384 20.1852 8.65401C20.1852 8.76793 20.2147 9.0422 20.278 9.47258C20.3033 9.66245 20.3202 9.81856 20.3202 9.94936C20.3202 10.1266 20.2907 10.2911 20.2358 10.4515C20.1767 10.6118 20.0839 10.751 19.9573 10.8734C19.7632 11.0295 19.5354 11.1055 19.278 11.1055C19.202 11.1055 19.1177 11.097 19.0248 11.0759C18.8307 11.0084 18.6788 10.8608 18.5691 10.6287C18.5438 10.5612 18.4763 10.3586 18.3666 10.0211L17.9025 4.12658L17.7421 3.15612C17.6198 3.26582 17.5396 3.38396 17.4932 3.51055C17.451 3.63713 17.4257 3.78903 17.4257 3.9578C17.4257 4.07173 17.4341 4.20252 17.4552 4.34598C17.4763 4.48944 17.5016 4.66245 17.5354 4.85654L17.9826 9.65823C17.7337 9.91984 17.4299 10.1477 17.0712 10.3376C16.7885 10.4852 16.4468 10.6245 16.0501 10.7511C15.7337 10.8312 15.4383 10.8945 15.1641 10.9451C14.8898 10.9916 14.6198 11.0169 14.3497 11.0169C13.9658 11.0169 13.6071 10.9578 13.2822 10.8354C12.9531 10.7131 12.6915 10.5148 12.489 10.2363C12.3961 10.076 12.3455 9.90717 12.3455 9.72996C12.5269 9.20253 12.7126 8.67511 12.9025 8.13924C12.6746 8.52321 12.5143 8.80169 12.4257 8.97047C12.143 9.52321 11.9995 10.0422 11.9995 10.519C12.0417 10.8228 12.2147 11.0928 12.5269 11.3291C12.7759 11.519 13.067 11.6582 13.3961 11.7553C13.6451 11.7806 13.8096 11.7975 13.8856 11.8017C13.9615 11.8017 14.0501 11.8059 14.143 11.8059C14.9109 11.8059 15.6366 11.6624 16.3202 11.3755C17.0037 11.0886 17.5649 10.6793 18.0122 10.1435C18.0712 10.5612 18.1219 10.8439 18.1641 10.9958C18.2527 11.2996 18.3877 11.5443 18.5691 11.7257C18.6493 11.8059 18.7379 11.8608 18.8265 11.8945C18.9151 11.9283 19.0291 11.9409 19.1641 11.9409C19.278 11.9409 19.3877 11.9325 19.489 11.9114C19.7042 11.8692 19.894 11.7511 20.0544 11.557C20.2358 11.2405 20.4215 10.9198 20.6113 10.5949C20.8561 10.8397 21.1261 11.0084 21.4299 11.1097C21.7337 11.211 22.067 11.2616 22.4341 11.2616C22.8814 11.2616 23.4974 11.1646 24.2864 10.9662C24.835 10.8312 25.1683 10.7511 25.2907 10.7215C25.3708 11 25.4341 11.1857 25.4848 11.2869C25.5776 11.481 25.7126 11.6371 25.8814 11.7511C25.97 11.8101 26.0586 11.8565 26.1556 11.8861C26.2485 11.9156 26.3497 11.9325 26.451 11.9325C26.5649 11.9325 26.6662 11.9072 26.7548 11.8608C27.067 11.4009 27.2232 11.1646 27.2316 11.1519C27.3919 10.8692 27.4763 10.6076 27.4763 10.3713C27.4763 10.1899 27.4215 10.0084 27.316 9.83544L27.3244 9.8481ZM16.5987 4.35864C16.5987 4.48522 16.586 4.59071 16.5565 4.67088C16.5312 4.75105 16.4721 4.81434 16.3835 4.86497C16.3371 4.86497 16.2907 4.85231 16.2527 4.82278C16.2105 4.79746 16.1641 4.72995 16.1092 4.62869C16.1008 4.60337 16.1008 4.57383 16.1008 4.54852V4.48945C16.1008 4.35443 16.1219 4.22784 16.1599 4.11392C16.1683 4.09282 16.2611 3.90716 16.4426 3.55695C16.3666 3.7848 16.2949 4.01687 16.2189 4.24472C16.2189 4.35864 16.2569 4.45569 16.3286 4.54008C16.3539 4.55274 16.4046 4.56117 16.4805 4.56117C16.5143 4.49366 16.5523 4.42615 16.5902 4.35864H16.5987ZM24.9531 11.73C24.9742 11.8186 24.9615 11.903 24.9236 11.9831C24.8561 12.0717 24.8139 12.135 24.7928 12.1772C24.7464 12.1857 24.6746 12.1772 24.5734 12.1561C24.4763 12.135 24.4215 12.1266 24.4046 12.1266C24.3371 12.1266 24.2864 12.1435 24.2485 12.173C24.2105 12.2025 24.181 12.27 24.1641 12.3713C23.9067 12.5654 23.5818 12.7131 23.181 12.8059C23.0923 12.827 22.7295 12.8903 22.0881 13C22.5945 12.8312 22.97 12.7046 23.2105 12.616C23.6409 12.4599 23.9953 12.2827 24.2653 12.0802C24.2653 11.9578 24.3075 11.8439 24.3919 11.73C24.4763 11.6202 24.5776 11.5359 24.6999 11.481C24.7759 11.4684 24.835 11.5063 24.8772 11.5907C24.9194 11.6793 24.9447 11.7257 24.9531 11.7342V11.73ZM19.4426 8.78481C19.4426 8.94515 19.4383 9.04641 19.4257 9.08439C19.4172 9.12236 19.3877 9.16878 19.3413 9.21941C19.3328 9.29536 19.2822 9.32912 19.181 9.32912C19.1345 9.32912 19.0966 9.31646 19.0712 9.28692C19.0164 9.22785 18.9784 9.16034 18.9615 9.08861C18.9404 9.01688 18.932 8.94093 18.932 8.86076C18.932 8.73839 18.9658 8.59072 19.0333 8.4135C19.0333 8.40506 19.0923 8.27004 19.2147 7.99999C19.2231 8.0675 19.2063 8.1519 19.1725 8.25316C19.0923 8.51054 19.0501 8.66667 19.0501 8.7173C19.0501 8.83966 19.105 8.94093 19.2105 9.0211C19.278 9.03376 19.3286 9 19.3582 8.91984C19.3877 8.83967 19.4172 8.79324 19.4426 8.77636V8.78481ZM14.489 3.78058C14.4805 3.84809 14.4721 3.90295 14.4636 3.94092C14.4552 3.98311 14.4257 4.01687 14.3793 4.05063C14.3202 4.00422 14.2527 3.97889 14.1852 3.97889C14.1599 3.97889 14.1303 3.98734 14.105 4C13.9953 4.44726 13.894 4.88607 13.7928 5.32489C13.759 5.29113 13.662 5.09704 13.4974 4.74683C13.3835 4.49788 13.2189 4.37131 13.0122 4.37131C12.9531 4.32911 12.9193 4.27426 12.9193 4.19831C12.9193 4.15612 12.9362 4.09704 12.9658 4.02109C12.9953 3.94514 13.0122 3.88607 13.0122 3.85232C13.0375 3.81856 13.0712 3.80169 13.105 3.80169C13.1388 3.80169 13.1936 3.827 13.2653 3.88186C13.3666 3.99578 13.4636 4.16033 13.5607 4.37974C13.6366 4.55696 13.7126 4.72574 13.7928 4.89451C13.835 4.67932 13.8729 4.45991 13.9151 4.23628C13.9742 3.98734 14.0755 3.79747 14.2189 3.67089C14.3286 3.64979 14.4172 3.68354 14.4932 3.77215L14.489 3.78058ZM16.0586 5.77637C15.9826 5.9578 15.9362 6.07173 15.9151 6.12236C15.8139 6.34599 15.6999 6.51899 15.5691 6.63713V6.49367C15.489 6.48101 15.4046 6.51054 15.3202 6.59071C15.2358 6.66666 15.1556 6.74261 15.0839 6.81856C15.1261 6.94515 15.2822 7.01265 15.5607 7.01265C15.8392 7.01265 15.9742 7.07172 15.9742 7.19408C15.9742 7.25316 15.9531 7.33755 15.9151 7.43882C15.7674 7.68354 15.6535 7.86497 15.5691 7.98734C15.4215 8.20253 15.2653 8.35865 15.105 8.45147C14.9953 8.45147 14.8392 8.48523 14.6324 8.54852C14.4257 8.61182 14.278 8.64556 14.1809 8.64556C14.1388 8.63712 14.105 8.63713 14.0797 8.63713C14.3708 8.5232 14.6155 8.40928 14.8181 8.30379C15.0628 8.17721 15.2864 8.01687 15.4974 7.827C15.4426 7.77214 15.2991 7.74261 15.0628 7.73417C14.8265 7.72573 14.6746 7.65822 14.6071 7.5232C14.6873 7.14345 14.8645 6.78059 15.1388 6.4346C15.413 6.0886 15.7168 5.8692 16.0544 5.78059L16.0586 5.77637ZM14.0839 7.01265C14.0586 7.13502 14.029 7.22785 14.0037 7.29536C13.9573 7.40506 13.894 7.48945 13.8223 7.54853C13.7632 7.54853 13.7042 7.51476 13.6493 7.44725C13.624 7.4135 13.6029 7.37553 13.5944 7.33756C13.586 7.29536 13.5776 7.23628 13.5776 7.15611C13.5776 7.00843 13.5987 6.87341 13.6366 6.75105C13.6788 6.62869 13.7379 6.48523 13.8181 6.31645C13.8181 6.35865 13.8012 6.45569 13.7632 6.61603C13.7253 6.77636 13.7084 6.88185 13.7084 6.93671C13.7084 7.08439 13.7632 7.19831 13.8687 7.27004C13.8898 7.25739 13.9193 7.21518 13.9531 7.14345C13.9911 7.07172 14.0333 7.02953 14.0797 7.01688L14.0839 7.01265ZM16.5734 8.83544C16.5734 8.83544 16.5396 8.91139 16.5185 9.00844C16.4932 9.10127 16.4636 9.1519 16.4215 9.1519C16.3877 9.1519 16.3539 9.13924 16.3202 9.1097C16.1599 9.1097 16.0544 9.2616 16.008 9.56118C15.9615 9.86076 15.9151 10.0422 15.8645 10.1013C15.797 10.0253 15.7337 9.92405 15.6788 9.79324C15.6198 9.66244 15.5691 9.53586 15.5227 9.4135C15.4974 9.4135 15.4552 9.43038 15.3961 9.45992C15.3371 9.48946 15.2907 9.49789 15.2485 9.48523C15.202 9.43038 15.1767 9.36287 15.1767 9.2827C15.1767 9.21519 15.1894 9.1519 15.2105 9.09704C15.2358 9.03797 15.2696 8.9789 15.316 8.91139C15.4763 8.91139 15.5945 9.01688 15.6704 9.22363C15.7843 9.52743 15.8603 9.70041 15.894 9.73839C15.9151 9.69198 15.9447 9.51055 15.9911 9.20253C16.0333 8.89029 16.1345 8.73839 16.2907 8.73839C16.3708 8.73839 16.4679 8.77215 16.5734 8.83967V8.83544ZM26.8518 5.5232L26.8307 5.70463C26.6831 5.60337 26.5945 5.54008 26.5691 5.51054C26.5227 5.46413 26.4805 5.4135 26.4468 5.35865C26.4468 5.32489 26.4721 5.29957 26.5185 5.28691C26.5649 5.27426 26.5945 5.25738 26.6113 5.23628C26.6915 5.21519 26.7548 5.22785 26.7928 5.26582C26.835 5.30802 26.8518 5.39239 26.8518 5.51898V5.5232ZM27.0459 10.9916C27.0037 11.0464 26.9615 11.0802 26.9109 11.097C26.8603 11.1139 26.7928 11.1224 26.7126 11.1224C26.6113 11.1224 26.5312 11.1097 26.4679 11.0802C26.3244 11.0253 26.1978 10.9494 26.0839 10.8481C25.97 10.7468 25.894 10.6287 25.8603 10.4937C25.9953 10.4177 26.1514 10.384 26.3244 10.384C26.5734 10.384 26.7675 10.4557 26.9025 10.5949C27.0248 10.6878 27.0713 10.8228 27.0459 10.9916ZM24.7168 11.8945L24.5354 11.8017C24.5776 11.7679 24.6113 11.7679 24.6451 11.8017L24.7168 11.8945Z" fill="currentColor"/>
</svg>
