<svg width="40" height="16" viewBox="0 0 40 16" fill="none" xmlns="http://www.w3.org/2000/svg">
<path fill-rule="evenodd" clip-rule="evenodd" d="M28.6141 8.70458C28.6141 9.14601 28.5886 9.52801 28.542 9.85484C28.4953 10.1817 28.3934 10.5085 28.2364 10.8438C28.2703 10.7165 28.2958 10.5764 28.3085 10.4278C28.3212 10.2793 28.3297 10.1307 28.3297 9.97793C28.3297 9.62988 28.2958 9.24788 28.2279 8.82767C28.0581 7.77504 27.9732 7.12564 27.9732 6.8837C27.9138 6.36587 27.8416 5.84805 27.761 5.32598C27.6803 4.80391 27.5997 4.28184 27.5148 3.75552C27.5615 3.59423 27.6124 3.44992 27.6633 3.33107C27.7143 3.21223 27.7822 3.11036 27.8713 3.02971C28.0963 3.70883 28.3212 4.3837 28.5547 5.05858C28.4443 4.92275 28.3425 4.78268 28.2406 4.64262L28.1302 4.79542C28.1302 5.22835 28.2109 5.882 28.3764 6.75212C28.5377 7.62224 28.6226 8.27165 28.6226 8.70883L28.6141 8.70458ZM24.081 5.77165C24.081 5.86078 24.0725 5.93294 24.0555 5.99661C24.0386 6.05603 24.0004 6.1197 23.9367 6.17912C23.8942 6.18761 23.8518 6.16639 23.8051 6.1197C23.7966 6.10696 23.7669 6.06452 23.7117 5.99661C23.7032 5.94992 23.7032 5.87776 23.7032 5.78438C23.7032 5.46605 23.7966 5.1562 23.9876 4.85908C23.9876 4.927 23.9622 5.03735 23.907 5.1944C23.8518 5.35145 23.8263 5.47454 23.8263 5.55942C23.8263 5.68676 23.873 5.79711 23.9706 5.88625L24.081 5.77589V5.77165ZM23.2151 4.11206C23.2151 4.17997 23.2151 4.2691 23.2236 4.37521C23.2321 4.48557 23.2321 4.55773 23.2321 4.60017C23.2321 4.68931 23.2279 4.75297 23.2151 4.79542C23.2066 4.83786 23.1812 4.90153 23.1387 4.99066C23.1133 4.99066 23.0878 4.98217 23.0666 4.96095C23.0454 4.93973 23.0241 4.91851 23.0071 4.8888C22.8119 5.1944 22.4978 5.49151 22.0691 5.77589C21.7083 6.02207 21.3476 6.25976 20.991 6.49745C21.0844 6.3871 21.4919 6.05603 22.2134 5.5C22.5063 5.27504 22.7313 5.05009 22.8841 4.82937C22.8713 4.80815 22.7822 4.736 22.6209 4.61715C22.4936 4.52377 22.4257 4.43464 22.4257 4.35399C22.4257 4.29457 22.4766 4.22666 22.5785 4.15026C22.6336 4.09083 22.6973 4.03565 22.7779 3.98896C22.8543 3.94228 22.9307 3.91681 22.9987 3.91681C23.1133 3.91681 23.1854 3.98472 23.2109 4.12054L23.2151 4.11206ZM21.0844 3.32683C20.7194 3.42021 20.3374 3.53056 19.9469 3.65365C19.5564 3.77674 19.1744 3.89983 18.8009 4.01868C18.5971 4.08659 18.2788 4.18846 17.8416 4.32428C17.6124 4.40492 17.4257 4.48132 17.2898 4.54924C17.0394 4.69355 16.8399 4.87182 16.6999 5.08829C17.0606 4.89729 17.4851 4.71053 17.9732 4.52802C18.3552 4.3837 18.7924 4.23939 19.289 4.09083C20.0275 3.86587 20.469 3.73005 20.6048 3.68336C20.7151 3.67063 20.8043 3.63243 20.8807 3.57301C20.9571 3.51358 21.025 3.42869 21.0844 3.32683ZM22.0606 7.45246C21.9588 7.55433 21.8909 7.74109 21.8527 8.01273C21.8145 8.28438 21.7678 8.46265 21.7168 8.55178C21.6489 8.48387 21.5598 8.30136 21.4537 8C21.3985 7.85144 21.3391 7.73684 21.2712 7.65195C21.2627 7.71138 21.233 7.74533 21.1778 7.74533C21.0886 7.71986 21.0292 7.70289 20.9953 7.6944C20.9486 7.65195 20.9231 7.60102 20.9231 7.5416C20.9231 7.49491 20.9316 7.44822 20.9443 7.41002C20.9571 7.36757 20.9783 7.32088 20.9995 7.26146C21.025 7.20204 21.0759 7.17657 21.1566 7.17657C21.199 7.17657 21.233 7.1893 21.2669 7.21902C21.3476 7.32088 21.4282 7.45671 21.5004 7.63073C21.5768 7.80475 21.6447 7.97029 21.7126 8.12309C21.7338 8.08064 21.7805 7.91087 21.8484 7.60951C21.9206 7.30815 22.0776 7.15535 22.3238 7.15535C22.3917 7.17657 22.4257 7.21053 22.4257 7.25722C22.4002 7.34635 22.3832 7.41002 22.3747 7.45246C22.3493 7.4652 22.3068 7.4652 22.2474 7.44822C22.188 7.43124 22.154 7.42275 22.1413 7.42275C22.1201 7.42275 22.0946 7.43124 22.0606 7.45246ZM19.3399 5.83107C19.3399 5.94143 19.3145 6.04329 19.2593 6.14516C19.2041 6.24703 19.1319 6.33192 19.047 6.39983C18.9706 6.42105 18.9155 6.39983 18.8773 6.33192C18.8391 6.26825 18.8051 6.20458 18.7712 6.14516C18.7712 5.94992 18.7924 5.78014 18.8391 5.63583C18.8815 5.49151 19.0088 5.22411 19.2211 4.82937C19.1192 5.14347 19.0216 5.44907 18.924 5.75467C18.924 5.86927 18.9664 5.98387 19.047 6.10272C19.1065 6.10272 19.1616 6.06876 19.2083 6.00085C19.289 5.89049 19.3357 5.83531 19.3399 5.82683V5.83107ZM24.5776 11.7394C24.5903 11.82 24.5606 11.9177 24.4842 12.0365C24.4503 12.0917 24.4078 12.1469 24.3526 12.2105C24.2762 12.1978 24.2211 12.1638 24.1786 12.1087C24.1701 12.0959 24.1532 12.0577 24.1192 11.9983C24.1192 11.837 24.1574 11.663 24.2296 11.4805C24.3314 11.2683 24.4078 11.1154 24.4545 11.0136C24.4673 11.0815 24.4418 11.1961 24.3781 11.3531C24.3145 11.5144 24.2805 11.6248 24.2805 11.6842C24.2805 11.7946 24.3399 11.871 24.4545 11.9177L24.5776 11.7436V11.7394ZM17.4384 3.13158L17.2644 3.41596C16.39 3.72156 15.8807 3.89983 15.7364 3.95501C15.1718 4.16723 14.6752 4.3837 14.2381 4.60866C14.4078 4.42615 14.5903 4.27759 14.7898 4.15874C15.0827 3.97623 15.5114 3.78948 16.0844 3.59847C16.8229 3.35229 17.2771 3.19949 17.4384 3.13158ZM27.4129 8.47114C27.2898 8.24618 27.0988 8.11885 26.8314 8.08489C26.2796 7.97453 25.8892 7.63073 25.6515 7.04499C25.5623 6.83277 25.4392 6.29796 25.2737 5.43633C25.2737 5.41511 25.2482 5.27504 25.2015 5.00764C25.1888 4.93124 25.1803 4.85059 25.1803 4.76146C25.1803 4.62564 25.21 4.51528 25.2737 4.42615C25.3161 4.48132 25.3713 4.56197 25.4477 4.67657C25.5241 4.78693 25.5793 4.86333 25.6217 4.90577C25.5453 4.58744 25.435 4.25637 25.2864 3.91681C25.1973 3.72156 25.0445 3.41596 24.828 3C24.7347 3.12309 24.6583 3.27165 24.6031 3.44992C24.5819 3.50934 24.5606 3.60696 24.5309 3.7343C24.7559 4.88031 24.9808 6.02631 25.2015 7.16808C25.21 7.2275 25.2228 7.31239 25.244 7.41426C25.244 7.49491 25.1846 7.53735 25.07 7.53735C24.8408 7.66044 24.6455 7.80475 24.4927 7.97453C24.3399 8.14431 24.2083 8.33956 24.1022 8.56452C23.9324 8.91256 23.8476 9.29457 23.8476 9.71477V9.82513C23.8476 9.87182 23.8476 9.9185 23.856 9.9567C23.0326 10.1859 22.1837 10.3048 21.3094 10.3048C20.7321 10.3048 20.1761 10.2581 19.637 10.1604C19.1022 10.0671 18.5929 9.92275 18.1175 9.73175C18.0708 9.6893 17.8798 9.60441 17.5487 9.47708C17.3238 9.38795 17.2134 9.26485 17.2134 9.11205C17.2134 9.06961 17.2134 9.03565 17.2219 9.01019C17.1752 9.03565 17.1328 9.10357 17.0988 9.20968C17.0649 9.31579 17.0352 9.3837 17.0055 9.41766C16.6404 9.46435 16.2712 9.57046 15.9061 9.73175C15.5878 9.87606 15.261 10.0628 14.9299 10.3005C14.7049 10.4576 14.4715 10.6401 14.2338 10.8438C13.9919 11.0518 13.7584 11.2555 13.5377 11.4593C13.1175 11.8455 12.6124 12.1978 12.0309 12.5204C11.9503 12.5331 11.8866 12.5416 11.8357 12.5416C11.5895 12.5416 11.4112 12.444 11.2966 12.2445C11.2414 12.1171 11.216 11.9983 11.216 11.8879C11.216 11.7054 11.2924 11.4762 11.4409 11.2046C11.6235 10.865 11.7296 10.6528 11.755 10.5722C11.5428 10.8693 11.4027 11.0815 11.3263 11.2046C11.182 11.4508 11.0844 11.6842 11.0292 11.9092C11.008 12.0025 10.9995 12.1002 10.9995 12.1935C10.9995 12.3421 11.025 12.4822 11.0802 12.618C11.1353 12.7496 11.2245 12.8557 11.3433 12.9278C11.4579 12.9745 11.581 13 11.7083 13C11.7975 13 11.8611 13 11.9036 12.9915C11.946 12.983 12.0055 12.9703 12.0861 12.9491C12.3917 12.792 12.7525 12.5586 13.1642 12.2445C13.5038 11.9728 13.8476 11.7012 14.1914 11.4295C14.5861 11.1239 14.9384 10.8778 15.2525 10.6952C15.5114 10.5467 15.7788 10.4236 16.0504 10.3345C16.3221 10.2453 16.6065 10.1817 16.8909 10.1562C17.0182 10.5552 17.154 10.8735 17.2983 11.1027C17.5021 11.4338 17.7567 11.6885 18.0623 11.8582C18.1897 11.7012 18.2958 11.5017 18.3722 11.264C18.4486 11.0221 18.491 10.7759 18.491 10.5255C18.8518 10.7165 19.238 10.8523 19.654 10.9372C20.07 11.0221 20.5071 11.0645 20.9698 11.0645C21.5343 11.0645 22.1073 11.0093 22.6973 10.8947C23.283 10.7844 23.8688 10.6358 24.4545 10.4533C24.6031 10.5212 24.7559 10.5679 24.9087 10.5976C25.0615 10.6231 25.2185 10.6401 25.3841 10.6401C25.6812 10.6401 25.9825 10.5934 26.2796 10.5042C26.5768 10.4109 26.8569 10.292 27.1158 10.1435C27.362 9.79117 27.4808 9.39219 27.4808 8.95076C27.4808 8.7725 27.4554 8.61545 27.4087 8.47114H27.4129ZM18.8645 8.31834C18.8858 8.39898 18.8773 8.49236 18.8391 8.59423C18.8009 8.69609 18.7414 8.7725 18.6608 8.82767C18.6014 8.8489 18.5462 8.8489 18.4995 8.82767C18.4104 8.78523 18.3679 8.71732 18.3679 8.62394C18.3594 8.56876 18.3594 8.53056 18.3594 8.50085C18.3594 8.35654 18.3934 8.20374 18.4613 8.04245C18.508 7.92785 18.5844 7.78778 18.6863 7.62649C18.6268 7.84295 18.5674 8.05942 18.5122 8.2674C18.5122 8.37776 18.5504 8.47114 18.6226 8.55178C18.6905 8.56452 18.7457 8.54329 18.7839 8.47963C18.8263 8.39898 18.8518 8.3438 18.8645 8.31834ZM16.3263 6.40408C16.3009 6.51868 16.2499 6.63328 16.1778 6.75212C16.1056 6.86672 16.0207 6.98133 15.9189 7.08744C15.6897 6.98557 15.469 6.85823 15.2652 6.70119C15.3119 6.55263 15.3713 6.41681 15.4435 6.29372C15.5156 6.17063 15.6048 6.06452 15.7151 5.96689C15.8976 6.04754 16.0335 6.12394 16.1226 6.19185C16.1778 6.2343 16.2457 6.30221 16.3263 6.40408ZM13.5674 4.42615C13.4401 4.61715 13.3085 4.8039 13.1812 4.98642C13.0199 4.91002 12.9095 4.85908 12.8543 4.82513C12.744 4.76571 12.6506 4.69355 12.57 4.6129C12.5445 4.63837 12.4936 4.71477 12.4172 4.83786C12.3026 5.02037 12.2049 5.11375 12.1201 5.11375C12.0988 5.11375 12.0691 5.10526 12.0267 5.09253L11.6107 4.85908L11.7932 4.49406C11.8824 4.3455 11.98 4.26061 12.0903 4.23939C12.2134 4.29457 12.3026 4.33277 12.3662 4.36248C12.4808 4.41766 12.5742 4.47284 12.6421 4.52377C12.6846 4.4983 12.744 4.40493 12.8289 4.25212C12.9138 4.09932 12.9902 4.02292 13.0581 4.02292C13.1133 4.02292 13.1684 4.04839 13.2194 4.09508C13.3297 4.1545 13.4061 4.20119 13.4528 4.22665C13.5462 4.28608 13.5844 4.35399 13.5632 4.43039L13.5674 4.42615ZM15.0445 8.58149C15.0318 8.67063 15.019 8.75552 15.0021 8.83616C14.9766 8.92954 14.9257 9.00594 14.8577 9.06112C14.7898 9.06112 14.7389 9.03565 14.7007 8.98896C14.6625 8.94227 14.6328 8.87861 14.6031 8.80645C14.6031 8.35229 14.7134 7.93633 14.9299 7.56282C14.8832 7.69015 14.8365 7.83022 14.7856 7.97453C14.7389 8.11884 14.7134 8.24618 14.7134 8.34805C14.7134 8.50934 14.7601 8.65365 14.8577 8.77674C14.9044 8.77674 14.9384 8.74703 14.9554 8.69185C14.9723 8.63243 15.0021 8.59847 15.0403 8.58574L15.0445 8.58149ZM13.5674 8.43718V8.64092C13.5674 8.93803 13.542 9.17572 13.4953 9.3455C13.4274 9.58319 13.3 9.76146 13.109 9.88455C12.7015 10.1562 12.4639 10.309 12.3959 10.343C12.2177 10.4321 12.0564 10.4745 11.9078 10.4745C11.7296 10.4745 11.5683 10.4151 11.4197 10.292C11.3603 10.0968 11.3263 9.90153 11.3263 9.71053C11.3263 9.39219 11.4027 9.06112 11.5513 8.72156C11.6786 8.42869 11.8654 8.14007 12.1116 7.85569C11.8739 7.55857 11.7296 7.37606 11.6829 7.31664C11.547 7.13837 11.424 6.95586 11.3178 6.76486C11.3518 6.59508 11.3815 6.45925 11.4112 6.35739C11.4367 6.25552 11.4791 6.14516 11.5343 6.03056C11.6574 6.10696 11.7847 6.18336 11.9163 6.25976C12.0479 6.33616 12.154 6.42105 12.2389 6.51019C12.2177 6.55263 12.188 6.58659 12.1455 6.62055C12.1031 6.6545 12.0691 6.67148 12.0352 6.67148C12.0691 6.76486 12.1328 6.86672 12.2304 6.97708C12.2856 7.0365 12.3832 7.13413 12.5275 7.26146C12.7313 7.07895 12.9265 6.8455 13.109 6.56961C13.1769 6.47623 13.3255 6.22581 13.5589 5.82683C13.491 6.16638 13.4019 6.47199 13.2958 6.74788C13.1854 7.02377 13.0369 7.29117 12.8459 7.55858C13.0411 7.74109 13.1854 7.87691 13.2746 7.96604C13.4443 8.12734 13.5462 8.28438 13.5802 8.43294L13.5674 8.43718ZM16.9885 11.4211C17.0097 11.4975 17.0012 11.5654 16.9673 11.6333C16.9248 11.6885 16.8909 11.7436 16.8569 11.8073C16.8229 11.8328 16.7847 11.8497 16.7465 11.8497C16.7126 11.8497 16.6574 11.8285 16.5852 11.7903C16.5088 11.7479 16.4579 11.7309 16.4324 11.7309C16.373 11.7309 16.3263 11.7818 16.3009 11.8837C16.1184 12.1553 15.7788 12.3845 15.2822 12.5671C14.8493 12.7284 14.6116 12.8175 14.5776 12.8302C14.7134 12.7368 14.9257 12.6095 15.2185 12.4525C15.7364 12.1808 16.0759 11.9389 16.2457 11.7309C16.233 11.6757 16.2457 11.6163 16.2754 11.5484C16.2839 11.5357 16.356 11.4295 16.5004 11.2343C16.5555 11.1749 16.6107 11.1409 16.6744 11.1409C16.7423 11.1409 16.806 11.1706 16.8696 11.2258C16.9291 11.2852 16.9715 11.3489 16.9927 11.4253L16.9885 11.4211ZM23.0581 4.51528L23.0284 4.36248C23.0284 4.31579 23.0114 4.27759 22.9732 4.24363C22.935 4.21392 22.8883 4.19694 22.8374 4.19694C22.7779 4.19694 22.7355 4.22241 22.7143 4.2691C22.7567 4.32428 22.8077 4.37097 22.8713 4.40493C22.935 4.44313 22.9987 4.47708 23.0581 4.51104V4.51528ZM27.1752 9.3455C26.9715 9.50255 26.6659 9.62139 26.2584 9.70204C25.9401 9.76146 25.7448 9.8039 25.6769 9.82513C25.6897 9.73599 25.7491 9.53226 25.851 9.21392C25.9316 8.95501 25.974 8.73429 25.974 8.55178C26.0674 8.64516 26.2966 8.75976 26.6574 8.8871C26.9503 8.98896 27.1243 9.14177 27.1752 9.3455ZM25.5878 9.21392C25.3289 9.36248 25.1718 9.45161 25.1209 9.47708C24.9426 9.56621 24.7771 9.62564 24.6201 9.65959C24.4503 9.57895 24.289 9.43463 24.1404 9.2309C24.2083 9.00594 24.3272 8.80645 24.497 8.62394C24.6667 8.44567 24.8577 8.31834 25.0657 8.25042C25.1676 8.23769 25.261 8.27165 25.3416 8.35229C25.3968 8.40747 25.452 8.48387 25.5029 8.58574C25.5114 8.61969 25.5284 8.69609 25.5538 8.8107C25.5793 8.9253 25.5963 9.02292 25.5963 9.09508V9.14177C25.5963 9.16723 25.5963 9.18846 25.5878 9.20968V9.21392ZM16.7338 11.5144L16.4791 11.455C16.5004 11.4211 16.5386 11.4041 16.5895 11.4041C16.6659 11.4041 16.7126 11.4295 16.7338 11.4762V11.5187V11.5144ZM13.2491 8.95925C12.9774 9.18421 12.7652 9.34125 12.6167 9.42614C12.3662 9.57046 12.1243 9.63837 11.8951 9.63837C11.8484 9.63837 11.7847 9.62988 11.6999 9.61715C11.6404 9.52377 11.6065 9.42615 11.6065 9.33277C11.6065 9.17148 11.7126 8.9635 11.9206 8.71307C12.1837 8.39898 12.3365 8.20373 12.379 8.12309L13.2448 8.95925H13.2491Z" fill="currentColor"/>
</svg>
