<svg width="40" height="16" viewBox="0 0 40 16" fill="none" xmlns="http://www.w3.org/2000/svg">
<path fill-rule="evenodd" clip-rule="evenodd" d="M28.1922 8.05004C28.213 8.22519 28.2297 8.40033 28.2422 8.57964C28.2547 8.75896 28.2631 8.93828 28.2631 9.10926C28.2631 9.51793 28.2297 9.89324 28.1588 10.2394C28.0879 10.5855 27.967 10.9274 27.7919 11.2611C27.8711 11.0692 27.9295 10.8691 27.967 10.6647C28.0045 10.4604 28.0212 10.2394 28.0212 9.9975C28.0212 9.7181 27.9962 9.40117 27.942 9.04671C27.8878 8.69225 27.8377 8.3503 27.7919 8.01668C27.55 6.64888 27.3123 5.27689 27.0704 3.90491C27.0829 3.79649 27.1079 3.70475 27.1413 3.62552C27.1538 3.59216 27.2414 3.44621 27.3999 3.18349C27.4457 3.33778 27.5041 3.49207 27.5708 3.64219C27.6709 3.83402 27.746 3.98414 27.7919 4.08423L27.8127 4.06338C27.8127 4.17181 27.8627 4.32193 27.9587 4.51375C28.0546 4.70558 28.1046 4.85153 28.1046 4.94328C28.1046 4.98915 28.0963 5.0392 28.0754 5.09341L27.7251 4.64304L27.6542 4.75145C27.6959 5.11843 27.7543 5.51876 27.8336 5.95246C28.0462 7.15346 28.1672 7.84987 28.1922 8.04587V8.05004ZM23.9386 5.79816C23.7969 5.79816 23.6509 5.85238 23.4966 5.95663C23.3882 6.03169 23.2964 6.08174 23.2172 6.1151C23.0295 6.13595 22.9128 6.05254 22.8669 5.86489C22.8586 5.82319 22.8586 5.76481 22.8586 5.68557C22.8586 5.55213 22.8752 5.41868 22.9044 5.28941C22.9336 5.16013 22.9587 5.05587 22.9795 4.98498H23.0295C23.017 5.08506 23.0045 5.18099 22.9878 5.26856C22.9753 5.3603 22.967 5.41868 22.967 5.4437C22.967 5.61884 23.0212 5.73979 23.1255 5.81485C23.2798 5.83987 23.384 5.79399 23.4466 5.67305C23.4549 5.62718 23.4549 5.55629 23.4466 5.46454C23.4382 5.3728 23.4382 5.30191 23.4382 5.25604C23.4382 5.10174 23.4799 4.99749 23.5675 4.94745C23.5592 5.06838 23.5592 5.15596 23.5592 5.21851C23.5592 5.31025 23.5717 5.38531 23.5925 5.43952C23.6175 5.49374 23.6592 5.53127 23.726 5.56046H23.8469C23.8469 5.51459 23.8386 5.44786 23.8177 5.36029C23.7969 5.27272 23.7885 5.206 23.7885 5.16013C23.7885 5.0809 23.8135 5.01001 23.8677 4.95162C23.9094 5.07256 23.9428 5.17681 23.9678 5.26021C23.9928 5.34778 24.0095 5.43536 24.0095 5.51876C24.0095 5.61884 23.9845 5.71059 23.9386 5.79816ZM24.1888 3.22518C24.1221 3.26688 24.0596 3.2919 24.0054 3.30441C23.947 3.31692 23.8886 3.32944 23.8302 3.34612L19.168 5.10592C19.0762 5.17264 18.9762 5.23936 18.8761 5.31025C18.776 5.38114 18.7176 5.46037 18.7051 5.55629C19.2848 5.31442 19.8727 5.07255 20.4732 4.82651C21.0696 4.58047 21.6534 4.35113 22.2205 4.13428C22.8544 3.89241 23.4507 3.68807 24.0137 3.51292C24.0804 3.45871 24.118 3.42952 24.1221 3.42118C24.1888 3.34611 24.2139 3.2794 24.193 3.22102L24.1888 3.22518ZM20.2439 3.92577C20.223 4.0342 20.2064 4.13428 20.1938 4.23436C20.1521 4.3678 20.0729 4.45121 19.952 4.48457C19.9061 4.49291 19.8644 4.48457 19.831 4.45538C19.7727 4.3678 19.731 4.30942 19.7101 4.27606C19.7018 4.20934 19.7018 4.15929 19.7018 4.12593C19.7018 3.83819 19.7768 3.58799 19.9311 3.37531C19.9103 3.44203 19.8894 3.52126 19.8644 3.60884C19.8394 3.70058 19.831 3.77564 19.831 3.84236C19.831 3.98415 19.8727 4.09675 19.952 4.18432C20.0312 4.20517 20.0896 4.18432 20.1271 4.1176C20.1647 4.05504 20.2022 3.98832 20.2439 3.9216V3.92577ZM22.0245 6.39867C22.0245 6.49875 22.0037 6.60299 21.9662 6.71559C21.9245 6.82401 21.8619 6.90326 21.7743 6.94913C21.7201 6.95747 21.6742 6.93661 21.6325 6.89074C21.5992 6.82402 21.5742 6.77815 21.5617 6.74896C21.5617 6.37364 21.6451 6.02752 21.8119 5.70642C21.766 5.91493 21.7201 6.11926 21.6701 6.32777C21.6701 6.46121 21.7118 6.56964 21.791 6.64888C21.8452 6.64054 21.8911 6.603 21.9328 6.52794C21.9745 6.45288 22.0037 6.41118 22.0245 6.39867ZM19.3515 3.1668C19.3723 3.20016 19.3515 3.24186 19.3014 3.29608C19.2472 3.35029 19.218 3.38782 19.2097 3.41701C18.3673 3.69641 17.8961 3.85905 17.7877 3.89658C17.2414 4.08841 16.7576 4.27606 16.3406 4.4512C15.9236 4.62635 15.4899 4.8432 15.0437 5.09758C15.3023 4.74312 15.8277 4.42619 16.6159 4.14679C17.183 3.94662 17.5416 3.80483 17.6959 3.7256C18.2422 3.53794 18.7927 3.35029 19.3473 3.1668H19.3515ZM19.2514 6.62802C19.2639 6.71559 19.2431 6.80316 19.193 6.89908C19.1138 7.0075 19.0554 7.08674 19.022 7.14095C18.9303 7.21601 18.8385 7.27022 18.7468 7.30775C18.6551 7.34529 18.5633 7.35362 18.4716 7.33277C18.359 7.27439 18.3006 7.17431 18.3006 7.03252C18.3006 6.98665 18.3089 6.93662 18.3298 6.8824C18.384 6.73645 18.4215 6.62385 18.4507 6.55296C18.5049 6.41117 18.5717 6.3236 18.6509 6.2819C18.5925 6.46122 18.5508 6.58215 18.53 6.64888C18.5091 6.71143 18.5008 6.7698 18.5008 6.82402C18.5008 6.89908 18.5133 6.95746 18.5341 7.00333C18.5591 7.0492 18.6009 7.07423 18.6676 7.07423C18.7093 7.07423 18.7677 7.05754 18.8469 7.02001C18.9261 6.98248 18.9762 6.96163 18.997 6.95329L19.0679 6.8824C19.0345 6.80317 18.972 6.72811 18.8761 6.66139C18.8344 6.63637 18.751 6.58632 18.6259 6.51126L18.7677 6.26104C18.8594 6.28606 18.9553 6.33194 19.0471 6.39449C19.1388 6.45704 19.2055 6.53628 19.2472 6.62802H19.2514ZM25.6067 11.1234C25.615 11.2027 25.5984 11.2861 25.5567 11.3736C25.4816 11.5279 25.4482 11.6072 25.4482 11.6155C25.3481 11.7073 25.2397 11.7448 25.1271 11.7239C25.1271 11.6989 25.1271 11.6739 25.123 11.6531C25.123 11.6322 25.1104 11.6197 25.0979 11.6113C25.0646 11.6864 25.027 11.7448 24.9895 11.7907C24.9311 11.8657 24.8644 11.9033 24.7893 11.9116C24.6559 11.8032 24.5225 11.7531 24.389 11.7531C24.2431 11.7531 24.0888 11.8199 23.9303 11.9533C23.6843 12.1535 23.4382 12.3578 23.188 12.5621C23.1296 12.5872 23.0087 12.6497 22.8294 12.7415C22.5708 12.8832 22.354 12.9666 22.1872 13C22.3665 12.9249 22.5625 12.8165 22.7668 12.6706C22.8544 12.6122 23.0379 12.4662 23.3215 12.2369C23.605 12.0075 23.826 11.8407 23.9887 11.7364C24.1471 11.6322 24.3014 11.553 24.4474 11.4904C24.5058 11.4821 24.5933 11.5113 24.7059 11.5696C24.781 11.6113 24.831 11.628 24.8561 11.628C24.9103 11.628 24.9603 11.603 25.0062 11.5571C25.0396 11.4654 25.0646 11.3987 25.0813 11.3611C25.0979 11.3236 25.1271 11.2902 25.1647 11.2569V11.5071C25.2647 11.4946 25.3481 11.4445 25.4149 11.357C25.4816 11.2694 25.5441 11.1902 25.6067 11.1151V11.1234ZM17.8919 5.16847C17.8502 5.08924 17.8044 5.02669 17.746 4.97664C17.6876 4.93077 17.625 4.91826 17.55 4.93494C17.4749 5.05587 17.4249 5.19766 17.3998 5.36447C17.3873 5.52293 17.3748 5.6814 17.3581 5.83569C17.3498 5.82735 17.2622 5.66472 17.0871 5.34362C17.0329 5.24354 16.962 5.15179 16.8786 5.06421C16.8369 5.04336 16.8119 5.03502 16.7993 5.03502C16.7576 5.03502 16.7326 5.05588 16.7201 5.09341C16.7201 5.11843 16.7118 5.16013 16.6909 5.21435C16.6492 5.31443 16.6325 5.38114 16.6325 5.4145C16.6325 5.46872 16.6576 5.51459 16.7034 5.55629C16.7285 5.56463 16.7785 5.58132 16.8536 5.60634C16.8869 5.60634 16.9036 5.58131 16.9036 5.53544C16.9953 5.69391 17.0954 5.85654 17.1955 6.01501C17.2539 6.11509 17.3206 6.18598 17.3957 6.22351C17.4416 6.15679 17.4707 6.09424 17.4791 6.04003C17.4874 5.98164 17.4958 5.89408 17.4958 5.77314V5.61468C17.4958 5.53961 17.4958 5.46873 17.5041 5.39783C17.5124 5.32694 17.525 5.26855 17.5458 5.22268C17.5917 5.22268 17.6459 5.25187 17.7043 5.31443C17.7627 5.37698 17.8044 5.40616 17.8252 5.4145L17.8961 5.16431L17.8919 5.16847ZM25.8069 6.56964C25.7818 6.42786 25.6984 6.07756 25.565 5.51876C25.4649 5.09757 25.4024 4.75562 25.3732 4.48873C25.4524 4.55545 25.5316 4.62218 25.615 4.6889C25.6692 4.73061 25.7193 4.75146 25.7652 4.7598C25.59 4.16764 25.3398 3.57965 25.0062 3C24.8727 3.20851 24.7643 3.44203 24.6768 3.70058C25.1104 5.35613 25.3398 6.24019 25.369 6.35279C25.4816 6.84486 25.5858 7.39116 25.6776 7.98332C25.5692 8.05004 25.4649 8.10008 25.3607 8.12927C25.2564 8.15846 25.1438 8.17514 25.027 8.17514C24.9395 8.17514 24.8561 8.1668 24.7727 8.15429C24.6893 8.14178 24.5892 8.12511 24.4766 8.10843C24.364 8.09175 24.3056 8.02085 24.3056 7.89157C24.3056 7.83319 24.3139 7.74562 24.3265 7.63303C24.2597 7.68724 24.2014 7.77481 24.1471 7.90408C24.0345 8.15846 23.9386 8.31276 23.8677 8.37531C23.776 8.42952 23.6884 8.46705 23.6092 8.49207C23.53 8.51709 23.4507 8.52544 23.3673 8.52544C23.3006 8.52544 23.2381 8.5171 23.1755 8.49625C23.0004 8.4754 22.917 8.41702 22.917 8.31694C22.917 8.26272 22.942 8.17931 22.992 8.06255C23.0421 7.94579 23.0629 7.86238 23.0587 7.81651C22.917 7.96247 22.7835 8.10842 22.6501 8.25855C22.4749 8.43369 22.3165 8.54212 22.1705 8.58799C22.0913 8.61301 22.0079 8.6297 21.9203 8.6297C21.6659 8.6297 21.4699 8.42953 21.3281 8.02919C21.1863 7.62886 21.0487 7.3995 20.9069 7.33695C20.5149 7.73728 20.0104 8.12927 19.3973 8.50876C19.0429 8.72144 18.5049 9.0342 17.7877 9.45121C17.746 9.52628 17.7084 9.60134 17.6667 9.68057C17.625 9.7598 17.6125 9.83069 17.625 9.88908C17.6792 9.89742 18.2506 10.0058 19.3473 10.2185C19.7351 10.2936 20.0771 10.3561 20.3773 10.4103C19.9019 10.623 19.5933 10.7565 19.4474 10.8107C19.0679 10.9441 18.726 11.0108 18.4257 11.0108C18.2339 11.0108 18.0546 10.9858 17.8961 10.9358C17.7376 10.8857 17.5875 10.8023 17.4457 10.6897C17.2456 10.3686 17.0746 9.98916 16.937 9.54712C16.8786 9.3678 16.7702 8.9925 16.6159 8.42119C16.4616 7.84988 16.324 7.42869 16.1947 7.15346C16.007 6.74062 15.7693 6.39033 15.4858 6.10259C15.4065 6.1568 15.3481 6.25271 15.3106 6.39867C15.2731 6.54045 15.2564 6.69058 15.2564 6.84487C15.5775 7.18683 15.8319 7.57881 16.0279 8.02502C16.1738 8.36697 16.3156 8.80067 16.4491 9.33445C16.0612 10.01 15.5316 10.5438 14.8561 10.9358C14.5016 11.1443 14.1471 11.3028 13.7968 11.4153C13.4424 11.5279 13.0879 11.5863 12.7251 11.5863C12.625 11.5196 12.5541 11.4445 12.5166 11.3611C12.4749 11.2777 12.4582 11.1902 12.4582 11.0942C12.4582 10.9608 12.5166 10.7523 12.6292 10.4646C12.7418 10.1768 12.8002 9.96831 12.8002 9.83486C12.625 10.1226 12.4958 10.4229 12.404 10.7398C12.3123 11.0567 12.2706 11.382 12.2706 11.7156V11.8907C12.2706 11.9658 12.2789 12.0367 12.2914 12.0951C12.3373 12.2035 12.4165 12.2869 12.5208 12.3495C12.6292 12.412 12.7376 12.4454 12.8502 12.4454C13.2172 12.3787 13.6008 12.2661 13.997 12.1118C14.3932 11.9533 14.7476 11.774 15.0646 11.5655C15.419 11.3319 15.7193 11.0734 15.9653 10.7857C16.2405 10.4646 16.4407 10.1184 16.5742 9.74312C16.62 9.92243 16.6993 10.2185 16.8035 10.6355C16.9912 11.2277 17.2956 11.5988 17.7126 11.7448C17.7335 11.7448 17.7668 11.7448 17.8127 11.7531H17.9837C18.3381 11.7531 18.7301 11.6906 19.1638 11.5613C19.2973 11.5196 19.6726 11.3903 20.2856 11.1693C20.6651 11.0359 20.9528 10.9441 21.1446 10.8983C21.4449 10.8232 21.7368 10.7898 22.0245 10.7898C22.1496 10.7898 22.2956 10.7982 22.4541 10.819C22.6125 10.8399 22.7627 10.8691 22.8961 10.9108C22.9753 10.7898 23.0379 10.6772 23.0754 10.5646C23.1171 10.4562 23.1546 10.3144 23.1964 10.1393C23.0712 10.1143 22.5333 10.0183 21.5867 9.85988C20.4858 9.66805 19.6059 9.48874 18.9428 9.33028C19.5099 8.90492 20.0771 8.47539 20.6442 8.05004C20.736 8.15012 20.8194 8.29191 20.8861 8.47956C21.0279 8.88824 21.153 9.14262 21.2697 9.24687C21.3865 9.35112 21.5366 9.40116 21.7243 9.40116C21.7994 9.40116 21.8702 9.39283 21.9453 9.37198C22.2122 9.28441 22.4374 9.10925 22.6167 8.84236C22.6292 8.95496 22.6584 9.0467 22.7084 9.11342C22.7335 9.15512 22.7752 9.18849 22.8294 9.21351C22.9753 9.26773 23.1171 9.29275 23.2506 9.29275C23.3923 9.29275 23.53 9.26773 23.6717 9.21351C23.7969 9.13845 23.8969 9.01751 23.972 8.84236C24.0137 8.75062 24.0637 8.6005 24.1305 8.40033C24.1555 8.42118 24.1638 8.45455 24.1471 8.50042C24.1305 8.54629 24.1263 8.57965 24.1305 8.6005C24.1513 8.66722 24.193 8.72561 24.2597 8.77148C24.2722 8.77982 24.3306 8.81317 24.4307 8.87989C24.585 8.94662 24.7476 8.97999 24.9228 8.97999C25.223 8.97999 25.4983 8.88407 25.7443 8.68807C25.811 8.50876 25.8611 8.32944 25.8903 8.15429C25.9195 7.97915 25.9361 7.78733 25.9361 7.58716C25.9361 7.26189 25.8986 6.91993 25.8277 6.56547L25.8069 6.56964ZM14.1388 3.81734L13.8094 4.52626C13.6968 4.47205 13.5883 4.42201 13.4883 4.37197C13.3882 4.32193 13.2631 4.25521 13.1171 4.16764C13.0379 4.35946 12.992 4.46371 12.9878 4.47622C12.9128 4.60133 12.8335 4.66806 12.746 4.66806C12.6918 4.66806 12.6209 4.63052 12.5375 4.55963C12.4374 4.50125 12.3373 4.43453 12.2372 4.36781C12.2831 4.22185 12.3331 4.09258 12.3873 3.98832C12.4415 3.8799 12.5124 3.77981 12.6084 3.67972L13.138 3.85905L13.5174 3.50041C13.63 3.52543 13.7385 3.56714 13.8385 3.62135C13.8844 3.64637 13.9845 3.7131 14.1388 3.82152V3.81734ZM21.5366 12.1451C21.4949 12.2452 21.4365 12.3578 21.3573 12.4871C21.3114 12.5621 21.2322 12.6622 21.128 12.7957C21.0821 12.7498 20.9528 12.6706 20.736 12.5621C20.5233 12.4537 20.4149 12.3495 20.4149 12.2577C20.4149 12.2118 20.4357 12.1576 20.4732 12.0992L20.8319 11.6572C21.0654 11.8157 21.2989 11.9825 21.5325 12.1493L21.5366 12.1451ZM15.123 9.23436C15.123 9.35529 15.1063 9.45955 15.0729 9.55129C15.0395 9.64304 14.9812 9.70559 14.8936 9.74729C14.7685 9.76814 14.6893 9.70559 14.6642 9.56798C14.6642 9.32611 14.7226 9.03419 14.8436 8.68807C14.9019 8.52127 14.9645 8.35029 15.0229 8.17931C15.0229 8.2377 14.9645 8.42535 14.8436 8.73811C14.7852 8.89241 14.7518 9.01335 14.7518 9.10926C14.7518 9.27607 14.8269 9.38866 14.9812 9.45121L15.123 9.24271V9.23436ZM14.2431 5.42285C14.1972 5.71476 14.1263 5.98165 14.0345 6.22351C13.9428 6.46538 13.8135 6.68224 13.6551 6.8824C13.8344 7.04087 13.9678 7.18682 14.0554 7.31193C14.168 7.48707 14.2264 7.66639 14.2264 7.85404C14.2264 7.93328 14.2097 8.02919 14.1763 8.14596C14.1763 8.392 14.143 8.6005 14.0762 8.7673C13.9887 8.97581 13.8511 9.14262 13.6551 9.26773C13.4966 9.37615 13.334 9.4804 13.1755 9.58882C12.9753 9.70976 12.796 9.76814 12.6334 9.76814C12.5458 9.76814 12.4832 9.7598 12.4415 9.74729C12.329 9.66806 12.2456 9.56798 12.1955 9.44704C12.1455 9.32611 12.1204 9.19267 12.1204 9.04671C12.1204 8.92161 12.133 8.7965 12.1621 8.67556C12.1872 8.55463 12.2539 8.31692 12.3623 7.95412C12.4874 7.67889 12.6501 7.43285 12.8419 7.21184C12.7168 7.12009 12.5667 6.97414 12.3998 6.78231C12.208 6.55712 12.0746 6.41117 11.9995 6.35279C11.9995 6.07339 12.0787 5.82735 12.2414 5.6105L12.8419 5.96079C12.8419 5.96079 12.8335 6.0025 12.8127 6.03169C12.7543 6.09007 12.7209 6.12761 12.7209 6.14012L13.2631 6.63219C13.4215 6.49875 13.5967 6.30692 13.7843 6.05254C13.9386 5.84403 14.0929 5.63553 14.2431 5.42285ZM16.6034 11.9575C16.6159 12.0575 16.6034 12.1493 16.5533 12.2369C16.5074 12.3244 16.4407 12.387 16.3531 12.4287C16.3114 12.4621 16.2697 12.462 16.2197 12.4245C16.1697 12.387 16.1363 12.3328 16.1238 12.2577C16.1113 12.1827 16.1029 12.1201 16.1029 12.0659C16.1029 11.8991 16.1321 11.7239 16.1947 11.5446C16.2155 11.4779 16.2864 11.3153 16.4032 11.0525C16.349 11.2444 16.3114 11.4028 16.2823 11.5279C16.2572 11.653 16.2405 11.7448 16.2405 11.8115C16.2405 11.8907 16.2447 11.9491 16.2572 11.9867C16.2656 12.0242 16.2906 12.0742 16.3323 12.141C16.374 12.141 16.4157 12.1201 16.4574 12.0826C16.4991 12.0409 16.5491 11.9992 16.6034 11.9533V11.9575ZM13.8802 8.18349C13.7343 8.30442 13.5883 8.42535 13.4507 8.54211C13.1588 8.78398 12.8961 8.90075 12.6709 8.90075C12.625 8.90075 12.5625 8.89241 12.4791 8.87989C12.4457 8.80066 12.429 8.72977 12.429 8.67139C12.429 8.50458 12.5208 8.30859 12.7084 8.07923C12.8085 7.95413 12.9628 7.76647 13.1672 7.52044C13.2923 7.62886 13.4299 7.73727 13.5717 7.84987C13.7134 7.96246 13.8177 8.07506 13.8761 8.17931L13.8802 8.18349Z" fill="currentColor"/>
</svg>
