<svg width="40" height="16" viewBox="0 0 40 16" fill="none" xmlns="http://www.w3.org/2000/svg">
<path fill-rule="evenodd" clip-rule="evenodd" d="M29.8439 5.25494C29.8018 5.18763 29.7471 5.11191 29.6714 5.02777C29.5956 4.94363 29.5283 4.85949 29.461 4.77955L29.3685 4.96045C29.3685 5.38536 29.3853 5.83971 29.4189 6.32352C29.4526 6.80732 29.4863 7.31637 29.5241 7.85486C29.562 8.38915 29.5788 8.82246 29.5788 9.15061C29.5788 9.52082 29.5367 9.94994 29.4568 10.4337C29.3558 11.0522 29.2212 11.4434 29.0529 11.6033C29.1287 11.3677 29.1791 11.1069 29.2086 10.8166C29.238 10.5263 29.2549 10.2276 29.2549 9.91628C29.2549 9.77324 29.2549 9.5671 29.2465 9.28944C29.238 9.01178 29.2381 8.80984 29.2381 8.67522L28.9057 3.97181C28.8594 3.91712 28.8342 3.85402 28.8342 3.77829C28.8342 3.68994 28.8762 3.58477 28.9562 3.45435C29.0782 3.26504 29.1413 3.15987 29.1497 3.14304C29.3054 3.52587 29.44 3.88347 29.5536 4.22003C29.6672 4.55238 29.7639 4.89735 29.8481 5.25494H29.8439ZM26.2006 6.89987C26.188 6.97981 26.1754 7.05974 26.1712 7.14388C26.1501 7.23643 26.1207 7.31216 26.0786 7.36685C26.0113 7.39209 25.9482 7.38368 25.8935 7.34161C25.8346 7.29954 25.7925 7.24064 25.7673 7.16491C25.7589 7.12284 25.7589 7.06815 25.7589 6.99243C25.7589 6.82415 25.8009 6.64325 25.8893 6.44552C25.9356 6.34455 26.0281 6.18048 26.1627 5.9491C26.1543 6.02482 26.1123 6.15524 26.0281 6.34455C25.944 6.53387 25.9019 6.6727 25.9019 6.75684C25.9019 6.88305 25.9608 6.99663 26.0828 7.08919C26.1038 7.06815 26.1165 7.0387 26.1291 7.00505C26.1375 6.96719 26.1501 6.93353 26.1627 6.89987H26.2048H26.2006ZM26.1922 3.29449L26.0323 3.54691C25.7883 3.62263 25.212 3.78671 24.2948 4.04333C23.4871 4.27051 22.9065 4.443 22.5574 4.55658C21.9516 4.75852 21.3878 4.97728 20.8619 5.21287C20.9882 4.97728 21.2406 4.78797 21.6192 4.64914C22.0693 4.51451 22.3975 4.40934 22.5994 4.33782C23.1253 4.16954 23.8699 3.95078 24.8291 3.68153C25.5149 3.49222 25.9692 3.36601 26.1922 3.2987V3.29449ZM25.233 5.63778L25.132 5.86075C25.09 5.86075 25.0269 5.83551 24.9343 5.78502C24.8418 5.73454 24.766 5.71771 24.7071 5.73033C24.5935 6.04165 24.5052 6.27724 24.4505 6.44131C24.3916 6.60538 24.3201 6.7358 24.2317 6.82835C24.177 6.76946 24.1224 6.63483 24.0719 6.42448C23.9835 6.08793 23.8152 5.93648 23.567 5.97013C23.546 5.93648 23.5376 5.90703 23.5376 5.87758C23.5376 5.83551 23.5502 5.78923 23.5797 5.73033C23.6049 5.67144 23.6259 5.62936 23.6386 5.60412C23.6806 5.56205 23.7227 5.54522 23.769 5.54522C23.7942 5.54522 23.8279 5.55785 23.8657 5.5873C23.9036 5.61254 23.9373 5.64619 23.9709 5.68826C24.0508 5.78082 24.1181 5.91544 24.1728 6.08372C24.2528 6.32772 24.3033 6.47076 24.3243 6.51704C24.4042 6.26041 24.4673 6.0711 24.5052 5.9533C24.5809 5.72613 24.6861 5.55785 24.8291 5.45688C24.8964 5.44846 24.9638 5.4695 25.0311 5.51157C25.0984 5.55364 25.1657 5.59571 25.233 5.63778ZM20.5086 4.2663C20.4833 4.45562 20.3992 4.61127 20.2646 4.74169C20.2057 4.74169 20.1468 4.72486 20.0879 4.687C20.029 4.64914 20.0037 4.60286 20.0037 4.53976C19.9911 4.4472 19.9827 4.37568 19.9827 4.32941C19.9827 4.19478 20.0079 4.05595 20.0626 3.91712C20.1173 3.77409 20.1888 3.63105 20.2856 3.4838C20.2393 3.65208 20.2014 3.79091 20.1762 3.89609C20.151 4.00547 20.1341 4.08119 20.1341 4.12747C20.1341 4.19478 20.1425 4.25368 20.1594 4.29996C20.1762 4.34623 20.2099 4.39672 20.2646 4.45141C20.3192 4.46403 20.3697 4.43879 20.416 4.37568C20.4623 4.31258 20.4917 4.27472 20.5086 4.27051V4.2663ZM22.0315 6.64746C22.0525 6.71477 22.0441 6.79891 22.0105 6.89567C21.9768 6.99243 21.9263 7.07657 21.859 7.14388C21.8043 7.1565 21.7538 7.14388 21.7033 7.09339C21.6529 7.04712 21.6066 6.98822 21.5687 6.92091C21.5603 6.88725 21.5603 6.83256 21.5603 6.76104C21.5603 6.60118 21.5898 6.4329 21.6529 6.26462C21.6781 6.19731 21.7202 6.10475 21.7749 5.99117C21.7749 6.03744 21.7622 6.12158 21.7328 6.24358C21.7075 6.36559 21.6907 6.45814 21.6907 6.52545C21.6907 6.60539 21.7075 6.6727 21.737 6.72739C21.7664 6.78208 21.8211 6.81994 21.9053 6.84939L22.0357 6.64746H22.0315ZM18.9099 4.36727C18.6869 4.79217 18.4429 5.10349 18.1737 5.30543C17.9507 5.47371 17.7193 5.55785 17.4753 5.55785H17.1135C17.1808 5.51578 17.3828 5.42322 17.7193 5.27598C17.9633 5.1666 18.1526 5.05721 18.2957 4.94363C18.1695 4.94363 18.0475 4.93521 17.9339 4.92259C17.5426 4.87631 17.3365 4.85107 17.307 4.85107C17.1051 4.85107 16.9242 4.89735 16.7601 4.99411C16.8022 4.85949 16.8863 4.71645 17.0168 4.5692C17.1472 4.42196 17.286 4.31258 17.4248 4.24527C17.9297 4.24527 18.4261 4.28734 18.9099 4.36727ZM16.0323 4.37568C15.9987 4.56921 15.9776 4.67017 15.9734 4.67859C15.9482 4.73328 15.8977 4.77955 15.8304 4.82162C15.7631 4.83425 15.7042 4.81742 15.6579 4.76693C15.6116 4.71645 15.5738 4.65755 15.5485 4.59024C15.5485 4.35465 15.5654 4.1443 15.6032 3.95919C15.6411 3.77408 15.7042 3.55532 15.7883 3.2987C15.7883 3.37442 15.7715 3.50484 15.7378 3.69415C15.7042 3.88347 15.6874 4.03071 15.6874 4.14009C15.6874 4.22002 15.6958 4.29154 15.7084 4.35886C15.721 4.42196 15.7505 4.48507 15.7883 4.54396C15.8809 4.56921 15.9482 4.52714 15.9903 4.41355L16.0323 4.3841V4.37568ZM18.628 6.92932C18.5944 7.04291 18.5649 7.1565 18.5355 7.26167C18.4892 7.38788 18.4093 7.4552 18.2915 7.4552C18.1821 7.43416 18.1316 7.37106 18.1316 7.26167C18.1232 7.19436 18.1232 7.14388 18.1232 7.11022C18.1232 6.93353 18.1526 6.76104 18.2158 6.58856C18.2746 6.41607 18.3546 6.2562 18.4471 6.10896C18.4009 6.24358 18.363 6.35717 18.3378 6.45393C18.2915 6.60959 18.2662 6.73159 18.2662 6.81573C18.2662 6.92932 18.2957 7.04291 18.3588 7.16071C18.4261 7.17333 18.4808 7.14388 18.5187 7.06395C18.5607 6.98822 18.5944 6.94194 18.628 6.92932ZM24.4842 11.8767C24.2948 12.0913 24.0677 12.2596 23.8026 12.3774C23.5376 12.4952 23.2515 12.5541 22.9486 12.5541C22.7383 12.5541 22.5237 12.5162 22.3007 12.4447C22.2418 12.39 22.2082 12.3311 22.2082 12.2638C22.2082 12.1965 22.2376 12.1165 22.3007 12.0198C22.326 11.9735 22.3765 11.9104 22.4522 11.8389C22.5279 11.7631 22.5742 11.7127 22.5952 11.679C22.4816 11.6538 22.3765 11.5696 22.2839 11.435C22.326 11.313 22.4017 11.1994 22.5111 11.0984C22.6205 10.9933 22.7341 10.9428 22.8476 10.9428C22.9402 10.9428 23.0159 10.9806 23.0706 11.0522C23.0706 11.1069 23.0454 11.1531 22.9949 11.1868C22.9444 11.2247 22.8939 11.2583 22.8476 11.292C22.835 11.1994 22.8014 11.1447 22.7467 11.1321C22.6667 11.1237 22.5868 11.1573 22.5153 11.2331C22.5279 11.2793 22.5616 11.3214 22.6163 11.3551C22.6709 11.3887 22.7256 11.4182 22.7887 11.4476C22.8518 11.4771 22.8981 11.4897 22.9318 11.4897C22.9991 11.4897 23.0916 11.4602 23.2052 11.4056C23.3188 11.3467 23.403 11.3214 23.4577 11.3214C23.4114 11.414 23.18 11.5654 22.7593 11.7758C22.5826 11.8641 22.4985 11.9525 22.4985 12.0366C22.4985 12.0955 22.5321 12.1712 22.5994 12.2596C22.7761 12.3016 22.9444 12.3185 23.1043 12.3185C23.3525 12.3185 23.5923 12.2806 23.8279 12.2091C24.0593 12.1334 24.2822 12.0282 24.4884 11.8851L24.4842 11.8767ZM27.6562 4.93942C27.6142 4.67859 27.509 4.34624 27.3323 3.95078C27.2439 3.74043 27.1051 3.42491 26.9074 3L26.6045 3.56374C26.7391 4.63231 26.8611 5.64199 26.9663 6.58435C27.0757 7.52671 27.1766 8.49432 27.2692 9.49138C27.0546 9.68069 26.8569 9.83214 26.6844 9.94573C26.4699 10.0888 26.2553 10.1897 26.0492 10.257C25.8598 10.3328 25.6537 10.3664 25.4223 10.3664C25.1404 10.3664 24.867 10.3075 24.6104 10.1939C24.3495 10.0804 24.1224 9.92049 23.9204 9.71855C24.2023 9.59655 24.4337 9.51241 24.6062 9.46613C24.867 9.39041 25.111 9.35675 25.334 9.35675C25.3676 9.35675 25.4097 9.35675 25.4602 9.36096C25.5107 9.36096 25.5696 9.36937 25.6369 9.37779C25.6705 9.29785 25.7168 9.18427 25.7799 9.03281C25.843 8.88136 25.8809 8.75095 25.9019 8.62894C25.5191 8.43542 25.0942 8.28397 24.6314 8.17459C24.1686 8.06521 23.7059 8.01473 23.2473 8.01473C22.7551 8.01473 22.3176 8.06521 21.9347 8.16618C21.7202 8.18721 21.5982 8.32604 21.5729 8.59108C21.5477 8.85191 21.514 9.01178 21.4804 9.06647L21.8127 8.95709C21.981 9.01178 22.1409 9.09171 22.2965 9.2053C22.4522 9.31468 22.5742 9.43668 22.6709 9.56289C22.1745 9.8069 21.6318 9.98359 21.0471 10.0972C21.0555 10.0088 21.1059 9.87421 21.1985 9.69331C21.2911 9.51241 21.3415 9.36096 21.3415 9.23896C21.3415 9.01178 21.2448 8.80143 21.0471 8.61212C20.925 8.49853 20.7315 8.36811 20.4665 8.21666C20.2014 8.06942 19.9364 7.99369 19.6756 7.99369C19.4316 7.99369 19.1792 8.05679 18.9099 8.18721C18.6953 8.28818 18.4598 8.43963 18.2031 8.64156C18.0264 8.77619 17.753 9.02019 17.3744 9.37779C17.0504 9.68069 16.798 9.89525 16.6171 10.0257C16.5077 9.98359 16.411 9.91207 16.3184 9.80269C16.2258 9.69331 16.1417 9.59234 16.0618 9.49138C16.0029 9.43248 15.9229 9.3862 15.8304 9.35675C15.7378 9.3273 15.6369 9.31048 15.5359 9.31048C15.4349 9.31048 15.3382 9.31889 15.2414 9.33992C14.9175 9.42827 14.6146 9.56289 14.3327 9.74379C14.1181 9.87842 13.8489 10.0888 13.525 10.3706C13.3356 10.5305 13.079 10.7661 12.7593 11.0774C12.2334 11.5907 11.8884 11.9188 11.7202 12.066C11.4972 12.2554 11.2742 12.4236 11.0555 12.5709C10.9755 12.5919 10.8956 12.6003 10.8115 12.6003C10.6095 12.6003 10.4539 12.5288 10.3487 12.3816C10.2393 12.2385 10.1888 12.0618 10.1888 11.8599C10.1888 11.6117 10.2477 11.3887 10.3697 11.1952C10.4623 10.9722 10.5632 10.7661 10.6642 10.581C10.7652 10.3917 10.8746 10.2024 10.9882 10.0172C11.2111 9.99201 11.4046 9.84476 11.5729 9.58393C11.7202 9.35675 11.7959 9.11695 11.7959 8.86874C11.716 8.97812 11.636 9.07909 11.5519 9.18006C11.493 9.23896 11.4215 9.27261 11.3415 9.27261C11.228 9.12957 11.148 8.99916 11.1059 8.87295C11.0639 8.74674 11.0386 8.6037 11.0386 8.44384C11.0386 8.16617 11.1438 7.80017 11.35 7.34161C11.6108 6.76946 11.7622 6.42448 11.7959 6.30248C11.7075 6.40345 11.6318 6.51283 11.5645 6.62642C11.5309 6.68532 11.493 6.75263 11.4551 6.82835C11.2111 7.28692 11.0344 7.65713 10.9208 7.939C10.7441 8.38494 10.66 8.77198 10.66 9.10013C10.66 9.18847 10.6684 9.29785 10.681 9.43248C10.6937 9.5671 10.7652 9.72697 10.8914 9.90787C10.6095 10.3328 10.4118 10.6651 10.294 10.9091C10.1005 11.313 9.99951 11.6832 9.99951 12.0198C9.99951 12.3563 10.1047 12.6761 10.3108 12.9579C10.3361 12.9663 10.3866 12.979 10.4539 13H10.6558C11.0849 13 11.5561 12.756 12.0609 12.2638C12.8014 11.5444 13.2305 11.1447 13.3441 11.0732C13.7606 10.7282 14.0466 10.5095 14.2023 10.4169C14.5515 10.1939 14.8712 10.0846 15.1615 10.0846C15.3508 10.0846 15.5275 10.1266 15.6916 10.2066C15.8556 10.2865 15.965 10.3748 16.0197 10.4632C16.0744 10.5557 16.0912 10.6483 16.0702 10.7408C15.9103 10.9428 15.7505 11.1447 15.5948 11.3467C15.4139 11.5907 15.3213 11.7968 15.3213 11.9735C15.3676 11.9272 15.5822 11.6874 15.9692 11.2583C16.1038 11.1027 16.2427 10.9638 16.3815 10.8334C16.7643 11.0227 17.2229 11.1153 17.753 11.1153C18.0306 11.1153 18.3083 11.0942 18.5944 11.048C18.8805 11.0059 19.2254 10.947 19.6293 10.8713C19.6882 10.8797 19.7807 10.8923 19.9028 10.9133H20.1552C20.6516 10.9133 21.2911 10.7577 22.0736 10.4506C22.6036 10.2402 22.9739 10.1056 23.1758 10.0383C23.445 10.2949 23.668 10.4884 23.8405 10.6231C24.0845 10.8124 24.3201 10.9554 24.5557 11.0564C24.766 11.1321 24.9764 11.1658 25.1909 11.1658C25.4181 11.1658 25.6537 11.1321 25.8893 11.0606C26.1249 10.9891 26.3436 10.8965 26.5456 10.7829C26.9032 10.6146 27.164 10.3706 27.3323 10.0551C27.5006 9.73959 27.5847 9.38199 27.5847 8.98654L27.1724 4.59445L27.2313 4.47244C27.3744 4.63231 27.5174 4.79218 27.6646 4.94783L27.6562 4.93942ZM16.1375 6.22255C16.1585 6.29827 16.1291 6.36979 16.0576 6.44552C15.9566 6.4329 15.8767 6.42448 15.8136 6.42448C15.7589 6.42448 15.7168 6.43711 15.6831 6.46656C15.6242 6.55911 15.578 6.72318 15.5527 6.95457C15.5275 7.18595 15.4896 7.35423 15.4433 7.4552C15.334 7.4005 15.2456 7.28271 15.1699 7.0976C15.0942 6.9125 15.0269 6.7947 14.968 6.74001C14.9427 6.84098 14.8922 6.86201 14.8165 6.79891C14.7155 6.75684 14.6482 6.70215 14.6146 6.62642C14.6146 6.54649 14.623 6.47076 14.644 6.39924C14.6651 6.32772 14.7029 6.26883 14.766 6.22255C14.9469 6.27724 15.1026 6.43711 15.2288 6.70635C15.3298 6.92091 15.3929 7.05133 15.4223 7.08919C15.456 6.9125 15.4896 6.74001 15.5233 6.56332C15.578 6.36979 15.6747 6.23096 15.8178 6.15103C15.9524 6.15103 16.0618 6.17627 16.1417 6.22255H16.1375ZM13.9751 3.67732C13.9835 3.70257 13.9751 3.74464 13.9583 3.79512C13.9415 3.8456 13.9246 3.89188 13.9036 3.92974C13.8699 3.92974 13.8195 3.9045 13.7563 3.85402C13.6932 3.80353 13.6386 3.78671 13.5881 3.79933C13.546 3.9003 13.5123 4.05175 13.4787 4.25368C13.403 4.70383 13.3525 4.96887 13.3272 5.05301C13.5965 5.15398 13.8026 5.32646 13.9415 5.56626C13.9078 5.72612 13.7269 5.81868 13.403 5.83971C13.0748 5.86075 12.8729 5.9491 12.7929 6.11317C12.8939 6.84098 12.9991 7.56878 13.1043 8.29239C13.1043 8.46908 13.0916 8.63736 13.0622 8.79722C13.037 8.95709 12.9865 9.11695 12.9192 9.27261C12.9528 9.15061 12.9696 9.01178 12.9696 8.86033C12.9696 8.80143 12.9696 8.70467 12.9612 8.57846C12.9528 8.45225 12.9528 8.35128 12.9528 8.28397C12.9528 8.06942 12.8981 7.74127 12.7929 7.30374C12.6836 6.86622 12.6331 6.54649 12.6331 6.34455C12.6331 6.18889 12.6583 6.06689 12.7046 5.97013C12.7509 5.87758 12.8561 5.7724 13.0159 5.65881C13.0959 5.62516 13.1842 5.59571 13.2725 5.56626C13.3609 5.53681 13.4577 5.52419 13.5502 5.52419C13.4492 5.4106 13.3314 5.3517 13.1968 5.3517C13.1758 5.3517 13.1463 5.36012 13.1043 5.37274L13.0117 5.50316C12.9781 5.47791 12.9612 5.44847 12.9612 5.42322C12.9865 5.35591 13.0201 5.28439 13.0538 5.21287L13.2557 5.06984C13.1001 4.78797 12.9486 4.5061 12.8014 4.22003L12.7509 4.27892C12.6836 4.25368 12.6163 4.22003 12.5532 4.18216C12.49 4.1443 12.4396 4.08961 12.4059 4.01388C12.4059 3.82457 12.4606 3.67312 12.5658 3.55953C12.7214 3.6605 12.8603 3.82878 12.9781 4.06437C13.1674 4.42617 13.2725 4.6281 13.302 4.66176C13.3441 4.3841 13.3819 4.15692 13.4198 3.98023C13.4577 3.80353 13.5292 3.64788 13.6386 3.52167C13.7059 3.50063 13.7648 3.50484 13.811 3.53008C13.8573 3.55532 13.912 3.6058 13.9709 3.67312L13.9751 3.67732ZM24.2149 8.93605C24.1266 8.97812 23.9919 9.04544 23.811 9.13799C23.6638 9.19689 23.5208 9.23054 23.3861 9.23054L23.0412 8.82667C23.1421 8.80564 23.2347 8.79722 23.323 8.79722C23.3988 8.79722 23.5039 8.80984 23.6428 8.83088C23.7816 8.85612 23.9709 8.88978 24.2149 8.93605ZM20.8409 9.72276C20.193 10.0341 19.4778 10.2276 18.6911 10.3075C18.4766 10.3075 18.2115 10.3075 17.8918 10.3033C17.5763 10.3033 17.2818 10.2697 17.0126 10.2066C17.3701 9.89525 17.7277 9.58393 18.0811 9.26841C18.5313 8.90661 18.9478 8.7215 19.3222 8.7215C19.4652 8.7215 19.6041 8.74674 19.7471 8.79302C20.0248 8.88557 20.2477 8.99495 20.4244 9.11695C20.6684 9.28523 20.803 9.48717 20.8367 9.72276H20.8409Z" fill="currentColor"/>
</svg>
