<svg width="40" height="16" viewBox="0 0 40 16" fill="none" xmlns="http://www.w3.org/2000/svg">
<path fill-rule="evenodd" clip-rule="evenodd" d="M30.761 5.35372C30.7344 5.33156 30.6458 5.22517 30.5039 5.03457C30.3975 4.89273 30.3133 4.83511 30.2468 4.86614L30.4374 9.53812C30.4374 9.93705 30.3887 10.3183 30.2956 10.6817C30.1981 11.0452 30.0651 11.391 29.8878 11.719C29.9499 11.4619 29.9942 11.1738 30.0208 10.8502C30.0474 10.5266 30.0562 10.1764 30.0562 9.79078V9.12145L29.7991 4.4406C29.7504 4.29876 29.7238 4.15692 29.7238 4.01507C29.7238 3.70479 29.8435 3.4211 30.0873 3.17287C30.4419 3.84663 30.6635 4.57358 30.7566 5.35372H30.761ZM25.6103 3.42996C25.6103 3.47429 25.597 3.51862 25.566 3.56738C25.5172 3.64716 25.4906 3.68706 25.4906 3.69592C25.4552 3.66046 25.4109 3.64273 25.3621 3.64273C25.3355 3.64273 25.3 3.6516 25.2646 3.67376C25.1493 3.78901 25.0784 3.99734 25.0474 4.30762C25.0163 4.61791 24.9632 4.82624 24.8922 4.94149C24.8302 4.87057 24.7371 4.6844 24.6174 4.37855C24.5598 4.22784 24.5022 4.11702 24.4357 4.03723C24.4268 4.09486 24.3869 4.12145 24.3071 4.12145C24.2495 4.12145 24.2007 4.10816 24.1564 4.07713C24.1121 4.0328 24.0944 3.97961 24.0944 3.90869C24.0944 3.87323 24.1032 3.82447 24.121 3.76684C24.1387 3.70478 24.152 3.66046 24.1564 3.625C24.183 3.56738 24.2318 3.54078 24.2938 3.54078C24.3382 3.54078 24.3736 3.55408 24.4002 3.58511C24.4933 3.65603 24.5775 3.76684 24.6484 3.92199C24.7238 4.0727 24.8036 4.24113 24.8878 4.4273C24.972 4.06383 25.0296 3.85106 25.0562 3.78901C25.1538 3.54078 25.2956 3.41667 25.4729 3.41667C25.4995 3.41667 25.5438 3.42553 25.6015 3.43883L25.6103 3.42996ZM25.0562 5.98315C25.0296 6.06294 24.9853 6.14273 24.9321 6.22252C24.8789 6.3023 24.7726 6.45302 24.6085 6.67465C24.3736 6.48404 24.1387 6.29344 23.9082 6.0984C23.8373 6.16046 23.7663 6.26684 23.6954 6.41312C23.6245 6.55939 23.5491 6.66135 23.4738 6.71454C23.2123 6.60816 23.0483 6.53724 22.9862 6.50178C22.8798 6.43972 22.8133 6.36879 22.7823 6.289C22.8089 6.26684 22.8887 6.15603 23.0172 5.96099C23.1148 5.81029 23.2123 5.73936 23.3054 5.73936C23.3541 5.73936 23.4117 5.75709 23.4827 5.79698C23.5491 5.83688 23.6289 5.8812 23.722 5.93439C23.8151 5.98758 23.886 6.04965 23.9348 6.12057L24.5199 5.50444L25.0607 5.98315H25.0562ZM21.9623 5.664C21.9046 5.72163 21.8337 5.74822 21.7495 5.74822C21.6874 5.74822 21.6298 5.7305 21.5855 5.6906C21.5412 5.65071 21.5057 5.63741 21.4835 5.64185C21.4481 5.7039 21.3949 5.77482 21.324 5.84574C21.2796 5.89007 21.2398 5.91667 21.1954 5.92996C21.0979 5.95656 21.0048 5.93883 20.9206 5.87677C20.8763 5.84131 20.8408 5.79699 20.8142 5.73936C20.8054 5.69504 20.8054 5.63298 20.8054 5.54876C20.8054 5.2562 20.8718 4.99911 21.0093 4.77305C21.0226 4.79964 21.0314 4.84397 21.0314 4.9016C21.0314 4.96366 21.0181 5.0523 20.996 5.16755C20.9694 5.2828 20.9605 5.35372 20.9605 5.38032C20.9605 5.51329 21.0226 5.60195 21.1511 5.64628C21.1999 5.63741 21.2442 5.61968 21.2841 5.59309C21.324 5.56649 21.3727 5.51773 21.4392 5.45568C21.4481 5.42908 21.4481 5.38475 21.4481 5.32713C21.4481 5.2695 21.4481 5.21631 21.4392 5.16312C21.4304 5.10993 21.4259 5.05673 21.4171 4.99911C21.4171 4.95035 21.4259 4.90603 21.4392 4.87057C21.4525 4.83511 21.4835 4.80408 21.5367 4.77305C21.5589 4.83067 21.5678 4.8883 21.5678 4.95479C21.5589 5.06117 21.5589 5.14096 21.5589 5.18972C21.5589 5.24734 21.5678 5.30053 21.5811 5.34929C21.5944 5.39805 21.6431 5.43351 21.7318 5.45568H21.8692C21.9046 5.44238 21.9224 5.41578 21.9224 5.38032C21.9224 5.33156 21.9046 5.25177 21.8736 5.14539C21.8426 5.039 21.8249 4.96808 21.8249 4.93262C21.8249 4.85284 21.8559 4.78635 21.9224 4.72873C21.9578 4.81295 21.9889 4.9016 22.011 4.99025C22.0376 5.0789 22.0465 5.18528 22.0465 5.31383C22.0465 5.44237 22.0199 5.55762 21.9711 5.664H21.9623ZM23.527 8.69592C23.527 8.81117 23.5093 8.90868 23.4694 8.99734C23.4295 9.08599 23.363 9.15248 23.261 9.19237C23.199 9.19237 23.1458 9.16578 23.1103 9.11702C23.0749 9.06826 23.0438 9.0062 23.0128 8.93528C23.0128 8.70922 23.0438 8.49202 23.1103 8.28812C23.1546 8.15957 23.2344 7.96454 23.3541 7.70301C23.2921 7.97783 23.2256 8.25709 23.1635 8.53191C23.1635 8.61613 23.1679 8.67819 23.1812 8.71809C23.1901 8.75798 23.2167 8.81117 23.261 8.88209C23.3187 8.91755 23.3674 8.90425 23.4117 8.83776C23.4827 8.74468 23.5226 8.69592 23.527 8.68705V8.69592ZM18.4516 4.0594C18.4649 4.11702 18.4605 4.17465 18.4339 4.24114C18.4073 4.30319 18.3763 4.37855 18.332 4.46277C18.2477 4.52039 18.1635 4.54255 18.0882 4.53812C17.9906 4.39628 17.9375 4.24114 17.9375 4.06826C17.9375 3.95302 17.9507 3.8555 17.9729 3.77128C17.9995 3.68706 18.0438 3.58511 18.1059 3.461L18.2965 3.17287C18.2876 3.2172 18.2566 3.32358 18.1945 3.49645C18.1325 3.66932 18.1059 3.81117 18.1059 3.91756C18.1059 3.96631 18.1103 4.01951 18.1236 4.07713C18.1325 4.13475 18.1679 4.19681 18.2256 4.26773C18.2832 4.26773 18.3275 4.24557 18.3585 4.19681C18.3896 4.15248 18.4206 4.10372 18.4472 4.05497L18.4516 4.0594ZM22.2814 6.58156C22.1883 6.64362 22.0908 6.7101 21.9889 6.77216C21.8869 6.83422 21.7805 6.89184 21.6742 6.9406C21.4835 7.03369 21.2398 7.12677 20.9383 7.22872C20.207 7.46809 19.7859 7.61436 19.6706 7.66312C19.839 7.53014 20.0119 7.41489 20.1804 7.32181C20.4507 7.17996 20.7965 7.04255 21.222 6.90514C21.5678 6.79876 21.9224 6.68794 22.277 6.57713L22.2814 6.58156ZM24.8435 11.8697C24.8435 12.0957 24.7726 12.3085 24.6351 12.5035C24.4977 12.6986 24.316 12.8626 24.0988 13C24.1254 12.9424 24.2318 12.8183 24.4179 12.6277C24.5731 12.4636 24.6529 12.3262 24.6529 12.211C24.6529 12.1179 24.6218 12.0381 24.5554 11.9672C24.4711 11.9761 24.3913 12.0204 24.3204 12.1046C24.2938 12.047 24.3071 11.9805 24.3648 11.9096C24.4224 11.8342 24.4534 11.7899 24.4623 11.7766C24.5332 11.7323 24.5997 11.7145 24.6662 11.7145C24.7637 11.7145 24.8257 11.7677 24.8479 11.8741L24.8435 11.8697ZM20.6192 8.89096C20.5749 9.0328 20.5483 9.11702 20.535 9.14804C20.4906 9.25443 20.4374 9.32978 20.3665 9.36968C20.3222 9.36081 20.2867 9.33865 20.2513 9.29432C20.2158 9.25 20.1848 9.19681 20.1538 9.12589C20.1538 8.93528 20.1892 8.75355 20.2601 8.58511C20.3045 8.48759 20.3931 8.32358 20.5261 8.09751C20.5172 8.14184 20.464 8.28369 20.3665 8.52305C20.3178 8.64273 20.2912 8.73138 20.2912 8.789C20.2912 8.90868 20.3488 9.00177 20.4596 9.06383C20.4862 9.05053 20.5128 9.0195 20.5305 8.97961C20.5483 8.93528 20.5616 8.90869 20.566 8.89539H20.6192V8.89096ZM27.9374 5.13653C27.8754 4.76862 27.738 4.32979 27.5296 3.82447C27.3213 3.31915 27.2105 3.04433 27.1928 3C27.1218 3.11525 27.0465 3.23493 26.9711 3.36348C26.8913 3.49202 26.8559 3.59841 26.8559 3.68263C26.8559 3.71809 26.8647 3.76685 26.8869 3.83334C26.8869 4.37855 26.9445 5.09663 27.0554 5.98315C27.1484 6.69237 27.246 7.42819 27.3479 8.1906C27.4499 8.95301 27.503 9.62677 27.503 10.2163C27.2194 10.5222 26.8869 10.6729 26.5013 10.6729C26.3506 10.6729 26.2087 10.6507 26.0757 10.602C25.9428 10.5576 25.8497 10.4911 25.8009 10.4113C25.7522 10.3316 25.7256 10.234 25.7256 10.1188C25.7256 10.0922 25.7344 10.0124 25.7522 9.87943C25.7699 9.74645 25.7788 9.64893 25.7788 9.57801C25.7788 9.48492 25.7699 9.41844 25.7477 9.37411C25.3931 9.50709 24.839 9.71986 24.0899 10.0035C23.425 10.2429 22.8399 10.4246 22.3435 10.5443C21.5722 10.7438 20.8541 10.8413 20.1937 10.8413C19.8523 10.8413 19.511 10.8147 19.1742 10.7571C18.8328 10.6995 18.496 10.6064 18.1635 10.4823C17.8798 10.305 17.6715 10.0833 17.5341 9.81294C17.3701 9.48492 17.2903 8.99734 17.2903 8.34574C17.2903 8.21719 17.2903 8.08865 17.2947 7.96453C17.2947 7.83599 17.2992 7.70744 17.2992 7.58333C17.2992 7.42819 17.2992 7.26418 17.2903 7.10017C17.2814 6.93174 17.2681 6.79876 17.246 6.69237C17.1972 6.74113 17.1484 6.81205 17.1041 6.90514C17.0598 6.99822 16.9977 7.13564 16.9179 7.32181C16.7761 7.50798 16.5944 7.64096 16.3772 7.72075C16.1555 7.80053 15.9162 7.84486 15.6546 7.84486H15.4685C15.4064 7.84486 15.3355 7.83599 15.2468 7.82269C15.1582 7.8094 15.0873 7.72074 15.0385 7.55673C15.0164 7.47251 14.9853 7.34397 14.941 7.17553L14.5598 7.83599C14.5465 7.9867 14.582 8.1906 14.6662 8.45213C14.8568 9.0328 14.9543 9.39184 14.9543 9.52482C14.9543 9.55142 14.9543 9.59574 14.9454 9.65336C14.5997 9.95035 14.2273 10.2074 13.8373 10.4202C13.4915 10.6108 13.0882 10.7881 12.636 10.9521C12.3656 11.0718 12.0775 11.1649 11.7628 11.2225C11.4525 11.2846 11.1334 11.3112 10.8054 11.3112C10.3532 11.3112 9.93213 11.2491 9.55093 11.1206C9.16972 10.992 8.84614 10.7925 8.58462 10.5133C8.5004 10.4069 8.44277 10.3005 8.40731 10.1897C8.37628 10.0789 8.35855 9.95035 8.35855 9.79964C8.35855 9.62233 8.38072 9.44503 8.42948 9.2633C8.4738 9.08156 8.53586 8.91312 8.60678 8.75798C8.71316 8.52305 8.82398 8.28812 8.93479 8.05762C9.07664 7.78723 9.23178 7.62322 9.40465 7.57003C9.59082 7.47695 9.72823 7.31294 9.82132 7.06915C9.85678 6.98493 9.90997 6.7766 9.98089 6.45302C9.92327 6.46631 9.87894 6.51064 9.84792 6.58156C9.81689 6.65248 9.78586 6.69681 9.75926 6.71897C9.73267 6.74113 9.69721 6.75 9.66174 6.75C9.55536 6.75 9.47114 6.70124 9.40465 6.59929C9.32043 6.35106 9.27611 6.1117 9.27611 5.88563C9.27611 5.45124 9.44455 4.9016 9.78586 4.23671C10.0341 3.74912 10.1848 3.43883 10.2424 3.31028C10.0031 3.59397 9.78586 3.93972 9.59526 4.34308C9.43125 4.69769 9.27167 5.05231 9.11653 5.40692C8.93036 5.84575 8.84171 6.22695 8.84171 6.5461C8.84171 6.86525 8.93036 7.16223 9.10767 7.44149C8.76192 7.98227 8.50483 8.42996 8.34082 8.79344C8.21228 9.08599 8.11919 9.36967 8.0527 9.65336C8.04384 9.72428 8.03497 9.81737 8.02167 9.92819C8.00838 10.0434 7.99951 10.1676 7.99951 10.3094C7.99951 10.5842 8.03941 10.8324 8.11476 11.0496C8.19455 11.2668 8.33196 11.4486 8.53143 11.5993C8.83728 11.7766 9.15199 11.9051 9.48444 11.9894C9.81245 12.0691 10.1582 12.1135 10.5217 12.1135C11.1245 12.1135 11.7406 12.0071 12.3745 11.7899C13.0039 11.5727 13.5758 11.2934 14.0855 10.9566C14.5332 10.766 14.8701 10.4512 15.0961 10.008C15.3 9.60904 15.4064 9.15691 15.4064 8.64716C15.699 8.64716 15.9694 8.57624 16.2265 8.43439C16.4304 8.31914 16.6476 8.15071 16.8736 7.92464C16.8869 8.3945 16.9091 8.98404 16.9445 9.69769C16.9756 10.4113 17.2637 10.9344 17.8133 11.2668C18.1901 11.4087 18.5492 11.5106 18.886 11.5683C19.2273 11.6303 19.5997 11.6569 20.0031 11.6569C20.5483 11.6569 21.1156 11.5949 21.7007 11.4707C22.2859 11.3466 22.871 11.1782 23.4605 10.9654C23.9215 10.8014 24.449 10.5886 25.0474 10.3271C25.0828 10.3138 25.1227 10.3005 25.1626 10.2828C25.2069 10.2695 25.2424 10.2606 25.2779 10.2606C25.371 10.2606 25.4463 10.2872 25.4995 10.3449C25.5217 10.367 25.5261 10.3936 25.5172 10.4291C25.5084 10.4645 25.4906 10.5044 25.4685 10.5443C25.4552 10.6596 25.4463 10.7482 25.4463 10.8103C25.4463 10.9167 25.4552 11.0053 25.4773 11.0762C25.4995 11.1472 25.5483 11.2136 25.628 11.2713C25.7078 11.3333 25.7965 11.3777 25.894 11.4131C25.9915 11.4486 26.1467 11.4663 26.3506 11.4663C26.3949 11.4663 26.4437 11.4663 26.5057 11.4619C26.5678 11.4619 26.6387 11.453 26.7229 11.4441C27.0997 11.3511 27.3834 11.1117 27.574 10.7216C27.6804 10.5 27.7779 10.1365 27.871 9.62677L27.4144 4.9149L27.5429 4.69326C27.5429 4.69326 27.6272 4.79965 27.7335 4.95036C27.7956 5.04344 27.8665 5.10993 27.9463 5.15425L27.9374 5.13653ZM14.6839 3.50976C14.6573 3.58954 14.6307 3.6516 14.6086 3.69592C14.5864 3.74025 14.5465 3.74468 14.48 3.70036C14.4091 3.6383 14.3116 3.6117 14.1919 3.625C14.1121 3.74025 14.0412 3.93528 13.9791 4.21897C13.9171 4.50266 13.8328 4.70656 13.7353 4.82624C13.6733 4.77748 13.5935 4.61347 13.5048 4.34308C13.4162 4.06826 13.2832 3.93528 13.1059 3.93528C13.0571 3.93528 13.0172 3.93529 12.9906 3.94415C12.9773 3.92199 12.9685 3.88209 12.9685 3.8289C12.9685 3.75798 12.9862 3.69149 13.0172 3.625C13.0483 3.55851 13.097 3.49645 13.1591 3.4344C13.3009 3.46986 13.4073 3.55408 13.4782 3.69149C13.5713 3.91755 13.6644 4.14362 13.7664 4.37412C13.8639 4.07713 13.9437 3.8555 14.0013 3.71365C14.1077 3.44326 14.2761 3.32802 14.5022 3.36348L14.6839 3.51419V3.50976ZM12.707 5.85904C12.6094 6.09397 12.472 6.3289 12.3036 6.55939C12.1617 6.48847 12.0199 6.41755 11.8781 6.34663C11.714 6.24911 11.6165 6.14273 11.5811 6.02748L12.0155 5.45124C12.113 5.4867 12.2282 5.54433 12.3523 5.62855C12.4765 5.70834 12.5961 5.78812 12.707 5.85904ZM13.4295 8.60283C13.3718 8.79344 13.3408 8.89539 13.332 8.89982C13.2876 9.0062 13.2256 9.09042 13.1414 9.15691C13.0793 9.15691 13.0261 9.13475 12.9862 9.08599C12.9463 9.04166 12.9197 8.99291 12.9064 8.94415C12.8931 8.89539 12.8843 8.8555 12.8843 8.8289V8.76684C12.8843 8.63829 12.902 8.51861 12.9375 8.40337C12.9729 8.28812 13.066 8.05762 13.2123 7.71188C13.1502 7.96897 13.0882 8.22163 13.0305 8.47872C13.0305 8.64273 13.0926 8.76241 13.2211 8.8422C13.2477 8.82004 13.2788 8.78014 13.3098 8.71365C13.3408 8.64716 13.3807 8.61614 13.4206 8.60727L13.4295 8.60283ZM16.9179 11.8475L16.4304 12.4769L15.6414 11.9894L15.1715 12.5213L14.4357 12.1046L14.9144 11.4574L15.6812 11.8918L16.222 11.3821L16.9135 11.8519L16.9179 11.8475ZM11.4836 8.54964C11.4836 8.5984 11.4703 8.64716 11.4392 8.70035C11.4126 8.74911 11.386 8.79787 11.3639 8.83776C11.2486 8.8156 11.1644 8.80674 11.1068 8.80674C11.058 8.80674 11.0181 8.8156 10.9915 8.8289C10.9117 8.93528 10.8586 9.07712 10.8231 9.25443C10.73 9.71542 10.6724 9.97251 10.6414 10.0301C10.5704 9.98138 10.4596 9.79077 10.3133 9.46719C10.1981 9.2101 10.0297 9.08599 9.80359 9.08599C9.75483 9.03723 9.72823 8.97961 9.72823 8.91755C9.72823 8.85993 9.7371 8.80674 9.75483 8.75798C9.77256 8.70922 9.79029 8.66489 9.80359 8.62943C9.83018 8.60283 9.86565 8.58511 9.90997 8.58511C9.94543 8.58511 9.99862 8.60727 10.0695 8.64716C10.1671 8.74025 10.2557 8.85549 10.3266 8.99734C10.4197 9.2101 10.5128 9.42287 10.6148 9.63563C10.699 9.32978 10.7655 9.09485 10.8054 8.93528C10.8896 8.62943 11.027 8.47872 11.2087 8.47872C11.2929 8.47872 11.386 8.50532 11.4836 8.55407V8.54964Z" fill="currentColor"/>
</svg>
