<svg width="40" height="16" viewBox="0 0 40 16" fill="none" xmlns="http://www.w3.org/2000/svg">
<path fill-rule="evenodd" clip-rule="evenodd" d="M31.9558 5.27074L31.934 5.30131L31.5672 4.82969L31.4406 5.06114C31.4406 5.41921 31.4755 5.82969 31.5454 6.29694C31.7113 7.42358 31.7986 8.13537 31.7986 8.43668V9.07424C31.7986 9.67686 31.7812 10.1659 31.7462 10.5502C31.7113 10.9345 31.6196 11.3275 31.4755 11.7249C31.4755 11.0393 31.4362 10.2402 31.3532 9.32314C31.2746 8.40611 31.1917 7.48908 31.113 6.56769C31.0344 5.64629 30.9908 4.82533 30.9908 4.1048C30.9558 4.06113 30.9296 4.02183 30.9165 3.97817C30.9034 3.9345 30.8947 3.8952 30.8947 3.85153C30.8947 3.73799 30.9384 3.61572 31.0213 3.48472C31.1043 3.35371 31.1873 3.22707 31.2615 3.10917C31.4275 3.49345 31.5672 3.84279 31.672 4.1572C31.803 4.54148 31.8991 4.91266 31.9558 5.26638V5.27074ZM27.9122 3.25764L27.8292 3.48908C27.5366 3.62009 27.0825 3.81223 26.4668 4.0655C25.6065 4.41485 25.1524 4.59825 25.1043 4.62009C24.6371 4.81659 24.1873 5.0262 23.7637 5.24891C23.7637 5.17031 23.803 5.08734 23.8772 4.99563C23.9558 4.90393 24.0344 4.83843 24.1174 4.79476C24.5366 4.62009 24.9558 4.44105 25.3751 4.26201C25.6764 4.13537 26.0912 3.96507 26.624 3.75546C27.1567 3.54148 27.5847 3.37555 27.9122 3.25764ZM27.7244 4.97817C27.7026 4.94323 27.6764 4.92576 27.6414 4.9214C27.6065 4.9214 27.5628 4.91266 27.5148 4.90393C27.327 5.12664 27.2091 5.41921 27.1567 5.77293C27.0868 5.61135 27.017 5.44105 26.9471 5.25764C26.8772 5.07424 26.7768 4.95633 26.6414 4.89956C26.5978 4.97817 26.5672 5.0524 26.541 5.12664C26.5148 5.20087 26.5061 5.27074 26.5061 5.34061C26.6895 5.34061 26.8205 5.45415 26.9034 5.67686C26.9471 5.79476 27.0082 5.98253 27.0912 6.24454C27.1829 6.14847 27.2528 5.96507 27.3008 5.69869C27.3489 5.43231 27.3838 5.27511 27.4056 5.22707C27.4973 5.25327 27.5716 5.24454 27.6327 5.19651C27.6938 5.14847 27.72 5.07424 27.72 4.97817H27.7244ZM26.2484 6.28821L25.8598 6.85589C25.8117 6.79476 25.6982 6.70742 25.5235 6.59825C25.3489 6.48908 25.2528 6.38865 25.2397 6.28821L25.6895 5.71179C25.8074 5.79039 25.9296 5.86026 26.0563 5.93013C26.196 6.03493 26.2572 6.15284 26.2441 6.28821H26.2484ZM23.2921 5.02183L23.2179 5.07424C23.279 4.88646 23.3139 4.66812 23.3139 4.42358C23.3139 4.24891 23.2921 4.07424 23.2528 3.90393C23.2091 3.73362 23.1436 3.58079 23.0519 3.44978C23.0519 3.36681 23.1087 3.31004 23.2179 3.28384C23.3794 3.50655 23.458 3.78603 23.458 4.12227C23.458 4.41485 23.4013 4.71616 23.2921 5.02183ZM29.5716 5.14847C29.3401 4.44105 29.1087 3.73362 28.8816 3.02183C28.7986 3.10044 28.7288 3.18341 28.6764 3.27948C28.624 3.37555 28.5716 3.49782 28.5148 3.65065C28.6327 4.53275 28.7506 5.51528 28.8598 6.60262C28.9733 7.68996 29.0781 8.74672 29.1829 9.77293C28.8903 10.0306 28.6633 10.214 28.5017 10.3188C28.231 10.5022 27.9646 10.6114 27.7069 10.655C27.589 10.6812 27.4493 10.6987 27.2877 10.6987C26.7506 10.6987 26.2921 10.4978 25.9165 10.0917C26.1392 9.9083 26.3969 9.77293 26.6807 9.68122C26.7593 9.65502 26.9253 9.61135 27.1829 9.55458C27.279 9.58079 27.3401 9.59825 27.362 9.59825C27.5235 9.59825 27.624 9.41485 27.6676 9.0524C27.6895 8.86463 27.72 8.75109 27.7637 8.71616C26.7986 8.44978 26.2703 8.30568 26.1698 8.28821C25.8292 8.21834 25.5017 8.18341 25.196 8.18341C24.9078 8.18341 24.6283 8.22271 24.3576 8.30568C24.0868 8.38428 23.8336 8.51092 23.6021 8.67686C23.5585 8.77293 23.5235 8.87336 23.4973 8.9738C23.4711 9.07424 23.4537 9.17031 23.4537 9.26201C23.4537 9.32314 23.4624 9.38428 23.4842 9.44105C23.5104 9.40611 23.541 9.37991 23.5716 9.35808C23.6021 9.33624 23.6414 9.31004 23.6938 9.27511C23.755 9.24891 23.8248 9.23144 23.9034 9.23144C24.0781 9.23144 24.2615 9.32314 24.458 9.50218C24.6109 9.66812 24.7637 9.83406 24.9209 9.99563C24.6196 10.1834 24.3707 10.3188 24.1655 10.393C23.8772 10.5066 23.5978 10.559 23.3183 10.559C23.1087 10.5371 22.9165 10.4279 22.7419 10.2358C22.5934 10.0742 22.4842 9.8821 22.4056 9.65939C22.327 9.0786 22.2746 8.39301 22.2441 7.59389C22.2135 6.79913 22.1873 6.03057 22.1655 5.29694C22.1218 4.43668 22.0563 3.72052 21.9646 3.14847C21.8816 3.20524 21.803 3.31004 21.7331 3.46288C21.6982 3.54585 21.6414 3.67249 21.5672 3.83843C21.6633 4.37555 21.7331 4.90393 21.7768 5.41485C21.8205 5.93013 21.8379 6.47162 21.8379 7.04367C21.8729 7.76419 21.9078 8.48035 21.9427 9.19214C22.0039 10.0306 22.2091 10.6769 22.5497 11.131C22.7943 11.2969 23.0519 11.3843 23.327 11.3843C23.6196 11.3843 23.9646 11.2751 24.3663 11.0611C24.6807 10.8734 24.9951 10.6812 25.3096 10.4847C25.4624 10.7293 25.6545 10.9345 25.886 11.1048C26.0694 11.2358 26.3096 11.3668 26.6109 11.4935C26.7855 11.5284 26.9427 11.5459 27.0825 11.5459C27.4537 11.5459 27.8248 11.4498 28.2048 11.2533C28.5192 11.0917 28.8423 10.8603 29.1698 10.5633C29.2965 10.2576 29.3838 9.9345 29.4362 9.60262C29.4886 9.27074 29.5148 8.92576 29.5148 8.57205C29.5148 8.18777 29.4799 7.68996 29.41 7.07424C29.2615 5.78166 29.1917 4.9738 29.1917 4.65502C29.2179 4.69869 29.2703 4.77292 29.3489 4.8821C29.4275 4.99127 29.5017 5.08297 29.5803 5.16157L29.5716 5.14847ZM23.8161 6.9738C23.7899 7.06987 23.7593 7.17031 23.7331 7.27074C23.7069 7.37118 23.6545 7.44542 23.5759 7.49782C23.458 7.46288 23.3882 7.39301 23.3663 7.28821C23.3663 7.0655 23.3838 6.87773 23.4144 6.72926C23.4449 6.58079 23.5061 6.43232 23.5978 6.29258C23.6065 6.34935 23.5978 6.41485 23.5759 6.49345C23.5279 6.71179 23.5017 6.84716 23.5017 6.90393C23.5017 7.03493 23.5497 7.13537 23.6502 7.19651C23.672 7.18341 23.6938 7.1441 23.7113 7.07424C23.7331 7.00873 23.7681 6.9738 23.8161 6.9738ZM20.755 4.36245C20.755 4.36245 20.7768 4.41921 20.7768 4.46725C20.7768 4.51092 20.7593 4.56332 20.7288 4.63319C20.6982 4.70306 20.6676 4.76419 20.6414 4.82096C20.5847 4.84716 20.5323 4.84716 20.4842 4.81223C20.4362 4.77729 20.3882 4.72052 20.3489 4.64629C20.3401 4.61135 20.3401 4.55459 20.3401 4.48035C20.3401 4.21397 20.4362 3.9869 20.624 3.79913C20.5672 3.9607 20.5148 4.12227 20.4668 4.27948C20.4668 4.34061 20.4755 4.38865 20.4886 4.41485L20.6458 4.56332C20.6807 4.50218 20.72 4.43231 20.7593 4.36245H20.755ZM19.9777 5.64192C19.8816 5.82969 19.8074 5.96507 19.7593 6.0524C19.6633 6.21397 19.5454 6.27948 19.4144 6.25328L18.9427 5.9476C18.9995 5.8428 19.0694 5.72926 19.1567 5.60699C19.2441 5.48472 19.3358 5.37555 19.4362 5.27511C19.5279 5.31004 19.6196 5.36245 19.7069 5.43231C19.7986 5.50218 19.8903 5.57205 19.9777 5.64192ZM20.8467 6.39738C20.6589 6.27948 20.541 6.20524 20.4886 6.17904C20.3707 6.1179 20.2484 6.0655 20.1218 6.02183L19.6502 6.62009C19.6851 6.72489 19.7855 6.81659 19.9558 6.89083C20.0475 6.9345 20.1917 6.99563 20.3969 7.0786L20.8467 6.39738ZM26.5585 12.31C26.3838 12.5197 26.1567 12.6856 25.8816 12.8122C25.6065 12.9389 25.3227 13 25.0257 13C24.886 13 24.7593 12.9869 24.6502 12.9563C24.5716 12.9083 24.5366 12.8253 24.5366 12.7162C24.5366 12.6812 24.5454 12.6376 24.5585 12.5808L24.8641 12.1179C24.7681 12.0568 24.6982 11.9869 24.6545 11.917C24.6764 11.7904 24.7331 11.6725 24.8292 11.5677C24.9253 11.4629 25.0344 11.393 25.1611 11.3755C25.2179 11.3537 25.2746 11.3886 25.3401 11.4803C25.362 11.5284 25.3532 11.5764 25.3183 11.6157C25.2615 11.6638 25.2222 11.7031 25.2048 11.7293C25.1436 11.6681 25.0737 11.6332 25.0039 11.6332C24.982 11.6332 24.9558 11.6419 24.9209 11.6638C24.8991 11.6725 24.8903 11.6856 24.8903 11.7074C24.8903 11.7293 24.8991 11.7424 24.9209 11.7511C24.9689 11.7991 25.0301 11.8341 25.0999 11.8515C25.1698 11.869 25.2484 11.8777 25.3401 11.8777C25.4318 11.8341 25.493 11.8079 25.5279 11.7948C25.6065 11.7598 25.6676 11.7555 25.7157 11.786C25.6589 11.9039 25.4755 12.0306 25.1611 12.1616C24.8903 12.2751 24.7506 12.4279 24.7506 12.6245C24.8117 12.6594 24.8947 12.6856 24.9908 12.7074C25.0868 12.7293 25.1742 12.738 25.2528 12.738C25.4144 12.738 25.5716 12.7118 25.7244 12.6638C25.8772 12.6157 26.1567 12.4978 26.5628 12.3057L26.5585 12.31ZM19.9122 3.14847C19.327 3.30131 18.7899 3.45415 18.3096 3.59825C17.9864 3.69432 17.4537 3.869 16.7026 4.12227C15.9515 4.37555 15.4449 4.54585 15.1873 4.63755C15.0388 4.69432 14.8947 4.75109 14.7462 4.80349C14.4318 4.93013 14.2746 5.10044 14.2746 5.31878C15.017 4.95633 15.9078 4.60699 16.9558 4.27074C17.8772 4 18.7986 3.72052 19.7244 3.44105C19.7855 3.41921 19.8379 3.37991 19.8816 3.32751C19.9253 3.27074 19.934 3.21397 19.9122 3.14847ZM19.5541 6.63755C19.4624 6.83843 19.4013 6.96943 19.3663 7.0262C19.2834 7.16594 19.1829 7.26201 19.0737 7.31878C18.7943 7.24891 18.541 7.13537 18.3096 6.9738C18.3445 6.869 18.41 6.75546 18.5104 6.62882C18.5541 6.58079 18.6458 6.47162 18.7943 6.30568L19.5585 6.64192L19.5541 6.63755ZM15.017 3.83843C15.017 3.95196 14.9951 4.06113 14.9471 4.17467C14.9034 4.28821 14.8336 4.36681 14.7419 4.41485C14.672 4.43668 14.6196 4.40611 14.5847 4.32751C14.5497 4.24891 14.5235 4.18777 14.5104 4.15284C14.5104 3.9869 14.5323 3.82533 14.5803 3.67686C14.624 3.52838 14.6938 3.37555 14.7855 3.22271C14.7855 3.26637 14.7724 3.33188 14.7419 3.42358C14.6807 3.62445 14.6458 3.76419 14.6458 3.83406C14.6458 3.95197 14.6895 4.0524 14.7812 4.13974C14.8379 4.131 14.8816 4.08734 14.9165 4.00437C14.9515 3.9214 14.982 3.869 15.0126 3.84716L15.017 3.83843ZM18.0257 8.31441C18.0388 8.41921 18.0257 8.51965 17.9908 8.62009C17.9515 8.71616 17.8903 8.80349 17.8074 8.87336C17.7506 8.8821 17.6982 8.85153 17.6502 8.79039C17.6021 8.72926 17.5716 8.67686 17.5628 8.63319C17.5541 8.58952 17.5454 8.55022 17.5454 8.50655C17.5454 8.37991 17.5716 8.25764 17.6283 8.13537C17.6851 8.0131 17.7593 7.89083 17.8598 7.77293C17.8598 7.81659 17.8467 7.87336 17.8161 7.95197C17.7331 8.15284 17.6895 8.27948 17.6895 8.32751C17.6895 8.43232 17.7506 8.50655 17.8772 8.54585C17.8991 8.53275 17.9209 8.49345 17.9384 8.43231C17.9602 8.37118 17.9864 8.33188 18.0213 8.31878L18.0257 8.31441ZM16.4449 6.41921L16.3707 6.70306L16.1305 6.59825C16.0519 6.71616 15.9995 6.9214 15.9733 7.21834C15.9471 7.51092 15.8947 7.71616 15.8248 7.83843C15.7681 7.79476 15.672 7.60699 15.5323 7.27074C15.4275 7.01747 15.2703 6.9083 15.0606 6.9345C14.9995 6.89083 14.9646 6.83843 14.9646 6.76856C14.9646 6.74236 14.9908 6.66812 15.0388 6.55022C15.065 6.48035 15.0825 6.43232 15.0825 6.40175C15.2572 6.42795 15.4056 6.55022 15.5323 6.75983C15.6589 7.03057 15.7506 7.22271 15.803 7.33625C15.851 7.0917 15.886 6.9083 15.9078 6.79039C15.9558 6.56769 16.0301 6.40175 16.1261 6.29694C16.2179 6.30568 16.2834 6.31441 16.327 6.32751C16.3707 6.34061 16.4056 6.37118 16.4406 6.42358L16.4449 6.41921ZM13.5104 5.13974C13.4406 5.25327 13.3707 5.36681 13.2965 5.48035C13.2222 5.59389 13.1393 5.69432 13.0519 5.77729L12.4973 5.41921C12.5323 5.32314 12.6021 5.20524 12.7069 5.07424C12.7331 5.0393 12.8248 4.93013 12.9777 4.75109C13.196 4.80786 13.3707 4.9345 13.5104 5.13974ZM20.7724 11.9214C20.7375 11.9694 20.7026 12.0262 20.6676 12.083C20.6327 12.1441 20.589 12.1747 20.5323 12.1834C19.7986 12.4148 19.065 12.6463 18.3314 12.8865C18.3663 12.8079 18.41 12.7293 18.458 12.6507C18.5061 12.5721 18.5672 12.5284 18.6371 12.5197C18.9951 12.4061 19.362 12.2926 19.7375 12.179C20.113 12.0655 20.4624 11.9782 20.7768 11.9214H20.7724ZM12.7681 3.44978L12.3401 3C12.1873 3 12.0737 3.08734 12.0039 3.26201C11.9122 3.49782 11.8379 3.64192 11.7855 3.68996C11.7724 3.73362 11.7637 3.75983 11.7637 3.77293C11.7637 3.83406 11.803 3.89956 11.8772 3.9607C11.9209 3.9869 11.9777 4.02183 12.0563 4.05677C11.7986 4.34934 11.4711 4.64192 11.0825 4.93886C10.8598 5.1048 10.5148 5.35371 10.0432 5.68122C10.5672 5.41048 10.9515 5.19214 11.196 5.03057C11.6021 4.75982 11.934 4.44978 12.1917 4.10917C12.2484 4.13537 12.3096 4.16594 12.3794 4.19651C12.4493 4.22707 12.5104 4.24454 12.5585 4.24454C12.6283 4.24454 12.6851 4.20961 12.7244 4.13974C12.7681 4.06987 12.7943 4.00437 12.8117 3.9476C12.8292 3.88646 12.8379 3.82096 12.8379 3.74236C12.8379 3.62445 12.8117 3.52402 12.7637 3.44978H12.7681ZM12.4624 5.31441C12.4144 5.43231 12.3489 5.55022 12.2746 5.65939C12.2397 5.70742 12.1567 5.81659 12.0213 5.98253L11.3838 5.71179C11.4318 5.58515 11.4973 5.45851 11.5847 5.33624C11.6458 5.24454 11.7375 5.13974 11.8554 5.02183C11.9951 5.0786 12.0999 5.1179 12.1698 5.13537C12.3008 5.18341 12.4013 5.24454 12.4624 5.31441ZM20.8161 9.19214C20.6283 9.39301 20.5323 9.63756 20.5323 9.91703C20.5323 10.0699 20.5672 10.2358 20.6371 10.4105C20.5235 10.4673 20.4013 10.4935 20.2703 10.4935C20.0825 10.4935 19.9253 10.441 19.7986 10.3362C19.6851 10.2795 19.6327 10.2052 19.6327 10.1179C19.6327 10.083 19.6545 10.0087 19.6938 9.89956C19.7375 9.78603 19.7506 9.70742 19.7375 9.65939C19.6938 9.70742 19.589 9.869 19.4231 10.1397C19.2965 10.3493 19.1611 10.4891 19.0126 10.559C18.9165 10.5939 18.8292 10.6201 18.7593 10.6332C18.6895 10.6463 18.6021 10.655 18.4973 10.655C18.3707 10.655 18.2572 10.6288 18.1567 10.5808C18.0563 10.5328 17.9864 10.476 17.9471 10.4061C17.9078 10.3406 17.8903 10.2576 17.8903 10.1616C17.8991 10.0655 17.9078 9.97817 17.9165 9.89956C17.9253 9.82096 17.9296 9.75109 17.9209 9.68122C17.7375 9.86463 17.624 9.9738 17.5759 10.0175C17.4493 10.131 17.3227 10.2227 17.1873 10.3013C16.8816 10.4323 16.541 10.5022 16.1698 10.5022C15.8772 10.5022 15.5934 10.4585 15.3227 10.3755C15.1567 10.3057 15.0301 10.1747 14.9471 9.97817C14.8903 9.81223 14.8379 9.63756 14.7899 9.46288C14.7288 9.51965 14.5716 9.69869 14.327 10.0087C14.1436 10.2402 13.9689 10.393 13.7943 10.4716C13.7113 10.4847 13.6502 10.4935 13.6152 10.4935C13.3139 10.4935 13.0388 10.3144 12.7855 9.9607C12.6196 9.65939 12.4493 9.35808 12.2834 9.06114C12.0039 9.10917 11.7768 9.24454 11.6021 9.45852C11.4886 9.58952 11.3707 9.81659 11.2441 10.1397C11.0781 10.5502 10.9733 10.7991 10.9296 10.8821C10.7899 11.1528 10.624 11.3624 10.4362 11.5022C10.3532 11.5153 10.2877 11.524 10.2353 11.524C10.0475 11.524 9.89908 11.4629 9.79427 11.3362C9.6327 11.1397 9.5148 10.9127 9.43183 10.655C9.35322 10.3974 9.30956 10.1223 9.30956 9.82533C9.30956 9.41485 9.37506 9.04367 9.51043 8.71616L9.72004 8.72489C9.87287 8.57642 9.99078 8.37991 10.065 8.12664C10.0999 8 10.1436 7.76419 10.2004 7.41485C10.1392 7.43668 10.0868 7.50655 10.0519 7.62882C10.017 7.75109 9.98641 7.82969 9.95584 7.86463C9.92964 7.89956 9.89471 7.91703 9.85977 7.91703C9.81174 7.91703 9.74624 7.88646 9.672 7.82096C9.57593 7.69432 9.5017 7.56332 9.45803 7.42358C9.41436 7.28384 9.38816 7.13974 9.38816 6.99563C9.38816 6.74236 9.46239 6.44105 9.6065 6.08297C9.73314 5.80349 9.85977 5.52402 9.98204 5.24454C9.7506 5.53712 9.56283 5.82969 9.41436 6.12664C9.26589 6.41921 9.14362 6.74672 9.03881 7.11354C9.03881 7.15721 9.03008 7.22271 9.00825 7.31441C8.99951 7.38428 8.99951 7.49782 8.99951 7.65065C8.99951 7.8821 9.03445 8.08734 9.10432 8.26201C9.17418 8.44105 9.29645 8.58952 9.47113 8.70742C9.40126 8.76419 9.34012 8.86026 9.29209 9C9.27025 9.06987 9.23532 9.19651 9.18292 9.37555C9.13052 9.55895 9.09558 9.72052 9.07811 9.869C9.06065 10.0175 9.05191 10.1878 9.05191 10.3843C9.05191 10.7686 9.11305 11.1223 9.23095 11.4498C9.34886 11.7729 9.53663 12.048 9.78554 12.2707C9.87724 12.3406 9.98641 12.3755 10.1087 12.3755C10.1698 12.3755 10.2222 12.3755 10.2572 12.3712C10.2921 12.3712 10.3576 12.3537 10.458 12.3362C10.6414 12.1878 10.7899 11.9913 10.9078 11.738C10.9427 11.6594 11.0301 11.4323 11.1655 11.0568C11.3008 10.6812 11.4449 10.4061 11.6021 10.2402C11.7331 10.1004 11.8947 9.99563 12.0825 9.92577C12.2353 10.1965 12.3925 10.4672 12.5541 10.7336C12.755 11.0611 12.9908 11.262 13.2572 11.3319C13.3358 11.3537 13.4056 11.3624 13.4755 11.3624C13.6938 11.3624 13.9034 11.2489 14.1043 11.0175C14.2528 10.821 14.3969 10.6245 14.5454 10.4323C14.6065 10.6987 14.6938 10.8952 14.8074 11.0175C14.8554 11.0611 14.9253 11.1004 15.017 11.1441C15.1087 11.1878 15.2048 11.2271 15.3096 11.2707C15.5323 11.2969 15.6851 11.3144 15.7637 11.3188C15.8423 11.3188 15.9296 11.3231 16.0213 11.3231C16.3227 11.3231 16.6021 11.2795 16.8598 11.1878C17.1174 11.0961 17.3358 10.952 17.5104 10.7467L17.5847 11.0611C17.6676 11.2489 17.8205 11.3712 18.0344 11.4279C18.1392 11.4541 18.3358 11.4716 18.6196 11.4716C18.7681 11.4498 18.9078 11.3755 19.0475 11.2402C19.1087 11.179 19.2135 11.0568 19.3532 10.8734C19.4013 10.9913 19.4842 11.1004 19.5978 11.1921C19.7113 11.2882 19.8292 11.3319 19.9471 11.3319C20.1305 11.3319 20.2834 11.3144 20.41 11.2751C20.5366 11.2358 20.6371 11.1528 20.7157 11.0306C20.7506 10.917 20.8117 10.7249 20.9034 10.4541C20.9646 10.2314 20.9995 10.0262 20.9995 9.84716C20.9995 9.72926 20.982 9.61572 20.9515 9.51092C20.9209 9.40611 20.8685 9.31004 20.7986 9.21834L20.8161 9.19214ZM13.8903 8.11354C13.8685 8.29694 13.8554 8.39738 13.8467 8.41921C13.8117 8.53712 13.7462 8.61572 13.6458 8.65066C13.5978 8.65066 13.5497 8.62445 13.4973 8.56769C13.4493 8.51092 13.4187 8.45852 13.4013 8.41048C13.4013 8.22707 13.4231 8.06114 13.4711 7.91266C13.5148 7.76419 13.5847 7.60262 13.6764 7.43668C13.6764 7.48472 13.6458 7.61135 13.5803 7.81223C13.5454 7.92577 13.5279 8.00873 13.5279 8.0655C13.5279 8.17904 13.5672 8.27074 13.6414 8.34935C13.7026 8.34935 13.755 8.31441 13.7986 8.24018C13.8423 8.16594 13.8685 8.12664 13.8816 8.11791L13.8903 8.11354ZM11.5235 7.76856C11.5235 7.9214 11.5061 8.0524 11.4711 8.16157C11.4362 8.27074 11.3707 8.35371 11.2703 8.40611C11.1305 8.39301 11.0519 8.34498 11.0388 8.26638C11.0257 8.18777 11.017 8.12664 11.017 8.08734V8.00873C11.017 7.64629 11.113 7.36245 11.3096 7.16157C11.2746 7.25327 11.2397 7.35808 11.2004 7.47598C11.1611 7.59389 11.1436 7.69869 11.1436 7.79039C11.1436 7.90393 11.1742 8.00873 11.2397 8.1048C11.3227 8.1179 11.3794 8.06987 11.4056 7.95633C11.4318 7.84279 11.4711 7.78166 11.5192 7.76856H11.5235ZM15.4755 12.2314C15.3139 12.4629 15.1392 12.6594 14.9515 12.8297C14.8816 12.786 14.7462 12.6987 14.541 12.559C14.4493 12.4978 14.3663 12.441 14.2877 12.393C14.2266 12.4279 14.1567 12.5065 14.0781 12.6332C13.9995 12.7598 13.9209 12.8428 13.8379 12.8865C13.6851 12.7948 13.5716 12.7249 13.5017 12.6769C13.362 12.5852 13.279 12.5022 13.2484 12.4236L13.7724 11.8472C13.7855 11.8734 13.9209 11.9607 14.1698 12.1092C14.2877 12.179 14.362 12.2358 14.3882 12.2751L14.8598 11.7817L15.4668 12.2314H15.4755ZM26.1043 9.19214C25.9165 9.32314 25.7288 9.45415 25.5366 9.58079C25.4449 9.47598 25.3576 9.36681 25.2746 9.25764C25.2266 9.20087 25.1917 9.13974 25.1698 9.06987L26.1043 9.19651V9.19214ZM12.6589 3.9214C12.6109 3.9345 12.5541 3.9214 12.4973 3.87773C12.4362 3.83406 12.4056 3.81659 12.3969 3.81659L12.493 3.57642C12.5148 3.61135 12.5454 3.65939 12.5934 3.72489C12.6371 3.78603 12.6633 3.85589 12.6633 3.92576L12.6589 3.9214ZM12.2484 3.72052L12.0082 3.64629C12.0082 3.56332 12.0519 3.51965 12.1436 3.51965C12.2048 3.51965 12.2397 3.55459 12.2484 3.62445V3.72052Z" fill="currentColor"/>
</svg>
