<svg width="40" height="16" viewBox="0 0 40 16" fill="none" xmlns="http://www.w3.org/2000/svg">
<path fill-rule="evenodd" clip-rule="evenodd" d="M31.8213 5.07872C31.7505 5.05219 31.6753 4.98585 31.5913 4.88855C31.5117 4.79124 31.4498 4.71606 31.4144 4.66741L31.2861 4.80451L31.6134 9.14772C31.6134 9.42193 31.5869 9.69173 31.5294 9.95268C31.5161 10.0234 31.3923 10.4392 31.1578 11.1955H31.1048C31.1667 11.0274 31.2153 10.8328 31.2463 10.6117C31.2773 10.3905 31.295 10.165 31.295 9.93056C31.295 9.72711 31.2861 9.54577 31.2728 9.39098C31.2596 9.23618 31.2463 9.10791 31.2419 9.01061L30.7952 3.89341C30.7686 3.83592 30.7509 3.77842 30.7509 3.71207C30.7509 3.60593 30.7908 3.49535 30.8659 3.38478C30.9456 3.26979 31.0207 3.16364 31.1004 3.06634C31.18 3.32286 31.264 3.57497 31.3569 3.83149C31.6399 4.59664 31.7903 5.01238 31.8124 5.08315L31.8213 5.07872ZM26.2706 3.24326L26.1954 3.38036C25.992 3.51305 25.7443 3.64573 25.4524 3.77399C25.0146 3.96418 24.5767 4.15436 24.1477 4.33569C24.1963 4.2782 24.245 4.22512 24.2981 4.17647C24.3777 4.10571 24.4307 4.05705 24.4661 4.02609C24.6784 3.87572 24.9703 3.73419 25.3463 3.59266C25.8991 3.38921 26.2043 3.26979 26.2706 3.24326ZM27.8186 7.56435C27.8186 7.69703 27.7965 7.80319 27.7567 7.87395C27.7125 7.94472 27.655 7.98894 27.5754 8.00221C27.5134 8.02432 27.4559 8.0199 27.4073 7.99336C27.3586 7.96683 27.3277 7.91818 27.31 7.85626C27.31 7.47589 27.3985 7.15745 27.5754 6.90093C27.5179 7.09995 27.4648 7.29456 27.4161 7.48474C27.4161 7.58204 27.4559 7.6705 27.5311 7.74127C27.5886 7.7678 27.6461 7.75895 27.6992 7.7103C27.7567 7.63954 27.7965 7.59531 27.8142 7.5732L27.8186 7.56435ZM29.3578 7.3211C29.3356 7.13092 29.2472 6.63998 29.0924 5.84387C28.9774 5.2689 28.9243 4.79124 28.9243 4.40203L29.3578 4.96373C29.3312 4.68067 29.2383 4.36223 29.0835 4.0084C28.9287 3.65458 28.7784 3.31844 28.6368 3C28.5395 3.08403 28.4644 3.18576 28.4201 3.30075C28.3759 3.41574 28.3317 3.57054 28.2874 3.76073C28.4024 4.31358 28.5174 4.88412 28.6368 5.46794C28.7563 6.05617 28.8624 6.61787 28.9509 7.16188C29.0393 7.70146 29.1101 8.22778 29.1587 8.7364C28.9464 8.92658 28.7165 9.07253 28.4688 9.17868C28.2211 9.28041 27.9646 9.33348 27.7036 9.33348C27.5488 9.33348 27.4117 9.32021 27.2879 9.28925C27.1596 9.20522 26.337 8.57275 24.8155 7.40071C24.2715 6.98496 23.7717 6.63998 23.3206 6.37019C24.0283 5.92348 24.6917 5.55639 25.3065 5.26448C26.0495 4.9195 26.766 4.66298 27.4604 4.49934C27.5577 4.50818 27.6152 4.57453 27.6284 4.70279C27.5311 4.95931 27.3011 5.32641 26.9429 5.80849C26.5847 6.29058 26.3591 6.67537 26.2706 6.96727C26.6377 6.52057 26.8766 6.23308 26.9827 6.09598C27.1685 5.86157 27.2967 5.68465 27.3763 5.56524C27.4913 5.33967 27.6063 5.10526 27.7213 4.85758C27.8363 4.61433 27.8982 4.38876 27.8982 4.18531C27.8982 4.05263 27.8717 3.92879 27.823 3.82265C27.7877 3.8138 27.7346 3.8138 27.6638 3.8138C27.4294 3.8138 27.1198 3.88899 26.7306 4.03494C26.4829 4.12782 26.306 4.18974 26.1999 4.22512C25.6559 4.46396 25.1119 4.70721 24.5767 4.94604C23.931 5.24237 23.4533 5.5785 23.1349 5.95444C23.0862 5.48562 23.0375 4.99912 22.9845 4.49492C22.9358 3.99071 22.8872 3.54843 22.8341 3.17249C22.7766 3.20787 22.728 3.26979 22.6793 3.36267C22.6351 3.45555 22.5776 3.59266 22.5157 3.77841C22.6351 4.78239 22.7589 5.81734 22.8872 6.88324C23.0154 7.94914 23.0774 8.93101 23.0774 9.82884C23.0995 10.1119 23.1658 10.3684 23.2808 10.5984C23.3958 10.8284 23.5683 10.992 23.8027 11.0938C23.9 11.107 23.9708 11.1159 24.015 11.1159C24.2273 11.1159 24.4484 11.0584 24.6828 10.9478C24.8332 10.877 25.0278 10.7576 25.2667 10.5851C25.4789 10.4657 25.6559 10.2755 25.7974 10.0234C25.9035 9.8023 26.0097 9.58116 26.1158 9.35559C26.3547 9.54135 26.5448 9.67846 26.6775 9.77134C26.8898 9.91287 27.0889 10.019 27.2702 10.0898C27.3675 10.1119 27.4648 10.1207 27.5577 10.1207C27.7567 10.1207 27.9646 10.0809 28.1857 10.0057C28.3361 9.9571 28.5174 9.87306 28.7386 9.76249C28.9951 9.61212 29.1764 9.38655 29.2914 9.08138C29.3843 8.8337 29.4285 8.52853 29.4285 8.17028C29.4285 8.04202 29.4285 7.9226 29.4197 7.81645C29.4108 7.70588 29.3931 7.54224 29.3666 7.3211H29.3578ZM21.8965 4.11455C21.9318 4.26935 21.8788 4.42415 21.7372 4.58337C21.7019 4.59222 21.6709 4.58337 21.6399 4.56126C21.578 4.48164 21.5338 4.42857 21.5117 4.40203C21.4896 4.32242 21.4807 4.25166 21.4807 4.18089C21.4807 4.04821 21.5073 3.9111 21.5647 3.77841C21.6001 3.69438 21.6665 3.57497 21.7682 3.42901C21.7195 3.57054 21.6797 3.68996 21.6532 3.79168C21.6267 3.88898 21.609 3.96417 21.609 4.01282C21.609 4.11897 21.6532 4.21185 21.7372 4.28704C21.7815 4.29589 21.8168 4.26935 21.8434 4.21186C21.8699 4.15436 21.8876 4.1234 21.8965 4.11455ZM27.2879 11.567C27.2613 11.6864 27.226 11.7881 27.1906 11.8633C27.1552 11.9429 27.0933 12.0049 27.0092 12.0535C26.8766 12.0756 26.7969 12.0402 26.7793 11.9518C26.7616 11.8633 26.7527 11.7881 26.7527 11.7218C26.7527 11.5714 26.7925 11.4078 26.8677 11.222C26.9385 11.0893 26.9827 10.992 27.0048 10.9345C26.996 10.9832 26.9783 11.0805 26.9473 11.2265C26.9164 11.3724 26.8987 11.4609 26.8987 11.4962C26.8987 11.6112 26.9341 11.7041 27.0048 11.7837C27.0844 11.8058 27.1375 11.7749 27.1685 11.6953C27.1994 11.6157 27.2392 11.5714 27.279 11.5626L27.2879 11.567ZM20.6536 5.12296L20.3042 5.73773C20.2777 5.70235 20.1539 5.62273 19.9327 5.49447C19.7824 5.40159 19.7116 5.29987 19.7116 5.18488L20.0521 4.64529C20.2069 4.70279 20.3308 4.76029 20.4237 4.82663C20.5563 4.91951 20.636 5.01681 20.6581 5.12296H20.6536ZM19.9637 3.28748C19.9372 3.1946 19.8752 3.13711 19.7824 3.10615C19.6408 3.14153 19.5214 3.21229 19.4285 3.32286C19.3312 3.43343 19.2693 3.5617 19.2339 3.71207C19.2605 3.77399 19.3312 3.83592 19.4418 3.89341C19.5524 3.95091 19.6187 3.99071 19.6497 4.02167C19.4285 4.32685 19.1499 4.64529 18.8093 4.977C18.7386 5.04777 18.4334 5.3264 17.8982 5.81734C18.2432 5.60504 18.5838 5.34409 18.9155 5.03007C19.2472 4.72048 19.5258 4.39319 19.7558 4.05263C19.7824 4.05263 19.8177 4.0659 19.8531 4.08801C19.8885 4.11455 19.915 4.11455 19.9372 4.09244C19.9858 4.01283 20.0123 3.95533 20.0123 3.9111C20.0123 3.84034 19.9681 3.79169 19.8752 3.76073C19.9195 3.70323 19.946 3.65458 19.9548 3.60592C19.9637 3.5617 19.9725 3.49535 19.9725 3.41132V3.28306L19.9637 3.28748ZM17.3321 4.09244C17.3763 4.22512 17.3454 4.36223 17.2481 4.49492C17.2038 4.54357 17.1596 4.5701 17.111 4.5701C17.0844 4.5701 17.0314 4.54799 16.9606 4.50818C16.8677 4.42415 16.8235 4.30031 16.8235 4.13666V4.0084C16.8368 3.95091 16.8456 3.9111 16.8456 3.89341L17.164 3.28748C17.0844 3.52189 17.0137 3.7563 16.9429 3.98629C16.9429 4.1057 16.996 4.20743 17.1021 4.28262C17.1596 4.29146 17.2038 4.27377 17.2392 4.23396C17.2746 4.19416 17.3056 4.14551 17.3365 4.09244H17.3321ZM19.0526 6.92747C19.0393 7.05573 19.0216 7.15745 18.9995 7.22822C18.9774 7.3034 18.9376 7.36975 18.8713 7.43609C18.7209 7.43609 18.628 7.36974 18.5838 7.23264C18.5749 7.2061 18.5749 7.16187 18.5749 7.10438C18.5749 6.93631 18.628 6.73729 18.7341 6.51172C18.7916 6.39673 18.8491 6.28173 18.9022 6.16231C18.8314 6.39672 18.7651 6.62671 18.6988 6.85227C18.6988 6.92304 18.7076 6.97612 18.7209 7.01592C18.7341 7.05573 18.7784 7.10438 18.8491 7.15745C18.8934 7.1486 18.9287 7.11322 18.9597 7.04688C18.9907 6.98054 19.0216 6.94073 19.0482 6.92304L19.0526 6.92747ZM22.7678 11.8191C22.7766 11.8766 22.7589 11.9474 22.7235 12.0314C22.6881 12.1154 22.6439 12.195 22.5864 12.2658C22.5245 12.2658 22.4714 12.2393 22.436 12.1906C22.4007 12.142 22.3697 12.0756 22.3387 12.0004C22.3609 11.7881 22.4007 11.598 22.4626 11.4255C22.5245 11.2574 22.6085 11.0938 22.7235 10.939C22.6306 11.1424 22.582 11.2574 22.5732 11.2795C22.5157 11.4299 22.4891 11.5582 22.4891 11.6732C22.4891 11.7881 22.5201 11.8943 22.5864 12.0004C22.6351 12.0093 22.6749 11.9827 22.697 11.9253C22.7235 11.8678 22.7456 11.8324 22.7678 11.8191ZM22.0557 11.0142C22.069 11.0716 22.0557 11.1291 22.007 11.1955C21.9628 11.2574 21.9009 11.3016 21.8301 11.3237C21.4674 11.4785 21.1004 11.6422 20.7244 11.8058C20.3485 11.9739 20.0079 12.1597 19.6939 12.372C19.6939 12.2791 19.7293 12.1862 19.7956 12.0977C19.862 12.0049 19.946 11.9429 20.0433 11.9076L22.0513 11.0142H22.0557ZM13.785 3.46882L13.7408 3.71207C13.7142 3.71207 13.6479 3.67669 13.5506 3.60592C13.5019 3.57054 13.4533 3.55285 13.4135 3.55285C13.3648 3.91552 13.3162 4.26935 13.2631 4.62317C13.2277 4.58779 13.1172 4.41973 12.9358 4.11455C12.8031 3.88899 12.6483 3.76073 12.4803 3.73419C12.4891 3.63689 12.498 3.55286 12.5068 3.48651C12.5157 3.42017 12.5599 3.36709 12.6395 3.33171C12.7589 3.41132 12.8695 3.53958 12.9668 3.72534C13.0464 3.88014 13.126 4.03494 13.21 4.18089C13.2322 4.02609 13.2587 3.86688 13.2896 3.70765C13.3206 3.54843 13.3693 3.4069 13.4312 3.27864C13.4931 3.26537 13.5462 3.26537 13.586 3.28306C13.6258 3.30075 13.6921 3.36267 13.7806 3.46882H13.785ZM21.693 8.0774C21.5603 7.72357 21.3834 7.43166 21.1711 7.2061C20.9013 6.92304 20.6006 6.78151 20.2689 6.78151C20.0079 6.96727 19.8089 7.19726 19.6674 7.48032C19.5303 7.76338 19.4595 8.05528 19.4595 8.36046C19.5303 8.55948 19.6541 8.68775 19.831 8.75409C19.9504 8.79832 20.1406 8.81601 20.3927 8.81601H20.5608C20.8173 8.81601 21.0119 8.84255 21.149 8.89562C21.2861 8.9487 21.379 9.07253 21.4188 9.27156C21.1977 9.38655 20.7952 9.56789 20.2069 9.82441C19.3312 10.2048 18.6855 10.5586 18.2742 10.877C18.1194 10.9832 17.8628 11.2264 17.509 11.6112C16.965 12.2039 16.4918 12.5046 16.0981 12.5046H15.9743C15.9345 12.5046 15.8947 12.4958 15.8505 12.4825C15.7664 12.425 15.7089 12.3631 15.6736 12.2923C15.6426 12.2216 15.6249 12.142 15.6249 12.0579C15.6957 11.766 15.7709 11.483 15.846 11.1999C16.1556 11.0141 16.4741 10.8284 16.7925 10.6382C17.4515 10.2402 17.8319 9.79788 17.938 9.30252C18.0309 9.13888 18.0751 8.95754 18.0751 8.74967C18.0751 8.5816 18.0486 8.40469 17.9911 8.22335C17.9336 8.04202 17.8628 7.86068 17.7788 7.67492C17.6638 7.51127 17.5577 7.38744 17.4515 7.3034C17.3011 7.18841 17.1508 7.13534 16.996 7.13534C16.9252 7.13534 16.8677 7.14418 16.8279 7.15745C16.6421 7.32109 16.4962 7.5157 16.3856 7.74569C16.2751 7.97567 16.1866 8.23662 16.1158 8.52411C16.1733 8.86909 16.4166 9.05926 16.8544 9.0858C17.2879 9.11234 17.5577 9.14772 17.655 9.19195C17.6771 9.21406 17.6859 9.2406 17.6859 9.27599C17.6859 9.34675 17.655 9.42194 17.5886 9.49713C16.7748 10.05 15.8107 10.6028 14.6917 11.1645C13.6921 11.6333 12.7014 12.1022 11.7107 12.5754C12.3211 12.4471 12.7899 12.341 13.1216 12.257C13.6523 12.1243 14.1123 11.9872 14.5015 11.8545C14.9836 11.6864 15.4126 11.4918 15.7841 11.2795C15.6647 11.5891 15.5984 11.7705 15.5807 11.8191C15.5188 12.0226 15.4834 12.2172 15.4834 12.4029C15.4834 12.4295 15.4834 12.4825 15.4922 12.5533C15.5188 12.6462 15.5762 12.7214 15.6559 12.7877C15.7355 12.8496 15.8195 12.9115 15.9035 12.969C15.9876 12.9912 16.0716 13 16.1601 13C16.5493 13 17.0225 12.7214 17.5842 12.1597C17.9469 11.797 18.2034 11.567 18.3582 11.4609C19.3578 10.9522 20.3529 10.4392 21.3525 9.92171C21.3967 9.82441 21.4674 9.66519 21.5736 9.44405C21.7151 9.11234 21.7859 8.8337 21.7859 8.60371C21.7859 8.41353 21.7461 8.23662 21.6709 8.07298L21.693 8.0774ZM12.6616 5.39275C12.6041 5.63158 12.5687 5.77311 12.5555 5.80849C12.498 5.96329 12.4228 6.06943 12.3211 6.12693C12.2945 6.04732 12.1884 5.97213 12.0026 5.89252C11.8168 5.81291 11.7461 5.70676 11.7903 5.57408L12.0778 5.02123C12.1751 5.06988 12.2768 5.12295 12.3785 5.17603C12.4803 5.2291 12.5732 5.29987 12.6616 5.39275ZM10.1893 6.6046C10.2335 6.68863 10.2512 6.79478 10.2512 6.92304C10.2512 7.07342 10.2202 7.23264 10.1539 7.40955C10.0964 7.53782 10.0566 7.62627 10.0389 7.67492C9.94157 7.73684 9.84427 7.77222 9.75139 7.77222C9.67178 7.77222 9.61428 7.75453 9.57006 7.71915C9.45064 7.56435 9.35776 7.39186 9.30026 7.19726C9.23834 7.00708 9.21181 6.8169 9.21181 6.62229C9.21181 6.27731 9.30469 5.87041 9.48602 5.41044C9.54794 5.24237 9.72485 4.86643 10.0168 4.28704C10.0433 4.26051 10.0743 4.24281 10.1008 4.24281C9.89734 4.88854 9.69389 5.52985 9.49487 6.17558C9.49487 6.48518 9.60986 6.7594 9.84427 6.99381C9.95042 6.97169 10.0212 6.94958 10.0566 6.92304C10.0919 6.8965 10.1141 6.86112 10.1185 6.81247C10.1185 6.73286 10.1406 6.6621 10.1804 6.60018L10.1893 6.6046ZM12.5555 7.81645L12.5024 8.05971C12.4582 8.05086 12.4007 8.02433 12.3255 7.97567C12.2503 7.92702 12.1928 7.90049 12.1486 7.90049C12.122 7.96241 12.0645 8.21008 11.9805 8.64352C11.9451 8.82043 11.8965 8.95754 11.8301 9.05926C11.8036 9.03273 11.7461 8.90447 11.6665 8.68333C11.5869 8.46219 11.4807 8.34719 11.3525 8.34719C11.3303 8.34719 11.2905 8.35604 11.2375 8.36931C11.18 8.33392 11.1534 8.27642 11.1534 8.20124C11.1534 8.1747 11.1623 8.12163 11.1755 8.05086C11.1888 7.9801 11.1977 7.93145 11.1977 7.90049C11.2684 7.82972 11.3215 7.80318 11.3569 7.81645C11.4896 7.91375 11.5957 8.05086 11.6665 8.22335C11.7372 8.39584 11.808 8.56391 11.8788 8.72755C11.923 8.43122 11.954 8.21008 11.9761 8.06855C12.0247 7.8076 12.1441 7.66165 12.3255 7.63512C12.4051 7.69703 12.4803 7.75896 12.5599 7.81645H12.5555ZM15.5364 7.17072C15.4878 7.17072 15.4391 7.13976 15.3861 7.07341C15.3374 7.0115 15.2888 6.97612 15.249 6.97612C15.2136 7.04688 15.1959 7.13091 15.1959 7.23264C15.1959 7.32552 15.249 7.52012 15.3551 7.81645C15.4126 7.9801 15.4391 8.10393 15.4391 8.18797C15.4391 8.70544 15.3374 9.15214 15.1295 9.53693C14.904 9.95268 14.5723 10.2534 14.1433 10.4392C13.4135 10.877 12.7899 11.1822 12.2768 11.3503C11.8301 11.5007 11.4188 11.5714 11.034 11.5714C10.7731 11.5714 10.5342 11.5449 10.3175 11.4918C10.1008 11.4387 9.87523 11.3459 9.64524 11.2088C9.21181 10.877 8.99951 10.4392 8.99951 9.89076C8.99951 9.79788 8.99951 9.72711 9.00836 9.67846C9.10566 9.24503 9.18527 8.92658 9.24277 8.71428C9.34007 8.34719 9.46391 8.04644 9.61428 7.81203C9.60544 7.84741 9.55236 8.02875 9.45506 8.35162C9.33565 8.75409 9.27373 9.08138 9.27373 9.32906C9.27373 9.47943 9.29142 9.61654 9.3268 9.74922C9.36218 9.88191 9.4241 10.0057 9.51698 10.1252C9.70716 10.3596 9.93273 10.5321 10.1848 10.6515C10.4369 10.7709 10.7244 10.8284 11.034 10.8284H11.2153C11.264 10.8195 11.2994 10.8195 11.3215 10.8195C12.0026 10.7399 12.6749 10.5321 13.3471 10.1915C13.8779 9.91729 14.4794 9.51482 15.1517 8.99292C14.9747 8.26316 14.8023 7.53339 14.6298 6.79478C14.6298 6.63114 14.6475 6.48518 14.6873 6.34807C14.7271 6.21539 14.7934 6.07829 14.8819 5.9456C15.0588 6.18001 15.1915 6.3525 15.2843 6.46749C15.4524 6.68863 15.5409 6.88766 15.5409 7.07341C15.532 7.11764 15.532 7.1486 15.532 7.17072H15.5364ZM19.7514 3.72092L19.5922 3.64131C19.5303 3.61035 19.4772 3.57939 19.4418 3.55285C19.5037 3.45997 19.5745 3.41575 19.6541 3.41575C19.7027 3.41575 19.7337 3.44671 19.7514 3.51305V3.72534V3.72092ZM25.7266 9.39982C25.4922 9.67404 25.2534 9.88633 25.0057 10.0367C24.7094 10.2136 24.4042 10.3021 24.0946 10.3021C24.0017 10.3021 23.931 10.3021 23.8823 10.2932C23.4931 9.98364 23.2941 9.43962 23.2808 8.67005C23.272 7.90048 23.2543 7.44494 23.2322 7.31225C24.1388 7.90049 24.5944 8.19682 24.6032 8.20566C25.1119 8.5816 25.4878 8.97965 25.7266 9.40424V9.39982ZM20.8969 8.04201C20.8704 8.04201 20.8217 8.05086 20.7598 8.06413H20.6094C20.4458 8.06413 20.3042 8.04201 20.1804 7.99336C20.0566 7.94913 19.9593 7.8651 19.8885 7.74569C19.9018 7.72357 19.9283 7.68377 19.9637 7.61743C19.9991 7.5732 20.0389 7.55551 20.0787 7.55551C20.3839 7.59974 20.6536 7.75895 20.8969 8.04201ZM17.3321 8.30739H17.1508C17.0314 8.30739 16.9208 8.28969 16.8279 8.25873C16.735 8.22778 16.6643 8.17028 16.62 8.08182C16.62 7.98452 16.6598 7.9226 16.735 7.90049C16.8677 7.90049 16.9916 7.94471 17.0977 8.02875C17.1773 8.09067 17.2525 8.18355 17.3321 8.30297V8.30739Z" fill="currentColor"/>
</svg>
