<svg width="40" height="16" viewBox="0 0 40 16" fill="none" xmlns="http://www.w3.org/2000/svg">
<path fill-rule="evenodd" clip-rule="evenodd" d="M27.495 7.13975C27.495 7.31974 27.4209 7.48915 27.278 7.65855C27.2092 7.65855 27.1615 7.64796 27.1245 7.62149C27.0503 7.56855 27.0027 7.48915 26.9868 7.37798C26.9762 7.30916 26.9762 7.26151 26.9762 7.24033C26.9762 7.10269 26.9974 6.97565 27.0345 6.85389C27.0715 6.73214 27.1298 6.60507 27.2039 6.47802C27.2039 6.53625 27.2039 6.5945 27.1933 6.64214C27.1615 6.8539 27.1403 6.98624 27.1403 7.03388C27.1403 7.09211 27.1456 7.15564 27.1615 7.21917C27.1721 7.28269 27.2197 7.33563 27.2939 7.37798C27.3468 7.36209 27.3839 7.31974 27.4156 7.25621C27.4474 7.19269 27.4738 7.15035 27.5003 7.13447L27.495 7.13975ZM24.7369 3.35468C24.7528 3.41291 24.7369 3.47644 24.684 3.53996C24.6311 3.60349 24.5728 3.64584 24.504 3.66173C24.1335 3.80466 23.7258 3.97934 23.2864 4.18051C22.7518 4.43461 22.3494 4.6252 22.0795 4.75225C22.053 4.7099 22.0636 4.65696 22.1059 4.59873C22.1165 4.58814 22.1589 4.54049 22.233 4.4452C23.0641 4.07993 23.8952 3.71466 24.7369 3.35468ZM29.5278 5.48808C29.4855 5.19163 29.3796 4.81578 29.2102 4.35521C29.1149 4.1117 28.9773 3.74643 28.792 3.26469C28.792 3.27528 28.7073 3.39173 28.5379 3.61937C28.4373 3.7623 28.3844 3.88935 28.3844 4.00052C28.3844 4.06934 28.4003 4.13288 28.4373 4.19111L28.8185 9.79195L28.7814 9.84489C28.215 9.76019 27.675 9.65431 27.1615 9.52196C26.648 9.38962 26.161 9.23611 25.6951 9.05612C25.7692 8.86025 25.8275 8.71201 25.8592 8.61143C25.9439 8.34144 25.9863 8.07676 25.9863 7.82265V7.66913C25.9863 7.61619 25.9863 7.56856 25.9757 7.51562C25.9757 7.2774 25.9439 6.96506 25.8751 6.57332C25.7375 5.79513 25.674 5.30281 25.674 5.10164C25.674 4.90048 25.6898 4.7152 25.7269 4.55638C25.8116 4.65167 25.8963 4.76284 25.981 4.90048C26.0128 4.9693 26.0551 5.03812 26.0975 5.10164C26.0975 4.80519 26.0181 4.46638 25.8539 4.08522C25.7692 3.87347 25.6263 3.55585 25.4199 3.13235C25.3087 3.1747 25.224 3.26998 25.1657 3.4235C25.1075 3.57702 25.0546 3.71996 25.0122 3.85759C25.0387 4.10111 25.1605 4.88459 25.3828 6.19745C25.5416 7.16092 25.6263 7.96029 25.6263 8.58496C25.1605 8.6432 24.6046 8.67497 23.9641 8.67497H23.4558C23.4029 8.8126 23.3553 8.95024 23.3023 9.08788C23.2494 9.22552 23.2282 9.35257 23.2282 9.46374C23.6782 9.46374 24.1493 9.52726 24.6522 9.65431C25.0599 9.75489 25.4993 9.90313 25.9757 10.099C25.4781 10.2949 25.1657 10.4113 25.0493 10.4537C24.4564 10.6654 23.927 10.7978 23.4611 10.8454C23.08 10.8454 22.7412 10.7872 22.45 10.6654C22.1589 10.549 21.9206 10.3531 21.7459 10.0831C21.566 9.45845 21.4389 8.70673 21.3648 7.83325C21.3489 7.66385 21.3066 6.99153 21.243 5.81101C21.1795 4.63579 21.0948 3.76759 20.9942 3.20645C20.7984 3.44467 20.6766 3.69878 20.6237 3.96876C20.7401 4.54579 20.8354 5.42985 20.8989 6.61567C20.9625 7.80677 21.0048 8.4791 21.0207 8.62732C21.1054 9.5061 21.243 10.2472 21.4389 10.8401C21.6083 11.1366 21.8201 11.3483 22.0742 11.4807C22.3283 11.613 22.6247 11.6765 22.9635 11.6765C23.0641 11.6765 23.1435 11.6766 23.1912 11.666C23.5882 11.6236 24.1493 11.4754 24.8693 11.2213C25.2769 11.0784 25.5998 10.9672 25.8328 10.8931C26.1822 10.7766 26.4892 10.6866 26.7645 10.6337C27.0398 10.5807 27.3362 10.549 27.6591 10.549C27.8127 10.549 27.9768 10.5596 28.1462 10.5754C28.3209 10.5913 28.4744 10.6178 28.612 10.6495C28.612 10.5384 28.6279 10.4484 28.665 10.369C28.6967 10.2949 28.755 10.2102 28.8291 10.1149C28.8291 10.4537 28.8132 10.7872 28.7867 11.1101C28.755 11.4383 28.702 11.7242 28.6173 11.9783C28.8555 11.6395 29.0143 11.2901 29.099 10.9248C29.1838 10.5596 29.2261 10.136 29.2261 9.65431C29.2261 9.43197 29.1943 8.88141 29.1361 8.00264C29.1096 7.63207 29.099 7.30916 29.099 7.03918C29.099 6.88566 29.0885 6.71625 29.0726 6.53096C29.0302 6.0757 29.0091 5.78984 29.0091 5.67867C29.0091 5.3928 29.0514 5.13339 29.1361 4.90576C29.1626 4.93223 29.2208 5.03282 29.3161 5.21281C29.3743 5.32398 29.4537 5.41397 29.5437 5.4775L29.5278 5.48808ZM24.4352 7.04976C24.4617 7.12388 24.4511 7.20328 24.4087 7.28269C24.3664 7.3621 24.3082 7.44151 24.2287 7.51562C24.1123 7.54209 24.0223 7.46797 23.9641 7.29857C23.9641 6.90154 24.054 6.5045 24.2287 6.10217C24.2287 6.17628 24.2076 6.30863 24.1705 6.48862C24.1335 6.66861 24.1123 6.79566 24.1123 6.86448C24.1123 7.03388 24.1652 7.16093 24.2658 7.24563C24.3187 7.17681 24.3717 7.10799 24.4299 7.04446L24.4352 7.04976ZM23.2547 6.53096C23.2229 6.76918 23.1647 6.98624 23.0906 7.18741C23.0165 7.38857 22.9053 7.57915 22.7624 7.76443C22.9847 7.39386 23.0906 6.98094 23.0906 6.53096C23.1065 6.40391 23.0482 6.24511 22.9212 6.05982C22.7888 5.87454 22.7253 5.74218 22.7253 5.66807C22.7253 5.61513 22.7465 5.5569 22.7888 5.48808C23.1012 5.7316 23.26 6.08099 23.26 6.53096H23.2547ZM27.8921 12.1847C27.5374 12.7247 27.0133 13 26.3145 13C26.1875 13 26.0922 13 26.0233 12.9894C25.8539 12.9577 25.7534 12.8729 25.7163 12.7353C25.7322 12.5553 25.801 12.4071 25.9175 12.2801C26.0339 12.153 26.1875 12.0471 26.3727 11.9624C26.3463 11.9201 26.3092 11.8883 26.2563 11.8724C26.2033 11.8565 26.1557 11.846 26.1028 11.846H25.9492L25.8751 11.883L25.8486 11.8565C25.9175 11.6765 26.0498 11.5918 26.2563 11.5918C26.2827 11.5918 26.3357 11.6024 26.4204 11.6183L26.6639 11.7718C26.6639 11.9148 26.5368 12.0577 26.2827 12.19C26.0286 12.3277 25.9016 12.423 25.9016 12.4812C25.9016 12.5553 25.9969 12.64 26.1822 12.7353C26.5633 12.7353 26.8862 12.6983 27.1456 12.6188C27.4103 12.5447 27.6538 12.3965 27.8815 12.1847H27.8921ZM19.4167 3C19.4273 3.06882 19.3955 3.12704 19.332 3.18527C19.2684 3.23821 19.1943 3.28056 19.1096 3.30703C18.6702 3.44997 18.1938 3.62467 17.6856 3.82583C17.2515 3.99524 16.7856 4.1964 16.288 4.42404C16.2721 4.35522 16.288 4.28639 16.3463 4.22287C16.3992 4.15405 16.4733 4.09582 16.5686 4.04288C17.5162 3.69349 18.4638 3.34939 19.4167 3ZM19.3267 4.72577C19.2949 4.83694 19.2367 4.95341 19.1626 5.07516C19.0885 5.19692 19.0038 5.3081 18.9191 5.41398C18.6914 5.28693 18.4638 5.15457 18.2309 5.02222C18.1885 5.04869 18.125 5.1387 18.035 5.29751C17.945 5.45633 17.8656 5.53044 17.7862 5.53044C17.7332 5.53044 17.675 5.50927 17.6062 5.46692C17.4685 5.3928 17.368 5.33456 17.2991 5.30279C17.1721 5.22868 17.1192 5.14399 17.1456 5.05928C17.2462 4.90576 17.3203 4.7946 17.3627 4.73107C17.458 4.59343 17.5532 4.5299 17.6538 4.5299C17.8074 4.62519 17.9185 4.68873 17.9979 4.72049C18.1409 4.7946 18.2626 4.82106 18.3685 4.79459L18.7867 4.43992L19.3214 4.73107L19.3267 4.72577ZM19.909 6.62096C19.909 6.73743 19.8931 6.84859 19.8561 6.94388C19.8243 7.03917 19.7608 7.11329 19.6655 7.16623C19.6337 7.17681 19.5914 7.15564 19.549 7.1027C19.5067 7.04977 19.4749 7.018 19.459 7.00212C19.4484 6.94918 19.4484 6.88565 19.4484 6.80095C19.4484 6.63155 19.4696 6.47274 19.512 6.32451C19.5543 6.17629 19.6231 6.00688 19.7131 5.82159C19.6972 5.89041 19.6655 6.00158 19.6178 6.16569C19.5702 6.3245 19.549 6.44627 19.549 6.52038C19.549 6.66331 19.5967 6.78506 19.6867 6.89094C19.7449 6.89094 19.7925 6.8486 19.819 6.76919C19.8508 6.68978 19.8772 6.64214 19.9037 6.62096H19.909ZM15.2981 4.89518L14.8534 5.51984L14.1546 5.06458C14.1229 5.09635 14.0646 5.19693 13.9852 5.36104C13.9058 5.52514 13.8158 5.60984 13.7258 5.60984C13.6729 5.60984 13.6305 5.59926 13.5988 5.57808C13.567 5.55691 13.4982 5.53044 13.3976 5.49338C13.2017 5.42456 13.1064 5.35574 13.1064 5.27633C13.1064 5.24457 13.117 5.20751 13.1382 5.17575C13.1594 5.14399 13.2282 5.02753 13.35 4.83165C13.4347 4.69402 13.5247 4.63049 13.6147 4.63049C13.6888 4.67284 13.7735 4.71518 13.8582 4.75753C14.0593 4.874 14.197 4.94282 14.2658 4.9587C14.3081 4.92694 14.3717 4.83165 14.4617 4.67813C14.5517 4.52461 14.6311 4.4505 14.7105 4.4505C14.7422 4.4505 14.7846 4.46109 14.8375 4.48756C14.864 4.51932 14.9487 4.57755 15.0916 4.65167C15.2346 4.72578 15.3087 4.81048 15.3087 4.89518H15.2981ZM14.0382 3.76231C14.0117 3.59291 13.9323 3.43408 13.7946 3.28585C13.657 3.13763 13.5088 3.04235 13.35 3C13.35 3.01588 13.2547 3.19586 13.0588 3.53466C12.99 3.65113 12.9635 3.7676 12.9847 3.87877C12.9847 3.93701 13.027 3.98465 13.117 4.027C13.207 4.06935 13.2547 4.09051 13.2653 4.09581C13.1117 4.31815 12.8947 4.56167 12.6194 4.83165C12.6088 4.84224 12.3759 5.06458 11.91 5.50396C12.1906 5.37691 12.4659 5.17574 12.7359 4.90576C12.9635 4.67813 13.1806 4.40815 13.3817 4.09052L13.8264 4.12758C13.9217 4.117 13.9799 4.08523 14.0064 4.0217C14.0329 3.95818 14.0435 3.87348 14.0435 3.76231H14.0382ZM16.2616 6.69507L16.2086 6.9386C16.1769 6.94918 16.1239 6.93859 16.0498 6.91742C15.9757 6.89624 15.928 6.88566 15.9016 6.88566C15.7904 7.2774 15.6792 7.65855 15.5734 8.0397C15.5628 8.02911 15.4781 7.83324 15.3193 7.4415C15.2081 7.1874 15.0652 7.06034 14.8852 7.06034C14.8587 7.06034 14.8111 7.07094 14.7475 7.08682C14.7211 7.04447 14.7211 6.99154 14.7475 6.92272C14.774 6.8539 14.8005 6.78507 14.8216 6.72155C14.9063 6.60508 14.9805 6.56803 15.0493 6.62096C15.1657 6.73743 15.2716 6.89095 15.3563 7.07094C15.441 7.25093 15.5204 7.43092 15.5998 7.60032C15.6739 7.24564 15.7163 7.06035 15.7163 7.05506C15.7692 6.86978 15.8539 6.71096 15.9704 6.5839C16.0022 6.57332 16.0445 6.5839 16.0975 6.61037C16.1504 6.63684 16.2033 6.66331 16.2616 6.70037V6.69507ZM19.5278 8.51086C19.332 8.18794 19.1255 7.94441 18.9032 7.77501C18.6226 7.56326 18.3261 7.46797 18.0138 7.49444C17.6485 7.56855 17.3838 7.79618 17.2144 8.16675C17.1033 8.39438 17.0133 8.74908 16.9498 9.22023C17.0503 9.47433 17.1933 9.64902 17.3838 9.73901C17.5109 9.79724 17.7015 9.82901 17.9556 9.82901C18.0509 9.82901 18.1409 9.82901 18.2309 9.82371C18.3209 9.82371 18.4108 9.81843 18.5061 9.81843C18.702 9.81843 18.8714 9.8396 19.0196 9.87666C19.1679 9.91371 19.3002 9.98783 19.422 10.099C19.1149 10.369 18.7867 10.5913 18.4373 10.7607C18.0879 10.9301 17.7279 11.0148 17.3627 11.0148C17.0239 11.0148 16.7062 10.9354 16.4098 10.7713C16.1663 10.6548 15.9386 10.4378 15.7375 10.1255C15.314 9.47962 15.0122 9.11964 14.8375 9.03494C14.4881 9.23611 14.1917 9.56961 13.9376 10.0249C13.2282 11.2954 12.8629 11.9412 12.8471 11.9677C12.7359 12.0365 12.6141 12.0683 12.4765 12.0683C12.4077 12.0683 12.3388 12.0577 12.2753 12.0312C11.91 11.7877 11.6507 11.4648 11.4918 11.0731C11.333 10.6813 11.2589 10.2419 11.2589 9.76019C11.2589 9.36845 11.296 8.99789 11.3754 8.6432C11.4071 8.65379 11.4654 8.67496 11.5395 8.70673C11.6083 8.72261 11.6665 8.71731 11.7195 8.68025C11.8995 8.58496 12.0318 8.44733 12.1271 8.25675C12.2224 8.06617 12.2647 7.76971 12.2647 7.37268C12.2224 7.39915 12.1641 7.47327 12.0847 7.59502C12.0106 7.71678 11.9312 7.79619 11.8571 7.82795C11.7724 7.85972 11.6877 7.85441 11.6083 7.80147C11.5289 7.74854 11.4601 7.68502 11.3965 7.60032C11.3701 7.4468 11.3542 7.33562 11.3436 7.27209C11.333 7.20327 11.333 7.11328 11.333 6.99152C11.333 6.66331 11.4071 6.18686 11.5501 5.56749C11.6189 5.27103 11.6771 5.00106 11.7301 4.75225C11.6877 4.80519 11.6559 4.86342 11.6348 4.93224C11.6136 5.00106 11.5871 5.08576 11.5501 5.18635C11.3542 5.72632 11.2324 6.09159 11.1795 6.27687C11.063 6.71096 10.9995 7.09741 10.9995 7.4468C10.9995 7.64267 11.0207 7.83854 11.063 8.0397C11.1054 8.24087 11.1689 8.41556 11.2536 8.56908C11.1107 9.07729 11.0366 9.61196 11.0366 10.1678C11.0366 10.5384 11.0736 10.909 11.153 11.2689C11.2324 11.6289 11.3489 11.9518 11.5077 12.243C11.6612 12.4442 11.8095 12.603 11.9524 12.7141C12.1377 12.8571 12.323 12.9312 12.5135 12.9312C12.5665 12.9312 12.63 12.9206 12.7147 12.9047C12.9529 12.7247 13.1541 12.4918 13.3235 12.2059C13.3923 12.0895 13.5194 11.8089 13.7046 11.3695C13.8423 11.0148 13.9746 10.7342 14.1123 10.5331C14.2923 10.2525 14.5093 10.0408 14.774 9.89784C15.4834 10.8031 15.9122 11.3166 16.0551 11.433C16.4098 11.7136 16.7909 11.8513 17.1986 11.8513C17.6538 11.8513 18.0879 11.7401 18.4955 11.5124C18.9032 11.2848 19.2473 10.9831 19.5225 10.5913C19.6178 10.3637 19.6814 10.1572 19.7237 9.97724C19.7661 9.79725 19.7872 9.60667 19.7872 9.4108C19.7872 9.25198 19.7661 9.09318 19.7237 8.93966C19.6814 8.78614 19.6178 8.64849 19.5331 8.52144L19.5278 8.51086ZM13.5935 8.4738C13.6252 8.54262 13.6305 8.61673 13.5988 8.70143C13.567 8.78613 13.5405 8.86553 13.5141 8.94494C13.4453 8.9767 13.387 8.96613 13.3341 8.9079C13.3182 8.88143 13.2811 8.82318 13.2335 8.72789C13.2176 8.66966 13.207 8.57966 13.207 8.4632C13.207 8.33615 13.2229 8.21969 13.2494 8.10852C13.2811 7.99735 13.3288 7.8703 13.3976 7.72737C13.3394 7.90736 13.3076 8.07147 13.3076 8.22499C13.3076 8.29381 13.3129 8.36262 13.3288 8.43674C13.3394 8.51085 13.387 8.58497 13.4611 8.66967L13.5882 8.47908L13.5935 8.4738ZM15.3722 12.3224C15.3722 12.5924 15.2928 12.7777 15.1287 12.8677C15.0705 12.8782 15.0228 12.8624 14.991 12.8253C14.9593 12.7883 14.9169 12.73 14.8746 12.6559C14.864 12.6241 14.864 12.5712 14.864 12.5024C14.864 12.2377 14.9593 11.9783 15.1552 11.7136C15.1552 11.7665 15.1287 11.8565 15.081 11.9942C15.0334 12.1318 15.0069 12.2377 15.0069 12.3118C15.0069 12.4389 15.0705 12.5236 15.1975 12.5659C15.2293 12.4971 15.2557 12.4441 15.2716 12.4018C15.2875 12.3594 15.3246 12.333 15.3722 12.3277V12.3224ZM13.7946 3.82053L13.5141 3.76759L13.567 3.48702C13.5988 3.51878 13.6517 3.57173 13.7205 3.64055C13.7523 3.69348 13.7788 3.75171 13.7946 3.82053ZM13.35 3.73055C13.2759 3.74114 13.2123 3.71466 13.1594 3.65643C13.1753 3.57173 13.2123 3.52938 13.2758 3.52938C13.3288 3.52938 13.35 3.57173 13.35 3.65643V3.73055ZM18.9138 8.96612C18.7973 8.97671 18.6808 8.98199 18.5644 8.99258C18.4479 9.00317 18.3314 9.00318 18.215 9.00318C18.0562 9.00318 17.9026 8.982 17.765 8.93436C17.6274 8.88671 17.5109 8.8073 17.4156 8.70143C17.3891 8.6432 17.405 8.57437 17.4685 8.50026C17.495 8.47379 17.5532 8.42614 17.6485 8.34674C17.7332 8.33085 17.8021 8.32027 17.8497 8.32027C18.0615 8.32027 18.2626 8.38381 18.4479 8.51086C18.575 8.59556 18.7338 8.74907 18.9191 8.96612H18.9138Z" fill="currentColor"/>
</svg>
