<svg width="40" height="16" viewBox="0 0 40 16" fill="none" xmlns="http://www.w3.org/2000/svg">
<path fill-rule="evenodd" clip-rule="evenodd" d="M21.5992 3.62345L21.5497 3.86096C21.5101 3.8758 21.4607 3.86096 21.3963 3.82632C21.332 3.78674 21.2825 3.7719 21.243 3.77684C21.1539 3.88075 21.0995 4.08362 21.0747 4.3805C21.05 4.68234 20.9857 4.88026 20.8719 4.97427C20.8323 4.93469 20.7482 4.76645 20.6244 4.47452C20.5354 4.26175 20.3968 4.14795 20.2088 4.12815C20.1544 4.08857 20.1247 4.02425 20.1247 3.94013C20.1247 3.89065 20.1346 3.83622 20.1544 3.76695C20.1742 3.69767 20.1841 3.65809 20.1841 3.64325C20.3573 3.69767 20.4958 3.82632 20.5997 4.02919C20.7036 4.23206 20.8026 4.42504 20.8966 4.60317C20.9065 4.58832 20.9461 4.38545 21.0153 3.99951C21.0648 3.73726 21.1638 3.55913 21.3221 3.46512C21.3617 3.47501 21.4112 3.4948 21.4706 3.53439C21.5299 3.57397 21.5695 3.60366 21.5943 3.61851L21.5992 3.62345ZM18.3681 4.905C18.2593 4.95943 18.1603 4.97427 18.0812 4.93963L17.997 4.87036C17.9426 4.95943 17.8981 5.0188 17.8684 5.05839C17.8387 5.09797 17.7942 5.12766 17.7397 5.1425C17.6853 5.15735 17.6259 5.1524 17.5666 5.12271C17.5072 5.09302 17.4429 5.03365 17.3686 4.93963C17.3686 4.71202 17.3736 4.53389 17.3884 4.41514C17.4033 4.29639 17.4478 4.17269 17.527 4.04899C17.5418 4.09847 17.5418 4.15784 17.527 4.23701C17.4874 4.46462 17.4676 4.58337 17.4676 4.59327C17.4676 4.71202 17.522 4.80109 17.6358 4.86541C17.6903 4.88026 17.7397 4.88026 17.7793 4.86047C17.8189 4.84067 17.8634 4.80604 17.908 4.7615C17.9228 4.69223 17.9228 4.59822 17.903 4.48936C17.8832 4.3805 17.8733 4.31123 17.8733 4.28649C17.8733 4.19743 17.903 4.12815 17.9575 4.07373C17.9822 4.11331 17.997 4.23206 18.0069 4.43493C18.0168 4.6378 18.1158 4.72687 18.3038 4.70213C18.3187 4.66254 18.3187 4.61306 18.3038 4.54874C18.2494 4.36071 18.2197 4.26175 18.2197 4.25186C18.2197 4.18753 18.2494 4.12815 18.3038 4.07373C18.3978 4.23206 18.4473 4.4003 18.4473 4.58337C18.4473 4.68728 18.4226 4.79119 18.378 4.905H18.3681ZM23.9001 11.1148C23.8605 11.2434 23.806 11.3622 23.7318 11.476C23.6625 11.5898 23.5735 11.6789 23.4696 11.7432C23.4399 11.6739 23.3261 11.5948 23.1331 11.5057C22.9401 11.4166 22.8412 11.3375 22.8412 11.2583C22.8412 11.194 22.8857 11.1197 22.9698 11.0307C23.0341 10.9367 23.0886 10.8624 23.1381 10.8179C23.2172 10.7387 23.2914 10.6992 23.3657 10.6992C23.4448 10.6992 23.5141 10.7437 23.5784 10.8278C23.7071 10.9169 23.7863 10.9713 23.8159 11.001C23.8456 11.0307 23.8753 11.0653 23.9001 11.1148ZM26.2751 8.53686C26.2207 8.51212 26.1366 8.50223 26.0178 8.50223C25.8991 8.50223 25.8199 8.49233 25.7754 8.46759L25.429 4.63286L25.5131 4.60811C25.5923 4.61801 25.6566 4.66749 25.7011 4.76645C25.7506 4.86541 25.7803 4.92479 25.7952 4.93963C25.7952 4.67244 25.7259 4.34587 25.5824 3.96487C25.4537 3.66304 25.335 3.36121 25.2162 3.06432C25.2063 3.08906 25.142 3.19297 25.0134 3.38595C24.9243 3.51954 24.8847 3.63335 24.8847 3.73231C24.8847 3.83127 24.9194 3.91539 24.9936 3.99456L25.4092 8.48243C25.0431 8.48243 24.6621 8.43295 24.2563 8.33894C24.1079 8.29936 23.7417 8.19545 23.1628 8.03216C23.2271 7.84908 23.2667 7.69569 23.2865 7.5621C23.3063 7.43345 23.3162 7.25532 23.3162 7.03266C23.3162 6.80999 23.2914 6.50816 23.2469 6.14201C23.143 5.36022 23.0935 4.87036 23.0935 4.68234C23.0935 4.63286 23.0935 4.57348 23.0985 4.49431C23.0985 4.41514 23.1084 4.34092 23.1183 4.2667L23.524 4.70708C23.5388 4.6576 23.5487 4.58832 23.5487 4.49431C23.5487 4.28154 23.4745 4.02425 23.3211 3.72241C23.1875 3.48491 23.0539 3.24245 22.9302 3C22.8412 3.08906 22.7719 3.18803 22.7175 3.30678C22.7026 3.33647 22.6581 3.44532 22.5888 3.6284C22.7323 4.95943 22.8758 6.2855 23.0144 7.60663C22.7769 7.6858 22.5591 7.73033 22.3563 7.74518C22.1534 7.75507 21.9555 7.76497 21.7576 7.76497C21.624 7.76497 21.4904 7.76497 21.3617 7.76002C21.2331 7.76002 21.0995 7.75507 20.9659 7.75507C20.9114 7.91341 20.857 8.0668 20.7976 8.22019C20.7729 8.3142 20.7679 8.40821 20.7729 8.49233C21.1984 8.49233 21.6141 8.53192 22.0099 8.60614C22.4057 8.68036 22.8164 8.78427 23.2469 8.90797C22.9302 9.04156 22.6185 9.17516 22.3068 9.29886C21.6883 9.54626 21.144 9.66502 20.669 9.66502C20.5403 9.66502 20.4117 9.66007 20.2731 9.64523C20.1346 9.63533 19.9763 9.54132 19.7932 9.36813C19.6101 9.19495 19.5012 9.00198 19.4617 8.79911L19.1895 9.52152C19.1994 9.56111 19.2588 9.72934 19.3676 10.0213C19.4468 10.234 19.4864 10.4122 19.4864 10.5557C19.0262 10.9762 18.5017 11.3226 17.908 11.5997C17.4429 11.8125 16.854 12.0153 16.1514 12.2034C15.9634 12.2281 15.7704 12.238 15.5824 12.238C15.1964 12.238 14.8402 12.1786 14.5136 12.0648C14.187 11.951 13.91 11.763 13.6724 11.5007C13.529 11.3523 13.4349 11.2088 13.3805 11.0752C13.331 10.9416 13.3013 10.7833 13.3013 10.6002C13.3013 10.3231 13.3855 9.98169 13.5487 9.5809C13.6378 9.35824 13.7665 9.04651 13.9396 8.64077C13.9693 8.64077 14.0139 8.65067 14.0683 8.66551C14.1227 8.68036 14.1673 8.68036 14.1969 8.66551C14.3305 8.5616 14.4344 8.43295 14.4988 8.27462C14.568 8.11628 14.5977 7.94805 14.5977 7.77486C14.5977 7.74518 14.5977 7.69075 14.5878 7.62147L14.5631 7.67095C14.5235 7.75012 14.479 7.8194 14.4245 7.87382C14.3751 7.92825 14.3157 7.94805 14.2514 7.9332C14.1326 7.81445 14.0485 7.69075 14.004 7.56705C13.9545 7.4384 13.9347 7.3048 13.9347 7.16131C13.9347 6.93864 14.0089 6.65166 14.1623 6.2954C14.2811 6.0282 14.4048 5.75606 14.5285 5.48887C14.2613 5.85502 14.0485 6.21128 13.9001 6.55764C13.717 6.97823 13.6279 7.37902 13.6279 7.76992C13.6279 8.0569 13.6774 8.32905 13.7813 8.59129C13.5537 9.0663 13.336 9.59574 13.1282 10.1846C13.0787 10.3676 13.049 10.5309 13.0292 10.6695C13.0094 10.813 12.9995 10.9565 12.9995 11.095C12.9995 11.3622 13.049 11.6145 13.148 11.8422C13.2469 12.0698 13.4102 12.2677 13.6428 12.426C13.905 12.6239 14.1771 12.7674 14.4691 12.8615C14.7561 12.9505 15.0628 13 15.3795 13C15.9189 13 16.5225 12.8615 17.1955 12.5844C17.7101 12.3716 18.2543 12.0797 18.8234 11.7185C19.0856 11.5849 19.3033 11.3721 19.4765 11.0752C19.6052 10.813 19.7289 10.5507 19.8575 10.2934C20.0257 10.3231 20.2088 10.3429 20.4166 10.3429C20.7036 10.3429 21.0005 10.3033 21.3172 10.2291C21.6339 10.1549 22.0792 9.99654 22.6482 9.75903C23.0985 9.57595 23.4597 9.4473 23.7269 9.36813C24.1376 9.24938 24.5186 9.19001 24.8649 9.19001C25.0876 9.19001 25.2905 9.20485 25.4686 9.23949C25.5082 9.36813 25.528 9.52152 25.528 9.7046C25.528 9.72934 25.528 9.81346 25.5181 9.96685C25.5082 10.1153 25.5082 10.2538 25.5082 10.3726C25.5082 10.4023 25.5082 10.4518 25.5131 10.521C25.5131 10.5903 25.523 10.6447 25.5329 10.6942C25.6269 10.4171 25.7011 10.1153 25.7457 9.79367C25.7704 9.61059 25.7952 9.42751 25.815 9.24938C25.9238 9.2098 26.0228 9.11578 26.1118 8.9624C26.1415 8.91291 26.2009 8.78427 26.29 8.5715L26.2751 8.53686ZM15.9832 3.2573L15.9139 3.47006C15.8842 3.47006 15.8496 3.46017 15.8199 3.44532C15.7407 3.40574 15.6912 3.38595 15.6665 3.38595C15.6022 3.47996 15.5626 3.66304 15.5478 3.94013C15.5329 4.21227 15.4834 4.4003 15.4043 4.50421C15.3548 4.45473 15.2657 4.29144 15.1321 4.00445C15.0282 3.78179 14.8847 3.67293 14.7066 3.67293C14.667 3.64325 14.6472 3.60366 14.6472 3.55418C14.7115 3.40574 14.7412 3.29688 14.7412 3.23256C14.7561 3.21771 14.7858 3.20287 14.8303 3.19792C14.8748 3.18803 14.9045 3.19792 14.9194 3.20782C15.0084 3.29688 15.0777 3.39584 15.1321 3.5047C15.2212 3.69273 15.3102 3.8857 15.4043 4.07373C15.429 3.99456 15.4537 3.84612 15.4884 3.62345C15.5181 3.40079 15.5774 3.23751 15.6665 3.1237C15.8149 3.13855 15.9238 3.18308 15.9881 3.25235L15.9832 3.2573ZM24.9391 11.5354C24.7511 11.5849 24.5482 11.6442 24.3404 11.7185C24.1326 11.7927 23.9248 11.8669 23.7269 11.9362C23.6081 12.0054 23.2816 12.1192 22.7521 12.2677C22.3464 12.3765 22.0841 12.5398 21.9555 12.7526L24.7363 11.7679C24.8006 11.7382 24.855 11.6987 24.8946 11.6541C24.9391 11.6096 24.954 11.57 24.9342 11.5304L24.9391 11.5354ZM18.576 8.39832C18.6056 8.62098 18.5512 8.81395 18.4077 8.98219C18.3582 8.99208 18.3187 8.97724 18.284 8.9426C18.2494 8.90797 18.2246 8.86343 18.2148 8.8189C18.2049 8.76942 18.195 8.70015 18.195 8.60614C18.195 8.46264 18.2148 8.33399 18.2494 8.22019C18.284 8.10638 18.3434 8.00742 18.4226 7.92825C18.383 8.00742 18.3533 8.08164 18.3335 8.15586C18.3137 8.22514 18.3038 8.3043 18.3038 8.39337C18.3038 8.52697 18.3434 8.64077 18.4226 8.72489L18.576 8.40327V8.39832ZM17.2944 7.21079C17.1757 7.4186 17.0619 7.62147 16.9481 7.82929C16.9184 7.77486 16.8095 7.70064 16.6314 7.60168C16.4532 7.50272 16.3642 7.41366 16.3642 7.32954L16.3889 7.23553L16.7353 6.76051C16.9827 6.88916 17.1113 6.95844 17.1262 6.97328C17.2054 7.03761 17.2598 7.11677 17.2944 7.21079ZM21.8763 11.6888C21.5596 11.9411 21.3122 12.1094 21.1292 12.1935C20.9461 12.2776 20.7679 12.3172 20.5948 12.3172C20.476 12.3172 20.3573 12.2924 20.2385 12.2479C20.1445 12.1935 20.095 12.1291 20.095 12.0599C20.095 12.0054 20.1197 11.9411 20.1643 11.8619C20.2138 11.7877 20.2583 11.7135 20.3078 11.6442L20.6146 11.4315C20.5849 11.382 20.5354 11.3572 20.476 11.3474C20.4166 11.3375 20.3424 11.3375 20.2583 11.3375L20.2088 11.3869C20.1791 11.3375 20.1791 11.288 20.2187 11.2335C20.2336 11.2088 20.2682 11.1841 20.3276 11.1494C20.382 11.1197 20.4463 11.0999 20.5156 11.0999C20.57 11.0999 20.6343 11.1148 20.6987 11.1395C20.7679 11.1692 20.8323 11.2039 20.8966 11.2533C20.9114 11.3622 20.8125 11.4809 20.5997 11.6047C20.3869 11.7284 20.2781 11.8125 20.2781 11.8619C20.2781 11.9312 20.3622 12.0054 20.5255 12.0747C20.5651 12.0846 20.6244 12.0846 20.7036 12.0846C20.9015 12.0846 21.1044 12.045 21.3073 11.9659C21.4112 11.9263 21.5943 11.8372 21.8664 11.6937L21.8763 11.6888ZM15.8199 8.76942C15.8199 8.88817 15.8051 8.99703 15.7803 9.09104C15.7506 9.18506 15.6962 9.25928 15.6071 9.30381C15.5527 9.31371 15.4834 9.26423 15.4043 9.16032C15.3894 9.10589 15.3795 9.02672 15.3795 8.92281C15.3795 8.65562 15.4686 8.43295 15.6418 8.25977C15.5923 8.36863 15.5626 8.4478 15.5478 8.49728C15.5082 8.60119 15.4884 8.6853 15.4884 8.74468C15.4884 8.79416 15.4983 8.84859 15.523 8.91291C15.5873 9.00198 15.6319 9.03662 15.6665 9.02177C15.6962 8.95745 15.7209 8.90302 15.7358 8.85354C15.7506 8.80406 15.7803 8.77932 15.8199 8.76942Z" fill="currentColor"/>
</svg>
