<svg width="40" height="16" viewBox="0 0 40 16" fill="none" xmlns="http://www.w3.org/2000/svg">
<path fill-rule="evenodd" clip-rule="evenodd" d="M24.8695 5.04999C24.8645 5.10499 24.8595 5.15999 24.8595 5.21999V5.36C24.8595 5.575 24.8845 5.9 24.9395 6.34C24.9945 6.78 25.0195 7.10999 25.0195 7.32999C25.0795 7.74999 25.1095 8.18999 25.1095 8.64999C25.1095 9.00999 25.0845 9.34499 25.0345 9.65999C24.9845 9.97499 24.8995 10.265 24.7795 10.54C24.8195 10.4 24.8445 10.255 24.8595 10.105C24.8745 9.955 24.8795 9.795 24.8795 9.62C24.8795 9.395 24.8395 8.895 24.7595 8.12C24.7195 7.73499 24.6995 7.42999 24.6995 7.20999C24.6645 6.95499 24.6245 6.55 24.5745 5.985C24.5245 5.42 24.4745 4.82499 24.4195 4.18999L24.6795 3.71999C24.7045 3.81499 24.7745 4.02 24.8895 4.34C25.0445 4.78 25.1195 5.13499 25.1195 5.39999L24.8695 5.04999ZM21.1495 6.09C21.1295 6.055 21.0695 6.00999 20.9645 5.94499C20.8595 5.87999 20.8195 5.81 20.8395 5.73L21.2095 5.29999L21.6295 5.64C21.5345 5.78 21.4645 5.87999 21.4195 5.93999C21.3245 6.05999 21.2345 6.11 21.1495 6.09ZM22.0595 3.87999L22.0995 3.79999C22.0595 3.81499 21.6545 3.95999 20.8795 4.23999C19.9995 4.55499 19.3245 4.80499 18.8595 4.98999C18.6995 5.04999 18.5395 5.11499 18.3745 5.17999C18.2095 5.24499 18.1295 5.35999 18.1295 5.51999C18.4245 5.36499 18.7495 5.21999 19.1095 5.07999C19.3895 4.97499 19.7095 4.85499 20.0745 4.72499C20.4395 4.59499 20.7895 4.46999 21.1295 4.34999C21.5095 4.20499 21.8145 4.03499 22.0395 3.84999L22.0595 3.87999ZM16.7895 3.53999C16.7895 3.47999 16.8345 3.42999 16.9295 3.39499C17.0245 3.35999 17.0845 3.32 17.1095 3.28C17.0045 3.235 16.8945 3.20999 16.7795 3.20999C16.6945 3.20999 16.6145 3.235 16.5495 3.28C16.5295 3.235 16.5395 3.18999 16.5845 3.14499C16.6295 3.09999 16.6845 3.05999 16.7595 3.01999C16.8545 3.00499 16.9195 3 16.9595 3C17.0845 3 17.2145 3.02499 17.3395 3.07999C17.3045 3.17999 17.2345 3.275 17.1245 3.36C17.0145 3.445 16.9045 3.50499 16.7895 3.53999ZM17.5195 4.37999C17.3995 4.32499 17.3145 4.28499 17.2595 4.25999C17.1545 4.20499 17.0745 4.15499 17.0195 4.09999C16.9795 4.12499 16.9295 4.20499 16.8695 4.32999C16.8095 4.45499 16.7445 4.51999 16.6695 4.51999C16.6295 4.51999 16.5945 4.515 16.5695 4.5C16.5545 4.48 16.4895 4.44999 16.3745 4.41499C16.2595 4.37999 16.2045 4.325 16.2195 4.25C16.2595 4.185 16.3095 4.10999 16.3695 4.02499C16.4295 3.93999 16.4895 3.86 16.5495 3.78L17.0295 3.93999L17.4095 3.59999C17.5045 3.63499 17.5895 3.67499 17.6695 3.71999C17.7845 3.79999 17.8645 3.855 17.9195 3.89C17.8945 3.915 17.8545 3.99 17.7995 4.11C17.7195 4.29 17.6245 4.37999 17.5195 4.37999ZM20.0495 6.28999C20.0145 6.29499 19.9745 6.27499 19.9295 6.22499C19.8845 6.17499 19.8445 6.14999 19.8095 6.14999C19.8095 6.32999 19.7945 6.50499 19.7595 6.67999C19.7245 6.85499 19.6695 7.00999 19.5895 7.14999C19.5445 7.07499 19.4845 6.95999 19.4095 6.80499C19.3345 6.64999 19.2845 6.545 19.2495 6.5C19.2295 6.555 19.1895 6.57999 19.1295 6.57999L19.0495 6.56C19.0145 6.525 18.9995 6.48499 18.9995 6.43999C18.9995 6.40499 19.0095 6.35499 19.0245 6.28999C19.0395 6.22499 19.0495 6.18499 19.0495 6.17999C19.0695 6.15499 19.0895 6.125 19.1095 6.09C19.1445 6.055 19.1745 6.055 19.2095 6.09C19.2895 6.17 19.3745 6.30499 19.4595 6.48999C19.5445 6.67499 19.6095 6.805 19.6495 6.87C19.6695 6.665 19.6845 6.47999 19.6995 6.31999C19.7145 6.15999 19.7545 6.01499 19.8295 5.87999C19.8645 5.89499 19.9045 5.91999 19.9495 5.95999C19.9945 5.99999 20.0445 6.03499 20.0895 6.06999L20.0495 6.28999ZM22.8195 10.19C23.0645 10.11 23.2295 9.92999 23.3095 9.64999C23.3445 9.40499 23.3795 9.15499 23.4195 8.89999C23.4195 8.55999 23.3295 7.76499 23.1495 6.51999C23.0695 5.96499 23.0295 5.48499 23.0295 5.07999C23.0295 4.95999 23.0445 4.89999 23.0695 4.89999C23.0745 4.89999 23.1245 4.965 23.2195 5.09C23.2945 5.195 23.3545 5.225 23.3995 5.17C23.2745 4.665 23.0795 4.175 22.8195 3.7C22.7795 3.775 22.7395 3.84499 22.6995 3.90999C22.6195 4.04499 22.5745 4.16499 22.5695 4.26999C22.6445 4.75499 22.7145 5.3 22.7795 5.905C22.8445 6.51 22.9145 7.12 22.9845 7.735C23.0545 8.35 23.1195 8.895 23.1795 9.36C23.0045 9.475 22.8245 9.55999 22.6395 9.61499C22.4545 9.66999 22.2645 9.7 22.0695 9.7C21.8745 9.7 21.6995 9.67 21.5195 9.61C21.5245 9.57 21.5745 9.375 21.6595 9.03C21.7195 8.79 21.7495 8.59499 21.7495 8.43999C21.7495 8.37499 21.7395 8.28999 21.7195 8.18999C21.6995 8.08999 21.6745 8.005 21.6445 7.935C21.6145 7.865 21.5745 7.80999 21.5195 7.76999C21.4645 7.72999 21.4045 7.70999 21.3395 7.70999H21.2945C21.2945 7.70999 21.2495 7.715 21.2295 7.73C20.9295 7.95 20.7045 8.21 20.5545 8.515C20.4045 8.82 20.3295 9.14499 20.3295 9.48999C19.6295 9.80499 18.8695 9.95999 18.0495 9.95999C17.6545 9.95999 17.3095 9.925 17.0095 9.86C16.7095 9.795 16.4445 9.65499 16.2145 9.43999C15.9845 9.22499 15.8445 8.995 15.7895 8.75C15.7745 8.815 15.7645 8.89499 15.7495 8.98999C15.7345 9.08499 15.7295 9.165 15.7295 9.23C15.7295 9.525 15.7995 9.765 15.9395 9.95C16.2145 10.185 16.5095 10.35 16.8295 10.45C17.1495 10.55 17.5045 10.6 17.8995 10.6C18.3545 10.6 18.8495 10.535 19.3895 10.4C19.7695 10.305 20.2245 10.165 20.7595 9.98C21.0945 10.225 21.4995 10.35 21.9795 10.35C22.2595 10.35 22.5395 10.295 22.8195 10.19ZM18.7295 8.96999C18.6845 8.98999 18.6395 8.98499 18.5945 8.95499C18.5495 8.92499 18.5295 8.88499 18.5295 8.82999C18.5295 8.66999 18.5645 8.48999 18.6395 8.28999C18.6745 8.20499 18.7445 8.035 18.8595 7.78C18.8595 7.855 18.8245 7.975 18.7595 8.14C18.6945 8.305 18.6595 8.425 18.6595 8.5C18.6595 8.605 18.7045 8.68499 18.7895 8.73999C18.8095 8.72499 18.8295 8.695 18.8445 8.64C18.8595 8.585 18.8895 8.55499 18.9295 8.54999C18.9095 8.62999 18.8845 8.71 18.8595 8.795C18.8345 8.88 18.7895 8.93499 18.7295 8.96999ZM21.2795 11.4C21.2245 11.4 21.1845 11.385 21.1495 11.35C21.1145 11.315 21.0845 11.27 21.0595 11.21C21.0445 11.09 21.0595 10.975 21.0895 10.865C21.1245 10.755 21.1795 10.625 21.2595 10.48C21.2395 10.575 21.2245 10.645 21.2095 10.69C21.1745 10.795 21.1595 10.875 21.1595 10.93C21.1595 11.025 21.2045 11.095 21.2995 11.15C21.3545 11.17 21.3945 11.15 21.4195 11.09C21.4445 11.03 21.4745 11 21.4995 11C21.4745 11.145 21.4445 11.245 21.4145 11.29C21.3845 11.335 21.3395 11.375 21.2795 11.4ZM15.0895 4.42C15.0645 4.415 15.0245 4.38999 14.9795 4.34999C14.9345 4.30999 14.8945 4.28999 14.8695 4.28999C14.8445 4.46499 14.8195 4.63499 14.7995 4.79999C14.7645 4.98499 14.7145 5.14999 14.6495 5.28999C14.6095 5.25499 14.5495 5.12499 14.4745 4.89999C14.3995 4.67499 14.2745 4.57499 14.1095 4.59999C14.0645 4.57499 14.0395 4.51999 14.0395 4.43999C14.0395 4.39999 14.0445 4.35499 14.0595 4.29999C14.0845 4.24499 14.1095 4.19999 14.1295 4.16499C14.1495 4.12999 14.1745 4.105 14.2095 4.09C14.3545 4.17 14.4695 4.31999 14.5495 4.53999C14.5895 4.65499 14.6295 4.76499 14.6695 4.87999C14.6845 4.83499 14.7045 4.7 14.7295 4.485C14.7545 4.27 14.8145 4.11499 14.8995 4.01999C14.9945 4.01999 15.0745 4.07499 15.1495 4.17999C15.1645 4.20499 15.1645 4.23499 15.1495 4.26999C15.1395 4.30499 15.1195 4.355 15.0845 4.42H15.0895ZM17.1695 12.96C16.9845 12.985 16.7745 13 16.5395 13C16.1845 13 15.8595 12.96 15.5545 12.885C15.2495 12.81 14.9645 12.685 14.6895 12.51C14.3895 12.315 14.1895 12.035 14.0895 11.66C14.0295 11.425 13.9995 11.06 13.9995 10.56C14.0645 10.275 14.1345 10.025 14.2095 9.81999C14.2845 9.61499 14.3895 9.39499 14.5245 9.15999C14.6595 8.92499 14.8095 8.72499 14.9745 8.54999C15.1395 8.37499 15.3395 8.21999 15.5795 8.07999H15.1645C15.0195 8.07999 14.8745 8.07999 14.7295 8.06999H14.4045C14.2995 8.06999 14.1945 8.07999 14.0795 8.09999C14.1445 7.80499 14.2795 7.555 14.4795 7.34C14.5445 7.265 14.9845 6.96499 15.7995 6.43999C16.1345 6.21999 16.3745 6 16.5295 5.78C16.5845 5.74 16.7045 5.58499 16.8995 5.31999C17.0345 5.13499 17.1695 5.04999 17.3095 5.06999C17.3445 5.15499 17.3745 5.26499 17.4095 5.39999C17.4445 5.53499 17.4595 5.65 17.4595 5.75C17.4595 5.975 17.3945 6.15499 17.2595 6.28999C17.2395 6.24499 17.2095 6.14499 17.1645 5.98999C17.1195 5.83499 17.0745 5.73 17.0195 5.67C16.7395 5.985 16.4345 6.29499 16.0995 6.59999C15.7245 6.93999 15.3795 7.20999 15.0595 7.40999C15.3145 7.40999 15.5695 7.40999 15.8345 7.41499C16.0995 7.41499 16.3645 7.41499 16.6295 7.41499H16.8295C17.3045 7.41499 17.7595 7.395 18.1995 7.355L17.8895 7.97499C17.4295 8.03999 17.0645 8.10499 16.7995 8.16499C16.3945 8.25999 16.0345 8.375 15.7195 8.515C15.3595 8.69 15.0645 8.89499 14.8295 9.13499C14.5645 9.41499 14.3845 9.745 14.2995 10.125C14.2795 10.19 14.2645 10.265 14.2595 10.345C14.2545 10.425 14.2495 10.51 14.2495 10.605C14.2495 10.965 14.3345 11.27 14.5095 11.525C14.8045 11.845 15.1695 12.075 15.6095 12.215C15.9845 12.335 16.4245 12.395 16.9395 12.395C17.2345 12.395 17.5745 12.375 17.9695 12.335C18.8895 12.24 19.4345 12.195 19.6095 12.195C19.2145 12.39 18.8195 12.55 18.4245 12.68C18.0295 12.81 17.6095 12.9 17.1695 12.955V12.96ZM15.7295 11.69C15.8095 11.705 15.8745 11.71 15.9195 11.71C16.2995 11.71 16.5845 11.575 16.7795 11.3C16.6045 11.375 16.4645 11.425 16.3595 11.455C16.2545 11.485 16.1395 11.5 16.0195 11.5C15.9445 11.5 15.8945 11.5 15.8595 11.49C15.6995 11.435 15.6195 11.38 15.6195 11.32C15.6195 11.28 15.6745 11.22 15.7895 11.14C16.0045 10.995 16.1045 10.875 16.0895 10.78C16.0495 10.72 15.9895 10.685 15.9145 10.675C15.8395 10.665 15.7645 10.655 15.6995 10.65C15.6395 10.665 15.5945 10.695 15.5695 10.74C15.5445 10.785 15.5245 10.845 15.5095 10.91L15.6395 10.86C15.6795 10.865 15.7245 10.875 15.7695 10.885C15.8145 10.895 15.8445 10.915 15.8595 10.95C15.7595 11.005 15.6695 11.08 15.5895 11.18C15.5095 11.28 15.4645 11.385 15.4595 11.49C15.4845 11.545 15.5245 11.585 15.5745 11.61C15.6245 11.635 15.6745 11.665 15.7295 11.69ZM21.4295 8.62C21.4545 8.685 21.4695 8.74999 21.4745 8.81499C21.4795 8.87999 21.4845 8.96 21.4995 9.06C21.4395 9.12 21.3445 9.16999 21.2195 9.20999C21.1595 9.22999 21.0645 9.25999 20.9295 9.29999C20.8745 9.27999 20.8145 9.23499 20.7495 9.15999C20.7145 9.12499 20.6695 9.06999 20.6095 8.98999C20.6445 8.86499 20.7045 8.745 20.7945 8.64C20.8845 8.535 20.9895 8.44499 21.1095 8.37999C21.1895 8.37499 21.2545 8.395 21.3095 8.45C21.3295 8.47 21.3695 8.525 21.4295 8.62Z" fill="currentColor"/>
</svg>
