<svg width="40" height="16" viewBox="0 0 40 16" fill="none" xmlns="http://www.w3.org/2000/svg">
<path fill-rule="evenodd" clip-rule="evenodd" d="M28.6587 5.03469L28.2414 4.61744C28.2414 5.11439 28.2883 5.71448 28.3868 6.41772C28.6024 7.98359 28.7149 8.9775 28.7149 9.39006C28.7149 9.7745 28.6915 10.1261 28.6399 10.4496C28.593 10.7731 28.5087 11.0966 28.3868 11.4294C28.3868 11.3404 28.3868 11.1716 28.3961 10.9231C28.4055 10.6746 28.4055 10.4871 28.4055 10.3605L27.8429 5.37693C27.8429 4.93624 27.8195 4.59868 27.7679 4.37365C27.721 4.14861 27.646 3.94233 27.5476 3.75481C27.6226 3.52039 27.6695 3.38444 27.6929 3.33755C27.7679 3.17347 27.857 3.06095 27.9648 3C28.0258 3.1594 28.1383 3.41725 28.3024 3.77825C28.5368 4.27989 28.6493 4.70183 28.6493 5.03938L28.6587 5.03469ZM20.3652 4.29395C20.3371 4.4346 20.3089 4.57993 20.2855 4.72058C20.2339 4.88467 20.1355 4.9925 19.9948 5.03469C19.9339 5.05813 19.8823 5.06751 19.8354 5.06751C19.7088 5.06751 19.5963 5.02063 19.4979 4.92218C19.4463 4.82373 19.4182 4.72527 19.4182 4.61744C19.4182 4.49086 19.451 4.35959 19.5213 4.22363C19.5682 4.13924 19.6385 4.03141 19.737 3.89545C19.751 3.97984 19.7323 4.08298 19.676 4.20487C19.6198 4.32677 19.5916 4.41116 19.5916 4.45804C19.5916 4.50961 19.6151 4.57056 19.6666 4.64557C19.7135 4.71589 19.7792 4.7534 19.8636 4.7534C19.9292 4.7534 20.0089 4.72996 20.098 4.68777C20.187 4.61275 20.2105 4.54712 20.1636 4.48617C20.1355 4.4346 20.0698 4.36896 19.9714 4.28926C19.8729 4.20956 19.826 4.14862 19.826 4.10174C19.826 4.05486 19.8636 3.99859 19.9386 3.92358C20.023 3.95171 20.1027 4.00328 20.187 4.0736C20.2714 4.14393 20.3277 4.21894 20.3652 4.29395ZM22.1186 6.49742C22.1045 6.59588 22.0905 6.69433 22.0858 6.78809C22.0623 6.89123 22.0155 6.97562 21.9404 7.03657C21.8514 7.07407 21.7764 7.05063 21.7201 6.97093C21.6638 6.88655 21.631 6.83028 21.617 6.79278C21.6076 6.75527 21.5982 6.67088 21.5982 6.5443C21.5982 6.43178 21.6123 6.30989 21.6357 6.17862C21.6638 6.04735 21.6967 5.91608 21.7435 5.7895C21.7529 5.85044 21.7435 5.94421 21.7248 6.07548C21.706 6.20675 21.6967 6.29583 21.6967 6.33802C21.6967 6.47398 21.7107 6.56306 21.7435 6.61463C21.7717 6.66151 21.8279 6.70839 21.9029 6.7459C21.9404 6.73652 21.9733 6.69433 22.0061 6.61463C22.0342 6.53493 22.0717 6.49742 22.1186 6.49742ZM25.044 11.7295C25.044 11.9639 24.9925 12.1796 24.8846 12.3765C24.7815 12.5734 24.6362 12.7421 24.458 12.8781C24.5705 12.7046 24.6549 12.5781 24.7065 12.4937C24.8096 12.3296 24.8659 12.1889 24.8659 12.0764C24.8659 11.9733 24.8331 11.8795 24.7628 11.8045C24.6737 11.7811 24.6221 11.8045 24.6034 11.8842C24.5658 11.8608 24.5565 11.8279 24.5799 11.7764C24.6034 11.7295 24.6268 11.6826 24.6455 11.6357C24.7065 11.5513 24.7674 11.5138 24.8237 11.5138C24.9456 11.5138 25.0159 11.5842 25.0394 11.7295H25.044ZM18.3727 5.71918C18.3868 5.82232 18.3633 5.9114 18.3071 5.97703C18.2789 5.96765 18.2227 5.9489 18.1477 5.91608C18.0726 5.88326 18.007 5.8692 17.9554 5.87857C17.8664 6.00047 17.8148 6.21613 17.8101 6.53024C17.8007 6.84435 17.7585 7.0647 17.6741 7.19597C17.5991 7.1444 17.496 6.99906 17.3647 6.75527C17.2335 6.51617 17.0928 6.38959 16.9428 6.37084C16.8396 6.32396 16.7693 6.2677 16.7412 6.19269C16.7553 6.09423 16.7693 6.01453 16.7787 5.94421C16.7881 5.87389 16.8162 5.82232 16.8537 5.78481C17.0178 5.81294 17.1678 5.93952 17.3038 6.15518C17.4163 6.34271 17.5335 6.53024 17.6507 6.71776C17.6648 6.66619 17.6882 6.49742 17.7257 6.21144C17.7585 5.92546 17.8429 5.72386 17.9789 5.60197C18.0445 5.57853 18.1102 5.57853 18.1664 5.60197C18.2227 5.62541 18.293 5.66291 18.3727 5.71448V5.71918ZM19.6573 8.3399C19.6666 8.42897 19.6573 8.51805 19.6338 8.60244C19.6104 8.68682 19.5729 8.79935 19.5213 8.9353C19.4604 8.96343 19.4041 8.96343 19.3478 8.92593C19.2916 8.88842 19.2494 8.83216 19.2166 8.75715C19.2025 8.63525 19.1931 8.54149 19.1931 8.47585C19.1931 8.32583 19.2119 8.18518 19.2447 8.0586C19.2775 7.93202 19.3338 7.78669 19.4088 7.63198C19.4088 7.68355 19.3994 7.75856 19.376 7.85701C19.3244 8.09142 19.2963 8.24144 19.2963 8.31645C19.2963 8.48992 19.3713 8.60713 19.5213 8.66339C19.5307 8.65401 19.5401 8.60244 19.5541 8.50399C19.5682 8.40553 19.601 8.34928 19.6573 8.33521V8.3399ZM26.488 7.96953C26.474 7.90389 26.3943 7.52883 26.2536 6.84435C26.0895 6.05673 25.9817 5.43788 25.9395 4.98781C25.9301 4.95031 25.9301 4.89405 25.9301 4.81904C25.9301 4.70652 25.9583 4.62213 26.0098 4.57056L26.3943 4.91749C26.4036 4.87998 26.4036 4.82372 26.4036 4.74871C26.4036 4.58462 26.2442 4.20956 25.9301 3.62354C25.8035 3.38444 25.7473 3.18284 25.7613 3.01406C25.6254 3.11252 25.5363 3.22504 25.4847 3.35162C25.4379 3.4782 25.4097 3.62354 25.4097 3.79231C25.4097 3.82982 25.4191 3.94702 25.4379 4.13924C25.4566 4.33614 25.466 4.48617 25.466 4.58931C25.5129 5.02532 25.616 5.64417 25.7801 6.44585C25.977 7.39288 26.0942 8.00703 26.1411 8.29301C26.2536 8.96812 26.3099 9.59166 26.3099 10.1589C26.1598 10.248 25.9864 10.2949 25.7942 10.2949C25.616 10.2949 25.4379 10.2574 25.2644 10.1824C25.0159 10.0417 24.8331 9.82606 24.7112 9.54008C24.6502 9.39006 24.5846 9.12283 24.5096 8.74308L23.8439 3.30943L23.7313 3.16409C23.6329 3.38913 23.5391 3.60947 23.4501 3.82982C23.5532 4.40647 23.647 5.03469 23.7313 5.71448C23.8157 6.39428 23.9001 7.09752 23.9939 7.82888C24.0876 8.56025 24.1767 9.16034 24.2564 9.62447C24.1955 9.79794 24.0877 9.93858 23.9283 10.0464C23.7689 10.1542 23.6001 10.2105 23.4219 10.2105C23.2953 10.2246 23.1734 10.2058 23.0609 10.1496C22.9484 10.0933 22.8453 10.0136 22.7468 9.90576C22.7093 9.85419 22.6906 9.80731 22.6906 9.76981C22.6906 9.76043 22.7046 9.70886 22.7374 9.61041C22.7656 9.51196 22.7703 9.44163 22.7468 9.39475C22.3624 9.60572 21.9639 9.79325 21.5419 9.96203C21.12 10.1308 20.7074 10.2621 20.3042 10.3605C19.751 10.4871 19.2025 10.5527 18.6634 10.5527C18.2977 10.5527 17.9414 10.5246 17.6038 10.473C17.2194 10.3746 16.8771 10.2058 16.5677 9.96671C16.2208 9.6948 16.0145 9.39006 15.9395 9.04313C15.841 8.54149 15.7473 7.92264 15.6535 7.18659C15.5598 6.45054 15.4754 5.75199 15.4004 5.08158C15.3019 4.27989 15.2081 3.62822 15.1191 3.13596C15.0159 3.30004 14.9362 3.45476 14.8846 3.60478C14.8331 3.75011 14.8049 3.90483 14.8049 4.0736C14.8049 4.12048 14.8049 4.16737 14.8143 4.22363C14.8237 4.27989 14.8331 4.33614 14.8471 4.39709C14.8846 4.72058 15.0019 5.45195 15.1941 6.59119C15.4566 8.1383 15.5879 9.36662 15.5879 10.2808C15.4238 10.459 15.2034 10.6512 14.9222 10.8528C14.7721 10.9653 14.5377 11.1294 14.2236 11.3497C13.8954 11.5466 13.5391 11.706 13.1547 11.8279C12.7703 11.9498 12.4046 12.0155 12.053 12.0155C11.7904 12.0155 11.5466 11.978 11.3169 11.9076C11.0872 11.8373 10.8856 11.7295 10.7027 11.5888C10.5668 11.5044 10.473 11.4107 10.4215 11.2982C10.3699 11.1857 10.3418 11.0497 10.3418 10.895C10.3418 10.8059 10.3511 10.6653 10.3746 10.4777C10.398 10.2902 10.4074 10.1496 10.4074 10.0605C10.4683 9.86357 10.5293 9.66666 10.5855 9.46507C10.6699 9.23066 10.8059 9.12283 11.0028 9.13689C11.1669 9.00094 11.2888 8.80403 11.3638 8.54149C11.4013 8.40084 11.4435 8.16643 11.4857 7.84294C11.4482 7.87107 11.4107 7.92264 11.3732 7.98828C11.3357 8.05391 11.3169 8.11486 11.3169 8.16643C11.2325 8.32583 11.12 8.37271 10.97 8.31177C10.8481 8.16174 10.7637 8.00703 10.7168 7.85232C10.6699 7.69292 10.6418 7.52414 10.6418 7.33661C10.6418 7.0225 10.7262 6.60994 10.8997 6.09892C10.9747 5.87389 11.0544 5.65354 11.1341 5.43319C10.8856 5.8692 10.6981 6.25832 10.5715 6.60525C10.398 7.07876 10.3136 7.51477 10.3136 7.90858C10.3136 8.30239 10.398 8.66807 10.5715 9.01031C10.398 9.42287 10.2949 9.68542 10.2574 9.79794C10.0839 10.309 9.99951 10.7778 9.99951 11.2044C9.99951 11.4763 10.037 11.7342 10.112 11.9827C10.2996 12.2733 10.5433 12.489 10.8481 12.6249C11.1528 12.7609 11.4904 12.8265 11.8654 12.8265C11.9686 12.8265 12.0623 12.8218 12.142 12.8078C12.2217 12.7984 12.3061 12.789 12.3952 12.7797C13.1219 12.6671 13.797 12.3905 14.4205 11.9451C15.0722 11.481 15.541 10.9231 15.827 10.2808C15.9911 10.459 16.1552 10.6418 16.3239 10.82C16.6005 11.0169 16.9053 11.1528 17.2288 11.2372C17.5569 11.3216 17.9132 11.3591 18.3024 11.3591C18.6305 11.3591 18.9822 11.331 19.3525 11.2747C19.7229 11.2185 20.0792 11.1482 20.4215 11.0685C20.7637 10.9841 21.2091 10.82 21.767 10.5715C22.2452 10.3605 22.503 10.248 22.5312 10.2339C22.503 10.4449 22.578 10.6371 22.7656 10.82C22.8921 10.9466 23.075 11.0122 23.3188 11.0122C23.3844 11.0122 23.4641 11.0028 23.5532 10.9794C23.6423 10.9559 23.7173 10.9325 23.7782 10.9137C23.9517 10.8293 24.0876 10.7028 24.1814 10.5293C24.247 10.4027 24.3033 10.2293 24.3502 10.0136C24.4346 10.2152 24.5143 10.384 24.5987 10.5199C24.7112 10.7075 24.8378 10.8481 24.9831 10.9372C25.0862 10.9887 25.1988 11.0309 25.3113 11.0591C25.4238 11.0872 25.541 11.106 25.6582 11.106C25.8739 11.106 26.0708 11.0497 26.2442 10.9372C26.3708 10.6465 26.4599 10.3652 26.5068 10.1027C26.5537 9.84013 26.5818 9.54477 26.5818 9.21191C26.5818 9.015 26.5724 8.80872 26.549 8.58369C26.5255 8.35865 26.5021 8.15237 26.4693 7.96484L26.488 7.96953ZM22.3014 12.1092L21.8185 12.7609L21.1528 12.503L20.623 12.8969C20.4496 12.8969 20.2949 12.8781 20.1542 12.8453C20.0136 12.8125 19.8823 12.7515 19.7557 12.6578C19.8307 12.5218 19.9057 12.3905 19.9808 12.2639C20.0839 12.1045 20.2058 12.0295 20.3418 12.0295C20.4449 12.0764 20.5574 12.1186 20.6699 12.1655C20.7824 12.2124 20.8903 12.2452 20.9981 12.2686C21.1575 12.0811 21.3169 11.8983 21.481 11.7154L22.3014 12.1092ZM13.3 3.66104L13.2531 3.9189C13.2016 3.88139 13.1594 3.86263 13.1313 3.86263C12.9953 3.86263 12.9297 3.94233 12.9297 4.09704C12.9437 4.15799 12.9531 4.20487 12.9531 4.24238C12.9531 4.30333 12.9437 4.38303 12.9203 4.47679C12.8687 4.70183 12.8406 4.83778 12.8406 4.87998C12.8406 5.03 12.925 5.12846 13.0984 5.17065C13.1078 5.19878 13.1453 5.25035 13.211 5.31599C13.2766 5.38162 13.3141 5.43788 13.3141 5.48476C13.3141 5.50821 13.2953 5.54571 13.2578 5.59728C13.2203 5.62072 13.0656 5.65354 12.789 5.70042C12.5171 5.7473 12.3389 5.83638 12.2546 5.97234C12.2827 6.27238 12.3718 6.66151 12.5124 7.1444C12.578 7.3835 12.6531 7.6226 12.7281 7.85232C12.7749 8.05392 12.8031 8.22269 12.8218 8.35396C12.8406 8.48523 12.85 8.63057 12.85 8.78528C12.85 8.95874 12.8359 9.12752 12.8031 9.29161C12.7749 9.4557 12.7187 9.61978 12.6437 9.78856C12.7281 9.5729 12.7656 9.3338 12.7656 9.08064C12.7656 8.84154 12.7234 8.56493 12.6437 8.24613C12.6202 8.14768 12.5734 7.98359 12.4983 7.74918C12.3577 7.30849 12.2639 6.98968 12.2217 6.79278C12.1795 6.59587 12.1608 6.39428 12.1608 6.18331C12.1608 6.12236 12.1608 6.0661 12.1655 6.01453C12.1655 5.96296 12.1842 5.85513 12.217 5.68636C12.2686 5.62541 12.3389 5.57853 12.4327 5.54102C12.5827 5.49414 12.7328 5.45195 12.8828 5.40507C12.8546 5.34412 12.7984 5.31599 12.7234 5.31599C12.6859 5.31599 12.6437 5.32537 12.5921 5.33943C12.5452 5.3535 12.489 5.36756 12.428 5.38631L12.4046 5.40975C12.3764 5.38162 12.3764 5.33005 12.4093 5.26442C12.4421 5.19878 12.4655 5.1519 12.4702 5.12845L12.6859 5.01594C12.6624 4.96906 12.6062 4.85654 12.5171 4.66901C12.4561 4.53305 12.3952 4.42053 12.3389 4.33146L12.2921 4.42053C12.2311 4.42053 12.1795 4.39709 12.128 4.34552C12.0811 4.29864 12.0389 4.23769 12.0108 4.17206C11.9967 4.08298 12.0014 4.00328 12.0201 3.93765L12.1233 3.73605C12.2733 3.797 12.3952 3.92358 12.4937 4.12049C12.6202 4.3924 12.7093 4.54711 12.7515 4.594C12.7749 4.33146 12.8078 4.12517 12.8453 3.97984C12.8875 3.8345 12.9672 3.69855 13.0891 3.56728C13.211 3.60479 13.2766 3.63291 13.2907 3.65635L13.3 3.66104ZM16.8443 11.8279C16.8443 12.053 16.8021 12.2593 16.7131 12.4421C16.6287 12.6249 16.4974 12.8125 16.3239 13C16.4365 12.7375 16.549 12.4749 16.6615 12.2124C16.6615 12.1139 16.624 12.0248 16.549 11.9405C16.4505 11.9686 16.3989 12.0108 16.3896 12.0624L16.3239 12.0717C16.3239 11.9733 16.3521 11.8842 16.4036 11.8092C16.4552 11.7295 16.5302 11.6779 16.6287 11.6592C16.6756 11.6357 16.7131 11.6498 16.7459 11.692C16.7787 11.7389 16.8115 11.7811 16.8396 11.8279H16.8443Z" fill="currentColor"/>
</svg>
