<svg width="40" height="16" viewBox="0 0 40 16" fill="none" xmlns="http://www.w3.org/2000/svg">
<path fill-rule="evenodd" clip-rule="evenodd" d="M29.1653 4.98372C29.1196 4.95829 29.0636 4.89217 29.0077 4.79044C28.9517 4.68871 28.8957 4.61241 28.8398 4.56663C28.8398 4.89725 28.8703 5.32452 28.9314 5.83825C29.0687 6.98271 29.1348 7.71516 29.1348 8.0356C29.1602 8.24415 29.1755 8.38657 29.1806 8.46287C29.1806 8.53917 29.1857 8.61546 29.1857 8.69685C29.1857 9.03764 29.1501 9.37843 29.0738 9.7294C28.9975 10.0804 28.8957 10.4313 28.7686 10.7823C28.794 10.6195 28.8144 10.4262 28.8296 10.2024C28.8449 9.97864 28.85 9.765 28.85 9.56155C28.85 9.01729 28.8042 8.40183 28.7126 7.71516C28.6211 7.02848 28.5295 6.32146 28.4329 5.60427C28.3362 4.88708 28.2905 4.28179 28.2905 3.79349C28.2498 3.73245 28.2294 3.67141 28.2294 3.61038C28.2294 3.52391 28.265 3.42218 28.3311 3.31536C28.3973 3.20854 28.4634 3.10173 28.5244 3C28.733 3.40692 28.8805 3.72737 28.9619 3.95626C29.0992 4.32757 29.1653 4.67345 29.1653 4.98372ZM26.1134 3.25432C26.1287 3.34079 26.0829 3.42218 25.9812 3.4883C25.9659 3.49339 25.8744 3.53916 25.7065 3.62055C25.3861 3.75788 25.0656 3.89522 24.7401 4.04273C24.4146 4.19023 24.1145 4.353 23.8347 4.53611C23.9517 4.35809 24.0992 4.20549 24.2823 4.07833C24.4247 3.9766 24.6231 3.87487 24.8723 3.77314C25.2844 3.60529 25.7014 3.43235 26.1134 3.25432ZM26.1134 5.17701C26.1134 5.2177 26.1033 5.26348 26.0778 5.30926C26.0524 5.35504 26.0372 5.39573 26.0219 5.42116C25.9354 5.36521 25.8744 5.33978 25.849 5.33978C25.8083 5.4059 25.7727 5.55341 25.7421 5.7823C25.7116 6.01119 25.6506 6.14852 25.5539 6.1943C25.4268 5.97558 25.2996 5.76195 25.1775 5.54324L25.1165 5.65514C25.0555 5.65514 24.9944 5.60427 24.9334 5.50254C24.913 5.4415 24.9232 5.3703 24.969 5.28891C25.0148 5.20753 25.0351 5.16175 25.0351 5.15666C25.1623 5.15666 25.2742 5.23805 25.3708 5.40081C25.4471 5.54323 25.5234 5.68057 25.6048 5.8179C25.6506 5.56867 25.732 5.31434 25.849 5.06511C25.9507 5.04476 26.0372 5.08037 26.1134 5.17701ZM26.3169 7.16073C26.3373 7.20651 26.3271 7.27263 26.2915 7.34893C26.2559 7.42523 26.2304 7.48118 26.2152 7.51679C26.1134 7.58291 26.0575 7.61851 26.0524 7.61851C26.027 7.61851 26.0015 7.60326 25.9812 7.57782C25.9405 7.49644 25.9202 7.40997 25.9202 7.3235C25.9202 7.22177 25.9456 7.0997 26.0015 6.96236C26.0575 6.82503 26.1084 6.69278 26.1643 6.5707C26.1694 6.61648 26.1541 6.70804 26.1084 6.84537C26.0626 6.9827 26.0422 7.07426 26.0422 7.12004C26.0422 7.22686 26.0931 7.29807 26.1948 7.3235L26.3169 7.16073ZM24.2009 6.43845C24.1552 6.57579 24.1043 6.70804 24.0585 6.84537C23.9975 6.98779 23.9212 7.10478 23.8245 7.20142C23.9059 7.059 23.9771 6.89115 24.0331 6.69278C24.089 6.4944 24.1196 6.30112 24.1196 6.11292C24.1196 5.9705 24.1043 5.83825 24.0687 5.72126C24.0331 5.60427 23.9771 5.49746 23.8957 5.40081L24.0076 5.19736C24.0941 5.27874 24.1602 5.38556 24.2009 5.5178C24.2416 5.65005 24.262 5.7823 24.262 5.91963C24.262 6.10783 24.2416 6.28077 24.2009 6.43845ZM27.5071 8.45269L26.9476 4.42421L26.9985 4.36317C26.9985 4.36317 27.085 4.4649 27.202 4.64802C27.2426 4.70905 27.2986 4.73957 27.3647 4.73957C27.3037 4.43438 27.2223 4.15463 27.1155 3.89522C27.0087 3.63581 26.8713 3.35097 26.7035 3.04069C26.6679 3.09664 26.617 3.18311 26.5458 3.31027C26.4746 3.43744 26.439 3.54425 26.439 3.64089C26.439 3.70193 26.4542 3.75788 26.4797 3.81383L27.2121 8.74771C27.0951 8.83418 26.9832 8.90539 26.8662 8.96134C26.7849 8.99695 26.6628 9.03764 26.5 9.08342C26.3627 8.81892 26.205 8.6002 26.0219 8.43235C25.7981 8.22889 25.559 8.12716 25.3098 8.12716C25.0809 8.20854 24.9029 8.34588 24.7808 8.53408C24.6231 8.76297 24.5214 9.11394 24.4756 9.58189C24.5214 9.72431 24.6079 9.83622 24.735 9.91251C24.8622 9.98881 25.0605 10.0295 25.3301 10.0295C25.5794 9.98372 25.8337 9.93286 26.0829 9.87691C26.1999 9.87691 26.2559 9.9532 26.2559 10.1109C25.9863 10.3957 25.7421 10.6297 25.5336 10.8128C25.2844 11.0315 25.0249 11.2299 24.7554 11.413C24.4858 11.5961 24.2162 11.7538 23.9364 11.8911C23.6567 12.0285 23.3718 12.1404 23.0717 12.2269C23.0361 12.2269 22.9853 12.2319 22.9141 12.2472C22.8428 12.2625 22.7513 12.2675 22.6343 12.2675C22.4359 12.2675 22.2528 12.237 22.085 12.1709C21.9171 12.1048 21.7747 11.998 21.6679 11.8403C21.6017 11.7538 21.556 11.6673 21.5356 11.586C21.5153 11.5046 21.5051 11.4079 21.5051 11.3011C21.5051 11.1434 21.5356 10.9654 21.6017 10.767C21.6679 10.5687 21.7289 10.3754 21.7899 10.1923C21.5712 10.5534 21.4288 10.8535 21.3576 11.0977C21.2864 11.3418 21.2508 11.5707 21.2508 11.7792C21.2508 12.0641 21.322 12.3235 21.4644 12.5524C21.5814 12.7101 21.7289 12.822 21.912 12.8881C22.0138 12.9288 22.1918 12.9644 22.441 13C22.8835 12.9542 23.3159 12.8321 23.7381 12.6439C24.1602 12.4557 24.5621 12.2065 24.9436 11.9064C25.325 11.6063 25.6506 11.2706 25.9252 10.8993C26.1999 10.528 26.4135 10.1363 26.5611 9.71414C26.8408 9.65819 27.0646 9.50559 27.2325 9.24618C27.3698 9.04273 27.4614 8.77823 27.5071 8.45269ZM21.1287 4.63784C21.0117 4.82096 20.9303 4.94303 20.8846 5.00407C20.8184 5.09054 20.7472 5.16175 20.6811 5.2177L20.1216 4.70905L20.4573 4.18006L21.1287 4.63784ZM22.97 4.92269C22.9242 4.89725 22.8683 4.84639 22.8123 4.78026C22.7564 4.71414 22.7004 4.64802 22.6546 4.58698L22.5529 4.74975C22.5529 5.11597 22.5987 5.58901 22.6953 6.16378C22.8327 6.96236 22.909 7.48118 22.9293 7.71516C22.9497 7.94914 22.9598 8.11699 22.9649 8.21363C22.9649 8.31028 22.9649 8.41709 22.9649 8.52391C22.9649 8.88505 22.9344 9.21567 22.8785 9.52594C22.8225 9.83622 22.7259 10.1414 22.5885 10.4466C22.614 10.3245 22.6343 10.1719 22.6496 9.98372C22.6648 9.79552 22.6699 9.61241 22.6699 9.4293C22.6699 9.32248 22.6699 9.21058 22.6648 9.09868C22.6648 8.98677 22.6648 8.87487 22.6648 8.75788V8.66633L22.0646 3.7528C22.0494 3.69685 22.0443 3.65615 22.0443 3.62055C22.0443 3.51882 22.0748 3.412 22.1358 3.29501C22.2223 3.15768 22.2833 3.06104 22.3189 3C22.4868 3.36114 22.619 3.6765 22.7157 3.94608C22.8378 4.2767 22.9242 4.60224 22.97 4.92269ZM19.9588 4.78026C19.8825 5.00916 19.7503 5.20244 19.5519 5.36012C19.384 5.31943 19.2467 5.27365 19.145 5.2177C19.0026 5.1414 18.9059 5.05493 18.8601 4.9532C18.9059 4.85656 18.967 4.75992 19.0433 4.65819C19.0789 4.61241 19.1501 4.52085 19.2671 4.39369L19.9588 4.78026ZM19.9893 3.2238C18.1735 3.7884 17.1867 4.09359 17.0392 4.14954C16.3627 4.37843 15.7828 4.59715 15.3098 4.80061C15.2233 4.92269 15.1877 5.00407 15.2081 5.04476C15.6811 4.82604 16.1999 4.62258 16.7543 4.43438C16.8612 4.39369 17.3902 4.22584 18.3413 3.92574C19.0076 3.71719 19.5316 3.53917 19.9181 3.39674L19.9893 3.2238ZM23.7228 10.0905C23.7228 10.1974 23.7075 10.294 23.677 10.3805C23.6465 10.4669 23.5906 10.528 23.5092 10.5687C23.4532 10.5738 23.4125 10.5636 23.382 10.528C23.3515 10.4924 23.3261 10.4466 23.3057 10.3856C23.3057 10.2635 23.3261 10.1414 23.3668 10.0193C23.4074 9.89725 23.4481 9.77518 23.4888 9.6531C23.5041 9.69888 23.4888 9.78027 23.4634 9.88708C23.4329 9.9939 23.4176 10.0651 23.4176 10.1007C23.4176 10.2024 23.4685 10.2686 23.5702 10.3042C23.5956 10.2482 23.6211 10.2024 23.6363 10.1617C23.6516 10.1211 23.6821 10.0956 23.7228 10.0905ZM18.911 6.7233C18.8856 6.80977 18.8551 6.90641 18.8296 7.00305C18.8042 7.09969 18.7432 7.15565 18.6567 7.16073C18.6109 7.16582 18.5702 7.14547 18.5346 7.09969C18.499 7.05392 18.4787 7.01831 18.4634 6.99797C18.4583 6.96236 18.4532 6.91658 18.4532 6.85554C18.4532 6.71312 18.4888 6.55544 18.5651 6.38759C18.6058 6.30112 18.6516 6.20956 18.6974 6.11292C18.6974 6.15361 18.677 6.24008 18.6363 6.36724C18.5956 6.4944 18.5753 6.59105 18.5753 6.65209C18.5753 6.77416 18.6363 6.85046 18.7584 6.88606C18.794 6.88098 18.8144 6.85046 18.8296 6.79959C18.8449 6.74873 18.8703 6.7233 18.911 6.7233ZM15.2487 3.81383C15.264 3.91048 15.2589 4.00203 15.2335 4.09868C15.2081 4.19532 15.1572 4.26653 15.0758 4.31231C15.0402 4.31739 15.0148 4.31231 14.9944 4.30214C14.9741 4.28688 14.9181 4.23092 14.8317 4.1292C14.8317 3.82401 14.908 3.55442 15.0555 3.31536C15.0707 3.36114 15.0555 3.44761 15.0148 3.5646C14.9741 3.68159 14.9537 3.76806 14.9537 3.82401C14.9537 3.92065 15.0097 3.98169 15.1267 4.01729L15.2487 3.81383ZM17.5478 5.42116L17.4868 5.63479C17.4512 5.63479 17.4054 5.61953 17.3495 5.5941C17.2935 5.56867 17.2376 5.55849 17.1918 5.57375C17.1663 5.65514 17.1358 5.80264 17.1104 6.01119C17.085 6.21973 17.0544 6.3825 17.0188 6.49949C16.9629 6.4588 16.8968 6.35707 16.8103 6.18922C16.7238 6.02136 16.6526 5.93489 16.5916 5.91963C16.4949 5.91455 16.4339 5.90437 16.3983 5.88912C16.3627 5.87386 16.3373 5.83825 16.3169 5.77721C16.3118 5.69583 16.3271 5.61953 16.3678 5.54324C16.4085 5.46694 16.4644 5.4059 16.5305 5.36012C16.6119 5.42625 16.6831 5.50763 16.7442 5.60427C16.8306 5.77213 16.9222 5.94507 17.0087 6.11292C17.0087 5.91455 17.0239 5.75687 17.0494 5.63988C17.0748 5.52289 17.1358 5.41607 17.2325 5.31943C17.2986 5.30417 17.3698 5.31943 17.4359 5.34995C17.4563 5.36521 17.4919 5.38555 17.5478 5.42116ZM21.1287 10.589C21.0829 10.7569 20.9812 10.8535 20.8235 10.8739L18.6363 11.8403C18.6313 11.7996 18.6363 11.7538 18.6669 11.708C18.6923 11.6623 18.7228 11.6165 18.7584 11.5758C19.5316 11.2248 20.32 10.8942 21.1287 10.589ZM13.5092 3.64089C13.5092 3.76806 13.499 3.87487 13.4837 3.96134C13.4685 4.04781 13.4278 4.11394 13.3668 4.15971L12.97 4.04781C12.7462 4.30722 12.4766 4.5412 12.1562 4.74975C11.9171 4.90743 11.6119 5.07019 11.2304 5.23805C11.7594 4.83113 12.2935 4.42421 12.8276 4.01729C12.7716 3.99186 12.7259 3.94608 12.6801 3.89013C12.6343 3.83418 12.614 3.77314 12.614 3.7121C12.614 3.66633 12.6292 3.62564 12.6546 3.59003C12.7157 3.54425 12.7513 3.45778 12.7666 3.33062C12.7818 3.20346 12.8225 3.12208 12.8886 3.08138C13.026 3.10682 13.1531 3.17294 13.2803 3.27976C13.4074 3.38657 13.4837 3.50356 13.5092 3.64089ZM14.1094 5.29908C14.0331 5.22279 13.9517 5.16175 13.8551 5.1058C13.7584 5.04985 13.6109 4.97864 13.4074 4.88199L12.97 5.25839L12.4207 5.04476C12.3342 5.0295 12.2528 5.07019 12.1765 5.15666C12.1511 5.18209 12.0697 5.33469 11.9425 5.61445C11.9985 5.6297 12.1104 5.68057 12.2783 5.77721C12.4156 5.85351 12.5275 5.8942 12.6241 5.90946C12.6699 5.86368 12.7259 5.7823 12.792 5.67548C12.8581 5.56867 12.9141 5.48728 12.97 5.44151C13.1379 5.54323 13.2701 5.61953 13.3668 5.67548C13.4634 5.73143 13.5855 5.7823 13.733 5.83825C13.8805 5.67548 14.0076 5.49746 14.1094 5.29908ZM21.0982 7.47609C21.2813 7.7355 21.3729 8.04069 21.3729 8.40183C21.3729 8.6002 21.3423 8.79349 21.2813 8.98678C21.2203 9.18006 21.1338 9.35809 21.027 9.52085C20.737 9.77009 20.442 9.98372 20.147 10.1617C19.852 10.3398 19.5265 10.4771 19.1755 10.5839C18.8245 10.6907 18.4787 10.7416 18.148 10.7416C17.9293 10.7416 17.7462 10.7263 17.5936 10.7009C17.441 10.6755 17.2732 10.6195 17.0901 10.5432C16.9069 10.4669 16.7238 10.3398 16.5407 10.1617C16.3932 10.0193 16.2457 9.85147 16.1033 9.6531C15.8591 9.85147 15.5997 10.0092 15.32 10.1363C15.0402 10.2635 14.7706 10.3245 14.5061 10.3245C14.2874 10.3245 14.089 10.2787 13.9059 10.1923C13.6872 10.1312 13.5041 9.98372 13.3566 9.74466C13.2396 9.53611 13.1277 9.32248 13.0107 9.10376C12.7259 9.26145 12.5071 9.54629 12.3596 9.95829C12.0188 10.8891 11.734 11.4283 11.5051 11.5758C11.4695 11.5809 11.4186 11.586 11.3525 11.586C11.2508 11.586 11.1541 11.5707 11.0677 11.5453C10.9812 11.5198 10.8642 11.4537 10.7218 11.352C10.4929 11.1027 10.32 10.8077 10.2081 10.472C10.0962 10.1363 10.0402 9.78026 10.0402 9.40895C10.0402 8.99695 10.1012 8.61038 10.2233 8.24924C10.0758 7.94405 9.99951 7.6236 9.99951 7.28281C9.99951 6.86063 10.1114 6.42319 10.3352 5.96033C10.5183 5.58901 10.7727 5.20244 11.0982 4.80061C11.0728 4.87691 10.9151 5.20244 10.6302 5.77721C10.4217 6.20448 10.3149 6.55036 10.3149 6.81485C10.3149 7.12513 10.4319 7.3998 10.6709 7.63886C10.7879 7.63886 10.8896 7.58291 10.9863 7.47609C11.0015 7.36928 11.0372 7.28789 11.0982 7.24212C11.0372 7.64395 11.0015 7.85249 10.9965 7.87284C10.9303 8.1119 10.8032 8.27467 10.6201 8.37131C10.5641 8.3764 10.5132 8.37131 10.4624 8.36114C10.4115 8.34588 10.3607 8.32553 10.3047 8.28993C10.2894 8.3764 10.2793 8.4883 10.2742 8.61546C10.2691 8.74263 10.264 8.8647 10.264 8.98169C10.264 9.38861 10.325 9.74466 10.442 10.0498C10.559 10.355 10.7676 10.6043 11.0677 10.7925C11.1643 10.8281 11.2254 10.8433 11.2508 10.8433H11.3525C11.439 10.8433 11.5255 10.823 11.6068 10.7823C11.7747 10.6195 11.9273 10.3449 12.0646 9.95829C12.1257 9.77009 12.1918 9.5768 12.2579 9.38861C12.3545 9.10376 12.4563 8.89013 12.5631 8.74771C12.7106 8.55951 12.9039 8.44252 13.1328 8.40183C13.2752 8.70702 13.4125 8.941 13.5397 9.10376C13.7381 9.353 13.9619 9.50559 14.2213 9.56155C14.2772 9.5768 14.3281 9.58698 14.384 9.59206C14.44 9.59715 14.501 9.60224 14.5773 9.60224C14.7859 9.60224 14.9944 9.56155 15.203 9.48525C15.4115 9.40895 15.6099 9.30214 15.7981 9.1648C15.6506 8.99695 15.5031 8.82401 15.3607 8.65615C15.1725 8.45778 14.9843 8.36114 14.8011 8.36114C14.7604 8.36114 14.7248 8.36114 14.6994 8.37131C14.6587 8.39674 14.5977 8.42726 14.5214 8.45778C14.4451 8.4883 14.379 8.50865 14.323 8.52391C14.3179 8.49847 14.3128 8.45778 14.3128 8.412C14.3128 8.32553 14.3383 8.19837 14.3942 8.0356C14.4298 7.93388 14.4502 7.85758 14.4553 7.8118C14.6638 7.70498 14.8978 7.61851 15.147 7.56256C15.3963 7.50661 15.6506 7.47609 15.8998 7.47609C16.3271 7.47609 16.8103 7.5473 17.3444 7.68972C17.6546 7.77111 18.1023 7.91862 18.677 8.12716C18.6414 8.21363 18.6211 8.27976 18.6058 8.32045C18.5499 8.46287 18.5193 8.56968 18.5143 8.64598C18.5092 8.64598 18.4787 8.68159 18.4329 8.74771C17.909 8.76806 17.5122 8.82909 17.2325 8.93082C16.9527 9.03255 16.7594 9.16989 16.6424 9.33774C16.8306 9.58189 17.0697 9.75483 17.3495 9.85656C17.6292 9.95829 17.9497 10.0092 18.3006 10.0092C18.4481 10.0092 18.6058 9.99898 18.7635 9.98372C18.9212 9.96846 19.1246 9.92777 19.3688 9.86673C19.9436 9.66836 20.5031 9.36826 21.0372 8.96134C20.9202 8.75788 20.5845 8.64089 20.0199 8.61038C19.4553 8.57986 19.1755 8.38149 19.1755 8.01526C19.1755 7.94914 19.1755 7.89318 19.1857 7.85249C19.2874 7.63377 19.3891 7.42014 19.4909 7.20142C19.6333 6.95219 19.8164 6.79959 20.0402 6.74364C20.2437 6.74364 20.442 6.82503 20.6404 6.98779C20.7218 7.05392 20.8744 7.21668 21.0982 7.47609ZM14.1399 7.14039H14.0992C14.0738 7.22686 14.0433 7.28789 14.0077 7.3235C13.9314 7.29807 13.8856 7.26246 13.8601 7.22177C13.8347 7.18108 13.8245 7.12513 13.8245 7.059C13.8245 6.99288 13.8551 6.86572 13.9212 6.67752C13.9873 6.48932 14.0127 6.36216 14.0077 6.28586C13.9466 6.44354 13.8856 6.60631 13.8195 6.77416C13.7533 6.94201 13.7228 7.09461 13.7228 7.23194C13.7228 7.37945 13.7584 7.50153 13.8245 7.59817C13.8449 7.61343 13.9008 7.60326 13.9975 7.57782C14.0534 7.51679 14.089 7.44557 14.1094 7.36419C14.1145 7.28789 14.1246 7.21668 14.1399 7.14039ZM17.4359 11.2197C17.2477 11.3164 17.1002 11.3825 16.9985 11.4232C16.7289 11.5249 16.4644 11.5758 16.205 11.5758C15.9456 11.5758 15.732 11.5198 15.5336 11.413C15.5539 11.2503 15.6913 11.1231 15.9405 11.0264C16.1897 10.9298 16.3373 10.823 16.3779 10.7009L16.0422 10.7925C15.9609 10.7925 15.8795 10.7823 15.8032 10.7569C15.7269 10.7314 15.6709 10.6907 15.6455 10.6297C15.6608 10.6043 15.7014 10.589 15.7676 10.589C15.7879 10.6144 15.8133 10.6551 15.849 10.7009C15.9354 10.6246 15.9914 10.5483 16.0117 10.4669C15.9965 10.3906 15.9507 10.355 15.8693 10.355C15.8235 10.355 15.7828 10.3703 15.7472 10.4059C15.6608 10.4517 15.5845 10.5178 15.5234 10.5941C15.4624 10.6704 15.4319 10.7569 15.4319 10.8433C15.498 10.9196 15.5794 10.9705 15.6658 11.0061C15.5794 11.1027 15.5183 11.1638 15.4929 11.1994C15.4268 11.2808 15.3759 11.352 15.3505 11.413C15.2945 11.5198 15.3301 11.6165 15.4522 11.6979C15.6302 11.7742 15.8286 11.8098 16.0524 11.8098C16.2152 11.8098 16.3779 11.7894 16.5407 11.7487C16.8866 11.647 17.1867 11.469 17.4359 11.2197ZM13.2345 11.0468C13.2345 11.0468 13.1836 11.1027 13.148 11.174C13.1124 11.2452 13.0667 11.2757 13.0107 11.2604C12.9649 11.2197 12.9344 11.179 12.9191 11.1333C12.9039 11.0875 12.8988 11.0417 12.8988 10.9959C12.8988 10.94 12.909 10.8535 12.9344 10.7365C12.9598 10.6195 12.97 10.5432 12.97 10.5076C12.9242 10.6246 12.8785 10.7416 12.8327 10.8688C12.7869 10.9959 12.7666 11.1078 12.7666 11.2096C12.7666 11.2757 12.7716 11.3469 12.7869 11.4232C12.8022 11.4995 12.8734 11.5351 13.0107 11.5351C13.0768 11.5097 13.1328 11.4588 13.1735 11.3825C13.2142 11.3062 13.2345 11.1943 13.2345 11.0468ZM25.849 9.22584C25.7269 9.26653 25.5845 9.28688 25.4217 9.28688C25.2996 9.28688 25.1877 9.26653 25.086 9.23093C24.9843 9.19532 24.8978 9.1292 24.8317 9.04273C24.852 8.96643 24.9029 8.91048 24.9843 8.86979C24.9995 8.8647 25.0351 8.84944 25.0962 8.82909C25.264 8.86979 25.4064 8.92065 25.5234 8.9766C25.6404 9.03255 25.7472 9.11902 25.849 9.22584ZM20.5082 7.89318C20.3861 7.75585 20.3098 7.67955 20.2844 7.65921C20.1979 7.57782 20.1063 7.52187 20.0199 7.49644C19.9537 7.46083 19.8876 7.44557 19.8266 7.44557C19.7248 7.44557 19.6435 7.47609 19.5824 7.53713C19.5672 7.57274 19.5722 7.60834 19.5926 7.64395C19.6129 7.67955 19.6384 7.71516 19.6638 7.75076C19.8215 7.87284 20.0097 7.93388 20.2335 7.93388C20.3403 7.93388 20.4319 7.91862 20.5082 7.89318ZM13.3668 3.85453C13.3311 3.77823 13.3057 3.72228 13.2854 3.68159C13.265 3.6409 13.2396 3.61038 13.204 3.59003L13.1531 3.67141C13.1124 3.73754 13.1226 3.78332 13.1836 3.80366C13.2447 3.82401 13.3057 3.83927 13.3668 3.85453ZM12.9904 3.70193V3.64089C12.9853 3.59512 12.9598 3.56968 12.9191 3.56968C12.8785 3.58494 12.8479 3.59512 12.8276 3.6002C12.8225 3.64598 12.8378 3.6765 12.8734 3.68159C12.909 3.68667 12.9497 3.69685 12.9904 3.70193ZM16.9375 8.40183C16.8103 8.36623 16.6526 8.34079 16.4695 8.31536C16.2864 8.28993 16.1084 8.26958 15.9405 8.24924C15.9558 8.31027 15.9863 8.37131 16.0321 8.43235C16.1185 8.53917 16.2101 8.64598 16.2966 8.74771C16.383 8.74262 16.4949 8.69176 16.6221 8.60529C16.8052 8.48322 16.912 8.41709 16.9375 8.40183Z" fill="currentColor"/>
</svg>
