<svg width="40" height="16" viewBox="0 0 40 16" fill="none" xmlns="http://www.w3.org/2000/svg">
<path fill-rule="evenodd" clip-rule="evenodd" d="M31.2865 5.33334C31.1615 5.15741 31.0365 4.97685 30.9208 4.80093L30.8328 5L31.0319 9.63426C31.0319 10.1528 30.9764 10.6528 30.8606 11.1389C30.7449 11.625 30.5782 12.0787 30.356 12.5C30.4532 12.1204 30.5227 11.6991 30.5689 11.2269C30.6152 10.7546 30.6338 10.3009 30.6338 9.85648C30.6338 9.32407 30.606 8.72222 30.5551 8.05093C30.5041 7.37963 30.4532 6.68519 30.3977 5.96297C30.3467 5.24074 30.319 4.66667 30.319 4.23611C30.2819 4.16204 30.2634 4.09723 30.2634 4.0463C30.2634 3.94445 30.3143 3.81944 30.4208 3.68056C30.5782 3.46759 30.6569 3.35185 30.6662 3.33796C30.8143 3.64352 30.9439 3.95834 31.0504 4.29167C31.1569 4.625 31.2356 4.97222 31.2912 5.33796L31.2865 5.33334ZM27.3328 3.13426C27.2958 3.31945 27.1569 3.44908 26.9115 3.52315C26.5412 3.64352 26.3375 3.71296 26.3004 3.73611L24.2912 4.51389C24.2912 4.44908 24.3236 4.375 24.393 4.29167C24.4578 4.20834 24.5319 4.16667 24.606 4.15741L27.3375 3.13426H27.3328ZM26.4208 5.64352C26.3977 5.70834 26.3421 5.74537 26.2541 5.74537C26.2032 5.74537 26.1523 5.73611 26.1106 5.71296L25.9902 5.56945C25.944 5.68056 25.9115 5.75463 25.8884 5.79167C25.8375 5.875 25.768 5.93055 25.6893 5.95833C25.5921 5.98148 25.5134 5.95833 25.444 5.89352C25.4069 5.85648 25.3606 5.78704 25.3097 5.68056C25.319 5.62963 25.3236 5.48148 25.3328 5.23611C25.3421 4.99074 25.3977 4.81944 25.4995 4.71296C25.5227 4.75926 25.5319 4.81481 25.5319 4.87963C25.5319 4.94444 25.5319 5.00463 25.5227 5.05556C25.4949 5.25 25.4764 5.35185 25.4764 5.36574C25.4764 5.52778 25.5597 5.61111 25.731 5.61111C25.7588 5.60185 25.7865 5.60186 25.8097 5.60186C25.8838 5.53704 25.9208 5.43981 25.9208 5.31481C25.9069 5.17593 25.8977 5.06482 25.8977 4.99074C25.8977 4.87963 25.9347 4.7963 26.0088 4.73611C26.0319 4.76389 26.0412 4.8287 26.0412 4.92593C26.0319 5.05093 26.0319 5.13889 26.0319 5.19445C26.0319 5.27778 26.0458 5.33796 26.0782 5.37963C26.106 5.4213 26.1662 5.43982 26.2541 5.43982C26.3051 5.43982 26.3467 5.4213 26.3745 5.38426C26.3467 5.25926 26.3143 5.12963 26.2865 4.99537C26.2865 4.91204 26.3097 4.85186 26.3514 4.80556C26.4532 4.88889 26.5088 5.01852 26.5088 5.19445C26.5088 5.28241 26.5041 5.35648 26.4902 5.41204C26.481 5.4676 26.4532 5.54629 26.4162 5.65278L26.4208 5.64352ZM26.9764 7.02315C26.9254 7.125 26.893 7.2037 26.8745 7.25463L26.5875 7.14352C26.5273 7.43055 26.4856 7.64815 26.4532 7.78703C26.4023 8.05555 26.319 8.23148 26.2078 8.31945C26.1986 8.31019 26.1199 8.12963 25.9625 7.77315C25.8652 7.55092 25.7356 7.43981 25.5736 7.43981C25.5227 7.39352 25.4949 7.35185 25.4949 7.30556C25.4949 7.25926 25.518 7.2037 25.569 7.12963C25.6152 7.05555 25.643 7 25.6523 6.96296C25.8097 7 25.9393 7.12963 26.0412 7.35185C26.1245 7.5463 26.2078 7.73611 26.2958 7.93056C26.3467 7.60648 26.3838 7.40278 26.4069 7.32871C26.4671 7.10648 26.5597 6.93518 26.6847 6.81944C26.7356 6.84259 26.7958 6.86574 26.856 6.89815C26.9208 6.92592 26.9578 6.9676 26.9717 7.01852L26.9764 7.02315ZM22.0643 5.81019C22.0643 5.90741 22.0458 6.00926 22.0041 6.11574C21.9625 6.22222 21.9023 6.30093 21.819 6.34259C21.7727 6.35185 21.731 6.3287 21.6893 6.2824C21.6477 6.23611 21.6152 6.18519 21.5967 6.13426C21.5736 6.08333 21.5643 6.00926 21.5643 5.91204C21.5643 5.77315 21.6014 5.61111 21.6754 5.43519C21.7125 5.34723 21.7541 5.25926 21.7958 5.16667C21.7819 5.21297 21.7588 5.29166 21.7356 5.40741C21.7078 5.52315 21.6986 5.61111 21.6986 5.66667C21.6986 5.73149 21.7078 5.80093 21.7217 5.86574C21.7356 5.93056 21.7773 5.99537 21.8421 6.05556C21.8884 6.0463 21.9208 6.01852 21.9486 5.96759C21.9764 5.91667 21.9995 5.86574 22.0227 5.81019H22.069H22.0643ZM20.8652 3C20.8143 3.19907 20.606 3.34259 20.2449 3.43519C20.0088 3.49537 19.8467 3.55093 19.7541 3.60185C19.4578 3.74074 19.0365 3.91204 18.4856 4.11112C18.0782 4.25926 17.819 4.35648 17.7078 4.39815C18.1014 4.10185 18.6847 3.80093 19.4625 3.5C19.8421 3.36111 20.2171 3.21296 20.5967 3.06481L20.8652 3ZM28.8977 5.47685C28.9254 5.375 28.8236 5.00926 28.5921 4.38426C28.3606 3.75926 28.2125 3.39352 28.1523 3.29167C28.1152 3.34259 28.0458 3.43981 27.9393 3.5787C27.7912 3.79167 27.7171 3.97685 27.7171 4.13426C27.7171 4.19444 27.7264 4.25463 27.7495 4.32407L28.3143 9.53704V10.5602C27.981 10.7083 27.6199 10.8194 27.2356 10.8935C27.0643 10.9306 26.6986 10.9815 26.1338 11.0509C26.2541 10.8426 26.3745 10.625 26.5041 10.3935C26.6338 10.162 26.6986 9.94907 26.6986 9.75C26.5967 9.46759 26.3838 9.24074 26.0643 9.07408C25.9671 9.02315 25.6847 8.91204 25.2078 8.74074C25.0504 8.69445 24.9023 8.67593 24.7634 8.67593C24.481 8.67593 24.1986 8.75 23.9069 8.89815C23.7078 9 23.4671 9.16667 23.1847 9.38889C23.2495 9.14352 23.2958 8.93981 23.3143 8.77315C23.3328 8.60648 23.3421 8.375 23.3421 8.0787C23.3421 7.78241 23.2819 7.09722 23.1662 6C23.1152 5.51852 23.0875 5.11574 23.0875 4.78704C23.1338 4.82407 23.1986 4.90278 23.2865 5.01852C23.3745 5.13889 23.444 5.21759 23.4995 5.26389C23.4995 5.23611 23.4995 5.18982 23.5088 5.12963C23.5088 4.90741 23.4254 4.62037 23.2634 4.26389C23.069 3.84259 22.9578 3.55556 22.9208 3.40741C22.7125 3.56945 22.5782 3.81482 22.5088 4.13889C22.6847 5.20371 22.8143 6.09259 22.8884 6.80556C22.9902 7.76852 23.0458 8.6713 23.0458 9.51852C22.9856 9.5787 22.6986 9.89815 22.1801 10.4861C21.9949 10.6944 21.8236 10.8657 21.6708 10.9954C21.4995 10.9213 21.3467 10.8102 21.2171 10.662C21.0828 10.5139 20.981 10.3519 20.9069 10.1713C20.8236 9.60185 20.768 8.93519 20.731 8.17593C20.694 7.41667 20.6569 6.65741 20.6199 5.89352C20.5828 5.12963 20.5227 4.46297 20.444 3.89352C20.2819 4.01852 20.1708 4.1713 20.1106 4.34722C20.0504 4.52315 20.0227 4.73611 20.0227 4.98148C20.0227 5.10648 20.0319 5.30092 20.0551 5.56018C20.0782 5.81944 20.0875 6.00926 20.0875 6.125C20.0875 6.28241 20.106 6.63426 20.1477 7.18519C20.1893 7.73611 20.2078 8.13426 20.2078 8.37963C20.2078 8.71297 20.1893 9.00926 20.1477 9.26852C20.106 9.52778 20.0273 9.77778 19.9069 10.0139C19.9069 9.62037 19.8838 9.25 19.8421 8.90278C19.6477 8.48148 19.3375 8.00463 18.9069 7.4676C18.5227 7.02315 18.1384 6.57407 17.7634 6.125C17.2958 5.5787 16.9578 5.12037 16.7541 4.75926C16.768 4.75926 16.819 4.77778 16.9115 4.81481C16.9995 4.85185 17.069 4.86111 17.1106 4.84722C17.0504 4.74537 16.9532 4.60648 16.8143 4.43981C16.6754 4.27315 16.4671 4.03241 16.1847 3.72222C16.0967 3.81944 16.0365 3.91204 16.0088 4.00463C15.981 4.09722 15.9625 4.19444 15.9625 4.30092C15.9625 4.52315 16.0551 4.79167 16.2402 5.11111C16.3375 5.28241 16.4902 5.53703 16.7032 5.88426C16.9162 6.22685 17.2958 6.69445 17.8421 7.27778C18.4486 7.9213 18.8514 8.38426 19.0551 8.66667C19.4393 9.19907 19.6662 9.73148 19.731 10.2685C19.3467 10.75 18.8097 11.1852 18.1199 11.5694C17.7264 11.7824 17.1338 12.088 16.3421 12.4815C16.4532 12.4583 16.7958 12.375 17.3745 12.2269C17.7912 12.125 18.143 12.0509 18.4393 12.0046C18.8745 11.8843 19.2819 11.6065 19.6523 11.162C19.9347 10.8194 20.1847 10.3981 20.4069 9.89352C20.4347 10.1157 20.4717 10.3472 20.5134 10.5926C20.5551 10.838 20.6245 11.0324 20.7171 11.1806C20.9115 11.4768 21.1662 11.6898 21.4856 11.8148C21.7449 11.9167 22.069 11.9722 22.4532 11.9722C23.2449 11.8704 24.0365 11.7593 24.8328 11.6481C25.0319 11.6944 25.2078 11.7269 25.356 11.75C25.5041 11.7732 25.6708 11.7824 25.856 11.7824C27.1291 11.588 27.8004 11.4768 27.8652 11.4491C28.2495 11.287 28.5088 11.0139 28.643 10.625C28.6893 10.3194 28.7078 10.0231 28.7078 9.72685V9.60648C28.7078 9.13889 28.6384 8.41667 28.5041 7.43518C28.3652 6.4537 28.3004 5.70834 28.3004 5.19445L28.4439 5.01852C28.5088 5.12963 28.5782 5.24074 28.6477 5.35185C28.7171 5.46296 28.8004 5.50926 28.8977 5.48612V5.47685ZM18.8421 4.53241C19.0134 4.85185 19.0967 5.17592 19.0967 5.50926C19.0967 5.86574 18.9949 6.15741 18.7958 6.38889C18.9069 6.25 18.9625 6.06482 18.9625 5.83334C18.9625 5.67593 18.944 5.52315 18.9023 5.37037C18.8606 5.2176 18.8051 5.02778 18.731 4.7963L18.8421 4.52778V4.53241ZM14.944 5.56482C14.944 5.56482 14.8653 5.7037 14.731 5.93056C14.643 6.08796 14.5412 6.18055 14.4301 6.21759C14.356 6.12963 14.2634 6.05092 14.1523 5.98611C14.1014 5.95833 13.9949 5.89815 13.8282 5.81019C13.7449 5.94908 13.6847 6.05556 13.6384 6.12037C13.5551 6.25463 13.4625 6.30556 13.3514 6.27778L12.7865 5.95371C12.8884 5.70833 13.0365 5.48148 13.231 5.27778C13.3143 5.30092 13.4578 5.37037 13.6662 5.49074C13.7773 5.55093 13.8653 5.59259 13.9347 5.625C13.9856 5.60185 14.0643 5.51389 14.1754 5.35648C14.2819 5.19907 14.3699 5.125 14.4347 5.125C14.4995 5.125 14.5736 5.17593 14.6569 5.28241C14.6662 5.28241 14.7217 5.3287 14.8236 5.41667C14.8884 5.46759 14.9301 5.51852 14.944 5.57407V5.56482ZM12.6014 3.81018C12.6384 3.84722 12.643 3.89352 12.6199 3.94445C12.5921 3.99537 12.5736 4.04167 12.5597 4.0787C12.5088 4.06482 12.4578 4.05093 12.4162 4.04167C12.3699 4.03241 12.3375 4.03704 12.3143 4.06019C12.2403 4.18056 12.1893 4.37963 12.1569 4.66203C12.1291 4.94444 12.0736 5.13426 11.9995 5.24074C11.9115 5.01852 11.8421 4.85648 11.8004 4.75C11.7032 4.55092 11.569 4.44908 11.4023 4.44908C11.3421 4.41204 11.3004 4.38426 11.2819 4.37037C11.231 4.33334 11.2032 4.29166 11.2032 4.25C11.2032 4.12963 11.2171 4.03241 11.2495 3.9537C11.2773 3.875 11.3421 3.81482 11.4393 3.76852C11.5782 3.87037 11.694 4.01852 11.7819 4.20833C11.8699 4.39815 11.9578 4.5787 12.0365 4.75926C12.0736 4.48611 12.106 4.28241 12.1384 4.14815C12.1986 3.89815 12.2958 3.76852 12.4393 3.76852C12.4903 3.76852 12.5458 3.78241 12.606 3.81482L12.6014 3.81018ZM12.4903 5.74537C12.4903 5.87963 12.4625 5.9676 12.4115 6.01389C12.3606 6.06019 12.2819 6.07871 12.1801 6.07871C12.0412 6.06482 11.9347 6.05556 11.8699 6.05556C11.7449 6.05556 11.6569 6.07407 11.6014 6.11111C11.5504 6.14815 11.5088 6.20834 11.481 6.28704C11.4949 6.46296 11.5365 6.68056 11.6014 6.93056C11.6662 7.18056 11.731 7.42129 11.7912 7.64352C11.819 7.75463 11.8421 7.85648 11.856 7.9537C11.8699 8.05092 11.8791 8.16203 11.8791 8.28703C11.8791 8.54629 11.8282 8.79167 11.7217 9.01852C11.7588 8.84722 11.7773 8.69908 11.7773 8.57408C11.7773 8.40278 11.7541 8.22222 11.7125 8.02778C11.6986 7.9537 11.6477 7.77778 11.569 7.49537C11.518 7.32408 11.4717 7.15278 11.4301 6.97222C11.3884 6.7963 11.3699 6.62963 11.3699 6.48148C11.3699 6.33333 11.393 6.18056 11.4347 6.02778C11.4995 5.93056 11.5921 5.86111 11.7078 5.81481C11.8236 5.76852 11.9625 5.73148 12.1245 5.7037C12.0782 5.62963 11.9903 5.59259 11.856 5.59259C11.819 5.59259 11.7634 5.60186 11.6893 5.61574C11.6523 5.48149 11.7125 5.37963 11.8653 5.30555C11.9903 5.29166 12.1106 5.3287 12.2217 5.41667C12.3328 5.50463 12.4208 5.61111 12.4903 5.74074V5.74537ZM16.6893 9.22222C16.6893 9.83796 16.4023 10.4306 15.8236 11C15.6384 11.1852 15.3143 11.4537 14.856 11.8102C14.2356 12.1667 13.6801 12.4352 13.1986 12.6204C12.5458 12.8704 11.944 13 11.3884 13C11.1384 13 10.9208 12.9861 10.7449 12.9537C10.569 12.9259 10.356 12.8611 10.1106 12.7639C9.80044 12.6018 9.54581 12.3935 9.3421 12.1435C9.11062 11.8565 8.99951 11.5556 8.99951 11.2454C8.99951 10.7176 9.05044 10.2361 9.14766 9.79166C9.24488 9.34722 9.41618 8.93056 9.65229 8.53704C9.45322 8.21759 9.35136 7.87963 9.35136 7.52778C9.35136 7.17592 9.45322 6.75 9.66155 6.2824C9.70784 6.18518 9.91155 5.80556 10.2727 5.13889C10.2958 5.125 10.319 5.08796 10.3514 5.02778C10.3791 4.96759 10.4208 4.94445 10.4717 4.94908C10.3236 5.26852 10.1754 5.58796 10.0273 5.90278C9.85599 6.30093 9.77266 6.64352 9.77266 6.92592C9.77266 7.23611 9.86525 7.50926 10.0504 7.75C10.1754 7.77778 10.2727 7.72222 10.3375 7.5787C10.4023 7.43518 10.4625 7.35185 10.5134 7.32871C10.4671 7.625 10.4069 7.87037 10.3236 8.06019C10.2032 8.32871 10.0412 8.50926 9.83284 8.60648C9.69396 9.00463 9.58747 9.31482 9.52266 9.52778C9.39766 9.9213 9.33284 10.2454 9.33284 10.5046C9.33284 10.6759 9.35599 10.8333 9.40692 10.9815C9.45322 11.1296 9.53655 11.2731 9.64766 11.4167C9.87914 11.6852 10.1477 11.8843 10.4625 12.0185C10.7773 12.1528 11.1106 12.2176 11.4671 12.2176C11.6662 12.2176 11.8745 12.1944 12.0875 12.1528C12.9115 11.9815 13.6615 11.7176 14.3421 11.3657C15.0736 10.9815 15.7217 10.4861 16.2865 9.875C16.2588 9.72685 16.2264 9.60648 16.1986 9.51389C16.1708 9.4213 16.1152 9.36574 16.0365 9.35185C15.9578 9.33796 15.8699 9.3287 15.7634 9.3287C15.643 9.3287 15.4764 9.33796 15.2634 9.35648C15.0504 9.375 14.9208 9.38426 14.8745 9.38426C14.6384 9.38426 14.4532 9.35648 14.319 9.2963C14.143 9.21296 14.0088 9.06944 13.9208 8.86111C13.9578 8.5 14.0458 8.1713 14.1801 7.87963C14.319 7.58797 14.518 7.34722 14.7865 7.16204C14.8375 7.14815 14.9162 7.13889 15.018 7.13889C15.2171 7.13889 15.4069 7.18981 15.5921 7.29629C15.7727 7.39815 15.9486 7.5463 16.1199 7.73148C16.3051 7.9537 16.444 8.18518 16.5365 8.43055C16.6291 8.67592 16.6754 8.93982 16.6754 9.23148L16.6893 9.22222ZM13.3097 10.2685C13.2495 10.3565 13.2078 10.4167 13.1893 10.4444C13.1291 10.5093 13.069 10.5417 12.9995 10.5324C12.9347 10.4352 12.8977 10.3148 12.8977 10.1667C12.8977 10.0694 12.9162 9.94907 12.9532 9.80093C12.9671 9.72685 12.9995 9.61111 13.0412 9.45833C13.0319 9.49537 12.9764 9.65278 12.8745 9.92593C12.8004 10.125 12.7634 10.287 12.7634 10.4028C12.7634 10.5602 12.8097 10.6944 12.9069 10.8148C12.944 10.838 12.981 10.838 13.0227 10.8194C13.0643 10.8009 13.1106 10.7685 13.1615 10.7269C13.1893 10.6667 13.2217 10.6065 13.2495 10.5509C13.3097 10.4306 13.3282 10.338 13.3051 10.2731L13.3097 10.2685ZM11.2217 10.3704C11.1847 10.3796 11.143 10.4259 11.1014 10.5093C11.0551 10.5926 10.9949 10.625 10.9115 10.6018C10.8097 10.5556 10.7541 10.4722 10.7541 10.3472C10.7541 10.287 10.768 10.2083 10.7912 10.1018C10.819 10 10.8282 9.94444 10.8282 9.93518C10.7634 10.0556 10.7125 10.162 10.6801 10.2593C10.6477 10.3565 10.6291 10.4583 10.6291 10.5694C10.6291 10.6296 10.6291 10.6713 10.6384 10.7037C10.6754 10.8426 10.7773 10.9167 10.9486 10.9167C11.0319 10.8704 11.0921 10.7917 11.1384 10.6713C11.1615 10.5741 11.1847 10.4768 11.2171 10.3704H11.2217ZM26.1754 10.4167C25.6291 10.6852 24.981 10.8704 24.231 10.9722C23.6847 11.0463 22.981 11.0833 22.1199 11.0833C22.6106 10.5556 22.9625 10.2037 23.1754 10.0278C23.6106 9.6713 24.0365 9.49537 24.4532 9.49537C24.5412 9.49537 24.6384 9.50463 24.7356 9.51852C24.8375 9.53241 24.9254 9.55555 25.0088 9.58333C25.3791 9.74074 25.606 9.83797 25.6847 9.88426C25.9208 10.0232 26.0828 10.2037 26.1754 10.4167ZM15.6662 8.47222C15.5273 8.32408 15.393 8.20833 15.268 8.12963C15.0967 8.01852 14.9393 7.96296 14.7912 7.96296C14.6801 7.96296 14.5597 8.00463 14.4347 8.08333C14.4208 8.12963 14.4115 8.16667 14.4115 8.19444C14.4115 8.24537 14.4301 8.28241 14.4671 8.30556C14.5504 8.39352 14.6477 8.45834 14.7634 8.49537C14.8791 8.53241 14.9949 8.55093 15.1153 8.55093C15.2125 8.55093 15.3143 8.54166 15.4254 8.51852C15.5365 8.49537 15.6199 8.48148 15.6708 8.47222H15.6662Z" fill="currentColor"/>
</svg>
