<svg width="40" height="16" viewBox="0 0 40 16" fill="none" xmlns="http://www.w3.org/2000/svg">
<path fill-rule="evenodd" clip-rule="evenodd" d="M31.5514 5.08459L31.1284 4.52064L31.0076 4.72205L31.36 9.87814C31.3147 10.427 31.1939 10.9809 31.0076 11.5297C31.0076 11.3837 31.0176 11.1873 31.0327 10.9507C31.0478 10.714 31.0579 10.5831 31.0579 10.5629L30.635 5.15508C30.6098 4.81772 30.5846 4.54582 30.5645 4.33434C30.5443 4.12286 30.5141 3.90634 30.4738 3.68479C30.5393 3.51863 30.5896 3.40282 30.6148 3.3424C30.6752 3.20645 30.7407 3.10574 30.8162 3.03021C31.0126 3.41792 31.1637 3.75025 31.2694 4.02719C31.4104 4.39476 31.5061 4.74723 31.5514 5.08459ZM27.5433 3.12084C27.4879 3.24673 27.4225 3.33736 27.3419 3.38268C26.3902 3.65961 25.4889 3.93152 24.643 4.19839C23.7971 4.46526 22.926 4.7573 22.0348 5.06445C22.0549 4.98389 22.1002 4.91339 22.1707 4.85297C22.2412 4.79255 22.3218 4.74219 22.4174 4.70191C23.1576 4.44511 24.0035 4.17321 24.9653 3.8862C25.8263 3.6294 26.6823 3.37764 27.5433 3.12084ZM27.2311 7.05841C27.2362 7.12387 27.2261 7.19939 27.1908 7.28499C27.1556 7.37059 27.1153 7.45116 27.07 7.53172C27.0297 7.55186 26.9894 7.56193 26.9492 7.56193C26.8837 7.56193 26.8333 7.54179 26.8031 7.49648C26.7729 7.45116 26.7477 7.40081 26.7276 7.33535C26.7075 7.26989 26.6974 7.2145 26.6974 7.16918C26.6974 7.08862 26.7125 7.00805 26.7477 6.92749L26.8887 6.66566C26.8887 6.71098 26.8787 6.77643 26.8636 6.86203C26.8485 6.94763 26.8384 6.99798 26.8384 7.01812C26.8384 7.09365 26.8636 7.15408 26.9089 7.20947C26.9643 7.23464 27.0146 7.25982 27.07 7.27996C27.0851 7.26485 27.1053 7.22961 27.1355 7.16918C27.1657 7.10876 27.1959 7.07351 27.2311 7.05841ZM26.0025 6.33333C25.9623 6.40886 25.9169 6.44411 25.8716 6.44411C25.8464 6.44411 25.7961 6.429 25.7306 6.39376C25.6652 6.35851 25.6148 6.3434 25.5896 6.3434C25.5443 6.3434 25.5091 6.40383 25.4889 6.52467C25.4436 6.60524 25.353 6.64552 25.217 6.64552C25.1768 6.64552 25.1163 6.64048 25.0358 6.62538C24.9502 6.53978 24.9049 6.429 24.9049 6.29305C24.9049 6.21249 24.92 6.11682 24.9502 6.00604C24.9804 5.89527 25.0106 5.78952 25.0358 5.68882L25.0962 5.63847C25.1163 5.67875 25.1163 5.75931 25.0962 5.87513C25.076 5.99094 25.066 6.07653 25.066 6.12185C25.066 6.2578 25.1314 6.33837 25.2573 6.36354C25.3782 6.34844 25.4638 6.29809 25.5091 6.21249C25.5292 6.1571 25.5393 6.10674 25.5393 6.06143C25.5191 5.92044 25.5091 5.8147 25.5091 5.74924C25.5091 5.63343 25.5544 5.55791 25.6501 5.51762V5.7291C25.6501 5.83484 25.6601 5.92044 25.6752 5.97583C25.6903 6.03122 25.7306 6.08661 25.7911 6.13192H25.932C25.9371 6.09164 25.932 6.02618 25.9119 5.93051C25.8918 5.83484 25.8817 5.76938 25.8817 5.7291C25.8817 5.6284 25.922 5.55287 26.0025 5.49748C26.0176 5.58308 26.0327 5.67875 26.0478 5.77945C26.063 5.88016 26.073 5.95569 26.073 6.01108C26.073 6.12689 26.0478 6.23263 26.0025 6.33333ZM21.2996 4.85297L21.2694 4.86304C21.3349 4.67674 21.3701 4.48036 21.3701 4.27895C21.3701 4.11783 21.35 3.96173 21.3046 3.80564C21.2593 3.64955 21.1939 3.51863 21.1083 3.40282C21.1133 3.36254 21.1284 3.31218 21.1435 3.24673C21.1586 3.18127 21.2039 3.15106 21.2694 3.15106C21.4305 3.40785 21.5111 3.68983 21.5111 4.00705C21.5111 4.30413 21.4406 4.5861 21.2996 4.85297ZM28.923 4.81269C28.9633 4.77744 28.9834 4.72205 28.9834 4.64149C28.9834 4.44008 28.8877 4.12286 28.6914 3.69486C28.5252 3.32729 28.3943 3.09567 28.3087 3C28.2432 3.11581 28.1727 3.23162 28.0972 3.35247C28.0217 3.47331 27.9864 3.58409 27.9864 3.68479C27.9864 3.75025 28.0066 3.82074 28.0468 3.89627C28.0468 4.45519 28.1022 5.09466 28.213 5.82477C28.3238 6.55488 28.4346 7.26989 28.5403 7.97482C28.646 8.67976 28.7014 9.3293 28.7014 9.9285C28.4446 10.0342 28.1878 10.1249 27.926 10.1954C27.6642 10.2659 27.4023 10.3162 27.1405 10.3414C27.2412 10.2004 27.3419 10.0594 27.4426 9.91843C27.644 9.63142 27.7296 9.36959 27.7044 9.13293C27.5433 8.89124 27.3268 8.70493 27.0499 8.57905C26.8434 8.47835 26.5715 8.39778 26.2342 8.33736C26.0781 8.30211 25.9471 8.28701 25.8313 8.28701C25.4889 8.28701 25.1465 8.40282 24.8041 8.63947C24.5423 8.82074 24.2603 9.07754 23.9582 9.40483C23.5202 9.88318 23.2734 10.145 23.213 10.2004C23.1173 10.1349 23.0267 10.0644 22.9411 9.99899C22.8253 9.91339 22.7699 9.82779 22.7699 9.74723C22.7699 9.69184 22.8001 9.63142 22.8605 9.55589C22.7044 9.59617 22.5081 9.75226 22.2613 10.0191C22.0146 10.286 21.8031 10.422 21.6219 10.422C21.5967 10.422 21.5463 10.4169 21.4809 10.4018C21.3248 10.3061 21.1888 10.1652 21.068 9.97885C20.9723 9.83787 20.8918 9.66163 20.8263 9.45519C20.8263 8.46324 20.7659 7.42598 20.645 6.3434C20.5242 5.26083 20.358 4.20342 20.1516 3.16113C20.066 3.26687 19.9955 3.38268 19.9401 3.50352C19.92 3.54381 19.8746 3.66465 19.7991 3.86606C19.92 4.34945 20.0156 4.89325 20.0912 5.49748C20.1113 5.65357 20.1667 6.21249 20.2624 7.17925C20.3026 7.9295 20.348 8.67976 20.3933 9.42497C20.4738 10.3112 20.8062 10.9104 21.3902 11.2276C21.6068 11.2276 21.8182 11.1168 22.0247 10.8953C22.1405 10.7744 22.3067 10.5881 22.5282 10.3414C22.5282 10.4169 22.5584 10.5076 22.6188 10.6133C22.644 10.6687 22.6944 10.7492 22.7598 10.8651C22.6541 11.0413 22.5886 11.142 22.5685 11.1772C22.4678 11.3635 22.4023 11.5549 22.3671 11.7412C22.4628 11.6808 22.5685 11.5599 22.6893 11.3736C22.8102 11.1873 22.9059 11.0614 22.9713 10.996C23.1324 11.0765 23.2885 11.1319 23.4396 11.1621C23.5907 11.1923 23.7669 11.2074 23.9683 11.2074C24.0942 11.2074 24.4064 11.1823 24.9049 11.137C25.1214 11.1168 25.3026 11.1067 25.4487 11.1067C25.4537 11.1067 25.5191 11.1067 25.64 11.1168C25.7608 11.1219 25.8716 11.1319 25.9723 11.147C26.073 11.1621 26.1989 11.1672 26.355 11.1672C26.7629 11.1672 27.1707 11.1118 27.5786 10.996C27.9864 10.8802 28.359 10.7241 28.7014 10.5227C28.8223 10.2961 28.9079 10.0594 28.9582 9.81772C29.0086 9.57603 29.0338 9.31923 29.0338 9.0423C29.0338 8.67472 28.9633 8.11077 28.8223 7.35045C28.6813 6.59013 28.6108 6.02618 28.6108 5.65861C28.5957 5.55287 28.5755 5.39174 28.5403 5.1853C28.505 4.97885 28.4899 4.80262 28.4899 4.66163V4.51057C28.4899 4.44512 28.495 4.38469 28.5101 4.3293C28.5755 4.36959 28.6511 4.44511 28.7316 4.55085C28.7719 4.60624 28.8374 4.69184 28.923 4.81269ZM23.6964 6.47432L23.6259 6.75629C23.6007 6.75126 23.5504 6.71601 23.4849 6.66062C23.4195 6.60523 23.359 6.58006 23.3036 6.59517C23.218 6.71601 23.1576 6.92245 23.1324 7.2145C23.1073 7.50654 23.0569 7.70795 22.9915 7.82376C22.9361 7.77845 22.8404 7.59214 22.6994 7.26989C22.5937 7.02819 22.4678 6.93252 22.3268 6.97784C22.2412 6.99798 22.1606 6.9577 22.0952 6.857C22.0952 6.76133 22.1053 6.68077 22.1304 6.61531C22.1556 6.54985 22.1959 6.48943 22.2563 6.43404C22.4577 6.45921 22.6138 6.58509 22.7296 6.80665C22.8152 7.00302 22.9059 7.19436 22.9915 7.39074C23.0267 7.19436 23.067 6.99295 23.1123 6.78147C23.1576 6.56999 23.2483 6.40886 23.3741 6.29305C23.4195 6.29305 23.4799 6.30312 23.5453 6.3283C23.6108 6.35347 23.6611 6.39879 23.6964 6.47432ZM19.5171 3.12084L19.3761 3.38268C19.3157 3.40785 18.9381 3.56395 18.2382 3.84592C17.4275 4.17321 16.8031 4.46526 16.3651 4.72205C16.3449 4.68177 16.355 4.62638 16.3953 4.56093C16.4003 4.54582 16.4406 4.49547 16.5161 4.3998C16.8132 4.25881 17.1909 4.08761 17.6541 3.8862C18.1173 3.68479 18.7367 3.42799 19.5171 3.12084ZM18.1677 5.7996C18.1224 5.9003 18.0569 6.01611 17.9814 6.15206C17.9059 6.28801 17.8303 6.40383 17.7548 6.50453C17.7145 6.44411 17.6037 6.36355 17.4174 6.25781C17.2311 6.15207 17.1405 6.04632 17.1405 5.94058L17.6037 5.49748L18.1677 5.7996ZM25.0358 11.711C25.0509 11.8066 25.0559 11.857 25.0559 11.862C25.0559 11.9174 25.0408 11.9577 25.0156 11.9829C24.8948 12.0584 24.779 12.1339 24.6732 12.2145C24.5071 12.2598 24.3208 12.285 24.1194 12.285C24.0035 12.2195 23.8877 12.1843 23.7669 12.1843C23.6914 12.1843 23.6158 12.1994 23.5403 12.2246C23.4648 12.2497 23.3842 12.285 23.3036 12.3253C23.1375 12.4411 23.0116 12.5216 22.931 12.577C22.7749 12.6777 22.644 12.7432 22.5282 12.7684L21.501 13C21.6823 12.9597 21.8988 12.8892 22.1455 12.7885C22.4678 12.6526 22.7447 12.5116 22.9713 12.3555C23.1979 12.1994 23.3993 12.0836 23.5705 12.0081C23.7417 11.9325 23.8928 11.8922 24.0186 11.8922C24.1345 11.8922 24.215 11.9275 24.2603 11.993C24.3409 11.9527 24.4215 11.9023 24.497 11.8419C24.5725 11.7815 24.6481 11.7261 24.7236 11.6757C24.7991 11.6254 24.8545 11.6002 24.8948 11.6002C24.9502 11.6002 24.9955 11.6354 25.0358 11.711ZM16.2543 7.05841C16.2543 7.05841 16.2694 6.96274 16.2946 6.80665C16.3198 6.65055 16.3349 6.50957 16.3349 6.37361C16.3349 6.19738 16.3198 6.05136 16.2895 5.93555C16.2593 5.81974 16.1939 5.70393 16.0932 5.58812L16.2342 5.36656C16.4003 5.55287 16.4859 5.80967 16.4859 6.13192C16.4859 6.27795 16.4708 6.42397 16.4456 6.55992C16.4205 6.69587 16.355 6.86203 16.2543 7.05841ZM18.7417 10.6032C18.8374 10.4068 18.9129 10.2054 18.9683 9.98892C19.0237 9.77241 19.0539 9.56092 19.0539 9.35448C19.0539 9.16817 19.0287 8.99194 18.9784 8.83081C18.928 8.66968 18.8474 8.52367 18.7417 8.39779C18.6007 8.19637 18.4547 8.04028 18.2986 7.93454C18.1173 7.80866 17.931 7.7432 17.7347 7.7432C17.6793 7.7432 17.639 7.7432 17.6138 7.75327C17.3167 7.85901 17.0952 8.08056 16.9492 8.40785C16.8736 8.56898 16.7931 8.87613 16.7075 9.32427C16.7629 9.54582 16.8736 9.69688 17.0398 9.77744C17.1606 9.83786 17.3369 9.86808 17.5735 9.86808C17.639 9.86808 17.7397 9.86807 17.8656 9.858C17.9915 9.85297 18.0871 9.84793 18.1475 9.84793C18.2432 9.84793 18.3339 9.85297 18.4245 9.86808C18.5151 9.88318 18.5856 9.90332 18.641 9.9285C18.4346 10.1903 18.1627 10.4018 17.8303 10.5579C17.498 10.714 17.1506 10.7946 16.788 10.7946C16.6722 10.7946 16.5614 10.7845 16.4456 10.7643C15.9824 10.4824 15.7407 9.94864 15.7155 9.1581C15.6903 8.36757 15.6752 7.93454 15.6601 7.85398L15.1264 3.19134L15.0458 3.09063L14.6732 3.74521C14.779 4.32427 14.8746 4.88822 14.9552 5.44713C15.0358 6.00604 15.1214 6.62034 15.217 7.29003C15.2926 7.59718 15.3328 8.28701 15.348 9.34945C15.3631 10.4119 15.6551 11.1521 16.2342 11.5599C16.355 11.5801 16.4809 11.5901 16.6068 11.5901C17.0045 11.5901 17.3872 11.5045 17.7598 11.3283C18.1324 11.1521 18.4597 10.9104 18.7417 10.6032ZM13.8072 4.69184C13.8072 4.81772 13.7921 4.9285 13.7568 5.02417C13.7216 5.11984 13.6561 5.1853 13.5554 5.22558C13.4748 5.23061 13.4195 5.20544 13.3892 5.13998C13.359 5.07452 13.3389 5.01913 13.3288 4.97382C13.3187 4.9285 13.3137 4.858 13.3137 4.77241C13.3137 4.63645 13.3238 4.53071 13.3439 4.45519C13.3641 4.37966 13.4295 4.21349 13.5353 3.96677C13.5353 4.02719 13.5302 4.09265 13.5151 4.1581C13.4748 4.36455 13.4547 4.49547 13.4547 4.54078C13.4547 4.65659 13.4698 4.73716 13.5051 4.78751C13.5403 4.83786 13.5906 4.88318 13.6561 4.92346C13.6813 4.86808 13.7065 4.81772 13.7316 4.77241C13.7568 4.72709 13.782 4.69688 13.8072 4.69184ZM12.075 3.49345L12.0146 3.73515C11.9542 3.68983 11.9089 3.65458 11.8837 3.63444C11.8283 3.59416 11.783 3.57402 11.7427 3.57402C11.647 3.96173 11.5564 4.35448 11.4607 4.74219C11.4154 4.68681 11.3248 4.52568 11.1989 4.24874C11.1435 4.12789 11.0831 4.02216 11.0076 3.93656C10.9723 3.9567 10.9371 3.96677 10.8968 3.96677C10.8414 3.96677 10.7961 3.96173 10.7608 3.94662C10.7256 3.93152 10.6501 3.8862 10.5443 3.80564C10.5645 3.6999 10.5947 3.60423 10.64 3.51863C10.6853 3.43303 10.7508 3.37261 10.8364 3.33232C10.9975 3.43303 11.1435 3.62941 11.2694 3.91641C11.3701 4.143 11.4356 4.28399 11.4607 4.3293C11.5061 4.07251 11.5463 3.87613 11.5715 3.73515C11.6319 3.46828 11.7175 3.33232 11.8233 3.33232C11.9038 3.33232 11.9894 3.38771 12.075 3.49345ZM13.0015 6.45418C12.9461 6.57503 12.8908 6.68077 12.8303 6.77643C12.7699 6.8721 12.6843 6.98288 12.5786 7.10876C12.5232 7.08862 12.3923 7.00806 12.1757 6.86707C12.0096 6.76133 11.8686 6.70594 11.7629 6.70594C11.7377 6.74119 11.6924 6.81168 11.637 6.92749C11.5816 7.0433 11.5212 7.11883 11.4607 7.15911C11.3399 7.14401 11.209 7.10876 11.068 7.0433C10.927 6.97784 10.7911 6.91742 10.6652 6.857C10.7004 6.73615 10.7508 6.62034 10.8162 6.5146C10.8817 6.40886 10.9673 6.29305 11.068 6.1722C11.1888 6.1722 11.3198 6.20745 11.4607 6.28298C11.7024 6.40383 11.8283 6.46928 11.8333 6.47432L12.2765 5.97079C12.352 6.00604 12.4426 6.05639 12.5534 6.12689C12.6642 6.19738 12.8152 6.30816 13.0015 6.45418ZM9.02368 4.70191C8.93808 4.88318 8.78199 5.16012 8.56044 5.53776C8.19287 6.1571 8.00656 6.65055 8.00656 7.01812C8.00656 7.10372 8.0116 7.19436 8.02167 7.28499C8.03174 7.37563 8.06698 7.49648 8.12741 7.6425C8.16265 7.67774 8.19287 7.70292 8.22308 7.7281C8.25329 7.75327 8.28853 7.76334 8.32882 7.76334C8.34896 7.76334 8.37413 7.75327 8.40938 7.73313C8.50505 7.61228 8.59568 7.49144 8.69135 7.37059C8.69135 7.57704 8.64604 7.78348 8.56044 7.98489C8.47484 8.1863 8.35399 8.36757 8.1979 8.5287C8.15762 8.5438 8.11734 8.54884 8.07705 8.54884C7.96124 8.54884 7.87564 8.51359 7.81522 8.43806C7.7548 8.30211 7.70948 8.16113 7.67423 8.00503C7.63899 7.84894 7.62388 7.70795 7.62388 7.572C7.62388 7.09365 7.77494 6.57502 8.07705 6.01108C8.15258 5.87009 8.32378 5.59315 8.60072 5.17523C8.641 5.13998 8.70646 5.06445 8.79206 4.94361C8.87766 4.82276 8.95822 4.74219 9.02368 4.70191ZM10.2523 8.59919C10.2523 8.72004 10.2321 8.84088 10.1919 8.95669C10.1516 9.0725 10.0861 9.15811 10.0005 9.20342C9.87967 9.2286 9.79407 9.17825 9.74372 9.05236C9.69337 8.92648 9.66316 8.85599 9.65812 8.85095C9.65812 8.68479 9.68833 8.51863 9.74876 8.35247C9.80918 8.1863 9.8696 8.03021 9.93003 7.87412C9.93003 7.92951 9.91492 8.00503 9.88974 8.10574C9.82932 8.33233 9.79911 8.48338 9.79911 8.54884C9.79911 8.69486 9.8545 8.81571 9.97031 8.90131C10.0559 8.91642 10.1163 8.8711 10.1465 8.77039C10.1768 8.66969 10.212 8.6143 10.2523 8.59919ZM14.3913 10.3615C14.3661 10.3011 14.3258 10.2608 14.2754 10.2356C14.2251 10.2105 14.1647 10.2004 14.0891 10.2004C12.9663 10.3817 11.8485 10.5629 10.7256 10.7442C10.3832 10.8046 10.0458 10.8348 9.70847 10.8348C9.30062 10.8348 8.92298 10.7795 8.57554 10.6737C8.22811 10.568 7.90082 10.3867 7.5836 10.1299C7.50304 10.0544 7.44765 9.97885 7.41744 9.89829C7.38723 9.81772 7.37212 9.73212 7.37212 9.63646C7.47786 9.26888 7.58864 8.89627 7.70445 8.5287C7.55842 8.64954 7.43254 8.82074 7.33687 9.04733C7.2412 9.27391 7.15057 9.4854 7.07001 9.68681C7.04986 9.78248 7.03476 9.87311 7.01965 9.96878C7.00455 10.0644 6.99951 10.1501 6.99951 10.2306C6.99951 10.3766 7.02469 10.5227 7.07504 10.6636C7.12539 10.8046 7.20092 10.9154 7.30163 10.996C7.56849 11.2024 7.8555 11.3535 8.15762 11.4391C8.45973 11.5247 8.79709 11.57 9.16467 11.57C9.29055 11.57 9.38118 11.57 9.43657 11.57C9.49196 11.57 9.62791 11.5549 9.8545 11.5297C10.0811 11.5045 10.3832 11.4542 10.7709 11.3736C11.1586 11.293 11.6974 11.1672 12.3973 11.001C12.5433 10.9809 12.6994 10.9557 12.8656 10.9305C13.0317 10.9053 13.1778 10.8902 13.3137 10.8902C13.4698 10.8902 13.6108 10.9154 13.7467 10.9607C13.7014 11.0614 13.3641 11.3988 12.7397 11.9778C12.493 12.2044 12.3469 12.431 12.3067 12.6526C12.7145 12.3152 13.1274 11.9829 13.5353 11.6556C14.0035 11.2326 14.2905 10.8046 14.3913 10.3666V10.3615ZM27.1606 9.78751C26.6017 10.004 26.1586 10.1551 25.8313 10.2407C25.3429 10.3666 24.8696 10.432 24.4215 10.432C24.1244 10.432 23.8323 10.4018 23.5353 10.3414C23.8424 9.95871 24.1395 9.66163 24.4215 9.45519C24.789 9.17825 25.1616 9.0423 25.5292 9.0423C25.6702 9.0423 25.8162 9.06243 25.9723 9.10272C26.35 9.20846 26.6219 9.31923 26.788 9.42497C26.9542 9.53071 27.0801 9.65156 27.1606 9.78751ZM24.7538 11.8721C24.7135 11.852 24.6531 11.8671 24.5725 11.9124C24.5171 11.9376 24.4769 11.9778 24.4416 12.0232C24.5625 12.0232 24.6481 12.0131 24.7034 11.9879C24.7588 11.9627 24.789 11.9426 24.7941 11.9225C24.7991 11.9023 24.789 11.8872 24.7538 11.8721ZM18.2382 9.02215C18.1576 9.02719 18.0771 9.03726 17.9915 9.0423C17.9059 9.04733 17.8203 9.05236 17.7246 9.05236C17.6037 9.05236 17.493 9.03726 17.3973 9.00201C17.3016 8.96677 17.2261 8.90634 17.1707 8.81068C17.1959 8.73011 17.2261 8.67472 17.2613 8.63947C17.2966 8.60423 17.3318 8.58409 17.3721 8.56898C17.5886 8.56898 17.785 8.63444 17.9663 8.77039C18.0317 8.82578 18.1224 8.90634 18.2382 9.02215Z" fill="currentColor"/>
</svg>
