<svg width="40" height="16" viewBox="0 0 40 16" fill="none" xmlns="http://www.w3.org/2000/svg">
<path fill-rule="evenodd" clip-rule="evenodd" d="M29.9697 5.48071C29.9036 5.40904 29.854 5.3484 29.8264 5.3043C29.6941 5.12238 29.6114 5.01213 29.5839 4.98456L29.4846 5.14995C29.4846 5.61301 29.5232 6.15877 29.6004 6.78721C29.6776 7.41566 29.7547 8.01102 29.8264 8.57883C29.8485 8.77177 29.8705 9.01433 29.8926 9.30651C29.9146 9.59868 29.9256 9.84123 29.9256 10.0342C29.9256 10.3815 29.9036 10.7012 29.865 11.0044C29.8264 11.3076 29.7547 11.6163 29.661 11.9305C29.661 11.0871 29.628 10.2657 29.5618 9.47189C29.4957 8.67806 29.4074 7.79603 29.2972 6.83131C29.1869 5.86659 29.0822 4.94598 28.9885 4.06946C29.0602 3.91511 29.1153 3.79934 29.1539 3.71665C29.2255 3.56781 29.3082 3.46858 29.3964 3.41896C29.4571 3.61742 29.5453 3.871 29.661 4.17971C29.865 4.73098 29.9697 5.16648 29.9697 5.48071ZM24.2366 3.45204C24.0767 3.57883 23.8617 3.67806 23.5971 3.76075C23.2002 3.871 22.8088 3.98125 22.4174 4.09151C21.6291 4.36163 20.8463 4.63727 20.069 4.90739C20.0469 4.86329 20.0579 4.80816 20.1076 4.742C20.1572 4.67585 20.1902 4.62624 20.2123 4.59868C20.8959 4.37266 21.585 4.14112 22.274 3.9151C23.0844 3.66703 23.7349 3.51268 24.2366 3.45204ZM25.0855 6.93605C25.0469 7.09592 25.0028 7.22823 24.9422 7.33297C24.8595 7.46527 24.7603 7.55899 24.6335 7.6086C24.6059 7.62514 24.5618 7.63065 24.5012 7.63065C24.3633 7.63065 24.2586 7.57001 24.1925 7.44322C24.1869 7.38258 24.1814 7.33848 24.1814 7.31091C24.1814 7.09592 24.2586 6.90298 24.413 6.72657C24.413 6.75414 24.4019 6.82029 24.3854 6.914C24.3689 7.00772 24.3578 7.07387 24.3578 7.11246C24.3578 7.16207 24.3633 7.20617 24.3799 7.24476C24.3964 7.28335 24.4295 7.31643 24.4791 7.34399C24.65 7.36604 24.7823 7.31643 24.8871 7.20066C24.8871 7.13451 24.8264 7.06285 24.6996 6.98015C24.5728 6.89746 24.5122 6.83131 24.5122 6.7817C24.5122 6.7376 24.5618 6.67696 24.6555 6.60529C24.7603 6.64388 24.8485 6.68247 24.9201 6.73208C24.9918 6.7817 25.0469 6.84785 25.0855 6.93605ZM23.5309 5.45865C23.4923 5.57442 23.4041 5.71775 23.2663 5.87762C23.1616 5.99339 23.0899 6.08159 23.0458 6.1312L22.3733 5.70121C22.3237 5.76185 22.263 5.83903 22.1969 5.93275C22.1307 6.02646 22.0701 6.11467 22.0094 6.19736L21.381 5.88864C21.4306 5.75083 21.5133 5.61301 21.618 5.47519C21.7228 5.33737 21.8385 5.2602 21.9543 5.23815L22.4725 5.4366L22.9466 5.05072C23.1395 5.18853 23.3325 5.32635 23.5309 5.45865ZM27.8639 11.4234C27.6599 11.4399 27.489 11.4454 27.3622 11.4509C27.2355 11.4509 27.1197 11.5006 27.026 11.5888C27.0425 11.6935 27.0646 11.8148 27.1032 11.9581C27.1417 12.1014 27.1693 12.2117 27.1858 12.2944C27.2024 12.3771 27.2189 12.4377 27.2244 12.4818C27.2299 12.5259 27.2355 12.5976 27.2355 12.6913C27.2355 12.7519 27.2189 12.8456 27.1914 12.978C27.1748 12.8732 27.1528 12.7685 27.1142 12.6582C27.0425 12.4542 26.9653 12.2503 26.8937 12.0518C26.8771 12.0022 26.8661 11.9526 26.8606 11.914C26.8551 11.8754 26.8496 11.8258 26.8496 11.7652C26.8496 11.5391 26.9543 11.3627 27.1693 11.2359L27.6213 11.1588C27.5717 11.1202 27.5166 11.0816 27.4615 11.043C27.4063 11.0044 27.3402 10.9879 27.2685 10.9934C27.2079 11.054 27.1693 11.0816 27.1472 11.0816C27.1472 11.0154 27.1638 10.9493 27.2024 10.8776C27.241 10.806 27.2961 10.7563 27.3678 10.7288C27.4339 10.7067 27.5001 10.7122 27.5662 10.7398C27.5717 10.7398 27.6654 10.8115 27.8418 10.9493C27.9245 11.0154 27.9631 11.0981 27.9631 11.1918C27.9631 11.28 27.93 11.3572 27.8639 11.4234ZM22.5056 7.50937C22.4835 7.59757 22.456 7.69129 22.4284 7.79052C22.4008 7.88975 22.3567 7.96141 22.2961 8.00551C22.2244 8.02756 22.1583 8.00551 22.1087 7.93936C22.0866 7.91731 22.059 7.85667 22.0205 7.75193C22.0205 7.43771 22.0976 7.15656 22.252 6.914C22.2575 6.98015 22.252 7.07938 22.2189 7.20617C22.1858 7.33296 22.1748 7.41566 22.1748 7.45425C22.1748 7.58104 22.2189 7.66924 22.3071 7.72988C22.3567 7.72437 22.3953 7.68578 22.4174 7.61411C22.4394 7.54245 22.467 7.50937 22.5056 7.50937ZM20.6754 3.40794C20.1902 3.53473 19.6665 3.68908 19.1098 3.88203C18.8452 3.97023 18.349 4.15215 17.6158 4.42227C16.8826 4.69239 16.37 4.87982 16.0668 4.98456C15.8518 5.06725 15.6313 5.14994 15.3997 5.24366C15.1682 5.33738 15.0359 5.47519 15.0083 5.66813C16.1329 5.22712 17.2575 4.78059 18.3821 4.33407C18.4979 4.28997 18.7955 4.19625 19.2751 4.04741C19.9146 3.85447 20.3832 3.64498 20.6754 3.40794ZM18.6688 6.00992C18.6302 6.05954 18.6136 6.10915 18.6136 6.15325C18.5695 6.16979 18.5089 6.15325 18.4372 6.09813C18.3656 6.04851 18.3104 6.02095 18.2829 6.02095C18.2553 6.02095 18.2277 6.03749 18.2057 6.07608C18.2057 6.4785 18.134 6.84234 17.9962 7.16758C17.9301 7.11797 17.8418 6.94708 17.7261 6.66593C17.6103 6.38479 17.4504 6.24145 17.2355 6.24145C17.1858 6.22492 17.1583 6.18082 17.1583 6.10915C17.1583 6.04851 17.1748 5.99338 17.2024 5.93275C17.252 5.87211 17.3071 5.81146 17.3567 5.74531C17.5166 5.80595 17.6489 5.94928 17.7536 6.1753C17.9025 6.5226 17.9907 6.71003 18.0183 6.74862C18.0458 6.50055 18.0734 6.28556 18.0954 6.10915C18.1175 5.93274 18.1891 5.79493 18.3049 5.70121C18.4593 5.76185 18.564 5.81147 18.6136 5.85557C18.6632 5.89967 18.6853 5.94928 18.6688 6.00992ZM28.3711 8.00551C28.3545 7.9118 28.3325 7.82359 28.2994 7.7409C28.2663 7.65821 28.2167 7.59206 28.1506 7.53142C28.0238 7.44873 27.8804 7.41014 27.7206 7.41014C27.5883 7.41014 27.4284 7.4377 27.2355 7.49834C27.1307 7.52591 26.9874 7.57001 26.7944 7.63065L26.596 6.43991C26.8661 6.30209 27.0921 6.16428 27.2685 6.03197C27.4945 5.86108 27.693 5.67916 27.8639 5.48071L28.0072 5.62404C28.0072 5.62404 28.0458 5.56891 28.0844 5.52481C28.123 5.48071 28.145 5.4366 28.1506 5.3925C28.0568 5.34289 28.0072 5.28776 28.0072 5.22712C28.0072 5.20507 28.0293 5.14994 28.0734 5.06174C28.145 4.92392 28.1671 4.81367 28.1285 4.742C28.1285 4.67585 28.0954 4.62073 28.0348 4.58214C27.9742 4.54355 27.908 4.5215 27.8418 4.5215C27.7481 4.5656 27.6599 4.62073 27.5883 4.68137C27.5166 4.74201 27.467 4.80265 27.4449 4.85226C27.4229 4.90187 27.4119 4.95149 27.4119 4.99559C27.4119 5.06726 27.4615 5.14995 27.5607 5.23264C27.6599 5.31533 27.7206 5.37596 27.7426 5.41455C27.5662 5.6075 27.3788 5.77288 27.1803 5.91069C27.0205 6.02646 26.822 6.13671 26.585 6.24145C26.585 6.13671 26.5629 5.96031 26.5188 5.71224C26.4471 5.29327 26.4086 5.01213 26.4086 4.87431V4.71996C26.4141 4.69239 26.4361 4.61522 26.4637 4.49945C26.5133 4.58214 26.5739 4.65931 26.6401 4.742C26.7062 4.82469 26.7669 4.87982 26.8165 4.90739C26.7724 4.57663 26.6787 4.24035 26.5409 3.90408C26.4361 3.65601 26.2928 3.35281 26.0998 3L25.747 3.7387C25.8573 4.10805 25.9455 4.5656 26.0116 5.11687C26.0502 5.43109 26.0998 5.90518 26.166 6.52812L25.8132 6.77067C25.8628 6.77067 25.9345 6.75413 26.0172 6.71554C26.0998 6.67696 26.1605 6.66593 26.1991 6.67144L26.3645 7.87321C26.1274 7.97795 25.9069 8.09371 25.6919 8.23153C25.4769 8.36935 25.2895 8.5237 25.1186 8.70011C24.7437 9.07497 24.5067 9.54355 24.413 10.1114C24.22 10.194 24.0326 10.2547 23.8396 10.2988C23.6467 10.3429 23.4648 10.3649 23.2884 10.3649C23.112 10.3649 22.9521 10.3374 22.7922 10.2823C22.6324 10.2271 22.489 10.1444 22.3733 10.0342C22.2685 9.89636 22.2189 9.78611 22.2189 9.70342C22.2189 9.65932 22.2299 9.60419 22.252 9.53804C21.9598 9.80816 21.6676 10.0783 21.381 10.3429C21.2432 10.4807 21.0833 10.5799 20.9014 10.6406C20.7195 10.7012 20.5265 10.7288 20.3115 10.7288C20.0469 10.7288 19.8099 10.6792 19.5949 10.5854C19.435 10.4972 19.3137 10.3704 19.2366 10.2051C19.1594 10.0397 19.1208 9.86328 19.1208 9.68136C19.7603 9.55457 20.4052 9.49394 21.0502 9.49394C21.0502 9.4333 21.0723 9.34509 21.1219 9.2183C21.1715 9.09151 21.2432 8.92062 21.3369 8.70011C20.8793 8.70011 20.4383 8.66152 20.0138 8.58986C19.5894 8.51819 19.1153 8.41345 18.6026 8.28115C18.2002 8.17641 17.8915 8.11025 17.6875 8.07166C17.3567 8.01102 17.0425 7.98346 16.7503 7.98346C16.4582 7.98346 16.1605 8.01654 15.8573 8.08269C15.8352 8.08269 15.8022 8.08269 15.7581 8.07166C15.5596 8.07166 15.4273 8.18743 15.3611 8.41345C15.3226 8.54024 15.2729 8.72767 15.2068 8.97574C15.2785 8.99228 15.3336 8.9978 15.3722 8.9978C15.3887 8.9978 15.5265 8.97023 15.7911 8.92062C15.8628 8.90408 15.9455 8.89857 16.0337 8.89857C16.1495 8.83793 16.2542 8.80485 16.3424 8.78831C16.4306 8.77178 16.5409 8.76627 16.6732 8.76627C16.9212 8.76627 17.2244 8.82139 17.5772 8.93164C17.7702 8.99228 18.0513 9.08048 18.4262 9.20727C18.0127 9.40573 17.5828 9.6097 17.1307 9.81918C16.6787 10.0287 16.2597 10.1334 15.8793 10.1334C15.7746 10.1334 15.6699 10.1279 15.5541 10.1114C15.4383 10.0948 15.3336 10.0728 15.2288 10.0342C15.1131 10.0066 15.0083 9.94597 14.9256 9.86328C14.843 9.78059 14.7989 9.68137 14.7989 9.57111C14.7989 9.52701 14.8099 9.4774 14.8319 9.41676C14.7272 9.48842 14.6169 9.60419 14.5012 9.75854C14.2751 10.0673 14.0987 10.2547 13.983 10.3208C13.9113 10.3594 13.8231 10.376 13.7294 10.376C13.5971 10.376 13.4703 10.3429 13.3545 10.2823C13.2388 10.2216 13.123 10.1389 13.0127 10.0342C12.8584 9.95149 12.7371 9.742 12.6489 9.40573C12.5607 9.06946 12.4008 8.89857 12.1748 8.89857C11.8496 9.11356 11.5629 9.51599 11.3038 10.1169C11.0447 10.7178 10.7966 11.1202 10.5541 11.3241C10.4824 11.3627 10.4108 11.3793 10.3446 11.3793C10.2564 11.3793 10.1682 11.3572 10.08 11.3076C9.99179 11.258 9.90359 11.1974 9.81539 11.1147C9.61142 10.8942 9.46809 10.6516 9.39091 10.3815C9.31373 10.1114 9.27515 9.80816 9.27515 9.46086C9.27515 9.28445 9.28066 9.12459 9.2972 8.98126C9.31373 8.83793 9.33579 8.68908 9.36335 8.53473L9.59488 8.58986C9.7768 8.46306 9.91462 8.27012 10.0028 8.00551C10.069 7.80706 10.102 7.58103 10.102 7.32194C10.0579 7.34399 10.0083 7.42668 9.95872 7.57001C9.9091 7.71334 9.8209 7.77398 9.69411 7.75193C9.56181 7.59758 9.4736 7.45424 9.42399 7.32194C9.37437 7.18963 9.35232 7.02977 9.35232 6.84785C9.35232 6.53914 9.46258 6.11466 9.68308 5.57993C9.83744 5.20507 9.93115 4.97354 9.95872 4.88534C9.65001 5.3925 9.43501 5.79493 9.30822 6.0871C9.10425 6.5667 8.99951 7.00772 8.99951 7.41014C8.99951 7.6086 9.02156 7.79052 9.06015 7.9559C9.09874 8.12128 9.17041 8.28666 9.26412 8.45755C9.18143 8.79382 9.1263 9.09151 9.08771 9.33958C9.04913 9.58765 9.03259 9.84674 9.03259 10.1114C9.03259 10.376 9.06015 10.6185 9.11528 10.8611C9.1704 11.1036 9.25309 11.3186 9.36335 11.5116C9.60591 11.9912 9.96974 12.2282 10.4549 12.2282C10.6919 12.1014 10.8793 11.9195 11.0282 11.677C11.1109 11.5447 11.2101 11.3131 11.3314 10.9768C11.4527 10.6406 11.5574 10.409 11.6456 10.2767C11.7944 10.0507 11.9819 9.87982 12.2189 9.76957C12.2906 9.81918 12.3457 9.89636 12.3843 9.99007C12.4008 10.0342 12.4229 10.1224 12.4615 10.2547C12.5276 10.5028 12.6765 10.7288 12.9135 10.9272C13.1506 11.1257 13.3931 11.2359 13.6522 11.258C13.8672 11.258 14.0546 11.1532 14.2255 10.9383C14.3413 10.7618 14.4626 10.5799 14.5894 10.398C14.661 10.3594 14.7603 10.4311 14.876 10.6075C14.9918 10.7839 15.1131 10.8831 15.2399 10.9052C15.3667 10.9272 15.4934 10.9383 15.6258 10.9383C16.0668 10.9383 16.6125 10.7784 17.2685 10.4642C18.0458 10.0893 18.5695 9.8688 18.8341 9.80264C18.7955 9.93495 18.779 10.0617 18.779 10.1775C18.779 10.3043 18.79 10.4311 18.8176 10.5579C18.8452 10.6847 18.8893 10.8225 18.9499 10.9713C19.0105 11.1202 19.1208 11.2415 19.2696 11.3407C19.4185 11.4399 19.6665 11.5061 20.0028 11.5447C20.0469 11.5502 20.1076 11.5557 20.1903 11.5557C20.4493 11.5557 20.7029 11.473 20.962 11.3076C21.2211 11.1422 21.5298 10.828 21.8992 10.3649C21.9708 10.3925 22.048 10.5083 22.1197 10.7067C22.1583 10.8004 22.2024 10.8721 22.263 10.9162C22.3788 11.0044 22.5001 11.065 22.6213 11.0926C22.7426 11.1202 22.8749 11.1367 23.0238 11.1367C23.2498 11.1367 23.5144 11.0871 23.8176 10.9824C24.0105 10.9162 24.2531 10.8115 24.5563 10.6736C24.6831 10.9438 24.7933 11.1588 24.8871 11.3131C25.0359 11.5502 25.1958 11.7211 25.3722 11.8313C25.4328 11.8479 25.4714 11.8534 25.4934 11.8534C25.5982 11.8534 25.6974 11.8203 25.7911 11.7541C25.8848 11.688 25.973 11.6053 26.0557 11.5006C26.0778 11.4399 26.188 11.2359 26.3865 10.8831C26.5243 10.6351 26.596 10.4256 26.596 10.2547C26.596 10.1169 26.5574 9.97905 26.4747 9.84675C26.3865 9.75854 26.2928 9.69791 26.1991 9.67035C26.1054 9.64278 25.9951 9.62624 25.8683 9.62624C25.736 9.62624 25.5761 9.64829 25.3832 9.69239C25.2785 9.71444 25.1351 9.75303 24.9422 9.80264C24.9367 9.77508 24.9312 9.73098 24.9312 9.67035C24.9312 9.51048 24.9753 9.36715 25.0635 9.24587C25.1517 9.12459 25.2785 9.01434 25.4383 8.92062C25.7691 8.74973 26.1054 8.58434 26.4416 8.41345C26.5794 8.85997 26.7062 9.16317 26.822 9.31202C26.9378 9.46086 27.0921 9.57111 27.2906 9.63726C27.6875 9.63726 27.9686 9.3506 28.1285 8.77729C28.2553 8.33627 28.3325 8.07718 28.3711 8.00551ZM14.9201 4.4774C14.9477 4.63175 14.8981 4.80265 14.7658 4.98456C14.7437 5.0011 14.7051 5.00661 14.6555 5.00661C14.5287 5.00661 14.4626 4.96803 14.446 4.89085C14.4295 4.81367 14.424 4.73649 14.424 4.66483C14.424 4.40022 14.5012 4.1301 14.6555 3.85998C14.639 3.94818 14.628 4.0419 14.6114 4.13561C14.5949 4.22933 14.5894 4.3065 14.5894 4.36714C14.5894 4.4774 14.6004 4.55458 14.6169 4.59868C14.6335 4.64278 14.6665 4.68137 14.7106 4.71996C14.7713 4.71996 14.8099 4.69239 14.8374 4.63727C14.865 4.58214 14.8926 4.52701 14.9201 4.4774ZM14.435 7.03528C14.4295 7.129 14.3854 7.23374 14.3082 7.34399C14.231 7.45424 14.1318 7.57552 14.016 7.70783C13.7514 7.60309 13.5144 7.48181 13.2994 7.34399C13.349 7.2172 13.4152 7.10143 13.4868 6.98566C13.5585 6.8699 13.6467 6.76516 13.7514 6.67144C13.9995 6.75964 14.231 6.88093 14.435 7.03528ZM13.2222 5.22712C13.2222 5.22712 13.1175 5.38699 12.9686 5.64609C12.8749 5.82249 12.7647 5.88313 12.6489 5.83352L12.0756 5.57993C12.059 5.62404 11.9984 5.70673 11.8937 5.83352C11.7889 5.96031 11.7062 6.03749 11.6566 6.07608C11.5684 6.07608 11.4802 6.05953 11.392 6.02095C11.2542 5.95479 11.1109 5.88865 10.9731 5.82249C10.9731 5.6957 11.0227 5.5634 11.1274 5.42558C11.188 5.34289 11.2873 5.23264 11.4361 5.09482C11.6621 5.19956 11.8937 5.29879 12.1197 5.3925L12.5828 4.89636C12.7151 4.94598 12.8198 4.99008 12.9025 5.02867C13.0513 5.09482 13.1561 5.16097 13.2222 5.22712ZM12.0646 4.12459C12.0866 4.31753 12.026 4.48842 11.8882 4.64278C11.7834 4.57662 11.7062 4.54355 11.6456 4.54355C11.5519 4.54355 11.4471 4.62073 11.3369 4.77508C11.2046 4.957 11.1054 5.06726 11.0392 5.09482C10.9565 5.14443 10.747 5.29327 10.4108 5.53583C10.1461 5.72878 9.93115 5.85005 9.77129 5.91069C10.1076 5.64609 10.3722 5.44212 10.5541 5.3043C10.9014 5.03418 11.1605 4.78611 11.3369 4.5656C11.177 4.51598 11.0943 4.41676 11.0943 4.26792C11.0998 4.25138 11.1605 4.10253 11.2707 3.81587C11.3369 3.63396 11.4306 3.54024 11.5574 3.54024L12.0646 4.12459ZM18.7129 12.4267C18.5861 12.6031 18.4152 12.7409 18.1947 12.8456C17.9742 12.9504 17.7371 13 17.489 13C17.3512 13 17.2299 12.9835 17.1362 12.9559C17.0701 12.9063 17.0205 12.8677 16.9929 12.8456C16.9323 12.8015 16.9102 12.7464 16.9267 12.6803C16.9488 12.5204 17.0425 12.3716 17.2024 12.2392C17.3126 12.151 17.467 12.0628 17.6654 11.9746C17.5828 11.892 17.467 11.8534 17.3126 11.8534C17.2079 11.8534 17.1252 11.8699 17.059 11.8975C17.059 11.8368 17.0921 11.7817 17.1583 11.7266C17.2244 11.6714 17.274 11.6329 17.3016 11.6108C17.3733 11.6108 17.4725 11.6108 17.5993 11.6218C17.7261 11.6273 17.8253 11.6825 17.897 11.7762C17.897 11.914 17.7757 12.0573 17.5387 12.2007C17.3016 12.344 17.1803 12.4432 17.1803 12.4928C17.1803 12.5149 17.1914 12.5424 17.2189 12.581C17.2465 12.6196 17.3071 12.6637 17.4008 12.7133C17.5056 12.7299 17.5828 12.7354 17.6324 12.7354C17.8033 12.7354 17.9907 12.7023 18.1947 12.6362C18.2829 12.6086 18.4538 12.5369 18.7129 12.4267ZM27.908 5.09482C27.8639 5.08931 27.8198 5.05623 27.7702 5.00661C27.7206 4.957 27.682 4.90739 27.6434 4.86328C27.6654 4.83572 27.693 4.81919 27.7316 4.81919C27.8198 4.81919 27.8804 4.86329 27.908 4.95149V5.09482ZM27.908 8.74421C27.8584 8.77177 27.7922 8.78831 27.7095 8.78831C27.5938 8.78831 27.4835 8.76075 27.3898 8.70011C27.2189 8.58985 27.0921 8.44101 27.0039 8.24807C27.0646 8.23153 27.1307 8.22051 27.2024 8.20397C27.274 8.18743 27.3457 8.18192 27.4119 8.18192C27.5717 8.18192 27.693 8.22602 27.7757 8.31422C27.8253 8.37486 27.8584 8.42448 27.8749 8.46858C27.8804 8.56229 27.8915 8.65601 27.908 8.74421ZM26.1329 10.8721C26.0888 10.9107 26.0337 10.9438 25.973 10.9713C25.9124 10.9989 25.8573 11.0154 25.8132 11.0154C25.747 11.0154 25.6864 10.9934 25.6258 10.9493C25.5651 10.9052 25.51 10.8445 25.4493 10.7729C25.3887 10.7012 25.317 10.591 25.2288 10.4421C25.3115 10.4146 25.4108 10.398 25.5375 10.398C25.736 10.398 25.8848 10.4476 25.9786 10.5413C26.0282 10.5799 26.0668 10.624 26.0833 10.6736C26.0998 10.7233 26.1164 10.7894 26.1329 10.8721ZM11.833 4.28996H11.6566L11.6676 4.12459L11.833 4.28996ZM11.4912 4.21279C11.4747 4.2624 11.4416 4.27343 11.392 4.23484C11.3314 4.19074 11.3093 4.13561 11.3259 4.06946C11.37 4.02536 11.4086 4.03087 11.4471 4.09151C11.4637 4.13561 11.4747 4.1742 11.4912 4.21279Z" fill="currentColor"/>
</svg>
