<svg width="40" height="16" viewBox="0 0 40 16" fill="none" xmlns="http://www.w3.org/2000/svg">
<path fill-rule="evenodd" clip-rule="evenodd" d="M30.0139 5.16893C29.9248 5.14771 29.8442 5.07555 29.7678 4.95671C29.6659 4.79542 29.598 4.69355 29.564 4.65959L29.4409 4.79117C29.4409 5.13073 29.4749 5.55093 29.5428 6.05603C29.6998 7.21052 29.7762 7.94482 29.7762 8.25467C29.7762 9.06961 29.7593 9.64686 29.7253 9.98642C29.6659 10.5976 29.5301 11.1324 29.3263 11.5951C29.4027 11.1282 29.4367 10.6146 29.4367 10.0586C29.4367 9.4601 29.39 8.79372 29.2924 8.06367C29.199 7.32937 29.1014 6.58234 29.008 5.81834C28.9146 5.05433 28.8637 4.40917 28.8637 3.8871C28.9443 3.58998 29.0759 3.34805 29.2627 3.16553C29.3433 3.36078 29.4494 3.61121 29.5768 3.90832C29.806 4.44312 29.9503 4.86757 30.0054 5.17317L30.0139 5.16893ZM28.1294 4.91426C28.0615 4.86757 27.9936 4.8039 27.9257 4.71901C27.9044 4.69779 27.845 4.61715 27.7431 4.47284C27.6837 4.56621 27.6498 4.68506 27.6498 4.82088C27.6498 4.91002 27.6582 4.99491 27.671 5.07555C27.7177 5.3472 27.7431 5.49151 27.7431 5.51273C27.7856 5.81833 27.8365 6.1961 27.9044 6.64177C28.0403 7.52462 28.1082 8.20373 28.1082 8.67911C28.1082 9.2691 28.0233 9.77419 27.8535 10.1986C27.6582 10.6868 27.3357 11.09 26.8942 11.4126C26.7117 11.4677 26.4783 11.5187 26.1897 11.5654C26.0963 11.5781 25.7058 11.629 25.0182 11.7182C25.5615 11.4805 25.9689 11.2937 26.2406 11.1579C26.716 10.9117 27.081 10.6273 27.3314 10.3005C27.289 10.0034 27.1914 9.71477 27.0343 9.43463C26.9112 9.20967 26.733 8.95925 26.4953 8.67911C26.3722 8.5348 26.2151 8.36078 26.0284 8.14855C25.7567 7.85569 25.4851 7.56282 25.2134 7.26146C24.7465 6.7309 24.2754 6.20034 23.8085 5.66129C23.2864 5.02886 22.9172 4.4601 22.7092 3.95076C22.7347 3.82343 22.7686 3.68336 22.8111 3.53481C22.8535 3.38625 22.9087 3.28013 22.9851 3.22071C23.0275 3.27589 23.21 3.46689 23.5369 3.78947C23.7745 4.02716 23.9061 4.23939 23.9358 4.43039C23.8212 4.37097 23.7066 4.3073 23.5878 4.24788C23.6769 4.51103 23.8637 4.81239 24.1481 5.14346C24.4961 5.52546 24.7508 5.80985 24.9121 6.00085C25.0691 6.21307 25.2771 6.45076 25.5318 6.71392C26.2236 7.42699 26.5971 7.81749 26.6523 7.8854C26.9112 8.191 27.1022 8.47538 27.2338 8.74278C27.3908 9.06961 27.4672 9.39643 27.4672 9.73174C27.4672 9.8421 27.4588 9.92699 27.446 9.99066C27.4333 10.0543 27.4248 10.1053 27.4248 10.1392L27.446 10.1689C27.5903 10.0586 27.6837 9.92275 27.7346 9.76146C27.7856 9.60017 27.8111 9.40917 27.8111 9.1927C27.8111 9.04414 27.8026 8.91256 27.7898 8.80221C27.7771 8.69185 27.7644 8.59847 27.7601 8.53056C27.6922 8.00849 27.6158 7.47368 27.5309 6.92615C27.446 6.37861 27.3611 5.83531 27.2805 5.29202C27.1532 4.46435 27.0683 3.92954 27.0343 3.69185C27.1022 3.55603 27.1532 3.4584 27.1871 3.39474C27.2465 3.28014 27.3144 3.18676 27.3908 3.11884C27.4588 3.28862 27.5691 3.50509 27.7177 3.7725C27.9893 4.25637 28.1251 4.63413 28.1251 4.91426H28.1294ZM22.2211 4.40492C22.1871 4.46434 22.1489 4.53226 22.1107 4.60017C22.0683 4.66808 22.0173 4.70204 21.9494 4.70204C21.8051 4.72326 21.6905 4.70628 21.6014 4.65535C21.5122 4.60441 21.4698 4.54924 21.4698 4.48557C21.4698 4.44312 21.491 4.37946 21.5377 4.29032C21.5802 4.20119 21.6056 4.14177 21.6056 4.10781L21.7287 3.95501C21.7414 3.98896 21.7287 4.04839 21.682 4.13328C21.6396 4.21817 21.6226 4.28608 21.6353 4.34125C21.6905 4.40068 21.7542 4.43463 21.8306 4.43463C21.873 4.43463 21.924 4.43039 21.9834 4.41766C22.0428 4.40917 22.0768 4.40068 22.0852 4.40068L22.1362 4.35823C22.0555 4.22241 21.9749 4.08659 21.9027 3.95076C21.9027 3.89134 21.9452 3.83616 22.0258 3.78947C22.115 3.8489 22.1829 3.91681 22.2296 3.98472C22.2762 4.05263 22.3017 4.12903 22.3017 4.21816C22.3017 4.28608 22.2762 4.3455 22.2296 4.40068L22.2211 4.40492ZM22.9129 5.72071C22.9257 5.63158 22.879 5.55093 22.7771 5.47453C22.671 5.39813 22.5734 5.33022 22.4757 5.26231C22.3951 5.18166 22.3272 5.13922 22.272 5.13922C22.1956 5.13922 22.1192 5.22411 22.0386 5.39813C21.9579 5.57216 21.8942 5.66978 21.856 5.69949C21.856 5.81409 21.9749 5.94143 22.2126 6.07725C22.4036 6.18761 22.5054 6.24278 22.5182 6.25127L22.9172 5.72071H22.9129ZM20.2644 4.15025C20.2644 4.26061 20.2431 4.36248 20.2049 4.45586C20.1625 4.54924 20.0988 4.61715 20.0097 4.65959C19.9503 4.66808 19.8951 4.64686 19.8526 4.60441C19.8102 4.56197 19.7805 4.4983 19.7678 4.4219C19.755 4.3455 19.7465 4.28608 19.7465 4.25212C19.7465 4.08234 19.789 3.89983 19.8781 3.70034C19.9206 3.61121 20.0097 3.45416 20.154 3.22071C20.1413 3.29711 20.0903 3.42869 20.0055 3.61969C19.9206 3.8107 19.8781 3.95925 19.8781 4.06961C19.8781 4.15874 19.9036 4.24788 19.9588 4.3455C19.9927 4.36672 20.0224 4.37521 20.0521 4.37521C20.0946 4.37521 20.1285 4.35823 20.1583 4.32003C20.188 4.28183 20.2134 4.23514 20.2347 4.18421L20.2644 4.1545V4.15025ZM28.5241 11.82L28.1082 11.9643C27.8959 11.9643 27.7092 11.8964 27.5394 11.7606L27.6837 11.6163C27.7771 11.6036 27.8365 11.6418 27.8577 11.7394C27.9936 11.7267 28.07 11.6545 28.0912 11.5272C28.0572 11.4677 28.0148 11.4338 27.9681 11.4253C27.9214 11.4168 27.8705 11.4083 27.8153 11.3956C27.6922 11.4508 27.5861 11.5229 27.5012 11.6205C27.4418 11.6885 27.3611 11.7861 27.2678 11.9177C27.2932 11.9643 27.3442 12.011 27.4121 12.0492C27.446 12.0705 27.497 12.0959 27.5649 12.1299L27.289 12.444C27.3696 12.3888 27.5988 12.3039 27.9723 12.1893C28.2695 12.1002 28.4562 11.9771 28.5326 11.8243L28.5241 11.82ZM28.6472 12.2997C28.592 12.4015 28.5071 12.4907 28.3925 12.5628C28.3119 12.618 28.1973 12.6689 28.0572 12.7156C27.9129 12.7623 27.7771 12.809 27.6413 12.8514C27.5054 12.8939 27.3866 12.9448 27.2847 13C27.3442 12.8981 27.429 12.8132 27.5309 12.7496C27.6328 12.6859 27.7516 12.6307 27.8875 12.5925C28.0233 12.5501 28.1591 12.5119 28.2992 12.4694C28.4392 12.427 28.5538 12.3718 28.6515 12.2954L28.6472 12.2997ZM18.1251 3.33531C18.227 3.44992 18.3034 3.58998 18.3543 3.74703C18.4053 3.90832 18.4307 4.06961 18.4307 4.23939C18.4307 4.48557 18.3925 4.72326 18.3119 4.96095C18.2355 5.19864 18.1294 5.42784 18.0021 5.6528C18.0827 5.47029 18.1506 5.27929 18.2015 5.07555C18.2525 4.87606 18.2779 4.67233 18.2779 4.46859C18.2779 4.1163 18.1846 3.81494 18.0021 3.56027L18.1251 3.32682V3.33531ZM21.4358 5.32173C21.2236 5.38964 20.8586 5.51698 20.3365 5.69949C19.963 5.83531 19.5895 5.97114 19.216 6.10696C18.8425 6.24278 18.4689 6.37436 18.0954 6.50594C17.9257 6.58659 17.8068 6.70119 17.7389 6.85399L20.5997 5.82682C20.7567 5.7674 20.9223 5.69949 21.092 5.63158C21.2661 5.56367 21.3807 5.4618 21.4316 5.32597L21.4358 5.32173ZM24.3688 9.35399C24.3688 9.13752 24.2627 8.84465 24.0547 8.47962C23.8425 8.1146 23.7406 7.83871 23.7406 7.6562C23.783 7.71137 23.8382 7.74108 23.9146 7.74957C23.991 7.75806 24.042 7.77504 24.0674 7.80051C24.0674 7.64346 23.9783 7.46519 23.8043 7.26146C23.5538 6.96859 23.4138 6.80306 23.3883 6.76061C23.2949 6.76061 23.2143 6.81154 23.1549 6.91341C23.1421 6.93888 23.0785 7.12139 22.9723 7.45246C23.0275 7.70288 23.1464 8.00849 23.3289 8.36927C23.7703 9.25212 24.008 9.73599 24.042 9.82512C23.7576 10.0161 23.4392 10.1095 23.0954 10.1095C22.9384 10.1095 22.7983 10.0925 22.6667 10.0628C22.5394 10.0331 22.446 9.9949 22.3951 9.95246C22.3442 9.91001 22.3187 9.85059 22.3187 9.78268C22.3187 9.71477 22.3357 9.6511 22.3696 9.58743C22.2762 9.64261 22.1489 9.78268 21.9961 10.0034C21.8433 10.2283 21.7032 10.3684 21.5717 10.4194C21.4825 10.4194 21.3976 10.4066 21.3127 10.3854C21.2279 10.3599 21.1599 10.326 21.1048 10.2793C21.0029 10.2114 20.952 10.1265 20.952 10.0246C20.952 9.99066 20.9689 9.90577 21.0029 9.76995C20.9223 9.85059 20.7822 10.0119 20.5869 10.2496C20.3959 10.4406 20.2049 10.534 20.0182 10.534C19.8824 10.5467 19.7635 10.5255 19.6659 10.4745C19.5683 10.4194 19.4664 10.3302 19.3645 10.2114C19.3178 10.1647 19.2924 10.1095 19.2924 10.0501C19.2924 10.0161 19.3094 9.95246 19.3476 9.85484C19.3858 9.76146 19.3985 9.6893 19.3815 9.64261C19.165 9.82088 18.9486 9.99066 18.7279 10.1604C18.4647 10.3642 18.2143 10.466 17.9851 10.466C17.9087 10.466 17.8323 10.4576 17.7516 10.4363C17.637 10.3896 17.5309 10.3005 17.4375 10.1647C17.3442 10.0331 17.272 9.90153 17.2253 9.77419C17.1701 9.46859 17.1319 9.18421 17.115 8.9253C17.0937 8.66214 17.0852 8.28014 17.0852 7.77929C17.0852 7.69015 17.098 7.17657 17.1277 6.23005C17.1362 5.99236 17.1362 5.68676 17.1362 5.31324C17.1362 4.9185 17.1192 4.51528 17.0895 4.09508C17.0598 3.67487 17.0131 3.31409 16.9537 3C16.8773 3.03396 16.8094 3.11884 16.7499 3.25467C16.6693 3.43294 16.6141 3.5348 16.5886 3.56876C16.6566 4.03141 16.7032 4.4983 16.7245 4.97368C16.7499 5.44907 16.7584 6.00509 16.7584 6.64601C16.7499 6.97283 16.7499 7.29117 16.7499 7.60951V8.55178C16.7712 8.93379 16.7924 9.31154 16.8094 9.69355C16.8645 10.4618 17.1022 10.9796 17.5224 11.2513C17.6158 11.264 17.6837 11.2725 17.7262 11.2725C17.9723 11.2725 18.21 11.1918 18.4477 11.0263C18.6387 10.899 18.8212 10.725 18.9995 10.5085C18.9995 10.7547 19.0759 10.9584 19.233 11.1197C19.424 11.2555 19.615 11.3234 19.8017 11.3234C19.8909 11.3234 19.9545 11.3149 19.997 11.3022C20.2686 11.2258 20.4808 11.056 20.6379 10.7844C20.7992 11.0815 21.0369 11.2343 21.351 11.2343C21.474 11.2216 21.5802 11.1579 21.6735 11.0518C21.7669 10.9457 21.8815 10.7716 22.0258 10.5424L22.3739 10.7759C22.5903 10.8565 22.8238 10.899 23.0785 10.899C23.4053 10.899 23.6939 10.8226 23.9443 10.674C24.1396 10.5594 24.2712 10.3642 24.3306 10.0925C24.3645 9.94397 24.3815 9.69779 24.3815 9.35823L24.3688 9.35399ZM20.9477 7.61375L20.8883 7.72411L20.6336 7.5798C20.5233 7.93209 20.4172 8.28438 20.3068 8.62818C20.2516 8.58574 20.1752 8.41171 20.0734 8.09762C19.997 7.86842 19.8611 7.7708 19.6659 7.81324C19.6065 7.78777 19.5725 7.73684 19.5725 7.66893C19.5725 7.63497 19.5725 7.60526 19.581 7.57555C19.615 7.48642 19.6362 7.43124 19.6404 7.40153C19.6744 7.35908 19.6998 7.32937 19.7211 7.30815C19.7423 7.28693 19.7678 7.27844 19.8017 7.27844C19.8272 7.27844 19.8526 7.28693 19.8739 7.30815C19.9842 7.39728 20.0734 7.55433 20.1498 7.78777C20.2262 8.01698 20.2941 8.16978 20.3535 8.24618C20.3875 8.05518 20.4257 7.86417 20.4639 7.66468C20.5233 7.44822 20.6336 7.32937 20.7907 7.30815C20.8713 7.37606 20.918 7.41426 20.9223 7.4185C20.9562 7.46095 20.9732 7.49491 20.9732 7.52037C20.9732 7.5416 20.9647 7.56706 20.9435 7.60102L20.9477 7.61375ZM15.4554 4.29456C15.4426 4.39643 15.4299 4.4983 15.4129 4.60017C15.3875 4.71052 15.3365 4.79542 15.2601 4.86333C15.2007 4.86333 15.1413 4.83786 15.0903 4.79117C15.0394 4.74448 14.997 4.68506 14.963 4.61715C14.9418 4.51528 14.9333 4.41766 14.9333 4.32003C14.9333 4.1163 14.9842 3.90407 15.0861 3.6876C15.1625 3.52631 15.2729 3.34805 15.4214 3.15704C15.4214 3.24618 15.345 3.45416 15.188 3.78947C15.1116 3.94652 15.0776 4.0781 15.0776 4.18845C15.0776 4.26485 15.0903 4.32852 15.1116 4.38794C15.137 4.44737 15.1795 4.50679 15.2389 4.56621C15.2644 4.55348 15.2941 4.50679 15.3238 4.4219C15.3535 4.34126 15.3959 4.29457 15.4511 4.29032L15.4554 4.29456ZM13.4392 3.33531C13.4392 3.41172 13.4138 3.48387 13.3586 3.56027C13.3034 3.52632 13.2482 3.50934 13.1846 3.50934C13.1209 3.50934 13.0785 3.54329 13.053 3.6112C13.0275 3.67911 12.9893 3.8489 12.9426 4.12479C12.8959 4.40068 12.8153 4.57895 12.7092 4.65959C12.654 4.6129 12.5691 4.43039 12.4545 4.10781C12.3654 3.87012 12.2253 3.764 12.0258 3.79372C11.9706 3.75976 11.9452 3.71732 11.9452 3.66214C11.9452 3.62818 11.9537 3.58149 11.9706 3.52631C11.9876 3.46689 11.9961 3.43294 11.9961 3.4202C12.0216 3.37351 12.0555 3.33531 12.0895 3.30136C12.1234 3.27165 12.1574 3.25467 12.1914 3.25467C12.2168 3.25467 12.2423 3.27165 12.2635 3.3056C12.3569 3.39474 12.446 3.54754 12.5224 3.76825C12.5988 3.98896 12.6795 4.13752 12.7601 4.20968C12.8153 3.95925 12.8535 3.77674 12.8832 3.65789C12.9384 3.44142 13.0275 3.28013 13.1464 3.17827C13.227 3.191 13.2949 3.20374 13.3459 3.21222C13.3968 3.22071 13.4307 3.26316 13.4435 3.33107L13.4392 3.33531ZM21.873 11.5272C21.8985 11.5823 21.8985 11.6333 21.8645 11.6842C21.8306 11.7351 21.7966 11.7861 21.7627 11.8413C21.5717 11.9643 21.4189 12.045 21.3 12.0917C21.1812 12.1341 21.0708 12.1596 20.9689 12.1596C20.8586 12.1596 20.7652 12.1299 20.6846 12.0662C20.6379 12.0535 20.5657 12.045 20.4723 12.045C20.3238 12.045 20.1752 12.0747 20.0224 12.1384C19.9121 12.1808 19.7678 12.2572 19.5852 12.3718C19.3348 12.5204 19.1523 12.6222 19.0462 12.6774C18.851 12.7708 18.66 12.8387 18.4774 12.8727L17.7559 12.983C17.9936 12.9363 18.244 12.8557 18.5114 12.7368C18.6812 12.6689 18.9189 12.5543 19.2287 12.3973C19.5386 12.236 19.772 12.1214 19.9248 12.045C20.2177 11.8964 20.4554 11.7861 20.6379 11.7182C20.7185 11.7097 20.7992 11.7479 20.8841 11.8285C20.9647 11.9092 21.0241 11.9516 21.0581 11.9516C21.1048 11.9516 21.1557 11.9261 21.2109 11.871C21.2448 11.8497 21.2788 11.8031 21.3127 11.7267C21.3467 11.6503 21.3849 11.6078 21.4231 11.5951C21.4443 11.6163 21.4443 11.6502 21.4274 11.7012C21.4104 11.7521 21.4019 11.7861 21.4019 11.7988C21.4486 11.82 21.5038 11.8158 21.5589 11.7903C21.6184 11.7649 21.6735 11.7394 21.7287 11.7182C21.7499 11.663 21.7669 11.6205 21.7839 11.5908C21.8009 11.5611 21.8348 11.5399 21.8815 11.5229L21.873 11.5272ZM13.4689 6.27249C13.4689 6.27249 13.3586 6.40832 13.2058 6.63752C13.0954 6.79457 12.9851 6.84974 12.8705 6.81154L12.4927 6.35314L12.9426 5.86502C13.07 5.94567 13.1676 6.00934 13.227 6.04754C13.3416 6.12394 13.4223 6.19609 13.4732 6.27249H13.4689ZM14.2032 8.55602C14.182 8.67911 14.1566 8.77674 14.1226 8.84465C14.0886 8.91681 14.025 8.97623 13.9274 9.02292C13.9019 9.03141 13.8722 9.02292 13.8425 8.99745C13.8128 8.97198 13.7703 8.91681 13.7151 8.82767C13.7066 8.78523 13.7066 8.74278 13.7066 8.70034V8.59423C13.7066 8.39898 13.7321 8.20373 13.7873 8.01273C13.8425 7.82173 13.9189 7.62224 14.0207 7.41002C14.0207 7.49066 13.9868 7.64346 13.9231 7.86842C13.8594 8.09338 13.8255 8.25042 13.8255 8.33531C13.8255 8.39474 13.834 8.4584 13.8552 8.51783C13.8764 8.57725 13.9358 8.62818 14.0377 8.67063C14.0802 8.59423 14.1099 8.54329 14.1311 8.50934C14.1566 8.53056 14.182 8.54329 14.2032 8.55178V8.55602ZM10.3535 7.12988C10.3068 7.33361 10.2601 7.53311 10.2092 7.7326C10.1285 7.97878 10.0097 8.1528 9.85265 8.26316C9.78474 8.28438 9.71258 8.27164 9.63194 8.22071C9.55554 8.17402 9.49612 8.14007 9.46216 8.11884C9.38152 7.97453 9.32209 7.83022 9.28814 7.68166C9.25418 7.53311 9.2372 7.37606 9.2372 7.21477C9.2372 6.79881 9.37303 6.28523 9.64467 5.66553C9.77201 5.38115 9.90783 5.09253 10.0437 4.79966C10.0224 4.89304 9.9333 5.18591 9.76776 5.67402C9.64043 6.06027 9.57252 6.37012 9.57252 6.59932C9.57252 6.78183 9.59798 6.94312 9.64892 7.07895C9.69985 7.21477 9.79747 7.34635 9.93754 7.47793C10.0139 7.50339 10.0776 7.49915 10.1328 7.45671C10.188 7.41426 10.2262 7.35484 10.2559 7.27419C10.2813 7.2275 10.3153 7.18081 10.3493 7.12988H10.3535ZM15.9477 7.45671C15.901 7.30815 15.8543 7.1893 15.8034 7.10017C15.7822 7.05772 15.6718 6.87521 15.4681 6.54839C15.3238 6.68421 15.2304 6.82003 15.1795 6.9601C15.1285 7.10017 15.1031 7.2657 15.1031 7.46519C15.1031 7.70288 15.1795 8.08489 15.3323 8.6112C15.4851 9.13752 15.5615 9.51953 15.5615 9.75722C14.6447 10.4236 13.6218 10.9287 12.497 11.2767C12.3187 11.3192 12.1659 11.3489 12.0301 11.3701C11.8942 11.3913 11.7457 11.3998 11.5802 11.3998C11.1939 11.3998 10.8331 11.3319 10.5063 11.1961C10.1752 11.0603 9.8951 10.848 9.6659 10.5637C9.55554 10.4066 9.47914 10.2411 9.43669 10.0586C9.39425 9.8803 9.36878 9.67657 9.36878 9.45161C9.36878 9.03565 9.44094 8.6494 9.58101 8.28862C9.30087 8.68336 9.12685 9.11629 9.05045 9.59168C9.01649 9.78268 8.99951 9.95246 8.99951 10.101C8.99951 10.4533 9.07591 10.7801 9.22447 11.073C9.37303 11.3701 9.59798 11.6036 9.8951 11.7818C10.1413 11.9177 10.3832 12.0153 10.6251 12.0705C10.8671 12.1299 11.126 12.1553 11.4061 12.1553C11.8391 12.1553 12.3102 12.0705 12.8111 11.9007C13.3756 11.7097 14.0929 11.3616 14.9715 10.8523C15.3323 10.6698 15.5912 10.3727 15.744 9.96519C15.8671 9.64686 15.9265 9.25212 15.9265 8.78523C15.918 8.74278 15.8501 8.50509 15.7143 8.07215C15.6676 7.9236 15.6421 7.78777 15.6421 7.66468C15.6421 7.60951 15.6464 7.55433 15.6591 7.5034C15.6676 7.44822 15.6803 7.41002 15.6931 7.39304C15.7185 7.40577 15.761 7.42699 15.8161 7.45246C15.8713 7.47793 15.9138 7.47793 15.9477 7.45246V7.45671ZM11.4656 8.42445C11.4656 8.56876 11.4571 8.67063 11.4358 8.73005C11.3934 8.84041 11.3212 8.91256 11.2109 8.95501C11.1302 8.92954 11.0666 8.89559 11.0241 8.85314C10.9817 8.8107 10.9562 8.76825 10.9562 8.72156C10.9562 8.52631 10.9817 8.33956 11.0369 8.16129C11.0708 8.0382 11.1345 7.88115 11.2321 7.6944C11.2321 7.7708 11.2066 7.88115 11.1515 8.02971C11.0963 8.17827 11.0708 8.29287 11.0708 8.36502C11.0708 8.46689 11.1175 8.56027 11.2151 8.6494C11.2746 8.66214 11.3212 8.64516 11.3467 8.59423C11.3722 8.54329 11.4019 8.49236 11.4274 8.44567L11.4698 8.42445H11.4656Z" fill="currentColor"/>
</svg>
