<svg width="40" height="16" viewBox="0 0 40 16" fill="none" xmlns="http://www.w3.org/2000/svg">
<path fill-rule="evenodd" clip-rule="evenodd" d="M28.236 8.03688C28.2924 8.46638 28.3184 8.87853 28.3184 9.26464C28.3184 9.62039 28.2967 9.94143 28.249 10.2278C28.2056 10.5141 28.1232 10.8178 28.006 11.1388C28.006 10.4534 27.9626 9.72885 27.8759 8.96963C27.7891 8.21041 27.6806 7.39046 27.5461 6.50542C27.3596 5.30369 27.2468 4.54447 27.2121 4.22343C27.2555 4.06291 27.2772 3.9718 27.2858 3.94143C27.3336 3.78959 27.4073 3.64208 27.5028 3.50325C27.8629 4.24078 28.0537 4.63558 28.0754 4.69197C28.1709 4.96095 28.2229 5.22126 28.2229 5.47288L27.8672 4.93058C27.8672 5.32538 27.9106 5.81128 27.993 6.38828C28.0754 6.96529 28.1579 7.51193 28.2316 8.03254L28.236 8.03688ZM24.7913 3.66377C24.8043 3.72017 24.7913 3.77223 24.7479 3.8243C24.7045 3.87636 24.6524 3.91106 24.5917 3.93276L20.0104 5.3167C19.7414 5.40781 19.5418 5.47289 19.416 5.51627C19.173 5.5987 18.9908 5.6898 18.865 5.78525C18.865 5.71583 18.8867 5.64208 18.9344 5.55965C18.9778 5.48156 19.0386 5.42516 19.108 5.39913C20.1232 5.06074 21.0602 4.75705 21.9192 4.48807C22.7783 4.21909 23.737 3.94577 24.7913 3.65943V3.66377ZM24.1882 7.57701C24.1752 7.66811 24.1579 7.75922 24.1405 7.85466C24.1232 7.95011 24.0841 8.0282 24.019 8.08893C23.9583 8.10195 23.8976 8.08893 23.8412 8.04555C23.7848 8.00217 23.7587 7.95011 23.7587 7.88937C23.7587 7.72451 23.7717 7.57267 23.8021 7.43818C23.8281 7.30369 23.8976 7.10846 24.0104 6.86117C24.0104 6.91757 23.9973 6.99132 23.967 7.09111C23.9062 7.31236 23.8715 7.45119 23.8715 7.50759C23.8715 7.6334 23.9149 7.73753 24.006 7.81996C24.032 7.81128 24.0624 7.77657 24.0884 7.70716C24.1145 7.63774 24.1492 7.59436 24.1839 7.58134L24.1882 7.57701ZM22.6047 6.34924L22.5613 6.58785C22.5179 6.57484 22.4659 6.55314 22.4052 6.52711C22.3444 6.50108 22.2967 6.48373 22.2707 6.48373C22.2576 6.48373 22.2229 6.49241 22.1665 6.50542C22.1188 6.60087 22.0624 6.80043 22.006 7.10412C21.9453 7.40781 21.8759 7.61605 21.7934 7.73319C21.7587 7.67679 21.6893 7.55097 21.5809 7.35141C21.4724 7.15184 21.3856 7.00434 21.3162 6.90889C21.2815 6.95228 21.2338 6.96963 21.1687 6.96963C21.0646 6.96963 20.9691 6.93926 20.878 6.87419C20.852 6.83948 20.8347 6.7961 20.8347 6.7397C20.8347 6.69631 20.8433 6.64859 20.8607 6.59219C20.878 6.53579 20.8911 6.49674 20.8954 6.47939C20.9735 6.4013 21.0516 6.36659 21.134 6.36659C21.1774 6.36659 21.2121 6.37961 21.2381 6.40998C21.3422 6.52278 21.4464 6.67028 21.5505 6.85683C21.7023 7.12581 21.7934 7.282 21.8195 7.32538C21.8455 7.26898 21.8889 7.06941 21.9496 6.72668C22.0104 6.38395 22.1709 6.21041 22.4355 6.21041C22.4919 6.25813 22.5483 6.30586 22.6004 6.3449L22.6047 6.34924ZM19.0212 4.36226C19.0212 4.36226 18.9908 4.40564 18.9735 4.47072C18.9561 4.53579 18.9214 4.56182 18.865 4.54881C18.7739 4.47939 18.7305 4.37961 18.7305 4.24512C18.7305 4.21041 18.7392 4.14533 18.7609 4.04555C18.7826 3.95011 18.8086 3.83297 18.8433 3.70282C18.7826 3.81562 18.7305 3.94143 18.6871 4.0846C18.6438 4.22777 18.6264 4.35358 18.6264 4.46638C18.6264 4.50976 18.6307 4.55315 18.6438 4.60087C18.6524 4.64859 18.6828 4.69631 18.7305 4.7397C18.7783 4.78308 18.8303 4.80911 18.8867 4.81779C18.9822 4.76139 19.0342 4.65293 19.0342 4.48373C19.0342 4.42733 19.0342 4.38828 19.0255 4.35792L19.0212 4.36226ZM17.2728 3C17.2728 3.06074 17.2555 3.12147 17.2251 3.18221C17.1947 3.24295 17.1427 3.27332 17.0733 3.282C16.2533 3.65076 15.4334 4.01952 14.6177 4.38395C14.6871 4.09328 14.9735 3.86334 15.4811 3.69848C15.8281 3.58135 16.0581 3.4859 16.1665 3.41649C16.5353 3.27766 16.9041 3.13883 17.2685 3H17.2728ZM19.7804 7.9154C19.8021 7.9718 19.8021 8.0282 19.7848 8.09327C19.7674 8.15401 19.7327 8.24512 19.685 8.36226C19.6416 8.44035 19.5722 8.47505 19.4767 8.47505C19.4507 8.47505 19.4073 8.46638 19.3509 8.45336C19.2728 8.37093 19.2381 8.26247 19.2381 8.13232C19.2381 8.03688 19.2598 7.93275 19.2989 7.81996C19.3422 7.70716 19.3813 7.5987 19.4247 7.4859C19.403 7.56833 19.3856 7.64642 19.3726 7.71584C19.3596 7.78525 19.3509 7.85466 19.3509 7.92408C19.3509 8.04121 19.39 8.13666 19.4637 8.20607C19.5548 8.2321 19.6199 8.21041 19.6633 8.13666C19.7067 8.0629 19.7414 7.98915 19.7761 7.91106L19.7804 7.9154ZM26.3835 9.86334C26.3835 9.41215 26.3271 8.89154 26.2099 8.30585C26.0971 7.72017 25.9843 7.14317 25.8759 6.57918C25.7674 6.01518 25.7153 5.49892 25.7153 5.03471C25.8065 5.06074 25.8932 5.1475 25.9756 5.28633C26.019 5.36442 26.0798 5.47289 26.1622 5.62039C26.1015 5.36876 26.0104 5.04338 25.8976 4.63557C25.7848 4.22776 25.6329 3.88069 25.4464 3.59002C25.3553 3.66811 25.2858 3.76789 25.2338 3.89371C25.1817 4.01952 25.134 4.14534 25.095 4.26681L26.1665 10.0022C25.98 10.1757 25.7934 10.3102 25.6156 10.4013C25.4333 10.4967 25.2338 10.5401 25.0125 10.5401C24.8737 10.5531 24.7479 10.5315 24.6307 10.4664C24.5179 10.4056 24.4095 10.3189 24.314 10.2147C24.301 10.18 24.2924 10.128 24.2924 10.0586C24.2924 10.0108 24.301 9.93709 24.3227 9.84165C24.3444 9.7462 24.3531 9.67245 24.3531 9.62473C24.3531 9.56399 24.3444 9.51193 24.3314 9.47722C22.9908 10.0456 22.275 10.3449 22.1882 10.3709C21.711 10.5358 21.2598 10.6486 20.8347 10.705C20.5657 10.731 20.3748 10.7484 20.2707 10.7527C20.1665 10.7527 20.0624 10.757 19.9583 10.757C19.4811 10.757 19.0863 10.6963 18.7826 10.5705C18.4008 10.4187 18.1232 10.1627 17.9496 9.79826C17.7848 9.23427 17.6459 8.55748 17.5418 7.76789C17.5071 7.51627 17.4377 6.88286 17.3292 5.86768C17.2208 4.85249 17.121 4.10195 17.0342 3.62473C16.9431 3.65944 16.878 3.73753 16.8433 3.859C16.8043 3.98048 16.7652 4.13666 16.7219 4.32321C16.7999 4.54447 16.852 4.73536 16.8824 4.89588C16.9127 5.0564 16.9475 5.32104 16.9822 5.69848C17.0733 6.4013 17.1644 7.09978 17.2642 7.8026C17.2902 8.01085 17.3422 8.42733 17.4117 9.05206C17.4117 9.09544 17.4203 9.15618 17.4334 9.23861V9.40347C17.4334 9.68113 17.39 9.93275 17.2989 10.1627C17.2078 10.3926 17.0602 10.5879 16.852 10.757C16.7479 10.8004 16.6351 10.8178 16.5179 10.8178C16.262 10.8178 16.0537 10.7267 15.8932 10.5488C15.7414 10.2711 15.6156 10.0065 15.5245 9.75054C15.429 9.49891 15.2815 8.98698 15.0733 8.22343C14.9431 7.75922 14.8086 7.36443 14.6785 7.04772C14.5049 6.62256 14.3054 6.26247 14.0754 5.96312C14.006 5.95445 13.9626 5.98915 13.9409 6.06291C13.9193 6.13666 13.8976 6.2321 13.8672 6.34924C13.8325 6.40998 13.8151 6.47505 13.8151 6.53579C13.8151 6.61388 13.8412 6.69197 13.8889 6.7744C13.967 6.8872 14.0407 6.99132 14.1188 7.09545C14.4746 7.81128 14.6655 8.22343 14.7002 8.33623C14.7913 8.60521 14.8347 8.87419 14.8347 9.13883C14.8347 9.22993 14.8347 9.29935 14.826 9.34707C14.4095 9.86768 13.9279 10.2972 13.377 10.6399C13.0906 10.8134 12.7999 10.9523 12.5006 11.0521C12.2012 11.1518 11.9019 11.2039 11.6069 11.2039C11.4594 11.1345 11.3596 11.039 11.3032 10.9132C11.2468 10.7874 11.2208 10.6356 11.2208 10.4534C11.2208 10.3709 11.2381 10.2234 11.2685 10.0152C11.2989 9.80694 11.3206 9.65076 11.3249 9.54664C11.2338 9.78091 11.16 10.0195 11.095 10.2581C11.0342 10.4967 10.9995 10.7267 10.9995 10.9393C10.9995 11.1215 11.0212 11.2863 11.0602 11.4425C11.0993 11.5987 11.173 11.7375 11.2685 11.8633C11.3509 11.9067 11.4377 11.9414 11.5245 11.9675C11.6112 11.9935 11.698 12.0108 11.7804 12.0108C11.8585 12.0108 11.9323 12.0022 12.0104 11.9805C12.3444 11.885 12.6611 11.7636 12.9648 11.6161C13.2685 11.4685 13.5548 11.295 13.8325 11.0954C14.1362 10.8742 14.3835 10.6356 14.57 10.3883C14.7869 10.102 14.9258 9.79826 14.9952 9.47288C15.0863 9.75922 15.1774 10.0542 15.2772 10.3623C15.3726 10.6703 15.4854 10.9306 15.6112 11.1388C15.8195 11.4599 16.1405 11.6161 16.5787 11.6161C16.7739 11.6161 16.9605 11.538 17.1427 11.3774C17.3509 11.1909 17.5375 10.9089 17.7067 10.5358L18.0104 10.961C18.3227 11.1692 18.6394 11.3167 18.9561 11.4035C19.2772 11.4902 19.6199 11.5336 19.9887 11.5336C20.3574 11.5336 20.7175 11.4946 21.0776 11.4121C21.4333 11.3341 21.8412 11.2082 22.2924 11.0434C22.7435 10.8785 23.3422 10.6182 24.0841 10.2625C24.1101 10.2711 24.1275 10.2928 24.1275 10.3362C24.1275 10.3449 24.1188 10.3753 24.1015 10.4317C24.0841 10.4881 24.0798 10.5358 24.0841 10.5792C24.0841 10.718 24.1275 10.8438 24.2143 10.9523C24.301 11.0651 24.4052 11.1518 24.531 11.2213C24.6698 11.2646 24.8043 11.282 24.9388 11.282C25.0993 11.282 25.2598 11.256 25.4247 11.2039C25.5895 11.1518 25.7284 11.0824 25.8455 11C26.0451 10.9046 26.1839 10.731 26.262 10.4881C26.3054 10.2798 26.3488 10.0672 26.3965 9.85466L26.3835 9.86334ZM23.6676 12.2278C23.5375 12.4447 23.3856 12.6399 23.2208 12.8221C23.173 12.7527 23.0429 12.6833 22.8303 12.6095C22.6177 12.5358 22.5136 12.4577 22.5136 12.3753C22.5136 12.3319 22.531 12.2842 22.5657 12.2278C22.5917 12.2061 22.6611 12.128 22.7739 11.9892C22.865 11.8764 22.9431 11.8243 23.0125 11.8243C23.0733 11.8243 23.1383 11.8547 23.1991 11.9197C23.2772 11.9458 23.3596 11.9935 23.4507 12.0542C23.4941 12.0803 23.5635 12.141 23.6676 12.2321V12.2278ZM16.1101 6.68763C16.1232 6.74403 16.1318 6.78308 16.1318 6.81345C16.1318 6.86985 16.1145 6.93492 16.0798 7.01301C16.0451 7.09111 16.019 7.1475 16.006 7.19089C15.9626 7.21258 15.9279 7.22126 15.9019 7.22126C15.8325 7.22126 15.7717 7.17787 15.7153 7.08677C15.6893 7.03904 15.6676 6.98698 15.6546 6.93058C15.6546 6.65293 15.6633 6.45336 15.6763 6.33623C15.6893 6.21909 15.7414 6.09761 15.8325 5.9718C15.7848 6.13232 15.7587 6.29284 15.7587 6.44902C15.7587 6.56182 15.7674 6.64859 15.7848 6.71366C15.8021 6.77874 15.8368 6.84816 15.8845 6.91757C15.9193 6.95228 15.954 6.95228 15.993 6.91757C16.032 6.88286 16.0537 6.84382 16.0624 6.80477C16.0494 6.77006 16.0494 6.74403 16.0668 6.72668C16.0841 6.70933 16.1015 6.69631 16.1145 6.69197L16.1101 6.68763ZM21.6589 11.8416C21.6589 12.0846 21.6069 12.3015 21.4984 12.4881C21.39 12.6746 21.2381 12.8438 21.0342 13C21.0559 12.9566 21.147 12.8395 21.3032 12.6442C21.4333 12.4837 21.5028 12.3449 21.5028 12.2278C21.5028 12.1583 21.4811 12.0846 21.442 12.0108C21.416 12.0108 21.377 12.0239 21.3336 12.0542C21.2902 12.0803 21.2642 12.0976 21.2555 12.0976C21.2555 12.0412 21.2815 11.9761 21.3292 11.9067C21.377 11.833 21.4333 11.7809 21.4941 11.7462C21.5635 11.7202 21.6199 11.7549 21.6589 11.8503V11.8416ZM13.4334 3.98048C13.3509 4.28417 13.173 4.55315 12.9084 4.78742C12.6394 5.02169 12.3488 5.16052 12.0277 5.20824C11.993 5.18655 11.9583 5.16486 11.9236 5.1475C11.967 5.08677 12.1188 4.98265 12.3835 4.84382C12.6004 4.73102 12.7045 4.6269 12.7045 4.52278C12.4355 4.53579 12.2056 4.54881 12.019 4.55315C11.8325 4.56182 11.672 4.60954 11.5418 4.70065C11.6373 4.47939 11.737 4.31019 11.8325 4.18872C11.993 3.99349 12.1622 3.89805 12.3444 3.89805C12.4138 3.89805 12.5136 3.89805 12.6481 3.88937C12.7783 3.8807 12.8737 3.88069 12.9301 3.88069C13.0255 3.88069 13.1166 3.88937 13.1991 3.90239C13.2815 3.9154 13.3639 3.94577 13.4377 3.98481L13.4334 3.98048ZM12.5483 7.02169C12.5743 7.1475 12.5353 7.22126 12.4268 7.25163C12.3184 7.27766 12.2533 7.32972 12.2229 7.40781C12.2229 7.45553 12.2229 7.54664 12.2316 7.67245C12.2403 7.8026 12.2403 7.89805 12.2403 7.96746C12.2403 8.141 12.2143 8.29718 12.1665 8.43601C12.0754 8.36659 11.9757 8.22777 11.8715 8.02386C11.7631 7.81996 11.6676 7.67679 11.5852 7.60304C11.5765 7.60304 11.5722 7.61171 11.5635 7.62907C11.5548 7.64642 11.5548 7.65944 11.5548 7.66377C11.5071 7.67679 11.455 7.67245 11.403 7.64208C11.3509 7.61605 11.3032 7.58134 11.2642 7.53796C11.2642 7.43384 11.2728 7.34707 11.2902 7.27766C11.3075 7.20824 11.3422 7.14317 11.3986 7.07809C11.5592 7.18221 11.7153 7.36443 11.8672 7.62039C11.9973 7.85033 12.0754 7.97614 12.0971 8.00651C12.1058 7.72885 12.1188 7.49457 12.1448 7.29935C12.1709 7.10412 12.2663 7.00868 12.4312 7.00868C12.4789 7.00868 12.5179 7.00868 12.544 7.01735L12.5483 7.02169ZM15.0255 11.6117C15.0255 11.8416 14.9865 12.0499 14.9041 12.2364C14.826 12.423 14.7002 12.6095 14.5353 12.8004C14.5483 12.731 14.6091 12.6009 14.7175 12.4143C14.826 12.2278 14.878 12.0759 14.878 11.9675C14.878 11.8764 14.8433 11.7852 14.7739 11.6985L14.6177 11.833C14.6177 11.6681 14.6828 11.5336 14.8173 11.4382C14.8607 11.4295 14.8954 11.4382 14.9301 11.4642C14.9648 11.4902 14.9952 11.538 15.0255 11.6161V11.6117Z" fill="currentColor"/>
</svg>
