<svg width="40" height="16" viewBox="0 0 40 16" fill="none" xmlns="http://www.w3.org/2000/svg">
<path fill-rule="evenodd" clip-rule="evenodd" d="M28.7706 9.40625C28.7706 9.93835 28.758 10.3395 28.7284 10.6014C28.6819 11.0321 28.5848 11.3953 28.4328 11.6867L28.4919 10.31L27.3264 4.38936C27.3602 4.33024 27.3517 4.25422 27.2968 4.16976C27.2419 4.0853 27.2166 4.02618 27.2166 3.9924C27.2504 3.94595 27.3053 3.83615 27.3855 3.66723C27.4615 3.49831 27.5333 3.38851 27.5924 3.33362C27.6515 3.48142 27.7698 3.72635 27.9471 4.06419C28.2301 4.60473 28.3863 5.02703 28.4117 5.33108L27.9767 4.88345L27.9176 4.99324L28.7706 9.40203V9.40625ZM23.2554 4.85389C23.2216 4.90879 23.1921 4.95524 23.171 4.98902C23.1456 5.02703 23.1161 5.05237 23.0738 5.06504C23.0189 5.06504 22.9725 5.02703 22.9303 4.94679C22.888 4.87078 22.8627 4.81166 22.85 4.77787C22.8374 4.68497 22.8289 4.60473 22.8289 4.54561C22.8289 4.32179 22.888 4.15709 23.002 4.0473C23.002 4.10642 23.002 4.17399 22.9936 4.24155C22.9852 4.30912 22.9809 4.37247 22.9725 4.43581C22.9725 4.51605 22.9852 4.57939 23.0063 4.63007C23.0316 4.67652 23.0738 4.71453 23.1414 4.73986L23.2343 4.58784C23.2808 4.59628 23.3061 4.62584 23.3061 4.68074C23.2808 4.76943 23.2639 4.82433 23.2554 4.85389ZM22.5882 3L22.4151 3.22382C22.1363 3.33784 21.4607 3.58277 20.388 3.95439C19.9404 4.11064 19.535 4.26267 19.1718 4.41047C19.1507 4.34291 19.1803 4.27112 19.252 4.19932C19.2858 4.16554 19.3323 4.13176 19.3956 4.09797C19.8264 3.98395 20.3669 3.80659 21.0088 3.5701C21.9083 3.24071 22.4362 3.05067 22.5882 3.00422V3ZM21.5536 4.13598C21.4944 4.19088 21.4607 4.25845 21.4607 4.33868C21.4607 4.39358 21.4691 4.46959 21.4818 4.57095C21.4818 4.64696 21.4649 4.70186 21.4311 4.74409C21.296 4.74409 21.2284 4.68919 21.2284 4.58362C21.2368 4.53716 21.2411 4.49071 21.2495 4.44003C21.258 4.39358 21.258 4.34713 21.258 4.29645C21.258 4.22044 21.2411 4.16976 21.2073 4.13598C21.1608 4.1951 21.1313 4.26689 21.1144 4.34713V4.72297C21.0721 4.78209 21.0341 4.82855 20.9919 4.85811C20.9497 4.88767 20.9032 4.89612 20.8483 4.88345C20.7681 4.82433 20.7259 4.73564 20.7259 4.62162C20.747 4.48649 20.7681 4.34713 20.7977 4.20777C20.709 4.26267 20.6541 4.34291 20.6245 4.4527C20.6034 4.63007 20.5865 4.80321 20.5738 4.98057C20.5865 5.03547 20.6203 5.08193 20.6752 5.12416C20.7301 5.16639 20.785 5.18328 20.8483 5.18328C20.9243 5.17483 20.9835 5.14527 21.0257 5.09037C21.0679 5.03547 21.1144 4.98058 21.1608 4.9299C21.1862 4.97635 21.2115 5.00591 21.2368 5.01013C21.2622 5.01858 21.3213 5.01858 21.4227 5.01858C21.5493 4.89612 21.6169 4.73986 21.6169 4.54138C21.6169 4.42736 21.5916 4.29223 21.5451 4.13598H21.5536ZM23.5004 6.04054C23.5257 6.12078 23.5088 6.20102 23.4412 6.27281C23.4159 6.27281 23.3694 6.25591 23.3103 6.22635C23.2512 6.19679 23.1963 6.18834 23.1499 6.20101C23.0907 6.3277 23.0443 6.54308 23.0189 6.84291C22.9936 7.14274 22.9556 7.36233 22.9091 7.49747C22.8331 7.42145 22.7487 7.27787 22.6515 7.06672C22.5544 6.85558 22.4573 6.69932 22.3644 6.60642C22.3433 6.64865 22.3053 6.65709 22.2546 6.6402C22.1997 6.62331 22.1659 6.61909 22.1532 6.62331C22.0645 6.58953 22.0223 6.50929 22.0223 6.37838C22.035 6.29814 22.0477 6.2348 22.0519 6.19679C22.0857 6.10811 22.1152 6.05321 22.1448 6.02365C22.1743 5.99409 22.2039 5.98564 22.2461 5.99409C22.3602 6.11655 22.47 6.26858 22.5713 6.45017C22.6515 6.61909 22.736 6.78379 22.8247 6.94848C22.85 6.88936 22.8838 6.71199 22.926 6.42483C22.9683 6.13767 23.0527 5.95186 23.1794 5.86318C23.2892 5.88851 23.3652 5.91385 23.4075 5.93074C23.4497 5.94763 23.4877 5.98142 23.513 6.03632L23.5004 6.04054ZM23.6946 8.95017C23.7073 9.05997 23.7031 9.15287 23.6735 9.23311C23.6482 9.31334 23.589 9.38091 23.5004 9.43581C23.3906 9.41047 23.3103 9.34713 23.2554 9.25422C23.2554 8.90794 23.323 8.60389 23.4581 8.34206C23.4792 8.3674 23.4877 8.41385 23.4877 8.47297C23.4877 8.5152 23.4708 8.58277 23.437 8.68412C23.4032 8.78548 23.3863 8.86149 23.3863 8.90794C23.3863 8.99662 23.4328 9.06419 23.5299 9.11064C23.5426 9.1022 23.5721 9.05152 23.6228 8.95017H23.6946ZM18.6059 3.91216C18.5721 3.9375 18.5257 3.95439 18.4624 3.95439C18.4075 3.95439 18.3483 3.94595 18.2808 3.93328L18.2596 3.91216C18.2343 3.97973 18.1794 4.02196 18.0992 4.03885C18.0189 4.05574 17.964 4.06419 17.9387 4.06419C17.8922 4.03041 17.8585 3.97973 17.8374 3.91639C17.8162 3.85304 17.8078 3.7897 17.8078 3.73057V3.62922C17.8205 3.58277 17.8289 3.54899 17.8289 3.52787C17.85 3.49409 17.8711 3.45608 17.9007 3.41808C17.9134 3.50676 17.926 3.58277 17.9345 3.64612C17.9429 3.70946 17.9767 3.76436 18.0316 3.80236C18.1541 3.80236 18.2132 3.75169 18.2132 3.65034C18.2005 3.54054 18.1921 3.4603 18.1921 3.40541C18.1921 3.31672 18.2216 3.2576 18.285 3.22382C18.3103 3.24493 18.3272 3.29983 18.3272 3.39696C18.3188 3.48564 18.3188 3.54899 18.3188 3.59122C18.3188 3.68412 18.3441 3.7348 18.399 3.7348C18.4243 3.7348 18.475 3.71791 18.5426 3.68412C18.5299 3.63767 18.5215 3.59544 18.5172 3.56166C18.5172 3.52787 18.513 3.48564 18.513 3.43919C18.513 3.35051 18.5384 3.27872 18.5848 3.22804C18.6524 3.35051 18.6862 3.48564 18.6862 3.63345C18.6862 3.6799 18.6819 3.72635 18.6693 3.77703C18.6608 3.82348 18.6397 3.86993 18.6144 3.92061L18.6059 3.91216ZM27.736 9.90034C27.6558 9.75676 27.5671 9.66385 27.4742 9.61318C27.3813 9.5625 27.2588 9.53716 27.111 9.53716C26.7183 9.62585 26.3255 9.7103 25.937 9.79054C25.823 9.4527 25.6879 8.92905 25.5316 8.21959C25.4091 7.6875 25.3374 7.37078 25.3205 7.27787L26.5367 6.16301C26.6718 6.18412 26.7689 6.12078 26.8323 5.98142C26.7858 5.93497 26.7605 5.87162 26.7605 5.79983C26.7605 5.7576 26.7732 5.69426 26.8027 5.60558C26.8281 5.51689 26.845 5.44932 26.845 5.40287C26.845 5.34375 26.8323 5.28463 26.8027 5.22973C26.8027 5.14949 26.7647 5.09037 26.6845 5.05236C26.6085 5.01436 26.524 5.00169 26.4353 5.01858C26.3466 5.06081 26.2706 5.10726 26.2073 5.16639C26.1439 5.22551 26.1017 5.28463 26.0806 5.3522C26.0595 5.41977 26.051 5.46622 26.051 5.49578C26.051 5.57601 26.1186 5.66892 26.2537 5.77027C26.3889 5.87162 26.4649 5.95608 26.486 6.02365C26.3044 6.21791 26.1059 6.39949 25.899 6.55997C25.7892 6.6402 25.5865 6.78801 25.2825 6.99493C25.1895 6.58953 25.0966 6.18412 25.008 5.77872C24.8982 5.2973 24.8475 4.89189 24.8475 4.5625C24.8602 4.57517 24.9446 4.6723 25.1009 4.84544C25.1346 4.88767 25.1769 4.9299 25.2318 4.97635C25.2318 4.73142 25.1346 4.44003 24.9362 4.09375C24.6575 3.60811 24.5054 3.32517 24.4716 3.24071C24.3703 3.29561 24.2858 3.39274 24.2183 3.53632C24.1718 3.66301 24.1254 3.7897 24.0747 3.91216C24.3365 5.0397 24.6068 6.16723 24.877 7.29899L23.9944 7.90709C24.0747 7.89443 24.2732 7.80997 24.5814 7.65372C24.7081 7.58615 24.8221 7.54814 24.9151 7.54392C25.008 7.95777 25.1051 8.3674 25.198 8.78125C25.2909 9.1951 25.3754 9.60051 25.4514 9.99747C25.2951 10.0439 25.0375 10.1326 24.6828 10.2593C24.1296 10.4367 23.6651 10.5211 23.2934 10.5211C23.0654 10.5211 22.8458 10.4873 22.6389 10.424C22.4319 10.3606 22.2461 10.2551 22.0772 10.1157C21.8534 9.79054 21.6465 9.41892 21.4607 9.00085C21.3846 8.84037 21.2326 8.44763 20.9961 7.82686C20.8061 7.33277 20.6372 6.94426 20.4894 6.66132C20.2782 6.25591 20.0417 5.90118 19.7715 5.59713V5.60558C19.7715 5.60558 19.7335 5.62247 19.7208 5.61402C19.6321 5.76182 19.5899 5.90541 19.5899 6.04054C19.5899 6.21791 19.6659 6.42061 19.8137 6.64865C19.8939 6.77534 20.0249 6.96115 20.198 7.20608C20.3416 7.48902 20.4852 7.78463 20.6372 8.09291C20.7892 8.40118 20.8652 8.68412 20.8652 8.95017C20.8652 8.99662 20.8568 9.07686 20.8441 9.18243C20.4725 9.84966 20.0037 10.4071 19.4336 10.8547C18.7917 11.3615 18.133 11.6149 17.4573 11.6149C17.3306 11.4924 17.263 11.3488 17.263 11.1799C17.263 11.0659 17.3137 10.859 17.4193 10.5676C17.5249 10.272 17.5713 10.0524 17.5544 9.90456C17.4742 10.1073 17.3939 10.31 17.3095 10.5127C17.1321 10.9603 17.0477 11.315 17.0477 11.5853C17.0477 11.7331 17.073 11.8809 17.1279 12.0245C17.1828 12.1681 17.263 12.2948 17.3728 12.4046C17.4193 12.413 17.4953 12.4257 17.6009 12.4468C17.7064 12.4679 17.7993 12.4764 17.8796 12.4764C18.0147 12.4764 18.1287 12.451 18.2259 12.4046C18.9564 12.1132 19.5857 11.6951 20.1093 11.1461C20.7259 10.5127 21.0299 9.84966 21.0299 9.16132C21.1313 9.44426 21.2411 9.73986 21.3593 10.0439C21.4776 10.348 21.6254 10.5971 21.8069 10.7956C21.9843 10.9899 22.187 11.1334 22.4108 11.2221C22.6346 11.3108 22.8754 11.353 23.1287 11.353C23.2174 11.353 23.3061 11.3488 23.4032 11.3362C23.4961 11.3277 23.5975 11.3108 23.7073 11.2897C24.0029 11.2432 24.421 11.1208 24.9531 10.9265C25.1811 10.8463 25.4134 10.766 25.6414 10.6816C25.7216 10.8632 25.8145 11.0448 25.9201 11.2221C26.0257 11.3995 26.1355 11.5473 26.2495 11.6613C26.3382 11.7289 26.4269 11.7796 26.524 11.8176C26.6169 11.8556 26.714 11.8725 26.8069 11.8725C26.883 11.8725 26.9379 11.864 26.9801 11.8514C27.225 11.5726 27.4108 11.2728 27.5417 10.9434C27.6727 10.614 27.7402 10.2677 27.7402 9.89611L27.736 9.90034ZM17.7529 4.31757C17.6769 4.47804 17.6093 4.6174 17.5417 4.73142C17.5164 4.78632 17.4573 4.86655 17.3686 4.97635L16.7605 4.68074C16.8534 4.42314 16.9928 4.1951 17.1743 3.9924C17.3433 4.07264 17.4404 4.11909 17.47 4.13598C17.5502 4.17821 17.6473 4.23733 17.7529 4.31757ZM18.5341 5.01858L18.0865 5.65625C17.8965 5.57601 17.7529 5.51267 17.6515 5.47044C17.5502 5.42821 17.4573 5.38176 17.3686 5.33531C17.3348 5.36909 17.263 5.48311 17.1575 5.68159C17.0772 5.82939 16.9843 5.90541 16.883 5.90541C16.8281 5.90541 16.7901 5.89696 16.7605 5.88429L16.3044 5.71115C16.3846 5.5 16.4311 5.38176 16.448 5.35642C16.5156 5.21284 16.5958 5.11149 16.6929 5.04392L17.3728 5.25507L17.8078 4.68919C17.9894 4.74409 18.1287 4.79054 18.2301 4.83277C18.3272 4.875 18.4328 4.93834 18.5384 5.02703L18.5341 5.01858ZM25.4767 11.7669C25.4852 11.8218 25.4683 11.8809 25.4303 11.9443C25.3923 12.0076 25.3585 12.0709 25.3247 12.1301C25.2698 12.1512 25.2233 12.1596 25.1811 12.1596C25.122 12.1596 25.0586 12.147 24.9995 12.1174C24.9404 12.0921 24.8855 12.0583 24.839 12.016C24.5941 12.3285 24.2183 12.5524 23.7031 12.6959C23.2512 12.7973 22.7993 12.8986 22.3559 13C22.546 12.924 22.8416 12.8142 23.247 12.6664C23.8973 12.4299 24.383 12.2188 24.7081 12.0372C24.7208 11.9274 24.7841 11.8049 24.9024 11.6613C25.0164 11.5177 25.1262 11.4502 25.2276 11.4502C25.35 11.4502 25.4345 11.5557 25.4809 11.7627L25.4767 11.7669ZM17.6431 6.79223C17.6558 6.82601 17.6642 6.87247 17.6642 6.93581C17.6642 7.04983 17.622 7.15963 17.5333 7.26098C17.4911 7.29476 17.4488 7.32855 17.4066 7.36233C17.3644 7.39611 17.3137 7.40456 17.2588 7.38345C17.1828 7.26098 17.149 7.12585 17.149 6.97804C17.149 6.83024 17.1786 6.67399 17.2419 6.49662C17.301 6.31926 17.3644 6.14612 17.4235 5.98564C17.4362 6.01098 17.4446 6.05321 17.4446 6.10811C17.4446 6.18834 17.4319 6.27281 17.4024 6.36149C17.3221 6.62331 17.2799 6.77534 17.2799 6.80912C17.2799 6.93581 17.3433 7.02027 17.4742 7.05406C17.4953 7.03294 17.5206 6.99071 17.5502 6.92314C17.5797 6.85557 17.6135 6.81335 17.6473 6.80068L17.6431 6.79223ZM15.3922 4.7652C15.4134 4.84122 15.4049 4.92568 15.3669 5.02703C15.3289 5.12838 15.2825 5.20862 15.2191 5.27196C15.1515 5.29308 15.0966 5.28041 15.0502 5.2424C15.008 5.20017 14.9657 5.14527 14.9319 5.06926C14.9108 4.98902 14.9024 4.90879 14.9024 4.82433C14.9024 4.68919 14.9277 4.55405 14.9742 4.41892C14.9995 4.3429 15.0586 4.22466 15.1473 4.05575C15.1135 4.18243 15.0882 4.29223 15.0671 4.38514C15.046 4.47804 15.0375 4.5625 15.0375 4.64274C15.0375 4.73142 15.0544 4.81588 15.084 4.89612C15.1135 4.97635 15.1727 5.01014 15.2613 4.99747L15.3922 4.7652ZM19.6912 9.09375C19.6912 9.28378 19.6152 9.4527 19.4674 9.60051C19.3534 9.62162 19.2774 9.55828 19.2436 9.40625C19.2183 9.33024 19.2014 9.25 19.2014 9.16132C19.2014 9.03463 19.2436 8.87416 19.3281 8.68412C19.4125 8.49409 19.459 8.39274 19.4632 8.38007C19.4505 8.43497 19.421 8.5321 19.383 8.66723C19.3407 8.80659 19.3238 8.91216 19.3238 8.98817C19.3238 9.12331 19.3703 9.23311 19.4674 9.32179C19.5265 9.33024 19.5772 9.29645 19.611 9.22044C19.6448 9.14443 19.6701 9.1022 19.6912 9.08953V9.09375ZM13.4497 3.89527L13.3779 4.11909L13.1034 3.99662C13.0358 4.11909 12.9894 4.33024 12.9598 4.63429C12.9345 4.93834 12.8838 5.14527 12.8078 5.25084C12.7529 5.19172 12.6895 5.04814 12.6135 4.82433C12.4995 4.47804 12.3179 4.31757 12.0772 4.33868C12.0434 4.28378 12.0265 4.22888 12.0265 4.16554C12.0265 4.05574 12.0603 3.95862 12.1279 3.86993C12.149 3.8446 12.1997 3.84882 12.2799 3.89105C12.3813 3.96706 12.4657 4.06841 12.5333 4.1951C12.6262 4.40625 12.7276 4.60895 12.8289 4.81165C12.8711 4.54983 12.9049 4.32601 12.9345 4.14865C12.964 3.97128 13.0274 3.81926 13.1203 3.69679C13.2428 3.7179 13.3483 3.78125 13.4455 3.89105L13.4497 3.89527ZM14.7377 7.81841C14.7461 7.89865 14.7335 7.97889 14.7039 8.05068C14.6743 8.12669 14.6237 8.22382 14.5561 8.34628C14.4547 8.32095 14.3745 8.28294 14.3112 8.23649C14.2225 8.16892 14.1887 8.08446 14.2098 7.98311C14.2098 7.78041 14.2436 7.56926 14.3069 7.34966C14.3703 7.13007 14.497 6.87247 14.687 6.57264C14.687 6.68666 14.6363 6.86824 14.535 7.10895C14.4336 7.35389 14.383 7.53125 14.383 7.64527C14.383 7.80152 14.4547 7.93666 14.5941 8.05068C14.6152 8.02956 14.6363 7.99156 14.6532 7.92821C14.6743 7.86909 14.6997 7.83108 14.7335 7.81841H14.7377ZM13.3483 5.71115C13.3019 5.85895 13.1287 5.95608 12.8247 5.99831C12.5248 6.04054 12.3306 6.13345 12.2419 6.27703C12.2419 6.52196 12.2841 6.80912 12.3728 7.14274C12.4615 7.47635 12.546 7.7973 12.6262 8.10135C12.6515 8.22382 12.6769 8.36318 12.698 8.52365C12.7191 8.68412 12.7276 8.8277 12.7276 8.95439C12.7276 9.30068 12.6558 9.62584 12.5164 9.93834C12.6051 9.70186 12.6473 9.46115 12.6473 9.22044C12.6473 9.07264 12.6346 8.92905 12.6135 8.79392C12.5882 8.65878 12.5249 8.38851 12.4151 7.98311C12.301 7.63682 12.2292 7.40456 12.2039 7.2821C12.1448 7.03294 12.111 6.79223 12.111 6.56419C12.111 6.37416 12.1363 6.19679 12.1828 6.02787C12.2715 5.93497 12.3897 5.85895 12.5375 5.80406C12.6051 5.77872 12.736 5.74071 12.9345 5.69426C12.8585 5.63514 12.774 5.60135 12.6727 5.60135C12.6178 5.60135 12.5755 5.61824 12.5417 5.6478C12.508 5.67737 12.4784 5.70692 12.4488 5.73226C12.4488 5.65625 12.4657 5.58024 12.4995 5.5C12.5333 5.41976 12.5713 5.36909 12.6178 5.34797C12.66 5.32686 12.698 5.31841 12.7233 5.31841H12.7825C12.8922 5.31841 12.9978 5.36064 13.1076 5.44088C13.1879 5.5 13.2681 5.5929 13.3526 5.71537L13.3483 5.71115ZM16.9463 10.6858C16.8703 10.8294 16.7732 10.9519 16.6507 11.0617C16.562 11.1377 16.4227 11.2348 16.2368 11.3573C15.9328 11.5262 15.633 11.6951 15.3331 11.864C15.312 11.8176 15.3205 11.7627 15.3585 11.6951C15.3965 11.6318 15.4471 11.5938 15.5147 11.5769L16.9421 10.6858H16.9463ZM18.9015 7.63682C18.8762 7.89865 18.8002 8.15203 18.6777 8.39696C18.5848 8.57855 18.437 8.79392 18.2428 9.03463C18.2343 8.95861 18.2596 8.85304 18.3188 8.70946C18.3779 8.56588 18.4032 8.47297 18.4032 8.42652C18.4032 8.34629 18.3652 8.27027 18.2934 8.2027C18.1372 8.2576 17.9345 8.35473 17.6853 8.49831C17.5713 8.55743 17.4488 8.625 17.3221 8.70102C17.0645 8.84882 16.8661 8.95017 16.7309 9.00507C16.5916 9.05997 16.4522 9.09797 16.3086 9.11487C16.2833 9.43159 16.1988 9.7272 16.0553 9.99747C15.8272 10.3775 15.4683 10.7323 14.9826 11.0701C14.6448 11.3066 14.1634 11.5684 13.5341 11.8598C13.0485 12.0836 12.5629 12.3074 12.0857 12.527C11.3889 12.6622 10.6921 12.7973 9.99951 12.9324C10.3247 12.7762 10.9877 12.4679 11.997 11.9992C12.888 11.5853 13.5595 11.2644 14.0029 11.0279C14.7124 10.6436 15.3458 10.2424 15.9075 9.8201C15.9075 9.65963 15.8737 9.47804 15.8019 9.27956C15.7301 9.08108 15.6625 8.88683 15.595 8.69679C15.5485 8.52787 15.5232 8.39274 15.5232 8.29139C15.5232 8.04645 15.6414 7.83953 15.8779 7.66216C15.9117 7.80574 15.9497 7.94088 15.9877 8.07601C16.0468 8.23649 16.1651 8.32095 16.334 8.32095C16.7647 8.32095 17.2377 8.18159 17.7444 7.90709C18.002 7.76351 18.2596 7.61993 18.513 7.47213C18.6059 7.47213 18.6904 7.48058 18.7664 7.50169C18.8424 7.5228 18.8889 7.56503 18.91 7.6326L18.9015 7.63682ZM26.6465 5.73226L26.2833 5.38598C26.3255 5.33953 26.372 5.31419 26.4269 5.31419C26.486 5.31419 26.5409 5.34797 26.5874 5.41554C26.6338 5.48311 26.6549 5.55912 26.6465 5.63936V5.73226ZM27.3475 10.9434C27.3686 10.8885 27.377 10.8421 27.377 10.7998C27.377 10.7407 27.3686 10.6858 27.3475 10.6394C27.3264 10.5929 27.2884 10.5296 27.225 10.4578C27.1237 10.3564 26.9801 10.3057 26.7985 10.3057C26.7098 10.3057 26.6169 10.3142 26.5198 10.3353C26.4227 10.3564 26.3298 10.3775 26.2411 10.3944C26.2411 10.5169 26.3044 10.6436 26.4353 10.7787C26.562 10.9139 26.6971 11.0068 26.8323 11.0532C26.9252 11.0659 26.997 11.0743 27.0434 11.0743C27.187 11.0743 27.2884 11.0321 27.3475 10.9434ZM25.2276 11.864C25.2022 11.8767 25.1684 11.8767 25.1304 11.8598C25.0924 11.8429 25.0502 11.8133 25.0037 11.7753L25.0333 11.7162C25.0586 11.7078 25.1009 11.7247 25.1558 11.7669L25.2276 11.8682V11.864Z" fill="currentColor"/>
</svg>
