<svg width="40" height="16" viewBox="0 0 40 16" fill="none" xmlns="http://www.w3.org/2000/svg">
<path fill-rule="evenodd" clip-rule="evenodd" d="M32.0167 5.0515C31.9738 5.00858 31.9308 4.9442 31.8836 4.85407C31.7935 4.67382 31.7077 4.55794 31.6261 4.50215L31.566 4.56223L32.0081 9.24034C32.0081 9.62661 31.9566 9.99571 31.8493 10.3519C31.742 10.7082 31.5961 11.0472 31.4115 11.3605C31.4931 11.2017 31.5532 11.0129 31.5918 10.7897C31.6304 10.5665 31.6476 10.3433 31.6476 10.1159C31.6476 10.0215 31.6476 9.87124 31.639 9.67382C31.6304 9.4764 31.6304 9.33047 31.6304 9.24034L31.1068 4.03004C31.1068 3.97425 31.0939 3.90987 31.0725 3.8412C31.0467 3.76824 31.0381 3.72532 31.0381 3.71245C31.0381 3.65665 31.0553 3.60944 31.0939 3.56223C31.1326 3.51931 31.1926 3.4206 31.2742 3.27039C31.3343 3.14592 31.4072 3.07296 31.4888 3.04292C31.6175 3.4764 31.7506 3.90558 31.8793 4.33047C31.8793 4.39056 31.9137 4.51073 31.9823 4.69099C32.0253 4.80258 32.0424 4.87983 32.0424 4.92704C32.0424 4.95279 32.0338 4.99571 32.021 5.0515H32.0167ZM28.1454 3.14592L28.051 3.36051L26.0725 4.30901C26.1841 4.1588 26.3214 4.02575 26.4931 3.90558C26.6175 3.82403 26.7935 3.72532 27.0167 3.61803C27.3858 3.45923 27.7635 3.30043 28.1411 3.14592H28.1454ZM27.7935 4.91846C27.7935 4.96137 27.7806 5.00429 27.7506 5.0515C27.7034 5.13305 27.6776 5.18026 27.6776 5.18455C27.6562 5.1588 27.6347 5.12875 27.6175 5.103C27.5575 5.02575 27.4931 4.9957 27.433 5.00858C27.3987 5.18884 27.3643 5.3691 27.3257 5.54936C27.2871 5.72961 27.2313 5.8927 27.154 6.03004C27.1326 6.00858 27.0596 5.86266 26.9265 5.58798C26.8321 5.39485 26.7077 5.27897 26.5574 5.23605C26.5317 5.20172 26.5145 5.1588 26.5145 5.11159C26.5145 5.07725 26.5317 5.02575 26.5617 4.95279C26.5918 4.87983 26.6132 4.83262 26.6304 4.80257C26.7549 4.88412 26.8622 5.00429 26.9609 5.16309C26.9866 5.2103 27.0596 5.35622 27.1755 5.59657C27.1755 5.58798 27.2055 5.43777 27.2699 5.14163C27.3128 4.9485 27.3815 4.80686 27.4845 4.72103C27.6476 4.72103 27.7506 4.78541 27.7935 4.91846ZM30.9566 9.04721C30.7978 8.95708 30.6261 8.91416 30.4416 8.91416C30.2956 8.91416 30.1454 8.93562 29.9823 8.97425C29.8193 9.01717 29.6562 9.06867 29.4845 9.12875C29.3214 8.45493 29.2356 7.83262 29.2356 7.25322C29.4201 7.12876 29.6004 6.99141 29.772 6.8412C29.9695 6.66094 30.1326 6.49356 30.257 6.33477L30.4201 6.48927C30.4759 6.43348 30.5059 6.39055 30.5145 6.35622C30.5231 6.32188 30.5274 6.27897 30.536 6.23176C30.4201 6.17596 30.36 6.103 30.36 6.01717C30.36 5.97425 30.3815 5.90558 30.4201 5.81116C30.463 5.71674 30.4802 5.64378 30.4802 5.59657C30.4802 5.54936 30.4716 5.50215 30.4502 5.46352C30.4373 5.3691 30.3729 5.31759 30.2527 5.31759C30.0038 5.35193 29.8364 5.48068 29.7463 5.69957C29.7248 5.74249 29.7162 5.77682 29.7162 5.81116C29.7162 5.8927 29.7806 5.97425 29.9051 6.06009C30.0338 6.14163 30.1111 6.20601 30.1368 6.24463C29.9781 6.44206 29.8364 6.60515 29.7034 6.72961C29.5102 6.91416 29.3343 7.03863 29.1798 7.09871L28.9437 4.67811L29.0467 4.4721C29.1154 4.56223 29.1926 4.65236 29.2742 4.74678C29.3557 4.8412 29.4373 4.90128 29.5102 4.93562C29.4416 4.75107 29.33 4.44206 29.1712 4.00859C29.0124 3.57511 28.8622 3.24034 28.7162 3L28.3987 3.57511C28.5446 4.51502 28.6347 5.15021 28.6776 5.48069C28.7592 6.18026 28.8021 6.82404 28.8021 7.40773L28.4845 7.64377L28.8364 7.54077L29.051 9.31331C28.7549 9.46352 28.5274 9.57081 28.36 9.6309C28.0853 9.7339 27.8364 9.78541 27.609 9.78541C27.4029 9.78541 27.2012 9.74249 26.9995 9.65236C27.0124 9.54077 27.0253 9.43347 27.0424 9.32189C26.8708 9.50214 26.7034 9.67382 26.536 9.84549C26.3214 10.0644 26.1154 10.176 25.918 10.176C25.8836 10.176 25.8321 10.1674 25.7635 10.1545C25.5918 10.0944 25.4502 9.96566 25.3429 9.77253C25.2742 9.65665 25.1969 9.48498 25.1154 9.25751C25.0553 8.69957 25.0081 8.06438 24.9823 7.34764C24.9566 6.6309 24.9308 5.91845 24.9051 5.2103C24.8793 4.50214 24.8364 3.85837 24.7763 3.27468C24.6819 3.34335 24.5961 3.44206 24.5188 3.56652C24.4416 3.69528 24.4072 3.81545 24.4072 3.93133C24.4845 5.00858 24.5617 6.08584 24.6433 7.16738C24.6905 7.42919 24.7162 7.72532 24.7162 8.0515V8.18455C24.7162 8.96567 24.742 9.48068 24.7892 9.72961C24.8922 10.2704 25.1411 10.6695 25.5403 10.9227C25.6218 10.9356 25.6862 10.9442 25.7248 10.9442C25.9394 10.9442 26.1583 10.8326 26.3858 10.6137C26.5489 10.4206 26.7205 10.2275 26.8922 10.0386C27.0167 10.1416 27.1454 10.2146 27.2785 10.2618C27.4115 10.3047 27.5532 10.3305 27.7077 10.3305C27.9265 10.3305 28.1798 10.2833 28.4716 10.1846C28.7034 10.0944 28.9394 10.0043 29.1712 9.91845C29.227 10.1674 29.2999 10.3691 29.3987 10.5279C29.5231 10.7425 29.6862 10.8841 29.8922 10.9614C29.918 10.97 29.9652 10.97 30.0253 10.97C30.2399 10.97 30.4244 10.867 30.5832 10.6609C30.5961 10.6352 30.6991 10.4335 30.8922 10.0644C31.021 9.81545 31.0896 9.60944 31.0896 9.44635C31.0896 9.29614 31.0467 9.16309 30.9652 9.04292L30.9566 9.04721ZM26.0939 6.18455C26.0338 6.33476 25.9823 6.45065 25.948 6.52361C25.8879 6.66095 25.815 6.75966 25.7334 6.82404C25.815 6.69528 25.8793 6.56223 25.9223 6.43348C25.9652 6.30472 25.9909 6.16738 25.9909 6.02146C25.9909 5.84978 25.9523 5.70386 25.8793 5.5794C25.8321 5.46781 25.7849 5.35622 25.7334 5.24034C25.7334 5.19313 25.7635 5.14163 25.8278 5.08584C26.0338 5.26609 26.1369 5.5236 26.1369 5.86695C26.1369 5.99141 26.124 6.09871 26.0939 6.18455ZM27.33 7.17167C27.2956 7.20601 27.2356 7.29614 27.1497 7.44635C27.0639 7.59227 26.9781 7.69957 26.8879 7.75965L26.3429 7.33906C26.3772 7.28326 26.4287 7.20601 26.4974 7.103C26.609 6.93133 26.712 6.80687 26.8064 6.7339C26.9351 6.81545 27.0338 6.87983 27.0939 6.91846C27.2184 7 27.2956 7.08583 27.33 7.17596V7.17167ZM22.6519 3.67811L22.5489 3.8927C22.5017 3.87983 22.4373 3.85837 22.3643 3.82403C22.2871 3.79399 22.2313 3.77682 22.1884 3.77682C22.1755 3.81116 22.1368 3.96567 22.0811 4.23605C22.021 4.50644 21.948 4.70386 21.8579 4.82832C21.8107 4.77253 21.7592 4.6824 21.7034 4.54936C21.5789 4.25322 21.5017 4.08155 21.4673 4.03434C21.4587 4.10301 21.4244 4.13734 21.3643 4.13734C21.3085 4.13734 21.2527 4.11588 21.2012 4.07725C21.1798 4.03433 21.1712 3.99141 21.1712 3.9442C21.1712 3.87554 21.1884 3.81116 21.2227 3.74678C21.2313 3.73391 21.2699 3.67382 21.3471 3.57082C21.4974 3.62661 21.6132 3.75537 21.6991 3.96138C21.815 4.2618 21.8879 4.43348 21.9137 4.46781C21.9394 4.40772 21.9781 4.24893 22.021 4C22.0639 3.75107 22.1583 3.5794 22.3042 3.48927C22.3643 3.51073 22.4115 3.52361 22.4373 3.53219C22.5317 3.56653 22.6047 3.61373 22.6519 3.67811ZM23.0553 5.26609C23.0553 5.39056 23.0038 5.51502 22.9008 5.63519C22.8235 5.72961 22.7205 5.81974 22.5918 5.90128C22.536 5.83262 22.4673 5.78112 22.3858 5.74249C22.3042 5.70386 22.2227 5.66524 22.1497 5.62232C22.1841 5.50644 22.2356 5.39914 22.3042 5.29614C22.3729 5.19743 22.463 5.09013 22.5703 4.96996C22.7291 5.02575 22.8364 5.06867 22.8879 5.103C22.9437 5.13734 22.9995 5.18884 23.051 5.25751L23.0553 5.26609ZM29.3386 11.3348C29.3514 11.3906 29.36 11.4249 29.36 11.4378C29.36 11.4979 29.3429 11.5579 29.3042 11.6137C29.2656 11.6695 29.2313 11.7253 29.1969 11.7768C29.1755 11.7897 29.1454 11.7983 29.1025 11.7983C29.0682 11.7983 29.0167 11.7811 28.948 11.7425C28.8793 11.7039 28.8321 11.6867 28.8021 11.6867C28.7677 11.6867 28.7334 11.6996 28.6991 11.7296C28.5274 11.9485 28.2656 12.1202 27.918 12.2446C27.5059 12.3691 27.2012 12.4592 26.9995 12.5236C27.5489 12.2361 28.1025 11.9485 28.6562 11.6695C28.6562 11.5451 28.6776 11.4292 28.7248 11.3176C28.7677 11.206 28.845 11.1202 28.948 11.0601C29.0381 11.0472 29.1111 11.0644 29.1755 11.1159C29.2399 11.1674 29.2914 11.2403 29.3386 11.3391V11.3348ZM21.3042 6.61802C21.3128 6.69528 21.2956 6.78111 21.2527 6.87554C21.2098 6.96996 21.1583 7.04721 21.0896 7.103C21.021 7.06867 20.9652 7.01287 20.9265 6.93991C20.8836 6.86266 20.8665 6.7897 20.8665 6.71244C20.8793 6.56652 20.9094 6.43777 20.948 6.31759C20.9909 6.19742 21.051 6.08154 21.1326 5.97425C21.1068 6.08583 21.0853 6.17167 21.0725 6.23176C21.0381 6.34764 21.021 6.44635 21.021 6.53219C21.021 6.66094 21.0639 6.76394 21.154 6.83261C21.2012 6.76394 21.2527 6.69528 21.3085 6.62661L21.3042 6.61802ZM20.4502 5.48498C20.4029 5.51073 20.3257 5.61803 20.2227 5.79828C20.1197 5.97854 20.0253 6.07296 19.9437 6.07296C19.875 6.07296 19.8021 6.02575 19.7291 5.92703C19.7034 5.87124 19.6433 5.83262 19.5532 5.80257C19.3944 5.74678 19.3214 5.69098 19.3386 5.62661C19.3815 5.59227 19.4544 5.49356 19.566 5.32618C19.6562 5.19742 19.7377 5.12876 19.815 5.12876C19.8493 5.12876 19.8965 5.14163 19.9609 5.17167C20.021 5.19742 20.0982 5.24034 20.1884 5.29184C20.2785 5.34335 20.3686 5.40772 20.4544 5.48069L20.4502 5.48498ZM19.2742 5.59657C19.2141 5.69957 19.1497 5.80258 19.0853 5.90558C19.021 6.00859 18.9351 6.1073 18.8321 6.20601C18.6519 6.13734 18.5231 6.08584 18.4416 6.0515C18.2828 5.98283 18.2098 5.89699 18.227 5.79399C18.2828 5.76824 18.3514 5.67811 18.4373 5.5279C18.5231 5.37768 18.6004 5.30043 18.669 5.30043C18.7248 5.30043 18.7892 5.33477 18.8665 5.40344L19.2785 5.60086L19.2742 5.59657ZM18.3772 4.50644C18.4201 4.45922 18.4373 4.39914 18.4373 4.33047C18.4373 4.28756 18.3944 4.18884 18.3128 4.03004C18.2785 3.96995 18.2613 3.90558 18.2613 3.84549C18.2613 3.76395 18.2828 3.6867 18.3214 3.61803C18.2999 3.58369 18.2699 3.5236 18.227 3.44206C18.1798 3.38197 18.124 3.35193 18.0639 3.36051C17.845 3.55794 17.7291 3.66524 17.712 3.67811C17.6562 3.75537 17.6304 3.8412 17.6304 3.93562C17.6733 4.02575 17.7334 4.09872 17.8193 4.16309C17.9051 4.22318 17.9909 4.27897 18.0811 4.32618C17.875 4.74678 17.4888 5.17596 16.9265 5.61373C16.2055 6.18455 15.7635 6.56223 15.5961 6.74678C16.0682 6.39485 16.5489 6.04721 17.0296 5.69528C17.5789 5.27039 17.9738 4.83262 18.2141 4.38626C18.227 4.39485 18.2484 4.41631 18.2828 4.45494C18.3128 4.49356 18.3429 4.50644 18.3686 4.50215L18.3772 4.50644ZM15.9781 4.56652C15.9909 4.69528 15.9652 4.80687 15.8965 4.89699C15.8536 4.95708 15.7849 4.99142 15.6905 4.99142C15.6647 4.99142 15.6347 4.98283 15.609 4.96996C15.5188 4.87553 15.4759 4.75966 15.4759 4.6309C15.4759 4.51502 15.5188 4.36052 15.609 4.16738C15.6519 4.07725 15.6905 3.98713 15.7334 3.90129C15.742 3.95708 15.7334 4.02146 15.712 4.09871C15.6433 4.3176 15.609 4.44206 15.609 4.46781C15.609 4.56223 15.6519 4.64807 15.7334 4.72532C15.8364 4.71245 15.9051 4.66524 15.9394 4.59228L15.9823 4.57082L15.9781 4.56652ZM23.918 11.2017C23.9308 11.2575 23.918 11.3133 23.8708 11.3777C23.8278 11.4378 23.7678 11.4764 23.6991 11.4893C23.4587 11.5794 23.1798 11.6867 22.8579 11.8197C22.5403 11.9485 22.0896 12.1459 21.5145 12.4077C21.5231 12.3391 21.5446 12.279 21.5875 12.2318C21.6304 12.1845 21.6819 12.1373 21.7506 12.0858C22.2313 11.8798 22.5875 11.7296 22.8235 11.6309C23.3042 11.4249 23.669 11.279 23.9137 11.1974L23.918 11.2017ZM18.1068 7.41202C18.0811 7.57081 18.0596 7.66953 18.0467 7.71244C18.0038 7.81545 17.9394 7.88412 17.8493 7.91846C17.8064 7.93992 17.7635 7.92275 17.7205 7.87125C17.6776 7.81974 17.6476 7.78541 17.6347 7.76395C17.6004 7.68241 17.5832 7.60515 17.5832 7.53648C17.5832 7.43347 17.609 7.32618 17.6562 7.21888C17.7334 7.07296 17.7849 6.96996 17.8107 6.90987C17.7978 6.97854 17.7806 7.05579 17.7635 7.13734C17.7463 7.21888 17.7377 7.29184 17.7377 7.35193C17.7377 7.51073 17.7892 7.61803 17.8922 7.66953C17.9351 7.65665 17.9738 7.61373 18.0124 7.54077C18.051 7.46781 18.0811 7.42489 18.1111 7.41202H18.1068ZM12.7205 3.5279C12.742 3.56223 12.7463 3.60515 12.7291 3.66094C12.7034 3.71674 12.6862 3.75537 12.6776 3.78541C12.5746 3.75966 12.5017 3.74249 12.463 3.74249C12.4244 3.74249 12.3858 3.75537 12.3514 3.78541C12.2356 3.897 12.1712 4.103 12.1669 4.40772C12.1583 4.71245 12.1283 4.91846 12.0725 5.02146C12.0038 4.96567 11.9051 4.79399 11.772 4.50644C11.669 4.27468 11.5403 4.15451 11.3815 4.15451C11.2441 4.12017 11.1755 4.02575 11.1755 3.87553C11.1755 3.82832 11.1798 3.79399 11.1926 3.77682C11.2012 3.75966 11.2141 3.72532 11.2227 3.67811C11.2313 3.6309 11.257 3.60944 11.2999 3.61803C11.4244 3.66524 11.5403 3.75965 11.6519 3.89699C11.6862 3.93991 11.815 4.16309 12.0338 4.56652C12.0768 4.27038 12.1111 4.04721 12.1368 3.89699C12.1926 3.62232 12.3171 3.48498 12.5059 3.48498C12.5746 3.48498 12.6476 3.49785 12.7205 3.5279ZM18.6862 11.7253C18.6605 11.8541 18.6261 11.9614 18.5918 12.0386C18.5575 12.1159 18.4931 12.1845 18.3944 12.2403C18.2656 12.2403 18.1841 12.1803 18.154 12.0601C18.124 11.9399 18.1068 11.8369 18.1068 11.7554C18.1068 11.4893 18.1969 11.2232 18.3729 10.9614C18.3729 11.0172 18.3643 11.0901 18.3429 11.1888C18.2956 11.4163 18.2699 11.5622 18.2699 11.6309C18.2699 11.7811 18.3171 11.897 18.4158 11.97C18.4716 11.97 18.5188 11.9313 18.5617 11.8498C18.6047 11.7725 18.6433 11.7296 18.6862 11.721V11.7253ZM23.5274 8.5236C23.3901 8.20171 23.1926 7.93133 22.9308 7.72103C22.6433 7.48927 22.3343 7.36909 22.0038 7.36909C21.7162 7.50643 21.4888 7.72103 21.33 8.01717C21.1669 8.3133 21.0896 8.62661 21.0896 8.95279C21.1368 9.04292 21.1884 9.11588 21.2399 9.17596C21.2914 9.23605 21.3514 9.27897 21.4201 9.31331C21.4888 9.3691 21.566 9.40773 21.6562 9.43348C21.7463 9.45923 21.8407 9.46781 21.9437 9.46781C21.9781 9.46781 22.0811 9.45922 22.2527 9.44206C22.4244 9.42489 22.5532 9.41631 22.6433 9.41631C22.7935 9.41631 22.918 9.44206 23.0081 9.48927C23.1025 9.53648 23.1755 9.62232 23.2313 9.74678C22.7506 10.0215 22.2699 10.2361 21.7935 10.3906C21.3171 10.5451 20.8235 10.6223 20.3171 10.6223C20.0853 10.588 19.8708 10.5021 19.6733 10.3605C19.4759 10.2189 19.3386 10.0429 19.257 9.82833L19.7806 9.54077C20.0081 9.36052 20.1798 9.14163 20.2999 8.87554C20.4201 8.60944 20.4802 8.33905 20.4802 8.05579C20.4029 7.82833 20.2999 7.63949 20.1712 7.48927C20.0124 7.30472 19.8321 7.19742 19.6261 7.17167C19.3429 7.24034 19.1197 7.44206 18.9566 7.78112C18.948 7.7897 18.845 8.08154 18.639 8.66523C18.5961 8.72532 18.5789 8.79828 18.5789 8.87983C18.5789 8.90558 18.5875 8.97425 18.6047 9.07725C18.6218 9.18026 18.6304 9.25751 18.6304 9.30472C18.6304 9.39485 18.6047 9.45922 18.5532 9.50214C18.5017 9.54506 18.4072 9.55794 18.2699 9.54506C18.1583 9.62661 18.0682 9.66952 17.9909 9.66952C17.9094 9.66952 17.845 9.60086 17.8064 9.46352C17.7034 9.13305 17.6004 8.95279 17.4974 8.91845C17.4029 8.82832 17.2914 8.76395 17.1669 8.72962C17.0424 8.69099 16.8879 8.66094 16.7034 8.6309C16.4502 8.75965 16.257 8.96566 16.1283 9.24034C16.0381 9.43347 15.9652 9.70386 15.9008 10.0558C15.9566 10.2275 16.0553 10.3433 16.1926 10.4077C16.3343 10.4678 16.5102 10.5021 16.7248 10.5021C16.8364 10.5021 16.9909 10.4936 17.1884 10.4721C17.3858 10.4506 17.5231 10.4421 17.6004 10.4421C17.2484 10.7983 16.8622 11.1245 16.4373 11.4163C16.0124 11.7082 15.5746 11.9399 15.1283 12.1116C14.9995 12.1373 14.8622 12.1717 14.7205 12.206C14.5789 12.2403 14.4544 12.2575 14.3429 12.2575C14.2141 12.2575 14.0939 12.2318 13.9823 12.1803C13.8708 12.1288 13.7849 12.0515 13.7162 11.9442C13.6476 11.8369 13.6004 11.7468 13.5789 11.6781C13.5532 11.6051 13.5446 11.5236 13.5446 11.4378C13.5446 11.3262 13.5617 11.2318 13.6004 11.1502C13.639 11.0687 13.7034 10.9785 13.7892 10.8841C13.815 10.8498 14.0725 10.6309 14.5617 10.2232C14.742 10.073 14.8793 9.93133 14.9738 9.80258C15.1025 9.63949 15.1969 9.45493 15.257 9.25321C15.3171 9.0515 15.3429 8.83691 15.3429 8.60944C15.3429 8.38197 15.3257 8.17167 15.2871 7.9485C15.2484 7.72961 15.1669 7.42489 15.0338 7.03004C15.0682 6.98712 15.0982 6.96996 15.1283 6.96996C15.1626 6.96996 15.2098 6.98712 15.2742 7.02146C15.3085 7.02146 15.3343 6.99141 15.3557 6.92704C15.33 6.91845 15.2956 6.91417 15.2527 6.90558C15.2742 6.81116 15.227 6.67382 15.1068 6.49356C14.9566 6.26609 14.8708 6.12875 14.8493 6.08154C14.7678 6.12446 14.6991 6.20601 14.6433 6.33477C14.5875 6.46352 14.5403 6.5794 14.4974 6.69099C14.5403 6.93133 14.6047 7.24034 14.6948 7.61802C14.8793 8.41631 14.9952 8.92704 15.0338 9.1545C14.6562 9.50644 14.2828 9.80257 13.918 10.0515C13.5489 10.3004 13.1411 10.5322 12.6862 10.7511C12.3557 10.9099 12.0038 11.0343 11.6261 11.133C11.2484 11.2275 10.8793 11.279 10.5145 11.279C10.1497 11.279 9.82784 11.2232 9.50595 11.1159C9.18406 11.0043 8.91367 10.8412 8.6905 10.6223C8.55316 10.4592 8.45874 10.2876 8.40724 10.1159C8.35573 9.94421 8.32998 9.74678 8.32998 9.51931C8.32998 9.25322 8.38149 8.92703 8.48449 8.54935C8.51024 8.45493 8.60466 8.14592 8.76346 7.6309C8.51453 8.16738 8.34715 8.55794 8.25702 8.80687C8.08535 9.28755 7.99951 9.71674 7.99951 10.0944C7.99951 10.3476 8.04243 10.588 8.12827 10.8155C8.2141 11.0429 8.34715 11.2489 8.52312 11.4335C8.78492 11.6481 9.06818 11.7983 9.37719 11.8927C9.68621 11.9871 10.0167 12.03 10.3643 12.03C10.8665 12.03 11.3944 11.9399 11.9523 11.7639C12.4244 11.6137 12.8965 11.4077 13.3643 11.1459C13.3042 11.2918 13.2613 11.4292 13.2356 11.5665C13.2098 11.7039 13.2012 11.867 13.2012 12.0515C13.227 12.2661 13.3171 12.4635 13.463 12.6438C13.609 12.824 13.7892 12.9442 13.9952 13C14.4502 13 14.8965 12.9056 15.3343 12.7124C15.7034 12.5494 16.0939 12.309 16.4974 11.9914C16.772 11.7725 17.124 11.4549 17.5575 11.0429C17.6047 10.7597 17.7463 10.5365 17.9781 10.3734C18.1583 10.2489 18.4029 10.1588 18.7205 10.0944C18.7978 10.2876 18.8836 10.4678 18.9866 10.6395C19.0896 10.8112 19.2055 10.9571 19.3386 11.0815C19.669 11.2618 20.0296 11.3476 20.4201 11.3476C20.8536 11.3476 21.3429 11.2361 21.8922 11.0086C22.3042 10.8369 22.7592 10.6051 23.2527 10.309C23.3772 10.0944 23.4716 9.8927 23.5403 9.69957C23.609 9.50644 23.6433 9.30472 23.6433 9.09013C23.6433 8.87554 23.6047 8.70386 23.5317 8.54506L23.5274 8.5236ZM12.2055 6.23605C12.1798 6.33905 12.1283 6.45064 12.0596 6.56652C12.0338 6.61373 11.9609 6.72103 11.845 6.88412C11.8107 6.86266 11.7205 6.82403 11.5789 6.75965C11.3729 6.66953 11.2656 6.57511 11.2613 6.4721L11.6132 5.90558C11.8321 5.99571 12.0338 6.103 12.2098 6.23605H12.2055ZM13.6562 7.8927C13.6304 7.99571 13.6047 8.06438 13.5789 8.103C13.5532 8.14163 13.5145 8.14163 13.4587 8.10729C13.4244 8.08583 13.3987 8.07296 13.3772 8.06008C13.3557 8.0515 13.3343 8.04721 13.3042 8.05579C13.257 8.13734 13.2098 8.26609 13.1712 8.43777C13.0811 8.85837 13.0296 9.08154 13.0167 9.10729C12.8665 8.84549 12.7162 8.58369 12.5617 8.32618C12.5059 8.42919 12.4502 8.45494 12.3858 8.40773C12.3171 8.38198 12.2828 8.33047 12.2828 8.25322C12.2828 8.2103 12.2914 8.16309 12.3085 8.10729C12.3257 8.0515 12.3386 8.01287 12.3429 7.99571C12.4029 7.91845 12.4716 7.8927 12.5403 7.91416C12.7463 8.12017 12.8965 8.36909 12.9952 8.65665C13.0553 8.42918 13.1025 8.25751 13.1283 8.14163C13.1884 7.91416 13.2828 7.80258 13.4072 7.80258C13.4673 7.80258 13.5532 7.83262 13.6562 7.897V7.8927ZM9.66046 6.59657C9.59179 6.86266 9.53599 7.06009 9.49737 7.18455C9.42011 7.41202 9.31711 7.57082 9.17977 7.66953C9.02955 7.69528 8.89651 7.65665 8.78921 7.54506C8.67333 7.2618 8.61325 6.96996 8.61325 6.66094C8.61325 6.2618 8.70767 5.82832 8.9008 5.3648C9.02526 5.06438 9.23127 4.66953 9.51882 4.18026C9.47591 4.32618 9.39007 4.56223 9.26131 4.89271C9.05531 5.4206 8.9523 5.82833 8.9523 6.12017C8.9523 6.38627 9.01239 6.63519 9.13685 6.86266C9.17119 6.91845 9.2184 6.94421 9.28277 6.94421C9.32998 6.94421 9.37719 6.93133 9.42011 6.90129C9.46303 6.87553 9.50166 6.81974 9.5317 6.7382C9.56174 6.65665 9.60466 6.60944 9.66046 6.60515V6.59657ZM10.6476 8.87124C10.6605 8.95279 10.6476 9.04291 10.5961 9.13304C10.5489 9.22746 10.5102 9.29614 10.4845 9.34335C10.4502 9.37768 10.4072 9.39485 10.36 9.39485C10.3128 9.39485 10.2785 9.37768 10.257 9.34335C10.1798 9.22747 10.1454 9.103 10.1454 8.97425C10.1454 8.84978 10.1841 8.70815 10.257 8.54506C10.3343 8.38197 10.4029 8.23176 10.4716 8.08584C10.4802 8.15451 10.463 8.24464 10.4201 8.35193C10.3085 8.63519 10.257 8.79828 10.257 8.84549C10.257 8.8927 10.2656 8.93992 10.2871 8.99142C10.3085 9.03863 10.3686 9.08584 10.4716 9.12446C10.4931 9.10301 10.5145 9.05579 10.5446 8.98712C10.5703 8.91416 10.6047 8.87554 10.6476 8.86695V8.87124ZM30.2699 5.92703C30.1926 5.88412 30.1326 5.84978 30.0811 5.81545C30.0296 5.78111 29.9823 5.7382 29.9437 5.6824C29.9995 5.63948 30.0553 5.62232 30.1068 5.62232C30.2441 5.62232 30.2999 5.69957 30.2699 5.84978V5.93133V5.92703ZM30.6819 9.92275C30.6819 9.98283 30.6476 10.0343 30.5789 10.0773C30.5446 10.0987 30.4845 10.133 30.4029 10.1803C30.3772 10.1931 30.33 10.2017 30.2699 10.2017C30.2012 10.2017 30.1326 10.1845 30.0682 10.1545C30.0038 10.1245 29.9394 10.0815 29.8793 10.0257C29.8193 9.98283 29.772 9.93562 29.742 9.87554C29.712 9.81545 29.6862 9.75965 29.6647 9.70386C29.712 9.69528 29.7935 9.6824 29.9137 9.65665C30.0296 9.6309 30.1283 9.62231 30.2012 9.62231C30.3171 9.62231 30.4158 9.64377 30.5017 9.69098C30.5832 9.7339 30.6476 9.81116 30.6862 9.92275H30.6819ZM29.0853 11.4678C29.0596 11.4206 29.0253 11.3863 28.9909 11.3648C28.9566 11.3305 28.9094 11.3219 28.845 11.3348C28.8321 11.3777 28.8622 11.4077 28.9437 11.4292C29.021 11.4506 29.0682 11.4635 29.0811 11.4721L29.0853 11.4678ZM18.1368 4.00859C18.0768 3.99571 18.0167 3.96566 17.9652 3.92274C17.9137 3.87983 17.8665 3.83262 17.8278 3.78541C17.8708 3.70816 17.9265 3.67382 18.0038 3.67382C18.0725 3.67382 18.1154 3.71245 18.1368 3.78541V4.01288V4.00859ZM22.7635 8.65236C22.7205 8.66094 22.6562 8.66953 22.566 8.67811C22.4759 8.68669 22.3987 8.69528 22.33 8.69528C22.1841 8.69528 22.0467 8.67382 21.9094 8.63519C21.772 8.59228 21.6605 8.5279 21.5789 8.43777C21.566 8.39485 21.5575 8.3648 21.5575 8.34335C21.5575 8.30043 21.5789 8.25751 21.6261 8.20601C21.669 8.15451 21.7506 8.12875 21.8665 8.12875C21.9137 8.12875 21.9781 8.13734 22.0639 8.15021C22.3257 8.24034 22.5575 8.40772 22.7635 8.65665V8.65236ZM20.0553 8.77683C19.9437 8.85837 19.8235 8.93562 19.6862 9.00429C19.5489 9.07296 19.3343 9.16738 19.0467 9.28326C19.0124 9.08584 18.9909 8.94849 18.9781 8.87124C18.9695 8.79399 18.9609 8.6867 18.9609 8.54077C18.9609 8.44635 18.9695 8.35193 18.9823 8.2618C18.9952 8.17167 19.0167 8.09871 19.0424 8.03433C19.0896 7.98712 19.1368 7.95279 19.1798 7.93562C19.2227 7.91845 19.2742 7.90987 19.33 7.90987C19.5231 7.93562 19.6862 8.04721 19.8235 8.24035C19.9351 8.39056 20.0081 8.57082 20.051 8.77683H20.0553ZM17.2313 9.70386C17.1626 9.70386 17.051 9.70386 16.8922 9.71245C16.742 9.71245 16.6132 9.69528 16.5059 9.66523C16.3987 9.63519 16.3171 9.57081 16.2527 9.47639C16.2999 9.38626 16.3815 9.34335 16.5017 9.34335C16.5446 9.34335 16.5961 9.35193 16.6562 9.36481C16.7162 9.37768 16.7678 9.39055 16.8021 9.39485C16.8793 9.43776 16.9566 9.48069 17.0424 9.5279C17.1283 9.57511 17.1926 9.63519 17.2313 9.70386Z" fill="currentColor"/>
</svg>
