<svg width="40" height="16" viewBox="0 0 40 16" fill="none" xmlns="http://www.w3.org/2000/svg">
<path fill-rule="evenodd" clip-rule="evenodd" d="M22.607 4.37072C22.581 4.45379 22.5499 4.53687 22.5239 4.61994C22.498 4.70301 22.446 4.76012 22.3785 4.79647C22.3162 4.81724 22.2643 4.81205 22.2176 4.78089C22.1708 4.74974 22.1293 4.70301 22.0878 4.64071C22.0878 4.42783 22.1189 4.22015 22.1812 4.02285C22.2435 3.82555 22.337 3.62824 22.4616 3.42575C22.4564 3.49325 22.4149 3.61786 22.3474 3.79959C22.2799 3.98131 22.2435 4.11631 22.2435 4.21496C22.2435 4.29284 22.2539 4.35514 22.2695 4.40187C22.2851 4.4486 22.3214 4.50052 22.3785 4.55763C22.4253 4.55763 22.4772 4.52129 22.5239 4.45379C22.5499 4.41225 22.581 4.38629 22.607 4.37072ZM20.3744 3.83074C20.3744 3.97092 20.3225 4.10592 20.2134 4.23572C20.1044 4.36553 19.9798 4.46418 19.8344 4.52648C19.6475 4.56283 19.5281 4.50052 19.471 4.33956C19.471 4.17861 19.5125 4.00208 19.5956 3.80997C19.6371 3.71132 19.7254 3.55556 19.8552 3.33229C19.8552 3.38941 19.8084 3.52959 19.7202 3.75805C19.6786 3.86189 19.6579 3.95016 19.6579 4.01765C19.6579 4.12669 19.715 4.21495 19.824 4.27726C19.9071 4.26168 19.9798 4.24611 20.0369 4.22014C20.094 4.19418 20.1511 4.14746 20.1978 4.07996C20.1927 4.01765 20.1252 3.93977 20.0057 3.84632C19.8863 3.75286 19.824 3.68536 19.824 3.64382C19.824 3.59709 19.8759 3.53479 19.9798 3.46729C20.0577 3.50364 20.1304 3.55036 20.2082 3.61786C20.2861 3.68536 20.338 3.75285 20.3744 3.83074ZM20.8936 5.64797L20.4678 6.22949C20.3692 6.19315 20.2705 6.15161 20.1719 6.09969C20.0732 6.04777 19.9746 5.99585 19.8863 5.93873C19.9434 5.83489 20.0005 5.73105 20.068 5.62202C20.1355 5.51298 20.2134 5.41952 20.3121 5.33645C20.473 5.38318 20.5717 5.41952 20.6132 5.44029C20.7223 5.48702 20.8157 5.55971 20.8936 5.64797ZM21.5686 6.36449L20.9663 6.0945L20.4678 6.53063L19.7825 6.18795C19.6734 6.26584 19.58 6.35929 19.5021 6.46833C19.4606 6.53063 19.3983 6.65005 19.3152 6.82139C19.4242 6.8837 19.5436 6.946 19.6683 7.00831C19.7929 7.07061 19.9071 7.10177 20.0109 7.10177C20.0888 7.03946 20.1615 6.96158 20.2394 6.87331C20.3484 6.74351 20.4211 6.66044 20.4471 6.62409C20.5146 6.70197 20.634 6.76947 20.8001 6.83178C20.9663 6.89408 21.0753 6.94081 21.122 6.97716L21.5686 6.36449ZM26.013 11.92C25.9351 12.0498 25.8365 12.1693 25.7119 12.2731C25.5873 12.3769 25.4419 12.46 25.2757 12.5223C25.1096 12.5846 24.9071 12.6158 24.6631 12.6158C24.5333 12.6158 24.4346 12.6106 24.3723 12.595C24.2685 12.5483 24.2165 12.4704 24.2165 12.3666C24.2165 12.325 24.2373 12.2731 24.284 12.2056C24.3308 12.1381 24.3931 12.0758 24.4813 12.0083C24.5696 11.9408 24.6683 11.8785 24.7773 11.8162C24.7306 11.7279 24.6423 11.6812 24.5177 11.6812C24.4606 11.6812 24.4138 11.6916 24.3723 11.7124L24.3308 11.7643L24.2788 11.7124C24.3827 11.5877 24.4554 11.5099 24.5021 11.4839C24.5488 11.4579 24.6008 11.4424 24.6631 11.4424C24.7306 11.4424 24.7929 11.4579 24.85 11.4839C24.9071 11.5099 24.9746 11.5618 25.0577 11.6293C25.0317 11.7539 24.9434 11.8681 24.7981 11.972C24.6734 12.0498 24.5488 12.1277 24.4242 12.2108C24.5229 12.3302 24.6579 12.3873 24.8292 12.3873C24.9486 12.3873 25.0888 12.3614 25.255 12.3043C25.5042 12.2212 25.6444 12.1745 25.6807 12.1693L26.013 11.92ZM27.7264 4.973C27.6433 4.7082 27.5654 4.46418 27.4876 4.23572C27.3214 3.73209 27.1708 3.3323 27.041 3.04154C27.0151 3.08827 26.958 3.17134 26.8749 3.28037C26.7659 3.44652 26.7088 3.58671 26.7088 3.70613C26.7088 3.73209 26.7139 3.78401 26.7295 3.85151L27.1553 8.25441L27.1864 8.99169C26.6309 8.9242 26.1947 8.8515 25.8676 8.78401C25.4159 8.69574 25.0005 8.57632 24.6215 8.43094C24.7254 8.1973 24.7773 7.92212 24.7773 7.61059C24.7773 7.53271 24.7773 7.46521 24.7773 7.4081C24.7773 7.35099 24.7617 7.24715 24.7409 7.10696C24.7202 6.96677 24.6734 6.71755 24.6008 6.36449C24.5281 6.01142 24.4917 5.75182 24.4917 5.58567C24.5956 5.52856 24.8292 5.42991 25.1978 5.28453C25.7119 5.08204 26.0545 4.85877 26.2259 4.60955C25.9196 4.74974 25.608 4.88993 25.2809 5.0405C24.9538 5.19107 24.6734 5.3001 24.4294 5.37799C24.4035 5.25857 24.3775 5.13396 24.3515 5.00415C24.3256 4.87435 24.3152 4.75493 24.3152 4.65109C24.3152 4.5109 24.336 4.40187 24.3775 4.3188C24.4138 4.34476 24.471 4.42264 24.554 4.54725C24.6163 4.6459 24.6838 4.70301 24.7617 4.72378C24.7617 4.47975 24.6734 4.18899 24.4917 3.84112C24.2373 3.34787 24.0919 3.0675 24.066 3C23.9621 3.08827 23.8791 3.20249 23.8116 3.33229C23.7441 3.4621 23.7129 3.59709 23.7129 3.73728C23.8116 4.34475 23.905 4.95743 24.0037 5.5649C23.9621 5.59086 23.7337 5.6947 23.3183 5.87643C23.0431 5.99585 22.8718 6.15161 22.8095 6.34372C23.0016 6.23468 23.2041 6.13604 23.417 6.05296C23.6298 5.96989 23.8323 5.88681 24.0348 5.80374C24.1023 6.18276 24.1802 6.57736 24.2581 6.98754C24.336 7.39772 24.3775 7.75597 24.3775 8.0675C24.2165 8.0675 23.8271 8.08307 23.2041 8.11942C22.9549 8.13499 22.7264 8.14019 22.5187 8.14019L22.2487 8.81516C22.5239 8.86189 22.9289 8.93977 23.4637 9.03842C23.9985 9.13707 24.4294 9.2461 24.7617 9.35514C24.3463 9.52129 23.9362 9.68224 23.526 9.8432C23.0068 10.0457 22.5706 10.1443 22.2176 10.1443C22.0099 10.1443 21.8074 10.1132 21.6101 10.0457C21.4128 9.97819 21.2259 9.87954 21.0545 9.73936C21.039 9.69782 21.0494 9.63551 21.0753 9.55244C21.1013 9.46937 21.1117 9.41225 21.0961 9.37591C21.0338 9.41744 20.987 9.46937 20.9611 9.53687C20.9351 9.60436 20.8988 9.68225 20.8572 9.7809C20.7949 9.90551 20.7067 9.99377 20.5976 10.0457C20.4886 10.0976 20.3588 10.1236 20.2134 10.1236C20.1355 10.1236 20.0732 10.1236 20.0213 10.108C19.9694 10.0976 19.9175 10.0665 19.8656 10.0197C19.8136 9.973 19.7669 9.9107 19.7254 9.83282C19.7513 9.7082 19.7669 9.62513 19.7669 9.5784C19.7669 9.53167 19.7565 9.5109 19.7358 9.5109C19.5488 9.69263 19.3671 9.86916 19.1854 10.0509C18.9985 10.217 18.8323 10.3001 18.6869 10.3001C18.5987 10.3001 18.5156 10.2741 18.4481 10.2274C18.365 10.2015 18.282 10.1391 18.2041 10.0457C18.1262 9.95223 18.0691 9.86397 18.0431 9.7809C17.9756 9.66148 17.8874 9.56802 17.7783 9.50052C17.6693 9.43302 17.5603 9.39668 17.4408 9.39668C17.041 9.43302 16.6464 9.56802 16.257 9.80166C15.987 9.96781 15.6548 10.2378 15.2602 10.6116C15.0473 10.8141 14.7254 11.1205 14.3048 11.5358C13.9258 11.8889 13.5935 12.1537 13.3079 12.325C13.2197 12.351 13.1106 12.3666 12.986 12.3666C12.8614 12.3666 12.742 12.3458 12.6329 12.2991C12.5239 12.2523 12.4305 12.19 12.363 12.107C12.2591 11.9252 12.2072 11.7331 12.2072 11.5254C12.2072 11.3593 12.2487 11.1724 12.3266 10.9595C12.4045 10.7466 12.5551 10.4766 12.7679 10.1443C12.5395 10.4299 12.3682 10.6843 12.2487 10.9128C12.0826 11.2295 11.9995 11.5358 11.9995 11.8266C11.9995 11.972 12.0203 12.1225 12.0618 12.2835C12.1189 12.4341 12.2228 12.5742 12.3837 12.6937C12.5447 12.8131 12.7056 12.891 12.8718 12.9273C13.1625 12.8702 13.4429 12.7612 13.7077 12.5898C13.9725 12.4185 14.3515 12.0862 14.8448 11.5877C15.2602 11.1568 15.5665 10.866 15.7586 10.7155C16.1065 10.4403 16.4543 10.2638 16.8074 10.1859C16.9112 10.1392 17.0099 10.1132 17.1085 10.1132C17.2747 10.1132 17.4668 10.2482 17.6797 10.5182C17.8926 10.7882 18.0795 10.9491 18.23 10.9958C18.3079 11.0166 18.3702 11.027 18.4273 11.027C18.6143 11.027 18.796 10.9387 18.9777 10.7674C19.1179 10.6168 19.2529 10.4611 19.3931 10.3001C19.4086 10.4299 19.4346 10.5389 19.4761 10.6168C19.5177 10.6947 19.5852 10.7622 19.6838 10.8193C19.7721 10.8453 19.8759 10.8609 19.985 10.8609C20.0109 10.8609 20.0577 10.8609 20.12 10.8557C20.1823 10.8557 20.2394 10.8453 20.2861 10.8401C20.4471 10.8141 20.5717 10.7103 20.6599 10.5286C20.7067 10.4299 20.7794 10.2793 20.878 10.0717C21.0649 10.3053 21.2363 10.4818 21.3868 10.5909C21.6101 10.7518 21.8386 10.8297 22.0826 10.8297H22.1449C22.1708 10.8297 22.202 10.8297 22.228 10.8193C22.5758 10.7622 22.96 10.6584 23.3858 10.5026C23.8116 10.3468 24.2165 10.1963 24.6059 10.0509C25.1823 9.83801 25.8001 9.72897 26.4647 9.72897C26.688 9.72897 26.9164 9.73936 27.1605 9.76013C27.2072 9.88474 27.2332 10.0249 27.2332 10.1859C27.2332 10.3261 27.2124 10.4766 27.176 10.6376C27.1397 10.7985 27.093 10.9595 27.0359 11.1101C27.1968 10.8557 27.3526 10.4299 27.5031 9.83282C27.6122 9.40187 27.6849 9.14226 27.7108 9.04361H27.5966L27.2643 4.68224L27.3474 4.56802C27.3889 4.61475 27.446 4.68744 27.5239 4.78089C27.6018 4.87435 27.6693 4.93666 27.7316 4.973H27.7264ZM16.418 3.85151C16.4128 3.919 16.3972 3.98131 16.3816 4.02804C16.3661 4.07477 16.3297 4.10592 16.283 4.1215C16.2363 4.00208 16.1376 3.92939 15.9922 3.89304C15.9715 3.97612 15.9455 4.19938 15.9196 4.55763C15.8936 4.91589 15.8105 5.15992 15.6807 5.28453C15.5769 5.09242 15.4782 4.89512 15.3796 4.70301C15.2394 4.49013 15.0577 4.39149 14.8292 4.41225C14.8032 4.36552 14.7877 4.3136 14.7877 4.25649C14.7877 4.19418 14.8032 4.13188 14.8292 4.06438C14.8552 3.99689 14.8967 3.92939 14.9434 3.85151C15.1459 3.90862 15.3121 4.05919 15.4523 4.30841C15.5561 4.52129 15.6599 4.73936 15.7638 4.95223C15.769 4.92627 15.7897 4.72897 15.8157 4.36033C15.8417 3.99169 15.9144 3.74247 16.0338 3.60229C16.2155 3.63863 16.3401 3.7217 16.418 3.85151ZM18.0172 7.20561C17.9912 7.30426 17.9652 7.39771 17.9445 7.48598C17.9029 7.61059 17.8354 7.68847 17.7472 7.71443C17.6849 7.71963 17.6329 7.69886 17.5914 7.65213C17.5499 7.6054 17.5187 7.56386 17.498 7.5379C17.498 7.23157 17.5551 6.8785 17.6745 6.46833C17.7368 6.26584 17.7991 6.06334 17.8614 5.85566C17.877 5.98546 17.8406 6.19315 17.7576 6.46833C17.6745 6.74351 17.6329 6.93043 17.6329 7.02908C17.6329 7.12773 17.6485 7.20561 17.6797 7.26791C17.7108 7.33022 17.7731 7.38733 17.8614 7.44445C17.8874 7.38214 17.9133 7.33022 17.9341 7.28868C17.9549 7.24715 17.9808 7.22118 18.0172 7.20561ZM16.2415 5.74143C16.1844 5.892 15.9922 5.99065 15.6599 6.027C15.3277 6.06334 15.1044 6.1568 14.9954 6.30218C15.1148 6.77985 15.2342 7.25753 15.3588 7.7352C15.3951 7.94289 15.4107 8.13499 15.4107 8.30633C15.4107 8.46729 15.3951 8.61786 15.3692 8.76324C15.3432 8.90862 15.2913 9.054 15.2238 9.19938C15.2498 9.11111 15.2705 9.02804 15.2757 8.95015C15.2809 8.87227 15.2861 8.77881 15.2861 8.66978C15.2861 8.51921 15.2757 8.36345 15.2498 8.21288C15.2238 8.06231 15.1875 7.89616 15.1407 7.72482C15.0629 7.43406 15.0109 7.19522 14.9746 7.00831C14.9175 6.72274 14.8915 6.4839 14.8915 6.28141C14.9382 6.0945 15.0992 5.95431 15.3692 5.85566C15.499 5.81412 15.634 5.76739 15.7638 5.72066C15.7067 5.6947 15.6548 5.66355 15.5976 5.63759C15.5405 5.61163 15.4834 5.59605 15.4211 5.59605C15.3796 5.59605 15.338 5.60644 15.2965 5.62721C15.2809 5.64798 15.2653 5.66874 15.2394 5.68432C15.2134 5.69989 15.1823 5.72066 15.1407 5.74143C15.1407 5.66355 15.1667 5.58567 15.2238 5.50779C15.2809 5.42991 15.3328 5.38318 15.39 5.3676C15.4471 5.35203 15.499 5.34683 15.5561 5.34683C15.6755 5.34683 15.7949 5.39356 15.9196 5.48183C16.0234 5.57009 16.1324 5.65836 16.2415 5.74143ZM20.8728 11.4216C20.8728 11.6345 20.7742 11.8058 20.5717 11.9304C20.5509 11.9252 20.5146 11.92 20.4678 11.92C20.4211 11.92 20.2965 11.9668 20.1044 12.055C20.0161 12.0966 19.9434 12.1173 19.8863 12.1173C19.8396 12.1173 19.8084 12.1173 19.7929 12.107C19.7358 12.081 19.6838 12.0187 19.6267 11.9304C19.4761 11.9564 19.3152 12.0135 19.149 12.0966C19.1075 12.1173 18.8635 12.2679 18.4118 12.5535C18.1989 12.6989 18.0224 12.8027 17.8822 12.865C17.6797 12.9533 17.4824 13 17.2799 13C17.2176 12.9948 17.1709 12.9896 17.1449 12.9896C17.3526 12.9325 17.5603 12.8546 17.7679 12.7508C17.9133 12.6729 18.1054 12.5587 18.3443 12.4029C18.5831 12.2471 18.796 12.1173 18.9777 12.0083C19.1594 11.8993 19.3619 11.8006 19.5852 11.702C19.6111 11.6864 19.6475 11.6812 19.689 11.6812C19.7461 11.6812 19.824 11.7279 19.9279 11.8162C19.985 11.8629 20.0317 11.8889 20.0732 11.8889C20.12 11.8889 20.1719 11.8629 20.229 11.8162C20.2653 11.7487 20.2965 11.6864 20.3277 11.6345C20.3588 11.5826 20.4003 11.541 20.4471 11.5151L20.4678 11.702C20.5509 11.7435 20.6288 11.7279 20.6963 11.6501C20.7534 11.5722 20.8105 11.4995 20.8728 11.4216ZM13.5935 8.92939C13.5468 9.13707 13.5 9.34476 13.4585 9.55244C13.391 9.78609 13.282 9.973 13.1366 10.1028C13.0535 10.1184 12.9756 10.1132 12.8977 10.0872C12.8199 10.0613 12.7472 10.0145 12.6693 9.94704C12.5603 9.69782 12.5031 9.43302 12.5031 9.14746C12.5031 8.79959 12.581 8.43095 12.742 8.03635C12.8251 7.82347 12.9964 7.49117 13.2508 7.04985C13.1522 7.29907 13.0535 7.56386 12.9497 7.84424C12.8458 8.12461 12.7939 8.37902 12.7939 8.60748C12.7939 8.7892 12.8302 8.96573 12.8977 9.14746C12.9808 9.23572 13.0379 9.29284 13.0691 9.3136C13.1002 9.33437 13.1418 9.34476 13.1989 9.34476C13.2352 9.34476 13.2716 9.32918 13.3131 9.29803C13.3547 9.26688 13.4066 9.20457 13.4637 9.10592C13.5208 9.00727 13.5675 8.95015 13.5935 8.92939Z" fill="currentColor"/>
</svg>
