<svg width="40" height="16" viewBox="0 0 40 16" fill="none" xmlns="http://www.w3.org/2000/svg">
<path fill-rule="evenodd" clip-rule="evenodd" d="M24.2886 3.21413C24.2297 3.31585 24.1922 3.38008 24.1708 3.40685C24.1119 3.47644 24.0477 3.51927 23.9674 3.52463L19.4813 5.03426C19.5081 4.84154 19.6205 4.71841 19.8132 4.67023C20.3967 4.49358 20.9588 4.31156 21.4942 4.1349C23.2019 3.5728 24.1333 3.26231 24.2886 3.21413ZM23.2929 5.85867L23.25 6.09422C23.2126 6.09957 23.1697 6.09422 23.1216 6.08351C22.9984 6.04604 22.9342 6.02998 22.9181 6.02998C22.8753 6.02998 22.8432 6.03533 22.8218 6.05139C22.7522 6.15846 22.704 6.33512 22.6772 6.58137C22.6505 6.82762 22.613 7.00428 22.5648 7.11135C22.5059 7.05246 22.3989 6.88116 22.2436 6.59743C22.1633 6.45289 22.0884 6.34582 22.0188 6.26552C22.0188 6.32441 21.992 6.34582 21.9385 6.32977C21.885 6.31371 21.8314 6.303 21.7832 6.28694C21.719 6.24946 21.6869 6.20664 21.6869 6.15846C21.7458 6.02463 21.7725 5.92291 21.7725 5.85867C21.81 5.78908 21.8582 5.75161 21.9224 5.75161C21.9599 5.75161 21.9867 5.76766 22.0081 5.80514C22.1205 5.90685 22.2276 6.04604 22.3186 6.23341C22.4631 6.51713 22.5434 6.67773 22.5648 6.7045C22.6077 6.49036 22.6505 6.27088 22.6933 6.05139C22.7415 5.9015 22.8164 5.78908 22.9181 5.70878C22.9877 5.68736 23.0573 5.69807 23.1162 5.7409C23.1751 5.78373 23.234 5.8212 23.2929 5.85867ZM29.6205 5.23769C29.3475 4.49358 29.0798 3.74946 28.8068 3C28.6944 3.06424 28.6034 3.17131 28.5391 3.3212C28.4909 3.46574 28.4428 3.60493 28.3999 3.73876C28.507 4.60064 28.6194 5.5 28.7318 6.43148C28.8443 7.36295 28.9032 8.18737 28.9032 8.91006C28.4321 8.91006 27.8164 8.80835 27.0509 8.61028C26.4888 8.46039 26.1248 8.36938 25.9588 8.33191C26.0391 8.11777 26.0766 7.87687 26.0766 7.61456C25.9267 6.88651 25.7822 6.15846 25.6376 5.43041C25.6323 5.38758 25.6055 5.30193 25.568 5.17345C25.5306 5.04497 25.5091 4.94861 25.5091 4.88437C25.5091 4.79872 25.5359 4.71841 25.5841 4.64882L26.0445 5.10921C25.9642 4.76659 25.8464 4.41328 25.6912 4.04925C25.5359 3.68522 25.3539 3.33726 25.1558 3C25.0541 3.0803 24.9738 3.18201 24.9149 3.30514C24.856 3.42827 24.8132 3.57281 24.7918 3.73876C24.8293 3.95824 25.022 4.8576 25.3807 6.42613C25.5091 7.00428 25.6109 7.53426 25.6805 8.01071C25.3539 8.04818 25.0916 8.06959 24.8989 8.0803C24.7062 8.09101 24.385 8.09636 23.9353 8.09636C23.8443 8.21948 23.7693 8.34797 23.7158 8.49251C23.6623 8.63705 23.6355 8.77623 23.6355 8.91006C24.1012 8.91006 24.5348 8.94219 24.9417 9.01178C25.3485 9.08137 25.7715 9.18308 26.2051 9.31692C25.7768 9.51499 25.4021 9.67559 25.0809 9.79871C24.6687 9.95396 24.2565 10.0878 23.855 10.2002C23.4535 10.3126 23.0573 10.3929 22.6719 10.4518C22.2865 10.5107 21.8635 10.5375 21.3978 10.5375C20.7982 10.5375 20.3057 10.3769 19.9203 10.0557C19.6205 9.80407 19.3528 9.41328 19.1173 8.87795C18.9299 8.39079 18.7479 7.90899 18.5712 7.42184C18.3518 6.84368 18.1162 6.41006 17.8753 6.11563C17.7682 6.28158 17.7147 6.45824 17.7147 6.65096C17.7147 6.7955 17.7415 6.93469 17.7897 7.07388C17.8378 7.21306 17.9128 7.36831 18.0091 7.53962C18.1055 7.71092 18.2072 7.88223 18.3143 8.05353C18.5231 8.4015 18.6408 8.70129 18.6676 8.95289C18.4374 9.50428 18.0466 9.94326 17.4899 10.2698C17.0134 10.5535 16.4513 10.7355 15.8089 10.8051C15.643 10.7034 15.5627 10.5642 15.5627 10.3769C15.6483 10.0396 15.734 9.70771 15.8196 9.37045H15.7554C15.6216 9.61135 15.5145 9.8469 15.4449 10.0771C15.3753 10.3073 15.3378 10.5428 15.3378 10.7944C15.3378 11.0782 15.3967 11.3405 15.5199 11.576C15.6269 11.6242 15.7554 11.651 15.9053 11.651C16.0177 11.651 16.1194 11.651 16.1997 11.6349C16.28 11.6242 16.3924 11.5974 16.5263 11.5546C17.1687 11.2923 17.6558 11.0139 17.9931 10.7302C18.4856 10.318 18.7318 9.83619 18.7318 9.2955C18.8443 9.54711 18.962 9.79336 19.0852 10.0343C19.2351 10.334 19.401 10.5642 19.5777 10.7195C19.8079 10.9604 20.0809 11.1317 20.4021 11.2334C20.7233 11.3351 21.082 11.3833 21.4727 11.3833C21.6922 11.3833 21.8957 11.3726 22.0723 11.3565C22.249 11.3405 22.4738 11.3084 22.7468 11.2655C23.1483 11.2013 23.5231 11.1103 23.871 10.9979C23.9299 10.9764 24.5081 10.7463 25.6162 10.3019C26.1034 10.1092 26.5905 9.95931 27.0884 9.8576C27.5862 9.75589 28.1055 9.70235 28.6462 9.70235C28.6837 9.66488 28.7211 9.59529 28.7693 9.48287C28.8175 9.37045 28.8764 9.31156 28.946 9.2955C28.946 9.32227 28.9513 9.38116 28.9674 9.46681V9.71306C28.962 9.88437 28.9567 10.0503 28.9567 10.2163V10.6981C28.9567 10.9497 28.962 11.0835 28.9781 11.1049C29.0798 11.0621 29.1548 10.9443 29.2029 10.7516C29.2244 10.682 29.2565 10.5 29.2993 10.2056C29.3421 9.91113 29.3635 9.57923 29.3635 9.19914C29.3635 8.7227 29.3047 8.02676 29.1922 7.12205C29.0798 6.21734 29.0209 5.53747 29.0209 5.0878C29.0049 5.0075 29.0209 4.93255 29.0477 4.86295C29.0798 4.79336 29.1226 4.72912 29.1708 4.67023C29.2136 4.72912 29.2618 4.80407 29.3207 4.90578C29.4117 5.07709 29.5134 5.18951 29.6205 5.23769ZM27.704 11.8865C27.5595 12.1167 27.3453 12.2987 27.0509 12.4325C26.81 12.545 26.5263 12.6306 26.2051 12.6788C26.1034 12.6574 26.007 12.636 25.9053 12.6146C25.7929 12.5771 25.7179 12.5128 25.6805 12.4218C25.7019 12.2666 25.7768 12.1167 25.9053 11.9722C26.007 11.8597 26.1408 11.7473 26.3121 11.6403C26.2479 11.6135 26.1997 11.5921 26.173 11.576C26.082 11.5385 25.9802 11.5225 25.8732 11.5225C25.8518 11.4797 25.8518 11.4422 25.8732 11.4154C25.9642 11.3512 26.0231 11.303 26.0445 11.2655C26.1301 11.2655 26.2211 11.2816 26.3175 11.3191C26.4139 11.3565 26.4888 11.3833 26.5477 11.4047C26.5852 11.5492 26.4888 11.6938 26.2693 11.849C26.0498 12.0043 25.9374 12.106 25.9374 12.1649C25.9374 12.2291 26.007 12.2987 26.1408 12.3683C26.189 12.3737 26.264 12.379 26.355 12.379C26.5852 12.379 26.8154 12.3362 27.0456 12.2452C27.2757 12.1542 27.4952 12.0364 27.704 11.8865ZM20.7875 7.30407C20.7875 7.45932 20.7822 7.57709 20.7661 7.65204C20.75 7.72698 20.7072 7.79122 20.6269 7.85011C20.5413 7.85011 20.4663 7.81799 20.4021 7.75375C20.3378 7.68951 20.3057 7.61992 20.3057 7.53962C20.3057 7.39508 20.3432 7.22912 20.4181 7.03105C20.4931 6.83298 20.5359 6.72591 20.5413 6.7045C20.5627 6.76338 20.5573 6.83833 20.5306 6.94004C20.5038 7.04176 20.4717 7.14882 20.4449 7.27195C20.4449 7.38437 20.5038 7.47538 20.6162 7.53962C20.6537 7.53426 20.6751 7.49144 20.6912 7.42184C20.7072 7.35225 20.7393 7.30942 20.7875 7.30407ZM16.6869 4.46681C16.7297 4.50963 16.7297 4.56852 16.6869 4.64882C16.6494 4.72912 16.6173 4.79336 16.5959 4.8469C16.5745 4.90043 16.5423 4.9379 16.4942 4.95931C16.446 4.98073 16.3978 4.97537 16.3496 4.94861C16.2854 4.84154 16.2533 4.70771 16.2533 4.55246C16.2533 4.42398 16.2961 4.23662 16.3764 3.99572C16.4567 3.75482 16.5049 3.60493 16.5209 3.55675C16.4781 3.80835 16.4406 4.0546 16.4032 4.2955C16.4032 4.46681 16.4513 4.58458 16.553 4.64882L16.6815 4.46681H16.6869ZM15.2094 3.36403C15.1879 3.44433 15.1719 3.50857 15.1558 3.55675C15.1398 3.60493 15.1023 3.61028 15.0381 3.56745C14.9738 3.52998 14.9203 3.50856 14.8828 3.50321C14.8453 3.49786 14.8079 3.50321 14.7704 3.52463C14.6847 3.63704 14.6312 3.83512 14.6098 4.11884C14.5884 4.40257 14.5456 4.60064 14.4813 4.72377C14.3957 4.65418 14.31 4.50428 14.2244 4.27944C14.1387 4.0546 14.0584 3.89936 13.9781 3.8137C13.9835 3.90471 13.9513 3.95289 13.871 3.95289C13.8336 3.95289 13.7907 3.94754 13.7318 3.93148C13.6623 3.88865 13.6248 3.82976 13.6248 3.76017C13.6248 3.71199 13.6462 3.63704 13.6837 3.54068C13.7211 3.44432 13.7479 3.38544 13.7533 3.36403L13.871 3.25696C13.9835 3.34261 14.0798 3.45503 14.1601 3.58886C14.2672 3.81906 14.3742 4.0439 14.4813 4.26338C14.5188 3.97966 14.5456 3.78694 14.567 3.69593C14.6151 3.48715 14.7115 3.32655 14.8453 3.21413C15.0113 3.17666 15.1291 3.23019 15.2094 3.36403ZM16.5798 6.59743C16.6066 6.6242 16.6066 6.67238 16.5798 6.73126C16.5477 6.79015 16.5316 6.83833 16.5316 6.8651C16.3014 6.82227 16.1783 6.97752 16.1515 7.33619C16.1248 7.69486 16.0766 7.90364 15.9963 7.96788C15.9695 7.93041 15.9053 7.80193 15.8036 7.58244C15.734 7.41649 15.6537 7.34154 15.568 7.3469H15.3432C15.2629 7.33084 15.2094 7.29336 15.1826 7.22912C15.1987 7.13812 15.2147 7.0364 15.2308 6.93469C15.2468 6.83298 15.295 6.75268 15.3753 6.7045C15.5466 6.72591 15.6805 6.83297 15.7822 7.02569C15.8625 7.19165 15.9374 7.35225 16.0177 7.50749C16.0391 7.33619 16.0659 7.15953 16.098 6.97752C16.1301 6.7955 16.1997 6.64561 16.3068 6.52249C16.3978 6.51713 16.4942 6.53854 16.5852 6.59743H16.5798ZM18.9246 12.0471C18.9246 12.2452 18.871 12.4272 18.764 12.5931C18.6837 12.6199 18.6141 12.6199 18.5445 12.5824C18.4749 12.545 18.4267 12.4914 18.3999 12.4218C18.3999 12.2345 18.4481 12.015 18.5391 11.758C18.673 11.3779 18.7479 11.1638 18.764 11.1156C18.7693 11.1424 18.7747 11.1852 18.7747 11.2334C18.7747 11.3191 18.7426 11.4529 18.6783 11.6296C18.6141 11.8062 18.582 11.9347 18.582 12.015C18.582 12.1435 18.6301 12.2452 18.7318 12.3148C18.7693 12.2987 18.8014 12.2559 18.8336 12.1809C18.8657 12.106 18.8978 12.0632 18.9246 12.0471ZM9.93099 4.59529C9.9524 4.82548 9.89887 4.99679 9.77039 5.10921C9.7008 5.10921 9.6312 5.08779 9.57232 5.05032C9.51343 5.01285 9.48131 4.95396 9.48131 4.88437C9.47596 4.83619 9.4706 4.76124 9.4706 4.67023C9.4706 4.51499 9.49202 4.35439 9.5402 4.18844C9.58838 4.02248 9.65262 3.86724 9.73827 3.71734C9.73827 3.79764 9.7115 3.92077 9.65797 4.09743C9.60444 4.27409 9.57767 4.39722 9.57767 4.46681C9.57767 4.59529 9.62585 4.70771 9.72756 4.79872C9.7918 4.79872 9.84534 4.73983 9.88816 4.62741L9.93099 4.59529ZM14.6205 10.5268C14.5777 10.7248 14.4867 10.9069 14.3421 11.0728C14.1976 11.2388 14.0263 11.3405 13.8282 11.3833C13.7854 11.3994 13.7265 11.4047 13.6569 11.4047C13.507 11.4047 13.3518 11.3405 13.1965 11.212C13.0841 11.121 12.9556 10.9818 12.8218 10.8051C12.7522 10.6499 12.6879 10.4893 12.6291 10.3233C12.5273 10.0503 12.431 9.78265 12.34 9.50963C12.34 9.94325 12.1259 10.3448 11.6976 10.7088C11.4192 10.9443 11.0124 11.1852 10.477 11.4368C10.3539 11.4743 10.2147 11.5064 10.0488 11.5439C9.88281 11.5814 9.75433 11.5974 9.65262 11.5974C9.4599 11.5974 9.2993 11.5492 9.17082 11.4475C9.11193 11.3619 9.0691 11.2602 9.04234 11.1424C9.01557 11.0246 8.99951 10.9176 8.99951 10.8158C8.99951 10.5803 9.06375 10.2966 9.19223 9.95931C9.28324 9.73983 9.34748 9.57923 9.38495 9.48822C9.38495 9.56852 9.36889 9.65953 9.34212 9.76659C9.26182 10.061 9.22435 10.243 9.22435 10.3233C9.22435 10.4251 9.24576 10.5107 9.28859 10.5857C9.33142 10.6606 9.40101 10.7195 9.50272 10.7623C10.0755 10.7623 10.6055 10.6124 11.1034 10.318C11.6012 10.0236 11.976 9.62206 12.2329 9.1242C12.2329 8.86724 12.1366 8.5621 11.9438 8.21413C11.8421 8.04283 11.7458 7.87152 11.6441 7.70021C11.5584 7.52355 11.4942 7.37366 11.4513 7.25589C11.4085 7.13811 11.3871 7.00964 11.3871 6.8651C11.3871 6.67238 11.446 6.47966 11.5691 6.28694C11.8207 6.65632 12.0456 7.13811 12.2543 7.73233C12.7522 9.18844 13.0627 10.0236 13.1858 10.2377C13.3625 10.4358 13.5659 10.5375 13.7961 10.5375C13.8603 10.5375 13.9085 10.5375 13.9353 10.5268C14.0049 10.5 14.0798 10.4625 14.1548 10.4251C14.2297 10.3876 14.2886 10.3394 14.3314 10.2805C14.2029 10.0236 14.0798 9.76659 13.9567 9.50963L14.1387 8.84582C14.3047 8.95824 14.4331 9.12955 14.5295 9.35439C14.6259 9.57923 14.674 9.82013 14.674 10.0771C14.674 10.2109 14.658 10.3608 14.6205 10.5268ZM14.931 12.3897L14.5456 12.9893C14.2832 12.8394 14.0156 12.6949 13.7533 12.5503L13.1965 13C13.0466 12.9197 12.9288 12.8662 12.8432 12.8287C12.6772 12.7484 12.5969 12.6734 12.5969 12.5931C12.6237 12.5664 12.7094 12.454 12.8539 12.2612C12.9449 12.1328 13.052 12.0632 13.1644 12.0471L13.8603 12.3255L14.2993 11.9508L14.931 12.3897Z" fill="currentColor"/>
</svg>
