<svg width="40" height="16" viewBox="0 0 40 16" fill="none" xmlns="http://www.w3.org/2000/svg">
<path fill-rule="evenodd" clip-rule="evenodd" d="M29.0062 3.34221C29.0204 3.37072 29.0109 3.41825 28.9776 3.48479C28.9444 3.55133 28.9206 3.59886 28.9016 3.62738C27.6754 4.08365 26.5537 4.55893 25.5271 5.05323C25.5128 5.01521 25.5128 4.97719 25.5271 4.93916C25.6031 4.83935 25.6506 4.77281 25.6744 4.73479C26.7866 4.22624 27.894 3.76046 29.0062 3.34221ZM25.9168 7.0827C25.779 7.0827 25.6934 7.0019 25.6554 6.84506C25.6554 6.65494 25.6792 6.47909 25.7219 6.31274C25.7695 6.15114 25.8313 5.98479 25.9168 5.81844C25.9168 5.86597 25.9026 5.96103 25.8693 6.10361C25.8408 6.2462 25.8218 6.36027 25.8218 6.44582C25.8218 6.56939 25.8503 6.6692 25.9025 6.75475C25.9691 6.79277 26.0451 6.77852 26.1212 6.71673C26.1972 6.65019 26.2495 6.58365 26.2828 6.5076C26.297 6.62167 26.2733 6.73574 26.202 6.84981C26.1354 6.96388 26.0404 7.04468 25.9168 7.08745V7.0827ZM23.3503 5.02947C23.3645 5.09125 23.374 5.13403 23.374 5.1673C23.374 5.30513 23.3265 5.42871 23.2267 5.54278C23.0984 5.61882 23.0033 5.57129 22.9415 5.40494C22.932 5.36692 22.932 5.31464 22.932 5.24335C22.932 5.10551 22.9748 4.94392 23.0556 4.7538C23.1697 4.49715 23.2362 4.33555 23.2505 4.27376C23.2647 4.32129 23.2742 4.35932 23.2742 4.38783C23.2742 4.45437 23.2457 4.56369 23.1887 4.70627C23.1316 4.84886 23.1031 4.94867 23.1031 5.00095C23.1031 5.09126 23.1459 5.16255 23.2267 5.21958C23.2647 5.1578 23.3075 5.09601 23.3503 5.02472V5.02947ZM24.0347 3L18.4786 4.88213C18.3883 4.94392 18.2932 5.0057 18.1934 5.077C18.0936 5.14354 18.0366 5.22909 18.0223 5.3289C19.3911 4.84411 20.7647 4.35456 22.1383 3.86977C22.5565 3.72719 22.9795 3.57985 23.4025 3.43726C23.6782 3.32319 23.8873 3.18061 24.0299 3.00475L24.0347 3ZM28.0603 10.5285C28.0603 10.6426 28.0318 10.7186 27.9795 10.7614C27.9273 10.8042 27.8512 10.8232 27.7514 10.8232C27.7134 10.8232 27.6468 10.8232 27.5565 10.8137C27.4662 10.8042 27.3949 10.8042 27.3522 10.8042C27.2761 10.8042 27.2096 10.8137 27.1573 10.8327C27.105 10.8517 27.0575 10.8897 27.0195 10.942C27.0813 11.2177 27.1145 11.3698 27.124 11.4078C27.1621 11.5979 27.1811 11.7595 27.1811 11.8973C27.1811 12.0114 27.1716 12.1207 27.1478 12.23C27.1478 12.1065 27.105 11.9163 27.0147 11.6549C26.9292 11.3935 26.8816 11.2034 26.8816 11.0894C26.8816 10.9848 26.9006 10.8897 26.9434 10.8042C26.9862 10.7186 27.0575 10.6426 27.1668 10.576L27.5756 10.4857C27.5233 10.4335 27.452 10.4049 27.3569 10.4049C27.3189 10.4049 27.2809 10.4144 27.2429 10.4382C27.1906 10.4905 27.1193 10.5285 27.0385 10.5523C27.0622 10.538 27.1193 10.4477 27.2096 10.2909C27.2761 10.1673 27.3712 10.1103 27.4852 10.1103C27.5993 10.1245 27.7039 10.1721 27.8037 10.2528C27.9035 10.3336 27.9843 10.424 28.0556 10.5333L28.0603 10.5285ZM27.7752 7.11597C27.7086 6.99239 27.5946 6.93536 27.433 6.93536C27.3854 6.93536 27.3474 6.93536 27.3189 6.94487C27.105 7.12072 26.9482 7.32509 26.8436 7.55323C26.7391 7.78612 26.6345 8.23764 26.5299 8.90304C26.4396 8.94106 26.3541 8.96008 26.278 8.96008C26.2305 8.96008 26.1735 8.95057 26.1022 8.93631C26.0309 8.92205 25.9643 8.90779 25.9025 8.90304C25.7647 8.8365 25.6602 8.74144 25.5889 8.62738C25.5176 8.51331 25.47 8.38498 25.4463 8.23764L24.9995 8.85551L25.2942 10.1008C24.4292 10.6473 23.3835 11.1797 22.1668 11.6977C21.0879 12.1302 20.009 12.5627 18.9254 13C19.22 12.8859 19.4482 12.8146 19.605 12.7814C19.7619 12.7528 20.2181 12.6863 20.9786 12.5865C21.7486 12.4106 22.3664 12.2395 22.837 12.0732C23.5356 11.8308 24.106 11.5504 24.548 11.2272C25.0898 10.8375 25.4986 10.3622 25.779 9.79183C26.1307 9.79183 26.4491 9.73954 26.7391 9.63973C27.029 9.53517 27.3046 9.38308 27.5708 9.17871C27.7372 8.87453 27.8465 8.66065 27.8892 8.54182C27.9891 8.28992 28.0366 8.05703 28.0366 7.84791C28.0366 7.56749 27.9463 7.32509 27.7609 7.11597H27.7752ZM17.7039 4.04563C17.6801 4.08365 17.6468 4.1692 17.5993 4.29753C17.5518 4.42585 17.4948 4.51616 17.4282 4.57319C17.2381 4.57319 17.1335 4.48764 17.1098 4.32129C17.086 4.1597 17.1098 4.00761 17.1763 3.85551C17.2809 3.6654 17.3617 3.52281 17.414 3.43251C17.414 3.47053 17.3997 3.53232 17.3664 3.61312C17.2999 3.80323 17.2619 3.93156 17.2619 4.00285C17.2619 4.11692 17.3094 4.20723 17.4092 4.27852C17.471 4.28802 17.5185 4.25 17.5565 4.1692C17.5946 4.0884 17.6421 4.05038 17.6944 4.05038L17.7039 4.04563ZM20.9881 6.27947L20.8835 6.55513C20.855 6.55513 20.817 6.54563 20.779 6.53137C20.6887 6.49335 20.6316 6.47433 20.6079 6.47433C20.5699 6.47433 20.5366 6.48859 20.5033 6.52186C20.4795 6.58365 20.4273 6.76901 20.3512 7.0827C20.2704 7.39639 20.1801 7.62452 20.0708 7.76711C20.0185 7.70057 19.9662 7.59126 19.9092 7.44867C19.7856 7.13498 19.7048 6.94487 19.6573 6.87833C19.6098 6.90209 19.548 6.90685 19.4624 6.88783C19.3769 6.87358 19.3056 6.84981 19.2391 6.82129C19.1725 6.79278 19.144 6.74525 19.144 6.68346C19.144 6.64544 19.1535 6.60742 19.1678 6.56464C19.182 6.52186 19.1963 6.47909 19.2153 6.43156C19.2628 6.37928 19.3103 6.32224 19.3626 6.26046C19.4244 6.2462 19.4672 6.23669 19.5005 6.23669C19.5622 6.23669 19.605 6.25095 19.6383 6.28422C19.7238 6.37452 19.7951 6.4981 19.8569 6.65019C19.9472 6.86882 20.0375 7.09221 20.1326 7.31084C20.2086 7.03042 20.2704 6.82129 20.3132 6.68346C20.3987 6.43156 20.5271 6.26996 20.7029 6.19392L20.9881 6.28422V6.27947ZM20.9406 11.5029L20.3702 11.9496L19.7096 11.674L19.22 12.1635C18.9824 12.0399 18.7495 11.9211 18.5119 11.7975C18.5737 11.674 18.6402 11.5694 18.7162 11.4791C18.7923 11.3888 18.8968 11.2795 19.0252 11.1606C19.3151 11.2272 19.5575 11.3555 19.7571 11.5361C19.8094 11.5076 19.8997 11.4125 20.0328 11.2557C20.1611 11.0989 20.2657 11.0228 20.3417 11.0228C20.4035 11.0228 20.4653 11.0513 20.5223 11.1036C20.5508 11.1511 20.6364 11.2034 20.7695 11.27C20.9026 11.3365 20.9596 11.4125 20.9453 11.5029H20.9406ZM15.3607 7.17776C15.3607 7.2538 15.3417 7.33935 15.3084 7.42966C15.2752 7.51996 15.2324 7.61026 15.1754 7.69106C15.0851 7.73859 15.0185 7.7576 14.9805 7.7576C14.9282 7.7576 14.8854 7.72909 14.8569 7.67681C14.8046 7.57224 14.7761 7.45342 14.7761 7.3251C14.7761 7.18251 14.8141 7.02091 14.8902 6.8403C14.9662 6.65969 15.0423 6.48859 15.1183 6.32224C15.1278 6.42205 15.0898 6.56464 15.0138 6.75475C14.9377 6.94486 14.8997 7.0732 14.8997 7.14449C14.8997 7.21578 14.9187 7.27281 14.952 7.3251C14.9853 7.37738 15.0518 7.42015 15.1516 7.44867C15.2181 7.35837 15.2894 7.26806 15.356 7.173L15.3607 7.17776ZM23.393 8.21388C23.2932 7.78137 23.2172 7.49144 23.1649 7.35361C23.1126 7.21103 23.0366 7.0827 22.9368 6.95912L22.6611 7.61027C22.6611 7.63878 22.7467 7.87642 22.913 8.31844C22.9653 8.46102 22.9938 8.60836 22.9938 8.75095C22.566 8.93156 22.1288 9.09316 21.6773 9.22624C21.2257 9.35931 20.7695 9.45437 20.3132 9.51616C20.0946 9.54468 19.8949 9.56844 19.7143 9.57795C19.5337 9.58745 19.3674 9.59696 19.2058 9.59696C18.5974 9.59696 18.0176 9.52566 17.4615 9.37833C17.2334 9.21673 17.0575 9.06939 16.9387 8.93156C16.7628 8.74144 16.6583 8.55608 16.6202 8.37072C16.5822 8.39448 16.5489 8.43726 16.5157 8.4943C16.4872 8.55608 16.4396 8.64639 16.3778 8.76996C16.2638 8.7462 16.1545 8.73669 16.0451 8.73669C15.8645 8.73669 15.6554 8.76996 15.4273 8.84126C15.2657 8.88878 15.0756 8.95532 14.8569 9.04563C14.529 9.1692 14.1915 9.35931 13.8398 9.62547C13.6735 9.74905 13.3645 10.0057 12.9178 10.4002C12.5138 10.7519 12.2048 10.999 11.9815 11.1511C11.6392 11.3888 11.297 11.5599 10.9548 11.6644C10.6744 11.6644 10.4605 11.5409 10.318 11.289C10.2514 11.2129 10.2134 11.1131 10.2134 10.9943C10.2134 10.9087 10.2276 10.8184 10.2514 10.7186C10.2799 10.6188 10.3084 10.5238 10.337 10.4335C10.4368 10.2814 10.5889 10.0437 10.7932 9.72528C10.9738 9.45912 11.1449 9.24525 11.297 9.0884C11.5252 8.9981 11.6915 8.8365 11.8008 8.60361C11.9054 8.37072 11.9624 8.11882 11.9624 7.84315C11.9244 7.85741 11.8674 7.93821 11.7866 8.07605C11.7058 8.21863 11.6107 8.27566 11.4967 8.2519C11.3446 8.11407 11.24 7.97624 11.183 7.83365C11.1259 7.69106 11.0974 7.52947 11.0974 7.34886C11.0974 7.06844 11.1925 6.70722 11.3826 6.26521C11.6583 5.63308 11.8008 5.29088 11.8151 5.23859C11.7105 5.4192 11.5252 5.72814 11.2685 6.16064C10.8883 6.84506 10.6982 7.42966 10.6982 7.9192C10.6982 8.11882 10.7267 8.30894 10.7885 8.49905C10.8503 8.68916 10.9501 8.86977 11.0832 9.04563C10.7124 9.54943 10.4938 9.8441 10.432 9.93441C10.2276 10.2624 10.0898 10.5808 10.0233 10.8945C10.009 10.9848 9.99951 11.0561 9.99951 11.1131C9.99951 11.3032 10.0423 11.4791 10.1326 11.6454C10.2181 11.807 10.3417 11.9639 10.4938 12.1065C10.6697 12.173 10.8265 12.211 10.9738 12.211C11.3683 12.211 11.8531 11.9449 12.4235 11.4125C12.8275 11.0418 13.0889 10.8137 13.2124 10.7281C13.8683 10.2814 14.2581 10.02 14.3864 9.95342C14.8569 9.69677 15.2894 9.56369 15.6887 9.56369C15.8645 9.56369 16.0594 9.59221 16.2828 9.65399C16.2828 10.0105 16.3873 10.3527 16.6012 10.6806C16.7913 10.9705 17.048 11.2224 17.3664 11.4458C17.4282 11.3032 17.49 11.1559 17.547 11.0133C17.6706 10.7234 17.7276 10.4715 17.7276 10.2624C17.9653 10.3241 18.1887 10.3669 18.4026 10.3859C18.6164 10.4097 18.8493 10.4192 19.0965 10.4192C19.5052 10.4192 19.9235 10.3859 20.3512 10.3146C20.779 10.2481 21.1925 10.153 21.5965 10.0295C22.0005 9.90589 22.414 9.7538 22.8417 9.57319C23.0318 9.44962 23.1649 9.24525 23.241 8.95532C23.279 8.79373 23.3313 8.54658 23.4025 8.20437L23.393 8.21388ZM13.9729 3.27567C13.9491 3.38973 13.9064 3.48004 13.8493 3.55133C13.7448 3.5038 13.6497 3.48479 13.5737 3.48479C13.5214 3.48479 13.4738 3.49905 13.4358 3.53232C13.3598 3.63213 13.3075 3.85551 13.2742 4.19772C13.2457 4.54468 13.1887 4.76806 13.1126 4.87738C13.1221 4.89163 13.2219 4.96293 13.4216 5.09601C13.5737 5.20057 13.6497 5.30038 13.6497 5.39069C13.6497 5.45722 13.6117 5.53327 13.5356 5.60932C13.355 5.60932 13.1649 5.63308 12.9748 5.68536C12.7847 5.73289 12.5993 5.80418 12.414 5.89449C12.414 6.10836 12.4472 6.36026 12.509 6.65494C12.5756 6.94962 12.6326 7.21578 12.6849 7.45817C12.7372 7.70057 12.7657 7.92871 12.7657 8.14259C12.7657 8.31844 12.7467 8.48479 12.7086 8.63688C12.6706 8.79373 12.6041 8.94582 12.5138 9.09791C12.5613 8.9981 12.5946 8.88878 12.6183 8.76045C12.6421 8.63688 12.6516 8.52281 12.6516 8.423C12.6516 8.24715 12.6278 8.06179 12.5851 7.86217C12.5708 7.77661 12.528 7.61977 12.452 7.38688C12.3807 7.15399 12.3237 6.94962 12.2809 6.77852C12.2381 6.60266 12.2191 6.44582 12.2191 6.31274C12.2191 6.17966 12.2286 6.06559 12.2476 5.98954C12.2666 5.90875 12.3046 5.81369 12.3664 5.69962C12.4282 5.61407 12.5233 5.55703 12.6516 5.51901C12.97 5.4192 13.1507 5.35742 13.1887 5.32415C13.0461 5.20057 12.8845 5.15304 12.7086 5.17681C12.6801 5.21483 12.6516 5.2481 12.6278 5.27186C12.6041 5.30038 12.5756 5.30989 12.5375 5.30038C12.5613 5.08175 12.6754 4.92966 12.8797 4.85361L13.0603 4.87738C12.97 4.65875 12.8988 4.48764 12.8417 4.37358C12.7419 4.1692 12.6326 4.05513 12.509 4.03137C12.4853 4.00761 12.4235 3.96483 12.3284 3.90779C12.2286 3.84601 12.1621 3.78897 12.124 3.73669C12.124 3.57034 12.1621 3.42301 12.2381 3.30418C12.452 3.36597 12.6326 3.51331 12.7847 3.75095C12.837 3.8365 12.9463 4.05038 13.1031 4.40209C13.1887 3.93156 13.2457 3.66065 13.2742 3.59411C13.336 3.44202 13.4263 3.30894 13.5499 3.19487C13.6117 3.18061 13.6877 3.19011 13.778 3.22338C13.8683 3.25665 13.9301 3.28042 13.9586 3.28517L13.9729 3.27567ZM15.7885 10.885C15.8122 10.9753 15.7885 11.0608 15.7267 11.1416C15.6602 11.2224 15.6174 11.2747 15.5936 11.2937C15.5413 11.3032 15.47 11.3032 15.375 11.3032C15.1944 11.3032 15.0708 11.3127 15.009 11.3317C14.9472 11.3508 14.8854 11.4268 14.8141 11.5646C14.6003 11.7072 14.2771 11.8403 13.8446 11.9639C13.5546 12.0399 13.355 12.097 13.241 12.135C13.317 12.0732 13.6449 11.9211 14.22 11.6787C14.624 11.5028 14.8759 11.289 14.9853 11.0276C15.0708 10.8279 15.2039 10.6663 15.394 10.538C15.4843 10.5285 15.5651 10.5618 15.6269 10.6283C15.6934 10.6949 15.741 10.7804 15.779 10.8802L15.7885 10.885ZM27.6041 8.45627L26.8721 8.82224C26.8721 8.82224 26.8816 8.76045 26.8816 8.70817C26.8721 8.64639 26.8721 8.5846 26.8721 8.51806V8.31844C26.8721 8.19011 26.8911 8.0808 26.9339 7.98574C26.9767 7.89544 27.0527 7.83365 27.1668 7.80513C27.3664 7.83365 27.4948 7.93821 27.5565 8.11407C27.566 8.13783 27.5803 8.19011 27.6088 8.26616C27.6373 8.34696 27.6326 8.40874 27.6041 8.45627ZM15.4891 11.0133C15.4605 11.0371 15.4178 11.0418 15.3655 11.0228C15.3132 11.0086 15.2657 10.9848 15.2276 10.9563C15.2276 10.8565 15.2657 10.8232 15.3417 10.8517C15.4083 10.8897 15.4605 10.942 15.4891 11.0133Z" fill="currentColor"/>
</svg>
