<svg width="40" height="16" viewBox="0 0 40 16" fill="none" xmlns="http://www.w3.org/2000/svg">
<path fill-rule="evenodd" clip-rule="evenodd" d="M21.0813 4.04132L20.9506 3.96121C20.841 4.18465 20.6555 4.42074 20.3857 4.66947C20.217 4.82546 19.9725 5.0236 19.6563 5.26812C20.04 4.82546 20.4278 4.37858 20.8199 3.92749C20.7946 3.90219 20.723 3.8516 20.6133 3.77993C20.5037 3.70826 20.4321 3.64081 20.4068 3.57336C20.4531 3.46796 20.5079 3.35413 20.567 3.23609C20.626 3.11804 20.7103 3.04216 20.8199 3C20.9759 3.01265 21.0644 3.07588 21.0813 3.18971C21.0476 3.24873 21.0307 3.30775 21.0307 3.37099C21.0307 3.43423 21.0644 3.52276 21.1319 3.64924C21.174 3.72512 21.1909 3.77993 21.1909 3.81787C21.1909 3.88532 21.153 3.95699 21.0813 4.0371V4.04132ZM21.4565 4.41653C21.4144 4.53879 21.3764 4.66105 21.3343 4.77909C21.2331 4.82125 21.1825 4.79173 21.1825 4.69477C21.1825 4.5978 21.1698 4.543 21.1403 4.52614C21.1319 4.53457 21.115 4.59359 21.0813 4.70741C21.0476 4.82124 21.0096 4.89291 20.9633 4.92664C20.9169 4.96037 20.8789 4.97302 20.8452 4.97302C20.8031 4.97302 20.7735 4.93086 20.7525 4.84232C20.7314 4.75379 20.7103 4.7032 20.6934 4.69055C20.6681 4.76644 20.6471 4.83389 20.6386 4.90135C20.6302 4.9688 20.6218 5.06155 20.6218 5.17537C20.6808 5.2344 20.7482 5.26812 20.8157 5.26812C20.8494 5.26812 20.9759 5.19645 21.1993 5.05733C21.2794 5.00253 21.3553 4.98566 21.4228 5.00674C21.4228 4.96037 21.4396 4.8887 21.4734 4.79595C21.5071 4.7032 21.524 4.63153 21.524 4.58516C21.524 4.52614 21.4987 4.47133 21.4523 4.42495L21.4565 4.41653ZM21.9919 5.97639C21.9582 6.086 21.8992 6.20405 21.8191 6.33895C21.7853 6.39798 21.7095 6.51602 21.5956 6.68465L20.9084 6.42327C20.9885 6.10708 21.1361 5.85413 21.3553 5.66441C21.3975 5.68971 21.4945 5.73187 21.6547 5.78246C21.8149 5.83305 21.9245 5.9005 21.9919 5.9806V5.97639ZM26.4439 8.19393C26.4439 8.81366 26.3848 9.39545 26.2668 9.93507C26.1488 10.4747 25.9548 10.9722 25.685 11.4317C25.3941 12.0472 24.9093 12.4519 24.2263 12.6543C23.809 12.7766 23.1513 12.8356 22.2533 12.8356L21.3511 12.8145C21.8317 12.8145 22.3039 12.747 22.7676 12.6079C23.2314 12.4688 23.6867 12.2749 24.1251 12.0261C24.5636 11.7774 24.943 11.4781 25.2634 11.1239C25.5838 10.774 25.8452 10.3567 26.0476 9.88027C26.1909 9.55143 26.2584 9.18887 26.2584 8.7968C26.2584 8.46796 26.2078 8.12225 26.1066 7.76391C25.9801 7.31281 25.7525 6.78162 25.4278 6.17454C25.3815 6.62142 25.3562 7.11467 25.3562 7.66273C25.3562 7.80607 25.373 8.11382 25.4068 8.59443C25.4194 8.78414 25.4278 8.95699 25.4278 9.10876C25.4278 9.14249 25.4278 9.18465 25.4236 9.23945C25.4236 9.29426 25.3899 9.31113 25.3393 9.29005C25.2845 9.0118 25.2466 8.70404 25.217 8.35834C25.1918 8.01264 25.1749 7.66694 25.1749 7.31703C25.1749 6.91231 25.196 6.51602 25.2339 6.12394C25.2761 5.73187 25.3393 5.36509 25.4278 5.01939C25.7525 5.44941 26.0012 5.94266 26.1783 6.49072C26.3553 7.03878 26.4396 7.6037 26.4396 8.18549L26.4439 8.19393ZM24.045 6.46543C23.9523 5.64756 23.6993 4.93086 23.2946 4.31113C23.1681 4.6231 23.0796 4.96037 23.0332 5.32293C22.9869 5.6855 22.9616 6.09443 22.9616 6.54553C22.9616 6.5919 22.97 6.87436 22.9826 7.39713C22.9953 7.91568 23.0037 8.28246 23.0037 8.48903H23.0754C23.1176 8.16441 23.1471 7.64586 23.1681 6.92917C23.1892 6.21248 23.2145 5.72766 23.2482 5.47049C23.3958 5.69393 23.5138 5.95109 23.6024 6.23777C23.6108 6.25042 23.6783 6.52867 23.8132 7.06829C23.8469 7.21585 23.8638 7.34232 23.8638 7.4435C23.8638 7.67116 23.809 7.88196 23.7036 8.07167C23.6277 8.19814 23.5223 8.33727 23.3789 8.48482C23.2862 8.586 23.1597 8.70826 23.0037 8.84738C22.9236 8.90641 22.8267 8.957 22.717 8.99494C22.6074 9.03288 22.4978 9.04974 22.3882 9.04974C22.2449 9.04974 22.1353 9.02023 22.0509 8.96543C21.9666 8.90641 21.9245 8.84738 21.9245 8.77993C21.9245 8.75463 21.9413 8.69561 21.9708 8.60708C22.0004 8.51854 22.0088 8.44688 21.9961 8.39628C21.9413 8.37521 21.8865 8.36678 21.8359 8.36678C21.6673 8.36678 21.3975 8.57757 21.0265 8.99494C20.8368 9.20995 20.6724 9.34064 20.529 9.39123C20.4489 9.24367 20.3983 9.15092 20.3773 9.1172C20.3014 9.00759 20.2255 8.94013 20.1454 8.90641C20.1327 8.89797 20.0948 8.88954 20.04 8.87268C19.981 8.85581 19.9346 8.84738 19.8924 8.84738C19.8039 8.84738 19.7322 8.8769 19.6816 8.94013C19.5805 9.12141 19.5004 9.28583 19.4371 9.42495C19.357 9.61888 19.3149 9.79595 19.3149 9.95193C19.3149 10.032 19.3275 10.1164 19.357 10.2007C19.3823 10.285 19.4245 10.3567 19.4793 10.4199C19.5805 10.4747 19.7069 10.5 19.8545 10.5C19.9219 10.5 19.981 10.5 20.0358 10.4958C20.0906 10.4958 20.1538 10.4831 20.2297 10.4705C19.9346 11.1239 19.4287 11.6762 18.712 12.1231C18.1934 12.4477 17.5189 12.7428 16.6884 13H16.8612C18.0206 12.8904 18.8638 12.6627 19.3907 12.3128C19.8503 12.0093 20.158 11.5919 20.3098 11.0565C20.3646 10.8541 20.4194 10.6686 20.47 10.4958C20.5248 10.3229 20.5796 10.1838 20.6302 10.0742C20.8916 9.81282 21.1614 9.543 21.4312 9.27318C21.5324 9.19308 21.6083 9.15093 21.6547 9.15093C21.7095 9.15093 21.739 9.24789 21.7474 9.44603C21.7558 9.63996 21.8064 9.75379 21.8992 9.77909C21.9582 9.83811 22.0172 9.87605 22.0678 9.88449C22.1184 9.89292 22.2027 9.90135 22.325 9.90135H22.4767C22.755 9.85497 23.0122 9.72428 23.2567 9.50506C23.4675 9.31534 23.6445 9.07504 23.7921 8.77572C23.9945 8.26981 24.0956 7.72175 24.0956 7.12732C24.0956 7.02614 24.0956 6.91231 24.0872 6.79005C24.0788 6.66357 24.0703 6.55818 24.0577 6.46964L24.045 6.46543ZM16.0813 5.61383L16.0012 5.85835C15.959 5.8457 15.9042 5.81197 15.8283 5.75716C15.7525 5.70236 15.6892 5.68128 15.6344 5.6855C15.6007 5.77824 15.5754 6.01433 15.5543 6.38954C15.5332 6.76475 15.4447 7.0177 15.2929 7.15261L14.9304 6.3516C14.9051 6.39797 14.8629 6.42327 14.8081 6.42327C14.7617 6.42327 14.7069 6.41062 14.6521 6.38111C14.5931 6.35581 14.5509 6.33052 14.5172 6.30944C14.5172 6.14924 14.5256 6.02698 14.5425 5.9511C14.5594 5.87521 14.6184 5.81197 14.7196 5.7656C14.8629 5.82462 14.9725 5.9258 15.0526 6.06914C15.1538 6.31787 15.2592 6.56661 15.3646 6.80691C15.3983 6.72681 15.4236 6.47386 15.4447 6.04806C15.4658 5.62226 15.5543 5.41147 15.7061 5.41147C15.7988 5.41147 15.9253 5.47892 16.0813 5.61383ZM18.3874 8.55649C18.3958 8.59022 18.3958 8.63237 18.3958 8.68718C18.3958 8.78836 18.3747 8.90641 18.3368 9.04132C18.2778 9.25211 18.244 9.37015 18.2356 9.40387C17.9068 9.56408 17.6201 9.88449 17.384 10.3651C17.0341 11.0818 16.8233 11.4823 16.7558 11.5708C16.4101 12.3128 15.6977 12.7386 14.61 12.844C14.0703 12.8904 13.5349 12.9368 12.9995 12.9873C13.615 12.7976 14.0872 12.6374 14.416 12.5025C14.943 12.2875 15.3857 12.0472 15.7398 11.7858C16.1698 11.4696 16.5155 11.086 16.7727 10.6307C17.0552 10.0911 17.2702 9.69055 17.4219 9.42495C17.6918 8.95278 18.0122 8.66189 18.3832 8.55649H18.3874ZM20.8663 3.54806V3.45109C20.8663 3.37521 20.8157 3.33305 20.7145 3.33305C20.6597 3.33305 20.6344 3.35413 20.6344 3.4005C20.6471 3.4258 20.6766 3.4511 20.7145 3.46796C20.8073 3.51433 20.8579 3.53963 20.8663 3.54384V3.54806Z" fill="currentColor"/>
</svg>
