<svg width="40" height="16" viewBox="0 0 40 16" fill="none" xmlns="http://www.w3.org/2000/svg">
<path fill-rule="evenodd" clip-rule="evenodd" d="M28.4972 5.33461C28.4289 5.30047 28.3649 5.24072 28.3008 5.15109C28.2197 5.03585 28.1557 4.95476 28.1045 4.91635L27.9423 5.17243C27.9893 5.62484 28.0874 6.23944 28.2283 7.02475C28.3435 7.65216 28.4075 8.01921 28.4246 8.12164C28.4673 8.4204 28.4929 8.65941 28.51 8.83867C28.527 9.01793 28.5356 9.22279 28.5356 9.45326C28.5356 9.75203 28.5185 10.0294 28.4801 10.277C28.4417 10.5245 28.3777 10.802 28.2923 11.1007L28.1813 11.2629C28.2069 11.1263 28.2283 10.9641 28.2411 10.7806C28.2539 10.5971 28.2624 10.4178 28.2624 10.2471C28.2624 9.74349 28.1941 9.10755 28.0576 8.34358C27.874 7.29364 27.7673 6.6577 27.7417 6.44003C27.5838 5.56509 27.4302 4.69014 27.2808 3.80666C27.3363 3.62313 27.3832 3.48656 27.4259 3.39693C27.4942 3.24755 27.5753 3.13231 27.6734 3.04695C27.8911 3.58472 28.113 4.12249 28.3392 4.656C28.3051 4.68161 28.3094 4.71575 28.3478 4.75843C28.3905 4.80111 28.3905 4.83525 28.3563 4.86086C28.4118 4.91635 28.4502 4.98464 28.4801 5.06573C28.5057 5.14682 28.5142 5.23645 28.5014 5.33035L28.4972 5.33461ZM21.1818 3C21.169 3.08109 21.1348 3.15792 21.0793 3.22621C21.0238 3.29449 20.9556 3.32864 20.8745 3.32864C20.6098 3.41827 20.3538 3.51216 20.1062 3.6146C19.3124 3.95604 18.8941 4.1353 18.8471 4.1481C18.9923 3.90055 19.2441 3.70849 19.6069 3.56338C19.9227 3.44814 20.2343 3.33291 20.5501 3.2134C20.5757 3.20487 20.708 3.15365 20.9385 3.05975C21.0324 3.01707 21.1177 3 21.186 3H21.1818ZM24.5535 6.965C24.5748 7.11012 24.5108 7.19121 24.3657 7.21255C24.2206 7.23389 24.131 7.28084 24.1054 7.35766C24.1054 7.54972 24.0926 7.71617 24.0712 7.86556C24.0456 8.01067 24.0029 8.15578 23.9432 8.3009C23.9005 8.24114 23.8109 8.07042 23.6658 7.78873C23.6103 7.67776 23.5505 7.57533 23.4822 7.4729C23.4694 7.51985 23.4395 7.54545 23.3883 7.54545C23.367 7.54545 23.3286 7.53692 23.2774 7.52411C23.2432 7.48143 23.2261 7.43448 23.2261 7.379C23.2261 7.33632 23.2432 7.2851 23.2731 7.21682C23.303 7.14853 23.32 7.10158 23.32 7.0717C23.4993 7.02476 23.6444 7.14853 23.7596 7.43875C23.8407 7.65215 23.9048 7.7802 23.9432 7.82714C23.9773 7.64362 24.0115 7.45582 24.0456 7.26376C24.1054 7.03329 24.2121 6.91378 24.3614 6.91378C24.4084 6.91378 24.4724 6.93086 24.5578 6.965H24.5535ZM22.4451 6.2181C22.4109 6.32907 22.3853 6.41869 22.364 6.49552C22.3427 6.57234 22.2957 6.62356 22.2189 6.64917C22.0951 6.60649 22.0183 6.51259 21.9841 6.36321C21.9841 6.1114 22.0482 5.87665 22.1805 5.65472C22.1719 5.68886 22.1634 5.74008 22.1463 5.80836C22.1293 5.87665 22.1207 5.94494 22.1207 6.01323C22.1207 6.14981 22.1634 6.26078 22.253 6.34187C22.3 6.36321 22.3384 6.34187 22.3597 6.29065C22.3853 6.23517 22.4109 6.21383 22.4451 6.2181ZM16.2052 4.04567C16.2522 4.07128 16.2778 4.11822 16.2778 4.17798C16.2778 4.22492 16.2436 4.31882 16.1754 4.4554C16.1327 4.48101 16.09 4.50662 16.0473 4.53222C16.0046 4.55783 15.962 4.55783 15.9193 4.53649C15.851 4.49381 15.804 4.44686 15.7827 4.39138C15.7571 4.33589 15.7486 4.26334 15.7486 4.17798C15.7486 4.11822 15.7571 4.03286 15.7699 3.92189L16.0857 3.26462C16.0985 3.33291 16.0772 3.44814 16.0132 3.6146C15.9534 3.77678 15.9193 3.89629 15.9193 3.96457C15.9193 4.02433 15.9321 4.07981 15.9534 4.12249C15.979 4.16517 16.0217 4.20785 16.0815 4.242L16.2052 4.04567ZM18.8984 7.66069C18.8557 7.81007 18.7703 7.93385 18.6423 8.03628C18.5142 8.13444 18.3606 8.19419 18.1813 8.21553C18.1899 8.14725 18.2667 8.07896 18.4161 8.01067C18.4972 7.96799 18.5526 7.92104 18.5783 7.86556C18.4844 7.85275 18.399 7.83995 18.3264 7.83141C18.2539 7.82288 18.2069 7.81434 18.1899 7.81434C18.0277 7.81434 17.9039 7.85702 17.8228 7.94665C17.8442 7.85702 17.8783 7.7802 17.9252 7.71191C17.9722 7.64362 18.0319 7.59667 18.1002 7.57533C18.1685 7.54972 18.2453 7.54119 18.3264 7.54119C18.4075 7.54119 18.51 7.55826 18.6295 7.5924C18.749 7.62655 18.8386 7.65216 18.9026 7.66496L18.8984 7.66069ZM16.5851 5.62057C16.5381 5.76568 16.4912 5.90653 16.4528 6.05164C16.376 6.2309 16.2735 6.31626 16.1369 6.31626C16.0943 6.25651 16.0004 6.18395 15.8467 6.10286C15.6931 6.02177 15.6248 5.93641 15.6461 5.84678L16.0473 5.25352C16.1412 5.28766 16.2564 5.35595 16.3845 5.45839C16.4741 5.53521 16.5424 5.58643 16.5894 5.62057H16.5851ZM26.5125 9.04353C26.5125 8.77892 26.504 8.54417 26.4869 8.34358C26.4698 8.14298 26.44 7.94665 26.4016 7.75459C26.4016 7.72044 26.2735 7.07597 26.0132 5.8169C25.9235 5.38156 25.8809 4.99317 25.8809 4.66026C25.9705 4.75416 26.0601 4.84806 26.1455 4.93769C26.1882 4.98037 26.2223 5.03158 26.2479 5.09987C26.2223 4.83952 26.1199 4.51088 25.9491 4.11822C25.8382 3.86641 25.6845 3.54631 25.4882 3.16645L25.2236 3.73837C25.2663 4.22493 25.3644 4.82245 25.5223 5.53094C25.6589 6.1242 25.7998 6.7388 25.9406 7.37046C26.0857 8.00213 26.1839 8.58685 26.2394 9.12889C26.2607 9.18865 26.2693 9.23986 26.2693 9.28254C26.2693 9.44046 26.1241 9.58557 25.8296 9.72215C25.6589 9.80324 25.548 9.86726 25.4925 9.91848C25.3004 10.0124 25.0955 10.0636 24.8779 10.0636C24.7498 10.0636 24.6133 10.0423 24.4767 10.0038C24.3401 9.96116 24.2291 9.90994 24.1395 9.84166C23.5676 9.33803 22.9914 8.82586 22.4195 8.3137C21.7153 7.6991 21.1305 7.20828 20.6568 6.83696C20.008 6.33333 19.3935 5.91507 18.813 5.58643C19.4831 5.25352 20.3068 4.94196 21.2799 4.656C22.1335 4.42552 22.9871 4.19078 23.8407 3.96031C23.8621 3.96031 23.9346 3.95177 24.0627 3.9347C24.1907 3.91763 24.2846 3.90909 24.3529 3.90909C24.4084 3.90909 24.4596 3.91763 24.5108 3.93043C24.562 3.94324 24.609 3.96884 24.6474 4.00299C24.5535 4.19505 24.2547 4.6816 23.7554 5.46692C23.3798 6.06018 23.1408 6.55527 23.0384 6.9522C23.1536 6.6449 23.3969 6.2437 23.7639 5.75288C24.1865 5.18523 24.4596 4.80111 24.5834 4.59624C24.8437 4.15237 24.9718 3.71276 24.9718 3.27315C24.9376 3.21767 24.8907 3.17926 24.8267 3.15365C24.7669 3.12804 24.6943 3.1195 24.6133 3.1195C24.5535 3.1195 24.4596 3.1195 24.3358 3.12804C23.6743 3.29023 23.0127 3.45241 22.3469 3.61033C21.5488 3.80666 20.8958 3.99445 20.3922 4.16517C19.6879 4.40418 19.0691 4.6688 18.5398 4.96329C18.4502 5.14682 18.3905 5.32181 18.3563 5.49253C18.3222 5.65898 18.288 5.88519 18.2539 6.16261C18.3819 6.29065 18.7917 6.67478 19.4831 7.31071C20.0422 7.83141 20.4477 8.22407 20.6909 8.48869C21.0921 8.92403 21.4165 9.36364 21.6555 9.79898C21.3482 9.97823 21.0196 10.1105 20.6653 10.2002C20.3153 10.2898 19.9312 10.3538 19.5215 10.3965C19.6026 10.0679 19.6538 9.85873 19.6751 9.76056C19.7221 9.51302 19.7477 9.29108 19.7477 9.09475C19.7477 8.93256 19.7306 8.77892 19.7007 8.63807C19.6709 8.49723 19.6197 8.36492 19.5514 8.23261C19.3337 8.5143 19.116 8.85147 18.8941 9.2484C18.702 9.61118 18.51 9.9697 18.3222 10.3239C18.2069 10.3453 18.0277 10.3837 17.7844 10.4349C17.5411 10.4904 17.3448 10.516 17.1954 10.516C17.046 10.516 16.9137 10.4989 16.7942 10.4605C16.679 10.4221 16.568 10.3624 16.4656 10.2813C16.6491 10.1532 16.7814 10.0465 16.854 9.96543C16.9777 9.83739 17.0588 9.70081 17.1015 9.5557C17.2125 9.32522 17.2637 9.08195 17.2637 8.83013C17.2637 8.42894 17.1442 8.09603 16.9052 7.83568C16.7942 7.72044 16.632 7.66069 16.4144 7.66069C16.3802 7.66069 16.329 7.66069 16.2607 7.66923C16.1028 7.8058 15.979 7.95945 15.8851 8.12591C15.7912 8.29236 15.7187 8.48442 15.6589 8.69782C15.5992 8.91122 15.5693 9.12463 15.565 9.33376C15.565 9.54289 15.5608 9.75203 15.5608 9.96543C14.7072 10.2983 14.2035 10.4904 14.0456 10.5373C13.7298 10.6398 13.4054 10.7209 13.064 10.7849C12.8164 10.8276 12.5774 10.8446 12.3469 10.8446C11.997 10.8446 11.6768 10.7977 11.3781 10.6995C11.0793 10.6056 10.8062 10.452 10.5544 10.2386C10.4263 10.0892 10.358 9.90568 10.358 9.68374C10.358 9.57277 10.3836 9.43619 10.4306 9.26547C10.4434 9.22279 10.5159 9.01366 10.644 8.62953C10.5202 8.79172 10.4092 8.98805 10.3068 9.21425C10.2513 9.32522 10.166 9.53009 10.0507 9.83739C10.0251 9.96543 10.008 10.0551 10.0038 10.0977C10.0038 10.1404 9.99951 10.1874 9.99951 10.2343C9.99951 10.6569 10.1617 11.0026 10.4818 11.2672C10.755 11.4123 11.0153 11.5105 11.2586 11.5702C11.5061 11.63 11.7793 11.6556 12.078 11.6556C12.2402 11.6556 12.4323 11.6428 12.6457 11.6129C12.8591 11.5873 13.0426 11.5531 13.192 11.519C13.6103 11.4251 14.1694 11.2416 14.8736 10.977C15.1681 10.866 15.4797 10.7507 15.804 10.627C15.8595 10.7166 15.9321 10.8148 16.026 10.9172C16.1199 11.0239 16.2052 11.105 16.2863 11.169C16.504 11.28 16.7515 11.3312 17.0247 11.3312C17.2424 11.3312 17.4558 11.3056 17.6606 11.2586C17.8655 11.2117 18.0832 11.1477 18.3179 11.0623C18.2838 11.2117 18.2667 11.3483 18.2667 11.472C18.2667 11.8903 18.3819 12.2488 18.6081 12.5476C18.8386 12.8463 19.1246 13 19.4745 13C19.5172 13 19.5855 12.9915 19.6794 12.9787C19.8288 12.8293 19.944 12.6458 20.0209 12.4238C20.0977 12.2061 20.1404 11.9714 20.1404 11.7281C20.1404 11.5233 20.1062 11.3184 20.0379 11.1135C20.4562 11.0239 20.7592 10.9471 20.9513 10.8788C21.2714 10.7678 21.5445 10.6184 21.7707 10.4264C21.7921 10.3453 21.8305 10.213 21.8817 10.0252C21.95 9.75203 21.9841 9.52155 21.9841 9.33803C21.9841 9.1545 21.95 8.97098 21.8817 8.81733C21.9628 8.87281 22.4707 9.33376 23.4097 10.2002C23.7511 10.516 24.0712 10.7337 24.3742 10.8574C24.4425 10.8788 24.5066 10.8916 24.5706 10.9001C24.6303 10.9087 24.6901 10.9087 24.7456 10.9087C24.9931 10.9087 25.2492 10.8318 25.5223 10.6825C25.7486 10.5459 25.9748 10.405 26.1967 10.2642C26.2906 10.0807 26.3674 9.88434 26.4229 9.6752C26.4784 9.46607 26.504 9.25267 26.504 9.035L26.5125 9.04353ZM13.5036 3.828C13.4908 3.90482 13.478 3.96884 13.4609 4.0286C13.4481 4.08835 13.4182 4.11396 13.3798 4.11396C13.3542 4.11396 13.3243 4.10115 13.2987 4.07981C13.2731 4.0542 13.2389 4.04567 13.1963 4.04567H13.0938C13.0127 4.16091 12.9487 4.36577 12.906 4.66026C12.8634 4.95476 12.7993 5.15536 12.7182 5.26632C12.539 4.95049 12.364 4.63466 12.1847 4.31455C12.1933 4.37431 12.1591 4.40845 12.0908 4.40845C12.0439 4.40845 12.014 4.39991 11.997 4.38711C11.8689 4.29748 11.8177 4.18651 11.8518 4.04994C11.8732 3.99018 11.8945 3.93043 11.9116 3.87068C11.9329 3.81093 11.9585 3.76824 11.9927 3.74264C12.189 3.83653 12.364 4.04994 12.5134 4.37857C12.6372 4.64319 12.7097 4.79684 12.7268 4.83952C12.7695 4.5749 12.8036 4.37431 12.8292 4.24626C12.8847 4.02006 12.9871 3.85361 13.1365 3.74264C13.2261 3.74264 13.2987 3.74691 13.3499 3.75971C13.4054 3.76825 13.4524 3.79385 13.495 3.83653L13.5036 3.828ZM14.3828 7.42168C14.3828 7.50277 14.3657 7.58814 14.3316 7.6735C14.2974 7.75886 14.2505 7.85702 14.1865 7.96372C14.1267 7.96372 14.0755 7.93811 14.0413 7.89116C14.0072 7.84422 13.9816 7.78873 13.9645 7.72898C13.9474 7.66923 13.9389 7.59667 13.9389 7.51558C13.9389 7.35339 13.9645 7.20828 14.0115 7.08451C14.0584 6.96073 14.1352 6.82843 14.2377 6.68331C14.2035 6.77294 14.1694 6.87537 14.131 6.99061C14.0926 7.10585 14.0755 7.20828 14.0755 7.29791C14.0755 7.44302 14.1224 7.56253 14.2206 7.65642L14.3828 7.42168ZM13.2347 5.68886C13.2133 5.88092 13.0384 5.99189 12.7012 6.02177C12.3683 6.05164 12.1634 6.14127 12.0866 6.28212C12.1122 6.46564 12.1634 6.68758 12.2402 6.94793C12.3427 7.31498 12.4067 7.54972 12.428 7.64789C12.4536 7.74605 12.4707 7.85275 12.4835 7.97226C12.4963 8.08749 12.5048 8.21554 12.5048 8.35211C12.5048 8.57832 12.4707 8.79172 12.4024 8.99658C12.4238 8.91976 12.4366 8.86854 12.4451 8.8344C12.4536 8.80026 12.4536 8.7405 12.4536 8.65941C12.4536 8.48869 12.4195 8.29236 12.3512 8.06615L12.0012 7.0717C11.9329 6.8455 11.8988 6.65343 11.8988 6.48698C11.8988 6.38455 11.9159 6.28638 11.9543 6.18822C11.9927 6.09432 12.0738 6.00043 12.1933 5.90653C12.3171 5.81263 12.4878 5.74008 12.7054 5.68459C12.6628 5.62484 12.5945 5.5907 12.492 5.5907C12.4664 5.5907 12.4238 5.59923 12.3683 5.61204L12.2744 5.71447C12.2402 5.67179 12.2445 5.61204 12.2829 5.53521C12.3256 5.45839 12.3427 5.41571 12.3427 5.40717C12.3853 5.37303 12.4238 5.34742 12.4664 5.33461C12.5091 5.32181 12.5433 5.31327 12.5774 5.31327C12.6713 5.31327 12.7865 5.35595 12.9146 5.44558C13.017 5.52667 13.1194 5.60777 13.2219 5.68032L13.2347 5.68886ZM11.3994 7.24669C11.3994 7.51131 11.361 7.75459 11.2885 7.96799C11.2116 8.18139 11.0921 8.36065 10.9214 8.50576C10.8659 8.5271 10.8232 8.53564 10.7891 8.53564C10.7208 8.53564 10.6525 8.5143 10.5885 8.46735C10.5245 8.42467 10.4605 8.37772 10.4007 8.33077C10.2172 8.01067 10.1233 7.66496 10.1233 7.29791C10.1233 6.93086 10.23 6.48271 10.4391 5.95775C10.6226 5.53948 10.8062 5.12121 10.994 4.69868C10.8104 5.38156 10.6269 6.06445 10.4391 6.74733C10.4391 6.93939 10.4775 7.11438 10.5586 7.27657C10.6354 7.43875 10.7763 7.5796 10.9726 7.70337C11.0836 7.70337 11.1775 7.61801 11.2586 7.44729C11.3055 7.34486 11.3525 7.28084 11.4037 7.25096L11.3994 7.24669ZM19.4105 9.78617C19.3422 9.84592 19.2654 9.89714 19.18 9.93982C19.0947 9.9825 18.9538 10.038 18.7532 10.1148C18.8429 9.90994 18.9325 9.70081 19.0307 9.49168C19.099 9.34656 19.1715 9.22706 19.2441 9.13316C19.3038 9.20145 19.3465 9.27828 19.3721 9.36364C19.3977 9.449 19.4063 9.58984 19.4063 9.79044L19.4105 9.78617ZM19.8416 12.0824C19.7733 12.1421 19.6794 12.1763 19.5556 12.1763C19.4788 12.1763 19.3935 12.1635 19.2996 12.1336C19.1288 12.0568 18.9837 11.9543 18.8642 11.8178C18.7447 11.6812 18.638 11.519 18.5398 11.3355C18.8386 11.391 19.0819 11.4635 19.2654 11.5617C19.5044 11.6854 19.6965 11.8604 19.8373 12.0824H19.8416ZM16.8198 9.29535C16.7259 9.37644 16.615 9.449 16.4955 9.50875C16.376 9.5685 16.2436 9.62825 16.1028 9.68374C16.0601 9.5685 16.026 9.44473 16.0004 9.31669C15.9748 9.18865 15.9577 9.06061 15.9577 8.93683C15.9577 8.86001 15.962 8.78318 15.9748 8.70209C15.9833 8.621 16.0089 8.53991 16.0516 8.45454C16.1412 8.4332 16.2308 8.44601 16.3162 8.49723C16.3503 8.51857 16.4229 8.56551 16.5296 8.64234C16.6747 8.8472 16.7686 9.06487 16.8156 9.29961L16.8198 9.29535Z" fill="currentColor"/>
</svg>
