<svg width="40" height="16" viewBox="0 0 40 16" fill="none" xmlns="http://www.w3.org/2000/svg">
<path fill-rule="evenodd" clip-rule="evenodd" d="M24.3771 4.5L24.2954 4.80613C24.2699 4.78572 24.224 4.7398 24.1577 4.67348C24.0913 4.60715 24.0352 4.57143 23.9791 4.57143C23.974 4.59694 23.9536 4.76531 23.9281 5.06633C23.9026 5.36735 23.8464 5.58674 23.7648 5.72449C23.6985 5.67858 23.5862 5.4949 23.4383 5.17347C23.3209 4.93368 23.1781 4.82654 22.9995 4.84694C22.9383 4.82143 22.9077 4.77041 22.9077 4.70409C22.9077 4.66327 22.9128 4.62245 22.9281 4.58164C22.9434 4.54082 22.9587 4.5 22.9791 4.45918C23.0454 4.35714 23.0913 4.30613 23.1118 4.30613C23.2291 4.37246 23.3311 4.47449 23.4179 4.61225C23.525 4.82143 23.6373 5.03572 23.7444 5.2449C23.7648 5.07653 23.7903 4.90306 23.8158 4.72449C23.8566 4.52551 23.9281 4.37245 24.0301 4.26531C24.0964 4.28572 24.1475 4.30102 24.173 4.31633C24.2699 4.36225 24.3362 4.42347 24.3771 4.5ZM22.1934 5.7449L21.9995 5.58164C21.775 5.94388 21.4434 6.25511 20.9995 6.52041C20.7597 6.66327 20.3567 6.85204 19.7852 7.09184C20.1679 6.86225 20.5505 6.62755 20.9383 6.38775C21.3822 6.08673 21.6883 5.78062 21.8567 5.45919C21.7903 5.42347 21.7189 5.38265 21.6526 5.33673C21.5709 5.2602 21.5097 5.20919 21.4689 5.17347C21.4893 5.03572 21.5301 4.91837 21.5964 4.81633C21.6628 4.71429 21.7546 4.64796 21.8771 4.62245C22.0556 4.58164 22.1577 4.64286 22.1934 4.80613C22.173 4.84694 22.1577 4.88776 22.1526 4.92858C22.1475 4.96939 22.1424 5 22.1424 5.02041C22.1424 5.08164 22.1781 5.18368 22.2444 5.32654C22.2801 5.40307 22.2954 5.46429 22.2954 5.51021C22.2954 5.57654 22.2597 5.65816 22.1934 5.7449ZM22.2648 7.70408L22.2138 7.72449C22.1934 7.77041 22.173 7.81633 22.1577 7.86225C22.1424 7.90817 22.1067 7.92347 22.0505 7.91837C21.9689 7.81632 21.9281 7.68367 21.9281 7.52041C21.9281 7.45408 21.9383 7.36225 21.9638 7.25511C21.9893 7.14796 22.0046 7.05612 22.0199 6.9898C21.9383 7.17347 21.8771 7.32653 21.8413 7.45409C21.8056 7.58164 21.7852 7.73469 21.7852 7.91837C21.8311 8.04081 21.8618 8.11225 21.8771 8.13266C21.923 8.19898 21.9893 8.22449 22.0709 8.20409C22.1373 8.13776 22.1883 8.06122 22.2189 7.97449C22.2495 7.88775 22.2648 7.80102 22.2648 7.70408ZM26.7852 12.0714C26.6832 12.2092 26.6015 12.3112 26.5403 12.3878C26.4434 12.4898 26.3515 12.5918 26.2648 12.6939C26.224 12.6582 26.076 12.5867 25.8158 12.4694C25.6169 12.3827 25.5046 12.2857 25.4791 12.1837L25.9893 11.6122C26.1781 11.6888 26.326 11.7551 26.4332 11.8112C26.5403 11.8673 26.6577 11.9541 26.7852 12.0714ZM20.275 3.93878C18.576 4.41327 16.872 4.89286 15.173 5.36735C15.0454 5.38265 14.9179 5.44898 14.8005 5.57143C14.6832 5.69388 14.6016 5.81633 14.5607 5.93878L14.6628 5.83674C15.1373 5.63776 15.7189 5.44388 16.3975 5.2449C16.7189 5.14796 17.3107 4.98469 18.173 4.7551C18.923 4.55102 19.5148 4.38265 19.9485 4.2449C20.0556 4.18878 20.1271 4.15306 20.1526 4.13265C20.2291 4.07653 20.2699 4.01531 20.275 3.93878ZM29.3873 5.13266C29.3464 4.80102 29.2495 4.44388 29.1015 4.07143C28.9536 3.69898 28.8107 3.34184 28.673 3C28.4944 3.22449 28.3669 3.47449 28.2852 3.7449C28.3515 4.25 28.4128 4.83164 28.4689 5.5C28.525 6.16837 28.576 6.82654 28.6322 7.4796C28.6883 8.13266 28.7495 8.71429 28.8158 9.22449C28.4026 9.22449 27.8413 9.13265 27.1322 8.94898C26.6424 8.82143 26.3158 8.7398 26.1526 8.70408C26.2291 8.56123 26.275 8.42347 26.3005 8.29592C26.326 8.16837 26.3362 8.00511 26.3362 7.80613C26.3362 7.67858 26.326 7.51531 26.3005 7.31633C26.275 7.11735 26.2546 6.92347 26.2342 6.7347C26.5199 6.53572 26.7189 6.39286 26.826 6.30613C27.0352 6.13776 27.2087 5.96429 27.3362 5.79592L27.5607 5.93878C27.5862 5.83674 27.6015 5.7398 27.6015 5.64286C27.5964 5.56633 27.5862 5.4898 27.5811 5.40816C27.576 5.32653 27.5709 5.2449 27.5709 5.16327C27.5709 5.08163 27.5709 5.01531 27.5811 4.96939C27.5556 4.91326 27.525 4.86225 27.4944 4.80613C27.4638 4.75 27.423 4.72449 27.3669 4.72449C27.2699 4.76021 27.1934 4.81123 27.1373 4.87755C27.0811 4.94388 27.0301 5.03062 26.9893 5.13266C26.9485 5.18878 26.9281 5.2398 26.9281 5.28572C26.9281 5.35205 26.9689 5.42858 27.0505 5.51021C27.0913 5.55103 27.1577 5.61735 27.2546 5.70408C27.0862 5.86735 26.9179 6.0102 26.7546 6.13265C26.5913 6.2551 26.4179 6.37245 26.2342 6.47959C26.1883 6.21429 26.1373 5.93878 26.0862 5.65307C26.0352 5.36735 26.0097 5.11225 26.0097 4.88776C26.0097 4.84694 26.0097 4.79592 26.0097 4.72959C26.0097 4.66326 26.0301 4.55613 26.0556 4.40817C26.0964 4.45409 26.1628 4.55103 26.2495 4.68878C26.3362 4.82654 26.4128 4.92347 26.474 4.97959C26.4791 4.97449 26.4944 4.95918 26.5097 4.93878C26.525 4.91837 26.5403 4.90307 26.5454 4.88776C26.3771 4.4796 26.2087 4.07143 26.0454 3.66327C25.923 3.39796 25.7903 3.19898 25.6475 3.07143C25.5097 3.31122 25.4179 3.56633 25.3617 3.83673C25.5097 4.81633 25.6628 5.79592 25.8107 6.77551L24.8822 7.34694C24.9791 7.34694 25.1832 7.2602 25.5046 7.09184C25.6322 7.02551 25.7546 6.9898 25.8618 6.9898C25.8618 7.02551 25.8873 7.27041 25.9332 7.7347C25.9485 7.87245 25.9536 8.0153 25.9536 8.17347C25.7903 8.17347 25.5658 8.18878 25.2801 8.22449C24.7087 8.29082 24.3362 8.32653 24.1577 8.32653H23.9944C23.9383 8.32653 23.8873 8.32654 23.8311 8.31633C23.7648 8.51531 23.7189 8.64796 23.6985 8.72449C23.6577 8.87245 23.6373 9.0102 23.6373 9.13265C23.7138 9.11735 23.8158 9.11225 23.9536 9.11225C24.2138 9.11225 24.5607 9.17857 24.9944 9.31633C25.4281 9.45408 25.7444 9.53571 25.9332 9.56122C25.4842 9.70918 25.0403 9.86225 24.5964 10.0102C24.0301 10.1939 23.5454 10.3214 23.1373 10.3878C22.8924 10.4286 22.6424 10.449 22.3924 10.449C22.0046 10.449 21.6475 10.3929 21.3209 10.2755C20.9944 10.1582 20.6934 9.96939 20.4128 9.70408C20.3158 9.60714 20.224 9.51021 20.1322 9.40817C20.0403 9.30613 19.9944 9.20918 19.9944 9.12245C19.9944 9.06122 20.0097 9.0051 20.0352 8.94898C19.9689 8.98469 19.5658 9.36735 18.8311 10.102C18.5607 10.3725 18.275 10.5357 17.9842 10.5816C17.8464 10.6275 17.7138 10.6531 17.576 10.6531C17.3464 10.6531 17.1169 10.5918 16.8924 10.4694C16.7138 10.3724 16.5301 10.2296 16.3413 10.0408C16.5862 9.85714 16.8515 9.72959 17.1424 9.65306C17.4332 9.57653 17.7546 9.54082 18.1067 9.54082C18.1628 9.42347 18.2189 9.30612 18.2852 9.17857C18.3515 9.05102 18.3924 8.93368 18.4128 8.82654C17.8822 8.61735 17.423 8.46429 17.0352 8.36735C16.525 8.2398 16.0403 8.17347 15.576 8.17347C15.275 8.17347 14.9944 8.20409 14.7342 8.26021C14.474 8.31633 14.2138 8.40817 13.9638 8.53062C13.923 8.64796 13.8924 8.76531 13.8669 8.88266C13.8413 9 13.8311 9.10714 13.8311 9.20408C13.8311 9.2398 13.8311 9.28571 13.8413 9.34694L14.1985 9.2551C14.4281 9.33164 14.6475 9.43878 14.8516 9.58673C15.0556 9.73469 15.2138 9.90306 15.3209 10.0918C15.1373 10.2194 14.9485 10.3214 14.7597 10.3878C14.5709 10.4541 14.372 10.4898 14.1679 10.4898C14.0454 10.4898 13.9332 10.4745 13.826 10.449C13.7189 10.4235 13.622 10.3724 13.525 10.3061C13.423 10.2602 13.1934 9.96939 12.8311 9.43878C12.7036 9.25 12.5454 9.15307 12.3618 9.15307C12.0709 9.36225 11.826 9.66837 11.6271 10.0714C11.1322 11.0714 10.8158 11.6327 10.6883 11.7551C10.6526 11.7704 10.6016 11.7755 10.5352 11.7755C10.4485 11.7755 10.3516 11.75 10.2546 11.699C10.1577 11.648 10.0148 11.5561 9.83114 11.4286C9.64237 11.2245 9.51482 11 9.45359 10.7551C9.39237 10.5102 9.36176 10.2194 9.36176 9.87755C9.36176 9.71429 9.37196 9.47449 9.39237 9.16326C9.41278 8.85204 9.42298 8.61735 9.42298 8.46939C9.30563 8.53061 9.23931 8.67347 9.2189 8.90306C9.19849 9.13265 9.17808 9.27041 9.15768 9.32653C9.15768 9.38776 9.14747 9.48979 9.12706 9.63265C9.12196 9.73979 9.11686 9.90306 9.11686 10.1224C9.11686 10.7092 9.19339 11.1939 9.35155 11.5816C9.54033 12.0561 9.86176 12.4031 10.3107 12.6224C10.3516 12.6275 10.4077 12.6327 10.474 12.6327C10.8158 12.6327 11.0811 12.3469 11.2699 11.7755C11.3924 11.4082 11.4944 11.1735 11.576 11.0714C11.6526 10.9031 11.7291 10.7296 11.8107 10.5612C11.9791 10.199 12.2036 10.0051 12.4842 9.96939C12.7546 10.4031 12.9383 10.6786 13.0352 10.7857C13.2801 11.0765 13.5505 11.25 13.8413 11.3061C13.8669 11.3061 13.9128 11.3112 13.974 11.3265H14.1067C14.4077 11.3265 14.7036 11.2398 15.0046 11.0714C15.2036 10.9643 15.4485 10.7806 15.7393 10.5204C16.0097 10.8061 16.2546 11.0204 16.474 11.1633C16.7546 11.3418 17.0403 11.4439 17.3413 11.4796C17.3822 11.4847 17.4383 11.4898 17.5046 11.4898C17.9791 11.4898 18.474 11.1888 18.9842 10.5918C19.4077 10.0969 19.622 9.84184 19.6373 9.82653C19.6322 9.88265 19.6271 9.96428 19.6271 10.0714C19.6271 10.4133 19.7036 10.7194 19.8567 10.9949C20.0097 11.2704 20.2342 11.4847 20.5352 11.6429C20.576 11.6582 20.6067 11.6633 20.6271 11.6633C20.7291 11.6633 20.8056 11.5918 20.8515 11.449C20.8771 11.3725 20.9077 11.2602 20.9434 11.1122C20.9689 11.0357 21.0148 11 21.076 11C21.2138 11.0561 21.3515 11.1071 21.4944 11.1633C21.7342 11.2041 21.9638 11.2245 22.1883 11.2245C22.622 11.2245 23.0964 11.1582 23.6066 11.0204C23.8107 10.9643 24.2597 10.8214 24.9536 10.5918C25.5301 10.3878 25.9689 10.25 26.2699 10.1735C26.7597 10.051 27.224 9.9898 27.6577 9.9898C27.9383 9.9898 28.2087 10.0153 28.474 10.0612C28.5505 10.0204 28.6169 9.93368 28.673 9.80613C28.7291 9.67858 28.775 9.59694 28.8107 9.56122C28.8158 9.61734 28.826 9.66837 28.8362 9.71429C28.8464 9.7602 28.8515 9.81633 28.8515 9.87755C28.8515 9.94388 28.8362 10.0051 28.8107 10.0612C28.8311 10.148 28.8464 10.2194 28.8515 10.2653C28.8566 10.3112 28.8617 10.3724 28.8617 10.449C28.8617 10.5969 28.8362 10.8367 28.7903 11.1633C28.775 11.2398 28.7597 11.3673 28.7393 11.551C28.8975 11.2194 29.0046 10.8673 29.0709 10.5051C29.1373 10.1429 29.1679 9.7551 29.1679 9.34694C29.1679 8.97449 29.1475 8.60204 29.1066 8.2347C29.0403 7.66327 28.9689 7.06123 28.8924 6.43368C28.8158 5.80613 28.7801 5.26021 28.7801 4.80613L28.9434 4.5C28.9893 4.56633 29.0658 4.67857 29.1679 4.83674C29.2495 4.96429 29.3209 5.06633 29.3822 5.13266H29.3873ZM24.4995 12.551C24.4026 12.6939 24.2546 12.8061 24.0556 12.8827C23.8567 12.9592 23.5403 13 23.1118 13C23.0964 12.9847 23.0709 12.9643 23.0301 12.9388C22.9536 12.8929 22.923 12.8418 22.9281 12.7857C22.9536 12.648 23.0148 12.5204 23.1067 12.4031C23.1985 12.2857 23.3158 12.1786 23.4587 12.0816C23.3566 12.0204 23.2495 12 23.1424 12.0204C23.0862 12.0765 23.0505 12.1071 23.0301 12.1122C23.0301 12.051 23.0607 11.9847 23.1169 11.9133C23.173 11.8418 23.2393 11.7908 23.3158 11.7551C23.3822 11.7704 23.4587 11.7806 23.5403 11.7959C23.622 11.8112 23.6781 11.8469 23.7138 11.9082C23.7138 12.0255 23.622 12.1429 23.4332 12.2704C23.2444 12.398 23.1526 12.4898 23.1526 12.551C23.1526 12.6122 23.2138 12.6786 23.3362 12.7551C23.576 12.7551 23.7801 12.7398 23.9485 12.7143C24.1169 12.6888 24.3005 12.6327 24.4995 12.551ZM18.3975 5.88776C18.4026 5.94388 18.372 6.03571 18.2954 6.17347L18.0607 5.95918C18.0148 6.28571 17.974 6.52551 17.9485 6.68367C17.8924 6.96939 17.8005 7.17347 17.673 7.29592C17.6577 7.28062 17.576 7.09694 17.4179 6.7347C17.3158 6.5051 17.1628 6.38775 16.9587 6.38775C16.9842 6.28061 17.0148 6.16837 17.0505 6.05102C17.076 5.9898 17.1271 5.95409 17.1934 5.93878C17.2954 6.04082 17.3873 6.16327 17.4689 6.30613C17.5709 6.53062 17.6781 6.75001 17.7852 6.96939C17.7852 6.96429 17.8158 6.7398 17.8771 6.29592C17.9179 6.01531 17.9893 5.80103 18.0913 5.65307C18.1883 5.68878 18.2444 5.70919 18.2648 5.72449C18.3311 5.76531 18.3771 5.82143 18.3975 5.88776ZM15.3669 4.21429C15.3516 4.31123 15.3413 4.40307 15.326 4.4898C15.3005 4.59184 15.2495 4.66837 15.173 4.72449C15.0964 4.7398 15.0352 4.72449 14.9893 4.68367C14.9434 4.64286 14.9026 4.58163 14.8669 4.5C14.8618 4.45918 14.8567 4.39286 14.8567 4.30613C14.8567 4.05613 14.923 3.82143 15.0607 3.60204C15.0607 3.64286 15.0454 3.71939 15.0199 3.83673C14.9944 3.95408 14.9791 4.04592 14.9791 4.11225C14.9791 4.27041 15.0454 4.37245 15.173 4.42857C15.2138 4.42857 15.2495 4.41327 15.275 4.37756C15.3005 4.32143 15.3311 4.27041 15.3669 4.21429ZM12.2444 4.10204C12.2648 4.15816 12.275 4.19899 12.275 4.2347C12.275 4.27552 12.2597 4.33674 12.2291 4.42347C12.1985 4.51021 12.1781 4.56633 12.173 4.60204H11.6424C11.4638 4.86224 11.2393 5.09694 10.9587 5.31633C10.923 5.34184 10.4689 5.62245 9.59135 6.15306C9.69849 6.05613 10.025 5.81123 10.5607 5.41837C10.9638 5.12755 11.2597 4.84184 11.4587 4.57143C11.4128 4.53571 11.3669 4.5 11.3209 4.46429C11.275 4.42858 11.2495 4.37246 11.2444 4.30613C11.2648 4.18878 11.3056 4.06123 11.3669 3.91837C11.4281 3.77551 11.474 3.66326 11.5097 3.58163C11.6577 3.58163 11.8005 3.63266 11.9332 3.7296C12.0658 3.82653 12.1679 3.95408 12.2444 4.10204ZM13.5301 7.34694C13.5301 7.54592 13.4638 7.69388 13.3362 7.79592C13.2699 7.79592 13.2138 7.77041 13.173 7.71429C13.1322 7.65816 13.1016 7.59184 13.0811 7.51021L13.224 6.70409C13.224 6.70409 13.2342 6.76021 13.2342 6.81633C13.2189 6.95919 13.2138 7.06633 13.2138 7.14286C13.2138 7.2296 13.224 7.30612 13.2495 7.36225C13.275 7.41837 13.3209 7.46429 13.3975 7.4898C13.4179 7.47449 13.4332 7.44898 13.4485 7.40306C13.4638 7.35714 13.4893 7.34184 13.5301 7.34694ZM12.9689 5.7449C12.8669 5.94388 12.8056 6.06122 12.7852 6.10204C12.724 6.20408 12.6424 6.31122 12.5403 6.42857C12.474 6.42347 12.3822 6.38265 12.275 6.31633C12.1679 6.25 12.0913 6.20408 12.0454 6.18368C11.9995 6.16327 11.9587 6.14286 11.9179 6.12245C11.8311 6.07653 11.7699 6.03061 11.7444 5.9898C11.7189 6.0051 11.6169 6.15817 11.4485 6.44898C11.3873 6.55613 11.3158 6.61224 11.2342 6.61224C11.1577 6.61224 11.076 6.57653 10.9791 6.5C10.9536 6.45918 10.872 6.41837 10.7342 6.37756C10.5965 6.33674 10.5301 6.29082 10.5301 6.2347C10.5301 6.17858 10.5607 6.12245 10.622 6.06122C10.7393 5.89796 10.8567 5.72959 10.9791 5.56123C11.2597 5.67857 11.525 5.81122 11.775 5.95918L12.224 5.33673C12.4332 5.43878 12.5607 5.5 12.6016 5.52041C12.7291 5.58674 12.8516 5.66327 12.9689 5.7449ZM16.724 12.2347C16.622 12.4337 16.4638 12.5918 16.2495 12.7092C16.0352 12.8265 15.8005 12.8878 15.5505 12.8878C15.4893 12.8827 15.4434 12.8775 15.4179 12.8775C15.275 12.8316 15.1934 12.75 15.173 12.6429C15.1883 12.5255 15.2189 12.4235 15.275 12.3265C15.3311 12.2296 15.4026 12.1276 15.4995 12.0204C15.4332 11.9745 15.3822 11.9439 15.3567 11.9286C15.3107 11.8929 15.275 11.852 15.2546 11.8061C15.3005 11.602 15.4128 11.4541 15.5811 11.3571C15.6985 11.3418 15.7852 11.3673 15.8464 11.4286C15.8413 11.4643 15.8209 11.5 15.7852 11.5357C15.7495 11.5714 15.7189 11.6071 15.6832 11.6429C15.6271 11.602 15.5658 11.5867 15.4995 11.5918L15.4587 11.6122C15.5607 11.6786 15.6322 11.7245 15.6781 11.75C15.724 11.7755 15.7648 11.7857 15.8056 11.7857C15.8464 11.7857 15.8873 11.7755 15.923 11.75C15.9587 11.7245 16.0046 11.699 16.0505 11.6684C16.0964 11.6378 16.1373 11.6173 16.1628 11.6122C16.1475 11.7347 15.974 11.898 15.6424 12.102C15.4842 12.199 15.4077 12.2857 15.4077 12.3673C15.4077 12.4337 15.4485 12.5102 15.5301 12.5918C15.5862 12.6071 15.6628 12.6122 15.7648 12.6122C15.9638 12.6122 16.1679 12.5561 16.3873 12.4388C16.4638 12.398 16.576 12.3316 16.724 12.2347ZM10.1934 7.06123C10.1934 7.31123 10.1526 7.55102 10.076 7.77551C9.99951 8 9.87706 8.19388 9.7138 8.35714C9.59135 8.39286 9.4638 8.35715 9.33625 8.2449C9.2189 8.08164 9.13727 7.90306 9.08114 7.70408C9.02502 7.5051 8.99951 7.30102 8.99951 7.09184C8.99951 6.72449 9.08625 6.31122 9.25461 5.84694C9.37706 5.52041 9.55563 5.14796 9.78523 4.72449C9.68318 5.01021 9.58625 5.29082 9.48931 5.57143C9.38216 5.92347 9.32604 6.23469 9.32604 6.5C9.32604 6.70408 9.35665 6.88775 9.41278 7.05102C9.4689 7.21429 9.57094 7.36735 9.7138 7.51021C9.80053 7.53062 9.87706 7.51021 9.93318 7.45409C9.98931 7.39796 10.0403 7.32143 10.0811 7.2245C10.0965 7.17858 10.1067 7.13776 10.1169 7.10204C10.1271 7.06633 10.1526 7.05612 10.1934 7.06123ZM27.4179 5.40816L27.1322 5.13266C27.1679 5.07653 27.2036 5.05102 27.2444 5.05102C27.2852 5.05102 27.3209 5.07653 27.3566 5.13266C27.3924 5.18878 27.4128 5.2398 27.4179 5.29592V5.40816ZM21.9995 5.20408V5.09184C22.0148 4.97449 21.9587 4.91837 21.8362 4.91837C21.7903 4.91837 21.7495 4.93878 21.7138 4.97959L21.9995 5.20408ZM12.0607 4.29592H11.8158L11.8362 4.10204C11.8822 4.10714 11.923 4.12756 11.9587 4.16327C11.9944 4.19899 12.025 4.2398 12.0607 4.29592ZM11.6424 4.2449C11.5607 4.2602 11.4944 4.23469 11.4383 4.17347L11.4587 4.10204C11.5607 4.08674 11.622 4.13776 11.6424 4.2449ZM16.5199 9.15307L15.9281 9.59184L15.4587 9.06122C15.5046 9.06122 15.7291 9.08673 16.1322 9.13265C16.2495 9.14796 16.3771 9.15307 16.5199 9.15307Z" fill="currentColor"/>
</svg>
