<svg width="40" height="16" viewBox="0 0 40 16" fill="none" xmlns="http://www.w3.org/2000/svg">
<path fill-rule="evenodd" clip-rule="evenodd" d="M27.2447 3.30538C27.2017 3.45161 27.0984 3.56774 26.935 3.65806C26.9092 3.67097 26.7587 3.73548 26.492 3.84301C25.1931 4.26452 23.9371 4.74624 22.7328 5.29677C23.021 4.9957 23.4855 4.72043 24.1264 4.47097C24.4361 4.35484 24.75 4.23871 25.064 4.11828C25.7866 3.85161 26.5135 3.57634 27.2404 3.30108L27.2447 3.30538ZM26.5651 5.82581C26.4748 5.97204 26.4103 6.07527 26.3673 6.14409C26.2855 6.27312 26.2081 6.38064 26.1393 6.46237C25.9587 6.35914 25.8253 6.28172 25.735 6.23441C25.5716 6.13979 25.4726 6.04516 25.4468 5.95484L25.9328 5.51183L26.5608 5.82151L26.5651 5.82581ZM22.0963 4.90538C22.1565 4.72473 22.1909 4.53979 22.1909 4.34624C22.1909 4.02796 22.1135 3.75269 21.963 3.51183L22.0963 3.27527C22.1651 3.35699 22.2167 3.46452 22.2511 3.58925C22.2855 3.71828 22.3027 3.84731 22.3027 3.97634C22.3027 4.30753 22.2339 4.6172 22.0963 4.90538ZM27.3522 9.75699C27.5371 9.45591 27.6318 9.11613 27.6318 8.74624C27.6318 8.34194 27.5242 7.99785 27.3135 7.71398C27.0468 7.33548 26.6683 7.14624 26.1866 7.14624C25.9113 7.27097 25.6963 7.47312 25.5371 7.75699C25.421 7.96344 25.3307 8.24731 25.2705 8.6043C25.4081 8.92258 25.7436 9.09462 26.2812 9.12903C26.8189 9.16344 27.1328 9.20645 27.2318 9.25376C27.2576 9.35699 27.249 9.43871 27.2017 9.50323C26.9393 9.58495 26.5092 9.73118 25.9113 9.93763C25.4038 10.0968 24.9393 10.2086 24.5178 10.2774C24.2511 10.3204 23.9845 10.3376 23.7221 10.3376C23.3565 10.3376 23.021 10.2946 22.7113 10.2043C22.4017 10.114 22.1092 9.96774 21.8339 9.76129C21.5802 9.30538 21.4124 8.72903 21.3393 8.02796C21.2963 7.62796 21.2748 7.0043 21.2662 6.14839C21.2576 5.29677 21.2232 4.65161 21.1544 4.2172C21.1328 4.05806 21.1113 3.88172 21.0941 3.69247C21.0726 3.49893 21.0339 3.4043 20.9694 3.4043C20.9221 3.4043 20.8576 3.46882 20.7845 3.60215C20.7285 3.67097 20.6941 3.73118 20.6769 3.7871C20.6597 3.84301 20.6511 3.91613 20.6511 4.00215C20.6511 4.08817 20.6941 4.30323 20.7759 4.63011C20.8103 4.76774 20.8275 4.88387 20.8275 4.9828C20.9092 5.43011 20.9608 6.07527 20.9823 6.91828C21.0038 7.76129 21.0339 8.35914 21.0769 8.70753C21.1544 9.3957 21.3049 9.96344 21.5328 10.4108C21.7393 10.643 21.9931 10.8108 22.2898 10.9054C22.5909 11 22.9178 11.0516 23.2748 11.0516C23.4597 11.0516 23.6189 11.0473 23.7479 11.0344C23.8769 11.0258 24.0705 11 24.3242 10.957C24.8619 10.828 25.3995 10.6903 25.9457 10.5527C26.5737 10.372 27.0425 10.1097 27.3608 9.75699H27.3522ZM24.4619 6.50538L24.3673 6.72043C24.3328 6.72043 24.2812 6.70323 24.2124 6.66452C24.1436 6.62581 24.0963 6.6086 24.0662 6.6086C24.0103 6.6086 23.9716 6.63441 23.9544 6.69032C23.9328 6.74624 23.9027 6.90108 23.8597 7.15484C23.8167 7.4086 23.7608 7.59355 23.6834 7.71398C23.5543 7.46021 23.421 7.20645 23.292 6.94839C23.2834 6.9914 23.2662 7.0086 23.2318 7.0086C23.1414 6.96129 23.0812 6.93118 23.0468 6.92688C22.978 6.90108 22.9436 6.84946 22.9436 6.77204C22.9436 6.72473 22.9522 6.68602 22.9651 6.66021L22.9952 6.6C23.0296 6.55269 23.0597 6.50968 23.0812 6.47527C23.107 6.44086 23.1285 6.41505 23.15 6.39355C23.2533 6.44946 23.3479 6.53979 23.4382 6.67312C23.4597 6.70753 23.5544 6.91398 23.7264 7.29247C23.7608 7.12903 23.7995 6.95699 23.8382 6.78495C23.8984 6.5914 23.9974 6.44516 24.1264 6.34194C24.1866 6.32903 24.2468 6.33764 24.2984 6.36774C24.35 6.39785 24.4017 6.44516 24.4576 6.50538H24.4619ZM26.0619 11.5333C26.049 11.6495 26.0232 11.7484 25.9888 11.8258C25.9544 11.9032 25.8898 11.9591 25.7909 11.9849C25.7307 12.0108 25.6748 12.0065 25.6318 11.9677C25.5888 11.929 25.5543 11.886 25.5371 11.8344C25.5199 11.7828 25.5113 11.7183 25.5113 11.6452C25.5113 11.5161 25.5328 11.3957 25.5802 11.2839C25.6232 11.172 25.692 11.0559 25.7823 10.9312C25.7565 11.0258 25.7307 11.1204 25.7049 11.2151C25.6791 11.3097 25.6705 11.3828 25.6705 11.4387C25.6705 11.5548 25.7092 11.6538 25.7823 11.7269C25.8425 11.7484 25.8984 11.7183 25.9457 11.6452C25.9931 11.5677 26.0318 11.5333 26.0576 11.5333H26.0619ZM19.0081 3.59355L18.9479 3.86022C18.9135 3.84731 18.8533 3.8086 18.7673 3.75269C18.6812 3.69247 18.6124 3.66667 18.5565 3.66667C18.535 3.73548 18.5178 3.92043 18.5006 4.2172C18.4834 4.51828 18.4017 4.70753 18.2597 4.78925C18.2124 4.72043 18.1651 4.63441 18.1135 4.53118C18.0103 4.29892 17.9285 4.14409 17.864 4.07527L17.7909 4.16989C17.735 4.13548 17.6791 4.10108 17.6275 4.06667C17.55 4.01075 17.507 3.95484 17.4941 3.89032C17.5199 3.77849 17.55 3.68817 17.5802 3.61505C17.6103 3.54194 17.6662 3.52903 17.7522 3.56774C17.8984 3.67097 18.0275 3.83871 18.1436 4.07527C18.2339 4.25591 18.2898 4.37204 18.3199 4.42796C18.3285 4.40215 18.363 4.2172 18.4232 3.88172C18.4662 3.65376 18.535 3.48602 18.6382 3.37419C18.707 3.37419 18.7716 3.3914 18.8361 3.43011C18.8963 3.46882 18.9565 3.52043 19.0124 3.58925L19.0081 3.59355ZM23.107 8.62151C23.1285 8.66452 23.1371 8.70323 23.1371 8.74624C23.1371 8.80645 23.1242 8.86237 23.1027 8.90538C23.0769 8.94839 23.0296 9.0129 22.9522 9.09462C22.8705 9.12043 22.7974 9.11613 22.7414 9.07742C22.6812 9.03871 22.6425 8.9914 22.6167 8.93118C22.5909 8.87097 22.5823 8.81075 22.5823 8.74193C22.5823 8.6129 22.6253 8.46667 22.7156 8.30753C22.763 8.23011 22.8103 8.15269 22.8619 8.07097C22.8748 8.12688 22.8533 8.2172 22.8017 8.33763C22.7457 8.46237 22.7199 8.54839 22.7199 8.5957C22.7199 8.68602 22.7673 8.75914 22.8662 8.81075C22.9436 8.83656 22.9952 8.81075 23.0296 8.73763C23.064 8.66022 23.0898 8.62151 23.1113 8.6129L23.107 8.62151ZM17.6877 6.6172C17.7092 6.68602 17.7006 6.75914 17.6662 6.83226C17.6318 6.90968 17.5888 6.97849 17.5328 7.04731C17.4769 7.05591 17.4296 7.03871 17.3952 6.9957C17.3565 6.95269 17.3178 6.90108 17.2748 6.83226C17.2533 6.75484 17.2447 6.68602 17.2447 6.62581C17.2447 6.54409 17.2576 6.45376 17.2877 6.36344C17.3135 6.26882 17.3522 6.16129 17.3995 6.03656C17.3995 6.07097 17.3909 6.13118 17.378 6.22151C17.3651 6.31183 17.3565 6.38065 17.3565 6.42796C17.3565 6.5914 17.421 6.70323 17.5544 6.75914L17.6877 6.6129V6.6172ZM13.8769 3.3957C13.8898 3.47312 13.8683 3.55914 13.8167 3.66237C13.7565 3.61505 13.7006 3.58925 13.6533 3.58925C13.6189 3.58925 13.5931 3.60215 13.5716 3.63226C13.5113 3.73548 13.464 3.94624 13.4382 4.26882C13.4124 4.5871 13.3436 4.78925 13.2318 4.87097L12.8404 4.09677C12.8189 4.12258 12.7974 4.13978 12.7673 4.13978C12.7371 4.13978 12.6984 4.12258 12.6468 4.09247C12.5952 4.06237 12.5479 4.03226 12.5092 4.00645C12.4662 3.96344 12.449 3.91183 12.449 3.85161C12.449 3.8172 12.4576 3.76989 12.4748 3.71398C12.492 3.65376 12.5049 3.61075 12.5092 3.57634C12.5522 3.49892 12.5952 3.46452 12.6425 3.46452C12.6683 3.46452 12.707 3.48172 12.7544 3.51613C12.8447 3.61075 12.9221 3.73118 12.9909 3.87742C13.0941 4.09677 13.1974 4.31613 13.3006 4.52688C13.3221 4.30753 13.3436 4.08387 13.3737 3.85591C13.421 3.61505 13.5199 3.43441 13.6748 3.30968C13.7995 3.29677 13.8683 3.32688 13.8812 3.4043L13.8769 3.3957ZM20.0791 8.9914C20.0189 8.86237 19.8984 8.72903 19.7264 8.6C19.6361 8.53118 19.507 8.43656 19.335 8.31613C19.163 8.1957 18.9995 8.10968 18.849 8.05806C18.6984 8.00645 18.5436 7.98065 18.3845 7.98065C17.9156 7.98065 17.3436 8.26452 16.6726 8.83656C16.1307 9.29677 15.8339 9.54624 15.7866 9.58065C15.8468 9.33118 15.8898 9.10753 15.9156 8.90968C15.9414 8.71183 15.95 8.47097 15.95 8.1957C15.95 8.00215 15.9414 7.8129 15.9285 7.62796C15.9156 7.44301 15.8984 7.26236 15.8812 7.09032C15.864 6.91828 15.8124 6.5828 15.7307 6.08817C15.6189 5.4129 15.5673 4.89247 15.5673 4.51828L15.6705 4.29032L16.0017 4.73333C16.0017 4.44946 15.9371 4.14839 15.8038 3.82581C15.7479 3.69677 15.6103 3.42151 15.3909 3L15.1027 3.50753C15.1242 3.71398 15.1931 4.29462 15.3092 5.25376C15.3221 5.36559 15.3909 5.95054 15.5156 7.0086C15.5974 7.71828 15.6619 8.30753 15.7006 8.77204C15.692 8.81505 15.692 8.87957 15.692 8.96989C15.692 9.03871 15.692 9.15054 15.7006 9.30108C15.7006 9.43011 15.6834 9.55054 15.6533 9.65806C15.6232 9.76559 15.5673 9.84731 15.4812 9.91183C15.3307 10.1054 15.0683 10.2774 14.6984 10.428C14.2425 10.6129 13.9414 10.7634 13.7952 10.8753C13.649 10.9871 13.4339 11.1892 13.15 11.4774C12.9522 11.6753 12.8146 11.8129 12.7457 11.8817C12.5393 12.0796 12.3414 12.2301 12.1565 12.329C11.9716 12.428 11.7651 12.4667 11.5371 12.4495C11.421 12.3677 11.335 12.2774 11.2834 12.1828C11.2318 12.0882 11.206 11.9849 11.206 11.8731C11.3694 11.4043 11.5371 10.9355 11.7006 10.471C11.4726 10.8366 11.3479 11.043 11.3178 11.0903C11.1027 11.4903 10.9995 11.8731 10.9995 12.2344C11.0425 12.4151 11.1113 12.5742 11.206 12.7204C11.3006 12.8667 11.4296 12.957 11.5888 13C11.9759 13 12.4232 12.7333 12.9393 12.2043C13.2705 11.8602 13.5113 11.6366 13.6619 11.5333C14.0189 11.2925 14.4361 11.1075 14.9092 10.9742C15.2662 10.8796 15.7221 10.8021 16.2726 10.7462C16.5823 10.7204 17.0296 10.6774 17.6103 10.6172C18.1909 10.557 18.6683 10.471 19.0382 10.3548C19.335 10.2989 19.5759 10.1226 19.7608 9.83011C19.8984 9.61505 20.0017 9.33978 20.0705 8.9957L20.0791 8.9914ZM13.8554 5.35699C13.8554 5.52903 13.7135 5.62366 13.4339 5.64516C13.15 5.66667 12.9823 5.73978 12.9264 5.86021C12.9393 5.97204 12.9866 6.1957 13.0597 6.53118C13.0941 6.69462 13.1199 6.83656 13.1414 6.95269C13.163 7.06882 13.1759 7.15484 13.1845 7.21075C13.1931 7.26667 13.1931 7.35269 13.1931 7.46882C13.1931 7.66667 13.163 7.86882 13.0984 8.06667C13.1328 7.95054 13.15 7.84301 13.15 7.74839C13.15 7.58495 13.1156 7.3914 13.0425 7.17204C12.9694 6.95269 12.9049 6.74624 12.8533 6.55699C12.7974 6.36774 12.7716 6.2129 12.7716 6.09677C12.7716 5.92473 12.8146 5.77849 12.9049 5.65806C12.9952 5.53763 13.15 5.43441 13.3694 5.35269C13.3264 5.30538 13.2705 5.27957 13.1931 5.27957C13.1242 5.27957 13.064 5.29677 13.0081 5.33118L12.9479 5.45591C12.9221 5.42151 12.9178 5.36559 12.9436 5.29247C12.9694 5.21505 12.9995 5.14624 13.0425 5.08602C13.1113 5.03871 13.1845 5.0129 13.2576 5.0129C13.3479 5.0129 13.4511 5.05161 13.5673 5.12473C13.6146 5.15054 13.7135 5.22796 13.8554 5.35269V5.35699ZM19.3995 11.1462C19.2533 11.2753 19.0855 11.3914 18.892 11.486C18.763 11.5548 18.5737 11.6323 18.3242 11.7226C18.0748 11.8129 17.8898 11.8774 17.7651 11.9204C17.5156 12.0108 17.3264 12.0882 17.1974 12.157C17.1716 12.1226 17.1802 12.0753 17.2275 12.0194C17.2748 11.9591 17.3006 11.9204 17.3006 11.8989C17.7694 11.7183 18.1178 11.5892 18.3544 11.5075C18.8103 11.3441 19.1544 11.2237 19.3952 11.1462H19.3995ZM14.578 8.36774C14.578 8.44516 14.5651 8.52258 14.5436 8.6043C14.5178 8.68602 14.4877 8.76774 14.4447 8.85376C14.363 8.89677 14.2812 8.86237 14.2081 8.75054C14.1737 8.70323 14.1436 8.65161 14.1135 8.5957C14.1006 8.54839 14.092 8.47527 14.092 8.38064C14.092 8.17419 14.1522 7.97204 14.2683 7.76989C14.2253 7.87312 14.2081 7.98925 14.2081 8.12258C14.2081 8.25591 14.2339 8.37204 14.2898 8.48387C14.3371 8.52688 14.3888 8.56129 14.4447 8.5957C14.4576 8.5828 14.4748 8.54409 14.492 8.47527C14.5092 8.41075 14.5393 8.37204 14.578 8.36774ZM12.5049 9.18495C12.4361 9.4043 12.3673 9.62366 12.2984 9.83441C12.2038 10.0839 12.0748 10.2559 11.9156 10.3505C11.7866 10.3505 11.6662 10.3118 11.5544 10.2387C11.4425 10.1613 11.3651 10.0624 11.3178 9.93763C11.2834 9.75269 11.2662 9.58495 11.2662 9.44301C11.2662 9.06452 11.3608 8.64301 11.5457 8.1828C11.5931 8.06667 11.778 7.67957 12.092 7.02581C11.9285 7.61075 11.7651 8.1914 11.606 8.77204C11.606 8.93548 11.6318 9.08172 11.6834 9.20645C11.735 9.33118 11.8339 9.45591 11.9759 9.57634C12.0232 9.60215 12.0662 9.61935 12.1006 9.61935C12.1694 9.61935 12.2425 9.54624 12.3156 9.4043C12.3931 9.25806 12.4533 9.18925 12.5006 9.18925L12.5049 9.18495ZM26.8533 8.36774C26.7587 8.38065 26.6855 8.38925 26.6382 8.38925C26.3027 8.38925 25.9974 8.27312 25.7307 8.03656C25.7221 7.99355 25.735 7.96344 25.7651 7.93763C25.7952 7.91183 25.8511 7.88602 25.9242 7.86021C26.1092 7.86021 26.2812 7.90323 26.4361 7.99355C26.5909 8.08387 26.7285 8.2086 26.8533 8.36344V8.36774ZM19.5673 9.55484C19.064 9.71398 18.4533 9.83011 17.7307 9.90753C17.3178 9.95054 16.6898 10.0022 15.8425 10.071C16.092 9.84301 16.3414 9.61505 16.5952 9.3914C17.1113 8.94409 17.5802 8.72043 17.9974 8.72043C18.1608 8.72043 18.3371 8.75054 18.5221 8.81505C18.7888 8.95269 18.978 9.05591 19.0898 9.12473C19.2834 9.24946 19.4425 9.3914 19.563 9.55914L19.5673 9.55484Z" fill="currentColor"/>
</svg>
