<svg width="40" height="16" viewBox="0 0 40 16" fill="none" xmlns="http://www.w3.org/2000/svg">
<path fill-rule="evenodd" clip-rule="evenodd" d="M27.2793 3.6547C27.3628 3.68679 27.4077 3.75097 27.4077 3.83441C27.4077 3.86009 27.3885 3.89218 27.3564 3.93069C27.3243 3.9692 27.2922 4.00771 27.2665 4.05264C27.2472 4.03338 27.228 4.02054 27.2023 4.00771C27.1766 3.99487 27.151 3.98845 27.1253 3.98845C27.0483 3.98845 26.9327 4.07189 26.7787 4.23236C26.6247 4.39282 26.5091 4.48267 26.4321 4.48909C26.2588 4.58537 26.1368 4.64956 26.0598 4.69449C25.7774 4.84853 25.5656 4.95123 25.418 5.00258C25.9379 4.63673 26.4642 4.26444 26.9969 3.88575C26.8942 3.78948 26.8172 3.72531 26.7659 3.68038C26.6696 3.59694 26.6247 3.51349 26.6247 3.43647C26.6247 3.4108 26.6439 3.37229 26.6824 3.31452C26.7209 3.25675 26.798 3.19257 26.9071 3.11555C27.0162 3.03853 27.106 3 27.1766 3C27.2858 3 27.3564 3.08346 27.382 3.25675C27.382 3.32736 27.382 3.39795 27.382 3.46856C27.382 3.53916 27.3435 3.60335 27.2858 3.6547H27.2793ZM25.2254 3.73172C25.2832 3.73172 25.341 3.69963 25.3987 3.63544C25.4565 3.57126 25.4757 3.51348 25.4565 3.46213C24.667 3.68678 23.884 3.90502 23.1073 4.11683L18.1523 5.68294C18.056 5.74071 17.9854 5.80489 17.9405 5.86266C17.8955 5.92042 17.8634 5.99744 17.857 6.08088L17.9084 6.0552C19.1086 5.61875 20.3153 5.20797 21.5412 4.82287C22.6195 4.48269 23.8455 4.11682 25.2254 3.73172ZM26.8044 12.9486C26.6953 12.8909 26.6375 12.801 26.6375 12.6791C26.6375 12.647 26.6632 12.5892 26.7081 12.5122C26.753 12.4352 26.8557 12.3453 27.0098 12.249C27.1638 12.1528 27.2793 12.0757 27.3564 12.0244C27.2472 11.9474 27.1189 11.9089 26.9841 11.9089C26.9135 11.9089 26.8621 11.9153 26.83 11.9345L26.753 11.9602C26.7594 11.8896 26.798 11.8254 26.8686 11.7612C26.9392 11.6971 27.0033 11.6585 27.0739 11.6521C27.1766 11.6457 27.2729 11.6521 27.3692 11.6778C27.4526 11.7227 27.5425 11.7612 27.6388 11.7933C27.6837 11.9474 27.5746 12.095 27.3243 12.2362C27.0739 12.3774 26.9456 12.4737 26.9456 12.525C26.9456 12.5828 27.0033 12.647 27.1125 12.7176C27.1638 12.724 27.2344 12.7304 27.3178 12.7304C27.504 12.7304 27.703 12.6983 27.9019 12.6277C28.1009 12.5571 28.2999 12.4929 28.486 12.4352C28.3576 12.5892 28.1715 12.724 27.934 12.8331C27.6965 12.9422 27.4526 13 27.2023 13C27.0483 13 26.9135 12.9807 26.8044 12.9486ZM22.4526 6.55584C22.4205 6.56226 22.3499 6.54943 22.2472 6.5045C22.1446 6.45957 22.0675 6.45957 22.0162 6.5045C21.9456 6.61362 21.8621 6.85752 21.7594 7.22337C21.7081 7.40309 21.6503 7.55071 21.5926 7.65982C21.5605 7.61489 21.4706 7.41592 21.3358 7.05648C21.2395 6.79974 21.0727 6.67137 20.8352 6.67137C20.7774 6.6457 20.7453 6.60719 20.7453 6.55584C20.7453 6.52375 20.7582 6.4724 20.7774 6.41464C20.7967 6.35687 20.8159 6.31836 20.8223 6.29911C20.9186 6.17716 21.0021 6.12581 21.0791 6.14507C21.2139 6.27344 21.3294 6.44032 21.4128 6.64571C21.4963 6.8511 21.5797 7.05008 21.6568 7.24905C21.7081 7.05008 21.7594 6.85751 21.8108 6.65854C21.8878 6.44673 21.9969 6.28628 22.1446 6.18358C22.2152 6.18358 22.2858 6.18358 22.3564 6.18358C22.427 6.18358 22.4847 6.22851 22.5297 6.30553L22.4526 6.54942V6.55584ZM19.5258 3.77023L15.1484 5.36202C15.0971 5.40694 15.0521 5.44544 15.0072 5.49037C15.0136 5.40693 15.0586 5.31708 15.1292 5.23364C15.1998 5.1502 15.2832 5.08602 15.3666 5.04109C16.8365 4.52119 18.3127 3.99488 19.7954 3.47498C19.789 3.53275 19.7569 3.5905 19.7055 3.64185C19.6542 3.6932 19.5964 3.73813 19.5258 3.77023ZM19.9109 9.2131C19.866 9.21952 19.8275 9.2131 19.7826 9.18742C19.6991 9.13608 19.6478 9.0719 19.6413 8.99488C19.6413 8.78948 19.712 8.55198 19.8467 8.27599C19.9173 8.1412 19.9879 8.00001 20.065 7.85239C20.065 7.92299 20.0393 8.01284 19.9879 8.12195C19.866 8.38511 19.8082 8.55199 19.8082 8.62259C19.8082 8.73171 19.866 8.82157 19.9751 8.89218L20.1677 8.64827C20.1933 8.72529 20.1805 8.81514 20.1227 8.91784C20.065 9.02053 19.9944 9.11683 19.9109 9.2131ZM30.0393 10.0218C30.1612 9.86777 30.2254 9.76508 30.2447 9.70732C30.2639 9.64955 30.2639 9.60463 30.2447 9.57254C29.2755 9.57254 28.2229 9.45058 27.0868 9.20668C25.9507 8.96278 24.8532 8.71887 23.8005 8.48139C24.7505 7.98716 25.7132 7.55713 26.6888 7.19769C26.7402 7.24262 26.8172 7.35815 26.9199 7.55712C26.952 7.62773 26.9969 7.67908 27.0483 7.72401C27.0419 7.53787 27.029 7.34532 27.0226 7.14635C27.1766 7.12068 27.3371 7.09501 27.504 7.06933C27.6709 7.04366 27.8249 7.0308 27.9725 7.0308C28.0496 7.0308 28.1458 7.03723 28.2678 7.05648L28.6015 6.31194C28.4218 5.94608 28.1843 5.62517 27.8827 5.36202C27.5425 5.06035 27.1895 4.89345 26.83 4.84852C26.7466 4.89345 26.676 4.93198 26.6182 4.96407C26.5605 4.99616 26.5155 5.04108 26.4706 5.09243C26.3487 5.2914 26.2588 5.46471 26.201 5.61875C26.1176 5.83056 26.0727 6.02311 26.0727 6.19641C26.0727 6.27985 26.0855 6.37612 26.1112 6.4724C26.1368 6.56868 26.1689 6.65213 26.2139 6.72273L24.314 7.60848C24.0508 7.78178 23.7813 7.94866 23.5181 8.10912C22.9533 8.46856 22.6516 8.86007 22.6067 9.27727C22.6259 9.27085 22.6516 9.25161 22.6837 9.23236C22.7158 9.2131 22.7415 9.19384 22.7479 9.18742C23.3191 9.24519 23.9674 9.34789 24.6799 9.49552C25.3923 9.64314 26.0791 9.78433 26.7402 9.91912L25.4693 10.3813C24.8275 10.638 24.1856 10.8305 23.5374 10.9653C22.8891 11.1001 22.2152 11.1643 21.5155 11.1643C20.925 11.1643 20.3538 11.1065 19.7954 10.991C19.237 10.8755 18.7299 10.7022 18.2678 10.4711C18.0431 10.3748 17.8763 10.2015 17.7672 9.9448C17.7607 9.91912 17.6901 9.69448 17.5618 9.26444C17.4334 9.36714 17.1446 9.75867 16.6888 10.4326C16.3551 10.9397 15.97 11.19 15.5335 11.19C15.3795 11.2157 15.2319 11.19 15.0971 11.1001C15.065 11.0809 14.9494 10.991 14.7633 10.8177C14.5643 10.5289 14.4167 10.2272 14.3076 9.91912C14.1985 9.61103 14.0637 9.02055 13.8904 8.14763C13.7684 7.56355 13.6465 7.10783 13.5181 6.77407C13.3384 6.30552 13.0945 5.90758 12.7864 5.59307C12.7094 5.67651 12.658 5.75995 12.626 5.83698C12.5939 5.914 12.581 5.99744 12.581 6.08088C12.581 6.25418 12.658 6.4724 12.8121 6.73556C13.0111 7.06932 13.1202 7.27471 13.1458 7.35173C13.2293 7.57637 13.3191 7.79462 13.4026 8.00642C13.5759 8.46214 13.6593 8.84724 13.6593 9.16174C13.6593 9.181 13.6593 9.24519 13.6465 9.36714C13.6401 9.48909 13.6208 9.58536 13.5951 9.66238C13.3384 9.99614 13.0688 10.2978 12.78 10.5738C12.4912 10.8498 12.1895 11.0937 11.8622 11.3055C11.1754 11.7484 10.4501 11.973 9.67987 11.973C9.44239 11.7741 9.32044 11.5302 9.32044 11.2413C9.32044 11.0937 9.36536 10.8755 9.46164 10.5866C9.64136 10.0411 9.73122 9.68164 9.73122 9.52118C9.66061 9.54685 9.6221 9.59179 9.60285 9.65598C9.58359 9.72016 9.56434 9.79076 9.53866 9.8742C9.51299 9.95764 9.40388 10.285 9.2049 10.8691C9.07012 11.2606 8.99951 11.5879 8.99951 11.8447C8.99951 12.1848 9.09579 12.4801 9.29476 12.7176C9.42313 12.8203 9.58359 12.8716 9.78257 12.8716C9.87884 12.8716 9.98796 12.8588 10.1163 12.8331C10.2447 12.8074 10.3666 12.7882 10.4758 12.7689C10.8801 12.6149 11.2267 12.4608 11.5284 12.3068C11.9071 12.1078 12.2601 11.8768 12.5874 11.6136C12.9148 11.3504 13.1908 11.0488 13.4026 10.7214C13.6144 10.3941 13.7428 10.0283 13.7877 9.63672C13.8455 9.84212 13.9353 10.1566 14.0444 10.5738C14.1535 10.9268 14.2819 11.2092 14.4295 11.4339C14.5836 11.6329 14.7312 11.7741 14.866 11.8703C15.0457 11.9987 15.2319 12.0629 15.418 12.0629C15.495 12.0629 15.5785 12.0501 15.6747 12.0244C16.0149 11.9474 16.323 11.7099 16.5862 11.3184C16.7851 10.9782 16.9841 10.6316 17.1895 10.2914C17.1702 10.4134 17.1638 10.4968 17.1638 10.5481C17.1638 10.9397 17.2986 11.3248 17.5746 11.7035C17.6965 11.8639 17.9854 12.172 18.4475 12.6277C18.608 12.5764 18.7235 12.4288 18.7941 12.1784C18.8005 12.1463 18.8326 11.9281 18.884 11.5237C19.2755 11.6842 19.667 11.8062 20.0457 11.8768C20.4244 11.9474 20.8159 11.9859 21.2203 11.9859C21.9327 11.9859 22.7222 11.8575 23.5951 11.6072C24.468 11.3569 25.3089 11.1001 26.124 10.8434C27.0932 10.5417 27.9148 10.362 28.6015 10.2914C28.7107 10.2657 28.961 10.24 29.3397 10.2208C29.7184 10.2015 29.9558 10.1309 30.0393 10.0218ZM14.5708 4.75868C14.4937 4.73942 14.4295 4.71374 14.3782 4.66881C14.3268 4.62388 14.3012 4.56611 14.3012 4.48909C14.3012 4.23877 14.3461 4.01413 14.4424 3.80873C14.5387 3.60334 14.6863 3.43004 14.8917 3.28241C14.7569 3.57125 14.6221 3.86651 14.4937 4.15534C14.4937 4.23878 14.5258 4.34147 14.5964 4.45058C14.7184 4.47626 14.7954 4.43133 14.8275 4.30938L14.8917 4.2837C14.8596 4.37997 14.8211 4.46983 14.789 4.56611C14.7376 4.66881 14.667 4.733 14.5708 4.75868ZM17.4206 7.80103L17.2665 7.71118C17.2216 7.76895 17.1767 7.82671 17.1253 7.88447C17.074 7.94224 17.0162 7.97432 16.9584 7.99358C16.8621 7.98716 16.7851 7.9679 16.7209 7.93581C16.6568 7.90372 16.6182 7.85237 16.599 7.77535C16.599 7.49935 16.6054 7.30039 16.6247 7.17844C16.6439 7.05648 16.6953 6.93454 16.7915 6.82543C16.8108 6.89603 16.8172 6.94737 16.8172 6.97946C16.8172 7.03723 16.8044 7.12068 16.7851 7.22979C16.7659 7.33891 16.753 7.39666 16.753 7.41592C16.753 7.53787 16.8108 7.62773 16.9199 7.6855C17.0419 7.6855 17.1317 7.6213 17.2023 7.49294C17.2087 7.43517 17.2152 7.36457 17.2023 7.29396C17.2023 7.22336 17.2023 7.15277 17.2023 7.08216C17.2023 6.96021 17.2408 6.87678 17.3179 6.82543C17.3435 6.87678 17.3564 6.92812 17.3564 6.97946C17.3564 7.03081 17.3564 7.08858 17.3435 7.14635C17.3371 7.20412 17.3243 7.26187 17.3179 7.31322C17.3179 7.43517 17.382 7.49937 17.5104 7.50578L17.6516 7.49294C17.6516 7.46084 17.6452 7.39666 17.6259 7.31322C17.6067 7.22978 17.6003 7.15919 17.6003 7.10784C17.6003 7.01156 17.6324 6.93454 17.703 6.86394C17.7479 6.97305 17.78 7.06933 17.7992 7.14635C17.8185 7.22337 17.8313 7.31322 17.8313 7.41592C17.8313 7.47368 17.8121 7.55713 17.78 7.65982C17.7222 7.76894 17.6324 7.82671 17.5233 7.82671L17.4206 7.80103ZM11.5412 4.0013C11.4899 3.95637 11.4514 3.93069 11.4257 3.91143C11.3487 3.85367 11.2781 3.84082 11.2075 3.88575C11.1497 4.0077 11.0984 4.1746 11.0534 4.39924C10.9571 4.86137 10.8801 5.1502 10.8224 5.27215C10.7518 5.18871 10.694 5.07959 10.6426 4.95122C10.5079 4.63672 10.4052 4.43776 10.3474 4.36073L10.2704 4.48909C10.2704 4.48909 10.1805 4.46342 10.0778 4.43133C9.97512 4.39924 9.90452 4.36072 9.87242 4.30938C9.87242 4.17459 9.88526 4.05263 9.91735 3.94352C9.94945 3.8344 10.0072 3.76382 10.1035 3.71889C10.3153 3.81516 10.495 4.02697 10.6426 4.36073C10.7132 4.5212 10.7774 4.68165 10.848 4.8357C10.8545 4.81644 10.9122 4.59821 11.0149 4.16817C11.0855 3.90501 11.1754 3.69962 11.2973 3.552C11.4514 3.53274 11.5605 3.59693 11.6311 3.73172L11.5412 4.0013ZM11.2075 6.08088C11.1561 6.07446 11.0855 6.06803 10.9892 6.06803C10.6619 6.06803 10.3923 6.16432 10.1805 6.3633C10.1805 6.58794 10.1998 6.81901 10.2447 7.06291C10.2896 7.30681 10.3281 7.53145 10.3731 7.73684C10.418 7.94223 10.4373 8.07702 10.4437 8.14121C10.4437 8.20539 10.4437 8.26958 10.4437 8.34018C10.4437 8.62259 10.3731 8.89859 10.2383 9.16174C10.3089 9.00128 10.341 8.8344 10.341 8.6611C10.341 8.47497 10.3025 8.24391 10.2319 7.96792C10.1613 7.69192 10.0971 7.44159 10.0457 7.21695C9.99438 6.9923 9.9687 6.80616 9.9687 6.67137C9.9687 6.44031 10.0393 6.24777 10.1805 6.08731C10.3217 5.92684 10.5592 5.81772 10.893 5.75996C10.8159 5.65084 10.7197 5.59307 10.6105 5.59307C10.5656 5.59307 10.5207 5.61234 10.4693 5.64443C10.418 5.67652 10.3666 5.71503 10.3153 5.75996C10.296 5.72787 10.296 5.68293 10.3153 5.63158C10.3346 5.58023 10.3538 5.52247 10.3795 5.45186C10.4565 5.35559 10.572 5.31066 10.7261 5.31066C10.7518 5.31066 10.7967 5.31708 10.8673 5.33634C11.047 5.45829 11.1882 5.5995 11.2909 5.75996C11.3166 5.81772 11.2909 5.92684 11.201 6.08088H11.2075ZM11.9392 9.62387C11.8686 9.64313 11.8108 9.62387 11.7595 9.55969C11.7081 9.47625 11.676 9.41206 11.6568 9.37997C11.6568 9.14249 11.6696 8.94993 11.6889 8.80231C11.7081 8.65469 11.7659 8.50707 11.8493 8.35303C11.8236 8.53275 11.8044 8.70603 11.7851 8.87933C11.7851 9.06546 11.8429 9.21952 11.9648 9.32863C12.0226 9.32863 12.074 9.29012 12.1125 9.20668C12.151 9.12324 12.1831 9.07831 12.2088 9.07189C12.1767 9.20668 12.151 9.30296 12.1317 9.35431C12.0868 9.47626 12.0226 9.56611 11.9392 9.62387ZM27.1125 3.39796C27.0932 3.34661 27.0675 3.31452 27.029 3.29526C26.9905 3.27601 26.952 3.29526 26.9071 3.33377L27.151 3.56483L27.1125 3.39796ZM26.6375 5.69577C26.8172 5.72144 26.9905 5.78562 27.151 5.88832C27.3114 5.99101 27.4783 6.11938 27.6388 6.27343C27.5297 6.2991 27.4077 6.32479 27.2858 6.34404C27.1638 6.3633 27.0611 6.37613 26.9841 6.37613C26.8621 6.37613 26.7594 6.34403 26.6632 6.27343C26.5669 6.20282 26.4963 6.09372 26.4449 5.93967C26.4257 5.88833 26.4385 5.8434 26.4706 5.79847C26.522 5.76637 26.5797 5.72786 26.6375 5.69577Z" fill="currentColor"/>
</svg>
