<svg width="40" height="16" viewBox="0 0 40 16" fill="none" xmlns="http://www.w3.org/2000/svg">
<path fill-rule="evenodd" clip-rule="evenodd" d="M30.157 5.00851L30.0974 5.08084L29.7825 4.62978C29.7357 4.68936 29.6974 4.80424 29.6719 4.9702C29.6463 5.13616 29.6293 5.31915 29.6293 5.5149C29.6293 5.89787 29.6633 6.4 29.7272 7.02553C29.791 7.65106 29.8633 8.29787 29.9357 8.96595C29.9357 9.33191 29.9059 9.67234 29.8506 9.97872C29.791 10.2851 29.6846 10.583 29.5272 10.8681C29.5272 10.2213 29.4974 9.45956 29.4336 8.58722C29.3697 7.71488 29.3144 6.8383 29.2548 5.96596C29.1953 5.09362 29.1697 4.33191 29.1697 3.67659L29.5059 3.11489C29.6165 3.37872 29.7314 3.69361 29.8548 4.05531C29.9102 4.21701 30.0123 4.53617 30.1612 5.00425L30.157 5.00851ZM26.225 4.59999C26.2463 4.66808 26.2421 4.74042 26.208 4.82128C26.174 4.90213 26.1484 4.97446 26.1229 5.04255C26.0421 5.09787 25.9442 5.1234 25.8378 5.1234C25.7612 5 25.7272 4.85532 25.7272 4.6851C25.7272 4.53617 25.7527 4.39574 25.8038 4.26808C25.8548 4.14042 25.9229 4.00425 26.0123 3.86808C26.0123 3.94467 25.9995 4.02553 25.9697 4.11489C25.8931 4.35319 25.8591 4.50212 25.8591 4.56595C25.8591 4.67659 25.8889 4.7702 25.9527 4.85105C26.0293 4.87233 26.0846 4.8383 26.1229 4.75319C26.1612 4.66808 26.1953 4.61702 26.2293 4.60425L26.225 4.59999ZM25.3059 5.5702C25.2804 5.6468 25.2336 5.73191 25.174 5.82553C25.0804 5.97021 24.9825 6.10638 24.8889 6.24255C24.8336 6.16596 24.7272 6.0766 24.5612 5.96596C24.3995 5.85532 24.2889 5.77872 24.2336 5.73191C24.3144 5.60425 24.391 5.48936 24.4633 5.39149C24.5357 5.29362 24.6208 5.20425 24.7229 5.11914C24.8591 5.2085 24.9612 5.27234 25.0293 5.31489C25.1442 5.39575 25.2378 5.48084 25.3059 5.5702ZM25.8591 3.24254C25.1229 3.45956 24.391 3.67659 23.6633 3.8851C22.6676 4.17872 21.9399 4.39999 21.4761 4.54893C20.7144 4.79574 19.9953 5.03404 19.3229 5.27234C19.1442 5.35319 19.0421 5.48511 19.008 5.65957C19.974 5.2766 21.0506 4.90212 22.2336 4.53616C23.3144 4.21702 24.4038 3.89786 25.4931 3.57446C25.5867 3.57446 25.6676 3.53617 25.7272 3.46383C25.7527 3.4383 25.7995 3.3617 25.8591 3.2383V3.24254ZM21.5995 3.81277C21.6208 3.84681 21.6293 3.87658 21.6293 3.90637C21.6293 3.95318 21.6123 4.0085 21.5782 4.06808C21.5229 4.16169 21.4974 4.21276 21.4974 4.22127C21.4633 4.25532 21.425 4.28935 21.3867 4.31914C21.3442 4.34893 21.3059 4.34893 21.2633 4.31489C21.2208 4.25532 21.1953 4.19574 21.1867 4.13616C21.1782 4.07659 21.1697 4.02127 21.1697 3.96595C21.1697 3.83829 21.1953 3.70638 21.2463 3.57872C21.2974 3.45106 21.3655 3.3234 21.4463 3.2C21.4463 3.25532 21.4208 3.34893 21.374 3.4851C21.3272 3.62127 21.3016 3.7234 21.3016 3.79148C21.3016 3.90212 21.3484 3.98298 21.4463 4.0383L21.5995 3.81277ZM20.4165 3.01701C20.3612 3.07659 20.2974 3.13617 20.2293 3.19574C20.157 3.25532 20.0761 3.31488 19.9782 3.37446C19.7995 3.47658 19.3782 3.6383 18.7101 3.86383C18.3697 3.97872 18.1101 4.0851 17.9357 4.17872C18.0378 4.05106 18.1527 3.94043 18.2846 3.85106C18.4804 3.71489 18.8123 3.58297 19.2761 3.45957C19.7399 3.33191 20.0591 3.22128 20.2378 3.11915L20.4208 3.01701H20.4165ZM22.2548 6.24255C22.2761 6.28936 22.2719 6.33191 22.2506 6.37021C22.225 6.4085 22.1995 6.44255 22.174 6.47659C22.1144 6.45531 22.0421 6.43404 21.9612 6.40426C21.8804 6.37872 21.8165 6.3617 21.7655 6.3617C21.6974 6.47234 21.6421 6.67233 21.5953 6.97021C21.5527 7.26808 21.4719 7.47234 21.357 7.58723C21.2889 7.52766 21.2165 7.39149 21.1442 7.18723C21.0208 6.86808 20.8463 6.71915 20.625 6.73617C20.5825 6.69362 20.5655 6.64255 20.5655 6.57447C20.5655 6.51915 20.5867 6.4468 20.6336 6.35318C20.6761 6.25956 20.7059 6.20851 20.7144 6.19149C20.7229 6.17447 20.7484 6.16595 20.7867 6.1617C20.825 6.1617 20.8506 6.15744 20.8633 6.15744C20.957 6.2468 21.0421 6.36595 21.1101 6.51488C21.2931 6.89786 21.4038 7.11063 21.4378 7.15744C21.5059 6.82553 21.5484 6.62127 21.5697 6.55318C21.6378 6.33616 21.7314 6.16595 21.8548 6.04255C21.9314 6.02978 22.0038 6.04255 22.0804 6.09361C22.1059 6.10638 22.1697 6.15319 22.2633 6.23829L22.2548 6.24255ZM22.8761 8.62127C22.8761 8.68085 22.8633 8.75319 22.8421 8.83404C22.8165 8.91489 22.7867 8.99574 22.7442 9.06808C22.7016 9.08935 22.6591 9.09787 22.6123 9.09787C22.557 9.09787 22.5187 9.08085 22.4889 9.0468C22.4123 8.93191 22.3782 8.80425 22.3782 8.66808C22.3782 8.57871 22.3995 8.47233 22.4378 8.35319C22.4506 8.30638 22.5272 8.13616 22.6633 7.84254C22.6633 7.89786 22.6378 7.99999 22.5825 8.14893C22.5272 8.29786 22.5016 8.41276 22.5016 8.49787C22.5016 8.55744 22.5144 8.61702 22.5357 8.67233C22.5612 8.72765 22.6038 8.77446 22.6633 8.81701C22.7229 8.83829 22.7655 8.81276 22.7867 8.74042C22.808 8.66808 22.8208 8.62978 22.8293 8.62127H22.8804H22.8761ZM19.7314 8.4383C19.7527 8.51915 19.7484 8.59999 19.7272 8.67233C19.7016 8.74893 19.6548 8.85957 19.5782 9.00851C19.557 9.02127 19.5272 9.02978 19.4846 9.02978C19.425 9.02978 19.3697 9.0085 19.3272 8.96169C19.2846 8.91914 19.2506 8.86382 19.2293 8.80425C19.2293 8.62127 19.2506 8.4383 19.2974 8.26383C19.3399 8.0851 19.4038 7.91489 19.4846 7.75318C19.4846 7.8085 19.4719 7.88084 19.4421 7.97872C19.3825 8.20425 19.3484 8.34893 19.3484 8.41701C19.3484 8.55318 19.391 8.66383 19.4804 8.74468C19.5059 8.75745 19.5314 8.75318 19.557 8.73616C19.5825 8.71489 19.5995 8.70212 19.6123 8.69361C19.5995 8.6468 19.608 8.59999 19.6378 8.56169C19.6676 8.51914 19.6974 8.48085 19.7229 8.4383H19.7314ZM16.2676 5.75319C16.2804 5.82979 16.2676 5.9234 16.2165 6.03829C16.174 6.11489 16.1484 6.16595 16.1357 6.2C16.1144 6.22127 16.0846 6.23403 16.0378 6.23403C15.9953 6.23403 15.957 6.23829 15.9314 6.23829C15.8208 6.11063 15.7697 5.95744 15.7697 5.78723C15.7697 5.61702 15.8293 5.41702 15.9527 5.16596C16.0421 4.99574 16.1016 4.8766 16.1357 4.80851C16.1357 4.88936 16.0931 5.02553 16.0123 5.21702C15.9314 5.40851 15.8889 5.54894 15.8889 5.64681C15.8889 5.71489 15.8974 5.77446 15.9144 5.82127C15.9314 5.86807 15.9655 5.91914 16.0208 5.97446C16.0804 5.98723 16.1357 5.95744 16.1782 5.87659C16.2208 5.79999 16.2506 5.75744 16.2633 5.74893L16.2676 5.75319ZM27.7059 8.6851C27.7059 8.24255 27.6421 7.53617 27.5101 6.5617C27.3825 5.58723 27.3144 4.90212 27.3144 4.49787C27.391 4.5234 27.4591 4.59574 27.5272 4.70637C27.5953 4.81701 27.6421 4.8851 27.6719 4.90637C27.6719 4.65957 27.5697 4.33617 27.3612 3.92766C27.1527 3.51915 27.0378 3.22128 27.0208 3.0383L26.9995 3.05957L26.9272 3C26.8123 3.21702 26.7187 3.4468 26.6506 3.6851C26.774 4.34467 26.8974 5.02978 27.0293 5.73617C27.157 6.44255 27.2591 7.10637 27.3357 7.72339C27.4123 8.34042 27.4463 8.97871 27.4463 9.63829L27.3144 9.78298C27.1016 9.91064 26.8676 10.017 26.608 10.0979C26.3484 10.1787 26.1059 10.2213 25.8719 10.2213C25.5442 10.2213 25.2591 10.1319 25.0123 9.95744L25.5144 9.64255C25.6931 9.42978 25.7782 9.14468 25.7782 8.78298C25.7782 8.60425 25.7612 8.44255 25.7314 8.29362C25.7016 8.14468 25.6548 7.98723 25.5953 7.82553C25.5187 7.71489 25.4506 7.63403 25.391 7.57871C25.3016 7.49786 25.2123 7.45532 25.1144 7.45532C25.0676 7.45532 25.0165 7.46382 24.9612 7.4851C24.7016 7.7702 24.5101 8.10638 24.3825 8.4851C24.2548 8.86808 24.1953 9.27659 24.1953 9.71063C23.557 9.99148 22.9102 10.2043 22.2633 10.3532C21.6165 10.5021 20.9612 10.5787 20.2931 10.5787C19.9995 10.5787 19.7357 10.566 19.4974 10.5362C18.974 10.434 18.5697 10.3064 18.2931 10.1574C17.8761 9.93191 17.6293 9.62127 17.5484 9.21702C17.4804 8.69787 17.4336 8.06382 17.4038 7.31063C17.3782 6.55744 17.3527 5.83829 17.3314 5.14893C17.2889 4.36595 17.2208 3.69786 17.1272 3.14893C17.0336 3.22552 16.9484 3.32766 16.8804 3.46383C16.8378 3.54468 16.791 3.67233 16.7357 3.84254C16.8846 4.97872 16.9782 5.8383 17.0165 6.41702C17.0548 6.99574 17.0719 7.57871 17.0719 8.16169C17.0293 8.27659 16.9357 8.37446 16.7867 8.4468C16.5484 8.5617 16.425 8.62552 16.4208 8.62978C16.3399 8.70637 16.2633 8.74042 16.1953 8.74042C16.1272 8.74042 16.0676 8.6851 16.0123 8.57872C15.8761 8.31914 15.7867 8.17871 15.7484 8.16169C15.6208 8.01701 15.4761 7.90638 15.3144 7.82127C15.1527 7.73616 14.991 7.69362 14.8208 7.69362C14.7399 7.69362 14.6506 7.70212 14.557 7.72339C14.2974 7.8851 14.1144 8.10638 13.9995 8.38298C13.8889 8.65957 13.8293 8.95745 13.8293 9.2766C13.9442 9.45532 14.0804 9.57447 14.2336 9.63404C14.3867 9.69362 14.5782 9.72766 14.8123 9.72766C14.9357 9.72766 15.1272 9.71064 15.3825 9.67234C15.6421 9.63404 15.7825 9.61276 15.8123 9.60425C15.8336 9.66383 15.8719 9.76596 15.9229 9.90213C15.9484 10.0043 15.957 10.1064 15.9442 10.2085C15.4123 10.7192 14.8463 11.1404 14.2506 11.4766C13.6506 11.8085 13.0123 12.0553 12.3314 12.2128C12.174 12.2383 12.025 12.2596 11.8889 12.2723C11.7484 12.2851 11.608 12.2936 11.4633 12.2936C11.0123 12.2936 10.6336 12.2255 10.3187 12.0894C9.94419 11.9277 9.66334 11.6681 9.48036 11.3149C9.36547 11.0851 9.30589 10.8426 9.30589 10.5915C9.30589 10.3191 9.38249 9.97872 9.53994 9.57021C9.62079 9.35319 9.74845 9.02979 9.91866 8.6C9.76972 8.9149 9.62079 9.22553 9.4676 9.54042C9.1527 10.2128 8.99951 10.7702 8.99951 11.2043C8.99951 11.5191 9.0676 11.8085 9.20377 12.0808C9.42079 12.4681 9.76121 12.7319 10.225 12.8681C10.5314 12.9574 10.9782 13 11.5612 13H11.9995C12.808 12.7404 13.4378 12.5106 13.8889 12.3064C14.6293 11.9745 15.1995 11.6 15.5953 11.183C16.0846 10.6638 16.3314 10.0681 16.3314 9.39574C16.5016 9.29362 16.6293 9.20851 16.7187 9.14042C16.8548 9.03829 16.974 8.93192 17.0761 8.82553C17.0889 8.92766 17.1187 9.13191 17.157 9.43404C17.1995 9.73617 17.2591 9.99574 17.3399 10.217C17.6378 10.634 18.025 10.9319 18.4931 11.1149C18.8931 11.2723 19.3782 11.3489 19.9442 11.3489C20.3612 11.3489 20.8506 11.2979 21.4165 11.1957C21.791 11.1277 22.2421 11.034 22.774 10.9106C22.808 10.8979 23.1484 10.766 23.7953 10.5234C23.991 10.4468 24.1782 10.3915 24.357 10.3489C24.4506 10.3617 24.591 10.4936 24.774 10.7489C25.0548 10.9191 25.374 11.0043 25.7357 11.0043C26.008 11.0043 26.2804 10.9574 26.5484 10.8596C26.8165 10.766 27.0548 10.6425 27.2591 10.4936C27.4506 10.2468 27.574 9.96596 27.6378 9.64681C27.6804 9.43404 27.6974 9.11914 27.6974 8.69787L27.7059 8.6851ZM15.0931 5.19149L14.6846 5.82553C14.4676 5.68935 14.2506 5.55319 14.0293 5.41702C13.974 5.45957 13.9187 5.54468 13.8676 5.67234C13.774 5.91064 13.6761 6.02979 13.5825 6.02979C13.5484 6.02979 13.5059 6.02127 13.4506 5.99999L12.991 5.75319C13.0506 5.61702 13.1144 5.47659 13.174 5.33617C13.2676 5.17446 13.3867 5.10212 13.5229 5.1234L14.0421 5.38723L14.4506 4.78298C14.5655 4.81702 14.6761 4.87234 14.7825 4.95319C14.8889 5.02979 14.991 5.11064 15.0931 5.19149ZM13.1101 3.46383L13.0591 3.71915C13.0123 3.69787 12.957 3.67659 12.9016 3.6468C12.8421 3.62127 12.7953 3.60425 12.7527 3.60425C12.7059 3.60425 12.6633 3.61702 12.6293 3.6468C12.5187 3.77446 12.4506 3.99574 12.4208 4.30213C12.391 4.60851 12.3484 4.81702 12.2931 4.9234C12.2378 4.87659 12.1399 4.69362 11.9953 4.37021C11.8846 4.13192 11.7399 4.02127 11.557 4.03404C11.4676 4.02553 11.425 3.9617 11.425 3.8383C11.425 3.79575 11.4336 3.73191 11.4506 3.64254C11.4676 3.55318 11.5101 3.48936 11.5782 3.4468C11.7272 3.47234 11.8846 3.68084 12.0463 4.06808C12.1229 4.2468 12.1867 4.3319 12.2421 4.3319C12.2676 4.3319 12.3016 4.31488 12.3357 4.28084C12.3782 3.98723 12.4123 3.8 12.4378 3.71915C12.5059 3.51489 12.625 3.37021 12.7953 3.28936C12.8506 3.28936 12.9016 3.30638 12.9527 3.34468C13.0038 3.38298 13.0548 3.41702 13.1101 3.45106V3.46383ZM12.7612 5.41276C12.7272 5.54042 12.5527 5.61276 12.2336 5.62552C11.9187 5.63829 11.7229 5.7319 11.6548 5.90212C11.7697 6.69361 11.8846 7.47659 12.0038 8.25957C12.0038 8.5234 11.9867 8.7617 11.9484 8.96595C11.9102 9.17021 11.8378 9.37021 11.7272 9.57021C11.7953 9.42128 11.8421 9.27659 11.8719 9.13616C11.8974 8.99574 11.9144 8.8468 11.9144 8.69361C11.9144 8.56595 11.9059 8.42979 11.8846 8.29362C11.7697 7.60426 11.6548 6.91915 11.5357 6.22979C11.5357 6.05106 11.557 5.87233 11.5953 5.68935C11.6548 5.59999 11.7484 5.5234 11.8719 5.45957C11.9953 5.39574 12.1187 5.34893 12.2378 5.3234C12.1782 5.28085 12.1229 5.26382 12.0761 5.26382C11.9995 5.27659 11.9399 5.28936 11.8931 5.29361C11.8378 5.34893 11.7995 5.37021 11.7825 5.35319C11.7953 5.26383 11.8208 5.19149 11.8591 5.12766C11.8974 5.06809 11.957 5.02128 12.0378 4.99575C12.1867 4.98298 12.3229 5.01277 12.4421 5.08936C12.5612 5.16596 12.6676 5.27234 12.7655 5.41702L12.7612 5.41276ZM10.7399 7.47659C10.7399 7.7234 10.7101 7.94467 10.6463 8.14893C10.5867 8.35318 10.4719 8.5234 10.3101 8.65957C10.2506 8.68085 10.1953 8.68085 10.1484 8.65957C10.1016 8.63829 10.025 8.58297 9.92292 8.49787C9.85483 8.35318 9.80802 8.21276 9.77824 8.07233C9.7527 7.93191 9.73568 7.78723 9.73568 7.6383C9.73568 7.27234 9.83781 6.85532 10.0421 6.39149C10.1229 6.20851 10.3229 5.82127 10.6463 5.22552C10.6123 5.34893 10.5272 5.56595 10.391 5.88085C10.174 6.39148 10.0633 6.79148 10.0633 7.07659C10.0633 7.20425 10.0804 7.32766 10.1101 7.44255C10.1399 7.55745 10.191 7.67233 10.2591 7.79148C10.3016 7.83829 10.3484 7.86383 10.4038 7.86383C10.4506 7.86383 10.4974 7.8468 10.5357 7.80851C10.5782 7.77021 10.6123 7.7234 10.6421 7.65957C10.6719 7.59574 10.7059 7.53617 10.7399 7.47659ZM12.3527 10.3277C12.3314 10.383 12.2421 10.4128 12.0889 10.4213C11.9314 10.4298 11.8463 10.4936 11.8336 10.617C11.8208 10.7404 11.791 10.8808 11.7399 11.034C11.6719 11.217 11.625 11.3532 11.5953 11.4426C11.5272 11.4 11.4591 11.2723 11.3953 11.0511C11.3314 10.8298 11.2336 10.7191 11.1059 10.7191C11.0846 10.7191 11.0421 10.7277 10.974 10.7404C10.9399 10.7064 10.9229 10.6638 10.9229 10.617C10.9229 10.583 10.9314 10.5319 10.9484 10.4638C10.9655 10.3957 10.974 10.3574 10.974 10.3532C11.008 10.2596 11.0719 10.2085 11.1697 10.2085C11.2463 10.2851 11.3144 10.4 11.3782 10.5617C11.4421 10.7234 11.5144 10.8936 11.5995 11.0766C11.6208 11.034 11.6761 10.8638 11.774 10.5574C11.8421 10.3277 11.9399 10.1745 12.0719 10.0979C12.1314 10.1106 12.1995 10.1234 12.2676 10.1277C12.3484 10.1489 12.391 10.183 12.391 10.2298C12.391 10.2553 12.3825 10.2894 12.3612 10.3319L12.3527 10.3277ZM25.3655 8.95745C25.3655 9.10638 25.2378 9.22553 24.9867 9.31489C24.825 9.37021 24.7187 9.41702 24.6719 9.45957C24.6293 9.34893 24.5995 9.23829 24.574 9.11914C24.5484 8.99999 24.5399 8.89362 24.5399 8.79574C24.5399 8.68085 24.557 8.57446 24.5953 8.48084C24.6336 8.38722 24.6889 8.30212 24.7655 8.23404C24.9357 8.23404 25.0719 8.31915 25.174 8.48936C25.2165 8.55744 25.2804 8.71489 25.3697 8.95745H25.3655ZM15.3484 8.8851C15.2676 8.91063 15.1655 8.92766 15.0421 8.92766C14.9144 8.92766 14.7782 8.90638 14.6336 8.85957C14.4889 8.81702 14.3782 8.75744 14.2974 8.68936C14.2889 8.64255 14.2974 8.60425 14.3144 8.58298C14.3314 8.55745 14.3782 8.51915 14.4506 8.46383C14.4719 8.46383 14.5059 8.46382 14.5527 8.45531C14.7101 8.45531 14.8548 8.49787 14.991 8.57872C15.0804 8.63404 15.1995 8.73616 15.3484 8.8851Z" fill="currentColor"/>
</svg>
