<svg width="40" height="16" viewBox="0 0 40 16" fill="none" xmlns="http://www.w3.org/2000/svg">
<path fill-rule="evenodd" clip-rule="evenodd" d="M32.6174 9.62162C32.6174 10.0177 32.5988 10.3579 32.5662 10.6468C32.5335 10.9357 32.4683 11.2433 32.3704 11.5694C32.3704 10.8006 32.3192 9.96179 32.212 9.05312C32.1514 8.55918 32.0349 7.72508 31.8579 6.54614C31.6808 5.3672 31.5596 4.50513 31.4944 3.95061C31.4338 3.88537 31.4059 3.8015 31.4059 3.70364C31.4059 3.60578 31.4525 3.48928 31.5503 3.34482C31.6854 3.15843 31.76 3.04194 31.774 3C32.0443 3.58714 32.2073 3.95992 32.2679 4.11836C32.4403 4.55172 32.5429 4.94781 32.5801 5.31594C32.4963 5.11557 32.3611 4.92451 32.1654 4.74744L32.0536 4.98043C32.0536 5.46505 32.1095 6.03822 32.2213 6.70457C32.4823 8.24698 32.6128 9.22087 32.6128 9.62162H32.6174ZM28.8942 3.24697C28.8476 3.41938 28.7218 3.54054 28.5074 3.6151C28.2931 3.68966 28.0927 3.75489 27.897 3.81547C27.3285 3.97391 26.6854 4.19757 25.9632 4.4958C25.3388 4.76607 24.7097 5.02703 24.0853 5.28798C24.0853 5.2041 24.1179 5.13421 24.1785 5.06897C24.239 5.00373 24.3229 4.94315 24.4208 4.88258C25.9119 4.33738 27.4031 3.79218 28.8942 3.23766V3.24697ZM28.6799 7.07269C28.6799 7.16123 28.6659 7.24511 28.6333 7.32433C28.6053 7.40354 28.5587 7.49208 28.4981 7.59925C28.4469 7.59925 28.3909 7.5713 28.335 7.52004C28.2791 7.46879 28.2418 7.39888 28.2185 7.31966C28.1952 7.23578 28.1859 7.12395 28.1859 6.98415C28.1859 6.71388 28.2558 6.49954 28.4003 6.33644C28.3863 6.39702 28.3676 6.4809 28.3443 6.58808C28.321 6.69525 28.3117 6.77912 28.3117 6.8397C28.3117 6.94222 28.3257 7.03076 28.349 7.096C28.377 7.16124 28.4236 7.23113 28.4981 7.29637C28.5354 7.28705 28.5634 7.25442 28.5867 7.18919C28.61 7.12395 28.6239 7.08667 28.6333 7.07269H28.6799ZM27.65 5.59553C27.664 5.64213 27.6594 5.68872 27.6267 5.73532C27.5988 5.78192 27.5801 5.81454 27.5801 5.82852C27.5522 5.8425 27.5009 5.82853 27.4357 5.77261C27.3378 5.69805 27.2819 5.65611 27.2679 5.65145C27.1794 5.7726 27.1048 5.97297 27.0443 6.25722C26.9837 6.54147 26.9371 6.73252 26.8998 6.82572C26.8252 6.75116 26.7227 6.55545 26.5876 6.24324C26.5224 6.09413 26.4478 5.97298 26.3732 5.88444C26.3872 5.94968 26.3546 5.99161 26.28 6.00093C26.2008 6.01025 26.1589 6.01957 26.1496 6.02889C26.103 5.96831 26.0843 5.90773 26.0843 5.85182C26.0843 5.80056 26.0983 5.73998 26.1216 5.67474C26.1496 5.6095 26.1729 5.54894 26.1962 5.49768C26.2195 5.44642 26.2428 5.41846 26.2754 5.41846C26.3266 5.44175 26.3639 5.45574 26.3872 5.46506C26.4991 5.57689 26.5922 5.726 26.6715 5.90773C26.7507 6.08947 26.8252 6.26655 26.8998 6.43896C26.9604 6.18733 27.007 5.9823 27.0443 5.83319C27.1188 5.54428 27.2167 5.39516 27.3332 5.39516C27.417 5.39516 27.5196 5.4604 27.6454 5.59553H27.65ZM23.9268 4.64492L23.8476 4.76608C23.8476 4.43989 23.8383 4.22087 23.8243 4.11836C23.787 3.88071 23.7078 3.68034 23.5913 3.52656C23.5913 3.37745 23.6379 3.2889 23.7358 3.25629C23.8196 3.3588 23.8802 3.49394 23.9268 3.65237C23.9734 3.81081 23.9921 3.96925 23.9921 4.12769C23.9921 4.3001 23.9688 4.4725 23.9268 4.64026V4.64492ZM30.4925 9.45387C30.4925 8.81082 30.418 8.07457 30.2735 7.24512C30.1291 6.41567 29.9939 5.61882 29.8635 4.85927L29.966 4.74744C30.0032 4.78472 30.0592 4.84064 30.1337 4.91053C30.2083 4.98043 30.2549 5.04566 30.2782 5.10624C30.2782 4.86859 30.1896 4.5424 30.0079 4.13234C29.7749 3.59646 29.6444 3.26561 29.6072 3.13514C29.4953 3.20038 29.4068 3.31221 29.3462 3.46598C29.281 3.61976 29.253 3.76422 29.253 3.90867C29.4254 4.8919 29.6025 5.90773 29.7842 6.95619C29.966 8.00466 30.1011 8.95993 30.1943 9.82665C29.9333 10.0736 29.6584 10.274 29.3742 10.4231C29.0853 10.5769 28.787 10.6841 28.4748 10.74C28.0927 10.74 27.8411 10.7307 27.7153 10.7074C27.4403 10.6608 27.2353 10.5489 27.1002 10.3719C27.5988 10.0224 28.1347 9.82199 28.7125 9.76607L28.9688 9.00653C28.5447 8.86674 28.116 8.7549 27.6873 8.67102C27.2586 8.58715 26.8346 8.54986 26.4198 8.54986C26.0936 8.54986 25.7675 8.58248 25.4413 8.65238C25.1151 8.71762 24.8262 8.82479 24.5745 8.96458C24.5652 9.03914 24.5373 9.14633 24.4907 9.28146C24.4441 9.42126 24.4161 9.52377 24.4161 9.59833C24.4161 9.64959 24.4161 9.69153 24.4254 9.71949C24.4487 9.72881 24.472 9.71949 24.5 9.69153C24.5279 9.66357 24.5512 9.65424 24.5745 9.65424C24.6491 9.64026 24.705 9.63095 24.7423 9.63095C24.9147 9.63095 25.0825 9.68221 25.2456 9.78938C25.3574 9.86394 25.5717 10.069 25.884 10.4045C25.637 10.5303 25.4646 10.6142 25.3714 10.6515C25.1757 10.7353 24.9939 10.7912 24.8215 10.8192C24.5093 10.8192 24.2297 10.7633 23.9874 10.6515C23.7451 10.5396 23.554 10.3625 23.4096 10.1249C23.2838 9.51911 23.2045 8.79218 23.1766 7.94409C23.1486 7.096 23.1207 6.27587 23.0974 5.49301C23.0508 4.60765 22.9436 3.86206 22.7712 3.25629C22.6966 3.33084 22.6314 3.44268 22.5708 3.59179C22.5429 3.66635 22.4963 3.77819 22.4357 3.9273C22.5335 4.37465 22.6128 4.90587 22.6687 5.51631C22.7292 6.12675 22.7852 6.71389 22.8364 7.27307C22.8457 7.32433 22.8597 7.40821 22.883 7.52004V7.93476C22.883 8.05592 22.883 8.24697 22.8737 8.51724C22.8644 8.78751 22.8644 8.98789 22.8644 9.12303C22.8644 9.69619 22.9203 10.1575 23.0321 10.4977C23.1812 10.9543 23.4515 11.2945 23.8383 11.5275C24.0387 11.602 24.2484 11.6393 24.4627 11.6393C24.7516 11.6393 25.0359 11.5834 25.3061 11.4716C25.5764 11.3597 25.8467 11.206 26.1169 11.0149C26.2008 10.9124 26.2754 10.8565 26.3499 10.8565C26.4338 10.8565 26.541 10.931 26.6808 11.0755C26.8206 11.22 26.9184 11.3038 26.979 11.3271C27.3052 11.5042 27.6687 11.5974 28.0648 11.5974C28.6239 11.5974 29.0992 11.4529 29.4953 11.1594C29.8169 10.9963 30.0638 10.7586 30.2409 10.4557C30.418 10.1482 30.5018 9.81734 30.5018 9.45854L30.4925 9.45387ZM25.0918 6.98415C25.1058 7.08201 25.1011 7.18453 25.0731 7.2917C25.0452 7.39888 24.9986 7.48742 24.9333 7.55265C24.8355 7.57595 24.7656 7.56663 24.7283 7.52469C24.691 7.48276 24.6491 7.41286 24.6118 7.31966C24.6025 7.28238 24.6025 7.21716 24.6025 7.12862C24.6025 6.97019 24.6305 6.81175 24.6817 6.64399C24.733 6.47624 24.8029 6.3178 24.8821 6.16868C24.8821 6.22926 24.8588 6.34576 24.8169 6.51352C24.7703 6.68593 24.7516 6.81641 24.7516 6.90494C24.7516 6.98882 24.7656 7.05871 24.7889 7.11929C24.8169 7.17987 24.8634 7.23113 24.938 7.27772L25.0964 6.98882L25.0918 6.98415ZM22.1048 3.24697C22.1048 3.30755 22.0722 3.36813 22.0116 3.42405C21.9464 3.48462 21.8812 3.52657 21.8066 3.54521C20.9865 3.85742 20.3714 4.09506 19.9613 4.24883C19.2251 4.53308 18.6239 4.80335 18.1626 5.0643C18.1906 4.84995 18.3304 4.68687 18.582 4.57969C18.8336 4.47251 19.0713 4.37 19.3043 4.27214C20.2362 3.92731 21.1729 3.58713 22.1095 3.24231L22.1048 3.24697ZM21.6575 4.98043C21.5736 4.86859 21.4758 4.81268 21.3546 4.81268C21.2195 4.93384 21.1309 5.07362 21.0936 5.23671C21.0517 5.39981 21.0144 5.60951 20.9771 5.86115C20.856 5.61417 20.7814 5.46505 20.7535 5.41379C20.6696 5.274 20.5671 5.14352 20.4413 5.02237C20.3947 5.02237 20.3574 5.03635 20.3201 5.06897C20.3061 5.13421 20.2735 5.24139 20.2316 5.38118C20.2316 5.45574 20.2595 5.51165 20.3201 5.54893C20.4319 5.57689 20.4972 5.57223 20.5112 5.52564C20.5764 5.60019 20.6696 5.76794 20.7908 6.02889C20.842 6.15005 20.8933 6.24325 20.9492 6.30849C21.0517 5.9124 21.1589 5.51631 21.2614 5.12488C21.3593 5.07828 21.4618 5.12488 21.5736 5.26934C21.5876 5.24138 21.6155 5.19012 21.6528 5.12488C21.6668 5.07363 21.6715 5.02237 21.6621 4.98043H21.6575ZM27.8411 12.1473C27.6407 12.3942 27.4031 12.5946 27.1328 12.7577C26.8625 12.9161 26.5736 13 26.2661 13C26.1402 13 26.0004 12.9767 25.8513 12.9348C25.7675 12.8835 25.7302 12.7996 25.7302 12.6878V12.6226C25.7442 12.5946 25.7535 12.576 25.7535 12.5666C25.8374 12.4408 25.884 12.3663 25.8979 12.343C25.9492 12.2591 26.0051 12.1892 26.0657 12.1286C26.0144 12.1007 25.9632 12.0587 25.9212 12.0075C25.8746 11.9562 25.856 11.9049 25.856 11.849C25.856 11.8024 25.8793 11.7652 25.9212 11.7279C25.9585 11.6626 26.0144 11.5974 26.0936 11.5322C26.1729 11.4669 26.2428 11.439 26.3127 11.439C26.3872 11.439 26.4478 11.4809 26.4897 11.5601C26.513 11.6114 26.5037 11.658 26.4664 11.6953C26.4059 11.7325 26.3639 11.7605 26.3453 11.7745C26.322 11.7885 26.2894 11.7698 26.2381 11.7139C26.1915 11.658 26.1449 11.644 26.1076 11.6766C26.0843 11.7232 26.0936 11.7698 26.1309 11.8164C26.1682 11.863 26.2334 11.9003 26.3313 11.9236C26.4059 11.9469 26.4897 11.9329 26.5876 11.891C26.7507 11.8164 26.8392 11.7791 26.8439 11.7791C26.8299 11.891 26.6761 12.0121 26.3919 12.1473C26.103 12.2824 25.9632 12.3896 25.9632 12.4735C25.9632 12.548 26.0284 12.6319 26.1542 12.7297C26.2008 12.7391 26.2661 12.7391 26.3546 12.7391C26.6155 12.7391 26.8672 12.6878 27.1141 12.5899C27.3611 12.4874 27.6034 12.3476 27.8411 12.1612V12.1473ZM17.6081 5.06897L17.5615 5.12488C17.6267 4.92917 17.664 4.7055 17.664 4.45387C17.664 4.27679 17.6454 4.11836 17.6127 3.97857C17.5801 3.83877 17.5196 3.71295 17.4403 3.59179C17.4497 3.58247 17.4683 3.54986 17.5009 3.48463C17.5335 3.41939 17.5708 3.38677 17.6081 3.37745C17.7479 3.58714 17.8224 3.83877 17.8224 4.137C17.8224 4.45853 17.7525 4.76607 17.6081 5.0643V5.06897ZM18.335 6.38769C18.3583 6.43429 18.3676 6.47624 18.3676 6.52283C18.3676 6.57409 18.3583 6.62535 18.3443 6.67195C18.3304 6.71855 18.3024 6.80242 18.2651 6.91426C18.1999 6.93756 18.1393 6.91426 18.0881 6.85834C18.0368 6.79776 17.9949 6.7232 17.9669 6.63467C17.9576 6.57409 17.9576 6.53216 17.9576 6.49954C17.9576 6.34111 17.9809 6.19665 18.0228 6.06151C18.0321 6.03822 18.0694 5.959 18.1347 5.82852C18.144 5.8891 18.1347 5.9823 18.1114 6.10812C18.0881 6.23393 18.0787 6.30848 18.0787 6.33178C18.0787 6.45293 18.1253 6.53682 18.2232 6.58808L18.335 6.38769ZM22.2819 9.36067C22.2912 9.31407 22.2912 9.24884 22.2912 9.1603C22.2912 8.67568 21.9837 8.30289 21.3639 8.04194C20.5438 7.69246 20.0638 7.43616 19.9194 7.26841C19.9799 7.20317 20.0405 7.12862 20.1104 7.05406C19.7516 6.87699 19.3928 6.69524 19.0387 6.51817C18.9874 6.62069 18.9501 6.73253 18.9268 6.84903C18.9035 6.96552 18.8802 7.10997 18.8476 7.2917C19.0946 7.55265 19.3695 7.79496 19.6771 8.01864C19.7516 8.06989 19.9287 8.19106 20.2036 8.37745C20.3388 8.48929 20.6696 8.65704 21.2008 8.88071C21.6202 9.05312 21.8998 9.26748 22.0396 9.52843C21.0191 10.1389 19.9986 10.7493 18.9734 11.3644C18.7404 11.4669 18.5168 11.5741 18.2931 11.6766C18.144 11.7418 18.0088 11.7791 17.8923 11.7791C17.7572 11.7791 17.6314 11.7325 17.5102 11.644C17.4217 11.5322 17.3751 11.3924 17.3751 11.22C17.3751 11.1221 17.3937 11.0103 17.431 10.8844C17.4683 10.7586 17.5056 10.6514 17.5429 10.5722C17.6174 10.6095 17.7386 10.6701 17.9017 10.7493C18.0228 10.8099 18.13 10.8798 18.2278 10.9637C18.3304 10.9264 18.4329 10.8285 18.5307 10.6747C18.582 10.5909 18.6566 10.4651 18.7544 10.2926C18.5773 10.1575 18.4655 10.0783 18.4189 10.0596C18.2977 9.99441 18.1859 9.95713 18.0741 9.95713C17.9762 9.95713 17.8923 9.98509 17.8224 10.0457C17.7525 10.1062 17.692 10.2134 17.636 10.3719C17.6873 10.1482 17.7339 9.99441 17.7712 9.91519C17.8457 9.7521 17.9529 9.64026 18.0974 9.57968C18.2092 9.27213 18.2744 9.08574 18.2977 9.01118C18.363 8.77819 18.4003 8.57317 18.4003 8.3961C18.4003 8.27028 18.3816 8.14912 18.349 8.03728C18.3164 7.92544 18.2605 7.82294 18.1859 7.72508C18.0741 7.72508 17.9902 7.81361 17.9389 7.99534C17.8551 8.27027 17.8131 8.41473 17.8038 8.41939C17.9389 8.55918 18.0182 8.7316 18.0368 8.93197C17.9622 9.01585 17.8597 9.07177 17.7246 9.10905C17.65 9.12303 17.5801 9.137 17.5102 9.15564C17.3005 9.2069 17.1328 9.12768 17.007 8.92265C16.9324 8.63374 16.8812 8.33551 16.8579 8.03728C16.8299 7.73905 16.8206 7.39423 16.8206 6.99815C16.8206 6.80243 16.8206 6.60671 16.8252 6.40634C16.8252 6.20596 16.8299 6.0056 16.8299 5.80057C16.8299 5.27866 16.8113 4.822 16.7786 4.43524C16.746 4.04847 16.6715 3.68034 16.5596 3.32619C16.4851 3.41007 16.4198 3.5219 16.3593 3.67102C16.3313 3.74557 16.2847 3.86673 16.2241 4.02982C16.3732 4.71016 16.4664 5.37651 16.5037 6.03821C16.541 6.6999 16.5596 7.5247 16.5596 8.51724V9.17894C16.5596 9.45388 16.6808 9.69152 16.9184 9.88257C16.9837 9.91985 17.0396 9.94315 17.0769 9.95713C17.1141 9.96645 17.1654 9.97577 17.2353 9.97577C17.3471 9.96645 17.459 9.95713 17.5708 9.94315C17.5848 10.027 17.5615 10.1295 17.5056 10.2554C17.417 10.4324 17.3658 10.5443 17.3611 10.5815C17.3332 10.479 17.24 10.3905 17.0908 10.3253C16.8905 10.2367 16.7693 10.1715 16.732 10.1342C16.6109 10.2181 16.513 10.3159 16.4292 10.4324C16.3453 10.5489 16.28 10.6794 16.2288 10.8285C16.4152 10.931 16.6062 11.0382 16.7973 11.1407C16.8812 11.0941 16.9744 11.0009 17.0815 10.8518C17.1887 10.7027 17.2679 10.6049 17.3238 10.5629C17.2772 10.7586 17.24 10.945 17.2027 11.1314C17.1188 11.5182 17.0815 11.849 17.0815 12.1146C17.1328 12.2498 17.198 12.3616 17.2772 12.4501C17.3565 12.5387 17.4543 12.5899 17.5755 12.6086C18.1347 12.52 18.8802 12.1985 19.8122 11.6487C20.3993 11.2992 20.828 11.0615 21.0983 10.931C21.4478 10.7446 21.7227 10.5349 21.9278 10.3066C22.1747 10.0224 22.2959 9.71482 22.2959 9.37931L22.2819 9.36067ZM15.3481 4.39329C15.3201 4.52842 15.2968 4.6356 15.2828 4.71948C15.2689 4.80336 15.2223 4.87325 15.1477 4.93383C15.0871 4.95713 15.0359 4.94316 14.9986 4.90122C14.9566 4.85462 14.924 4.81268 14.8914 4.76608C14.8634 4.6822 14.8448 4.59366 14.8448 4.4958C14.8448 4.38397 14.8634 4.28146 14.8961 4.1836C14.9287 4.08575 14.9846 3.98789 15.0592 3.88072C15.0592 3.91799 15.0498 3.96459 15.0359 4.02517C14.9986 4.1836 14.9799 4.29077 14.9799 4.35135C14.9799 4.48648 15.0359 4.58434 15.1477 4.64026C15.1757 4.62628 15.2036 4.58434 15.2316 4.50978C15.2595 4.43988 15.2968 4.39795 15.3481 4.39329ZM19.966 9.59366C19.952 9.75676 19.9287 9.87326 19.9007 9.9385C19.8495 10.0597 19.7656 10.1342 19.6538 10.1622C19.6165 10.1761 19.5792 10.1715 19.5466 10.1389C19.514 10.1109 19.472 10.0457 19.4161 9.94781C19.4021 9.91054 19.3928 9.86859 19.3928 9.82665V9.72414C19.3928 9.6123 19.4114 9.50513 19.4441 9.40727C19.4767 9.30942 19.5233 9.19758 19.5839 9.07643C19.5699 9.12769 19.5559 9.19292 19.5373 9.27213C19.5233 9.35135 19.514 9.42592 19.514 9.50047C19.514 9.65891 19.5606 9.78005 19.6491 9.86859C19.7143 9.87791 19.7796 9.84529 19.8401 9.78005C19.9007 9.69152 19.9427 9.62629 19.9613 9.58901L19.966 9.59366ZM22.1468 11.6393C21.9697 11.7745 21.7087 11.9143 21.3732 12.0634C20.5438 12.4455 20.0825 12.6598 19.9846 12.7111C20.0825 12.576 20.199 12.4595 20.3434 12.3523C20.4832 12.2498 20.828 12.068 21.3732 11.8164C21.6575 11.6813 21.8672 11.5648 22.0116 11.4716L22.1468 11.6393ZM13.0787 3.76422L13.0135 3.97857L12.7246 3.81081C12.6034 4.23019 12.4869 4.64026 12.3658 5.05032C12.3052 4.99907 12.2073 4.80335 12.0769 4.46784C11.9743 4.20689 11.8252 4.09506 11.6295 4.13234C11.5689 4.09506 11.541 4.04846 11.541 3.98788C11.541 3.9506 11.555 3.89469 11.5876 3.82014C11.6155 3.74558 11.6342 3.69432 11.6342 3.6617C11.7181 3.57317 11.7926 3.5452 11.8579 3.58248C11.9557 3.68034 12.0349 3.8015 12.0908 3.95061C12.2679 4.38397 12.3704 4.61696 12.3937 4.65424C12.445 4.589 12.4916 4.43989 12.5289 4.2069C12.6034 3.75023 12.6873 3.52656 12.7852 3.52656C12.8318 3.52656 12.8737 3.54055 12.9156 3.57316C12.9576 3.60112 13.0135 3.66636 13.0881 3.76422H13.0787ZM14.0853 6.23393C13.9361 6.44828 13.787 6.66263 13.6379 6.87232C13.5121 6.78844 13.3909 6.72321 13.2744 6.66729C13.1579 6.61137 13.0135 6.54614 12.8457 6.47158C12.7805 6.50886 12.7153 6.59274 12.65 6.71855C12.5848 6.84437 12.5242 6.9329 12.4636 6.97484C12.3285 6.95154 12.2027 6.91891 12.0908 6.86766C11.9744 6.82106 11.8532 6.75583 11.7274 6.67195C11.788 6.56012 11.8485 6.44362 11.9184 6.3178C11.9837 6.19664 12.0769 6.09414 12.1887 6.01958C12.2726 6.01026 12.3844 6.0522 12.5335 6.13607C12.6826 6.21995 12.7852 6.26655 12.8457 6.26655C12.911 6.26655 12.9716 6.22926 13.0228 6.1547L13.3676 5.81919C13.4702 5.81919 13.5913 5.86581 13.7218 5.96366C13.8523 6.06152 13.9734 6.15005 14.0853 6.23393ZM9.82617 6.57875C9.80287 6.81174 9.74229 7.03541 9.63511 7.24977C9.5326 7.46412 9.3928 7.64119 9.22039 7.77633C9.11787 7.79963 9.02468 7.77633 8.95012 7.71575C8.87556 7.65051 8.8243 7.5713 8.79168 7.47344C8.7544 7.30103 8.73577 7.10065 8.73577 6.86766C8.73577 6.39701 8.83828 5.91706 9.03865 5.42312C9.19709 5.04101 9.43008 4.61696 9.74229 4.14632C9.60715 4.46784 9.47668 4.78472 9.35086 5.09693C9.20175 5.49301 9.12719 5.83318 9.12719 6.11277C9.12719 6.28518 9.14583 6.43896 9.18777 6.56943C9.22971 6.70457 9.29961 6.8397 9.40678 6.98415C9.50464 6.98415 9.58386 6.9329 9.65375 6.82572C9.75161 6.66263 9.80753 6.57409 9.82151 6.56943L9.82617 6.57875ZM11.8485 8.60112C11.8485 8.76421 11.8392 8.89935 11.8159 8.9972C11.7926 9.09972 11.7367 9.17429 11.6482 9.22555C11.6016 9.23953 11.5596 9.23486 11.513 9.21622C11.4291 9.14166 11.3732 9.09506 11.3453 9.07176C11.308 8.97391 11.2894 8.86207 11.2894 8.73625C11.2894 8.58714 11.3173 8.43803 11.3686 8.29358C11.4198 8.14912 11.4897 8.00932 11.5829 7.87418C11.5223 8.10717 11.4618 8.33086 11.4059 8.55453C11.4059 8.71296 11.4711 8.84344 11.6062 8.94595C11.6808 8.93663 11.732 8.88071 11.7553 8.77819C11.7833 8.67568 11.8113 8.6151 11.8485 8.60112ZM15.6277 10.4371C15.6649 10.3765 15.6836 10.3113 15.6836 10.2367C15.6836 10.1528 15.651 10.0969 15.5811 10.0596C15.5438 10.0596 15.4785 10.0503 15.39 10.0364H15.199C14.281 10.1994 13.3676 10.3625 12.459 10.5303C12.2726 10.5536 11.979 10.5955 11.5736 10.6515C11.2521 10.6887 10.9445 10.7074 10.6463 10.7074C10.2083 10.7074 9.82617 10.6421 9.50464 10.5163C9.13185 10.3672 8.83828 10.1202 8.61927 9.78005C8.55869 9.67754 8.52141 9.58435 8.50277 9.50979C8.48413 9.43523 8.47481 9.33738 8.47481 9.22088C8.47481 9.04381 8.52607 8.8015 8.63325 8.49395C8.76838 8.0932 8.84294 7.86953 8.85692 7.82293C8.54937 8.30755 8.36298 8.61976 8.28842 8.76421C8.09271 9.14632 7.99951 9.49115 7.99951 9.80336C7.99951 10.041 8.05543 10.2833 8.16727 10.5303C8.45618 10.8658 8.79168 11.1081 9.17379 11.2572C9.49998 11.383 9.88674 11.4483 10.3248 11.4483C11.6435 11.2106 12.9669 10.9683 14.2949 10.7213C14.3788 10.698 14.4394 10.6841 14.486 10.6747C14.5326 10.6654 14.5932 10.6654 14.6771 10.6654C14.8401 10.6654 14.9613 10.6981 15.0359 10.768C14.938 10.9637 14.6677 11.2293 14.2204 11.5741C13.8243 11.8723 13.5913 12.1566 13.5168 12.4222C14.0154 12.0727 14.4021 11.7791 14.6677 11.5368C15.0778 11.1734 15.3993 10.8052 15.6277 10.4418V10.4371ZM27.2912 9.49581C27.1561 9.57969 27.021 9.6589 26.8905 9.73812C26.7553 9.81733 26.6388 9.85461 26.5457 9.85461C26.4571 9.85461 26.3779 9.82666 26.3033 9.77074C26.2334 9.71482 26.1635 9.62163 26.0983 9.49581C26.0517 9.44921 26.0331 9.41659 26.0424 9.39329H26.1868C26.2847 9.39329 26.4525 9.39796 26.6901 9.41194C26.9278 9.42126 27.1281 9.44921 27.2959 9.49581H27.2912Z" fill="currentColor"/>
</svg>
