<svg width="40" height="16" viewBox="0 0 40 16" fill="none" xmlns="http://www.w3.org/2000/svg">
<path fill-rule="evenodd" clip-rule="evenodd" d="M28.0474 5.07476C27.9256 4.89836 27.8038 4.72617 27.6862 4.54977C27.6064 4.78496 27.5644 5.06216 27.5644 5.37715C27.5644 5.51155 27.5728 5.71735 27.5938 5.99034C27.6148 6.26753 27.6232 6.46913 27.6232 6.59513C27.6652 6.97312 27.6946 7.40571 27.7156 7.8971C27.7366 8.38849 27.745 8.83368 27.745 9.23688C27.745 9.67367 27.6988 10.0979 27.6022 10.5052C27.5098 10.9168 27.3712 11.3116 27.1906 11.6938C27.2704 11.3578 27.3292 11.0176 27.367 10.669C27.4048 10.3247 27.4216 9.94666 27.4216 9.54347C27.4216 9.09408 27.3964 8.54809 27.3502 7.9097C27.241 6.44393 27.1906 5.52835 27.1906 5.15876C27.1486 4.67997 27.1108 4.20538 27.0688 3.72659C27.1234 3.43259 27.2536 3.189 27.4636 3C27.4972 3.1764 27.6106 3.51239 27.808 4.01638C27.9676 4.43217 28.0516 4.78076 28.0516 5.06636L28.0474 5.07476ZM24.0575 4.67157C24.0575 4.67157 24.0785 4.73037 24.0785 4.79336C24.0785 4.86056 24.0701 4.91096 24.0575 4.94876C24.0449 4.98656 24.0197 5.03696 23.9861 5.10416C23.9315 5.16296 23.8643 5.19656 23.7845 5.19656C23.7383 5.19656 23.6963 5.17976 23.6627 5.14616C23.5619 5.07056 23.5115 4.95716 23.5115 4.80176C23.5115 4.75976 23.5115 4.72197 23.5199 4.68417C23.5283 4.64637 23.5325 4.60857 23.5409 4.56657L23.7719 4.10458C23.7845 4.16338 23.7719 4.26417 23.7257 4.39857C23.6837 4.53297 23.6585 4.61697 23.6585 4.65057C23.6585 4.69677 23.6711 4.73877 23.6921 4.77656C23.7173 4.81436 23.7593 4.84376 23.8181 4.87316C23.8853 4.89836 23.9357 4.87316 23.9735 4.79756C24.0113 4.72197 24.0365 4.67997 24.0491 4.67157H24.0575ZM25.9432 5.00336C25.9432 4.97816 25.9432 4.93616 25.9516 4.88156C25.9516 4.65897 25.8634 4.35237 25.6912 3.95338C25.4686 3.45779 25.3426 3.1386 25.309 3.0042C25.2292 3.1134 25.1536 3.231 25.0822 3.35699C25.0108 3.48299 24.9605 3.60059 24.9269 3.70979C25.0402 4.61697 25.162 5.57035 25.2964 6.57413C25.4266 7.57371 25.4938 8.45149 25.4938 9.20328C25.4014 9.59387 25.1872 9.94246 24.8597 10.2533C24.6455 10.4549 24.3053 10.69 23.8433 10.9588C23.2637 11.2948 22.9151 11.5048 22.7933 11.5846C23.3981 11.4082 24.0029 11.2402 24.6077 11.0722C25.036 10.711 25.3426 10.2617 25.5232 9.73247C25.6786 9.28307 25.7542 8.73709 25.7542 8.0987C25.7542 7.7879 25.6828 7.06552 25.5442 5.92314C25.4854 5.43175 25.4518 5.02436 25.4518 4.69257L25.5946 4.46157C25.6702 4.57497 25.7458 4.68837 25.8256 4.79336C25.8676 4.85216 25.9054 4.92356 25.9474 5.00336H25.9432ZM25.0654 8.65309C25.0108 8.34229 24.8891 8.0399 24.7043 7.7459C24.5573 7.51911 24.3473 7.26711 24.0785 6.98992C23.6081 6.50693 23.1419 6.01974 22.6757 5.52835C22.4825 5.31415 22.2893 5.09996 22.1003 4.88156C21.8861 4.62537 21.7643 4.40277 21.7391 4.20538C21.7811 4.22638 21.8147 4.23478 21.8483 4.23478C21.9365 4.23478 22.0163 4.19698 22.0919 4.12558C21.7307 3.82318 21.3653 3.51659 21.0041 3.21C20.9243 3.32339 20.8697 3.42839 20.8361 3.51659C20.8025 3.60479 20.7899 3.71399 20.7899 3.83578C20.7899 4.19698 21.0671 4.68417 21.6173 5.28895C21.9869 5.69215 22.2179 5.96514 22.3061 6.10374C22.3985 6.24653 22.5161 6.39773 22.6631 6.55733C22.7555 6.65813 22.9067 6.80512 23.1083 7.00252C23.2637 7.14952 23.4191 7.29651 23.5703 7.43511C23.7593 7.61571 23.9063 7.7627 24.0155 7.8677C24.3263 8.1827 24.5615 8.50189 24.7295 8.82528C24.8177 8.99328 24.8807 9.16968 24.9227 9.35027C24.9647 9.53087 24.9899 9.73666 25.0024 9.96346C25.0486 9.82066 25.0738 9.69887 25.078 9.59387C25.078 9.48887 25.0822 9.39227 25.0822 9.30827C25.0822 9.22848 25.0822 9.11508 25.0738 8.96388C25.0654 8.81688 25.0654 8.71189 25.0654 8.65309ZM20.0465 5.45695C20.0465 5.62495 19.9752 5.78034 19.8366 5.91894C19.7778 5.93154 19.7232 5.92734 19.6812 5.89794C19.6392 5.87274 19.5972 5.83074 19.5636 5.77614C19.5552 5.75094 19.5552 5.72155 19.5552 5.69635V5.63755C19.5552 5.52415 19.5762 5.41495 19.614 5.31415C19.6518 5.21336 19.7106 5.10416 19.7862 4.98236C19.7652 5.04116 19.7484 5.10836 19.7316 5.17976C19.7148 5.25115 19.7064 5.31415 19.7064 5.37715C19.7064 5.48635 19.74 5.57035 19.8072 5.63755L20.0507 5.45695H20.0465ZM21.6005 6.78832C21.6131 6.82192 21.6215 6.87232 21.6215 6.93952C21.6215 7.01512 21.6047 7.08232 21.5753 7.14952C21.5459 7.21672 21.4997 7.29231 21.4409 7.37631C21.3821 7.46031 21.3023 7.51911 21.2099 7.55271C21.1175 7.58631 21.0209 7.60311 20.9285 7.60311C20.8823 7.59471 20.8445 7.59471 20.8193 7.59471C20.7857 7.58631 20.7521 7.56531 20.7143 7.52751C20.6765 7.48971 20.6471 7.43511 20.6177 7.35951C20.6387 7.22512 20.6765 7.09912 20.7395 6.97732C20.8025 6.85552 20.8823 6.72953 20.9831 6.59513C20.9915 6.65393 20.9621 6.75052 20.8991 6.87652C20.8361 7.00252 20.8025 7.09072 20.8025 7.13692C20.8025 7.22932 20.8739 7.29651 21.0125 7.33011C21.0881 7.31751 21.1637 7.30071 21.2393 7.28391C21.3149 7.26711 21.3821 7.23352 21.4367 7.18732C21.4451 7.10752 21.4073 7.02772 21.3275 6.95632C21.2183 6.87652 21.1469 6.81772 21.1049 6.78412L21.2771 6.54053C21.3317 6.54893 21.3863 6.57833 21.4451 6.63293C21.5039 6.68753 21.5585 6.73793 21.6131 6.78412L21.6005 6.78832ZM20.2607 3.52079C19.7148 3.72239 19.047 3.98698 18.2532 4.31877C17.5476 4.60857 16.884 4.88996 16.2582 5.16716C16.2498 5.20076 16.2204 5.25115 16.1616 5.31835C16.1028 5.38555 16.0776 5.44015 16.0776 5.47795C16.0776 5.50315 16.086 5.53675 16.107 5.57035L16.3086 5.36035L19.9248 3.82318C20.0045 3.78958 20.0759 3.74758 20.1347 3.70139C20.1935 3.65519 20.2355 3.59219 20.2565 3.52079H20.2607ZM25.2082 11.7946C25.1536 11.9542 24.9773 12.0802 24.6749 12.1642C24.3725 12.2482 24.1793 12.3238 24.0911 12.391C24.0785 12.3322 24.1163 12.265 24.2087 12.1936C24.3011 12.1222 24.3431 12.0802 24.3431 12.0676C24.3431 12.0256 24.2969 11.992 24.2003 11.9584C24.1919 11.9374 24.1793 11.9164 24.1583 11.887C24.1037 11.8198 24.0953 11.7652 24.1289 11.7274C24.3053 11.5678 24.4061 11.4754 24.4313 11.4544C24.5069 11.3998 24.5741 11.3746 24.6413 11.3746C24.7295 11.3746 24.8009 11.4166 24.8513 11.4964C24.8387 11.6182 24.7925 11.6854 24.7085 11.698C24.6077 11.6728 24.5363 11.656 24.4985 11.656C24.4649 11.656 24.4355 11.6686 24.4061 11.698C24.5279 11.8198 24.6749 11.8786 24.8513 11.8786C24.9647 11.8786 25.0822 11.8534 25.204 11.7988L25.2082 11.7946ZM25.3678 12.1894C25.2796 12.2314 25.1578 12.2818 25.0066 12.3406C24.9269 12.3658 24.8135 12.4078 24.6707 12.4666C24.5279 12.5254 24.4019 12.5884 24.2927 12.6598C24.1835 12.7312 24.0995 12.811 24.0407 12.9076C24.2843 12.8152 24.5237 12.7186 24.7673 12.6262C24.8933 12.58 25.0108 12.517 25.12 12.4456C25.2292 12.37 25.3132 12.286 25.372 12.1936L25.3678 12.1894ZM18.6522 6.31373C18.627 6.38933 18.6018 6.44813 18.5808 6.49433C18.5598 6.54053 18.5304 6.56573 18.4884 6.56573C18.4632 6.56573 18.4296 6.55313 18.396 6.52373C18.228 6.56573 18.123 6.73373 18.0852 7.03192C18.0432 7.33011 17.9928 7.52331 17.9256 7.61151L17.493 6.78412C17.4678 6.81772 17.4342 6.83452 17.3922 6.83452C17.2998 6.80092 17.2326 6.77992 17.1906 6.77572C17.1444 6.73373 17.1192 6.69173 17.1192 6.64553C17.1192 6.60353 17.136 6.54473 17.1696 6.46913C17.2032 6.39353 17.22 6.33893 17.22 6.31373C17.2536 6.25493 17.304 6.22134 17.3712 6.22134C17.3964 6.22134 17.4258 6.22974 17.451 6.24233C17.5434 6.35573 17.6358 6.50693 17.724 6.69593C17.7912 6.85552 17.8626 7.01512 17.934 7.17052C18.0012 6.92272 18.0516 6.74213 18.0852 6.62453C18.1524 6.41033 18.2616 6.26753 18.4086 6.20034C18.4548 6.20874 18.4884 6.21294 18.5094 6.22134C18.5682 6.26753 18.6186 6.29693 18.6522 6.31373ZM13.3603 3.66359C13.3519 3.71819 13.3183 3.74339 13.2595 3.74339C13.1839 3.73079 13.1335 3.72239 13.0999 3.72239C13.0243 3.72239 12.9907 3.77278 12.9907 3.87358C12.9907 4.09618 12.9781 4.28937 12.9571 4.45737C12.9319 4.62537 12.8815 4.78076 12.8017 4.91936C12.7471 4.86056 12.6547 4.69257 12.5203 4.41537C12.4615 4.29357 12.3943 4.18858 12.3271 4.10458C12.3145 4.12978 12.3019 4.15918 12.2977 4.18438C12.2893 4.20958 12.2893 4.23898 12.2893 4.26417C12.2011 4.23058 12.1423 4.20538 12.1087 4.18438C12.0331 4.14238 11.9995 4.08778 11.9995 4.01218C11.9995 3.89038 12.0079 3.79378 12.0247 3.72659C12.0415 3.65519 12.0793 3.58799 12.1423 3.52079C12.3019 3.58799 12.4363 3.73079 12.5455 3.95338C12.6337 4.14238 12.7219 4.32717 12.8059 4.50777C12.8479 4.24738 12.8815 4.02058 12.9109 3.83578C12.9403 3.65099 13.0117 3.50399 13.1293 3.39899C13.2049 3.38639 13.2679 3.39479 13.3225 3.42419C13.3771 3.45359 13.4023 3.49979 13.4023 3.55859C13.4023 3.58379 13.3939 3.61739 13.3729 3.65939L13.3603 3.66359ZM15.6198 5.14616C15.5526 5.12516 15.477 5.05376 15.3972 4.92356C15.2838 4.74716 15.204 4.64217 15.1662 4.60017L15.0067 4.96136C15.141 5.99034 15.2796 7.01932 15.4182 8.0441C15.4434 8.30449 15.4602 8.60269 15.4602 8.93028C15.4602 9.33347 15.4308 9.70727 15.3762 10.0559C15.3174 10.4003 15.225 10.7488 15.0906 11.0974C15.1326 10.753 15.1578 10.4969 15.1662 10.3205C15.1746 10.1441 15.183 9.92566 15.183 9.65687C15.183 9.55607 15.183 9.45947 15.1788 9.36287C15.1788 9.27047 15.162 9.09408 15.1326 8.83788L14.5069 4.02898C14.4859 3.95338 14.4775 3.88618 14.4775 3.81898C14.4775 3.65939 14.5195 3.50819 14.6035 3.36539C14.6875 3.2226 14.7925 3.105 14.9227 3.0042C15.1578 3.71819 15.393 4.42797 15.6282 5.14196L15.6198 5.14616ZM16.5186 9.20748C16.3422 9.20748 16.2582 9.09828 16.2582 8.88408C16.2582 8.50189 16.3296 8.1491 16.4682 7.8257C16.4766 7.9055 16.4682 7.9853 16.4598 8.0693C16.4052 8.35909 16.38 8.51449 16.38 8.53129C16.38 8.61109 16.3926 8.68249 16.4136 8.74968C16.4388 8.81268 16.4808 8.86728 16.5396 8.91768C16.5816 8.84208 16.6194 8.77068 16.6614 8.69509C16.6824 8.75388 16.6908 8.80848 16.6908 8.85468C16.6908 8.99748 16.632 9.11508 16.5186 9.20748ZM21.7391 11.425C21.7517 11.5174 21.7223 11.614 21.6425 11.7106C21.5669 11.8072 21.4703 11.8912 21.3569 11.9584C21.1553 11.9584 20.9663 12.0214 20.7941 12.1516C20.6387 12.0844 20.4917 12.0508 20.3489 12.0508C20.2061 12.0508 20.0423 12.0886 19.8744 12.16C19.7526 12.2146 19.6056 12.2986 19.4292 12.412C19.1394 12.6052 18.9252 12.7396 18.7824 12.8068C18.522 12.9328 18.2784 13 18.0558 13C18.2154 12.958 18.3624 12.9034 18.4926 12.832C18.6228 12.7606 18.8874 12.5842 19.2822 12.3028C19.5258 12.1348 19.7358 12.0088 19.9164 11.929C20.1641 11.8156 20.3993 11.7568 20.6219 11.7568C20.6975 11.8324 20.7773 11.866 20.8655 11.866C20.9201 11.866 20.9621 11.8492 20.9957 11.8156C21.0293 11.74 21.0671 11.677 21.1133 11.6224C21.1553 11.5678 21.2057 11.5258 21.2603 11.4922C21.2687 11.5174 21.2603 11.5552 21.2393 11.5972C21.2183 11.6392 21.2099 11.6644 21.2099 11.6728C21.2309 11.6854 21.2729 11.6938 21.3401 11.6938C21.4283 11.6938 21.4955 11.6812 21.5417 11.6518L21.7349 11.4208L21.7391 11.425ZM22.6253 8.79588C22.7051 8.97648 22.7471 9.16548 22.7471 9.35867C22.7471 9.55187 22.7135 9.76186 22.6463 9.96346C22.5791 10.1651 22.4867 10.3625 22.3649 10.5598C22.2431 10.648 22.0709 10.69 21.8399 10.69C21.7937 10.69 21.7433 10.69 21.6887 10.6858C21.6341 10.6858 21.5627 10.669 21.4661 10.6522C21.2855 10.5724 21.1469 10.4507 21.0545 10.2911C20.9411 10.4339 20.8277 10.5682 20.7101 10.7026C20.5673 10.8496 20.4245 10.9462 20.2775 10.984C20.2229 10.984 20.1683 10.984 20.1179 10.9882C20.0633 10.9882 20.0088 10.9924 19.9584 10.9924C19.8576 10.9924 19.7736 10.984 19.7064 10.9672C19.6392 10.9504 19.5804 10.9168 19.5258 10.8622C19.4166 10.6816 19.3116 10.501 19.2024 10.3163C19.047 10.1147 18.8664 10.0139 18.6564 10.0139C18.2406 10.0139 17.8206 10.1357 17.3964 10.3751C17.1066 10.543 16.7454 10.8202 16.3086 11.2024C15.96 11.5132 15.6114 11.8198 15.2712 12.1306C14.8555 12.4876 14.4859 12.7438 14.1625 12.9076C14.0407 12.9202 13.9525 12.9286 13.8895 12.9286C13.7467 12.9286 13.6291 12.9118 13.5367 12.8824C13.4443 12.853 13.3435 12.7984 13.2427 12.7144C13.1209 12.6136 13.0285 12.5044 12.9655 12.3868C12.9025 12.2692 12.8605 12.1348 12.8395 11.9878C12.8395 11.6728 12.8983 11.3578 13.0201 11.0386C13.0621 10.9378 13.3141 10.4675 13.7761 9.62747C13.7425 9.72827 13.6333 9.96766 13.4443 10.3415C13.3561 10.522 13.2889 10.6732 13.2427 10.795C13.1965 10.9168 13.1545 11.0386 13.1209 11.1646C13.0873 11.2906 13.0705 11.404 13.0705 11.5132C13.0705 11.7064 13.1209 11.908 13.2217 12.1096C13.4149 12.3028 13.6333 12.4036 13.8685 12.4036C13.9273 12.4036 13.9777 12.4036 14.0113 12.3952C14.3221 12.2482 14.6245 12.0592 14.9269 11.8324C15.0193 11.7568 15.4896 11.341 16.3296 10.5808C16.8588 10.1021 17.2452 9.79126 17.4804 9.64427C17.9298 9.35447 18.3792 9.21168 18.8202 9.21168C18.9966 9.19908 19.1604 9.24108 19.3158 9.33767C19.4712 9.43427 19.5804 9.56867 19.6476 9.73667C19.6476 9.89626 19.74 10.0433 19.929 10.1693C20.0088 10.1945 20.0927 10.2113 20.1809 10.2113C20.4161 10.2113 20.6513 10.0895 20.8865 9.85006C21.0755 9.64007 21.2645 9.43007 21.4493 9.21588C21.4367 9.27047 21.4241 9.32507 21.4157 9.38387C21.4073 9.44267 21.3989 9.48887 21.3989 9.53087C21.3989 9.61067 21.4157 9.67367 21.4451 9.72407C21.4745 9.77446 21.5333 9.80806 21.6215 9.83326C21.7097 9.88786 21.8315 9.91306 21.9953 9.91306C22.0835 9.91306 22.1507 9.90886 22.2011 9.89626C22.2515 9.88786 22.3061 9.86266 22.3691 9.82906L22.3607 9.27467L22.6337 8.80008L22.6253 8.79588ZM13.3603 5.63755C13.3015 5.83074 13.1755 5.99454 12.9865 6.12054C12.8269 6.22974 12.6295 6.30113 12.4027 6.34313L12.3607 6.31373C12.6043 6.16674 12.8479 6.01974 13.0957 5.86854C12.9739 5.83494 12.8521 5.81814 12.7219 5.81814C12.6295 5.81814 12.5413 5.83074 12.4615 5.86014C12.3817 5.88534 12.3103 5.93154 12.2515 5.99034C12.2305 5.93574 12.2431 5.88534 12.2809 5.83494C12.3229 5.78454 12.3607 5.73415 12.4027 5.68795C12.5119 5.59975 12.6715 5.55775 12.8857 5.55775C13.0621 5.55775 13.2175 5.58295 13.3603 5.63755ZM17.451 12.0592C17.4258 12.0718 17.3964 12.1012 17.367 12.139C17.3376 12.181 17.2956 12.2398 17.241 12.3196C17.115 12.265 17.0478 12.1768 17.0478 12.0466C17.0478 11.9794 17.0814 11.8702 17.1444 11.7148C17.2074 11.5594 17.241 11.4544 17.241 11.404C17.1276 11.6056 17.0478 11.7568 16.9974 11.8576C16.9218 12.034 16.8882 12.1978 16.8882 12.3532C16.8966 12.3742 16.9176 12.4204 16.9554 12.5002C16.9932 12.5758 17.0478 12.6094 17.1234 12.5968C17.2242 12.5548 17.2998 12.4876 17.3544 12.3868C17.409 12.286 17.4426 12.1768 17.4552 12.0634L17.451 12.0592ZM14.5363 8.72449L13.9609 8.93448C13.8139 8.96808 13.6795 8.98488 13.5577 8.98488C13.3771 8.98488 13.2049 8.95548 13.0369 8.89248C12.8731 8.83368 12.7387 8.73709 12.6379 8.61109C12.7051 8.55229 12.7597 8.51029 12.7975 8.48929C12.8395 8.46829 12.8899 8.46829 12.9487 8.48929C13.0033 8.52289 13.0537 8.57329 13.0999 8.64049C13.1251 8.67409 13.1629 8.72449 13.2091 8.79168C13.3015 8.68249 13.3981 8.56909 13.4947 8.44729C13.5913 8.32549 13.6501 8.2121 13.6711 8.1029L13.4695 7.8425C13.1755 7.8425 12.8899 7.9937 12.6211 8.29609C12.4867 8.44309 12.2935 8.72449 12.0457 9.14448C12.0709 9.26627 12.1549 9.36287 12.2893 9.43847C12.3649 9.48047 12.4783 9.53507 12.6337 9.61067C12.4909 9.75347 12.3985 9.85006 12.3523 9.90466C12.2641 10.0055 12.1885 10.1105 12.1213 10.2155H12.1927C12.3523 10.0685 12.5539 9.93826 12.7975 9.83326C13.0201 9.75346 13.2427 9.67367 13.4611 9.58967C13.7425 9.48047 13.9525 9.37967 14.0869 9.27887C14.2801 9.13608 14.4313 8.95128 14.5321 8.72449H14.5363Z" fill="currentColor"/>
</svg>
