<svg width="40" height="16" viewBox="0 0 40 16" fill="none" xmlns="http://www.w3.org/2000/svg">
<path fill-rule="evenodd" clip-rule="evenodd" d="M28.0029 4.94266C27.9259 4.89987 27.8532 4.80573 27.7761 4.66025C27.6991 4.51476 27.6435 4.41635 27.6007 4.36928C27.6007 4.7116 27.6221 5.12666 27.6606 5.61018C27.7548 6.75267 27.8061 7.48438 27.8061 7.80958V8.53701C27.8061 9.09328 27.7804 9.5383 27.7334 9.88062C27.6649 10.3599 27.5365 10.7792 27.3525 11.1344C27.4124 10.9718 27.4595 10.792 27.4895 10.5952C27.5194 10.3984 27.5365 10.193 27.5365 9.97475C27.5365 9.73513 27.5194 9.38853 27.4809 8.93924C27.4424 8.48566 27.4253 8.18614 27.4253 8.03637C27.2456 6.62003 27.0701 5.1994 26.8904 3.7745C26.9503 3.63757 27.0188 3.49636 27.0872 3.35516C27.1771 3.19683 27.2841 3.09414 27.4039 3.04707C27.6007 3.68464 27.8018 4.31793 27.9987 4.94694L28.0029 4.94266ZM23.5143 3.09414C23.4544 3.21823 23.3602 3.32092 23.2361 3.40222C23.1121 3.48353 22.9708 3.55627 22.8168 3.6119C22.6585 3.6718 22.5044 3.72315 22.3547 3.77022C22.2049 3.83012 22.068 3.90715 21.9439 3.997C22.0038 3.86008 22.1022 3.74454 22.2306 3.64613C22.3247 3.57766 22.4616 3.5092 22.6414 3.44074C22.8468 3.38083 22.9965 3.32948 23.0949 3.29525C23.2747 3.23534 23.4116 3.16688 23.5143 3.08986V3.09414ZM23.0521 5.83697L22.6628 6.51305L22.0765 6.05092L22.4873 5.42619C22.5772 5.46898 22.6842 5.52888 22.8125 5.61446C22.9409 5.70004 23.0179 5.77278 23.0521 5.83697ZM20.7201 4.25374C20.7073 4.365 20.6474 4.4249 20.5447 4.43774C20.4634 4.41635 20.3136 4.46769 20.1039 4.59178C19.9884 4.66025 19.9028 4.69448 19.8472 4.69448C19.753 4.69448 19.676 4.61746 19.6204 4.45914C19.6118 4.43346 19.6118 4.39495 19.6118 4.34788C19.6118 4.29225 19.6332 4.19812 19.6717 4.06119C19.6931 3.99273 19.706 3.93282 19.7145 3.88575L19.7573 3.86436C19.7787 3.91998 19.7873 3.96705 19.7873 4.00984C19.7787 4.09114 19.7787 4.15105 19.7787 4.18528C19.7787 4.28798 19.8215 4.35644 19.9114 4.39067C19.9584 4.38211 20.0098 4.37356 20.0611 4.35644C20.1125 4.33932 20.1424 4.30937 20.1467 4.27086C20.1553 4.22807 20.1553 4.17672 20.1553 4.11682C20.1467 4.01412 20.1467 3.94138 20.1467 3.90287C20.1467 3.84296 20.1553 3.78733 20.1681 3.74454C20.1809 3.70175 20.2109 3.65896 20.2622 3.62473C20.2708 3.65041 20.2794 3.73599 20.2879 3.87719C20.2965 4.0184 20.3393 4.10826 20.4077 4.15105H20.5703C20.5789 4.10826 20.5789 4.06547 20.5703 4.01412C20.5618 3.96277 20.5575 3.90714 20.5489 3.84296C20.5489 3.76166 20.5703 3.69747 20.6088 3.64613C20.703 3.7745 20.7543 3.92854 20.7543 4.0997C20.7543 4.15533 20.7458 4.21095 20.7244 4.2623L20.7201 4.25374ZM21.3277 4.57039C21.1566 4.68164 20.9726 4.78006 20.7714 4.86992C20.6474 4.92555 20.4634 5.00257 20.2237 5.10526C19.9798 5.20796 19.7744 5.31065 19.6076 5.41763C19.4407 5.5246 19.2909 5.65725 19.1625 5.8113C19.5519 5.63158 19.9413 5.45186 20.335 5.26786C20.5618 5.16517 20.7458 5.06675 20.8913 4.96833C21.071 4.8528 21.2165 4.72015 21.332 4.56611L21.3277 4.57039ZM26.8005 8.50278C26.7192 8.42576 26.6379 8.37869 26.5652 8.3573C26.4882 8.3359 26.394 8.32734 26.2785 8.32734C26.1758 8.32734 26.0346 8.34446 25.8592 8.37869C25.5083 8.44715 25.2943 8.48139 25.213 8.48139L24.8322 6.50877C24.8664 6.4831 25.0076 6.36329 25.2515 6.15789C25.5468 5.91827 25.7522 5.70432 25.8677 5.51177C25.9576 5.56739 26.026 5.59307 26.0731 5.59307C26.1073 5.59307 26.1245 5.57167 26.1245 5.53316C26.1245 5.51177 26.1159 5.45614 26.0945 5.37056C26.0731 5.2807 26.0646 5.21224 26.0646 5.16517C26.0646 5.07103 26.0988 5.00257 26.1672 4.95978C26.1801 4.89131 26.1886 4.83141 26.1886 4.78434C26.1886 4.65597 26.1459 4.55755 26.056 4.49765C25.9319 4.49765 25.8249 4.53616 25.7265 4.6089C25.6324 4.68592 25.5468 4.78006 25.4783 4.89559C25.4527 4.92982 25.4355 4.97261 25.4355 5.01968C25.4355 5.06247 25.4698 5.11382 25.5382 5.18228C25.6752 5.31921 25.7522 5.41335 25.7736 5.46898C25.6281 5.6487 25.4698 5.80702 25.2943 5.9525C25.1189 6.09799 24.952 6.20068 24.798 6.26915C24.798 6.14078 24.7509 5.81557 24.6525 5.3021C24.6097 5.08387 24.5926 4.89559 24.5926 4.73727C24.5926 4.63457 24.6011 4.52332 24.6225 4.40779L25.0119 4.74583C24.9691 4.61746 24.8878 4.39495 24.7637 4.08686C24.5455 3.53915 24.4129 3.18828 24.3615 3.02995C24.246 3.17972 24.1647 3.34232 24.1219 3.51348C24.0791 3.68464 24.0534 3.87719 24.0534 4.08686C24.0534 4.36072 24.1133 4.78006 24.2289 5.34061C24.3444 5.90115 24.4043 6.30766 24.4043 6.5644C24.1989 6.68849 24.0192 6.8083 23.8609 6.92383C23.6555 7.0736 23.4929 7.21908 23.3688 7.35601C23.587 7.21053 23.8052 7.06504 24.0278 6.91528C24.1732 6.82542 24.3102 6.76979 24.4385 6.75267L24.7552 8.6012C24.6097 8.6611 24.4557 8.71245 24.2931 8.75096C24.1305 8.78947 23.9678 8.80659 23.8095 8.80659C23.5785 8.80659 23.3602 8.7638 23.1634 8.6825C23.0521 8.61403 22.9751 8.51562 22.9238 8.39153C22.8724 8.26316 22.8468 8.12623 22.8468 7.97646C22.7013 8.07916 22.6028 8.18614 22.5429 8.30167C22.483 8.41292 22.4574 8.54129 22.4574 8.68678C22.4574 8.81087 22.4702 8.91784 22.4916 9.01626C22.5173 9.1104 22.5643 9.26444 22.6414 9.46983C22.7569 9.79076 22.8168 10.0261 22.8168 10.1673C22.2819 10.5866 21.6572 10.9675 20.9383 11.3184C20.4805 11.5366 19.8129 11.8233 18.9358 12.1699C17.9773 12.5464 17.3097 12.8246 16.9332 13C17.1129 12.9786 17.2712 12.9487 17.4124 12.9144C17.5536 12.8759 17.712 12.8246 17.8917 12.7561C18.7945 12.6277 19.4877 12.4908 19.967 12.3539C20.7115 12.1485 21.3448 11.8575 21.8669 11.481C22.2691 11.2841 22.5986 11.0145 22.8468 10.6765C23.0949 10.3385 23.249 9.95336 23.3046 9.52118C23.4843 9.52118 23.7496 9.48695 24.1091 9.42276C24.4685 9.35858 24.7381 9.32435 24.9135 9.32435C24.9905 9.64527 25.0847 9.90201 25.2002 10.0946C25.3585 10.3556 25.5682 10.531 25.8249 10.6294C25.8592 10.6423 25.9105 10.6508 25.979 10.6508C26.1373 10.6508 26.2657 10.5952 26.3684 10.4882C26.4925 10.2614 26.6251 10.0175 26.762 9.7608C26.9032 9.49979 26.9717 9.26872 26.9717 9.06333C26.9717 8.87077 26.9118 8.68678 26.7963 8.50706L26.8005 8.50278ZM24.8279 11.0916C24.7509 11.0916 24.6525 11.0873 24.5241 11.0745C24.3957 11.0659 24.3316 11.0573 24.323 11.0573C24.2417 11.0573 24.169 11.0659 24.1005 11.0787C24.0363 11.0916 23.9721 11.1215 23.9122 11.16C23.9122 11.2713 23.9251 11.3868 23.955 11.5109C23.9807 11.635 24.0064 11.7505 24.032 11.8532C24.0577 11.9602 24.0748 12.0458 24.0834 12.11C24.0919 12.1742 24.1005 12.2383 24.1005 12.2982C24.1005 12.4009 24.0791 12.5122 24.0406 12.6277C24.0534 12.5036 24.032 12.3496 23.9807 12.1656C23.8309 11.6863 23.7539 11.4125 23.7539 11.344C23.7539 11.2199 23.7796 11.1172 23.8352 11.0359C23.8908 10.9546 23.9935 10.8776 24.1433 10.8092C24.1775 10.8177 24.2203 10.8092 24.2717 10.792C24.323 10.7749 24.3615 10.7664 24.3915 10.7664C24.3572 10.7107 24.2888 10.6851 24.1861 10.6851C24.0834 10.6979 24.0149 10.7065 23.9807 10.7065C23.9807 10.638 24.0021 10.5824 24.0491 10.5353C24.0919 10.4925 24.1561 10.4497 24.2374 10.4155C24.3059 10.3941 24.3615 10.3898 24.4 10.4069C24.4428 10.4198 24.5455 10.4797 24.7167 10.5824C24.8408 10.6722 24.9007 10.7792 24.9007 10.9119C24.9007 10.9803 24.875 11.0402 24.8279 11.0873V11.0916ZM16.4668 4.73299C16.4668 4.84424 16.4497 4.94266 16.4154 5.03252C16.3812 5.12238 16.3213 5.19084 16.24 5.23791C16.1801 5.25075 16.1202 5.23791 16.0646 5.19512C16.0089 5.13522 15.9704 5.08815 15.9533 5.06247C15.9447 5.02824 15.9447 4.97689 15.9447 4.90843C15.9447 4.75011 15.9918 4.57467 16.0902 4.37356C16.1373 4.27086 16.1886 4.16816 16.2443 4.06547C16.2443 4.12537 16.2186 4.22807 16.163 4.37356C16.1073 4.51904 16.0817 4.62174 16.0817 4.6902C16.0817 4.80573 16.1373 4.89559 16.2443 4.9555C16.2913 4.9555 16.3341 4.92127 16.3684 4.84852C16.4026 4.77578 16.4368 4.73727 16.4711 4.72871L16.4668 4.73299ZM20.5233 6.88104C20.412 6.73128 20.335 6.63286 20.2879 6.59435C20.1852 6.50449 20.074 6.46598 19.9584 6.4831C19.6503 6.63286 19.4236 6.91955 19.2824 7.33462C19.2053 7.5614 19.1369 7.93795 19.0684 8.46427C19.0427 8.47283 18.9999 8.47283 18.9443 8.47283C18.8074 8.47283 18.6833 8.43004 18.5678 8.34018C18.4565 8.25032 18.3538 8.13907 18.264 8.00214C18.1056 7.54857 17.9987 7.01369 17.9345 6.38896C17.9131 6.1964 17.8831 5.68293 17.8489 4.84424C17.8104 4.00556 17.759 3.38939 17.6906 3C17.5964 3.11553 17.5194 3.23107 17.4681 3.35088C17.4167 3.46641 17.3825 3.59906 17.3696 3.74027C17.3696 4.12537 17.4039 4.65169 17.4681 5.32777C17.5322 6.00385 17.5964 6.66281 17.6563 7.30466C17.7162 7.94651 17.7505 8.5199 17.7505 9.02054C17.1215 9.61104 16.5395 10.0518 16.0046 10.347C15.32 10.7236 14.6354 10.9119 13.9507 10.9119C13.9079 10.9119 13.8566 10.9119 13.7924 10.9076C13.7282 10.9076 13.6512 10.899 13.5613 10.8905C13.2661 10.8092 13.0051 10.668 12.7826 10.4711C12.5301 10.2443 12.3803 9.99187 12.3418 9.70946C12.3333 9.67523 12.3333 9.62816 12.3333 9.56397C12.3333 9.37142 12.3761 9.17886 12.4574 8.99059C12.5173 8.8451 12.6157 8.67394 12.7441 8.46855C12.7569 8.48139 12.8125 8.48994 12.9067 8.48994C13.0992 8.38725 13.2404 8.23748 13.3388 8.04493C13.433 7.8481 13.4843 7.63842 13.4843 7.41164C13.4843 7.33462 13.4843 7.27899 13.4758 7.2362C13.4501 7.24476 13.4073 7.29611 13.356 7.39024C13.3046 7.48438 13.2661 7.54857 13.2361 7.57424C13.1805 7.63415 13.1206 7.66838 13.0521 7.66838C13.0265 7.66838 12.9922 7.65982 12.9494 7.63843C12.8468 7.52717 12.774 7.41164 12.7269 7.28755C12.6842 7.16346 12.6585 7.03081 12.6585 6.88532C12.6585 6.67993 12.7269 6.38896 12.8596 6.00813C12.9922 5.6273 13.0693 5.39196 13.0907 5.29354C12.8596 5.63586 12.6799 5.96106 12.5558 6.26915C12.3975 6.65854 12.3204 7.03081 12.3204 7.37741C12.3204 7.77535 12.4274 8.13479 12.6371 8.45571C12.329 9.0291 12.1578 9.37142 12.1236 9.47411C12.0423 9.7009 11.9995 9.92341 11.9995 10.1416C11.9995 10.3599 12.0551 10.5781 12.1621 10.8006C12.3418 11.0873 12.5729 11.3141 12.8596 11.4852C13.1463 11.6521 13.4544 11.7377 13.7839 11.7377H13.9293C13.9892 11.7377 14.0491 11.7291 14.1048 11.7163C14.9606 11.6008 15.7436 11.297 16.4582 10.8006C17.2199 10.2743 17.7462 9.62388 18.0414 8.84938L18.341 9.16603C18.4308 9.22165 18.5079 9.25588 18.572 9.273C18.6362 9.29012 18.7261 9.29867 18.8331 9.29867C19.0256 9.29867 19.2353 9.24305 19.4578 9.13607C19.5519 9.089 19.7445 8.97775 20.0312 8.80659C20.2237 8.62259 20.3735 8.41292 20.4762 8.18614C20.5832 7.95507 20.6345 7.71973 20.6345 7.47155C20.6345 7.38169 20.626 7.28327 20.6046 7.16774C20.5832 7.05648 20.5575 6.96234 20.5233 6.88532V6.88104ZM16.4368 7.8481C16.4368 7.99786 16.4154 8.12623 16.3769 8.2332C16.3341 8.34018 16.2571 8.4172 16.1416 8.46427C16.0731 8.46427 16.0218 8.43004 15.9833 8.36157C15.9447 8.29311 15.9105 8.21609 15.8763 8.12623C15.8763 7.83098 15.9405 7.56996 16.0731 7.33462C16.0517 7.40308 16.0346 7.47582 16.0175 7.55712C16.0004 7.63415 15.9918 7.71117 15.9918 7.77963C15.9918 7.95079 16.0517 8.07916 16.1672 8.16902C16.2443 8.16902 16.2956 8.13051 16.3299 8.05777C16.3512 7.9893 16.3726 7.92084 16.4026 7.85238H16.4454L16.4368 7.8481ZM15.0804 3.47497C15.0804 3.5092 15.0675 3.54771 15.0376 3.59478C15.0119 3.63757 14.9862 3.68036 14.9649 3.72315C14.9392 3.71459 14.8964 3.6932 14.8365 3.65041C14.7766 3.60762 14.7252 3.59906 14.6782 3.62045C14.5883 4.08686 14.4984 4.55327 14.4129 5.0154C14.5498 5.07531 14.6739 5.15661 14.7894 5.25075C14.9007 5.34489 14.9948 5.46042 15.0633 5.58879C15.0205 5.73427 14.8151 5.81557 14.4471 5.83697C14.0791 5.85836 13.8694 5.98246 13.8224 6.20496C13.8438 6.4018 13.878 6.62003 13.9251 6.85109C14.0064 7.21908 14.0919 7.59136 14.1818 7.95935C14.216 8.19897 14.2331 8.41292 14.2331 8.59692C14.2331 8.79375 14.2117 8.98203 14.1732 9.16175C14.1304 9.34146 14.062 9.51262 13.9593 9.68378C14.0192 9.56825 14.0663 9.43988 14.0919 9.30295C14.1176 9.16602 14.1347 9.03338 14.1347 8.90073C14.1347 8.70817 14.1091 8.49422 14.0534 8.2546C14.0278 8.12623 13.9678 7.92512 13.8823 7.65982C13.7967 7.39452 13.7368 7.18485 13.7025 7.03937C13.6683 6.89388 13.6512 6.73128 13.6512 6.56012C13.6512 6.38896 13.6769 6.2392 13.7239 6.09371C13.771 5.94822 13.8523 5.79846 13.9721 5.64869C14.1647 5.55884 14.3829 5.51605 14.6311 5.51605C14.584 5.46898 14.5284 5.42619 14.4728 5.38768C14.4129 5.34916 14.353 5.33205 14.2931 5.33205C14.2503 5.33205 14.2032 5.34917 14.1476 5.3834L14.0363 5.51605C14.0106 5.46898 14.0106 5.41335 14.0363 5.35344C14.062 5.29354 14.0919 5.23363 14.1176 5.17801L14.353 5.03252C14.2588 4.78434 14.1861 4.60034 14.139 4.47625C14.0491 4.24947 13.9251 4.13821 13.7582 4.13821C13.6897 4.11682 13.6298 4.08686 13.5742 4.04407C13.5186 4.00128 13.48 3.94993 13.4629 3.88147C13.4629 3.68892 13.5228 3.54343 13.6469 3.44074C13.8523 3.48353 14.0064 3.63329 14.1091 3.89431C14.2588 4.2623 14.3572 4.47197 14.3957 4.51904C14.4385 4.23235 14.477 3.98845 14.5156 3.79161C14.5541 3.59478 14.6311 3.42362 14.7466 3.27813C14.8236 3.27813 14.8878 3.29525 14.9435 3.32948C14.9991 3.36371 15.0504 3.41078 15.0975 3.47497H15.0804ZM19.5477 10.5909C19.5049 10.6808 19.4749 10.745 19.4535 10.7878C19.4107 10.8691 19.3508 10.9119 19.2695 10.9119C19.1882 10.9247 19.0855 10.9161 18.9657 10.8862C18.8459 10.8562 18.7732 10.8391 18.7432 10.8391C18.495 11.2071 18.1014 11.4895 17.5622 11.6821C16.9118 11.8618 16.4368 11.9987 16.133 12.1014C16.3127 11.9987 16.6978 11.8361 17.2926 11.6093C18.157 11.2884 18.6833 10.8605 18.8758 10.3256C18.9358 10.2786 18.9914 10.2401 19.0342 10.2144C19.077 10.1887 19.1283 10.1716 19.1839 10.1716C19.2182 10.1716 19.2567 10.1801 19.2952 10.2015C19.3508 10.2443 19.3979 10.3 19.4321 10.377C19.4706 10.454 19.5049 10.5225 19.5391 10.5909H19.5477ZM25.9576 5.0967C25.9105 5.10954 25.8592 5.08815 25.8035 5.0368C25.7222 4.9555 25.6752 4.90843 25.6709 4.90415C25.7051 4.84852 25.7565 4.82285 25.8249 4.82285C25.9062 4.82285 25.9533 4.86564 25.9576 4.94694V5.10098V5.0967ZM26.5524 9.72657C26.4711 9.80787 26.3684 9.85066 26.2443 9.85066C26.1758 9.85066 26.0988 9.83355 26.0175 9.79932C25.8677 9.69662 25.7479 9.60248 25.6581 9.52118C25.534 9.39709 25.4612 9.273 25.4441 9.14035C25.6024 9.10612 25.7565 9.089 25.9062 9.089C26.056 9.089 26.1758 9.11468 26.2871 9.16603C26.3983 9.21737 26.4796 9.30295 26.5352 9.41849C26.5438 9.46555 26.5566 9.5383 26.578 9.63243C26.578 9.67522 26.5695 9.70518 26.5566 9.72657H26.5524ZM20.2451 7.9294C19.9499 8.16902 19.6418 8.33162 19.3209 8.42148C19.3209 8.1733 19.3423 7.95935 19.3893 7.77107C19.4321 7.5828 19.5305 7.43731 19.6803 7.33462C19.7744 7.31322 19.8729 7.34317 19.967 7.41592C20.0269 7.46299 20.0825 7.53145 20.1296 7.61703C20.1767 7.70261 20.2152 7.80531 20.2408 7.9294H20.2451ZM19.2481 10.5995C19.2011 10.6123 19.1497 10.6123 19.0984 10.5952C19.047 10.5781 18.9828 10.561 18.9101 10.5396C18.97 10.4925 19.0299 10.4668 19.0855 10.4668C19.1198 10.4668 19.1497 10.484 19.1797 10.5182C19.1797 10.5267 19.2053 10.5524 19.2524 10.5995H19.2481Z" fill="currentColor"/>
</svg>
