<svg width="40" height="16" viewBox="0 0 40 16" fill="none" xmlns="http://www.w3.org/2000/svg">
<path fill-rule="evenodd" clip-rule="evenodd" d="M30.9947 5.22029C30.9468 5.1724 30.8902 5.09839 30.8293 5.00261C30.7683 4.90684 30.7074 4.8067 30.6508 4.71092L30.5245 4.84588L30.9338 9.43448C30.9338 10.0178 30.9164 10.4575 30.8815 10.7492C30.8206 11.2455 30.6987 11.6417 30.5158 11.9421L30.5986 10.2268L30.1588 5.48149C30.124 5.34218 30.0935 5.07227 30.0631 4.67174C30.037 4.27122 29.9804 3.97518 29.8976 3.78798L30.272 3.10884C30.3504 3.22638 30.4331 3.41358 30.5245 3.67479C30.7205 4.21898 30.8554 4.5542 30.9338 4.68916C30.9817 4.83718 31.0078 4.98084 31.0078 5.12886C30.9991 5.17239 30.9991 5.20287 30.9991 5.22463L30.9947 5.22029ZM26.7544 3.04788L26.6412 3.24815C26.1057 3.44406 25.5703 3.6356 25.0304 3.82281C24.2903 4.08837 23.7548 4.28429 23.4196 4.41925C22.9059 4.62821 22.3835 4.8633 21.8524 5.12015C22.1092 4.81976 22.5054 4.56726 23.0452 4.35829C23.498 4.19286 23.9551 4.01872 24.4122 3.84458C25.1915 3.57902 25.9708 3.31345 26.7544 3.05224V3.04788ZM26.9634 6.70484C26.9155 6.87898 26.8763 7.00522 26.8502 7.07923C26.7892 7.2316 26.6804 7.29255 26.528 7.25773C26.4323 7.14018 26.38 6.98781 26.38 6.80932C26.38 6.67871 26.3974 6.55681 26.4366 6.44362C26.4758 6.33043 26.528 6.21724 26.5977 6.09969C26.5759 6.23901 26.5629 6.3522 26.5498 6.43927C26.5411 6.52634 26.5324 6.58293 26.5324 6.6134C26.5324 6.70918 26.5411 6.78754 26.5585 6.84414C26.5759 6.90073 26.6107 6.95733 26.6673 7.02263C26.737 7.02263 26.7936 6.97039 26.8328 6.87026C26.8763 6.77013 26.9155 6.71353 26.959 6.70918L26.9634 6.70484ZM25.7705 5.55551L25.1131 5.02438L24.6212 5.62952C24.5602 5.5468 24.4514 5.46844 24.299 5.39879C24.1467 5.32913 24.0465 5.27688 24.0073 5.24205C23.9159 5.33348 23.8289 5.44231 23.7461 5.56421C23.7113 5.6208 23.646 5.72965 23.5459 5.89944C23.6765 5.98215 23.7853 6.04745 23.868 6.09969C24.0335 6.19547 24.1467 6.26513 24.2033 6.30867C24.2511 6.26078 24.3164 6.165 24.3905 6.02133C24.4688 5.87767 24.5428 5.77753 24.6212 5.71222L25.3221 6.19111C25.3569 6.14758 25.4353 6.0431 25.5528 5.86896C25.6225 5.76447 25.6965 5.65999 25.7705 5.55551ZM22.9059 3.82281C22.8624 3.83151 22.8319 3.85764 22.8101 3.90988C22.7884 3.96212 22.7666 3.9926 22.7361 3.99696C22.6447 3.94907 22.6012 3.86634 22.6012 3.74445C22.6012 3.70091 22.6186 3.60513 22.6578 3.45711C22.6969 3.30909 22.7144 3.21331 22.7144 3.16978C22.6316 3.28732 22.562 3.42228 22.5097 3.57901C22.4575 3.73138 22.4314 3.88376 22.4314 4.02742C22.4401 4.08837 22.4575 4.14933 22.488 4.20157C22.5184 4.25381 22.562 4.28428 22.6186 4.28863C22.71 4.26687 22.7797 4.20157 22.8275 4.08838C22.8493 4.04049 22.8711 3.94907 22.9016 3.81846L22.9059 3.82281ZM28.4436 5.01567C28.1867 4.34523 27.9299 3.67479 27.6686 3C27.599 3.10448 27.5293 3.21333 27.4553 3.33087C27.3813 3.44406 27.3465 3.55289 27.3465 3.64867C27.3465 3.70962 27.3595 3.77057 27.39 3.82716C27.39 4.41053 27.4423 5.1158 27.5467 5.93862C27.5946 6.33478 27.6991 7.02699 27.8602 8.01959C27.9908 8.8337 28.0866 9.53025 28.1432 10.1093C28.0039 10.2703 27.8428 10.3966 27.6556 10.4967C27.4727 10.5925 27.168 10.697 26.7501 10.8015C26.7239 10.8015 26.6717 10.8102 26.5933 10.8232H26.3408C26.097 10.8232 25.8837 10.7928 25.6965 10.7275C25.5137 10.6665 25.3569 10.5533 25.2307 10.3922C25.4614 10.2791 25.6399 10.1223 25.7749 9.91771C25.9055 9.7131 26.0056 9.47366 26.0666 9.20374C26.0927 9.0862 26.1101 8.94689 26.1101 8.78581C26.1101 8.53331 26.0666 8.30257 25.9751 8.08925C25.8837 7.87593 25.74 7.69307 25.5485 7.5407C25.4919 7.52764 25.4397 7.51023 25.3918 7.49282C25.3439 7.47541 25.2873 7.4667 25.2263 7.4667C25.1436 7.4667 25.074 7.49281 25.0174 7.5407C24.7605 7.79321 24.5733 8.08489 24.4601 8.42446C24.3469 8.76404 24.286 9.12973 24.286 9.5259C24.286 9.66521 24.2903 9.80018 24.3034 9.92643C24.3121 10.057 24.3252 10.1528 24.3382 10.2138C23.9812 10.3966 23.6242 10.5316 23.2585 10.6273C22.8928 10.7231 22.5141 10.7667 22.1266 10.7667C21.7653 10.7667 21.4214 10.7231 21.1036 10.6317C20.6377 10.401 20.3373 10.0309 20.2067 9.5259C20.1371 8.99042 20.0848 8.32869 20.05 7.5407C20.0152 6.75272 19.9847 5.99956 19.9542 5.28559C19.9063 4.43666 19.8367 3.73574 19.7453 3.1872C19.6625 3.31345 19.606 3.40052 19.5798 3.44841C19.5319 3.53983 19.4666 3.6835 19.3926 3.87506C19.4753 4.8633 19.5581 5.85154 19.6451 6.83108C19.6887 7.5973 19.7322 8.39834 19.7844 9.22986C19.8367 10.0614 20.0631 10.7101 20.4679 11.1802C20.703 11.3283 20.9381 11.4284 21.1645 11.4893C21.3909 11.5503 21.6477 11.5764 21.9307 11.5764C22.3748 11.5764 22.8493 11.498 23.35 11.337C23.7461 11.2107 24.1728 11.0322 24.6255 10.8058L25.2089 11.411C25.37 11.4937 25.518 11.5503 25.6573 11.5764C25.7966 11.6025 25.9577 11.6199 26.1362 11.6199C26.4366 11.6199 26.7413 11.5677 27.0548 11.4589C27.3683 11.35 27.6425 11.2107 27.882 11.0366C28.0909 10.7362 28.2346 10.4271 28.3173 10.1049C28.3957 9.78276 28.4392 9.43883 28.4392 9.06879C28.4392 8.74227 28.3304 7.94558 28.1171 6.68742C28.0213 6.11711 27.969 5.63822 27.969 5.25511C27.969 4.99826 27.9821 4.77187 28.0126 4.57597C28.0474 4.60209 28.1127 4.68916 28.2128 4.83718C28.2825 4.94166 28.3609 5.00261 28.4523 5.02438L28.4436 5.01567ZM21.0034 5.22463C20.9468 5.35524 20.9077 5.45103 20.8815 5.50762C20.8554 5.56422 20.8162 5.6208 20.7596 5.67304C20.9338 5.38571 21.0208 5.06791 21.0208 4.71092C21.0208 4.27993 20.9033 3.91424 20.6639 3.61385L20.7596 3.34393C20.8989 3.46148 20.9991 3.60949 21.0557 3.78363C21.1166 3.95777 21.1427 4.15367 21.1427 4.36699C21.1427 4.51501 21.1297 4.65868 21.1079 4.80234C21.0818 4.94601 21.047 5.08532 20.9991 5.22463H21.0034ZM23.0931 6.70918L23.0191 6.97039C22.9233 6.94427 22.8232 6.9138 22.7274 6.88768C22.6665 6.88768 22.6229 6.93121 22.6012 7.02263C22.5184 7.38397 22.4357 7.74532 22.3617 8.11101C22.2834 8.05006 22.1876 7.87593 22.07 7.5886C22.0134 7.44929 21.9481 7.33609 21.8698 7.25337C21.8611 7.30126 21.8393 7.32738 21.7958 7.32738C21.7609 7.32738 21.7261 7.31867 21.6913 7.29691C21.6565 7.27514 21.6303 7.26208 21.6173 7.25337C21.5694 7.20548 21.5433 7.15759 21.5433 7.10535C21.5433 7.06182 21.565 7.00087 21.6129 6.92251C21.6565 6.84415 21.6826 6.78319 21.6826 6.74836C21.848 6.77448 21.9873 6.89638 22.1005 7.11405C22.1789 7.30125 22.2572 7.48846 22.34 7.66696C22.4096 7.40139 22.4575 7.20549 22.488 7.08359C22.5489 6.85285 22.6534 6.69177 22.7927 6.59164C22.8493 6.57858 22.9059 6.59164 22.9669 6.62212C23.0278 6.65695 23.0713 6.68307 23.0975 6.70484L23.0931 6.70918ZM18.4131 4.85024C18.4131 4.99826 18.3913 5.11145 18.3521 5.18981C18.3086 5.26818 18.2564 5.32477 18.1867 5.35089C18.0561 5.32477 17.9734 5.24641 17.9473 5.12015C17.9821 4.75881 18.0822 4.44972 18.252 4.20157C18.1954 4.39748 18.1432 4.59339 18.0953 4.78494C18.0953 4.89813 18.1388 4.9939 18.2215 5.07662C18.2651 5.07662 18.2999 5.06355 18.326 5.03308C18.3521 5.00696 18.387 4.94166 18.4218 4.84588L18.4131 4.85024ZM22.6969 9.29081C22.7231 9.35176 22.71 9.43448 22.6534 9.53461C22.5968 9.63475 22.5663 9.70439 22.5576 9.73922C22.5446 9.73922 22.501 9.74794 22.4314 9.76535C22.3617 9.78276 22.3095 9.77841 22.2747 9.74793C22.1789 9.60862 22.1266 9.4606 22.1266 9.29952C22.1266 9.1515 22.1658 8.98606 22.2485 8.80322C22.3269 8.62037 22.4053 8.44188 22.4836 8.27645C22.4357 8.40705 22.3878 8.54637 22.3443 8.69003C22.3008 8.8337 22.2747 8.96865 22.2747 9.09055C22.2747 9.24292 22.3138 9.37788 22.3878 9.49978C22.4488 9.52155 22.4967 9.52155 22.5272 9.50414C22.5576 9.48672 22.6012 9.42142 22.6578 9.31258L22.6882 9.29081H22.6969ZM24.7126 12.2381C24.7213 12.3209 24.6908 12.4166 24.6255 12.5255C24.5602 12.6343 24.5211 12.704 24.5036 12.7388C24.4558 12.7736 24.3992 12.7606 24.3426 12.704C24.2816 12.643 24.2511 12.5864 24.2424 12.5298C24.2424 12.3557 24.2642 12.1902 24.3121 12.0335C24.3556 11.8768 24.4209 11.7114 24.5036 11.5372C24.5167 11.6156 24.5036 11.7288 24.4558 11.8768C24.4122 12.0248 24.3861 12.1293 24.3861 12.1859C24.3861 12.3034 24.4296 12.4036 24.5211 12.4906L24.7083 12.2381H24.7126ZM18.1388 3.09578C17.2551 3.3744 16.3713 3.64867 15.4832 3.92294C15.0565 4.07531 14.6343 4.22769 14.2076 4.37135C13.707 4.55855 13.35 4.81541 13.141 5.13321C13.5241 4.92425 13.8898 4.74575 14.2381 4.60209C14.6691 4.41924 15.3047 4.19286 16.1406 3.92294C16.2538 3.87505 16.602 3.76187 17.1941 3.58773C17.6251 3.46147 17.9386 3.30039 18.1345 3.09578H18.1388ZM16.8241 4.69351C16.811 4.77622 16.7979 4.84588 16.7805 4.90248C16.7675 4.95907 16.7239 4.96342 16.6543 4.92424C16.6195 4.88941 16.5541 4.872 16.454 4.872C16.3757 4.97649 16.3104 5.15064 16.2538 5.39879C16.1972 5.64693 16.1536 5.81236 16.1188 5.89508L15.7444 5.20723C15.7096 5.22029 15.6704 5.23335 15.6225 5.24205C15.579 5.25076 15.5398 5.2464 15.5137 5.22463C15.4527 5.18981 15.4179 5.14628 15.4179 5.09839C15.4179 5.07227 15.4309 5.02438 15.4527 4.96343C15.4788 4.90249 15.4875 4.85458 15.4788 4.82846C15.5137 4.76751 15.5703 4.73269 15.6443 4.73269C15.6878 4.73269 15.7183 4.74575 15.74 4.77622C15.8097 4.85894 15.8837 4.97649 15.9577 5.12015C16.0143 5.24641 16.0709 5.3683 16.1362 5.48585C16.1797 5.25076 16.2146 5.08532 16.2494 4.9939C16.3104 4.81976 16.4018 4.6761 16.5193 4.56726C16.5803 4.5542 16.6412 4.56725 16.6978 4.61079C16.7544 4.65432 16.7936 4.68045 16.811 4.69351H16.8241ZM18.7788 10.1789C18.6612 10.7579 18.2085 11.2586 17.4205 11.6852C17.0461 11.8811 16.6717 12.0771 16.3016 12.2686C15.8924 12.4906 15.3787 12.6604 14.7649 12.7823C14.3948 12.852 13.8332 12.926 13.0713 13C13.9856 12.6038 14.8998 12.2077 15.8184 11.8202C16.8763 11.3239 17.7688 10.7971 18.4915 10.2312C18.4653 10.118 18.3609 9.82194 18.178 9.33434C18.0387 8.9643 17.969 8.65956 17.969 8.41576C17.8733 8.36787 17.821 8.30256 17.821 8.21549C17.821 8.1676 17.8428 8.0936 17.8907 8.00217C17.9342 7.9064 17.9603 7.84545 17.969 7.81062C17.9821 7.79756 18.0082 7.75403 18.0474 7.68002C18.0866 7.60601 18.1214 7.57118 18.1562 7.57118C18.1824 7.57118 18.2128 7.58859 18.239 7.62342C18.3521 7.88028 18.5089 8.13278 18.7178 8.37658L18.6221 8.47236L18.5176 8.37658C18.5176 8.5246 18.5481 8.69438 18.6134 8.89029C18.7657 9.36482 18.8441 9.66521 18.8441 9.78711C18.8441 9.92642 18.818 10.057 18.7701 10.1833L18.7788 10.1789ZM19.175 11.7984C19.114 11.7854 19.0356 11.8071 18.9399 11.8594C18.8441 11.916 18.7918 11.9465 18.7788 11.9552C18.2825 12.1641 17.7949 12.3774 17.3073 12.5908C17.2289 12.6343 17.1549 12.6865 17.0766 12.7562C16.9982 12.8259 16.9416 12.8999 16.8981 12.9739C17.2942 12.8084 17.6948 12.6387 18.0996 12.4732C18.5655 12.2643 18.9268 12.0379 19.175 11.7941V11.7984ZM12.2877 5.36395C12.1571 5.5468 12.0222 5.72529 11.8915 5.90814C11.8219 5.89943 11.6565 5.82977 11.3909 5.69916C11.2646 5.63822 11.1645 5.60339 11.0861 5.60339C10.973 5.60339 10.8859 5.65998 10.8249 5.76882C10.8032 5.81671 10.7727 5.86896 10.7248 5.92556C10.6813 5.98215 10.6464 6.02134 10.6247 6.05181C10.5071 6.05181 10.3635 6.01697 10.198 5.94732C9.94553 5.84283 9.80186 5.78188 9.75833 5.76882C9.80622 5.65128 9.86717 5.53809 9.93682 5.43361C9.98036 5.37266 10.0631 5.26817 10.1893 5.12015C10.2851 5.12015 10.3896 5.14193 10.5028 5.18111C10.6769 5.25077 10.8554 5.32041 11.0339 5.39007C11.1036 5.36395 11.1863 5.26383 11.2777 5.09839C11.3735 4.93296 11.4562 4.84588 11.5346 4.84588C11.5955 4.84588 11.6695 4.88942 11.7522 4.97214C11.7609 4.98084 11.8698 5.03308 12.0875 5.12886C12.2181 5.18981 12.2877 5.26817 12.2877 5.35959V5.36395ZM11.3386 3.90118C11.2908 3.75316 11.208 3.61384 11.0992 3.48323C10.986 3.35263 10.8641 3.23073 10.7248 3.11754C10.6551 3.08271 10.5942 3.0653 10.5376 3.0653C10.4462 3.0653 10.3939 3.16978 10.3809 3.3744C10.3678 3.57901 10.3199 3.70526 10.2459 3.75751C10.2242 3.80104 10.2154 3.84457 10.2154 3.89246C10.2154 4.0666 10.2938 4.1798 10.4549 4.22769C10.2242 4.56726 9.88893 4.91554 9.44052 5.27253C9.07918 5.54245 8.71784 5.81237 8.36521 6.07793C8.8528 5.8472 9.26203 5.60339 9.59725 5.34653C10.0282 5.02002 10.3635 4.65868 10.5986 4.27122C10.6334 4.24945 10.6639 4.24075 10.6943 4.24075C10.7248 4.24075 10.7814 4.26252 10.8685 4.31041C10.9555 4.35394 11.0252 4.38006 11.0818 4.38877C11.1993 4.38006 11.2777 4.32781 11.3169 4.23204C11.3561 4.13626 11.3648 4.02743 11.343 3.90988L11.3386 3.90118ZM12.1528 7.26643C12.1745 7.30126 12.1832 7.33173 12.1832 7.36221C12.1832 7.40574 12.1745 7.44928 12.1528 7.49716C12.1092 7.58859 12.0918 7.63647 12.0918 7.64518C12.0439 7.74096 11.9786 7.79321 11.8915 7.79321C11.8567 7.79321 11.8306 7.78015 11.8088 7.74967C11.7479 7.64519 11.7131 7.51458 11.7131 7.36221C11.7131 7.2316 11.7348 7.10535 11.774 6.99216C11.8175 6.87897 11.8785 6.74836 11.9612 6.60034C11.9133 6.8006 11.8654 7.00086 11.8262 7.19677C11.8262 7.32302 11.8698 7.41881 11.9612 7.48846C12.0091 7.48846 12.0483 7.45799 12.07 7.39268C12.0962 7.33174 12.1223 7.2882 12.1484 7.26643H12.1528ZM17.4814 8.31127C17.1332 8.52894 16.7892 8.73792 16.4453 8.94689C15.727 9.37353 15.1044 9.5825 14.5733 9.5825C14.4688 9.5825 14.36 9.57379 14.2424 9.56073C14.1292 9.54767 14.0248 9.5259 13.9333 9.49978C13.6199 9.36047 13.3804 9.12538 13.2107 8.79887C13.0801 8.54201 12.993 8.2242 12.9494 7.8498C13.4719 7.56247 13.8985 7.35786 14.2337 7.23161C14.7213 7.04876 15.1828 6.96169 15.6225 6.96169C15.8315 6.96169 16.0491 6.98345 16.2712 7.02263C16.1232 6.86155 15.9447 6.74401 15.727 6.67436C15.5093 6.60035 15.2786 6.56552 15.0261 6.56552C14.7605 6.56552 14.4906 6.60035 14.212 6.67C13.8158 6.71789 13.4457 6.90509 13.1105 7.22725C12.771 7.54941 12.5533 7.91075 12.4488 8.30692C12.5881 8.88594 12.7361 9.30388 12.8885 9.56073C13.0409 9.81759 13.2324 10.0222 13.4632 10.1789C13.3369 10.205 13.2455 10.2268 13.1802 10.2355C13.1192 10.2442 13.0539 10.2529 12.993 10.2529C12.9582 10.2529 12.8841 10.2442 12.7753 10.2312C12.5097 10.1746 12.2529 10.0309 12.0004 9.80453C11.7914 9.60862 11.6086 9.37788 11.4475 9.10361C10.973 9.16456 10.6334 9.58684 10.4244 10.3661C10.2938 10.8624 10.1719 11.1846 10.0631 11.3413C9.95424 11.498 9.8454 11.6199 9.73221 11.7027C9.59289 11.8158 9.44923 11.8681 9.30556 11.8681C8.92245 11.707 8.65689 11.4284 8.51323 11.0322C8.40874 10.7449 8.3565 10.3444 8.3565 9.83065C8.36521 9.59556 8.36956 9.38223 8.37827 9.19939C8.38697 9.01654 8.38697 8.85546 8.38697 8.72486C8.26943 8.899 8.18236 9.08185 8.13012 9.2734C8.07787 9.46496 8.03434 9.70875 7.99951 10.0091C7.99951 10.623 8.07787 11.1411 8.23895 11.5677C8.43922 12.1032 8.77008 12.4819 9.22285 12.6952C9.75833 12.6474 10.1371 12.2773 10.3504 11.5895C10.6377 10.6752 10.8641 10.1354 11.0296 9.96996C11.0861 9.9569 11.1253 9.94819 11.1558 9.94819C11.2864 9.94819 11.4257 10.0744 11.5737 10.3226C11.7218 10.5751 11.8611 10.7188 12.0004 10.7623C12.1745 10.8755 12.34 10.9539 12.501 10.9974C12.6621 11.0409 12.8363 11.067 13.0235 11.067C13.4501 11.067 14.0161 10.8929 14.7257 10.5446C15.2612 10.2791 15.5833 10.1267 15.6878 10.0831C16.0274 9.88724 16.3757 9.69133 16.7239 9.49978C16.959 9.36917 17.1419 9.22987 17.2681 9.08185L17.4771 8.30692L17.4814 8.31127ZM9.98906 7.88463C10.0108 7.98041 9.98906 8.10231 9.93682 8.25033C9.9107 8.32869 9.87587 8.39834 9.83234 8.468C9.77139 8.468 9.71479 8.43753 9.6669 8.37222C9.61031 8.2808 9.57113 8.21985 9.55371 8.18503C9.51888 8.08054 9.50147 7.98912 9.50147 7.91511C9.50147 7.78886 9.52324 7.66695 9.57113 7.5494C9.61466 7.43186 9.67561 7.31867 9.74527 7.21419C9.71915 7.28385 9.68867 7.3622 9.66255 7.45363C9.63643 7.54505 9.61902 7.63212 9.61902 7.71484C9.61902 7.86721 9.66255 7.98476 9.74527 8.07183L9.84104 8.15455L9.99777 7.88463H9.98906ZM25.6922 9.3474C25.518 9.48672 25.3874 9.58685 25.296 9.65215C25.1436 9.75664 24.9999 9.835 24.8693 9.88289C24.8084 9.71746 24.7562 9.55202 24.717 9.38658C24.6778 9.22115 24.6604 9.06007 24.6604 8.89899C24.6604 8.76839 24.6734 8.6465 24.7039 8.53766C24.73 8.42882 24.7823 8.33739 24.8519 8.25903C24.8737 8.25032 24.9042 8.25033 24.9477 8.25033C25.0522 8.25033 25.1523 8.29386 25.2525 8.37658C25.3308 8.43753 25.4005 8.52459 25.4701 8.62908C25.5137 8.74662 25.5572 8.86852 25.6051 8.99477C25.653 9.12102 25.6834 9.23857 25.7009 9.35176L25.6922 9.3474ZM11.1471 4.04048C11.0992 4.06225 11.0339 4.0492 10.9468 3.99696C10.8641 3.94907 10.7988 3.92294 10.7596 3.92294L10.8336 3.63997C10.912 3.68785 10.973 3.74445 11.0208 3.8054C11.0687 3.86635 11.1123 3.94471 11.1471 4.03614V4.04048ZM10.6247 3.85328C10.6247 3.85328 10.5768 3.8707 10.5463 3.8707C10.5158 3.8707 10.4723 3.85328 10.4157 3.83587C10.3939 3.8228 10.3896 3.79669 10.407 3.75751C10.4201 3.71832 10.4418 3.68786 10.4679 3.67044C10.4941 3.65738 10.5245 3.66609 10.5507 3.69656C10.5768 3.72704 10.6029 3.7575 10.6247 3.78363V3.85764V3.85328Z" fill="currentColor"/>
</svg>
