<svg width="40" height="16" viewBox="0 0 40 16" fill="none" xmlns="http://www.w3.org/2000/svg">
<path fill-rule="evenodd" clip-rule="evenodd" d="M29.1103 5.11968C29.0513 5.07332 28.9881 5.0059 28.9249 4.92162C28.8617 4.83734 28.8027 4.75306 28.7479 4.67299L28.6889 4.81627L29.0935 8.89128C29.0935 9.30847 29.0598 9.70881 28.9924 10.0965C28.9249 10.48 28.8154 10.8298 28.6679 11.1374C28.71 10.7918 28.7353 10.4842 28.7521 10.2061C28.769 9.92794 28.7774 9.63296 28.7774 9.3169L28.2507 4.33165C28.1959 4.27265 28.1706 4.1968 28.1706 4.1083C28.1706 4.01981 28.2127 3.91024 28.3012 3.77539C28.415 3.59418 28.4782 3.48462 28.4951 3.4509C28.8196 3.93552 29.0261 4.49178 29.1103 5.11968ZM24.7024 3.4804C24.7235 3.6279 24.6771 3.75011 24.5718 3.84282C24.6603 3.91867 24.7024 3.98609 24.7024 4.04509C24.7024 4.08723 24.6856 4.12095 24.6519 4.15466C24.5634 4.12095 24.4706 4.14623 24.3695 4.23472C24.2094 4.39064 24.0492 4.54235 23.8933 4.68984C23.7248 4.79941 23.5183 4.92162 23.2781 5.06489C23.2106 5.10704 23.08 5.17446 22.8819 5.2756C23.375 4.87948 23.868 4.47492 24.3569 4.07037C24.3442 4.0493 24.2852 4.00295 24.1799 3.93553C24.0745 3.86389 24.0113 3.79224 23.9818 3.71639C23.9902 3.60683 24.0408 3.5099 24.1335 3.42141C24.1925 3.36241 24.2937 3.2992 24.4285 3.2402C24.4959 3.22756 24.5507 3.24442 24.5971 3.29498C24.6392 3.34555 24.6771 3.40455 24.7024 3.47197V3.4804ZM25.461 6.02992C25.4736 6.13949 25.4652 6.24484 25.4357 6.35019C25.4062 6.45554 25.3514 6.53561 25.2671 6.59882C25.1323 6.59882 25.0522 6.55247 25.0311 6.46397C25.0058 6.37126 24.9974 6.27013 24.9974 6.15635C24.9974 6.03414 25.0185 5.90771 25.0564 5.77286C25.0943 5.63801 25.1449 5.51159 25.1997 5.39781C25.2081 5.45259 25.1955 5.55373 25.166 5.70122C25.1365 5.84872 25.1196 5.94986 25.1196 6.00464C25.1196 6.16477 25.187 6.27433 25.3219 6.32912C25.343 6.26169 25.364 6.2027 25.3809 6.15635C25.402 6.10999 25.4272 6.06785 25.461 6.03413V6.02992ZM24.5296 5.56637C24.4706 5.47787 24.3864 5.40624 24.2768 5.34303C24.1757 5.30088 24.0787 5.25874 23.9818 5.21239C23.8807 5.29246 23.7922 5.38938 23.7121 5.50737C23.6363 5.62115 23.5899 5.73072 23.5773 5.83186C23.6447 5.85293 23.7374 5.89928 23.8596 5.97514C23.9144 6.00885 24.0029 6.06785 24.1209 6.14792C24.1757 6.08049 24.2347 6.00042 24.3021 5.91193C24.3695 5.81922 24.4454 5.70965 24.5254 5.5748L24.5296 5.56637ZM22.3847 4.69827C22.351 4.86684 22.3299 4.95533 22.3257 4.95954C22.292 5.05225 22.2288 5.12389 22.1318 5.17025C22.0391 5.21239 21.9506 5.16182 21.8706 5.02697C21.8706 4.83734 21.8958 4.65192 21.9464 4.4665C21.997 4.28108 22.0644 4.09144 22.1529 3.89338C22.1529 3.97345 22.1276 4.09987 22.0771 4.26843C22.0265 4.437 22.0012 4.55921 22.0012 4.63085C22.0012 4.74041 22.0265 4.83312 22.0813 4.91319C22.1571 4.92583 22.2203 4.89633 22.2751 4.81627C22.3299 4.74041 22.3678 4.69827 22.3847 4.68984V4.69827ZM22.3046 3C21.7104 3.18121 21.1415 3.37505 20.6021 3.58154C20.0585 3.78803 19.5402 4.01981 19.0387 4.27265C18.9924 4.31901 18.9544 4.36958 18.9291 4.42436C18.9039 4.47914 18.8996 4.52971 18.9207 4.57607C19.1778 4.38222 19.536 4.19258 20.0037 4.01138C20.7538 3.7206 21.1331 3.57311 21.1457 3.56468C21.2047 3.53097 21.4197 3.45933 21.7821 3.35398C22.0433 3.27813 22.2203 3.16013 22.3088 3H22.3046ZM23.0041 6.95281C22.9452 7.30257 22.7597 7.51749 22.4563 7.60177C22.4015 7.59334 22.3468 7.58491 22.2878 7.56806C22.2288 7.5512 22.195 7.51749 22.1824 7.4627C22.1824 7.2815 22.2203 7.10029 22.292 6.91487C22.3383 6.80109 22.4268 6.64096 22.5532 6.43869C22.4774 6.66203 22.41 6.88538 22.3425 7.10451C22.3425 7.19722 22.3805 7.2815 22.4521 7.34892C22.5996 7.34892 22.726 7.28993 22.8272 7.16772C22.8187 7.11294 22.7682 7.04551 22.6712 6.96545C22.5743 6.88538 22.5237 6.82217 22.5237 6.7716C22.5237 6.72946 22.5659 6.67889 22.646 6.61989C22.7344 6.66203 22.8061 6.70417 22.8651 6.75474C22.9241 6.80531 22.9662 6.87274 22.9999 6.95281H23.0041ZM21.1247 5.44417C21.0825 5.47788 21.0235 5.5748 20.9435 5.73915C20.8634 5.89928 20.7833 5.98357 20.7117 5.98357C20.6864 5.98357 20.6527 5.97514 20.6106 5.95406L20.0543 5.62959C19.9995 5.67173 19.9447 5.75179 19.8857 5.874C19.8267 5.9962 19.772 6.08049 19.7172 6.12684C19.5486 6.05942 19.4475 6.01728 19.4138 6.00464C19.1778 5.89507 19.0724 5.78129 19.1019 5.65908C19.2157 5.49895 19.3295 5.3346 19.4475 5.17446C19.5486 5.20818 19.654 5.25875 19.7593 5.32617C19.8689 5.3936 19.9742 5.46102 20.0838 5.52845L20.5305 5.02276L21.1289 5.44838L21.1247 5.44417ZM26.9106 7.55963C26.9022 7.51327 26.7884 6.95702 26.565 5.89086C26.4892 5.54109 26.4344 5.2166 26.3923 4.92162L26.5018 4.71934C26.5018 4.71934 26.5903 4.81205 26.7252 4.95112C26.7589 4.99326 26.801 5.02697 26.8474 5.06068C26.6325 4.496 26.4176 3.9271 26.2111 3.36241C26.1352 3.45512 26.0636 3.55626 25.9877 3.66582C25.9119 3.77539 25.8782 3.87653 25.8782 3.96924C25.8782 4.02824 25.8992 4.09144 25.9371 4.15044C25.9371 4.6477 26.0088 5.22503 26.1479 5.87821C26.2911 6.5314 26.4302 7.17615 26.5693 7.80826C26.7083 8.44037 26.7757 9.02191 26.7757 9.54867C26.6072 9.74252 26.3965 9.91108 26.1394 10.0459C25.9456 10.1471 25.7012 10.2398 25.4104 10.3198C25.3682 10.3283 25.3135 10.3283 25.2376 10.3283C25.069 10.3283 24.9216 10.303 24.7909 10.2524C24.6645 10.2019 24.5507 10.1218 24.458 10.0164C24.6729 9.93637 24.8457 9.78045 24.9721 9.55289C25.0522 9.4054 25.128 9.19047 25.1955 8.91656C25.2376 8.81542 25.2545 8.71428 25.2545 8.61315C25.2545 8.45722 25.2123 8.29709 25.1238 8.12853C25.0648 8.01896 24.9679 7.87569 24.8415 7.69448C24.7656 7.61863 24.7109 7.56806 24.6687 7.54277C24.5929 7.49642 24.5254 7.47113 24.458 7.47113C24.4032 7.47113 24.3653 7.47956 24.3358 7.49221C24.1082 7.71555 23.927 7.97261 23.7964 8.26759C23.6658 8.56258 23.5983 8.86599 23.5983 9.18205C23.5983 9.35904 23.6194 9.53182 23.6573 9.70881C23.1854 9.89844 22.7892 10.0712 22.4647 10.2356C22.0265 10.4589 21.6514 10.6865 21.3438 10.9225C21.2553 10.9815 20.9308 11.2891 20.3746 11.8411C19.9911 12.2246 19.6329 12.4437 19.3042 12.4985C19.0893 12.4775 18.9165 12.3974 18.7901 12.2541C18.7564 12.1614 18.7395 12.0518 18.7395 11.9296C18.7395 11.7526 18.7816 11.5672 18.8617 11.3649C18.8828 11.3102 18.9629 11.1374 19.1061 10.8508C19.4222 10.8508 19.772 10.7202 20.1596 10.4547C20.3493 10.3199 20.5389 10.185 20.7243 10.0501C20.7454 9.97008 20.8255 9.7383 20.9688 9.35061C21.0783 9.05984 21.1289 8.82385 21.1289 8.64265C21.1289 8.56258 21.1205 8.47409 21.0994 8.38138C21.0783 8.28867 21.0446 8.20438 20.9983 8.12853C20.855 7.86726 20.7117 7.66498 20.5642 7.5217C20.3535 7.31943 20.1344 7.22672 19.8984 7.24779C19.675 7.31521 19.4938 7.47535 19.3505 7.73241C19.2494 7.95575 19.1483 8.1791 19.0471 8.39823C19.0471 8.4193 19.0471 8.4488 19.0387 8.49094C19.0303 8.53308 19.0303 8.5668 19.0303 8.59208C19.0303 8.92921 19.2958 9.11462 19.8225 9.14412C20.3535 9.17362 20.6653 9.26212 20.7665 9.41382C20.383 9.67088 20.1386 9.8268 20.0374 9.87737C19.7467 10.0333 19.4812 10.1091 19.2368 10.1091C19.0682 10.1091 18.9081 10.0754 18.7521 10.008C18.5709 9.88159 18.4403 9.70881 18.356 9.49389C18.3223 9.41383 18.276 9.21576 18.2127 8.89549C18.2127 7.91783 18.179 6.97808 18.1158 6.07206C18.0526 5.17025 17.9473 4.30636 17.7956 3.48462H17.7239C17.6354 3.66161 17.5806 3.77118 17.5638 3.81753C17.5216 3.91024 17.4879 4.02402 17.4542 4.15044C17.5553 4.55499 17.6312 4.99747 17.6776 5.47366C17.7239 5.95407 17.7703 6.42604 17.8208 6.88959C17.8672 7.12558 17.8925 7.31943 17.8967 7.46692C17.8967 7.61442 17.9009 7.74926 17.9009 7.87147V8.4193C17.9009 9.09355 17.9473 9.59081 18.0442 9.90687C18.1369 10.2229 18.2802 10.4884 18.4698 10.6949C18.6384 10.7202 18.7564 10.7623 18.8196 10.8129C18.8828 10.8635 18.9165 10.9351 18.9165 11.032C18.9165 11.1205 18.8491 11.2975 18.7184 11.5672C18.5878 11.8369 18.5204 12.0434 18.5204 12.1825C18.5204 12.2625 18.533 12.3342 18.5625 12.3932C18.5836 12.4732 18.6257 12.5533 18.6932 12.6376C18.7142 12.6587 18.8322 12.7598 19.0471 12.941C19.1019 12.9831 19.1736 13 19.2578 13C19.3379 13 19.418 12.9831 19.4938 12.9536C19.5697 12.9241 19.6329 12.8989 19.6792 12.8778C20.1934 12.4311 20.6316 12.0729 20.994 11.7948C21.5082 11.4029 21.9633 11.0995 22.3678 10.8845C22.8609 10.6233 23.3623 10.4252 23.8765 10.2988C24.0113 10.4884 24.1462 10.6401 24.281 10.7539C24.4496 10.9014 24.6266 10.9983 24.8078 11.0362C24.9173 11.0489 25.0016 11.0573 25.0606 11.0573C25.3893 11.0573 25.6927 10.9857 25.9709 10.8382C26.249 10.6949 26.5187 10.4884 26.78 10.2271C26.9401 9.7678 27.0244 9.27897 27.0244 8.76064C27.0244 8.55837 27.016 8.37716 26.9991 8.22124C26.9822 8.0611 26.9527 7.84197 26.9148 7.55963H26.9106ZM23.5941 11.6557C23.5941 11.7484 23.5773 11.8411 23.5436 11.9338C23.5098 12.0265 23.4508 12.1066 23.3708 12.1825C23.316 12.174 23.2739 12.1403 23.2401 12.0813C23.2149 12.0055 23.1938 11.9549 23.1811 11.9296C23.1811 11.7695 23.2191 11.5967 23.2907 11.4155C23.3328 11.3144 23.375 11.2174 23.4213 11.1205C23.4213 11.1542 23.4045 11.2385 23.3666 11.3776C23.3286 11.5166 23.3118 11.6051 23.3118 11.6473C23.3118 11.7569 23.3455 11.8411 23.4129 11.9086C23.4593 11.8959 23.4972 11.8538 23.5183 11.7864C23.5436 11.7189 23.5688 11.6768 23.5941 11.6557ZM18.9334 7.21408C18.8786 7.39107 18.8406 7.51749 18.8238 7.59756C18.7774 7.75348 18.7058 7.85883 18.6131 7.9094C18.7479 7.71555 18.8154 7.47956 18.8154 7.20143C18.8154 7.09187 18.7985 6.98651 18.7648 6.87695C18.7311 6.76738 18.7058 6.69574 18.6847 6.6536C18.6384 6.56511 18.6131 6.49768 18.6131 6.45133C18.6131 6.39233 18.6468 6.33333 18.7142 6.27855C18.7943 6.35862 18.8533 6.45976 18.8912 6.58196C18.9291 6.70417 18.946 6.84324 18.946 6.99494C18.946 7.08765 18.946 7.15929 18.9376 7.20565L18.9334 7.21408ZM15.3135 5.77707C15.3008 5.86557 15.2882 5.95406 15.2713 6.03835C15.246 6.13105 15.187 6.19848 15.0985 6.24063C15.0522 6.24905 15.0058 6.2322 14.9679 6.19427C14.9258 6.15634 14.8921 6.10999 14.8668 6.04678C14.8668 5.86557 14.9131 5.68015 15.01 5.49052C15.0438 5.41467 15.1449 5.25874 15.3135 5.01433C15.3135 5.06911 15.2418 5.21239 15.1028 5.44838C15.0269 5.57059 14.9932 5.66329 14.9932 5.73072C14.9932 5.82343 15.0522 5.9035 15.1744 5.96249C15.1955 5.90771 15.2165 5.86557 15.2334 5.83186C15.2545 5.79815 15.2797 5.77708 15.3135 5.77286V5.77707ZM14.3442 3.78382C14.3569 3.85124 14.3653 3.88917 14.3653 3.89338C14.3653 3.96924 14.3232 4.00295 14.2431 4.00295C14.1672 3.99452 14.1167 3.99452 14.083 3.99452C13.9734 3.99452 13.9102 4.07037 13.8891 4.21787C13.868 4.36536 13.847 4.51707 13.8301 4.67299C13.809 4.82891 13.7711 4.95955 13.7079 5.06911C13.6742 5.02697 13.5941 4.86262 13.4635 4.57185C13.3708 4.36114 13.2528 4.26001 13.1095 4.26001C13.0674 4.26001 13.0336 4.26001 13.0084 4.26843C12.9873 4.23472 12.9789 4.1968 12.9789 4.15887C12.9789 4.12094 12.9873 4.07038 13.0084 4.01559C13.0294 3.96081 13.0421 3.92288 13.0505 3.89338L13.1811 3.78382C13.2907 3.88496 13.3834 4.00295 13.4635 4.13359C13.5435 4.26422 13.6152 4.41171 13.6742 4.57185C13.7332 4.34429 13.7838 4.1673 13.8175 4.04509C13.8849 3.82174 13.986 3.71218 14.1209 3.71218C14.1799 3.71218 14.2557 3.73746 14.3442 3.78382ZM13.9186 6.37126C13.9186 6.37126 13.8512 6.49768 13.7838 6.69153C13.7121 6.88538 13.632 6.97809 13.5351 6.97809L13.4551 6.95702C13.4551 6.95702 13.3455 6.88959 13.1727 6.79688C13.0505 6.72945 12.9957 6.6536 13.0126 6.57353C13.0379 6.52718 13.0884 6.43868 13.1601 6.30383C13.2317 6.1732 13.2949 6.08049 13.3455 6.0257C13.4466 6.08049 13.5478 6.13106 13.6489 6.18163C13.75 6.2322 13.8427 6.29541 13.9228 6.36705L13.9186 6.37126ZM17.1634 11.622C17.1761 11.6978 17.1719 11.7737 17.1424 11.858C17.1171 11.9423 17.0665 12.0139 16.9991 12.0771C16.9401 12.0855 16.8895 12.0645 16.8474 12.0223C16.8052 11.9802 16.7757 11.9254 16.7547 11.8664C16.7547 11.6852 16.78 11.5251 16.8263 11.386C16.8727 11.2469 16.9527 11.0826 17.0581 10.8845C16.9907 11.0952 16.9275 11.3059 16.8642 11.5209C16.8642 11.6094 16.8727 11.6684 16.8895 11.7021C16.9064 11.7358 16.9401 11.7779 16.9949 11.8243C17.0286 11.8158 17.0623 11.7863 17.0918 11.7273C17.1213 11.6684 17.1424 11.6346 17.1592 11.622H17.1634ZM11.5419 5.17025C11.4955 5.26296 11.3817 5.48209 11.1963 5.81922C10.9266 6.31226 10.7918 6.70417 10.7918 7.00337C10.7918 7.14665 10.8086 7.27307 10.8465 7.38264C10.8845 7.4922 10.9519 7.6102 11.053 7.73241C11.1331 7.71976 11.209 7.65234 11.2764 7.53434C11.3438 7.41635 11.3944 7.34893 11.4281 7.32786C11.3733 7.56385 11.3185 7.79983 11.2679 8.03582C11.1752 8.31395 11.0109 8.4488 10.7833 8.4488C10.6738 8.31395 10.5937 8.16646 10.5389 8.01054C10.4841 7.8504 10.4588 7.69027 10.4588 7.53013C10.4588 7.23515 10.5473 6.88959 10.7201 6.49768C10.7875 6.34176 10.9519 6.02992 11.2174 5.55794C11.2848 5.4568 11.3312 5.38095 11.3607 5.3346C11.4154 5.25453 11.4744 5.19975 11.5419 5.17446V5.17025ZM16.7083 9.46018C16.7083 9.29162 16.6409 9.04299 16.5103 8.71007C16.3796 8.38138 16.3122 8.12853 16.3122 7.95997C16.367 7.9389 16.4302 7.95154 16.506 8.00211C16.5819 8.04846 16.6409 8.07374 16.6873 8.07374C16.6873 7.89675 16.6114 7.69448 16.4555 7.45849C16.4091 7.38264 16.2616 7.19722 16.0214 6.89381C16.013 6.91909 15.9624 7.02023 15.8613 7.18879C15.7939 7.30257 15.7602 7.39949 15.7602 7.48378C15.7602 7.54277 15.7812 7.60598 15.8192 7.66498C16.0088 8.42773 16.1984 9.18626 16.3965 9.94058C16.1141 10.2103 15.7812 10.4589 15.4062 10.6907C15.1955 10.8171 14.8415 11.0025 14.3442 11.2469C13.986 11.4071 13.6447 11.5335 13.316 11.6178C12.9873 11.7021 12.6502 11.7442 12.3004 11.7442C11.9717 11.7442 11.6599 11.6894 11.3691 11.5841C11.0783 11.4745 10.8255 11.3059 10.6106 11.0784C10.4883 10.9351 10.4083 10.796 10.3619 10.657C10.3198 10.5179 10.2945 10.3536 10.2945 10.1681C10.4041 9.60767 10.5136 9.0472 10.6274 8.4783C10.5263 8.748 10.4293 9.01348 10.3324 9.27897C10.2102 9.60767 10.1217 9.87737 10.0712 10.0881C10.0459 10.2314 10.0248 10.3451 10.0164 10.4336C10.0079 10.5221 9.99951 10.6064 9.99951 10.6865C9.99951 10.9562 10.0501 11.209 10.147 11.4408C10.2439 11.6726 10.4041 11.8706 10.6274 12.0392C10.8508 12.2035 11.0867 12.3257 11.3396 12.4016C11.5924 12.4775 11.8621 12.5196 12.1529 12.5196C12.3425 12.5196 12.5322 12.5027 12.7302 12.469C12.9241 12.4353 13.1179 12.3932 13.3076 12.3384C13.7121 12.2246 14.1504 12.0434 14.6224 11.7906C15.0058 11.5883 15.3977 11.3481 15.7939 11.0742C16.0846 10.9183 16.3038 10.6865 16.4513 10.3746C16.5608 10.1513 16.6451 9.85209 16.7041 9.47282L16.7083 9.46018ZM13.3413 9.3169C13.2991 9.32533 13.2486 9.32111 13.1811 9.31268C13.1137 9.30426 13.0716 9.29583 13.0505 9.29583C12.9831 9.38433 12.9241 9.54024 12.8777 9.7678C12.8314 9.99536 12.7766 10.1471 12.7176 10.2271C12.6965 10.1934 12.6375 10.0544 12.5364 9.81416C12.4605 9.63717 12.3847 9.50232 12.3046 9.40961C12.2835 9.44332 12.2667 9.47282 12.2498 9.49389C12.233 9.51918 12.2119 9.52761 12.1824 9.52761C12.0813 9.52761 12.0307 9.47282 12.0307 9.36747C12.0307 9.32533 12.0391 9.29162 12.0602 9.25791C12.0728 9.20312 12.0897 9.15255 12.1065 9.10198C12.1234 9.05141 12.1571 9.01348 12.2035 8.98399C12.3383 9.05141 12.4521 9.17783 12.549 9.35904C12.6417 9.58239 12.7092 9.74252 12.7513 9.84366C12.785 9.78466 12.8272 9.65824 12.8735 9.46861C12.9494 9.17362 13.08 9.02191 13.2696 9.02191C13.3581 9.02191 13.4003 9.05141 13.4003 9.11462C13.375 9.20733 13.3581 9.27476 13.3497 9.3169H13.3413ZM24.517 3.76275V3.70375C24.4833 3.58997 24.4243 3.53097 24.3442 3.53097C24.3105 3.53097 24.2852 3.55626 24.2642 3.61104C24.3189 3.65739 24.3653 3.69532 24.4074 3.72903C24.4496 3.75853 24.4833 3.77117 24.517 3.76275ZM24.8499 9.13148C24.7361 9.20733 24.6139 9.28319 24.4917 9.36326C24.3653 9.44332 24.2473 9.4981 24.1335 9.52339C23.9902 9.26212 23.9228 8.98399 23.9228 8.69321C23.9228 8.57943 23.9397 8.45301 23.9734 8.31816C24.0324 8.23809 24.1125 8.19596 24.2052 8.19596C24.2726 8.19596 24.3274 8.21281 24.3653 8.24652C24.5128 8.37295 24.6308 8.51201 24.7193 8.6595C24.8078 8.80699 24.8499 8.96292 24.8499 9.12305V9.13148ZM20.3409 8.38138C20.2608 8.3898 20.1849 8.39402 20.1175 8.39823C20.0501 8.39823 19.9911 8.40244 19.9447 8.40244C19.852 8.40244 19.772 8.39401 19.7087 8.37716C19.6455 8.3603 19.5865 8.3308 19.5318 8.29288C19.4896 8.23388 19.4601 8.18331 19.439 8.1496C19.418 8.11589 19.4222 8.07796 19.4475 8.04003C19.5023 7.98103 19.5823 7.94733 19.6919 7.94733C19.772 7.94733 19.8478 7.96418 19.9152 7.99789C20.0164 8.06532 20.1007 8.12853 20.1681 8.18331C20.2355 8.24231 20.2945 8.30552 20.3409 8.38138Z" fill="currentColor"/>
</svg>
