<svg width="40" height="16" viewBox="0 0 40 16" fill="none" xmlns="http://www.w3.org/2000/svg">
<path fill-rule="evenodd" clip-rule="evenodd" d="M21.8719 3.41667C21.8925 3.47083 21.8719 3.525 21.8061 3.58333C21.7444 3.64166 21.6826 3.67917 21.625 3.7C21.3082 3.84167 20.8761 4.0125 20.3205 4.22084C19.7032 4.45417 19.2588 4.62917 18.9954 4.74167C18.9831 4.7 18.9913 4.65417 19.0201 4.59583C19.0489 4.5375 19.1065 4.49583 19.1929 4.4625C19.7938 4.24166 20.2382 4.075 20.5345 3.9625C20.9954 3.7875 21.4398 3.60833 21.8678 3.42083L21.8719 3.41667ZM21.5962 5.25833C21.5633 5.27083 21.5386 5.30416 21.5221 5.35416C21.5057 5.40416 21.4769 5.43334 21.4398 5.4375C21.3493 5.37084 21.2999 5.2875 21.2999 5.1875C21.2999 5.13333 21.3123 5.05833 21.3411 4.95833C21.3658 4.85833 21.3822 4.78333 21.3822 4.7375C21.2505 4.90417 21.1847 5.1 21.1847 5.32916C21.1847 5.41667 21.1929 5.47917 21.2053 5.52083C21.23 5.5625 21.2629 5.6 21.2958 5.64166C21.3287 5.68333 21.3699 5.69167 21.4151 5.67083C21.4892 5.62917 21.5386 5.575 21.5633 5.50416C21.588 5.43333 21.6044 5.35417 21.6044 5.25833H21.5962ZM18.3863 3.87917C18.4069 3.95833 18.3946 4.04583 18.3575 4.14583C18.3164 4.24167 18.2588 4.31667 18.1806 4.37084C18.1271 4.38334 18.0859 4.37083 18.053 4.34167C18.0201 4.30833 17.9913 4.26667 17.9625 4.2125C17.9625 4.07917 17.9789 3.95417 18.016 3.84167C18.053 3.72917 18.1065 3.60417 18.1806 3.47084C18.1806 3.5125 18.1641 3.5875 18.1353 3.7C18.1065 3.8125 18.09 3.89166 18.09 3.94166C18.09 4 18.1106 4.0625 18.1477 4.12083C18.2135 4.12917 18.2711 4.08334 18.3164 3.99167C18.3411 3.93334 18.3658 3.89583 18.3863 3.88333V3.87917ZM25.9995 8.50833C25.9666 8.5 25.8925 8.49166 25.7814 8.47916C25.6703 8.46666 25.5921 8.44166 25.5427 8.40833C25.5427 8.03333 25.4522 7.19584 25.2752 5.8875C25.197 5.30834 25.1559 4.8125 25.1559 4.39584C25.1765 4.40834 25.2053 4.44584 25.2464 4.5125C25.2876 4.575 25.3287 4.6125 25.374 4.62917C25.2835 4.10833 25.1353 3.62917 24.9296 3.1875C24.8308 3.34584 24.7361 3.50834 24.6415 3.66667C24.6415 4.07917 24.6868 4.57917 24.7814 5.1625C24.8719 5.74583 24.9666 6.32084 25.0571 6.88334C25.1477 7.44584 25.197 7.95416 25.197 8.40833C24.8555 8.375 24.5592 8.33333 24.3082 8.2875C23.9584 8.22083 23.4933 8.10417 22.9172 7.9375C22.9954 7.75 23.0489 7.58333 23.0818 7.43333C23.1147 7.28333 23.1271 7.10417 23.1271 6.9C23.1271 6.66667 23.1065 6.42917 23.0695 6.19167C23.0571 6.07083 23.0036 5.775 22.9131 5.3C22.8472 4.95417 22.8061 4.65833 22.7855 4.42083C22.8102 4.3125 22.839 4.2625 22.8637 4.2625C22.8761 4.2625 22.9213 4.30834 22.9913 4.39584C23.0612 4.48334 23.1312 4.5125 23.1888 4.47917C23.1559 4.37083 23.0571 4.12917 22.8925 3.75C22.7732 3.47083 22.6868 3.22083 22.625 3C22.4604 3.17917 22.3493 3.38334 22.2876 3.60834C22.3123 3.89584 22.4234 4.54166 22.6127 5.55C22.7567 6.31666 22.8308 6.9625 22.8308 7.49167C22.6003 7.56667 22.374 7.60834 22.1559 7.625C21.9337 7.64167 21.6538 7.65 21.3123 7.65H21.0942C21.0077 7.82917 20.9584 7.94167 20.946 7.97917C20.9049 8.09167 20.8884 8.20417 20.8884 8.30834C21.2382 8.30834 21.6374 8.35834 22.0818 8.45834C22.337 8.5125 22.7238 8.60417 23.2382 8.7375C22.8966 8.88334 22.551 9.01666 22.2053 9.1375C21.8596 9.25833 21.4769 9.37916 21.053 9.50833C20.3617 9.6875 19.9172 9.8 19.7197 9.8375C19.2135 9.9375 18.7444 9.9875 18.3164 9.9875C17.9789 9.9875 17.6538 9.95 17.3328 9.87084C17.0119 9.79584 16.7279 9.675 16.4769 9.51667C16.2917 9.39583 16.1724 9.2625 16.1106 9.1125C16.0489 8.9625 16.0201 8.77917 16.0201 8.56667C16.0201 8.50833 16.0201 8.4125 16.0283 8.28334C16.0365 8.15417 16.0365 8.05417 16.0365 7.9875C15.9501 8.04583 15.8802 8.20834 15.8184 8.47084C15.7608 8.73334 15.7279 8.97084 15.7279 9.1875C15.7279 9.44167 15.8184 9.6875 16.0036 9.92083C16.1888 10.1583 16.411 10.3167 16.6703 10.4C16.9296 10.4833 17.1765 10.5417 17.411 10.5792C17.6456 10.6167 17.9007 10.6333 18.1765 10.6333C18.4316 10.6333 18.6991 10.6167 18.9748 10.5833C19.2505 10.55 19.5468 10.4958 19.8596 10.4167C20.1724 10.3417 20.5427 10.2333 20.9707 10.1C21.2259 10.0125 21.4851 9.925 21.7403 9.84167C22.2464 9.66667 22.6785 9.53334 23.0324 9.44167C23.4604 9.32084 23.8349 9.23333 24.16 9.17083C24.481 9.1125 24.8267 9.07916 25.1888 9.07916C25.23 9.15833 25.2464 9.2375 25.2464 9.32083C25.2464 9.39583 25.2176 9.525 25.1641 9.7125C25.1065 9.9 25.0818 10.0417 25.0818 10.1417C25.1888 10.0167 25.2711 9.86667 25.3287 9.7C25.3699 9.5875 25.4069 9.42084 25.4481 9.2C25.4563 9.14167 25.4892 9.10833 25.5468 9.10833C25.588 9.10833 25.6497 9.11666 25.7361 9.1375C25.8143 9.0625 25.8761 8.97083 25.9131 8.85833C25.9542 8.74583 25.9789 8.625 25.9913 8.5L25.9995 8.50833ZM20.5263 6.07917C20.518 6.14583 20.4933 6.2125 20.4481 6.27916C20.4234 6.2875 20.374 6.27083 20.3082 6.2375C20.2423 6.20417 20.2012 6.1875 20.1888 6.1875C20.1559 6.1875 20.1312 6.2125 20.1189 6.2625C20.1065 6.3125 20.09 6.45417 20.0736 6.6875C20.0571 6.92084 20.0119 7.08333 19.9419 7.17917C19.8761 7.13333 19.7979 6.99583 19.7114 6.775C19.6209 6.55 19.4933 6.44166 19.3205 6.44166C19.2464 6.4 19.2135 6.35 19.2135 6.29166C19.2135 6.25833 19.2217 6.22083 19.2423 6.175C19.2629 6.13333 19.2876 6.08333 19.3205 6.02917C19.4728 6.02917 19.6003 6.12083 19.7073 6.30833C19.7855 6.46667 19.8637 6.62917 19.946 6.7875C19.9789 6.53333 20.0036 6.37917 20.016 6.32917C20.0612 6.15417 20.1394 6.02083 20.2423 5.92917C20.3082 5.95417 20.3658 5.97917 20.411 6C20.4563 6.02083 20.4975 6.04583 20.5304 6.07917H20.5263ZM24.8308 10.7375C24.6662 10.9625 24.4275 11.125 24.1106 11.2167C23.8802 11.2833 23.5715 11.3167 23.1806 11.3167C23.1271 11.2958 23.09 11.2792 23.0612 11.2667C22.9831 11.225 22.9337 11.1708 22.9131 11.0958C22.9131 10.9708 22.9707 10.8458 23.09 10.725C23.1682 10.6375 23.2835 10.55 23.4357 10.4542C23.411 10.4125 23.3699 10.3875 23.3123 10.375C23.2547 10.3625 23.2176 10.3542 23.197 10.3542C23.1312 10.4208 23.0777 10.4458 23.0407 10.4333C23.0612 10.375 23.0983 10.3167 23.1477 10.2625C23.2012 10.2083 23.2547 10.1708 23.304 10.1417C23.3617 10.1417 23.4357 10.1625 23.5263 10.2083C23.6168 10.25 23.6868 10.275 23.7403 10.2833C23.7526 10.3958 23.6538 10.5167 23.444 10.65C23.2341 10.7792 23.1271 10.8667 23.1271 10.9167C23.1271 10.9708 23.2012 11.0292 23.3452 11.0958C23.3905 11.1042 23.4563 11.1042 23.5427 11.1042C23.7649 11.1042 23.9831 11.0708 24.1929 11.0083C24.4028 10.9458 24.6127 10.8542 24.8267 10.7333L24.8308 10.7375ZM17.1271 3.52917C17.1518 3.60834 17.1682 3.70417 17.1682 3.80833C17.1682 3.99583 17.1106 4.13333 16.9913 4.22917H16.8431C16.7896 4.22917 16.7526 4.2125 16.7361 4.17917C16.6497 4.32083 16.5468 4.4 16.4193 4.42083C16.2752 4.4 16.1806 4.325 16.1435 4.19167C16.1518 4.16667 16.1682 4.05833 16.1929 3.87083C16.2176 3.68333 16.267 3.55 16.3411 3.47084C16.3534 3.51667 16.3493 3.6 16.3205 3.72083C16.2958 3.84166 16.2793 3.9125 16.2793 3.94166C16.2793 4.0625 16.337 4.14167 16.4563 4.18333C16.5674 4.18333 16.6456 4.12084 16.6826 3.99167C16.6909 3.95834 16.6909 3.92084 16.6868 3.875C16.6868 3.83334 16.6826 3.7875 16.6826 3.74167C16.6826 3.65 16.7156 3.58334 16.7814 3.55V3.82917C16.7814 3.9375 16.8267 3.9875 16.9213 3.9875C16.9872 4 17.0365 3.9875 17.0695 3.9375C17.0571 3.82917 17.0489 3.75 17.0489 3.69583C17.0489 3.61667 17.0736 3.55833 17.1271 3.525V3.52917ZM19.9625 8.32917C19.9748 8.35417 19.9789 8.4 19.9707 8.45834C19.9625 8.51667 19.9501 8.57083 19.9296 8.61666C19.8514 8.71666 19.7732 8.74583 19.6909 8.70833C19.6127 8.58333 19.5715 8.4375 19.5715 8.27917C19.5715 8.14583 19.5962 8.0125 19.6415 7.875C19.6868 7.7375 19.7485 7.59584 19.8308 7.45C19.8226 7.475 19.7896 7.625 19.732 7.89167C19.7073 8.00417 19.6909 8.09583 19.6909 8.1625C19.6909 8.2875 19.7279 8.4 19.7979 8.49167C19.8514 8.49167 19.9049 8.4375 19.9542 8.33333L19.9625 8.32917ZM18.0859 8.35C18.0859 8.45 18.0736 8.53333 18.053 8.6C18.0283 8.66667 17.9872 8.725 17.9296 8.77916C17.8555 8.77916 17.802 8.75417 17.7608 8.70833C17.7197 8.6625 17.6868 8.6 17.6538 8.51667C17.6538 8.21667 17.7238 7.9375 17.8596 7.675C17.8596 7.72083 17.8514 7.78334 17.8308 7.86667C17.7855 8.05417 17.7608 8.175 17.7608 8.2375C17.7608 8.37917 17.8184 8.47917 17.9296 8.54583C17.9625 8.53333 17.9913 8.49583 18.0201 8.44167C18.0448 8.38333 18.0695 8.35417 18.09 8.34583L18.0859 8.35ZM20.3493 12.0083C19.8678 12.2333 19.4398 12.4167 19.0654 12.5583C18.5839 12.7333 18.1147 12.8542 17.6538 12.9292C17.5016 12.95 17.3575 12.9667 17.2176 12.9792C17.0777 12.9917 16.9419 13 16.802 13C16.4481 13 16.1065 12.9583 15.7855 12.875C15.4645 12.7917 15.1559 12.6583 14.8678 12.475C14.5798 12.2917 14.3617 12.0583 14.2176 11.7708C14.0736 11.4833 13.9995 11.175 13.9995 10.8417C13.9995 10.75 13.9995 10.675 14.0077 10.6208C14.016 10.5667 14.0283 10.4792 14.0489 10.3625C14.1682 9.88333 14.3123 9.46667 14.4851 9.1125C14.6826 8.69167 14.9378 8.3125 15.2464 7.97084C15.1888 7.90417 14.946 7.7625 14.5263 7.54166C14.2094 7.375 14.053 7.17083 14.053 6.93333C14.053 6.90833 14.0612 6.84583 14.0736 6.75416C14.1518 6.53333 14.23 6.3125 14.3123 6.09584C14.4316 5.85 14.6291 5.70416 14.909 5.65416C15.1888 5.60833 15.4769 5.57083 15.7732 5.54583C16.0695 5.52083 16.3946 5.50416 16.7526 5.50416C17.3905 5.50416 18.0283 5.55833 18.6579 5.6625C18.7485 5.70417 18.7979 5.775 18.7979 5.88333C18.7979 5.90417 18.7896 5.93333 18.7773 5.975C18.6991 6.275 18.481 6.50417 18.1271 6.66667C17.8226 6.8 17.5221 6.93333 17.2176 7.06666C16.7156 7.39166 16.2217 7.72083 15.7279 8.04583L15.6374 8.30416L15.518 8.20417C15.3123 8.35 15.1394 8.50417 14.9913 8.6625C14.8431 8.82083 14.7156 9 14.6127 9.19167C14.5057 9.38333 14.4316 9.59167 14.3822 9.81667C14.3328 10.0417 14.3082 10.2833 14.3082 10.5417C14.3082 10.8 14.3946 11.0625 14.5633 11.3C14.7156 11.5208 14.9213 11.7083 15.1847 11.8708C15.5139 12.0958 15.9172 12.25 16.3905 12.3292C16.7114 12.3833 17.1559 12.4083 17.7156 12.4083C18.0695 12.4083 18.5221 12.3542 19.0695 12.25C19.8267 12.1042 20.2588 12.025 20.3617 12.0083H20.3493ZM16.3411 10.9875L16.0365 11.4167C15.8308 11.3417 15.6497 11.2375 15.4933 11.0958L15.839 10.5375C15.9501 10.6042 16.0695 10.6708 16.2012 10.7375C16.3287 10.8042 16.3781 10.8875 16.3452 10.9875H16.3411ZM17.8925 6.21667C17.4522 6.45 17.0695 6.6625 16.7485 6.85833C16.3328 7.10416 15.9666 7.35 15.6538 7.5875C15.5798 7.42916 15.304 7.20416 14.8226 6.91666C14.6127 6.79166 14.4769 6.65 14.4193 6.49583C14.7238 6.37083 15.0201 6.2875 15.3164 6.24584C15.6127 6.20417 15.9831 6.1875 16.4234 6.1875C16.4316 6.1875 16.6209 6.19167 16.9913 6.20417C17.3617 6.2125 17.6662 6.22083 17.8966 6.22083L17.8925 6.21667Z" fill="currentColor"/>
</svg>
