<svg width="40" height="16" viewBox="0 0 40 16" fill="none" xmlns="http://www.w3.org/2000/svg">
<path fill-rule="evenodd" clip-rule="evenodd" d="M29.6396 4.74308C29.605 4.77768 29.5791 4.79499 29.5575 4.79499C29.5488 4.71281 29.5099 4.6263 29.4364 4.53547C29.3628 4.44464 29.3109 4.37544 29.2763 4.32786L29.1639 4.50519C29.1639 4.95502 29.2071 5.47838 29.2893 6.07094C29.3715 6.66782 29.4537 7.23875 29.5402 7.78373C29.5618 7.96972 29.5791 8.15138 29.5921 8.32872C29.605 8.50606 29.6137 8.68771 29.6137 8.8737C29.6137 9.27595 29.5791 9.63927 29.5142 9.96799C29.4493 10.2967 29.3325 10.6298 29.1682 10.9715C29.2244 10.5087 29.2504 10.0199 29.2504 9.50951C29.2504 9.27595 29.2417 9.04239 29.2201 8.81315L28.7443 4.61765C28.7443 4.50087 28.7313 4.34083 28.7097 4.13322C28.6838 3.92993 28.6751 3.8045 28.6751 3.7526C28.6751 3.59256 28.7011 3.45848 28.7486 3.34602C28.7962 3.23357 28.8914 3.12976 29.0298 3.0346C29.1076 3.19896 29.1898 3.40658 29.2806 3.65744C29.2893 3.68339 29.4104 4.04671 29.6526 4.73876L29.6396 4.74308ZM24.7088 5.62543C24.7218 5.70761 24.7088 5.78979 24.6569 5.86765C24.6094 5.9455 24.5618 6.02335 24.5099 6.10121C24.4537 6.12284 24.3974 6.10121 24.3455 6.04931C24.3239 6.02768 24.285 5.97145 24.2201 5.88495C24.2114 5.83737 24.2114 5.77249 24.2114 5.68599C24.2114 5.52595 24.2374 5.36592 24.2936 5.19723C24.3282 5.09343 24.3931 4.94204 24.4926 4.73876C24.5142 4.82959 24.4926 4.96367 24.4407 5.14533C24.3845 5.32699 24.3585 5.44377 24.3585 5.5C24.3585 5.62543 24.4104 5.73356 24.5142 5.83305C24.5402 5.82439 24.5704 5.78979 24.5964 5.72491C24.6223 5.66003 24.6613 5.62543 24.7088 5.62543ZM24.9986 3.21626C24.2936 3.4455 23.5367 3.70502 22.7236 3.99481C21.971 4.26298 21.2184 4.53547 20.4701 4.80363C20.3922 4.83823 20.3317 4.89014 20.2841 4.96367C20.2365 5.0372 20.1976 5.11505 20.1717 5.19723C20.6301 4.96799 21.2357 4.72145 21.9883 4.46194C22.3948 4.32353 23.0177 4.11159 23.8568 3.83045C23.8654 3.83045 24.086 3.75692 24.5229 3.61419C24.791 3.52336 24.9511 3.3936 24.9986 3.22059V3.21626ZM22.6327 6.01038L22.5203 6.22664C22.477 6.19204 22.4467 6.16609 22.4251 6.15312C22.3559 6.10986 22.2867 6.10121 22.2175 6.12284C22.1137 6.50346 22.0099 6.87976 21.9061 7.25606C21.8845 7.22146 21.8239 7.09602 21.7201 6.88409C21.6595 6.7673 21.5903 6.63322 21.5125 6.49049C21.4909 6.52509 21.4606 6.54239 21.4173 6.54239C21.3827 6.54239 21.3395 6.52941 21.2876 6.50778C21.2357 6.48183 21.1881 6.45588 21.1492 6.42993C21.1362 6.40831 21.1275 6.37803 21.1275 6.33478C21.1275 6.29152 21.1448 6.23962 21.1751 6.17474C21.2054 6.10987 21.227 6.06228 21.2443 6.03633C21.3222 5.98875 21.3914 5.96713 21.4606 5.97578C21.5384 6.05363 21.6076 6.15311 21.6682 6.27855C21.759 6.46453 21.8499 6.65052 21.9364 6.84083C21.971 6.58997 22.0099 6.391 22.0575 6.23962C22.1007 6.08824 22.1872 5.95415 22.3127 5.84602C22.3905 5.84602 22.4554 5.859 22.5116 5.88062C22.5678 5.90657 22.6068 5.94983 22.637 6.01903L22.6327 6.01038ZM28.6838 8.83477C28.5583 8.75692 28.4156 8.72232 28.2599 8.72232C27.9052 8.80018 27.5549 8.8737 27.2002 8.95156L26.785 6.46021C26.9364 6.34775 27.0964 6.23529 27.2694 6.11418C27.4381 5.99308 27.5765 5.87198 27.6803 5.75519L27.8144 5.88928L27.9268 5.77681C27.8922 5.72059 27.8749 5.66436 27.8749 5.61246C27.8749 5.56488 27.8922 5.49567 27.9268 5.40484C27.996 5.23183 28.022 5.10207 28.009 5.01989C27.9744 4.92906 27.8922 4.87716 27.7582 4.86418C27.6414 4.86418 27.5376 4.90744 27.4511 4.99827C27.3646 5.0891 27.2954 5.19723 27.2478 5.31834C27.2737 5.36592 27.3127 5.41349 27.3602 5.4654C27.4857 5.59083 27.5549 5.66436 27.5678 5.69464C27.4857 5.76384 27.3862 5.84169 27.278 5.93252C27.0921 6.07958 26.9234 6.18339 26.7806 6.2526C26.7806 6.10554 26.7504 5.88495 26.6855 5.58651C26.6249 5.28807 26.5903 5.06747 26.5903 4.92042C26.5903 4.77336 26.6163 4.63063 26.6639 4.50519C26.7071 4.5398 26.7633 4.609 26.8412 4.71713C26.9191 4.82526 26.9796 4.88581 27.0272 4.89879C26.8066 4.2673 26.586 3.63581 26.3611 3C26.2573 3.06055 26.1751 3.16003 26.1102 3.28979C26.0886 3.33737 26.0497 3.46713 25.9848 3.67474C26.067 4.10294 26.1448 4.56574 26.214 5.0545C26.2573 5.35727 26.3178 5.8244 26.4 6.45588C26.1794 6.63754 25.9156 6.79325 25.6128 6.92301C25.4485 6.99222 25.2798 7.06142 25.1154 7.13062C25.3101 7.13062 25.5393 7.07007 25.7988 6.94464C26.1319 6.7846 26.3395 6.69377 26.4216 6.67647L26.7763 9.03373C26.6509 9.08131 26.5038 9.10727 26.3308 9.10727C26.2616 9.10727 26.2011 9.10726 26.1492 9.10294C26.0973 9.10294 25.9934 9.08564 25.8421 9.05536C25.7296 8.99481 25.6518 8.9429 25.6042 8.89965C25.522 8.83045 25.4744 8.75259 25.4701 8.67041C25.3879 8.75259 25.323 8.83477 25.2841 8.92128C25.2711 8.94723 25.2149 9.10727 25.1197 9.39706C25.2019 9.52682 25.2711 9.6955 25.3274 9.89446C25.3533 10.0069 25.3966 10.1756 25.4528 10.4048C24.8992 10.9585 24.4277 11.3651 24.0428 11.6202C23.4761 11.9922 22.9268 12.1825 22.3905 12.1825C22.2607 12.1825 22.1223 12.1739 21.9753 12.1522C21.7071 11.9879 21.5341 11.7543 21.4563 11.4559C21.413 11.3521 21.3957 11.2569 21.3957 11.1747C21.3957 11.0147 21.4736 10.8676 21.6336 10.7292C22.0056 10.4092 22.2088 10.1843 22.2348 10.0458C22.3127 10.1626 22.4078 10.2621 22.5203 10.3356C22.6327 10.4135 22.7538 10.4481 22.8793 10.4481C22.9614 10.4481 23.0393 10.4351 23.1128 10.4048C23.1864 10.3789 23.2512 10.327 23.3031 10.2578C23.4069 10.0718 23.4848 9.89446 23.5367 9.7301C23.5886 9.56574 23.6146 9.38408 23.6146 9.18944C23.6146 8.97318 23.5756 8.78287 23.5021 8.60986C23.355 8.77422 23.2858 8.99913 23.2858 9.2846C23.2858 9.3538 23.2945 9.43598 23.3075 9.53546C23.2599 9.60467 23.195 9.64792 23.1215 9.6609C23.0652 9.68253 23.022 9.69117 22.9874 9.69117C22.9052 9.69117 22.823 9.66955 22.7495 9.63062C22.7236 9.61764 22.6846 9.59169 22.637 9.55709C22.5246 9.47491 22.4727 9.36245 22.4727 9.22405C22.4727 9.18079 22.4813 9.11159 22.4943 9.01643C22.4165 9.05104 22.3602 9.11159 22.3213 9.19377C22.2824 9.27595 22.2391 9.37976 22.1915 9.50519C22.0531 9.68685 21.9277 9.82094 21.8196 9.91177C21.6595 10.0372 21.4995 10.0977 21.3438 10.0977C21.2616 10.0977 21.1967 10.0891 21.1578 10.0761C21.041 10.0069 20.9632 9.91176 20.9286 9.78633C20.894 9.6609 20.8767 9.50519 20.8767 9.3192V9.12024C20.7296 9.18945 20.5739 9.34516 20.4095 9.59169C20.2452 9.83823 20.1024 9.99827 19.9857 10.0761C19.8905 10.1194 19.8127 10.1453 19.7608 10.154C19.7088 10.1626 19.6569 10.1713 19.6007 10.1713C19.5445 10.1713 19.4753 10.1583 19.3931 10.128C19.2763 10.0502 19.1812 9.96367 19.112 9.86851C19.0211 9.73875 18.939 9.55277 18.8611 9.3192L18.7573 4.90744L18.541 3.28979C18.4459 3.31574 18.368 3.40658 18.3118 3.55796C18.2858 3.64014 18.2426 3.76557 18.1864 3.92993C18.1864 4.13755 18.2426 4.68252 18.3507 5.56055C18.3983 5.94982 18.4242 6.27854 18.4242 6.54671V6.98357C18.4242 7.42474 18.4026 7.81402 18.3637 8.14706C18.3204 8.48011 18.2296 8.78287 18.0826 9.05969C18.0826 8.60986 17.9528 8.16003 17.689 7.71021C17.5246 7.42474 17.2305 7.03979 16.8066 6.54671C16.0713 5.66868 15.6777 5.18858 15.6215 5.11505C15.3879 4.79066 15.2106 4.48356 15.0938 4.20242C15.1371 4.18079 15.1717 4.17215 15.1976 4.17215C15.2409 4.17215 15.3447 4.2327 15.509 4.35813C15.5696 4.40571 15.6345 4.43166 15.695 4.43166C15.5782 4.2154 15.349 3.93859 15.0116 3.59256C14.8127 3.38495 14.6699 3.23356 14.5877 3.13408C14.5791 3.18166 14.5445 3.28114 14.4839 3.4282C14.4234 3.57526 14.3888 3.69204 14.3888 3.77422C14.3888 3.86938 14.4234 3.95156 14.4926 4.01212C14.5704 4.26731 14.6656 4.50519 14.7781 4.7301C14.8905 4.95069 15.0246 5.17993 15.176 5.41349C15.3014 5.60813 15.4571 5.8244 15.6431 6.06661C15.7902 6.2526 15.9589 6.46886 16.1578 6.71107C16.3568 6.95329 16.5211 7.1609 16.6509 7.33391C16.8369 7.57612 16.9926 7.79239 17.118 7.97838C17.2824 8.22059 17.4294 8.45415 17.5505 8.67907C17.6717 8.90398 17.7668 9.12889 17.836 9.35813C17.4208 9.84256 16.8888 10.2708 16.2357 10.6471C15.8421 10.8763 15.2495 11.1574 14.4623 11.4991C15.0246 11.3348 15.5869 11.1661 16.1535 11.0017C16.6941 10.872 17.1786 10.6168 17.6111 10.2448C18.0436 9.87283 18.3377 9.43166 18.4891 8.9256C18.5021 9.00778 18.5237 9.21107 18.5583 9.52682C18.5886 9.84689 18.6319 10.0761 18.6881 10.2232C18.8265 10.4654 18.9346 10.6298 19.0082 10.7119C19.1552 10.8763 19.3153 10.9628 19.4969 10.9628C19.7391 10.9844 19.964 10.8806 20.1717 10.6514C20.3187 10.4524 20.4658 10.2491 20.6172 10.0502C20.6388 10.167 20.6604 10.2881 20.6864 10.4135C20.7123 10.5389 20.7599 10.6427 20.8377 10.7249C20.894 10.7855 20.9588 10.8287 21.0367 10.8503C21.1492 10.8633 21.2616 10.8763 21.3784 10.8936L21.2011 11.4429C21.1794 11.5597 21.1708 11.6765 21.1708 11.7846C21.1708 12.0138 21.2184 12.2171 21.3092 12.4031C21.4043 12.5848 21.5471 12.7448 21.7417 12.8746C21.8542 12.9567 21.9926 13 22.1656 13C22.2478 12.9913 22.3343 12.987 22.4208 12.9784C22.5073 12.9697 22.5938 12.9697 22.676 12.9697C23.0306 12.8227 23.3637 12.6669 23.6838 12.4939C24.073 12.2777 24.4018 12.0571 24.6786 11.8279C25.0246 11.5294 25.2928 11.2353 25.4787 10.9455C25.6993 10.5908 25.8118 10.2318 25.8118 9.86419C26.1838 9.82959 26.5601 9.79498 26.932 9.76038C27.0012 10.0502 27.0877 10.2881 27.1915 10.4654C27.33 10.7076 27.5116 10.872 27.7409 10.9628C27.7971 10.9758 27.836 10.9844 27.8663 10.9844C28.0263 10.9844 28.1647 10.9239 28.2815 10.8071C28.3723 10.6427 28.4632 10.474 28.5627 10.3097C28.7703 9.93772 28.8741 9.63062 28.8741 9.39706C28.8741 9.1981 28.8135 9.01211 28.6967 8.84775L28.6838 8.83477ZM20.6085 7.63235C20.6172 7.72751 20.5955 7.82266 20.5479 7.91349C20.5004 8.00432 20.4268 8.09083 20.3317 8.17301C20.2755 8.18166 20.2279 8.17301 20.1933 8.14273C20.1544 8.11678 20.1284 8.08218 20.1111 8.03893C20.0938 7.99568 20.0851 7.94377 20.0851 7.88322C20.0851 7.73184 20.137 7.55883 20.2409 7.36419C20.323 7.23443 20.3836 7.13495 20.4182 7.07439C20.4182 7.12197 20.3879 7.22145 20.3317 7.36851C20.2711 7.51557 20.2452 7.6237 20.2452 7.68425C20.2452 7.78806 20.3057 7.86591 20.4225 7.91349C20.4441 7.84429 20.4658 7.78373 20.496 7.73616C20.522 7.68858 20.5653 7.65398 20.6215 7.63235H20.6085ZM17.131 4.48789C17.0618 4.70415 17.0056 4.85986 16.9666 4.96367C16.8974 5.12803 16.8196 5.27941 16.7287 5.40917C16.8196 5.22319 16.8888 5.0372 16.9364 4.85986C16.9839 4.6782 17.0099 4.49221 17.0099 4.29758C17.0099 4.15917 16.9926 4.02509 16.958 3.89965C16.9234 3.7699 16.8628 3.65311 16.772 3.54066C16.8153 3.4801 16.8455 3.43253 16.8672 3.40225C16.8888 3.37198 16.9147 3.35467 16.9493 3.35467C17.0315 3.53634 17.0921 3.6834 17.131 3.79585C17.1699 3.90831 17.1872 4.03806 17.1872 4.18512C17.1872 4.2673 17.1699 4.36678 17.1353 4.48789H17.131ZM13.0826 3.67907L13.009 3.89533C13.009 3.89533 12.9441 3.87803 12.8749 3.84342C12.8057 3.80882 12.7495 3.79152 12.7106 3.79152C12.6544 3.79152 12.6154 3.83477 12.5981 3.9256C12.5635 4.02076 12.5332 4.19378 12.503 4.44464C12.477 4.69551 12.4294 4.87284 12.3689 4.9853C12.3127 4.94205 12.2564 4.86851 12.2045 4.75605C12.1223 4.59169 12.0402 4.41869 11.9666 4.24568C11.945 4.28028 11.9104 4.29758 11.8628 4.29758C11.7807 4.29758 11.6985 4.26298 11.612 4.19378C11.5774 4.1462 11.5601 4.10294 11.5601 4.06834C11.5601 4.02076 11.5687 3.97318 11.5817 3.93426C11.5947 3.891 11.612 3.85208 11.6336 3.80883C11.6595 3.78288 11.6941 3.75259 11.7287 3.72232C11.7634 3.69204 11.798 3.67474 11.8326 3.67474C11.8801 3.67474 11.9147 3.70502 11.9364 3.7699C12.0618 3.97751 12.1396 4.11592 12.1743 4.18512C12.2435 4.31488 12.3083 4.46626 12.3732 4.63062C12.4554 4.1808 12.503 3.93859 12.5203 3.90398C12.5635 3.77423 12.6327 3.64879 12.7279 3.53201C12.8057 3.51904 12.8706 3.52336 12.9268 3.54931C12.9831 3.57526 13.0393 3.61852 13.0912 3.67907H13.0826ZM15.336 7.51989C15.3144 7.76211 15.2149 7.94377 15.0332 8.0692C14.99 8.06055 14.9554 8.0346 14.9251 7.99135C14.8948 7.9481 14.8689 7.90052 14.8473 7.85294C14.8473 7.6583 14.8732 7.48962 14.9251 7.34256C14.977 7.1955 15.0635 7.05277 15.189 6.90571C15.1327 7.06574 15.0851 7.1955 15.0505 7.29498C15.0116 7.39446 14.9943 7.47664 14.9943 7.5372C14.9943 7.641 15.0376 7.73183 15.1198 7.80536C15.1284 7.79671 15.1587 7.74481 15.2149 7.64101C15.2495 7.58045 15.2928 7.5372 15.3403 7.51557L15.336 7.51989ZM20.6085 11.4559C20.6301 11.6073 20.5609 11.737 20.4009 11.8408C20.2538 11.9187 20.1154 11.9965 19.977 12.0787C19.9294 12.0528 19.8689 12.0311 19.7997 12.0182C19.7305 12.0052 19.6699 11.9965 19.6137 11.9965C19.4753 11.9965 19.3326 12.0311 19.1898 12.1003C19.1422 12.122 19.0557 12.1695 18.9303 12.2474C18.6881 12.3772 18.5151 12.4637 18.4113 12.5069C18.2166 12.5848 18.022 12.6194 17.8317 12.6194H17.6544C17.849 12.5718 18.0782 12.4853 18.3377 12.3599C18.4415 12.3123 18.5843 12.2387 18.7616 12.1436C18.9433 12.0484 19.1249 11.9576 19.3066 11.8754C19.4883 11.7933 19.6656 11.7327 19.83 11.6981C19.9078 11.7586 19.9467 11.7933 19.9554 11.8019C20.0116 11.8365 20.0592 11.8408 20.1024 11.8106C20.15 11.7284 20.189 11.6548 20.2236 11.5986C20.2538 11.5381 20.2971 11.4991 20.3533 11.4775V11.6938C20.3966 11.6851 20.4398 11.6505 20.4917 11.5813C20.5436 11.5121 20.5826 11.4689 20.6128 11.4559H20.6085ZM13.9865 6.68944C13.8698 6.8538 13.7746 6.97492 13.7054 7.05277C13.6362 7.13063 13.5713 7.16523 13.5064 7.16523C13.4372 7.16523 13.368 7.11332 13.2988 7.00952L12.9658 6.79325C12.8966 6.84948 12.823 6.92733 12.7495 7.02681C12.6717 7.12629 12.6025 7.22145 12.5419 7.31228C12.4467 7.29066 12.3429 7.26038 12.2348 7.2128C12.1267 7.16955 12.0272 7.12197 11.9277 7.07439C12.0185 6.82353 12.1613 6.61159 12.3646 6.42993C12.5376 6.50779 12.663 6.55969 12.7452 6.59429C12.823 6.62889 12.9009 6.67215 12.9787 6.71972L13.4675 6.19204C13.5151 6.21799 13.6189 6.3045 13.7789 6.44291C13.8481 6.52509 13.9173 6.60727 13.9865 6.69377V6.68944ZM13.7703 8.16436C13.7616 8.21194 13.753 8.26816 13.74 8.32439C13.727 8.38494 13.6838 8.42388 13.6146 8.4455C13.6146 8.36765 13.5627 8.31142 13.4589 8.26817C13.4372 8.31142 13.3983 8.44982 13.3377 8.68339C13.2772 8.91695 13.195 9.07266 13.0826 9.14186C13.035 9.09429 12.9831 8.98616 12.9268 8.8218C12.836 8.55363 12.7019 8.43252 12.5203 8.46713C12.477 8.44117 12.4597 8.40225 12.4597 8.35467C12.5159 8.23789 12.5419 8.15138 12.5419 8.09515C12.5852 8.08218 12.6154 8.0692 12.6414 8.06055C12.6673 8.0519 12.689 8.04325 12.7106 8.04325C12.7538 8.04325 12.7841 8.06055 12.8057 8.09515C12.8749 8.17733 12.9398 8.29412 13.0047 8.43685C13.0955 8.65311 13.1474 8.77422 13.1604 8.80017C13.2166 8.61419 13.2642 8.45415 13.2988 8.32872C13.3377 8.19896 13.4026 8.08651 13.4891 7.99135C13.5454 7.99135 13.5929 8.00432 13.6275 8.0346C13.6665 8.06055 13.714 8.10813 13.7659 8.16868L13.7703 8.16436ZM15.8248 9.55709C15.8248 9.68685 15.7772 9.82526 15.6777 9.96367C15.6345 10.0242 15.4441 10.2189 15.1068 10.5433C14.8905 10.7033 14.6829 10.8547 14.4753 11.0017C14.2331 11.1747 14.0125 11.3218 13.8092 11.4386C13.9044 11.205 14.1163 10.9671 14.4407 10.7336C14.8992 10.4005 15.1587 10.2016 15.2279 10.1324C15.1717 10.1324 15.1111 10.1324 15.0462 10.1237C14.9813 10.115 14.9294 10.115 14.8948 10.115C14.5056 10.115 13.9519 10.2059 13.2253 10.3832C12.7149 10.5087 12.3775 10.5822 12.2175 10.6125C12.0531 10.6254 11.8715 10.6384 11.6768 10.6557C11.4822 10.6687 11.3049 10.6773 11.1492 10.6773C10.6993 10.6773 10.323 10.6298 10.0159 10.5303C9.63532 10.4048 9.33256 10.1972 9.11197 9.90744C9.07737 9.83823 9.05141 9.7474 9.02979 9.63927C9.00816 9.52682 8.99951 9.43598 8.99951 9.35813C8.99951 9.08996 9.07737 8.79152 9.2374 8.46713C9.31958 8.29412 9.47962 8.03461 9.71318 7.68858C9.60937 7.45935 9.55747 7.23011 9.55747 6.99222C9.55747 6.62457 9.6656 6.23529 9.87754 5.82007C10.0289 5.52163 10.2409 5.20589 10.509 4.87717C10.4744 4.968 10.3879 5.14965 10.2495 5.42647C10.0419 5.84169 9.93809 6.17474 9.93809 6.42128C9.93809 6.54671 9.95539 6.65484 9.98567 6.75C10.0159 6.84515 10.0722 6.94464 10.1587 7.05709C10.2495 7.08305 10.3274 7.04412 10.3922 6.93166C10.4571 6.81921 10.5177 6.7673 10.5739 6.77595C10.5739 6.99222 10.5307 7.18253 10.4441 7.35554C10.3576 7.52855 10.2279 7.67128 10.0549 7.77941C9.90349 7.77941 9.80401 7.75346 9.75211 7.70588C9.58775 8.10813 9.49692 8.33737 9.48394 8.38927C9.43636 8.54931 9.41041 8.69204 9.41041 8.82612C9.41041 9.02508 9.47096 9.20675 9.58775 9.36678C9.81699 9.60899 10.0981 9.782 10.4398 9.88581C10.7772 9.98962 11.1448 10.0415 11.5384 10.0415C11.6336 10.0415 11.7287 10.0415 11.8239 10.0372C11.9191 10.0372 12.0445 10.0242 12.2089 10.0069C12.3732 9.98961 13.0436 9.85121 14.2287 9.59602C14.6786 9.50086 15.0462 9.44896 15.3274 9.44896C15.362 9.44031 15.3879 9.44031 15.4009 9.44031C15.5523 9.44031 15.6907 9.48356 15.8161 9.56574L15.8248 9.55709ZM11.4217 8.28979C11.4217 8.28979 11.3741 8.3417 11.3438 8.4109C11.3135 8.47578 11.2746 8.51471 11.2357 8.53201C11.1319 8.47578 11.08 8.40225 11.08 8.31575C11.08 8.26817 11.1016 8.19896 11.1405 8.10813C11.2184 7.94377 11.253 7.83997 11.253 7.79672C11.2097 7.86592 11.1405 7.97405 11.0454 8.11678C10.9762 8.24221 10.9416 8.36332 10.9416 8.4801C10.9416 8.53633 10.9416 8.57526 10.9502 8.60554C10.9632 8.61851 10.9935 8.65744 11.0454 8.71367C11.0929 8.77422 11.1405 8.80017 11.1924 8.80017C11.2746 8.72232 11.3395 8.64446 11.3784 8.56228C11.4217 8.4801 11.4346 8.38927 11.4217 8.29412V8.28979ZM27.7928 5.20588L27.7625 5.41349C27.6716 5.34429 27.5851 5.27509 27.503 5.20588C27.5116 5.19291 27.5376 5.16696 27.5851 5.13236C27.663 5.11938 27.7322 5.14101 27.7928 5.20588ZM28.5107 9.97232C28.4286 10.0848 28.2945 10.154 28.1171 10.1886C27.9571 10.1886 27.8144 10.1237 27.6846 9.98962C27.5549 9.85986 27.4597 9.7128 27.3992 9.55277C27.5116 9.50519 27.5981 9.47058 27.663 9.45328C27.7279 9.43598 27.8187 9.42733 27.9268 9.42733C28.1128 9.42733 28.2599 9.48356 28.3637 9.59169C28.4588 9.67387 28.5107 9.79931 28.5107 9.96367V9.97232Z" fill="currentColor"/>
</svg>
