<svg width="40" height="16" viewBox="0 0 40 16" fill="none" xmlns="http://www.w3.org/2000/svg">
<path fill-rule="evenodd" clip-rule="evenodd" d="M27.7418 5.3133C27.678 5.27687 27.6006 5.19945 27.5141 5.08561C27.3684 4.8898 27.2909 4.78506 27.2864 4.78051C27.2226 4.86703 27.1862 4.98088 27.1862 5.11749C27.1862 5.15392 27.1953 5.19946 27.209 5.25865C27.209 5.72314 27.2909 6.37887 27.4594 7.21676C27.5824 7.83607 27.6552 8.23224 27.678 8.40984C27.7372 8.83333 27.7645 9.22495 27.7645 9.58925C27.7645 9.95355 27.7372 10.3042 27.6826 10.5956C27.6279 10.8871 27.5277 11.1876 27.382 11.5018C27.3957 11.3333 27.4093 11.2058 27.4139 11.1193C27.4503 10.755 27.4685 10.5137 27.4685 10.3998C27.4685 10.286 27.4685 10.1903 27.4594 10.1266C27.4503 10.0628 27.4367 9.95811 27.4139 9.8215L26.658 4.48907C26.6716 4.43898 26.658 4.36612 26.6261 4.27505C26.5897 4.18397 26.5715 4.12478 26.5715 4.0929C26.5715 4.0337 26.5988 3.97906 26.658 3.92897C26.7399 3.79235 26.7991 3.68307 26.8447 3.61021C26.8902 3.53735 26.9358 3.4918 26.9858 3.46903C27.2864 4.13843 27.4503 4.51639 27.4868 4.60747C27.5869 4.86248 27.6735 5.09928 27.7372 5.31786L27.7418 5.3133ZM23.5797 6.7113C23.5569 6.83425 23.484 6.97541 23.3611 7.13935C23.2381 7.29873 23.1698 7.38525 23.1653 7.40347C23.1379 7.34427 23.015 7.25319 22.8055 7.13024C22.6461 7.03461 22.5869 6.92532 22.6325 6.80237L23.0605 6.21038C23.2062 6.33333 23.3246 6.43807 23.4157 6.52004C23.5068 6.60201 23.5614 6.66576 23.5842 6.7113H23.5797ZM21.9722 6.46084C21.8993 6.48361 21.7627 6.50183 21.5578 6.52004C21.3529 6.53826 21.1844 6.60201 21.0569 6.7113C20.984 6.7113 20.9157 6.68853 20.8474 6.64754C20.7837 6.60201 20.7472 6.54736 20.7472 6.48361C20.7472 6.31512 20.7563 6.17851 20.7746 6.07377C20.7928 5.96903 20.8292 5.86886 20.8884 5.77323C20.8793 5.91895 20.8793 6.03279 20.8793 6.1102C20.8793 6.24226 20.9112 6.33789 20.9795 6.4062C21.1525 6.4062 21.2846 6.347 21.3711 6.23315C21.3939 6.1694 21.403 6.10565 21.403 6.04645C21.403 6.01913 21.403 5.96904 21.3939 5.90528C21.3848 5.84153 21.3848 5.78689 21.3848 5.75046C21.3848 5.65028 21.4212 5.56375 21.494 5.5C21.5077 5.53643 21.5168 5.60019 21.5168 5.68671C21.5077 5.8051 21.5077 5.88707 21.5077 5.93716C21.5077 6.01913 21.5214 6.08288 21.5441 6.13297C21.5715 6.18306 21.6215 6.22404 21.7035 6.25136C21.7627 6.26047 21.8037 6.26047 21.8356 6.26047C21.8811 6.26047 21.913 6.24226 21.9358 6.20583C21.9358 6.14663 21.9175 6.06466 21.8857 5.95993C21.8538 5.85519 21.8356 5.78233 21.8356 5.7459C21.8356 5.66393 21.8675 5.59563 21.9358 5.53643C21.9813 5.66849 22.0132 5.77778 22.0405 5.86885C22.0678 5.95993 22.0769 6.051 22.0769 6.13752C22.0769 6.24681 22.045 6.35155 21.9767 6.45629L21.9722 6.46084ZM23.3702 3.65119C22.5323 3.86977 21.7399 4.0929 20.9977 4.31603C20.3784 4.50729 19.6042 4.7623 18.6798 5.08106C18.0514 5.29964 17.2864 5.56831 16.3756 5.89162C16.2937 5.93716 16.2254 5.9827 16.1662 6.03279C16.107 6.08288 16.0705 6.15119 16.0569 6.2286C16.9175 5.91439 17.7008 5.63661 18.4066 5.39982C19.5086 5.02186 20.2919 4.75774 20.7654 4.61203C21.4667 4.39345 22.2636 4.1612 23.1607 3.91075L23.3702 3.64664V3.65119ZM20.9749 8.02277C21.0022 8.07286 20.9977 8.13662 20.9522 8.21403C20.9066 8.29144 20.8702 8.3643 20.8338 8.43716C20.7746 8.44627 20.7245 8.42805 20.6789 8.38252C20.6334 8.33698 20.597 8.28234 20.5651 8.21403C20.5332 8.14572 20.515 8.06375 20.515 7.96812C20.515 7.86794 20.5332 7.76776 20.5651 7.67213C20.597 7.57651 20.6516 7.48543 20.7245 7.39891C20.6971 7.5173 20.6789 7.62204 20.6789 7.71767C20.6789 7.8133 20.688 7.89071 20.7062 7.95446C20.7245 8.01822 20.7654 8.07741 20.8338 8.13661C20.8793 8.15027 20.9066 8.13661 20.9248 8.09108C20.943 8.04554 20.9613 8.02732 20.9749 8.02732V8.02277ZM25.729 5.44536C25.729 5.44536 25.556 5.01731 25.2053 4.17942C25.0824 3.88798 24.9594 3.65118 24.8319 3.46903C24.7317 3.60109 24.6543 3.7195 24.6042 3.82423C24.5542 3.92897 24.5177 4.05191 24.495 4.18852C24.7363 5.35428 24.8684 6.01002 24.9002 6.15574C25.0004 6.67942 25.1188 7.31694 25.2509 8.06376C25.3829 8.81057 25.4922 9.49363 25.5787 10.1129C25.2782 10.4135 24.9276 10.5592 24.5177 10.5592C24.4084 10.5592 24.2991 10.5501 24.1899 10.5273C23.9804 10.4681 23.8711 10.3543 23.8711 10.1903C23.8711 10.1266 23.8984 10.0082 23.9531 9.84426C24.0077 9.68033 24.035 9.56193 24.035 9.48907C24.035 9.46175 24.0259 9.42532 24.0123 9.37978C22.5551 9.8898 21.7081 10.1767 21.4758 10.245C20.8838 10.418 20.3465 10.5455 19.8593 10.6275C19.6498 10.6639 19.4221 10.6913 19.1853 10.714C18.9485 10.7368 18.7345 10.7459 18.5478 10.7459C18.015 10.7459 17.5141 10.6821 17.045 10.5501C16.576 10.418 16.1252 10.2086 15.6971 9.91712C15.597 9.98998 15.4877 10.1175 15.3693 10.3042C15.2509 10.4909 15.1552 10.6138 15.0733 10.6822C14.9503 10.7414 14.8638 10.7778 14.8092 10.7914C14.7591 10.8051 14.6862 10.8142 14.5906 10.8142C14.5542 10.8142 14.4995 10.8051 14.4267 10.7914C14.3037 10.7277 14.1944 10.6366 14.1033 10.5273C14.0123 10.418 13.944 10.2951 13.903 10.1539C13.7208 8.01366 13.5432 5.8643 13.3656 3.71494C13.2472 3.82423 13.1653 3.95174 13.1106 4.10201C13.056 4.25228 13.0287 4.41622 13.0287 4.59836C13.0287 4.78051 13.0514 4.949 13.0924 5.12204L13.4112 9.90802C13.4567 10.2632 13.4977 10.5182 13.5432 10.673C13.6161 10.9508 13.7345 11.174 13.903 11.3516C13.9758 11.4381 14.0532 11.4973 14.1307 11.5337C14.2126 11.5656 14.3083 11.5838 14.4267 11.5838C14.4904 11.5838 14.5906 11.5747 14.7226 11.561C14.8775 11.5109 15.0277 11.3698 15.178 11.1466C15.3283 10.9189 15.433 10.7823 15.5013 10.7322C15.8064 10.9508 16.1206 11.1193 16.4485 11.2331C16.7718 11.3515 17.127 11.429 17.5141 11.4745C17.7691 11.4973 18.0195 11.5064 18.27 11.5064C18.6707 11.5064 19.076 11.4745 19.4813 11.4153C19.8911 11.3516 20.2873 11.265 20.6744 11.1466C20.943 11.0647 21.5624 10.8552 22.5323 10.5137C22.9922 10.3543 23.3565 10.2313 23.6252 10.1539C23.6753 10.2131 23.7026 10.2905 23.7026 10.3816C23.7026 10.4044 23.6935 10.4636 23.6753 10.5683C23.6571 10.6685 23.648 10.755 23.648 10.8188C23.648 10.8825 23.6571 10.9508 23.6798 11.0146C23.7254 11.0874 23.78 11.1512 23.8529 11.2013C23.8893 11.2286 23.9576 11.265 24.0623 11.3106C24.1716 11.3333 24.2855 11.3424 24.3993 11.3424C24.6452 11.3424 24.8775 11.2924 25.0915 11.1876C25.3055 11.0874 25.4831 10.9326 25.6197 10.7277C25.7062 10.4636 25.7654 10.2359 25.8019 10.0355C25.8338 9.83516 25.852 9.59836 25.852 9.32058C25.852 8.87432 25.8019 8.40984 25.6971 7.92259C25.6698 7.7541 25.5696 7.29417 25.4011 6.5337C25.2782 5.95993 25.1962 5.49089 25.1598 5.1357L25.2782 4.98088C25.3647 5.10383 25.4512 5.22677 25.5423 5.34062C25.6015 5.40437 25.6607 5.4408 25.729 5.4408V5.44536ZM18.6161 3.67396L18.4522 3.9153C17.7463 4.17942 17.2181 4.37067 16.8675 4.49362C15.7472 4.90801 14.8729 5.25865 14.2445 5.54098C14.3629 5.33151 14.5951 5.15392 14.9458 5.01731C15.2281 4.90802 15.5195 4.79417 15.811 4.68033C16.7445 4.34335 17.678 4.01093 18.6206 3.67396H18.6161ZM18.8893 7.56284C18.8529 7.56284 18.7982 7.54462 18.7254 7.50364C18.6525 7.46266 18.5979 7.449 18.5614 7.45355C18.4886 7.5765 18.443 7.77687 18.4203 8.05009C18.3975 8.32332 18.3656 8.51457 18.3201 8.62386C18.2336 8.551 18.1562 8.45993 18.0924 8.35064C17.9831 8.17759 17.8738 7.99545 17.7645 7.8133C17.7372 7.85884 17.6917 7.86339 17.6325 7.83607C17.5733 7.80875 17.5369 7.79053 17.5232 7.79053C17.4503 7.74044 17.4139 7.66758 17.4139 7.57195C17.4139 7.54463 17.423 7.5082 17.4412 7.46266C17.4594 7.41712 17.4777 7.37159 17.5004 7.32149C17.546 7.2623 17.5915 7.25319 17.6416 7.28962C17.7645 7.40802 17.8784 7.54007 17.9877 7.69035C18.0924 7.84062 18.188 8 18.2654 8.16394C18.3155 7.89527 18.3565 7.69034 18.3838 7.55373C18.4476 7.29872 18.5569 7.17122 18.7026 7.17122C18.739 7.17122 18.7937 7.18944 18.862 7.22131C18.9303 7.25319 18.9667 7.29417 18.9667 7.34882C18.9667 7.38525 18.9576 7.42168 18.9394 7.45811C18.9212 7.49454 18.903 7.53096 18.8893 7.56739V7.56284ZM22.4731 12.2714C22.4868 12.3534 22.464 12.4444 22.3957 12.5446C22.3593 12.5947 22.3274 12.6403 22.3046 12.6767C22.2773 12.7131 22.2454 12.7313 22.1999 12.7313H22.1225C22.0405 12.6084 22.0041 12.4763 22.0041 12.3397C22.0041 12.194 22.0496 12.0209 22.1452 11.816C22.2181 11.6566 22.2955 11.4973 22.3729 11.3333C22.3729 11.3925 22.3274 11.5565 22.2409 11.8251C22.1953 11.9617 22.1771 12.071 22.1771 12.1439C22.1771 12.276 22.2226 12.3807 22.3092 12.4627C22.3365 12.449 22.3638 12.4171 22.3866 12.3625C22.4093 12.3078 22.4367 12.2805 22.4731 12.276V12.2714ZM13.3383 3.41895C13.2882 3.6011 13.1106 3.76503 12.8146 3.91075C12.4594 4.08379 12.2272 4.23407 12.127 4.35702C12.1042 4.29782 12.1179 4.23406 12.1589 4.1612C12.2318 4.07468 12.2818 4.01093 12.3137 3.9745C12.291 3.95173 12.2363 3.91986 12.1452 3.87432C12.0542 3.82879 12.0041 3.77414 11.9995 3.71039C12.0815 3.55101 12.1543 3.42805 12.2181 3.33698C12.3183 3.19126 12.4276 3.07741 12.546 3C12.6689 3.02732 12.7554 3.07742 12.8101 3.14117C12.7828 3.26412 12.7327 3.35064 12.6689 3.39162C12.5505 3.29599 12.4777 3.25046 12.4412 3.25046L12.2135 3.52368C12.2591 3.58288 12.3137 3.62386 12.3866 3.65119C12.4594 3.67851 12.5414 3.68762 12.637 3.68762C12.719 3.68762 12.7873 3.68762 12.8465 3.67851C12.9057 3.6694 12.9831 3.63297 13.0879 3.56922C13.2245 3.4827 13.3155 3.43261 13.352 3.41439L13.3383 3.41895ZM15.6243 7.87705C15.6516 8.03188 15.6061 8.1776 15.4831 8.31421C15.433 8.35975 15.392 8.38252 15.3693 8.39162C15.342 8.40073 15.3146 8.39162 15.2873 8.35975C15.2053 8.23679 15.1689 8.10018 15.1689 7.95446C15.1689 7.83607 15.1962 7.71311 15.2463 7.5765C15.2964 7.43989 15.3647 7.30328 15.4421 7.16667C15.4421 7.21676 15.4194 7.31694 15.3784 7.46266C15.3328 7.60838 15.3146 7.72222 15.3146 7.79964C15.3146 7.92259 15.3602 8.02732 15.4467 8.10474C15.4968 8.09563 15.5332 8.0592 15.5514 7.99545C15.5696 7.93169 15.597 7.89071 15.6334 7.87705H15.6243ZM16.4531 12.3898C16.3893 12.4991 16.3165 12.6038 16.2345 12.6995C16.1525 12.7996 16.0751 12.8998 15.9931 13L15.2828 12.6403C15.3192 12.5173 15.3829 12.3944 15.4695 12.2805C15.5195 12.2168 15.6197 12.112 15.7654 11.9754C15.8019 11.9982 15.8884 12.0392 16.0296 12.0938C16.2345 12.1803 16.3756 12.2805 16.4576 12.3898H16.4531Z" fill="currentColor"/>
</svg>
