<svg width="40" height="16" viewBox="0 0 40 16" fill="none" xmlns="http://www.w3.org/2000/svg">
<path fill-rule="evenodd" clip-rule="evenodd" d="M25.7139 3.06598C25.6857 3.24034 25.6291 3.40528 25.5443 3.55608C25.4595 3.71159 25.3511 3.87182 25.2144 4.03676C25.205 3.96136 25.2427 3.84826 25.3275 3.70217C25.4123 3.55608 25.45 3.45712 25.45 3.40056C25.45 3.35344 25.4406 3.31574 25.417 3.27804C24.6772 3.53723 24.1117 3.70688 23.7205 3.79171C23.3294 3.87653 22.9618 3.91423 22.6225 3.91423H22.1701C22.2361 4.01791 22.2879 4.11687 22.3209 4.20641C22.3539 4.29595 22.3727 4.39962 22.3727 4.51272C22.3727 4.55042 22.3633 4.60697 22.3492 4.68237C22.2879 4.78605 22.2267 4.88973 22.1701 4.98869C22.1937 4.92271 22.2031 4.8426 22.2031 4.75306C22.2031 4.56456 22.1418 4.3902 22.024 4.23468C21.9863 4.14986 21.8826 4.0509 21.713 3.93308C21.5433 3.81527 21.4585 3.71159 21.4585 3.62205C21.4585 3.57493 21.4868 3.50895 21.5481 3.43355C21.9722 3.54665 22.401 3.6032 22.8393 3.6032C23.1032 3.6032 23.3388 3.58907 23.5509 3.55608C24.2295 3.46654 24.861 3.27804 25.45 3C25.5773 3 25.6668 3.02356 25.7092 3.06598H25.7139ZM20.0353 4.06503C20.0589 4.10273 20.0636 4.14515 20.0542 4.19698C20.0448 4.24411 20.0023 4.3525 19.9364 4.51744C19.9081 4.56927 19.8515 4.59755 19.7761 4.59755C19.7149 4.59755 19.663 4.58341 19.6159 4.55042C19.5641 4.42319 19.5358 4.2771 19.5358 4.12158C19.5358 3.75401 19.6772 3.4147 19.9552 3.1131C19.9552 3.17908 19.9175 3.31103 19.8374 3.49953C19.7573 3.68803 19.7196 3.82941 19.7196 3.91894C19.7196 4.06975 19.7761 4.18285 19.8892 4.25825L20.0353 4.06503ZM21.402 6.74647C21.4302 6.84543 21.4208 6.9491 21.3737 7.05749C21.3266 7.16588 21.2559 7.26484 21.1663 7.34496C21.0061 7.34496 20.9166 7.28841 20.893 7.17531C20.8553 7.07634 20.8365 6.96324 20.8365 6.836C20.8365 6.61923 20.9166 6.35061 21.0721 6.03487C21.1475 5.88407 21.2276 5.73327 21.3077 5.58247C21.2087 5.93591 21.1098 6.28935 21.0155 6.6475V6.79359C21.0297 6.85957 21.0674 6.93968 21.1286 7.02922C21.2135 7.04335 21.27 7.00565 21.3077 6.9114C21.3454 6.81715 21.3737 6.7606 21.3973 6.74647H21.402ZM25.9825 11.3176C25.9354 11.426 25.86 11.5344 25.7469 11.6381C25.5867 11.7983 25.4924 11.902 25.4547 11.9491L24.7526 11.5768L24.2907 12.0198C24.253 11.9915 24.1541 11.9444 23.9891 11.8831C23.8289 11.8219 23.7252 11.7653 23.6875 11.7135C23.7629 11.5627 23.8383 11.4401 23.9185 11.3412C23.9986 11.2422 24.0975 11.1621 24.2201 11.0914C24.4321 11.1385 24.6583 11.2328 24.8987 11.3742L25.3746 10.9123C25.5396 11.0113 25.6715 11.0914 25.7705 11.1527C25.8694 11.214 25.9401 11.2705 25.9873 11.3223L25.9825 11.3176ZM23.3907 10.5778C23.4189 10.606 23.4378 10.639 23.4378 10.6673C23.4378 10.705 23.4284 10.7333 23.4142 10.7568C23.4001 10.7804 23.3671 10.8228 23.3247 10.8794C23.188 10.983 23.0891 11.0537 23.0184 11.082C22.9053 11.1433 22.7874 11.1715 22.6696 11.1715C22.6084 11.1715 22.5612 11.1668 22.5235 11.1527C22.4858 11.1433 22.4481 11.1338 22.4104 11.1244C22.3727 11.115 22.335 11.115 22.2973 11.115C22.1088 11.115 21.8968 11.2139 21.6659 11.4072C21.3266 11.6852 21.1286 11.8407 21.0768 11.869L19.9552 12.3544C20.1531 12.2648 20.3416 12.1612 20.5301 12.0434C20.7186 11.9255 20.9166 11.7889 21.1286 11.6381C21.3407 11.4826 21.5481 11.3365 21.7554 11.1904C21.9628 11.049 22.1654 10.9171 22.3586 10.804C22.4199 10.7945 22.5047 10.8181 22.6178 10.8652C22.7309 10.9123 22.8251 10.9218 22.9005 10.8935C22.9288 10.8275 22.9618 10.7663 22.9948 10.7144C23.0278 10.6626 23.0655 10.6296 23.1032 10.6107L23.1267 10.771C23.188 10.7945 23.2351 10.7804 23.2728 10.7238C23.3105 10.672 23.3482 10.6202 23.3859 10.5636L23.3907 10.5778ZM17.4764 3.79171L17.3727 4.03676C17.2785 3.9755 17.1937 3.91423 17.1041 3.85768C17.0759 3.85768 17.0523 3.87653 17.0287 3.91423C17.0005 4.02733 16.9863 4.15928 16.9863 4.31008V4.5033C16.9863 4.66352 16.9816 4.77191 16.9675 4.83789C16.958 4.90386 16.9203 4.96984 16.8591 5.04524C16.8591 5.05467 16.958 5.13007 17.1513 5.28087C17.2926 5.39397 17.368 5.49764 17.368 5.59661C17.368 5.65787 17.3398 5.71442 17.2879 5.76626C17.0476 5.80396 16.8072 5.83695 16.5763 5.86993C16.435 5.91706 16.3218 6.00188 16.2464 6.12912C16.2841 6.33176 16.3501 6.58153 16.4491 6.8737C16.5905 7.29783 16.6753 7.55231 16.6989 7.64656C16.7601 7.8869 16.7884 8.11781 16.7884 8.33459C16.7884 8.49482 16.7743 8.6409 16.7413 8.77757C16.713 8.91423 16.6517 9.05561 16.5622 9.20641C16.5999 9.11687 16.6282 9.01791 16.6423 8.90952C16.6564 8.80113 16.6659 8.70217 16.6659 8.60792C16.6659 8.46654 16.6517 8.32988 16.6282 8.19793C16.5999 8.06597 16.5292 7.82092 16.4067 7.46277C16.3218 7.22714 16.2606 7.02922 16.2135 6.85957C16.1663 6.68991 16.1475 6.51555 16.1475 6.33647C16.1475 6.1574 16.1805 5.97832 16.2512 5.78511C16.3124 5.71913 16.4208 5.66258 16.5716 5.62017C16.7271 5.57776 16.8308 5.54006 16.8826 5.50236C16.8214 5.43638 16.7177 5.40339 16.5669 5.40339C16.5575 5.41282 16.5339 5.43638 16.4868 5.48351C16.4397 5.52592 16.402 5.54948 16.3737 5.54948C16.3878 5.43638 16.4161 5.34684 16.4538 5.27615C16.4915 5.20547 16.5575 5.1442 16.647 5.08765C16.6564 5.10179 16.6941 5.11122 16.7601 5.11122C16.6706 4.86616 16.5999 4.67766 16.5433 4.55985C16.4397 4.32894 16.303 4.22055 16.1381 4.24411C16.0721 4.22055 16.0155 4.19698 15.9731 4.164C15.9307 4.13572 15.9071 4.09331 15.8977 4.04147C15.9213 3.89067 15.9401 3.79642 15.9496 3.74929C15.959 3.70688 16.0014 3.65504 16.0721 3.6032C16.2559 3.65975 16.4161 3.80584 16.5481 4.03676C16.647 4.23468 16.7554 4.43261 16.8591 4.62111C16.8968 4.29123 16.9203 4.09331 16.9345 4.03204C16.9816 3.81998 17.0664 3.65504 17.1795 3.53252C17.2314 3.53252 17.2785 3.55137 17.3209 3.58435C17.3633 3.61734 17.4152 3.68803 17.4717 3.79171H17.4764ZM25.7092 7.99057C25.6621 7.8492 25.5066 7.5099 25.2333 6.97267C25.0212 6.55796 24.9175 6.20924 24.9175 5.92177L25.1767 6.11499C25.1908 6.08671 25.2003 6.0443 25.2003 5.99246C25.2003 5.86522 25.106 5.70028 24.9175 5.49293C24.6913 5.25259 24.5641 5.1065 24.5311 5.04995C24.3567 5.27615 24.253 5.54948 24.2153 5.87465C24.3426 6.32705 24.5358 6.82658 24.7903 7.36852C24.9269 7.65598 25.1673 8.13195 25.516 8.79171C25.4547 8.85297 25.3511 8.91423 25.2003 8.97078C25.1249 8.99906 25.0636 9.02733 25.0212 9.0509C24.9599 9.0509 24.8704 9.0509 24.7431 9.06032C24.6206 9.06975 24.5264 9.06975 24.4651 9.06975C24.2907 9.06975 24.1541 9.04618 24.0504 9.00377C23.9467 8.95664 23.8619 8.90009 23.7912 8.82469C23.7205 8.74929 23.6734 8.69746 23.6498 8.66447C23.6027 8.6032 23.5839 8.54194 23.5839 8.47125C23.5839 8.43355 23.5933 8.39114 23.6169 8.34873C23.565 8.39585 23.4425 8.57964 23.254 8.90481C23.1126 9.14515 22.943 9.28652 22.7545 9.32422C22.6932 9.34778 22.6319 9.35721 22.5754 9.35721C22.3963 9.35721 22.2361 9.27238 22.0994 9.09802C22.0617 9.06032 22.0429 9.0132 22.0429 8.96136C22.0429 8.93308 22.0617 8.87182 22.0947 8.78699C22.1277 8.70217 22.1465 8.63619 22.1465 8.58907C22.1465 8.56079 22.1371 8.52309 22.123 8.47597C21.9062 8.70217 21.7224 8.86239 21.581 8.96136C21.3643 9.11216 21.1428 9.18756 20.926 9.18756C20.8789 9.18756 20.827 9.18756 20.7611 9.17813C20.6951 9.16871 20.6432 9.15928 20.5961 9.14515C20.4312 9.09802 20.2898 9.00377 20.1767 8.86239C20.0636 8.72102 19.9882 8.55608 19.9505 8.377L19.5876 8.94251C19.6913 9.41847 19.7997 9.89444 19.9034 10.3657C19.3897 10.7804 18.8383 11.1338 18.254 11.4213C17.6649 11.7135 17.0617 11.9303 16.4444 12.0716C16.0909 12.1706 15.7328 12.2177 15.3699 12.2177C15.0071 12.2177 14.6442 12.1517 14.3284 12.0245C14.0127 11.8973 13.7535 11.6946 13.5603 11.426C13.4236 11.2092 13.3577 10.9453 13.3577 10.6343C13.3577 10.4599 13.3812 10.2667 13.4331 10.05C13.4802 9.83318 13.5415 9.64939 13.6074 9.48916C13.6593 9.49859 13.73 9.50801 13.8101 9.52215C13.8242 9.52215 13.8619 9.51272 13.9232 9.49859C14.1117 9.37606 14.2483 9.18285 14.3284 8.90952C14.3756 8.68332 14.418 8.4524 14.4651 8.22149C14.4415 8.24976 14.3991 8.32516 14.3426 8.44298C14.2813 8.56079 14.2295 8.63148 14.1918 8.65033C14.1494 8.67389 14.1022 8.68332 14.0504 8.68332C13.9373 8.68332 13.8383 8.63619 13.7582 8.53723C13.6593 8.31103 13.6121 8.06597 13.6121 7.80207C13.6121 7.53817 13.6734 7.22714 13.7912 6.88784C13.8808 6.63336 14.008 6.35532 14.1635 6.06315C13.8619 6.46371 13.6404 6.84543 13.4943 7.20358C13.32 7.64185 13.2351 8.08011 13.2351 8.5278C13.2351 8.68803 13.2446 8.84354 13.2681 9.00377C13.3671 9.14514 13.4142 9.29595 13.4142 9.44675C13.4142 9.55985 13.32 9.87088 13.1315 10.3845C13.0466 10.6107 13.0089 10.804 13.0089 10.9595C12.9995 11.0207 12.9995 11.1056 12.9995 11.2187C12.9995 11.5297 13.0561 11.803 13.1692 12.0434C13.2823 12.2837 13.4566 12.4769 13.6875 12.6183C13.9514 12.7455 14.2248 12.8445 14.5075 12.9057C14.7903 12.9717 15.073 13 15.3511 13C16.0909 13 16.8826 12.7974 17.7262 12.3874C18.3812 12.0716 19.0834 11.6239 19.828 11.0396C19.9034 10.9736 20.0023 10.7568 20.1202 10.394C20.2191 10.1159 20.3558 9.97455 20.5396 9.97455C20.5867 9.97455 20.6244 9.97455 20.6527 9.98398C21.1663 9.98398 21.5481 9.77663 21.8072 9.36192C21.8449 9.60226 21.8732 9.74835 21.8874 9.79548C21.9015 9.8426 21.9345 9.89915 21.9769 9.96041C22.156 10.0829 22.3492 10.1395 22.5518 10.1395C22.7874 10.1159 22.9759 9.99811 23.1173 9.79076C23.2022 9.67766 23.2917 9.47974 23.3907 9.19227L23.5839 9.52215C23.697 9.65881 23.8242 9.74835 23.9703 9.80019C24.1117 9.84731 24.2813 9.87559 24.4698 9.87559C24.63 9.87559 24.7997 9.85202 24.9835 9.80961C25.1673 9.76249 25.3228 9.72007 25.4547 9.67295C25.582 9.55042 25.6668 9.41376 25.7092 9.25825C25.7516 9.10273 25.7705 8.91423 25.7705 8.68803C25.7705 8.6032 25.7658 8.49482 25.7516 8.35344C25.7422 8.21206 25.7281 8.08954 25.7139 7.97644L25.7092 7.99057ZM18.3812 8.30631C18.3812 8.38171 18.3624 8.46183 18.3247 8.54194C18.287 8.62677 18.2587 8.68803 18.2351 8.73515C18.188 8.75872 18.1503 8.76814 18.1126 8.76814C18.0843 8.76814 18.0372 8.75872 17.9759 8.73515C17.91 8.58435 17.8723 8.44298 17.8723 8.30631C17.8723 8.12724 17.9147 7.93402 18.0042 7.73139C18.089 7.52875 18.1786 7.32611 18.2681 7.13289C18.1833 7.44863 18.1032 7.76437 18.0184 8.08483C18.0184 8.2639 18.089 8.39585 18.2351 8.48068C18.2634 8.46654 18.287 8.43355 18.3011 8.377C18.3153 8.32516 18.3435 8.3016 18.3812 8.31103V8.30631Z" fill="currentColor"/>
</svg>
