<svg width="40" height="16" viewBox="0 0 40 16" fill="none" xmlns="http://www.w3.org/2000/svg">
<path fill-rule="evenodd" clip-rule="evenodd" d="M25.3225 5.04038C25.2538 5.02749 25.1894 4.97165 25.1249 4.86856C25.0648 4.76976 25.0133 4.70533 24.9789 4.67955C24.9316 4.76976 24.9059 4.86426 24.9059 4.96735C24.9059 5.04467 24.9145 5.14347 24.9316 5.27234C24.9488 5.40121 24.9574 5.47423 24.9574 5.4957C24.9574 5.71478 24.9832 5.99399 25.0304 6.32904C25.1421 7.09794 25.1937 7.58763 25.1937 7.79382C25.1937 8.31787 25.1808 8.69588 25.1507 8.93643C25.1035 9.3488 24.9961 9.70104 24.8328 9.99743C24.9231 9.66667 24.966 9.31014 24.966 8.92354C24.966 8.61427 24.9402 8.23196 24.8844 7.78093C24.7598 6.75 24.6997 6.10997 24.6997 5.86512C24.6095 5.23368 24.5236 4.59794 24.442 3.9579C24.4677 3.92354 24.5064 3.83763 24.5536 3.70017C24.6009 3.56272 24.6653 3.47251 24.7383 3.43385C24.85 3.70018 24.9617 3.97938 25.082 4.26718C25.2023 4.55498 25.2796 4.81271 25.3139 5.04038H25.3225ZM21.9505 3C21.9505 3.04296 21.9291 3.08162 21.8818 3.12457C21.8389 3.16753 21.8088 3.1933 21.7959 3.20618C21.0957 3.45532 20.5717 3.63574 20.228 3.75172C19.5751 3.97938 19.0596 4.18127 18.6816 4.36168C18.7847 4.19845 18.9609 4.06959 19.2057 3.97509C19.4505 3.88059 19.6954 3.79468 19.9273 3.71306C20.6017 3.4811 21.2761 3.24055 21.9462 3H21.9505ZM21.3406 4.52492C21.3664 4.46478 21.3835 4.37886 21.3835 4.26718C21.3835 4.13831 21.3535 4.04382 21.289 3.98797C21.2461 4.02234 21.2289 4.07818 21.2289 4.15121C21.2289 4.20705 21.2375 4.29295 21.259 4.40893H21.2074C21.0914 4.41753 21.0313 4.37887 21.0313 4.29725C21.0313 4.28437 21.0399 4.23712 21.0571 4.15121C21.0743 4.06959 21.0743 4.01375 21.0528 3.98797C20.9969 4.01375 20.9626 4.10825 20.9497 4.27148C20.9368 4.43471 20.8724 4.52062 20.765 4.53351C20.6834 4.49914 20.6404 4.43901 20.6404 4.35739C20.6404 4.3488 20.6576 4.26289 20.692 4.09107C20.7048 4.03523 20.7048 3.99227 20.692 3.9579C20.6103 4.01374 20.5631 4.09536 20.5459 4.19846C20.533 4.30585 20.5158 4.43471 20.4944 4.58505C20.5287 4.71392 20.5889 4.78265 20.6705 4.78265C20.7134 4.78265 20.7822 4.75688 20.8853 4.70103C20.9883 4.64519 21.0657 4.61942 21.1129 4.61942C21.1473 4.61942 21.1816 4.62801 21.216 4.64948C21.2504 4.65807 21.2761 4.64948 21.289 4.62371C21.3019 4.59794 21.3191 4.56787 21.3406 4.52492ZM21.4952 5.56443L21.1859 6.07131C21.0743 6.02835 20.9669 5.98969 20.8552 5.94674C20.7177 5.8866 20.6576 5.80928 20.6791 5.71907L20.9583 5.3067C21.1645 5.38831 21.2761 5.43557 21.2976 5.43987C21.3792 5.47423 21.4437 5.51718 21.4952 5.56443ZM22.0708 6.19158C21.9119 6.0799 21.8217 6.01976 21.8045 6.00687C21.71 5.94674 21.6112 5.90378 21.5167 5.88231L21.1645 6.25172L20.692 6.11856C20.6103 6.10567 20.533 6.14863 20.4643 6.25172C20.3526 6.42354 20.2968 6.51375 20.2882 6.51804C20.2753 6.59966 20.3354 6.66838 20.4729 6.72423C20.5502 6.75 20.6662 6.79725 20.8251 6.85739C20.9368 6.69416 21.0485 6.52663 21.1645 6.3634C21.2418 6.43213 21.332 6.49227 21.4437 6.54811C21.5038 6.58248 21.6026 6.62973 21.7315 6.69416C21.856 6.54382 21.9677 6.37629 22.0708 6.18728V6.19158ZM19.8629 5.57303C19.8844 5.64176 19.8715 5.71478 19.8286 5.7964C19.7856 5.87372 19.7512 5.93385 19.7298 5.97681C19.6524 6.07131 19.5536 6.12285 19.4291 6.12285C19.4033 6.12285 19.356 6.11426 19.2916 6.09708C19.2272 6.0799 19.1799 6.01976 19.1542 5.91667C19.1756 5.73196 19.2529 5.53866 19.3904 5.34106C19.399 5.38831 19.3818 5.46134 19.3475 5.55584C19.3131 5.65034 19.2959 5.71478 19.2959 5.74055C19.2959 5.82217 19.3517 5.87801 19.4591 5.90378C19.588 5.90378 19.6739 5.87801 19.7083 5.82217C19.7212 5.76203 19.6825 5.70189 19.5837 5.64176C19.4892 5.58162 19.4377 5.53866 19.4377 5.51289C19.4377 5.46993 19.472 5.42698 19.5408 5.37973C19.5966 5.37973 19.6524 5.40121 19.7169 5.43987C19.7383 5.45275 19.7856 5.5 19.8629 5.57303ZM20.533 7.92268C20.5545 7.96993 20.5545 8.02148 20.5373 8.07302C20.5201 8.12457 20.4901 8.17612 20.4514 8.23196C20.4084 8.2878 20.3569 8.31357 20.2882 8.31357C20.2667 8.31357 20.2366 8.30499 20.1937 8.2921C20.1378 8.23196 20.1121 8.15035 20.1121 8.05584C20.1121 7.97423 20.1378 7.87972 20.1851 7.77663C20.2323 7.67354 20.2796 7.57474 20.3311 7.47594C20.3311 7.5189 20.3139 7.58763 20.2753 7.68643C20.2366 7.78523 20.2194 7.85825 20.2194 7.9098C20.2194 7.98712 20.2581 8.04725 20.3311 8.0945C20.3784 8.10739 20.417 8.08591 20.4514 8.02577C20.4815 7.96563 20.5115 7.93127 20.5373 7.91838L20.533 7.92268ZM18.1318 4.70533C18.1318 4.81701 18.1103 4.88574 18.0717 4.9201C17.8784 4.9201 17.7667 5.05756 17.7323 5.33248C17.698 5.60739 17.655 5.77921 17.5992 5.84794C17.539 5.80069 17.4703 5.67182 17.3973 5.46564C17.3243 5.25945 17.2383 5.15636 17.1353 5.15636C17.0923 5.15636 17.0622 5.15636 17.0407 5.16495C17.0064 5.13918 16.9892 5.10481 16.9892 5.06186C16.9892 5.02749 17.0021 4.98454 17.0236 4.9287C17.0493 4.87285 17.0579 4.83849 17.0579 4.8256C17.0923 4.79124 17.1224 4.77406 17.1524 4.77406C17.1954 4.77406 17.2383 4.80412 17.2856 4.85997C17.3328 4.9201 17.3629 4.95876 17.3801 4.98024C17.4402 5.13058 17.5047 5.28093 17.5648 5.42268C17.5863 5.39691 17.6335 5.24227 17.7109 4.96735C17.7667 4.76976 17.8569 4.66667 17.9901 4.66667C18.0244 4.66667 18.0717 4.67526 18.1361 4.69673L18.1318 4.70533ZM16.7916 3.60138C16.7572 3.65722 16.7401 3.71306 16.7401 3.77749C16.7401 3.82474 16.7572 3.88918 16.7873 3.9622C16.8174 4.03952 16.8346 4.09107 16.8346 4.11684C16.8346 4.17698 16.8045 4.24141 16.7401 4.30155L16.6069 4.1555C16.3921 4.40464 16.143 4.6366 15.8552 4.85567C15.606 5.04897 15.3268 5.22938 15.009 5.4012C15.5115 4.96306 16.0141 4.52062 16.5253 4.08248C16.5124 4.06959 16.4609 4.03093 16.3706 3.9622C16.2804 3.89777 16.2289 3.83333 16.216 3.7732C16.2289 3.68299 16.2676 3.60138 16.3363 3.52406C16.4007 3.44674 16.4737 3.39519 16.5597 3.36942C16.6198 3.35653 16.6713 3.36941 16.7143 3.42096C16.7572 3.46821 16.783 3.52835 16.7959 3.59708L16.7916 3.60138ZM23.411 7.04639C23.3767 6.88316 23.3079 6.59107 23.2048 6.1787C23.0545 5.56873 22.96 5.09622 22.9256 4.76546L22.9987 4.61942C23.0416 4.6409 23.0932 4.70103 23.1533 4.80412C23.2134 4.90722 23.2822 4.95876 23.3509 4.95876C23.2736 4.69244 23.1834 4.43471 23.076 4.19416C22.9686 3.95361 22.844 3.70876 22.698 3.46392C22.6507 3.54553 22.6035 3.63574 22.5519 3.72595C22.5047 3.82045 22.4789 3.89777 22.4789 3.96649C22.4789 4.02663 22.4918 4.08248 22.5219 4.12973C22.7882 5.52578 23.0588 6.91753 23.3251 8.30499C23.338 8.43385 23.3552 8.56702 23.3767 8.69588C23.3767 8.79897 23.3294 8.8677 23.2306 8.90206C23.0846 8.9622 22.9299 8.99657 22.7667 8.99657C22.5133 8.99657 22.3028 8.92354 22.1395 8.78179C22.1395 8.7689 22.1481 8.73883 22.1696 8.68729C22.1911 8.64004 22.1954 8.60137 22.1782 8.5756C22.1567 8.60137 22.1052 8.69158 22.0236 8.84193C21.9119 9.03523 21.7916 9.14691 21.6627 9.18127C21.594 9.19416 21.5382 9.20275 21.4995 9.20275C21.3148 9.20275 21.1645 9.13402 21.0442 8.99657C21.0356 8.97079 21.0528 8.90206 21.0957 8.79897C21.1086 8.75601 21.1129 8.72165 21.1043 8.69588C20.954 8.83334 20.7993 8.97079 20.6404 9.11254C20.4815 9.25429 20.3139 9.32303 20.1335 9.32303C19.9832 9.32303 19.85 9.24141 19.7298 9.07388C19.6696 8.98368 19.5794 8.84622 19.4634 8.66152C19.326 8.61426 19.1928 8.58849 19.0597 8.58849C18.832 8.58849 18.5957 8.65722 18.3466 8.79468C18.1877 8.88488 17.9772 9.03523 17.7194 9.25C17.5605 9.37887 17.3715 9.55069 17.1524 9.75687C16.6971 10.1907 16.3921 10.4699 16.2332 10.5902C16.1043 10.6847 15.9669 10.7663 15.8294 10.8265C15.692 10.8866 15.5631 10.921 15.4385 10.921C15.3011 10.921 15.1722 10.8823 15.0562 10.8093C14.9059 10.6503 14.8285 10.4785 14.8285 10.2938C14.8285 10.1091 14.9016 9.90292 15.0433 9.65378C15.1206 9.51633 15.2366 9.31873 15.3956 9.06529C15.0777 9.46907 14.8887 9.75258 14.82 9.91151C14.7298 10.1048 14.6868 10.2981 14.6868 10.5C14.6868 10.6804 14.7298 10.8522 14.82 11.0241C14.8973 11.1357 14.9918 11.2217 15.1121 11.2861C15.2323 11.3505 15.3526 11.3849 15.4772 11.3849C15.5459 11.3849 15.6103 11.3763 15.6748 11.3548C15.9368 11.2775 16.2031 11.1229 16.478 10.8823C16.5038 10.8565 16.7444 10.6246 17.1911 10.1907C17.5133 9.89004 17.7624 9.67955 17.9342 9.56357C18.222 9.37028 18.5098 9.25 18.789 9.20275C18.8664 9.17698 18.9351 9.15979 19.0038 9.15979C19.1627 9.15979 19.3131 9.29725 19.4634 9.57217C19.6095 9.84708 19.7899 9.96735 20.0047 9.93299C20.155 9.93299 20.3054 9.87715 20.46 9.76976C20.5631 9.69244 20.6791 9.58076 20.8122 9.43041C20.8208 9.49914 20.8552 9.55928 20.9153 9.61512C20.9583 9.64949 21.0098 9.69244 21.0786 9.73969C21.1602 9.78265 21.2461 9.79983 21.3363 9.79983C21.405 9.79983 21.4952 9.78694 21.6026 9.75687C21.7057 9.70962 21.7916 9.61942 21.8603 9.49055C21.9033 9.37887 21.9462 9.26719 21.9935 9.15121V9.28437C22.0279 9.36598 22.0837 9.43041 22.1567 9.48196C22.1997 9.50773 22.2727 9.5421 22.3844 9.57646C22.4789 9.59794 22.582 9.60653 22.6851 9.60653C22.8139 9.60653 22.9385 9.58505 23.0545 9.5378C23.1705 9.49485 23.2693 9.42612 23.3423 9.33591C23.4239 9.12113 23.4798 8.93643 23.5055 8.77749C23.5313 8.61856 23.5485 8.43385 23.5485 8.21908C23.5485 8.02148 23.5356 7.82389 23.5055 7.63488C23.4798 7.44588 23.4411 7.24399 23.3938 7.03351L23.411 7.04639ZM22.5047 10.2423C22.5047 10.427 22.4188 10.5601 22.2469 10.6332C22.1911 10.6332 22.1095 10.6546 21.9935 10.7019C21.8818 10.7448 21.8002 10.7706 21.753 10.7706C21.6584 10.7706 21.5768 10.7277 21.5167 10.6375C21.3363 10.6933 21.1301 10.7792 20.8981 10.8952C20.7263 10.9854 20.6017 11.0498 20.5287 11.0928C20.344 11.183 20.1679 11.2517 19.9961 11.3033C19.8286 11.3548 19.6524 11.3806 19.4763 11.3806C19.6267 11.3591 19.7598 11.3247 19.8715 11.2732C19.9832 11.2217 20.2151 11.0928 20.5588 10.8866C20.8079 10.7277 20.9755 10.6246 21.0657 10.5773C21.259 10.4828 21.4523 10.4313 21.6413 10.4313C21.6842 10.4785 21.7358 10.5172 21.8045 10.5515C21.8732 10.5816 21.9334 10.5859 21.9806 10.5687C22.0236 10.4742 22.0536 10.4012 22.0794 10.3583C22.1052 10.3153 22.131 10.2766 22.1653 10.2509L22.1868 10.4485C22.2555 10.4699 22.3157 10.4485 22.3715 10.3969C22.4531 10.3024 22.5004 10.2509 22.5047 10.2509V10.2423ZM18.5141 10.7491C18.4712 10.8394 18.4454 10.9038 18.4325 10.9467C18.3981 11.0241 18.3595 11.0756 18.3208 11.11C18.2736 11.1357 18.2177 11.1357 18.1619 11.11C18.1017 11.0842 18.076 11.0412 18.076 10.9854C18.0631 10.8351 18.1017 10.6718 18.1877 10.5C18.2349 10.4184 18.2822 10.3325 18.3337 10.2423C18.2993 10.3325 18.2736 10.4012 18.2521 10.4485C18.2091 10.5515 18.192 10.6375 18.192 10.7062C18.192 10.7835 18.222 10.8479 18.2865 10.9038C18.3337 10.9167 18.3853 10.8909 18.4411 10.8222C18.4755 10.7792 18.5012 10.7577 18.5227 10.7491H18.5141ZM19.4634 12.2869C19.0768 12.4931 18.6988 12.6564 18.3294 12.7723C17.8698 12.9227 17.4445 13 17.0493 13C16.3535 13 15.838 12.9485 15.4987 12.8497C15.1593 12.7509 14.8586 12.6005 14.5966 12.4029C14.3775 12.2397 14.2229 12.0378 14.1327 11.8015C14.0425 11.5653 13.9995 11.2861 13.9995 10.9725C14.1026 10.4098 14.2615 9.92869 14.472 9.52921C14.7212 9.0567 15.0562 8.66152 15.4815 8.35224C15.4385 8.30499 15.2109 8.15035 14.7899 7.88832C14.5021 7.70791 14.356 7.48454 14.356 7.21822C14.4462 6.91753 14.5493 6.69846 14.6653 6.56529C14.7813 6.43213 14.9145 6.34622 15.0691 6.31186C15.3354 6.28609 15.6404 6.2689 15.9755 6.2689C16.4351 6.2689 16.8775 6.29038 17.2942 6.33763C17.7151 6.38059 18.1748 6.45361 18.6773 6.54811C18.7676 6.62543 18.8105 6.67697 18.8105 6.70275C18.8105 6.72423 18.8019 6.75 18.7804 6.78436C18.7203 6.95618 18.6645 7.08076 18.6172 7.15378C18.527 7.29124 18.4153 7.36856 18.2779 7.39004C17.9557 7.53608 17.6335 7.67354 17.32 7.811C16.8861 8.00429 16.5339 8.17612 16.259 8.32646C15.8595 8.54554 15.5373 8.75172 15.2882 8.94502C14.9789 9.18557 14.734 9.4433 14.5579 9.71821C14.3646 9.99313 14.2701 10.3239 14.2701 10.7062C14.2701 10.8694 14.2959 11.0369 14.3517 11.2002C14.5923 11.5696 14.9273 11.8617 15.3612 12.0765C15.7392 12.2612 16.1773 12.3814 16.6713 12.4373C16.9119 12.4588 17.1481 12.4674 17.3844 12.4674C17.7495 12.4674 18.0674 12.4545 18.3423 12.4244C18.6172 12.3986 18.9909 12.3471 19.4677 12.2784L19.4634 12.2869ZM16.8131 9.58505C16.5811 9.94158 16.259 10.122 15.8552 10.122C15.7779 10.122 15.7263 10.122 15.692 10.1134C15.576 10.0576 15.4987 9.99743 15.4643 9.9287C15.4987 9.78265 15.5674 9.64949 15.6705 9.52492C15.7736 9.40035 15.8938 9.32302 16.0313 9.28866C15.984 9.27577 15.9325 9.26289 15.881 9.24571C15.8294 9.23282 15.795 9.22423 15.7822 9.22423C15.7349 9.22423 15.6877 9.25 15.649 9.29725C15.6275 9.29725 15.6189 9.28866 15.6189 9.27148C15.6189 9.2543 15.6189 9.23711 15.6275 9.21564C15.6962 9.09107 15.8036 9.03093 15.9454 9.03093C16.0055 9.03093 16.07 9.03952 16.1301 9.0567C16.1902 9.07389 16.2504 9.09966 16.3062 9.13402C16.2933 9.26289 16.1816 9.37887 15.9712 9.47337C15.7607 9.56787 15.6576 9.64948 15.6576 9.70962C15.6576 9.75687 15.6962 9.82131 15.7693 9.89433C15.8509 9.90722 15.9153 9.91581 15.9669 9.91581C16.1129 9.91581 16.259 9.88144 16.4093 9.81272C16.478 9.78694 16.6112 9.70962 16.8131 9.58505ZM16.6284 3.85481V3.75172C16.6155 3.66151 16.5682 3.61856 16.4823 3.61856C16.4394 3.61856 16.4093 3.63574 16.3878 3.6701L16.6241 3.85481H16.6284ZM17.8956 7.05069C17.6636 7.16237 17.3028 7.32131 16.8131 7.53608C16.3921 7.72938 16.0399 7.92268 15.7521 8.12457C15.7521 7.86255 15.5631 7.6177 15.1851 7.39433C14.9445 7.24828 14.7856 7.1409 14.7126 7.06358C14.8586 6.99485 15.0047 6.94759 15.1593 6.92612C15.3139 6.90034 15.4987 6.89175 15.7091 6.89175C15.7564 6.89175 16.0184 6.90464 16.4909 6.93471C16.6069 6.9433 16.7615 6.9433 16.9548 6.9433L17.8913 7.05498L17.8956 7.05069Z" fill="currentColor"/>
</svg>
