<svg width="40" height="16" viewBox="0 0 40 16" fill="none" xmlns="http://www.w3.org/2000/svg">
<path fill-rule="evenodd" clip-rule="evenodd" d="M29.8547 5.1315C29.8332 5.05415 29.7945 4.97679 29.7301 4.89514C29.6957 4.85217 29.6355 4.79201 29.5453 4.71036C29.5238 4.92952 29.5152 5.14869 29.5152 5.37215C29.5152 5.69016 29.5453 6.17146 29.6097 6.82466C29.6742 7.47787 29.7043 7.96777 29.7043 8.29007V9.03352C29.7043 9.60507 29.6785 10.0692 29.6312 10.4259C29.5625 10.9287 29.4336 11.3713 29.2488 11.7581C29.2058 11.8182 29.1757 11.8526 29.1542 11.8526C29.2101 11.5647 29.2488 11.2338 29.2788 10.8556C29.3046 10.4817 29.3218 10.1294 29.3218 9.79845C29.3218 9.20112 29.2917 8.5651 29.2359 7.89042C29.1757 7.21573 29.1198 6.52385 29.0597 5.80619C28.9995 5.09282 28.9737 4.4783 28.9737 3.97121C28.9479 3.85947 28.9737 3.73915 29.0683 3.60163C29.1585 3.46411 29.2445 3.3309 29.3261 3.19768C29.4293 3.36957 29.5496 3.61882 29.6871 3.94112C29.8805 4.38805 29.975 4.71036 29.975 4.91233C29.975 5.04125 29.9363 5.11861 29.8633 5.14009L29.8547 5.1315ZM25.6046 3.3266C25.4585 3.55866 25.1663 3.72626 24.7193 3.8208C24.0747 3.95831 23.7094 4.04426 23.6278 4.07864C22.4847 4.44392 21.3502 4.80919 20.2157 5.17017C20.2028 5.09282 20.2458 5.01117 20.3489 4.92093C20.4048 4.87365 20.495 4.81349 20.6282 4.74473L25.4542 3.35238C25.4542 3.35238 25.48 3.34379 25.5143 3.3309C25.5487 3.318 25.5788 3.31371 25.6089 3.3223L25.6046 3.3266ZM25.7163 5.96519C25.5788 6.18006 25.4241 6.38204 25.2522 6.57542L24.642 6.24452L24.1349 6.63558C24.0919 6.6012 23.9888 6.54534 23.8255 6.47228C23.5762 6.35625 23.4559 6.24022 23.4559 6.13279C23.5032 6.08981 23.5848 5.99527 23.6923 5.84486C23.7825 5.72024 23.8684 5.63859 23.9501 5.59561C24.0274 5.59561 24.1349 5.65578 24.2767 5.77611C24.4185 5.89643 24.5174 5.9566 24.5818 5.9566C24.6463 5.9566 24.7064 5.91362 24.7666 5.82338C24.8611 5.70735 24.917 5.64289 24.9299 5.6257C25.0072 5.54835 25.076 5.51397 25.1448 5.51397C25.2049 5.51397 25.2651 5.55694 25.321 5.63859L25.712 5.96949L25.7163 5.96519ZM23.2195 5.55264C23.241 5.51826 23.2496 5.49248 23.2496 5.47099C23.2496 5.42802 23.2367 5.37215 23.2066 5.2948C23.1508 5.2948 23.0992 5.32918 23.0519 5.39794C23.0047 5.46669 22.9617 5.50107 22.9273 5.50107C22.8586 5.44521 22.8242 5.38934 22.8242 5.32488C22.8242 5.2905 22.85 5.21745 22.9058 5.11001C22.9617 4.99828 22.9832 4.91233 22.966 4.84357C22.9101 4.86506 22.8586 4.91663 22.8113 4.99828C22.7898 5.04125 22.7554 5.11001 22.7082 5.20455C22.6996 5.21745 22.691 5.24323 22.6781 5.27761C22.6652 5.31199 22.6566 5.36786 22.6566 5.44091C22.6566 5.59991 22.7125 5.72454 22.8199 5.81048C22.9789 5.76751 23.1078 5.68156 23.2109 5.55264H23.2195ZM19.6312 4.68457C19.6527 4.58143 19.6656 4.49549 19.6742 4.43102C19.6828 4.36656 19.6828 4.27632 19.6828 4.15599C19.6828 3.8208 19.614 3.53717 19.4765 3.30941C19.5109 3.18478 19.5625 3.11173 19.6312 3.09454C19.7601 3.31371 19.8289 3.58015 19.8289 3.88956C19.8289 4.19897 19.7644 4.46541 19.6312 4.68457ZM27.4181 10.1079C27.4181 9.60507 27.3837 9.01633 27.3149 8.33734C27.2462 7.65836 27.1817 7.00086 27.1173 6.36055C27.0571 5.72024 27.0227 5.1272 27.0227 4.57714C27.0786 4.61152 27.1302 4.67168 27.1774 4.75333C27.2032 4.7963 27.2462 4.86506 27.3021 4.9596C27.3149 4.87795 27.3235 4.81349 27.3235 4.76192C27.3235 4.59003 27.2763 4.37516 27.1774 4.11302C26.9024 3.37817 26.7649 3.0043 26.7649 3C26.5801 3.21917 26.4426 3.45552 26.3523 3.70047C26.4684 4.42243 26.5844 5.14439 26.7047 5.86635C26.8551 6.80748 26.9583 7.54233 27.0141 8.0752C27.0958 8.84443 27.1388 9.58358 27.1388 10.2926C26.8079 10.4774 26.4426 10.572 26.0343 10.572C25.9312 10.572 25.8195 10.5634 25.6948 10.5419C25.5702 10.5204 25.4714 10.4946 25.394 10.4603C25.4628 10.2282 25.5358 9.97894 25.6089 9.7125C25.6819 9.44607 25.7206 9.21401 25.7206 9.01633C25.7206 8.86592 25.6991 8.72411 25.6519 8.59948C25.6046 8.47486 25.5358 8.35453 25.4413 8.2428C25.3811 8.19983 25.3253 8.18264 25.278 8.18264C25.2006 8.18264 25.1147 8.22132 25.0201 8.29437C24.9729 8.33735 24.8912 8.39751 24.7838 8.47916C24.5345 8.71122 24.3412 8.96476 24.195 9.2312C24.0489 9.49764 23.9802 9.77267 23.9802 10.0563C23.9802 10.1852 23.9931 10.3055 24.0232 10.4087C23.8641 10.4774 23.6923 10.5118 23.5075 10.5118C23.1379 10.5118 22.8457 10.3829 22.6394 10.1294C22.5921 10.0821 22.5663 10.0262 22.5663 9.96605C22.5921 9.85432 22.6265 9.74688 22.6609 9.63515C22.3644 9.79845 22.0721 9.96175 21.7842 10.1208C21.174 10.4431 20.6196 10.6064 20.1254 10.6064C19.859 10.6064 19.6054 10.5032 19.3734 10.2969C19.1757 10.1165 19.021 9.90159 18.9093 9.64804C18.8147 9.23549 18.7503 8.82295 18.7202 8.4147C18.6901 8.00645 18.6729 7.53373 18.6729 6.99656C18.6815 6.54104 18.6858 6.13279 18.6944 5.76751C18.703 5.40223 18.703 5.08423 18.703 4.8092C18.703 4.44392 18.703 4.1517 18.6944 3.92823C18.6858 3.70477 18.6686 3.45982 18.6342 3.18908C18.5397 3.23206 18.4537 3.31801 18.3764 3.45552C18.3334 3.53287 18.2733 3.64461 18.1916 3.79501C18.2733 4.36657 18.3162 4.9639 18.3162 5.59132C18.3162 5.96949 18.299 6.37344 18.2647 6.80748C18.2861 6.94499 18.299 7.08251 18.3076 7.22432C18.3162 7.36613 18.3162 7.50795 18.3162 7.65406V8.10958C18.3162 8.94328 18.3592 9.53631 18.4409 9.89299C18.587 10.5032 18.8921 10.9673 19.3605 11.2853C19.498 11.3283 19.6011 11.3498 19.6699 11.3584C19.7387 11.367 19.8461 11.367 19.9879 11.367C20.3919 11.367 20.8044 11.2725 21.217 11.0791C21.5479 10.9287 21.9088 10.7009 22.2999 10.4001C22.2999 10.4216 22.2999 10.456 22.2913 10.5032C22.2913 10.5935 22.3042 10.6837 22.3343 10.7783C22.3601 10.8728 22.403 10.9459 22.4589 11.0017C22.5878 11.1135 22.7296 11.1908 22.8758 11.2338C23.0219 11.2768 23.1895 11.3025 23.3742 11.3025C23.5719 11.3025 23.7825 11.2725 23.9974 11.2166C24.2122 11.1607 24.4013 11.0877 24.5603 11.006C24.7322 11.1306 24.9299 11.2209 25.1491 11.281C25.3682 11.3412 25.6046 11.367 25.8624 11.367C26.2492 11.367 26.5844 11.3068 26.8723 11.1822C27.0571 11.1006 27.1903 10.9459 27.2634 10.7181C27.3063 10.5935 27.3579 10.3958 27.4267 10.1208L27.4181 10.1079ZM22.012 6.4465L21.9389 6.70434C21.8573 6.67855 21.7756 6.64418 21.7026 6.6098C21.6682 6.6098 21.6424 6.63988 21.6209 6.69575C21.5994 6.75591 21.5693 6.91491 21.5264 7.17705C21.4834 7.43919 21.4146 7.61538 21.3115 7.71422C21.2642 7.63687 21.1955 7.49936 21.1052 7.29738C21.015 7.0954 20.9419 6.94499 20.8904 6.85045C20.8689 6.89772 20.8388 6.92351 20.7958 6.92351C20.7743 6.92351 20.7185 6.89772 20.6196 6.85045C20.5852 6.79459 20.5681 6.73442 20.5681 6.66566C20.5681 6.6055 20.5809 6.54534 20.6024 6.48947C20.6282 6.4336 20.6626 6.37774 20.7099 6.31328C20.9033 6.38204 21.058 6.57542 21.174 6.88913C21.2513 7.08681 21.3201 7.22862 21.3803 7.31027C21.4146 7.12978 21.449 6.95359 21.4834 6.7731C21.5393 6.57972 21.6295 6.42501 21.7498 6.30898C21.8788 6.33476 21.9647 6.38204 22.0077 6.4422L22.012 6.4465ZM18.0713 3.03438C18.0928 3.07735 18.0713 3.12032 18.0111 3.17189C17.951 3.22346 17.908 3.25784 17.8865 3.27073C17.0399 3.55436 16.4082 3.76493 15.9871 3.91104C15.2393 4.17318 14.6248 4.44392 14.1521 4.72755C14.3154 4.44392 14.6377 4.21186 15.1104 4.02707C15.5143 3.88096 15.9226 3.73915 16.3265 3.59304C16.9024 3.40825 17.4868 3.22346 18.0713 3.03438ZM24.9729 11.9128C24.8568 12.0288 24.7322 12.119 24.6033 12.1878C24.4744 12.2523 24.3111 12.3124 24.1177 12.3683C23.7954 12.4628 23.4731 12.5617 23.1594 12.6562C23.2711 12.5445 23.3914 12.4585 23.5204 12.3898C23.6493 12.321 23.8126 12.2566 24.006 12.1921C24.3283 12.0976 24.6506 12.003 24.9772 11.9128H24.9729ZM20.3833 8.67254C20.3833 8.92179 20.2801 9.12376 20.0739 9.28277C20.0051 9.26987 19.9578 9.2312 19.9363 9.16244C19.9106 9.09798 19.8891 9.03352 19.8676 8.97335C19.8676 8.71121 19.9235 8.50064 20.0309 8.33305C20.0094 8.44908 20.0008 8.55221 20.0008 8.64246C20.0008 8.74559 20.018 8.83154 20.0524 8.9003L20.1469 8.99484C20.2028 8.96046 20.2501 8.9046 20.293 8.83154C20.336 8.75419 20.3661 8.70262 20.3876 8.67684L20.3833 8.67254ZM16.5672 5.73313C16.5543 5.77611 16.5414 5.81478 16.5371 5.85775C16.5027 5.96089 16.4555 5.99527 16.391 5.96089C16.348 5.90503 16.2879 5.88354 16.2062 5.90073C16.1289 5.99098 16.0773 6.16717 16.0472 6.43361C16.0171 6.70004 15.9699 6.88053 15.9097 6.97508C15.8495 6.91491 15.7335 6.72583 15.5702 6.40782C15.4929 6.26171 15.4198 6.15427 15.3424 6.07692C15.3424 6.15857 15.2995 6.20155 15.2092 6.20155C15.1663 6.20155 15.1276 6.18436 15.0846 6.15427C15.0416 6.12419 15.0244 6.08122 15.0244 6.02535C15.0244 5.97808 15.0373 5.92652 15.0588 5.87065C15.0846 5.81478 15.1061 5.76751 15.1319 5.72024C15.1577 5.67726 15.1963 5.65148 15.2522 5.65148C15.3124 5.65148 15.3553 5.66867 15.3768 5.70305C15.48 5.7804 15.5788 5.90503 15.6776 6.08552C15.8023 6.31758 15.8796 6.45509 15.914 6.49807C15.9398 6.30468 15.9828 6.13279 16.0386 5.98238C16.0945 5.83197 16.1718 5.69875 16.275 5.59132C16.3222 5.59132 16.3738 5.60421 16.4254 5.6257C16.477 5.65148 16.5285 5.68586 16.5758 5.73313H16.5672ZM22.4374 12.3038C22.3257 12.4413 22.2483 12.5445 22.2011 12.6132C22.1194 12.7164 22.0335 12.8152 21.9432 12.9141L21.2213 12.4284C21.174 12.5746 21.1138 12.6734 21.0408 12.7336C20.9677 12.7937 20.8861 12.8195 20.7872 12.8195C20.6841 12.8195 20.5724 12.7937 20.4563 12.7379C20.4134 12.7164 20.3059 12.6519 20.1254 12.5402C20.1512 12.4284 20.22 12.3167 20.3231 12.205C20.4262 12.0933 20.5251 11.9815 20.6239 11.8784C20.856 11.9471 21.088 12.0804 21.3158 12.2823L21.8916 11.8397C21.8916 11.8397 22.0249 11.9557 22.2526 12.1276C22.3558 12.205 22.4159 12.2608 22.4374 12.3038ZM13.5075 5.47529C13.4602 5.55694 13.4129 5.63859 13.3614 5.72454C13.2668 5.87065 13.1551 6.00387 13.0305 6.12849L12.3687 5.77611C12.4116 5.66437 12.4804 5.54835 12.5835 5.42372C12.605 5.40223 12.6953 5.2948 12.8629 5.09282C13.0777 5.17017 13.2883 5.2948 13.5032 5.47529H13.5075ZM12.7039 3.70047C12.648 3.58444 12.5749 3.47701 12.4761 3.38247C12.3815 3.28792 12.2698 3.19768 12.1452 3.11603C12.0893 3.10314 12.0507 3.09454 12.0206 3.09454C11.8616 3.09454 11.7498 3.21057 11.6811 3.44692C11.5779 3.78212 11.5135 3.97121 11.4834 4.00559C11.5049 4.08294 11.5436 4.13021 11.608 4.1517C11.6682 4.17318 11.7498 4.19467 11.8444 4.21186C11.5779 4.52127 11.2728 4.81349 10.9376 5.08853C10.74 5.25183 10.4005 5.50107 9.92775 5.82767C9.45503 6.15427 9.14562 6.37344 8.99951 6.48088C9.48941 6.21444 9.8418 6.00817 10.061 5.87065C10.452 5.6214 10.7915 5.38075 11.0708 5.14869C11.4146 4.86077 11.7112 4.55565 11.9561 4.24194C12.085 4.24194 12.1968 4.28492 12.287 4.37516C12.3429 4.38805 12.3815 4.39665 12.4116 4.39665C12.5277 4.39665 12.6093 4.35367 12.6609 4.26343C12.721 4.18178 12.7554 4.08294 12.7554 3.96261C12.7554 3.87237 12.7382 3.78642 12.7039 3.70477V3.70047ZM14.4142 7.98066C14.3669 8.16545 14.3283 8.28578 14.3025 8.34164C14.2423 8.47056 14.1521 8.55651 14.036 8.59089C13.9587 8.61237 13.8985 8.59089 13.8556 8.53502C13.8126 8.47486 13.7825 8.4104 13.7696 8.33305C13.7696 8.15256 13.804 7.97207 13.8727 7.78298C13.9415 7.5939 13.9888 7.46498 14.0189 7.39622C14.0274 7.47357 14.0103 7.5853 13.9673 7.73141C13.9243 7.87752 13.9071 7.97636 13.9071 8.02363C13.9071 8.14826 13.9501 8.2428 14.0403 8.31156C14.1435 8.33305 14.2337 8.27288 14.3068 8.13537C14.354 8.04512 14.3927 7.99355 14.4185 7.98066H14.4142ZM12.373 5.56553L11.6596 5.25612C11.5822 5.34637 11.5092 5.43232 11.4318 5.51397C11.2814 5.68586 11.2041 5.83197 11.2041 5.9566C11.2127 5.9566 11.333 6.01246 11.5736 6.11989C11.7198 6.18006 11.8444 6.20585 11.9561 6.19295C12.0507 6.06833 12.1538 5.9437 12.2569 5.81048C12.3128 5.73313 12.3515 5.65148 12.3687 5.56124L12.373 5.56553ZM17.1903 9.32144C17.1001 9.15814 17.0141 8.99055 16.9325 8.82725C16.7391 8.48345 16.507 8.31156 16.232 8.31156C15.9484 8.48346 15.6819 8.78857 15.4284 9.2312C15.0846 9.81564 14.8654 10.168 14.7666 10.2841C14.6291 10.4216 14.4572 10.4903 14.2509 10.4903C14.1822 10.4903 14.1306 10.4903 14.0962 10.4817C13.8126 10.4345 13.5504 10.2325 13.3012 9.87151C13.0004 9.43747 12.7941 9.18393 12.6824 9.10658C12.2784 9.24409 11.9518 9.61366 11.7112 10.2196C11.4361 10.9072 11.1783 11.3455 10.9376 11.5389C10.8818 11.5518 10.8044 11.5604 10.7013 11.5604C10.6067 11.5604 10.5251 11.5518 10.4649 11.5389C10.2372 11.3541 10.0739 11.1349 9.97072 10.89C9.8461 10.5892 9.78593 10.1379 9.78593 9.54061C9.78593 9.43747 9.78593 9.33433 9.79023 9.2355C9.79023 9.13666 9.79453 9.03352 9.79453 8.93038C9.63552 9.36871 9.55817 9.82853 9.55817 10.3012C9.55817 10.6708 9.60974 11.0232 9.71717 11.3584C9.82461 11.6936 9.98791 11.9901 10.2071 12.2523C10.3016 12.3124 10.4048 12.3554 10.5165 12.3769C10.6282 12.3984 10.7485 12.407 10.8861 12.407C11.1697 12.2093 11.4017 11.8569 11.5865 11.3541C11.8143 10.7482 11.9862 10.3657 12.1022 10.211C12.2741 10.0176 12.4202 9.92308 12.5363 9.92308C12.6394 9.92308 12.7425 10.0305 12.8457 10.2411C13.0734 10.7138 13.2625 10.9759 13.4129 11.0232C13.5934 11.208 13.8255 11.3025 14.1134 11.3025C14.2294 11.3025 14.3626 11.2767 14.5045 11.2295C14.6291 11.1693 14.7279 11.0748 14.8053 10.9544C14.8826 10.8341 14.9428 10.7052 14.9944 10.572C15.0459 10.4388 15.1018 10.3485 15.1577 10.3055C15.2178 10.2626 15.2952 10.2368 15.3897 10.2368C15.48 10.2368 15.6519 10.2884 15.9097 10.3958C16.1675 10.5032 16.3695 10.5548 16.5113 10.5548C16.6274 10.5548 16.7391 10.529 16.8422 10.4731C17.07 10.1637 17.1817 9.77697 17.1817 9.31715L17.1903 9.32144ZM11.4877 8.2385C11.4662 8.37602 11.4447 8.48346 11.4146 8.55651C11.3889 8.63386 11.3373 8.70692 11.2599 8.78427C11.2041 8.79287 11.1568 8.77138 11.1224 8.7284C11.0837 8.68543 11.058 8.63386 11.0451 8.578C11.0322 8.52213 11.0236 8.45767 11.0236 8.38032C11.0236 8.21702 11.058 8.03653 11.1267 7.84314C11.174 7.69703 11.2556 7.52514 11.376 7.32746C11.3674 7.35325 11.3287 7.46927 11.2556 7.67125C11.1826 7.87323 11.1482 8.02793 11.1482 8.13107C11.1482 8.27718 11.1955 8.39751 11.2943 8.50064C11.3287 8.48775 11.3588 8.44048 11.3889 8.36313C11.4146 8.28577 11.449 8.2428 11.492 8.23421L11.4877 8.2385ZM16.6746 11.5604C16.6961 11.6034 16.7047 11.642 16.7047 11.685C16.7047 11.7452 16.6832 11.8096 16.6445 11.8741C16.6016 11.9385 16.5672 12.003 16.5328 12.0632C16.4641 12.089 16.3867 12.0804 16.2965 12.0374C16.2062 11.9944 16.1246 11.9514 16.0472 11.9085C15.8066 12.205 15.4628 12.437 15.0158 12.6089C14.7193 12.7207 14.2939 12.8238 13.7352 12.9269L13.2496 13C13.8427 12.8023 14.2896 12.6476 14.5904 12.5359C15.1405 12.3382 15.5831 12.1276 15.9226 11.9085C15.9656 11.7838 16.0214 11.6678 16.0945 11.5561C16.1675 11.4443 16.2492 11.3584 16.348 11.2982C16.4426 11.2768 16.5285 11.3111 16.5973 11.4014C16.6317 11.4486 16.6574 11.5002 16.6789 11.5561L16.6746 11.5604ZM25.3682 9.79845C25.3682 9.79845 25.2522 9.87151 25.0803 9.99613C24.9643 10.0778 24.8654 10.1208 24.7795 10.1208C24.7322 10.1208 24.6849 10.1122 24.6463 10.0907C24.5689 10.009 24.4916 9.91878 24.4142 9.82424C24.3369 9.72969 24.3068 9.63086 24.3283 9.53631C24.4099 9.41169 24.5088 9.30425 24.6291 9.20541C24.7752 9.08079 24.8998 9.02063 25.0115 9.02063C25.0674 9.02063 25.1233 9.04641 25.1749 9.09368C25.2307 9.14095 25.2694 9.20971 25.2995 9.29566C25.3253 9.38161 25.3467 9.46326 25.3553 9.53631C25.3639 9.60937 25.3725 9.69961 25.3725 9.80275L25.3682 9.79845ZM12.5706 4.09583C12.5019 4.10872 12.4245 4.08724 12.3343 4.02707C12.244 3.96691 12.1839 3.93683 12.1495 3.92823C12.1839 3.87237 12.2054 3.8208 12.2097 3.77353C12.2182 3.72626 12.2182 3.6575 12.2182 3.56725C12.3558 3.69188 12.4331 3.76923 12.4546 3.80361C12.5234 3.89385 12.562 3.98839 12.5663 4.09153L12.5706 4.09583ZM12.012 3.91964C11.9776 3.89815 11.9174 3.88526 11.8315 3.87666C11.7455 3.86807 11.694 3.84229 11.6811 3.79501C11.694 3.67039 11.7627 3.61023 11.8874 3.61023C11.969 3.61023 12.012 3.6618 12.012 3.76493V3.91964ZM16.6531 9.69531C16.5156 9.69531 16.3867 9.67812 16.2707 9.64804C16.1546 9.61796 15.9613 9.54061 15.6948 9.41599C15.7292 9.35582 15.7722 9.30425 15.8238 9.26558C15.8753 9.2269 15.9355 9.19252 16.0042 9.15814C16.1289 9.14525 16.2363 9.17104 16.3222 9.23979C16.4125 9.30855 16.5199 9.45896 16.6531 9.69531ZM16.4555 11.7495C16.4211 11.771 16.3695 11.7581 16.3051 11.7151C16.2406 11.6721 16.1976 11.642 16.1761 11.6291C16.2234 11.5604 16.2836 11.5475 16.3523 11.5862C16.3953 11.6291 16.4297 11.6807 16.4555 11.7495Z" fill="currentColor"/>
</svg>
