<svg width="40" height="16" viewBox="0 0 40 16" fill="none" xmlns="http://www.w3.org/2000/svg">
<path fill-rule="evenodd" clip-rule="evenodd" d="M26.7343 3.4243C26.7102 3.56413 26.6282 3.67503 26.4932 3.76181C25.2734 4.17165 24.0535 4.57666 22.8385 4.97686C22.8288 4.8756 22.8819 4.78399 22.9928 4.70685C23.1037 4.62488 23.1663 4.58149 23.1712 4.57184C24.3573 4.19576 25.5482 3.81003 26.7343 3.4243ZM23.6774 6.83799C23.6774 7.09354 23.6003 7.32015 23.446 7.52266C23.3544 7.5323 23.2724 7.49856 23.1953 7.43105C23.1229 7.36355 23.0747 7.2864 23.0506 7.19961C23.0506 7.01639 23.0699 6.85246 23.1085 6.70781C23.1471 6.56316 23.2097 6.38959 23.2917 6.18226C23.3062 6.24976 23.2917 6.3703 23.2531 6.53423C23.2097 6.69817 23.1904 6.81389 23.1904 6.87657C23.1904 6.96336 23.2097 7.03086 23.2483 7.0839C23.2869 7.13693 23.3592 7.17551 23.4701 7.19961C23.4942 7.07425 23.5183 6.98746 23.5472 6.93925C23.5762 6.89103 23.6196 6.85728 23.6823 6.84282L23.6774 6.83799ZM19.0487 5.85439C18.986 5.95564 18.9233 6.05207 18.8655 6.14368C18.9282 6.01832 18.9715 5.9026 18.9908 5.78689C19.0149 5.67117 19.0246 5.53134 19.0246 5.37223C19.0246 5.11668 18.986 4.87078 18.904 4.62488C18.8221 4.3838 18.7064 4.15236 18.5521 3.93539C18.5762 3.87271 18.6003 3.81003 18.6196 3.75217C18.6485 3.70395 18.6871 3.68467 18.7353 3.68467C18.8799 3.90164 18.9957 4.12825 19.0776 4.37416C19.1596 4.61524 19.1982 4.86596 19.1982 5.12151C19.1982 5.39152 19.1499 5.63742 19.0487 5.86403V5.85439ZM26.6379 9.77917C26.6379 9.50916 26.5029 9.2729 26.2329 9.07522C25.9918 8.93539 25.7555 8.79556 25.5145 8.66056C25.1914 8.46769 24.8587 8.37126 24.5212 8.37126C24.0101 8.37126 23.4556 8.62681 22.8529 9.13308C22.3756 9.58149 21.8983 10.0299 21.4161 10.4735C21.4932 10.2131 21.5511 9.95275 21.5849 9.6972C21.6186 9.44166 21.6379 9.16683 21.6379 8.86307C21.6379 8.4677 21.6138 8.0675 21.5704 7.65767C21.5029 7.18033 21.4306 6.6837 21.3582 6.16297C21.2859 5.64706 21.2473 5.18419 21.2473 4.77435L21.3631 4.54291C21.3631 4.54291 21.445 4.64899 21.5366 4.78399C21.6041 4.88524 21.662 4.95275 21.7102 4.99132C21.6572 4.60559 21.5704 4.2488 21.4498 3.92093C21.3293 3.59306 21.1798 3.28447 20.9918 3C20.9436 3.08679 20.8664 3.21697 20.7507 3.39537C20.6639 3.55931 20.6254 3.69913 20.6254 3.82449C20.6254 3.91128 20.6398 3.98361 20.6736 4.04629L21.2618 8.90646C21.2715 8.99325 21.2859 9.11861 21.31 9.29219C21.3341 9.46577 21.3438 9.62488 21.3438 9.77435C21.3438 9.95757 21.3341 10.1215 21.31 10.2662C21.2859 10.4108 21.2425 10.5458 21.1847 10.676L20.6977 11.1967C20.6446 11.3269 20.5627 11.3992 20.4566 11.4185C20.3505 11.433 20.23 11.4426 20.0998 11.4426H19.8346C19.6948 11.4426 19.5935 11.4523 19.5357 11.4667C19.5116 11.4667 19.473 11.4667 19.42 11.4764H19.2223C18.5424 11.4764 17.9108 11.298 17.3177 10.946C16.7295 10.5892 16.2377 10.1119 15.8423 9.50916C15.4325 9.6731 15.0998 10.1456 14.8346 10.9315C14.6659 11.4233 14.5212 11.7608 14.4055 11.9392C14.3042 12.0694 14.1692 12.1369 14.0005 12.1369C13.9523 12.1369 13.8944 12.1273 13.8173 12.1128C13.3447 11.8959 13.0265 11.5053 12.8578 10.946C12.8336 10.8592 12.7517 10.3578 12.6022 9.43202L12.742 9.40791C12.9204 9.27773 13.0506 9.10897 13.1374 8.90646C13.2242 8.70395 13.2628 8.48216 13.2628 8.24108C13.2628 8.1784 13.2531 8.09643 13.2387 7.98554C13.2097 8.01447 13.1856 8.05304 13.176 8.09161C13.1663 8.13018 13.1567 8.1784 13.1471 8.24108C13.094 8.34234 13.0265 8.41948 12.9494 8.47734C12.8722 8.5352 12.7854 8.55449 12.6938 8.53038C12.4913 8.25072 12.3949 7.94696 12.3949 7.61427C12.3949 7.30569 12.4865 6.93925 12.6745 6.51495C12.8385 6.17744 13.0024 5.8351 13.1712 5.49759C13.094 5.54581 13.0169 5.63259 12.9397 5.7676C12.8626 5.9026 12.8047 5.98939 12.7661 6.02797C12.4961 6.55352 12.3274 6.9055 12.2551 7.09354C12.0863 7.52748 11.9995 7.91803 11.9995 8.27483C11.9995 8.49181 12.0333 8.69431 12.0959 8.88235C12.1634 9.07039 12.2695 9.2488 12.4142 9.40791C12.4142 9.97204 12.4383 10.459 12.4817 10.8737C12.5299 11.2883 12.6408 11.6692 12.8192 12.026C13.0362 12.3491 13.2097 12.5709 13.3399 12.6866C13.5617 12.8939 13.8028 13 14.0583 13C14.1355 13 14.1933 13 14.2319 12.9904C14.3766 12.8843 14.5067 12.7396 14.6128 12.5661C14.7189 12.3925 14.8346 12.1032 14.96 11.6933C15.0612 11.3558 15.148 11.1051 15.2252 10.9508C15.3505 10.6953 15.5145 10.4976 15.7218 10.3481C15.9436 10.7869 16.2377 11.1678 16.5993 11.4957C16.9947 11.8525 17.4238 12.0743 17.8963 12.1659C18.3688 12.2575 18.8848 12.3057 19.4489 12.3057C19.8973 12.3057 20.3361 12.2816 20.7748 12.2382C21.2088 12.19 21.6572 12.1321 22.1104 12.055C22.8144 11.9392 23.4894 11.7946 24.1451 11.6162C24.8009 11.4378 25.4662 11.2257 26.1461 10.9798C26.2522 10.7965 26.3679 10.6085 26.4836 10.4253C26.609 10.2035 26.662 9.99132 26.6475 9.78882L26.6379 9.77917ZM19.6128 7.69624C19.6225 7.73481 19.6128 7.78303 19.5839 7.84089C19.555 7.89875 19.5453 7.94696 19.5453 7.98554C19.4826 7.93732 19.42 7.8891 19.3476 7.84089C19.2801 7.79267 19.2126 7.77339 19.1499 7.78785C19.0728 8.26037 18.9957 8.72806 18.9185 9.20058C18.8028 9.1379 18.6919 8.9595 18.581 8.6702C18.4749 8.37609 18.3255 8.23144 18.1422 8.23144C18.094 8.23144 18.0313 8.24108 17.9445 8.26519C17.8915 8.23626 17.8626 8.18804 17.8626 8.12536C17.8626 8.08679 17.8722 8.02893 17.8963 7.95178C17.9204 7.87464 17.9301 7.8216 17.9301 7.78785C17.9542 7.73963 18.0072 7.67695 18.094 7.59016C18.2724 7.67695 18.4267 7.85053 18.5569 8.12054C18.7401 8.51591 18.8558 8.73288 18.8944 8.7811C18.904 8.72806 18.9185 8.5352 18.9474 8.20251C18.9764 7.86982 19.0487 7.62392 19.1741 7.45998C19.3573 7.45998 19.5067 7.53713 19.6128 7.69142V7.69624ZM16.6861 4.6297C16.7006 4.69238 16.7102 4.73578 16.7102 4.75506C16.7102 4.81774 16.6765 4.89971 16.6041 4.99614C16.5366 5.0974 16.4981 5.16008 16.4884 5.19383C16.4257 5.19383 16.31 5.15043 16.1413 5.06847C16.0497 5.02025 15.9725 5.00097 15.9098 5.00097C15.6254 5.32401 15.2975 5.61813 14.9262 5.8785C14.4633 6.20154 13.8317 6.53423 13.0265 6.87175C13.9426 6.23047 14.8635 5.5892 15.7796 4.95275C15.77 4.94311 15.7218 4.92382 15.6254 4.88525C15.5289 4.84668 15.4711 4.79364 15.447 4.72131C15.4711 4.55738 15.5241 4.40309 15.6109 4.25844C15.6591 4.18129 15.7555 4.04147 15.9098 3.84378C16.0882 3.88235 16.2473 3.97396 16.3823 4.12343C16.5222 4.26808 16.6234 4.44166 16.6813 4.63452L16.6861 4.6297ZM14.338 9.40791C14.3091 9.54773 14.2801 9.68274 14.256 9.81292C14.2271 9.89971 14.1789 9.96239 14.1162 10.0106C14.0294 10.0106 13.9619 9.98168 13.904 9.92382C13.8462 9.86596 13.8028 9.79364 13.769 9.71167C13.7594 9.66345 13.7594 9.59113 13.7594 9.48987C13.7594 9.28737 13.7835 9.0945 13.8365 8.91128C13.8848 8.72806 13.9571 8.5352 14.0487 8.33269C13.9957 8.62681 13.9426 8.9161 13.8992 9.20058C13.8992 9.40791 13.9619 9.57184 14.0824 9.68756C14.1451 9.70203 14.1837 9.68274 14.203 9.62488C14.2223 9.56702 14.2416 9.4947 14.2657 9.41273H14.3332L14.338 9.40791ZM26.0593 10.2999C25.2396 10.5796 24.4441 10.7965 23.6678 10.9605C22.8915 11.1244 22.0188 11.2546 21.0448 11.3558C21.392 11.0087 21.7391 10.6567 22.0863 10.3047C22.8095 9.58631 23.4653 9.22951 24.0535 9.22951C24.1451 9.22951 24.2464 9.23915 24.3525 9.25362C24.4585 9.26808 24.5646 9.29701 24.6707 9.34041C24.7768 9.3838 24.9696 9.46095 25.2541 9.57666C25.6543 9.75988 25.9195 10.0058 26.0545 10.3047L26.0593 10.2999ZM16.4884 4.8515C16.4884 4.8515 16.4065 4.81292 16.2907 4.77435C16.175 4.73578 16.1172 4.6972 16.1172 4.65381C16.1172 4.61524 16.1316 4.57666 16.1654 4.53809L16.1895 4.43202C16.2666 4.46095 16.3293 4.52363 16.3727 4.61524C16.3968 4.66345 16.4354 4.7406 16.4884 4.84667V4.8515ZM15.958 4.6297C15.958 4.6297 15.8809 4.60077 15.7652 4.56702C15.6543 4.53327 15.6157 4.48023 15.6543 4.41273C15.6929 4.37416 15.7363 4.35487 15.7796 4.35487C15.8809 4.35487 15.9388 4.39826 15.9532 4.48023V4.6297H15.958Z" fill="currentColor"/>
</svg>
