<svg width="40" height="16" viewBox="0 0 40 16" fill="none" xmlns="http://www.w3.org/2000/svg">
<path fill-rule="evenodd" clip-rule="evenodd" d="M30.7765 5.1654C30.7213 5.14034 30.6662 5.10025 30.6211 5.04511C30.5309 4.94987 30.4507 4.85464 30.3705 4.75439L30.2752 4.98496C30.2752 5.34586 30.3003 5.73684 30.3454 6.16291C30.4256 6.83459 30.5108 7.50626 30.596 8.17293V8.96491C30.596 9.46116 30.576 9.88721 30.5359 10.2381C30.4958 10.589 30.4055 10.9399 30.2702 11.2857C30.2953 11.1554 30.3103 10.985 30.3203 10.7744C30.3304 10.5639 30.3304 10.4436 30.3304 10.4185C30.3304 10.193 30.3304 9.96742 30.3203 9.74687C30.3103 9.52131 30.3053 9.29574 30.2953 9.07519L29.779 4.04762C29.7138 3.96742 29.6837 3.89723 29.6837 3.83207C29.6837 3.74184 29.7439 3.60652 29.8642 3.42105C29.9344 3.31579 29.9795 3.23558 29.9945 3.18044C30.1399 3.50125 30.2852 3.81703 30.4406 4.13282C30.6111 4.51879 30.7213 4.86465 30.7765 5.1654ZM27.2527 3C26.9218 3.25063 26.4807 3.49624 25.9193 3.74686C25.0872 4.11779 24.606 4.33332 24.4857 4.39849C24.5409 4.29322 24.591 4.21804 24.6311 4.16791C24.7013 4.07769 24.7815 4.01755 24.8617 3.98747C25.6537 3.65664 26.4557 3.33083 27.2577 3H27.2527ZM26.18 5.4411C26.0847 5.5213 25.9995 5.54135 25.9294 5.50125L25.8341 5.40601C25.7639 5.54135 25.6637 5.63658 25.5434 5.68169C25.4131 5.65162 25.3429 5.59148 25.3329 5.50125C25.3228 5.41103 25.3128 5.32079 25.3128 5.22555C25.3128 5.01001 25.3579 4.82957 25.4431 4.6842C25.4682 4.72431 25.4782 4.77443 25.4782 4.82957C25.4782 4.86967 25.4682 4.93484 25.4532 5.02005C25.4381 5.11028 25.4281 5.17042 25.4281 5.2005C25.4281 5.33082 25.4983 5.38095 25.6436 5.35588C25.7238 5.29072 25.7639 5.18045 25.7639 5.02005C25.7639 4.94988 25.7639 4.86967 25.7689 4.78446C25.7689 4.69925 25.799 4.63909 25.8491 4.59898C25.8742 4.64911 25.8842 4.70426 25.8842 4.76942C25.8742 4.88973 25.8742 4.97494 25.8742 5.02005C25.8742 5.16542 25.9444 5.23057 26.0797 5.21052C26.1048 5.17041 26.1048 5.10025 26.0797 5.00501C26.0547 4.90978 26.0446 4.8396 26.0446 4.7995C26.0446 4.72932 26.0647 4.66917 26.1048 4.62907C26.185 4.7594 26.2251 4.91979 26.2251 5.12029C26.2251 5.25563 26.2101 5.36089 26.175 5.43107L26.18 5.4411ZM27.0471 6.25815L26.977 6.49874C26.8968 6.45864 26.8366 6.43859 26.7965 6.43859C26.7263 6.43859 26.6812 6.50375 26.6712 6.63909C26.6612 6.76942 26.6512 6.89975 26.6461 7.02005C26.6461 7.14035 26.6161 7.25564 26.5659 7.37093C26.4857 7.34086 26.4206 7.2807 26.3755 7.19047C26.3053 7.0401 26.2301 6.88471 26.1599 6.73433C26.0396 6.76441 25.9644 6.76441 25.9294 6.73433C25.8792 6.6842 25.8592 6.62406 25.8592 6.55389C25.8592 6.51379 25.8692 6.46366 25.8893 6.3985C25.9093 6.33334 25.9243 6.28822 25.9294 6.26817C25.9945 6.20301 26.0446 6.19298 26.0847 6.23308C26.1148 6.27318 26.175 6.37343 26.2602 6.53383C26.3454 6.69423 26.4306 6.85463 26.5208 7.01503C26.5459 6.82455 26.576 6.65413 26.6161 6.51378C26.6562 6.37343 26.7263 6.25314 26.8216 6.14787C26.8717 6.13785 26.9469 6.17794 27.0522 6.26817L27.0471 6.25815ZM21.7188 5.12531L21.6938 5.15037C21.799 4.91979 21.8491 4.66917 21.8491 4.4035C21.8491 4.05764 21.7589 3.78195 21.5735 3.57142L21.7188 3.30576C21.9093 3.50626 22.0095 3.7619 22.0095 4.07769C22.0095 4.24812 21.9845 4.41854 21.9293 4.58897C21.8792 4.75939 21.809 4.93985 21.7188 5.12531ZM28.7564 9.67168C28.7564 8.89474 28.6361 7.8421 28.3955 6.51879C28.2201 5.56641 28.1098 4.94485 28.0697 4.66415L28.1549 4.47367L28.5409 4.92981C28.5409 4.64911 28.4607 4.34837 28.3003 4.02756C28.17 3.77192 27.9895 3.50124 27.7589 3.22054C27.6787 3.35588 27.5985 3.49122 27.5183 3.61653C27.4782 3.69673 27.4582 3.77694 27.4582 3.85714C27.4582 3.9223 27.4832 3.98747 27.5283 4.06266C27.6737 4.7995 27.789 5.43608 27.8792 5.97743C27.9344 6.30826 28.0296 6.94988 28.17 7.90226C28.2351 8.32833 28.3253 8.96993 28.4456 9.82707C28.175 9.93735 27.9344 10.0226 27.7339 10.0777C27.6637 10.0927 27.2577 10.1729 26.5208 10.3183C26.7314 10.183 26.9068 9.97744 27.0522 9.70676C27.1474 9.53132 27.2476 9.28571 27.3529 8.97493C27.3529 8.78446 27.2476 8.60902 27.0421 8.45864C26.9469 8.39348 26.7664 8.30325 26.5058 8.18796C26.2451 8.07267 25.9745 8.01254 25.6938 8.01254C25.2827 8.01254 24.8617 8.14286 24.4306 8.3985C24.1248 8.58396 23.774 8.86466 23.373 9.2406C23.4381 9.01002 23.4832 8.77945 23.5033 8.5589C23.5283 8.33835 23.5384 8.10777 23.5384 7.86717C23.5384 7.5614 23.5183 7.23058 23.4782 6.86968C23.3579 6.08271 23.2376 5.29574 23.1173 4.49874L23.2126 4.34336C23.3178 4.51378 23.4381 4.65413 23.5735 4.77443C23.5735 4.55889 23.5233 4.32331 23.4181 4.06266C23.2426 3.71178 23.0672 3.35588 22.9018 3.005C22.8116 3.14034 22.7314 3.27568 22.6512 3.41603C22.601 3.50626 22.581 3.58647 22.581 3.65664C22.581 3.72682 22.601 3.78696 22.6411 3.83708C22.6411 4.32831 22.7765 5.47619 23.0522 7.29073C23.1725 8.09274 23.2326 8.79448 23.2326 9.39599C23.1674 9.44611 22.982 9.66666 22.6662 10.0677C22.4406 10.3584 22.2301 10.4987 22.0296 10.4987C21.9995 10.4987 21.9394 10.4887 21.8592 10.4737C21.6587 10.3634 21.5083 10.203 21.4131 10.0025C21.3629 9.90728 21.2777 9.57645 21.1474 9.01504L20.7765 4.53884C20.7765 4.2832 20.7564 4.04259 20.7163 3.81703C20.6762 3.59147 20.6161 3.33082 20.5359 3.03508C20.4456 3.14535 20.3955 3.22556 20.3805 3.26566C20.3654 3.30576 20.3153 3.49122 20.2351 3.81703C20.3554 4.41853 20.4657 5.20551 20.5609 6.17293C20.6311 6.97493 20.7113 7.77193 20.7915 8.56892C20.9018 9.46616 21.0522 10.2381 21.2376 10.8797C21.2877 11 21.3629 11.0952 21.4732 11.1604C21.5835 11.2306 21.7539 11.3108 21.9845 11.406C22.3053 11.406 22.7765 11.3459 23.403 11.2256C24.0296 11.1053 24.4958 11.0451 24.8116 11.0451C24.9168 11.0451 25.0221 11.0451 25.1223 11.0551C25.2276 11.0652 25.3379 11.0752 25.4582 11.0952C25.5785 11.1153 25.7088 11.1253 25.8542 11.1253C26.6562 10.9649 27.4632 10.8045 28.2702 10.6441C28.4156 10.5539 28.5208 10.4085 28.596 10.198C28.6361 10.0877 28.6913 9.90727 28.7664 9.65665L28.7564 9.67168ZM22.4306 7.74687C22.4005 7.86717 22.3704 7.98746 22.3454 8.10776C22.2953 8.2431 22.2151 8.29825 22.1048 8.2782C21.9995 8.16792 21.9494 8.02757 21.9494 7.86717C21.9494 7.73183 21.9895 7.57644 22.0647 7.41103C22.1399 7.2406 22.2151 7.0802 22.2852 6.92983C22.2852 7.01003 22.2451 7.14035 22.1699 7.3208C22.0948 7.50126 22.0547 7.62656 22.0547 7.70175C22.0547 7.76691 22.0647 7.82205 22.0847 7.86215C22.1048 7.90726 22.1499 7.9574 22.2251 8.01254C22.2752 8.00251 22.3053 7.9574 22.3203 7.87219C22.3354 7.78697 22.3705 7.74687 22.4306 7.74687ZM19.4582 3.6817C19.4732 3.71177 19.4782 3.75689 19.4632 3.80701C19.4532 3.85714 19.4431 3.90726 19.4331 3.95738C19.393 3.94736 19.3329 3.92732 19.2577 3.89223C19.1825 3.85714 19.1223 3.83708 19.0822 3.83708C19.0171 3.95739 18.972 4.1629 18.9519 4.44861C18.9319 4.73433 18.8867 4.94986 18.8316 5.0852C18.7664 5.03508 18.6862 4.8797 18.586 4.61404C18.4857 4.34837 18.3404 4.21804 18.1449 4.21804C18.0897 4.17794 18.0597 4.12281 18.0597 4.04762C18.0597 3.99248 18.0697 3.93734 18.0948 3.87719C18.1198 3.82206 18.1449 3.7669 18.1649 3.70675C18.3253 3.77192 18.4557 3.90726 18.5609 4.11779C18.6662 4.36841 18.7464 4.54887 18.8015 4.65915C18.8517 4.39348 18.8867 4.16792 18.9168 3.98747C18.9469 3.80201 19.0171 3.65163 19.1273 3.53133C19.1825 3.5213 19.2426 3.54134 19.3078 3.58144C19.373 3.62154 19.4181 3.65162 19.4532 3.67668L19.4582 3.6817ZM18.4005 6.47368C18.4506 6.69925 18.3805 6.88471 18.195 7.02507C18.1399 7.02507 18.0998 7.01003 18.0747 6.97494C18.0346 6.86967 18.0045 6.7995 17.9895 6.7594C17.9895 6.58898 18.0045 6.42356 18.0396 6.25815C18.0697 6.09273 18.1248 5.93734 18.195 5.78195C18.195 5.84711 18.18 5.95238 18.1449 6.09273C18.1148 6.23809 18.0948 6.34335 18.0948 6.41854C18.0948 6.5639 18.1449 6.66918 18.2401 6.74436L18.3955 6.46867L18.4005 6.47368ZM16.4256 4.39348C16.3554 4.54386 16.2953 4.66415 16.2451 4.74435C16.1649 4.87468 16.0797 4.97493 15.9945 5.04511L15.3579 4.73433C15.3078 4.78446 15.2476 4.86466 15.1775 4.98496C15.0572 5.19549 14.9318 5.2807 14.8065 5.25062C14.6963 5.2005 14.6211 5.17042 14.591 5.15538C14.4707 5.10025 14.3704 5.04009 14.2902 4.97493C14.3554 4.83959 14.4206 4.70426 14.4807 4.56391C14.576 4.40351 14.6862 4.3233 14.8065 4.3233L15.408 4.59898L15.8993 4.06766L16.4306 4.39348H16.4256ZM13.3328 3.61153C13.3228 3.69173 13.3128 3.75689 13.2978 3.81203C13.2827 3.86215 13.2426 3.87217 13.1775 3.83207C13.1123 3.78194 13.0622 3.76189 13.0221 3.77192C12.9318 3.8822 12.8817 4.08772 12.8717 4.37845C12.8617 4.66917 12.8266 4.87468 12.7714 4.98496C12.7013 4.93483 12.601 4.77444 12.4807 4.50376C12.3905 4.29323 12.2501 4.19799 12.0597 4.21303C11.9945 4.15789 11.9644 4.08771 11.9644 4.00751C11.9644 3.95738 11.9845 3.88721 12.0246 3.79197C12.0647 3.69674 12.0847 3.6416 12.0847 3.63659C12.2451 3.70676 12.3755 3.85212 12.4807 4.06766C12.6261 4.37342 12.7113 4.53884 12.7464 4.57393C12.7714 4.38345 12.7965 4.18294 12.8316 3.97242C12.8617 3.76189 12.9369 3.60652 13.0471 3.50125C13.1825 3.48622 13.2777 3.5213 13.3379 3.61153H13.3328ZM20.4557 11.4662C20.3253 11.6115 20.1649 11.7469 19.9644 11.8772C19.8191 11.9674 19.6286 12.0677 19.388 12.188C19.1775 12.2782 18.9669 12.3684 18.7514 12.4637C18.5359 12.5589 18.3504 12.6541 18.2 12.7544L18.3303 12.4436C18.6511 12.3083 18.997 12.1529 19.373 11.9825C19.7439 11.812 20.1098 11.6416 20.4607 11.4712L20.4557 11.4662ZM19.9243 8.45864C19.9093 8.28321 19.8341 8.10276 19.6938 7.9173C19.5885 7.77193 19.4431 7.62156 19.2476 7.46115C19.1825 7.53133 19.1173 7.64661 19.0572 7.79699C18.9669 8.00751 18.9218 8.12281 18.9118 8.14787L19.5133 10.1078C19.1223 10.4185 18.6963 10.7193 18.2401 11C17.8241 11.2556 17.383 11.5012 16.9218 11.7418C16.4607 11.9774 15.9945 12.203 15.5183 12.4085C15.2125 12.5439 14.7614 12.7393 14.1599 13C14.4105 12.9048 14.7564 12.8246 15.2075 12.7594C16.0797 12.6391 16.6562 12.5088 16.9268 12.3734C17.2777 12.198 17.6386 12.0175 17.9995 11.8321C18.2301 11.7118 18.4406 11.5915 18.6261 11.4712C18.9218 11.2857 19.1725 11.0902 19.373 10.8797C19.6035 10.6391 19.779 10.3684 19.8892 10.0727C19.9293 9.98246 19.9494 9.8772 19.9494 9.74687C19.9494 9.61153 19.8993 9.40602 19.799 9.14036C19.6988 8.86968 19.6486 8.67419 19.6486 8.54386C19.6486 8.51379 19.6587 8.45364 19.6737 8.37344C19.779 8.4787 19.8642 8.50376 19.9243 8.45864ZM13.2577 5.4411C13.2727 5.61654 13.1374 5.7218 12.8466 5.74686C12.5559 5.77694 12.3855 5.85715 12.3303 5.99248C12.3604 6.18296 12.4005 6.38346 12.4506 6.58396C12.611 7.2406 12.6963 7.58647 12.7013 7.61654C12.7514 7.85714 12.7714 8.09272 12.7714 8.32831C12.7714 8.66415 12.7113 8.96992 12.591 9.2406C12.6211 9.1604 12.6461 9.07018 12.6612 8.96491C12.6762 8.85965 12.6862 8.7594 12.6862 8.66416C12.6862 8.51378 12.6712 8.36841 12.6461 8.23307C12.6161 8.09773 12.5409 7.82707 12.4105 7.42606C12.3153 7.1203 12.2501 6.88972 12.2201 6.73433C12.19 6.57894 12.1699 6.4386 12.1699 6.3183C12.1699 6.09273 12.2151 5.89222 12.3003 5.71679C12.3654 5.65162 12.4506 5.6015 12.5609 5.5614C12.6712 5.5213 12.7765 5.4812 12.8817 5.4411C12.8166 5.37093 12.7364 5.33083 12.6411 5.33083C12.601 5.33083 12.5509 5.34587 12.4857 5.38095L12.3905 5.46616C12.3905 5.33583 12.4105 5.2406 12.4557 5.17544C12.5008 5.11028 12.5559 5.06516 12.6311 5.04511C12.7514 5.04511 12.8667 5.0852 12.9719 5.1654C13.0822 5.2456 13.1724 5.33584 13.2526 5.4411H13.2577ZM13.8592 8.65414C13.8592 8.74938 13.8592 8.83459 13.8542 8.90477C13.8542 8.97494 13.8141 9.03509 13.7539 9.07519C13.6186 9.07519 13.5333 8.99499 13.5033 8.83458C13.4782 8.76441 13.4682 8.68922 13.4682 8.61905C13.4682 8.51379 13.4932 8.3985 13.5384 8.26316C13.5885 8.13284 13.6236 8.03257 13.6486 7.96741C13.6336 8.05764 13.6186 8.14787 13.5985 8.23809C13.5835 8.32832 13.5735 8.38346 13.5735 8.3985C13.5735 8.49373 13.5835 8.56892 13.6035 8.61905C13.6236 8.66917 13.6637 8.72933 13.7288 8.79449C13.7589 8.77945 13.789 8.76441 13.8141 8.75438C13.8391 8.74436 13.8491 8.71929 13.8491 8.68922L13.8592 8.65414ZM16.977 7.4411C16.8015 7.17042 16.606 6.94988 16.4005 6.78948C16.1499 6.599 15.8943 6.49874 15.6286 6.49874C15.2827 6.60902 15.0271 6.82958 14.8516 7.15038C14.6812 7.47118 14.591 7.83207 14.591 8.23307C14.6862 8.43358 14.8266 8.56892 15.007 8.6441C15.1875 8.71929 15.403 8.75438 15.6486 8.75438C15.784 8.74436 15.9243 8.73935 16.0647 8.72932C16.205 8.7193 16.3404 8.71929 16.4657 8.71929C16.5709 8.71929 16.6612 8.72932 16.7364 8.74436C16.8115 8.7594 16.8617 8.82456 16.8867 8.93484C16.8968 9.0401 16.9068 9.14536 16.9218 9.24562C16.3103 9.74186 15.789 10.1378 15.3479 10.4386C14.7564 10.8296 14.19 11.1303 13.6537 11.3308C13.3579 11.4361 13.0922 11.5113 12.8617 11.5614C12.6311 11.6115 12.3805 11.6316 12.1148 11.6316C11.804 11.6316 11.5233 11.5865 11.2777 11.4912C11.0321 11.401 10.8166 11.2406 10.6361 11.015C10.4206 10.7494 10.3103 10.4386 10.3103 10.0777C10.3103 9.80702 10.3654 9.50627 10.4807 9.18547C10.5709 8.94487 10.6912 8.67418 10.8416 8.37844C10.8817 8.39348 10.9268 8.40852 10.982 8.41855C11.0321 8.42858 11.0822 8.42356 11.1223 8.3985C11.2927 8.27819 11.413 8.13283 11.4882 7.95739C11.5634 7.78696 11.6035 7.5965 11.6035 7.38597C11.6035 7.30577 11.6035 7.24561 11.5935 7.20551C11.5534 7.20551 11.5033 7.27569 11.4431 7.41103C11.383 7.54636 11.2877 7.60651 11.1624 7.59147C10.9519 7.38094 10.8516 7.14036 10.8516 6.86968C11.0271 6.29825 11.2075 5.73183 11.393 5.1604C11.1273 5.53634 10.9268 5.87218 10.7915 6.17293C10.601 6.58897 10.5008 6.97493 10.5008 7.32581C10.5008 7.50124 10.5208 7.66666 10.5609 7.82706C10.601 7.98245 10.6712 8.13284 10.7664 8.2782C10.4857 8.86467 10.3153 9.23558 10.2501 9.39599C10.0797 9.82706 9.99951 10.2231 9.99951 10.5739C9.99951 10.9499 10.0947 11.3008 10.2902 11.6216C10.6261 12.1429 11.0622 12.4035 11.6035 12.4035C12.1449 12.4035 12.6261 12.3383 13.1123 12.203C13.5985 12.0727 14.0496 11.8872 14.4707 11.6516C14.8917 11.416 15.3228 11.1253 15.7639 10.7795C16.1248 10.5088 16.5158 10.1779 16.9419 9.79198C17.1674 9.38095 17.2777 8.94988 17.2777 8.49374C17.2777 8.30827 17.2527 8.12281 17.2075 7.93233C17.1574 7.74186 17.0872 7.57644 16.992 7.43108L16.977 7.4411ZM26.8166 9.48621C26.19 9.80701 25.5434 10.0576 24.8817 10.2331C24.4707 10.3383 24.0948 10.4236 23.7439 10.4837C23.393 10.5489 23.0622 10.579 22.7414 10.579C23.1173 10.203 23.4933 9.82206 23.8742 9.43609C24.3404 9.01003 24.7965 8.79949 25.2476 8.79949C25.3379 8.79949 25.4181 8.7995 25.4882 8.80953C25.5584 8.81955 25.6336 8.83458 25.7038 8.85964C25.9594 8.91478 26.18 8.98997 26.3654 9.08019C26.5509 9.17042 26.7013 9.30577 26.8216 9.48121L26.8166 9.48621ZM16.3404 7.86215C16.1649 7.90225 15.9895 7.9223 15.809 7.9223C15.6286 7.9223 15.4933 7.90225 15.3629 7.85713C15.2326 7.81202 15.1323 7.73685 15.0521 7.62156C15.0822 7.52632 15.1173 7.45614 15.1524 7.41103C15.1875 7.36591 15.2326 7.34085 15.2777 7.33082C15.3028 7.33082 15.3429 7.33083 15.398 7.3208C15.5735 7.3208 15.7489 7.37594 15.9143 7.49123C16.0346 7.57143 16.175 7.69674 16.3354 7.86215H16.3404Z" fill="currentColor"/>
</svg>
