<svg width="40" height="16" viewBox="0 0 40 16" fill="none" xmlns="http://www.w3.org/2000/svg">
<path fill-rule="evenodd" clip-rule="evenodd" d="M28.9471 5.398C28.8929 5.37302 28.8471 5.32306 28.8055 5.24813C28.6931 5.0358 28.6223 4.91924 28.5973 4.89842L28.5182 5.13988C28.5182 5.46461 28.5474 5.85595 28.6098 6.30974C28.7514 7.3672 28.818 8.04163 28.818 8.32889C28.818 9.06162 28.8013 9.58618 28.768 9.90674C28.7098 10.4729 28.5807 10.9642 28.3892 11.3847C28.4683 10.806 28.5099 10.2231 28.5099 9.63614C28.5099 8.90341 28.4516 8.0458 28.3309 7.06328C28.2102 6.08077 28.0936 5.14405 27.9812 4.24896C28.0228 4.03664 28.0686 3.8826 28.1227 3.79101C28.1769 3.69942 28.2435 3.62448 28.3226 3.57036C28.3309 3.61199 28.4808 3.98668 28.7805 4.69859C28.8929 4.97336 28.9512 5.2065 28.9512 5.398H28.9471ZM25.1585 3C25.1502 3.09992 25.1003 3.17486 25.0003 3.22898C24.967 3.24979 24.8754 3.28726 24.7214 3.33722C23.7222 3.66195 23.0894 3.87844 22.8188 3.97835C22.5482 4.07827 22.1694 4.23647 21.6739 4.45712C21.7489 4.22398 21.9487 4.05745 22.2818 3.95754C22.7689 3.8035 23.0395 3.71191 23.1019 3.6786C23.7889 3.45379 24.4758 3.22481 25.1585 3ZM24.1302 4.77769C24.0511 4.59034 23.9054 4.46545 23.7014 4.39883C23.6015 4.35304 23.5099 4.39883 23.4225 4.52789C23.3767 4.5945 23.3059 4.70275 23.2143 4.84846C23.2018 4.9567 23.2809 5.05662 23.46 5.14821C23.6348 5.2398 23.7431 5.3189 23.7764 5.37718C23.843 5.32306 23.9054 5.22315 23.9679 5.07743C24.0262 4.93172 24.0844 4.83181 24.1386 4.77769H24.1302ZM21.5824 7.005C21.5824 7.10491 21.5657 7.20067 21.5324 7.29642C21.4991 7.38801 21.4408 7.45462 21.3534 7.48793C21.266 7.48793 21.1952 7.43797 21.1452 7.33805C21.1244 7.15071 21.191 6.92173 21.3451 6.64696C21.4366 6.47211 21.4991 6.34305 21.5241 6.25562C21.5241 6.3139 21.4824 6.43048 21.4033 6.60533C21.3242 6.78018 21.2826 6.90092 21.2826 6.97585C21.2826 7.07577 21.3409 7.15071 21.4533 7.1965L21.5824 7.005ZM20.5041 5.09825C20.3292 5.41049 20.1128 5.67277 19.8546 5.87677C19.5549 6.11824 19.251 6.23481 18.9471 6.23481C19.0386 6.15987 19.1968 6.06411 19.4217 5.93922C19.6465 5.81432 19.8088 5.71441 19.9171 5.6353C19.8088 5.62281 19.6964 5.60616 19.5757 5.58534C19.455 5.56453 19.3509 5.5562 19.2551 5.5562C19.0012 5.5562 18.7972 5.61865 18.6473 5.74771C18.7389 5.53539 18.868 5.35637 19.0262 5.21898C19.2177 5.05246 19.4217 4.96919 19.634 4.96919C19.7797 4.98168 19.9379 4.99417 20.1086 5.0025C20.2793 5.01083 20.4083 5.04413 20.5041 5.09825ZM17.6773 4.60699C17.6773 4.60699 17.6981 4.65695 17.6981 4.69859C17.6981 4.73189 17.6898 4.77769 17.669 4.83181C17.6481 4.89009 17.6315 4.93172 17.619 4.96503C17.5649 5.02331 17.5108 5.05662 17.4608 5.05662C17.4275 5.05662 17.3942 5.04829 17.3609 5.02748C17.261 4.92756 17.211 4.80683 17.211 4.66944C17.211 4.5612 17.236 4.44047 17.2901 4.29892C17.3692 4.13239 17.4233 4.01166 17.4483 3.94088C17.44 3.995 17.4275 4.05745 17.4067 4.13239C17.3609 4.30724 17.3359 4.42798 17.3359 4.50291C17.3359 4.64446 17.3859 4.74438 17.4858 4.80266C17.5732 4.77769 17.6232 4.74438 17.6356 4.70275C17.6481 4.66112 17.6606 4.63197 17.6773 4.61116V4.60699ZM23.4725 11.8926C23.4391 11.9925 23.3892 12.0966 23.3267 12.209C23.2643 12.3172 23.1894 12.4338 23.1019 12.5545C23.0811 12.5337 22.9729 12.4629 22.773 12.3464C22.6315 12.259 22.5482 12.1757 22.5232 12.0966C22.5899 11.9883 22.6565 11.8884 22.7231 11.7885C22.823 11.6636 22.9312 11.597 23.052 11.597C23.1394 11.6511 23.2268 11.7052 23.3101 11.7552C23.385 11.8218 23.435 11.8676 23.4683 11.8968L23.4725 11.8926ZM26.4991 5.13988C26.4658 4.96503 26.4242 4.7985 26.3784 4.63614C26.3326 4.47377 26.2784 4.33639 26.2202 4.23231L26.191 4.25312C26.1494 4.12823 26.0994 3.98668 26.0328 3.83264C25.9662 3.6786 25.8996 3.52873 25.833 3.38301C25.7872 3.42465 25.7414 3.48293 25.7039 3.56203C25.6623 3.64113 25.6082 3.76187 25.5332 3.92007C25.5332 4.24063 25.6373 5.00666 25.8413 6.21815C25.9329 6.76353 25.9829 7.22981 25.9829 7.61699C25.8705 7.7169 25.7331 7.78768 25.579 7.83347C25.4208 7.8751 25.2543 7.90008 25.0753 7.90008C24.8421 7.90008 24.6007 7.86678 24.355 7.80017C24.43 7.62531 24.4841 7.46295 24.5257 7.30891C24.5674 7.15487 24.584 7.00083 24.584 6.85096C24.584 6.70941 24.5674 6.58451 24.5299 6.47211C24.4924 6.3597 24.4341 6.25562 24.355 6.16403C24.2635 6.10574 24.1968 6.06828 24.1552 6.05579C24.1136 6.0433 24.0636 6.0433 23.997 6.05579C23.6848 6.24313 23.4433 6.51374 23.2768 6.87594C23.156 7.12989 23.0686 7.46711 23.0062 7.89592C22.2193 8.13739 21.4325 8.37052 20.6498 8.60366C20.5707 8.71191 20.4916 8.82015 20.4083 8.92839C20.3292 9.03663 20.2876 9.14072 20.2876 9.23231C20.5665 9.23231 20.8371 9.25728 21.0953 9.30308C21.1744 9.31557 21.6032 9.41965 22.3859 9.61116C22.1069 9.6861 21.6615 9.81099 21.0578 9.99001C20.5457 10.1316 20.0794 10.2315 19.659 10.2898C19.4799 10.3147 19.3176 10.3356 19.1677 10.3439C19.022 10.3522 18.8846 10.3605 18.7597 10.3605C18.4142 10.3605 18.0894 10.3272 17.7855 10.2565C17.4816 10.1857 17.1902 10.0733 16.9113 9.91091C16.4866 9.65695 16.2368 9.28643 16.1702 8.8035C16.0703 8.87843 15.9995 8.9617 15.9537 9.05745C15.9121 9.15321 15.8871 9.25728 15.8871 9.36136C15.9662 9.74021 16.0495 10.1191 16.1369 10.4896C15.4708 11.01 14.6381 11.4888 13.639 11.9301C12.7605 12.2839 11.8821 12.6378 10.9995 13C11.2535 12.9584 11.6615 12.9001 12.2277 12.821C13.0728 12.7002 13.7222 12.5337 14.176 12.3214C14.6007 12.0883 15.0336 11.8551 15.4666 11.622C15.9579 11.3306 16.2743 10.9725 16.4158 10.552C16.4741 10.5187 16.5491 10.5271 16.6365 10.5812C16.6823 10.6062 16.753 10.652 16.8446 10.7102C17.1777 10.856 17.5024 10.9517 17.823 10.9892C18.1436 11.0308 18.5182 11.0475 18.9512 11.0475C19.1968 11.0475 19.4341 11.0266 19.6673 10.9808C19.8963 10.9392 20.3459 10.8226 21.012 10.6353C21.599 10.4771 21.9404 10.3813 22.0403 10.3564C22.44 10.2565 22.798 10.1815 23.1144 10.1316C23.4308 10.0816 23.7389 10.0566 24.0386 10.0566C24.2135 10.0566 24.4133 10.0691 24.6465 10.0983C24.8796 10.1232 25.0878 10.1607 25.2668 10.2065L25.6581 9.5154C25.3667 9.5154 25.0586 9.48626 24.7339 9.42381C24.4092 9.36553 24.0844 9.29059 23.7514 9.20316C23.1436 9.04496 22.5399 8.8826 21.9321 8.7244C22.1527 8.64946 22.3859 8.57452 22.6356 8.49126C22.8854 8.40799 23.1061 8.36636 23.3018 8.36636C23.4225 8.36636 23.5432 8.38718 23.6598 8.42464C23.8721 8.49958 24.0719 8.5537 24.2551 8.59117C24.4383 8.62864 24.634 8.6453 24.838 8.6453C25.0711 8.6453 25.2918 8.61199 25.5041 8.54122C25.7122 8.47044 25.8871 8.3622 26.0287 8.21649C26.1078 8.03747 26.1619 7.86261 26.1952 7.69609C26.2285 7.52956 26.241 7.33389 26.241 7.10491C26.241 6.89259 26.2202 6.61366 26.1827 6.27644C26.0953 5.53539 26.0536 5.08576 26.0536 4.92756L26.1327 4.75687C26.166 4.79018 26.2243 4.86511 26.3118 4.97752C26.3784 5.06495 26.4408 5.11907 26.5033 5.13572L26.4991 5.13988ZM18.9637 7.33805L18.8929 7.56703C18.8596 7.57535 18.818 7.56703 18.7639 7.55037C18.7098 7.53372 18.6764 7.5254 18.664 7.5254C18.6223 7.5254 18.589 7.54621 18.5557 7.58368C18.4683 7.90841 18.385 8.23314 18.3059 8.55371C18.1644 8.26645 18.027 7.97918 17.8854 7.69609L17.8355 7.82515C17.7605 7.81266 17.7023 7.796 17.6606 7.77519C17.619 7.75437 17.5857 7.7169 17.5649 7.66694C17.5774 7.5587 17.5982 7.47544 17.6232 7.40883C17.6481 7.34222 17.6981 7.28393 17.7647 7.23813C17.9063 7.30475 18.0145 7.4338 18.0936 7.62115C18.1727 7.81265 18.2518 7.99167 18.3226 8.16653C18.3767 7.93339 18.4183 7.75854 18.4516 7.64613C18.5099 7.43797 18.6098 7.30475 18.7514 7.23813L18.9595 7.33805H18.9637ZM21.803 12.1632C21.6781 12.3214 21.5074 12.4505 21.2993 12.5462C21.0911 12.642 20.8663 12.6919 20.6248 12.6919C20.5041 12.6919 20.3958 12.6794 20.2959 12.6503C20.221 12.6087 20.171 12.5795 20.1377 12.5587C20.0711 12.5171 20.0336 12.4713 20.0295 12.4172C20.042 12.2923 20.1003 12.1715 20.2002 12.0591C20.3251 11.9176 20.5166 11.7927 20.7705 11.6803C20.6789 11.6053 20.5499 11.572 20.3917 11.572C20.3126 11.572 20.2543 11.5803 20.221 11.5928C20.221 11.547 20.246 11.5012 20.2918 11.4513C20.3376 11.4055 20.3917 11.368 20.45 11.343C20.6373 11.3639 20.758 11.3764 20.808 11.3888C20.8621 11.3972 20.9246 11.4346 20.9995 11.4929C21.0245 11.6137 20.9537 11.7302 20.783 11.8468C20.6123 11.9634 20.4333 12.0841 20.2501 12.2132C20.2501 12.2881 20.3542 12.363 20.5582 12.4421C20.6498 12.4546 20.7164 12.4629 20.758 12.4629C20.9121 12.4629 21.0828 12.4296 21.266 12.3589C21.4533 12.2881 21.6323 12.2256 21.8072 12.1632H21.803ZM15.0794 4.01166C15.0545 4.08659 15.0253 4.15737 15.0003 4.23231C14.9254 4.16569 14.8463 4.14072 14.7589 4.16153C14.6673 4.5945 14.5715 5.02331 14.4799 5.45212C14.5882 5.48543 14.6839 5.55204 14.7714 5.65612C14.8588 5.7602 14.9421 5.86012 15.0212 5.96003C14.9545 6.07244 14.7755 6.14738 14.4799 6.18068C14.1885 6.21399 13.9887 6.29725 13.8804 6.43047C13.8804 6.65529 13.9054 6.91341 13.9595 7.20067C14.0386 7.5587 14.0928 7.81266 14.1261 7.9542C14.1552 8.09575 14.176 8.22481 14.1927 8.33722C14.2052 8.44962 14.2135 8.57036 14.2135 8.69525C14.2135 8.85345 14.1968 9.00333 14.1677 9.14072C14.1386 9.2781 14.0844 9.41965 14.0137 9.56536C14.0803 9.37386 14.1136 9.17402 14.1136 8.96586C14.1136 8.80766 14.1011 8.67027 14.0803 8.55787C14.0553 8.44546 14.0095 8.24979 13.9346 7.97918C13.843 7.6378 13.7889 7.44629 13.7764 7.4005C13.7306 7.20067 13.7056 7.005 13.7056 6.80933V6.65529C13.7056 6.61365 13.7222 6.52206 13.7555 6.38884C13.7889 6.25562 13.9013 6.14738 14.0969 6.05995C14.3426 5.97252 14.5216 5.91424 14.6257 5.88093C14.5507 5.78101 14.4508 5.73106 14.3259 5.73106C14.2593 5.73106 14.201 5.74355 14.1552 5.77269L13.997 5.92257C13.9762 5.87677 13.9804 5.82265 14.0053 5.76436C14.0137 5.75187 14.0345 5.71024 14.0761 5.64363C14.1177 5.57702 14.176 5.53539 14.251 5.51457C14.3259 5.49376 14.4008 5.47294 14.4758 5.45629C14.4175 5.38968 14.3509 5.26478 14.2843 5.08576C14.176 4.79434 14.0262 4.64446 13.8263 4.64446C13.7514 4.60283 13.7056 4.56952 13.6806 4.54455C13.6556 4.51957 13.6431 4.48626 13.6348 4.44463C13.6348 4.33639 13.6473 4.2448 13.6764 4.16986C13.7014 4.09492 13.7514 4.03247 13.8263 3.98668C13.9595 4.07411 14.0678 4.19067 14.1552 4.33639C14.2759 4.56952 14.3967 4.80266 14.5133 5.0358C14.5382 4.77768 14.5715 4.51541 14.6048 4.25729C14.6465 4.09909 14.7214 3.97419 14.8338 3.88676C14.8921 3.89509 14.9462 3.90341 14.9879 3.92007C15.0295 3.93672 15.0628 3.97003 15.0836 4.01582L15.0794 4.01166ZM17.2485 12.005C17.2485 12.1507 17.1735 12.2923 17.0278 12.4255C16.9196 12.4588 16.853 12.4005 16.8197 12.2465C16.8405 12.0674 16.8904 11.8843 16.9695 11.6969C17.0903 11.4638 17.1777 11.2889 17.2277 11.1765C17.2277 11.2431 17.2027 11.3347 17.1569 11.4471C17.0445 11.7136 16.9862 11.8759 16.9862 11.9384C16.9862 12.0383 17.0278 12.1132 17.1152 12.1674C17.1569 12.1132 17.1985 12.0591 17.2443 12.0092L17.2485 12.005ZM24.2426 7.52956C24.1844 7.56287 24.1344 7.58368 24.0969 7.59617C24.0595 7.6045 24.0053 7.61282 23.9304 7.61282C23.7222 7.61282 23.564 7.53788 23.4516 7.38385C23.3975 7.31723 23.3725 7.26311 23.3725 7.22565C23.3725 7.18818 23.385 7.15487 23.4142 7.13405C23.4683 7.04663 23.5182 6.98418 23.564 6.94255C23.6098 6.90092 23.6806 6.85512 23.7722 6.801C23.9595 6.78018 24.0886 6.86345 24.1635 7.05079C24.1844 7.12989 24.2052 7.21315 24.2343 7.29642C24.2593 7.37968 24.2635 7.45879 24.2426 7.52956Z" fill="currentColor"/>
</svg>
