<svg width="40" height="16" viewBox="0 0 40 16" fill="none" xmlns="http://www.w3.org/2000/svg">
<path fill-rule="evenodd" clip-rule="evenodd" d="M28.4295 5.99C28.4045 5.97 28.3445 5.88 28.2595 5.72C28.1995 5.605 28.1295 5.575 28.0495 5.62C28.0495 5.955 28.0895 6.47 28.1695 7.17C28.2495 7.87 28.2895 8.395 28.2895 8.75C28.2895 9.585 28.2495 10.2 28.1695 10.605C28.0895 11.01 27.9645 11.38 27.7895 11.72C27.8745 11.555 27.9295 11.365 27.9545 11.16C27.9795 10.955 27.9895 10.705 27.9895 10.42V10.11L27.6895 5.92C27.6745 5.855 27.6595 5.68 27.6445 5.395C27.6295 5.11 27.5845 4.905 27.5095 4.78C27.5845 4.62 27.6345 4.51 27.6695 4.45C27.7445 4.325 27.8245 4.235 27.9095 4.18C28.1345 4.825 28.2645 5.195 28.2895 5.29C28.3545 5.525 28.4045 5.755 28.4295 5.99ZM24.3395 4.51C24.3195 4.565 24.2945 4.605 24.2695 4.64C24.2445 4.675 24.2045 4.685 24.1595 4.68C24.0995 4.655 24.0195 4.66 23.9195 4.7C23.8195 4.74 23.7595 4.76 23.7395 4.76C23.6845 4.76 23.6345 4.735 23.5895 4.68C23.5895 4.585 23.5895 4.515 23.5995 4.46C23.6045 4.405 23.6295 4.345 23.6695 4.28C23.6945 4.3 23.7095 4.325 23.7095 4.36C23.7095 4.445 23.7295 4.49 23.7695 4.49C23.8695 4.505 23.9345 4.445 23.9645 4.32C23.9945 4.195 24.0195 4.12 24.0395 4.1C24.0795 4.105 24.0995 4.145 24.0995 4.22C24.0995 4.34 24.1145 4.4 24.1395 4.4L24.2195 4.38L24.2995 4.08C24.3445 4.12 24.3695 4.185 24.3695 4.28C24.3695 4.375 24.3595 4.45 24.3395 4.51ZM23.9595 3.17C23.9595 3.17 23.9295 3.125 23.9045 3.075C23.8795 3.025 23.8545 3 23.8195 3C23.7195 3.025 23.6345 3.08 23.5645 3.165C23.4945 3.25 23.4345 3.345 23.3795 3.45C23.3845 3.525 23.4295 3.58 23.5095 3.62C23.5495 3.64 23.6145 3.675 23.7095 3.72C23.5545 3.945 23.2745 4.215 22.8595 4.53C22.5795 4.745 22.3995 4.885 22.3195 4.96C22.6145 4.825 22.8845 4.665 23.1295 4.48C23.4095 4.265 23.6395 4.03 23.8195 3.77C23.9245 3.745 23.9795 3.695 23.9795 3.62C23.9795 3.6 23.9695 3.555 23.9495 3.49C23.9295 3.425 23.9195 3.37 23.9195 3.33C23.9195 3.27 23.9345 3.215 23.9595 3.17ZM24.7095 5.53C24.6045 5.715 24.5495 5.815 24.5495 5.82C24.4895 5.915 24.4145 6.005 24.3295 6.09C24.1495 5.995 24.0345 5.93 23.9795 5.89C23.8545 5.795 23.7895 5.705 23.7895 5.62C23.8295 5.595 23.8895 5.505 23.9745 5.36C24.0595 5.215 24.1295 5.14 24.1895 5.14C24.2445 5.14 24.3045 5.175 24.3695 5.25C24.4845 5.345 24.5945 5.435 24.7095 5.53ZM20.8895 3.94C20.8545 4.08 20.7645 4.205 20.6195 4.32C20.5045 4.405 20.3645 4.48 20.1995 4.54C20.2445 4.465 20.3195 4.395 20.4195 4.33C20.5795 4.225 20.6695 4.16 20.6895 4.14C20.6095 4.1 20.5245 4.08 20.4295 4.08C20.3295 4.08 20.2245 4.095 20.1095 4.13C20.1695 3.985 20.2695 3.885 20.4095 3.83H20.6695C20.7645 3.845 20.8345 3.88 20.8895 3.94ZM21.5595 5.39C21.5195 5.425 21.4545 5.52 21.3695 5.685C21.2845 5.85 21.2045 5.93 21.1295 5.93C21.0895 5.93 21.0345 5.9 20.9595 5.84L20.6095 5.59C20.6345 5.495 20.7095 5.375 20.8295 5.23C20.9145 5.125 20.9695 5.055 20.9895 5.02C21.0845 5.045 21.1595 5.075 21.2195 5.11C21.3245 5.17 21.4395 5.265 21.5595 5.39ZM26.1995 5.92C26.2195 5.715 26.1295 5.355 25.9295 4.84C25.8145 4.555 25.7345 4.33 25.6895 4.17C25.5645 4.295 25.4845 4.385 25.4495 4.43C25.3695 4.545 25.3295 4.645 25.3295 4.74C25.3295 4.78 25.3395 4.825 25.3595 4.88C25.5195 6.2 25.6145 6.98 25.6395 7.22C25.7345 8.12 25.7795 8.915 25.7795 9.6C25.5445 9.775 25.2395 9.925 24.8595 10.06C24.6445 10.135 24.3245 10.24 23.8995 10.38C23.6045 10.485 23.3145 10.645 23.0295 10.85C22.8095 11.01 22.5495 11.225 22.2495 11.5C21.8345 11.875 21.5095 12.13 21.2745 12.27C21.0395 12.41 20.8095 12.505 20.5895 12.56C20.4845 12.56 20.3895 12.535 20.3045 12.49C20.2195 12.445 20.1345 12.375 20.0495 12.29C20.0145 12.175 19.9995 12.075 19.9995 11.98C19.9995 11.8 20.0545 11.575 20.1695 11.3C20.3295 10.925 20.4145 10.725 20.4195 10.69C20.2645 10.945 20.1545 11.15 20.0795 11.31C19.9795 11.53 19.9045 11.75 19.8495 11.97C19.8345 12.025 19.8295 12.1 19.8295 12.2C19.8295 12.425 19.8945 12.61 20.0295 12.75C20.2345 12.875 20.4395 12.94 20.6395 12.94C20.7845 12.94 20.9195 12.915 21.0445 12.865C21.1695 12.815 21.2995 12.745 21.4345 12.65C21.5695 12.555 21.8395 12.335 22.2395 11.98C22.4195 11.82 22.5695 11.7 22.6895 11.62C22.9345 11.455 23.1695 11.32 23.3895 11.215C23.6095 11.11 23.8695 11.005 24.1695 10.9C24.5345 10.765 24.7945 10.665 24.9495 10.6C25.2295 10.48 25.4695 10.35 25.6695 10.21C25.8245 9.955 25.9295 9.7 25.9895 9.44C26.0495 9.18 26.0795 8.88 26.0795 8.54C26.0795 8.28 26.0145 7.65 25.8895 6.65C25.8345 6.23 25.8095 5.865 25.8095 5.55L25.8795 5.41C26.0195 5.55 26.1245 5.72 26.1995 5.92ZM24.6895 11.88C24.7045 11.935 24.6895 11.995 24.6645 12.065C24.6345 12.135 24.5945 12.205 24.5495 12.28C24.5095 12.295 24.4745 12.3 24.4395 12.3C24.3995 12.3 24.3595 12.285 24.3245 12.255C24.2895 12.225 24.2595 12.185 24.2445 12.14C24.2295 12.095 24.2195 12.035 24.2195 11.96C24.2195 11.905 24.2245 11.835 24.2395 11.74L24.5095 11.23C24.4645 11.37 24.4245 11.485 24.3995 11.58C24.3745 11.675 24.3595 11.74 24.3595 11.78C24.3595 11.9 24.4145 11.99 24.5295 12.05L24.6895 11.88ZM17.6095 4.82C17.6095 4.955 17.5745 5.085 17.4995 5.21C17.4445 5.265 17.3945 5.29 17.3395 5.29C17.3045 5.29 17.2795 5.275 17.2595 5.25C17.1845 5.15 17.1495 5.035 17.1495 4.9C17.1495 4.765 17.1845 4.61 17.2595 4.43C17.2995 4.345 17.3395 4.255 17.3795 4.17C17.3845 4.23 17.3695 4.33 17.3345 4.47C17.2995 4.61 17.2795 4.705 17.2795 4.75C17.2795 4.855 17.3195 4.945 17.3995 5.02C17.4445 5.025 17.4895 4.99 17.5295 4.91C17.5495 4.865 17.5745 4.835 17.6095 4.82ZM19.2195 6.19L19.1395 6.29L18.9395 6.14C18.7395 6.435 18.4645 6.715 18.1095 6.99C17.6745 7.295 17.3545 7.525 17.1495 7.68C17.7245 7.16 18.2945 6.635 18.8695 6.11C18.8445 6.085 18.7645 6.045 18.6395 5.99C18.5145 5.935 18.4495 5.875 18.4495 5.8C18.4495 5.775 18.4595 5.74 18.4795 5.7C18.5245 5.62 18.5845 5.545 18.6595 5.48C18.7345 5.415 18.8095 5.375 18.8895 5.36C18.9845 5.36 19.0445 5.415 19.0795 5.53C19.0945 5.595 19.0995 5.655 19.0995 5.7C19.0995 5.775 19.0845 5.825 19.0595 5.86C19.0995 5.915 19.1395 5.965 19.1845 6.02C19.2295 6.075 19.2395 6.13 19.2195 6.19ZM21.7295 10.79C21.7095 10.885 21.6845 10.965 21.6495 11.04C21.6145 11.115 21.5645 11.17 21.4995 11.21C21.4245 11.225 21.3645 11.17 21.3195 11.05C21.3045 10.985 21.2995 10.935 21.2995 10.9C21.2995 10.785 21.3245 10.675 21.3795 10.56C21.3945 10.535 21.4545 10.43 21.5595 10.25C21.5745 10.31 21.5695 10.37 21.5495 10.43C21.4745 10.625 21.4395 10.725 21.4395 10.74C21.4395 10.815 21.4695 10.88 21.5295 10.94C21.5645 10.94 21.5995 10.915 21.6345 10.865C21.6695 10.815 21.7045 10.79 21.7295 10.79ZM15.9895 5.73L15.5495 6.29C15.5045 6.25 15.4145 6.195 15.2895 6.13C15.0695 6.015 14.9545 5.915 14.9495 5.82L15.3395 5.33L15.9895 5.73ZM13.6995 4.34L13.6595 4.55C13.6345 4.555 13.5895 4.535 13.5295 4.49C13.4695 4.445 13.4145 4.425 13.3695 4.43C13.3495 4.615 13.3295 4.805 13.3095 4.99C13.2745 5.19 13.2245 5.365 13.1495 5.51C13.0845 5.445 13.0195 5.325 12.9545 5.15C12.8895 4.975 12.8295 4.855 12.7695 4.78C12.7545 4.84 12.7245 4.87 12.6795 4.87C12.6595 4.87 12.6345 4.86 12.5995 4.84C12.5145 4.775 12.4495 4.71 12.4095 4.65C12.4245 4.59 12.4395 4.525 12.4645 4.455C12.4895 4.385 12.5345 4.325 12.5995 4.28C12.7545 4.355 12.8745 4.485 12.9695 4.68C13.0445 4.855 13.1145 5.025 13.1895 5.19C13.2245 4.885 13.2495 4.655 13.2745 4.5C13.2995 4.345 13.3445 4.225 13.4195 4.14C13.4795 4.145 13.5295 4.17 13.5745 4.205C13.6195 4.24 13.6595 4.285 13.6995 4.34ZM19.8095 11.88C19.6645 12.025 19.4945 12.145 19.3045 12.24C19.1145 12.335 18.9245 12.38 18.7395 12.38C18.6345 12.38 18.5395 12.365 18.4595 12.34C18.3545 12.285 18.2995 12.205 18.2995 12.09C18.2995 12.045 18.3145 12.005 18.3395 11.97C18.4445 11.83 18.5245 11.735 18.5695 11.69C18.6695 11.585 18.7695 11.52 18.8695 11.5C18.8245 11.485 18.7745 11.475 18.7245 11.46C18.6745 11.445 18.6445 11.44 18.6295 11.44C18.5745 11.44 18.5345 11.46 18.4995 11.5C18.4745 11.475 18.4845 11.435 18.5295 11.39C18.5745 11.345 18.5995 11.31 18.5995 11.29C18.6345 11.235 18.6895 11.21 18.7695 11.21C18.8145 11.21 18.8545 11.21 18.8795 11.22C18.9645 11.255 19.0195 11.275 19.0395 11.28C19.0595 11.285 19.0845 11.305 19.1195 11.34C19.1195 11.425 19.0545 11.515 18.9195 11.61C18.6245 11.815 18.4795 11.935 18.4795 11.96C18.4795 12.02 18.5745 12.085 18.7595 12.15C18.9195 12.15 19.1045 12.115 19.3095 12.04C19.5845 11.945 19.7495 11.895 19.8095 11.88ZM24.1195 7.74C24.1595 7.795 24.1795 7.845 24.1795 7.9C24.1795 7.965 24.1345 8.065 24.0495 8.2C23.9645 8.335 23.9145 8.44 23.8995 8.52C23.6145 8.625 23.1995 8.765 22.6595 8.93C21.9595 9.15 21.2795 9.365 20.6245 9.575C19.9695 9.785 19.4145 10.005 18.9595 10.23C18.4395 10.49 17.9445 10.805 17.4695 11.17C17.3045 11.295 17.0245 11.575 16.6395 12.01C16.0445 12.67 15.5345 13 15.0995 13C14.9995 13 14.8995 12.99 14.7995 12.97C14.6245 12.875 14.4995 12.74 14.4145 12.555C14.3295 12.37 14.2895 12.165 14.2895 11.94C14.3245 11.715 14.3845 11.505 14.4795 11.31C13.9845 11.435 13.6445 11.52 13.4495 11.56C13.0145 11.655 12.6445 11.7 12.3295 11.7C11.8745 11.7 11.5145 11.665 11.2395 11.59C10.8745 11.49 10.5645 11.31 10.3095 11.05C10.2045 10.945 10.1245 10.815 10.0745 10.665C10.0245 10.515 9.99951 10.355 9.99951 10.18C9.99951 10.025 10.0145 9.895 10.0395 9.78C10.1045 9.585 10.1945 9.37 10.3095 9.13C10.4245 8.89 10.5445 8.665 10.6795 8.45C10.5845 8.635 10.5095 8.825 10.4495 9.02C10.3695 9.265 10.3295 9.485 10.3295 9.68C10.3295 9.82 10.3495 9.945 10.3845 10.06C10.4195 10.175 10.4845 10.28 10.5695 10.38C10.8295 10.64 11.1445 10.82 11.5195 10.92C11.7995 10.995 12.1695 11.03 12.6295 11.03C12.9645 11.03 13.3445 10.975 13.7795 10.87C14.2645 10.73 14.6145 10.635 14.8295 10.58C14.9095 10.4 14.9895 10.215 15.0695 10.03C15.1245 9.91 15.1795 9.805 15.2395 9.72C15.1595 10 15.0545 10.265 14.9295 10.52C15.2245 10.435 15.5245 10.32 15.8345 10.185C16.1445 10.05 16.4295 9.895 16.6895 9.72C16.6895 9.595 16.6645 9.49 16.6195 9.41C16.5595 9.375 16.4895 9.355 16.4145 9.34C16.3395 9.325 16.2545 9.32 16.1695 9.32C16.0895 9.32 15.9495 9.325 15.7445 9.34C15.5395 9.355 15.4345 9.36 15.4195 9.36C15.1945 9.36 15.0245 9.325 14.9195 9.26C14.7745 9.165 14.6795 9 14.6395 8.76C14.8195 8.26 14.9295 7.975 14.9695 7.91C15.1445 7.595 15.3745 7.415 15.6595 7.37C15.8845 7.37 16.1045 7.45 16.3195 7.61C16.4945 7.745 16.6545 7.925 16.7995 8.16C16.8845 8.275 16.9495 8.4 16.9895 8.535C17.0295 8.67 17.0495 8.805 17.0495 8.94C17.0495 9.175 17.0095 9.4 16.9245 9.62C16.8395 9.84 16.7195 10.07 16.5595 10.31C16.2645 10.505 15.9545 10.68 15.6295 10.835C15.3045 10.99 14.9645 11.125 14.6195 11.23C14.5245 11.395 14.4795 11.575 14.4795 11.77C14.4795 11.985 14.5345 12.155 14.6395 12.29C14.6845 12.335 14.7345 12.385 14.7895 12.43C14.8895 12.51 14.9945 12.55 15.0995 12.55C15.1395 12.55 15.1695 12.55 15.1895 12.54C15.4895 12.42 15.8045 12.22 16.1395 11.94C16.3395 11.775 16.6295 11.5 17.0095 11.12C17.3495 10.775 17.6345 10.505 17.8695 10.32C18.1845 10.065 18.5145 9.865 18.8595 9.71C19.2045 9.555 19.5645 9.4 19.9295 9.24C19.8545 9.135 19.6145 8.98 19.1995 8.78C18.8795 8.62 18.7195 8.415 18.7195 8.17C18.7195 8.11 18.7195 8.06 18.7295 8.02C18.8745 7.655 18.9745 7.43 19.0295 7.35C19.1845 7.11 19.3845 6.98 19.6295 6.96C20.1495 6.96 20.6495 6.995 21.1295 7.065C21.6095 7.135 22.1195 7.235 22.6595 7.36C22.7245 7.375 23.2145 7.5 24.1195 7.74ZM13.2895 8.56C13.2495 8.565 13.2145 8.61 13.1895 8.69C13.1645 8.77 13.1295 8.815 13.0895 8.83C13.0095 8.745 12.9695 8.64 12.9695 8.52C12.9695 8.5 12.9995 8.355 13.0595 8.09C13.0795 8.01 13.0845 7.93 13.0695 7.85C12.9245 8.175 12.8495 8.515 12.8495 8.87C12.8545 8.91 12.8795 8.955 12.9145 9.005C12.9495 9.055 13.0045 9.08 13.0695 9.08C13.1495 9.005 13.2045 8.925 13.2295 8.84C13.2295 8.835 13.2495 8.74 13.2895 8.56ZM11.6595 7.29C11.6245 7.31 11.5845 7.365 11.5345 7.46C11.4845 7.555 11.4395 7.61 11.3995 7.63C11.3595 7.65 11.3245 7.66 11.2895 7.66C11.2545 7.66 11.2195 7.645 11.1795 7.615C11.1395 7.585 11.0945 7.55 11.0495 7.51C10.9895 7.335 10.9595 7.17 10.9595 7.01C10.9595 6.725 11.0645 6.365 11.2695 5.93C11.3695 5.73 11.4695 5.53 11.5695 5.33C11.2645 5.785 11.0545 6.125 10.9395 6.35C10.7345 6.765 10.6295 7.145 10.6295 7.49C10.6295 7.75 10.6795 7.99 10.7795 8.21C10.8745 8.275 10.9445 8.32 10.9895 8.345C11.0345 8.37 11.0895 8.37 11.1495 8.35C11.3295 8.25 11.4545 8.09 11.5295 7.87C11.5695 7.675 11.6145 7.485 11.6595 7.29ZM23.7695 3.39C23.7695 3.39 23.6945 3.39 23.5995 3.32C23.6245 3.265 23.6595 3.255 23.6995 3.28C23.7345 3.3 23.7545 3.335 23.7695 3.39ZM18.8995 5.79C18.8995 5.735 18.8745 5.695 18.8195 5.66C18.7595 5.625 18.7045 5.635 18.6595 5.68L18.8995 5.79ZM23.1195 8.19L20.3795 9.07C20.3395 8.985 20.2795 8.89 20.1995 8.785C20.1195 8.68 20.0545 8.595 20.0095 8.52C19.9445 8.455 19.7795 8.335 19.5195 8.17C19.3145 8.035 19.1795 7.905 19.1195 7.78C19.2945 7.735 19.4595 7.7 19.6245 7.68C19.7895 7.66 19.9495 7.65 20.1095 7.65C20.5095 7.65 21.0145 7.715 21.6295 7.85C21.9645 7.925 22.4595 8.035 23.1195 8.19ZM16.2695 8.6C16.1695 8.495 16.0995 8.42 16.0595 8.38C15.9345 8.26 15.7945 8.165 15.6495 8.1C15.5545 8.075 15.4795 8.06 15.4195 8.06C15.2795 8.06 15.1845 8.11 15.1295 8.21C15.1045 8.235 15.0895 8.275 15.0895 8.32C15.0895 8.375 15.1095 8.415 15.1495 8.45C15.2045 8.53 15.2745 8.59 15.3695 8.625C15.4645 8.66 15.5645 8.68 15.6695 8.68C15.7495 8.68 15.8345 8.675 15.9245 8.66C16.0145 8.645 16.1295 8.625 16.2695 8.6Z" fill="currentColor"/>
</svg>
