<svg width="40" height="16" viewBox="0 0 40 16" fill="none" xmlns="http://www.w3.org/2000/svg">
<path fill-rule="evenodd" clip-rule="evenodd" d="M29.4956 5.31153C29.4956 5.31153 29.4706 5.34485 29.4414 5.35318C29.4123 5.36151 29.3914 5.35319 29.3873 5.33236C29.3623 5.27405 29.3165 5.21158 29.254 5.15327C29.1915 5.09497 29.129 5.03248 29.0707 4.97417L28.9916 5.08246C28.9916 5.52811 29.0291 6.04872 29.0999 6.64014C29.2748 8.05206 29.3581 8.93919 29.3581 9.29737C29.3581 10.0096 29.2498 10.676 29.0291 11.2965C29.0291 10.5302 28.9958 9.73886 28.9333 8.9267C28.8708 8.11454 28.7875 7.29404 28.6876 6.46938C28.5876 5.64472 28.4876 4.8284 28.3877 4.02874C28.421 3.91629 28.4668 3.7955 28.5293 3.67055C28.5709 3.59141 28.6376 3.4748 28.7292 3.3207C28.9208 3.75385 29.0624 4.07872 29.1499 4.29113C29.3248 4.69929 29.4414 5.03665 29.4997 5.31153H29.4956ZM24.8267 6.19034C24.8392 6.23615 24.8433 6.28197 24.8308 6.31945C24.8183 6.35693 24.7808 6.45272 24.7142 6.59849C24.5934 6.62348 24.4976 6.57351 24.4227 6.44024C24.4018 6.36527 24.3935 6.29446 24.3935 6.2195C24.3935 6.11121 24.4143 6.00292 24.4518 5.89046C24.4726 5.83215 24.5143 5.72803 24.5809 5.58226C24.5601 5.70304 24.5476 5.79466 24.5351 5.85714C24.5268 5.91961 24.5185 5.96127 24.5185 5.98209C24.5185 6.05706 24.5268 6.11953 24.5476 6.17784C24.5684 6.23615 24.6059 6.28613 24.6684 6.33194C24.7017 6.34027 24.7309 6.31944 24.7517 6.27363C24.7767 6.22781 24.7975 6.19867 24.8183 6.19451L24.8267 6.19034ZM25.4847 3.54977L20.6284 5.04915C20.4202 5.13661 20.2078 5.22823 19.987 5.32403C19.7663 5.41982 19.658 5.56976 19.658 5.76968C19.7454 5.66139 19.8871 5.57393 20.087 5.49896C20.3535 5.399 20.5118 5.33653 20.5576 5.30737L25.2848 3.79967C25.3306 3.77468 25.3723 3.73719 25.4098 3.69138C25.4472 3.64557 25.4722 3.59975 25.4847 3.54977ZM21.5572 3.95793C21.5322 4.09954 21.5072 4.1995 21.4864 4.26614C21.4447 4.38693 21.3698 4.44523 21.2573 4.44523C21.1699 4.33694 21.1282 4.21199 21.1282 4.06622C21.1282 3.92045 21.1699 3.74969 21.2573 3.5581C21.324 3.42482 21.3698 3.3332 21.3989 3.27906C21.3989 3.32487 21.3698 3.44565 21.3073 3.63723C21.274 3.74552 21.2573 3.82465 21.2573 3.87879C21.2573 3.99125 21.299 4.08705 21.3781 4.15785C21.4114 4.14536 21.4406 4.10787 21.4697 4.05373C21.4947 3.99542 21.528 3.96626 21.5614 3.95793H21.5572ZM20.8075 3C20.8283 3.04581 20.8075 3.09996 20.7367 3.15827C20.6701 3.21658 20.6284 3.25823 20.6076 3.27906C20.1411 3.44565 19.7954 3.57059 19.5664 3.64973C19.1332 3.80383 18.7958 3.9496 18.5584 4.09121C18.6459 3.93294 18.7792 3.7955 18.9624 3.68721C19.1457 3.57892 19.5289 3.43732 20.1161 3.26239C20.4243 3.17493 20.6534 3.08747 20.8075 3.00417V3ZM21.4864 6.50688L21.4156 6.72762C21.3698 6.73595 21.3156 6.70262 21.249 6.63182C21.1865 6.56102 21.1282 6.53186 21.0741 6.54852C21.0324 6.62765 20.9866 6.80675 20.9325 7.08996C20.8783 7.36901 20.7908 7.56893 20.6617 7.68971C20.6284 7.6564 20.5493 7.49395 20.4202 7.19824C20.3285 6.98583 20.1828 6.89005 19.9912 6.90671C19.9662 6.87339 19.9495 6.83173 19.9495 6.78592C19.9495 6.7526 19.962 6.70263 19.9912 6.63599C20.0162 6.56935 20.0328 6.51936 20.0328 6.48604C20.0537 6.4319 20.0911 6.40691 20.1536 6.40691C20.1786 6.40691 20.2119 6.41524 20.2452 6.43607C20.3327 6.5152 20.4035 6.61932 20.466 6.74427C20.5576 6.93585 20.6534 7.13161 20.745 7.3232C20.82 6.97751 20.8825 6.71095 20.9408 6.52353C20.9991 6.33611 21.0741 6.24448 21.1657 6.24448C21.2532 6.24448 21.3573 6.33195 21.4864 6.50271V6.50688ZM24.1436 11.9254C23.7563 12.4169 23.2398 12.6668 22.5943 12.6668C22.4485 12.6668 22.311 12.6543 22.1861 12.6251C22.132 12.6251 22.082 12.596 22.0362 12.5419C21.9903 12.4835 21.957 12.4252 21.9362 12.3586C21.9612 12.2336 22.0403 12.0962 22.1653 11.9504C22.2319 11.8755 22.2985 11.8047 22.3652 11.7297C22.3527 11.7172 22.3194 11.6964 22.2652 11.6714C22.2111 11.6464 22.1778 11.6131 22.1653 11.5714C22.1653 11.4965 22.1903 11.4256 22.2361 11.3507C22.2569 11.3174 22.311 11.2549 22.3943 11.1591C22.4485 11.1258 22.5026 11.0966 22.5526 11.0675C22.6068 11.0425 22.6567 11.0258 22.7025 11.0258C22.7692 11.0258 22.8233 11.0633 22.8608 11.1341C22.8691 11.1883 22.8525 11.2341 22.8192 11.2757C22.765 11.3174 22.7275 11.3465 22.6984 11.3673C22.6442 11.3007 22.6026 11.2591 22.5693 11.2466C22.536 11.2341 22.4943 11.2341 22.4485 11.2466C22.4152 11.2799 22.3902 11.309 22.3694 11.3299C22.3485 11.3548 22.3569 11.3798 22.3902 11.4048C22.4693 11.4798 22.5776 11.5131 22.7109 11.5131C22.7858 11.5131 22.865 11.5048 22.9524 11.484C23.0399 11.4631 23.1232 11.4423 23.2023 11.4257C23.1274 11.5381 22.9441 11.6506 22.6526 11.7672C22.361 11.8796 22.1903 12.0296 22.1444 12.217C22.2361 12.2836 22.3444 12.3336 22.4651 12.3669C22.5859 12.4002 22.7025 12.4169 22.815 12.4169C23.0399 12.4169 23.2648 12.3711 23.4856 12.2836C23.7063 12.192 23.927 12.0754 24.1436 11.9296V11.9254ZM15.2765 4.17867C15.2557 4.33694 15.2432 4.43274 15.2348 4.45773C15.2098 4.57018 15.1557 4.64515 15.0766 4.67847C15.0307 4.70346 14.9849 4.6868 14.9433 4.62849C14.9016 4.57018 14.8766 4.52852 14.8683 4.50353C14.86 4.47854 14.86 4.4369 14.86 4.37027C14.86 4.24532 14.8808 4.12037 14.9266 4.00375C14.9683 3.88713 15.0349 3.76635 15.1224 3.63723C15.114 3.68305 15.0891 3.76218 15.0474 3.87879C15.0058 3.99125 14.9808 4.07872 14.9808 4.13703C14.9808 4.23699 15.0224 4.32861 15.1016 4.40775C15.1599 4.40775 15.2015 4.37443 15.2182 4.30362C15.2348 4.23282 15.2557 4.19116 15.2848 4.17867H15.2765ZM27.1632 5.14911C27.0965 4.85756 27.0008 4.54936 26.8716 4.22866C26.7467 3.90796 26.6051 3.60391 26.451 3.3207C26.3635 3.43315 26.2927 3.5456 26.2427 3.66222C26.1886 3.77468 26.1345 3.88713 26.0845 4.00375C26.2844 4.96168 26.4093 5.56144 26.4551 5.803C26.5968 6.52354 26.7009 7.17742 26.7717 7.76051C26.8425 8.34777 26.8758 8.93919 26.8758 9.53894C26.7342 9.69721 26.5676 9.83049 26.376 9.93877C26.3552 9.95127 26.1719 10.0429 25.8262 10.2095C25.6805 10.2678 25.5222 10.3178 25.3556 10.3511C25.189 10.3844 25.0266 10.4011 24.8641 10.4011C24.6101 10.4011 24.3727 10.3678 24.1478 10.297C23.9229 10.2261 23.7355 10.1262 23.5813 9.99292C23.9145 9.81799 24.1811 9.70137 24.381 9.63473C24.6892 9.52644 24.9724 9.47646 25.2307 9.47646C25.2765 9.35568 25.3306 9.22656 25.3889 9.08496C25.4472 8.94335 25.4806 8.81841 25.4806 8.70596C25.0682 8.51854 24.6309 8.37692 24.1644 8.28113C23.7021 8.18533 23.2398 8.13535 22.7817 8.13535C22.3485 8.13535 21.9154 8.18118 21.4822 8.27697C21.3406 8.35194 21.249 8.46856 21.2073 8.62682C21.1657 8.78509 21.1407 8.96834 21.1407 9.17659C21.1865 9.13494 21.2448 9.10995 21.3156 9.09329C21.3864 9.07663 21.4947 9.05165 21.6405 9.01833C21.8071 9.06414 21.9654 9.17659 22.1195 9.34735C22.2277 9.4598 22.336 9.61391 22.4485 9.80549C22.0403 9.99708 21.6405 10.147 21.2448 10.2511C20.8492 10.3553 20.4493 10.4052 20.0495 10.4052C19.9162 10.4052 19.7788 10.3969 19.633 10.3844C19.4914 10.3719 19.3623 10.3511 19.2498 10.3261C19.0041 10.272 18.775 10.1428 18.5668 9.93044C18.3585 9.71803 18.2169 9.49313 18.1419 9.24739C18.042 8.72261 17.9754 7.94377 17.942 6.9192C17.9087 5.89463 17.8879 5.34902 17.8837 5.29071C17.8296 4.53269 17.7255 3.90796 17.5755 3.42066C17.5089 3.47481 17.4506 3.57059 17.3964 3.7122C17.3173 3.92045 17.2715 4.02874 17.2673 4.04123C17.4214 4.70762 17.5255 5.374 17.5838 6.04039C17.6422 6.70678 17.6671 7.44815 17.6671 8.26031C17.5922 8.36027 17.5089 8.44357 17.4173 8.51021C17.284 8.60183 17.109 8.68513 16.8883 8.75177C16.7675 8.5102 16.6301 8.31029 16.4801 8.14369C16.3052 7.95627 16.1095 7.8105 15.8887 7.70221C15.8304 7.68138 15.7679 7.67305 15.7096 7.67305C15.5555 7.67305 15.4306 7.7272 15.3306 7.83132C15.164 8.04373 15.0349 8.23948 14.9391 8.42273C14.8183 8.6643 14.76 8.88088 14.76 9.0808C14.76 9.25989 14.8058 9.43065 14.9016 9.58892C15.0016 9.64723 15.1057 9.68888 15.2098 9.71386C15.3181 9.73885 15.4389 9.74719 15.5805 9.74719C15.7346 9.74719 15.8971 9.73052 16.072 9.6972C16.2469 9.66388 16.3968 9.62641 16.5218 9.58892C16.5634 9.63474 16.5884 9.69304 16.5968 9.76384C16.6051 9.83465 16.6176 9.91795 16.6301 10.0179C16.3427 10.2845 16.072 10.526 15.8096 10.7384C15.4972 10.9925 15.1973 11.2049 14.91 11.3798C14.4227 11.6381 14.0103 11.8296 13.6688 11.9504C13.1774 12.1254 12.7234 12.2087 12.311 12.2087C12.032 12.2087 11.7654 12.167 11.5155 12.0837C11.2657 12.0004 11.0366 11.8755 10.8242 11.7089C10.6159 11.5423 10.4701 11.3632 10.391 11.1674C10.3119 10.9758 10.2702 10.7509 10.2702 10.4969C10.2702 10.2428 10.3119 9.95543 10.3993 9.60557C10.4202 9.5306 10.4951 9.26822 10.6284 8.81424C10.5035 9.00583 10.4035 9.20158 10.3285 9.39317C10.3036 9.45981 10.2411 9.66389 10.1453 10.0012C10.0495 10.3428 9.99951 10.6718 9.99951 10.9925C9.99951 11.3465 10.0578 11.6631 10.1744 11.9421C10.2911 12.2212 10.4868 12.4502 10.7575 12.6335C10.9574 12.7668 11.1657 12.8626 11.3781 12.9167C11.5905 12.975 11.8362 13 12.107 13C12.3777 13 12.6401 12.975 12.89 12.9209C13.1399 12.8667 13.3773 12.7959 13.6063 12.7001C14.3394 12.4002 14.9641 12.0587 15.4764 11.6714C16.1303 11.1799 16.5884 10.6301 16.855 10.0221L16.9758 9.45147C16.9966 9.42648 17.1507 9.30987 17.4339 9.10996C17.5422 9.03082 17.6255 8.94752 17.6921 8.86006C17.7588 9.41399 17.8171 9.77218 17.8712 9.93877C17.992 10.3261 18.2003 10.6218 18.5001 10.8301C18.7209 10.9633 18.9416 11.055 19.1582 11.1049C19.3748 11.1549 19.6288 11.1799 19.9079 11.1799C20.3535 11.1799 20.8658 11.0883 21.4364 10.9092C21.8154 10.7884 22.2902 10.6093 22.8567 10.3678C23.2482 10.6885 23.5022 10.88 23.6147 10.9467C23.7938 11.0466 23.9729 11.1133 24.1561 11.1466C24.3352 11.1799 24.5143 11.1966 24.6975 11.1966C25.1099 11.1966 25.5055 11.1049 25.8762 10.9217C26.2511 10.7384 26.5926 10.4885 26.905 10.1678C26.9799 9.95543 27.0341 9.73468 27.0757 9.51394C27.1174 9.28904 27.134 9.07247 27.134 8.86006C27.134 8.41441 27.0591 7.74802 26.9133 6.86089C26.7675 5.97376 26.6926 5.3157 26.6926 4.88254L26.7509 4.79091C26.8175 4.87838 26.8841 4.94503 26.9466 4.995C27.0091 5.04498 27.0799 5.09496 27.1507 5.14911H27.1632ZM16.2469 5.40733C16.1803 5.46564 16.1053 5.56977 16.0178 5.71137C15.9304 5.85298 15.8512 5.95294 15.7763 6.00708C15.7554 5.98209 15.6347 5.90296 15.4056 5.77801C15.2598 5.69888 15.2098 5.60308 15.2557 5.48646C15.2765 5.46564 15.3348 5.37818 15.4347 5.22824C15.5097 5.11579 15.5805 5.03665 15.6555 4.98667C15.7971 5.06164 15.8971 5.11578 15.9637 5.15743C16.0886 5.2324 16.1844 5.3157 16.2427 5.40733H16.2469ZM16.9466 6.77759C16.9466 6.88588 16.9341 6.98167 16.9133 7.0733C16.8883 7.16493 16.8425 7.23156 16.7675 7.27738C16.6884 7.28571 16.6301 7.24406 16.5926 7.16076C16.5551 7.07746 16.5301 7.02332 16.5176 6.99417C16.5093 6.95252 16.5093 6.89837 16.5093 6.8234C16.5093 6.69845 16.526 6.58601 16.5551 6.49021C16.5843 6.39442 16.6342 6.28613 16.7009 6.16535C16.6801 6.2778 16.6676 6.37776 16.6551 6.46106C16.6467 6.54435 16.6384 6.59433 16.6384 6.61516C16.6384 6.79008 16.6967 6.90671 16.8175 6.97335C16.8592 6.90671 16.9008 6.84006 16.9466 6.77343V6.77759ZM15.0974 5.57809C14.9849 5.83632 14.8308 6.0529 14.6392 6.2195C14.5393 6.207 14.4393 6.17785 14.3352 6.12787C14.2311 6.08205 14.1353 6.03624 14.0395 5.98626C14.0395 5.86548 14.0978 5.72386 14.2186 5.55726C14.2311 5.53644 14.2977 5.45315 14.4185 5.30737L15.0974 5.57809ZM12.6776 3.65805L12.6359 3.88713C12.5151 3.84132 12.4318 3.81632 12.386 3.81632C12.3319 3.81632 12.2944 3.84548 12.2777 3.90795C12.2028 4.28696 12.1361 4.66598 12.0695 5.04915C12.1694 5.08247 12.2611 5.1366 12.3402 5.20741C12.361 5.2199 12.436 5.29904 12.5693 5.44898C12.5443 5.62391 12.3652 5.7322 12.0403 5.77801C11.7155 5.82383 11.5239 5.94044 11.4697 6.12787C11.5489 6.50687 11.6322 6.91087 11.7196 7.33152C11.8071 7.75635 11.8487 8.12286 11.8487 8.43523C11.8487 8.87671 11.7904 9.27655 11.6696 9.64307C11.6946 9.53478 11.7155 9.40982 11.728 9.26821C11.7405 9.12661 11.7488 8.98916 11.7488 8.86422V8.66431C11.7363 8.57268 11.728 8.50187 11.728 8.45606C11.703 8.202 11.6572 7.92294 11.5988 7.61474C11.4198 6.74843 11.324 6.28197 11.3198 6.21533C11.3406 6.0404 11.4031 5.89046 11.5114 5.75718C11.6197 5.6239 11.7363 5.54894 11.8654 5.52812C11.9945 5.50729 12.1111 5.48646 12.2111 5.4698C12.1361 5.39067 12.0403 5.34901 11.9195 5.34901C11.8612 5.34901 11.7988 5.35735 11.7405 5.37817C11.7071 5.43232 11.6821 5.4698 11.6696 5.48646C11.6447 5.44481 11.6405 5.39484 11.6655 5.33236C11.6905 5.26989 11.7155 5.20741 11.7405 5.14911L11.9404 5.04915C11.9195 5.0075 11.8737 4.90753 11.7988 4.74094C11.7071 4.51603 11.6072 4.34527 11.5072 4.23282L11.4781 4.34111C11.4531 4.36193 11.4114 4.35776 11.3531 4.32444C11.2948 4.29529 11.249 4.26198 11.2073 4.22866C11.1657 4.19534 11.149 4.15369 11.149 4.10787C11.149 4.08288 11.1574 4.03707 11.1782 3.97876C11.199 3.92045 11.2073 3.87464 11.2073 3.84965C11.2615 3.79551 11.3073 3.75385 11.3406 3.72469C11.3781 3.69554 11.4198 3.69554 11.4656 3.72886C11.5864 3.84132 11.6863 3.99126 11.7654 4.17451C11.8446 4.35777 11.9237 4.53269 12.007 4.69929C12.082 4.24531 12.1236 3.99542 12.1361 3.9496C12.1819 3.7955 12.2611 3.66223 12.3652 3.54977C12.4235 3.53728 12.4776 3.54144 12.5235 3.5581C12.5693 3.57892 12.6193 3.61224 12.6734 3.65805H12.6776ZM17.3964 11.5464C17.3631 11.813 17.2923 12.0504 17.1882 12.2628C17.0799 12.471 16.9175 12.646 16.6967 12.7876C16.8383 12.5877 16.9425 12.4377 17.0174 12.3378C17.1507 12.1504 17.2173 11.9879 17.2173 11.8463C17.2173 11.7463 17.1882 11.6547 17.1257 11.5673C17.0841 11.5464 17.0466 11.5548 17.0091 11.5881C16.9716 11.6214 16.9424 11.6381 16.9258 11.6381C16.9466 11.5464 16.9716 11.4673 17.0049 11.409C17.0382 11.3507 17.0966 11.3049 17.1757 11.2799C17.2423 11.2799 17.2923 11.309 17.3256 11.3715C17.334 11.384 17.3548 11.4465 17.3964 11.5506V11.5464ZM13.5897 8.51853C13.5647 8.61849 13.5314 8.72262 13.4981 8.83507C13.4647 8.94336 13.4106 9.02666 13.3398 9.0808C13.2648 9.08913 13.2148 9.0683 13.1815 9.02248C13.1482 8.97667 13.1274 8.92252 13.1149 8.86422C13.1065 8.80591 13.0982 8.7351 13.0982 8.65597C13.0982 8.52269 13.1232 8.37692 13.1774 8.21449C13.2107 8.11453 13.269 7.97709 13.3564 7.80633C13.3481 7.84798 13.3231 7.94377 13.2815 8.10204C13.2398 8.26031 13.2148 8.37693 13.2148 8.45606C13.2148 8.59767 13.2565 8.71428 13.3356 8.81424C13.3939 8.81424 13.4397 8.76842 13.4647 8.68096C13.4897 8.58933 13.5314 8.53935 13.5855 8.52686L13.5897 8.51853ZM12.9108 10.6385C12.9108 10.7593 12.9025 10.8592 12.8816 10.9425C12.8608 11.0258 12.8192 11.0925 12.7525 11.1383C12.6776 11.1508 12.6193 11.1341 12.5693 11.0841C12.5193 11.0342 12.4735 10.9675 12.436 10.8884C12.4152 10.8092 12.4068 10.7301 12.4068 10.6468C12.4068 10.5344 12.4277 10.4094 12.4652 10.2761C12.486 10.2178 12.5276 10.1012 12.5943 9.93461C12.5943 9.97625 12.5859 10.0554 12.5651 10.1762C12.5443 10.297 12.536 10.3927 12.536 10.4677C12.536 10.5593 12.5484 10.6385 12.5693 10.701C12.5943 10.7634 12.6359 10.8176 12.7026 10.8675C12.7609 10.8675 12.8067 10.8426 12.8317 10.7926C12.8567 10.7426 12.8858 10.6926 12.9108 10.6385ZM23.9562 9.0808L23.0566 9.53894C22.9108 9.33903 22.8275 9.21824 22.8067 9.18075C22.765 9.11412 22.7317 9.03915 22.7067 8.95169C22.915 8.95169 23.119 8.96418 23.3231 8.985C23.5272 9.00999 23.7396 9.03915 23.9562 9.0808ZM16.1386 8.90171C16.0928 8.91004 16.0137 8.91837 15.9095 8.93502C15.8013 8.95168 15.7055 8.96001 15.618 8.96001C15.5305 8.96001 15.4472 8.94752 15.3639 8.91836C15.2806 8.89337 15.214 8.84756 15.1682 8.78925C15.1474 8.63098 15.2223 8.51436 15.3889 8.44772C15.5347 8.44772 15.6721 8.48938 15.8054 8.57268C15.9345 8.65598 16.047 8.76426 16.1386 8.89754V8.90171Z" fill="currentColor"/>
</svg>
