<svg width="40" height="16" viewBox="0 0 40 16" fill="none" xmlns="http://www.w3.org/2000/svg">
<path fill-rule="evenodd" clip-rule="evenodd" d="M31.2471 5.11429C31.1852 5.08572 31.1138 4.98572 31.0281 4.81905C30.9757 4.71905 30.9233 4.65238 30.8662 4.61429L30.7995 4.7762C30.7995 5.15715 30.8471 5.74762 30.9424 6.54762C31.0376 7.34762 31.0852 7.92857 31.0852 8.28572C31.0852 9.05715 31.0614 9.62857 31.0186 10.0095C30.9519 10.6095 30.7995 11.1333 30.5709 11.5762C30.6328 11.3714 30.6757 11.1571 30.7043 10.9381C30.7328 10.719 30.7424 10.4714 30.7424 10.1952C30.7424 9.89048 30.7138 9.4381 30.6614 8.83333C30.609 8.23333 30.5805 7.78095 30.5805 7.48571C30.5805 7.09048 30.5471 6.59048 30.4757 5.99048C30.3233 4.64762 30.2471 3.82857 30.2471 3.52381C30.2757 3.49524 30.3281 3.40952 30.3947 3.26667C30.4614 3.12381 30.5328 3.0381 30.5995 3C30.7519 3.31429 30.8852 3.65238 30.9947 4.01905C31.1043 4.38571 31.1852 4.75238 31.2424 5.12857L31.2471 5.11429ZM25.9328 3.48096C25.8948 3.65715 25.809 3.80477 25.6709 3.92858C25.5328 4.05239 25.3757 4.12381 25.2043 4.14762C25.2043 4.06191 25.2805 3.98572 25.4328 3.90953C25.5852 3.83334 25.6805 3.77143 25.7186 3.72857C25.6328 3.66667 25.5186 3.6381 25.3757 3.6381C25.3281 3.6381 25.2709 3.64762 25.1947 3.6619C25.1471 3.68571 25.1138 3.7 25.09 3.71429C25.0662 3.72857 25.0424 3.74762 25.0233 3.77619C24.9995 3.7381 25.009 3.69048 25.0471 3.6381C25.0852 3.58572 25.1233 3.53333 25.1614 3.47619C25.2471 3.4 25.3662 3.36191 25.5281 3.36191C25.7043 3.36191 25.8424 3.40476 25.9376 3.48572L25.9328 3.48096ZM26.4471 4.96667C26.3947 5.07143 26.309 5.16667 26.1947 5.25239C26.0805 5.3381 25.9519 5.41429 25.8138 5.48571C25.6709 5.55714 25.5281 5.63333 25.3805 5.70952C25.2328 5.78572 25.1138 5.8619 25.0186 5.93809C25.0186 5.82381 25.0757 5.72857 25.1852 5.65238C25.2948 5.57619 25.4043 5.50476 25.509 5.43333C25.409 5.38571 25.3376 5.35238 25.29 5.32857C25.1995 5.28095 25.1376 5.22381 25.109 5.15714C25.1709 4.99524 25.2662 4.84762 25.3995 4.70476C25.5328 4.56191 25.6852 4.47619 25.8519 4.44762C25.9138 4.4381 25.9662 4.48572 26.0138 4.58572C26.0138 4.70952 25.9709 4.81905 25.89 4.91905C25.8424 4.85238 25.809 4.8 25.7852 4.77143C25.7376 4.71905 25.6805 4.71429 25.6138 4.76191C25.5662 4.7762 25.4709 4.84286 25.3186 4.95714C25.4805 5.12381 25.69 5.20952 25.9567 5.20952C25.9805 5.2 26.0471 5.17143 26.1567 5.12381C26.2662 5.07619 26.3662 5.02381 26.4471 4.97143V4.96667ZM23.4186 3.51429C23.4186 3.51429 23.39 3.56667 23.3614 3.65239C23.3328 3.7381 23.2995 3.77619 23.2709 3.77619C23.2471 3.77619 23.2186 3.75715 23.1805 3.71905C23.1709 3.70953 23.1328 3.70953 23.0662 3.70953C23.0186 3.78572 22.9709 3.96191 22.9233 4.24286C22.8757 4.51905 22.7995 4.70001 22.6995 4.7762C22.6233 4.70001 22.5376 4.54286 22.4471 4.30952C22.3948 4.18095 22.3424 4.08095 22.2852 4.01429C22.2757 4.06191 22.2614 4.09524 22.2376 4.11905C22.2138 4.14286 22.1852 4.1381 22.1471 4.10952C21.9709 4.04762 21.9233 3.94762 21.9995 3.81429C22.0138 3.79048 22.0328 3.74286 22.0567 3.67143C22.0805 3.6 22.1138 3.55238 22.1614 3.52857C22.3138 3.57619 22.4328 3.70477 22.5138 3.91905C22.6281 4.21429 22.709 4.39048 22.7519 4.44286C22.8043 4.20476 22.8424 4.03334 22.8662 3.91905C22.9186 3.71429 22.9995 3.54762 23.1043 3.42858C23.1567 3.42858 23.2138 3.42857 23.2709 3.43334C23.3281 3.43334 23.3757 3.47143 23.4138 3.52857L23.4186 3.51429ZM28.5376 11.1476C28.5376 11.2476 28.5233 11.319 28.49 11.3714C28.4614 11.419 28.3852 11.4476 28.2709 11.4476C28.2186 11.4476 28.1424 11.4429 28.0424 11.4286C27.9424 11.4191 27.89 11.4095 27.8805 11.4095C27.7281 11.4095 27.6186 11.4619 27.5471 11.5714C27.5471 11.6476 27.5662 11.7619 27.5995 11.9095C27.6328 12.0571 27.6567 12.1667 27.6757 12.2333C27.69 12.3 27.6995 12.381 27.6995 12.4714C27.6995 12.5857 27.6805 12.681 27.6424 12.7571C27.5662 12.4238 27.4947 12.0857 27.4233 11.7524C27.4233 11.6476 27.4424 11.5476 27.4805 11.4571C27.5186 11.3667 27.5852 11.281 27.6852 11.2048C27.6376 11.1905 27.6186 11.1619 27.6186 11.1238C27.6186 11.1 27.6328 11.0619 27.6567 11.0095C27.6852 10.9571 27.6947 10.919 27.6852 10.8952C27.7709 10.781 27.8614 10.7238 27.9614 10.7238C28.0614 10.7238 28.1662 10.7714 28.2805 10.8714C28.4043 11.0095 28.4852 11.1 28.5328 11.1476H28.5376ZM22.309 6.32381C22.2852 6.52381 22.2709 6.63333 22.2567 6.66191C22.2471 6.69048 22.209 6.7381 22.1471 6.80476C22.0948 6.80476 22.0424 6.77619 21.9948 6.72381C21.9471 6.67143 21.909 6.61905 21.8852 6.56191C21.8614 6.38096 21.8995 6.17143 21.9995 5.93334C22.0519 5.81905 22.1043 5.7 22.1614 5.58095C22.1709 5.64286 22.1614 5.71429 22.1281 5.8C22.0424 6.0381 22.0043 6.17619 22.0043 6.22381C22.0043 6.3381 22.0567 6.42381 22.1662 6.48572C22.1948 6.47619 22.2186 6.44762 22.2328 6.4C22.2471 6.35238 22.2757 6.32381 22.3138 6.32381H22.309ZM20.7995 5.64762C20.7614 5.8 20.7281 5.90477 20.6948 5.95715C20.6424 6.06191 20.5709 6.14762 20.4757 6.20953L19.79 5.80953L19.9948 5.4C20.0948 5.2381 20.2043 5.16191 20.3281 5.16191C20.3376 5.17619 20.4376 5.24762 20.6376 5.36667C20.7662 5.45238 20.8186 5.54762 20.7995 5.65238V5.64762ZM20.2852 3.62381C20.2948 3.4619 20.2281 3.38571 20.09 3.38571C19.9281 3.38571 19.7995 3.43334 19.6995 3.53334C19.6709 3.57143 19.6186 3.63809 19.5519 3.72857C19.5138 3.79524 19.4995 3.87143 19.5043 3.95715C19.5281 4.04286 19.5995 4.10953 19.7138 4.15715C19.8328 4.20477 19.909 4.25238 19.9471 4.29048C19.7567 4.65715 19.4043 5.00476 18.8852 5.32857C18.1709 5.78571 17.7662 6.05715 17.6757 6.1381C18.3138 5.84762 18.7567 5.62381 18.9995 5.4619C19.4805 5.15714 19.8424 4.80953 20.0852 4.42381C20.2376 4.39524 20.3138 4.31429 20.3138 4.18572C20.3138 4.17143 20.3043 4.10953 20.2852 4.00953C20.2662 3.90477 20.2567 3.82381 20.2567 3.76191C20.2567 3.73334 20.2662 3.68571 20.2805 3.62381H20.2852ZM17.9995 4.21905C18.0233 4.26667 18.0328 4.30476 18.0328 4.33333C18.0328 4.39524 18.0138 4.45238 17.9757 4.50952C17.9376 4.56667 17.909 4.60953 17.8852 4.64286C17.7948 4.71905 17.709 4.75714 17.6328 4.75714C17.609 4.75714 17.5757 4.74286 17.5281 4.70953C17.4614 4.61905 17.4233 4.51905 17.4233 4.41429C17.4233 4.29048 17.4852 4.11905 17.6043 3.9C17.6947 3.73333 17.7471 3.63334 17.7662 3.60476C17.79 3.66667 17.7662 3.7762 17.69 3.94286C17.6186 4.10477 17.5805 4.21429 17.5805 4.26667C17.5805 4.37143 17.6662 4.42857 17.8328 4.42857C17.8947 4.31429 17.9471 4.24762 17.9948 4.22381L17.9995 4.21905ZM23.8614 9.94286C23.8233 10.0476 23.7662 10.1381 23.6852 10.2095C23.6043 10.281 23.4995 10.3524 23.3709 10.419C23.3043 10.4571 23.1947 10.5048 23.0519 10.5619C22.909 10.6191 22.79 10.6667 22.6995 10.7048C22.7376 10.5905 22.7995 10.5 22.8805 10.4286C22.9662 10.3619 23.0757 10.2952 23.2138 10.2381C23.3519 10.181 23.4567 10.1381 23.5328 10.1048C23.6709 10.0429 23.7805 9.98571 23.8662 9.93333L23.8614 9.94286ZM30.0233 8.61905C30.0233 8.49048 30.0043 8.37143 29.9709 8.25715C29.9376 8.14762 29.8757 8.05715 29.7805 7.99048C29.6186 7.91429 29.4328 7.87619 29.2186 7.87619C28.89 7.87619 28.5947 7.94762 28.3281 8.09524C28.1757 7.40953 28.09 7.02857 28.0757 6.95238C28.0376 6.71429 28.0186 6.48572 28.0186 6.25715C28.4995 5.9762 28.9043 5.61905 29.2424 5.18095L29.4709 5.34286L29.5852 5.25239C29.5852 5.25239 29.609 5.2 29.609 5.16191C29.609 5.11429 29.5805 5.06191 29.5281 5.00001C29.4805 4.96191 29.4424 4.92381 29.4043 4.88572C29.4567 4.78096 29.4852 4.65714 29.4852 4.51905C29.4852 4.45714 29.4805 4.41429 29.4662 4.38096C29.4567 4.35239 29.4281 4.28572 29.39 4.18572C29.3519 4.11905 29.2947 4.08572 29.2186 4.09524C29.09 4.11905 28.9805 4.19048 28.8852 4.30476C28.7947 4.42381 28.7328 4.55715 28.7043 4.70953C28.7043 4.78572 28.7567 4.85238 28.8662 4.90476C28.9709 4.95714 29.0328 4.99048 29.0471 5.00952C29.0233 5.21429 28.8852 5.42381 28.6233 5.6381C28.4852 5.75239 28.2709 5.91429 27.9852 6.11905C27.9233 5.8381 27.8805 5.60952 27.8519 5.43333C27.8233 5.25714 27.8138 5.0619 27.8138 4.85238C27.8138 4.80476 27.8138 4.75715 27.8186 4.7C27.8186 4.64286 27.8281 4.57619 27.8376 4.5C27.8852 4.52381 27.9519 4.60477 28.0424 4.7381C28.109 4.8381 28.1852 4.86667 28.2614 4.82858C28.009 4.23334 27.7614 3.6381 27.5186 3.04762C27.4424 3.10953 27.3709 3.20953 27.309 3.35238C27.2424 3.49524 27.1852 3.62381 27.1328 3.74762C27.2614 4.11429 27.3519 4.53333 27.409 5.00952C27.4614 5.48571 27.5138 5.94762 27.5567 6.4L27.2043 6.68572C27.2519 6.68572 27.309 6.67143 27.3852 6.63809C27.4614 6.60952 27.5186 6.59048 27.5567 6.59048C27.6805 7.08572 27.7757 7.62858 27.8424 8.21429C27.6519 8.34286 27.4138 8.4381 27.1328 8.5C27.0567 8.3381 26.9757 8.19524 26.8852 8.06191C26.7995 7.92857 26.6947 7.8 26.5709 7.68095C26.4281 7.55714 26.2805 7.47143 26.1376 7.41429C25.9947 7.35714 25.8376 7.32858 25.6709 7.32858C25.5662 7.32858 25.4471 7.34762 25.3186 7.38572C25.0519 7.55238 24.8519 7.78095 24.7233 8.06667C24.5947 8.35238 24.5281 8.66667 24.5281 9.00953C24.6519 9.19048 24.809 9.32381 25.0043 9.4C25.1995 9.47619 25.4186 9.51429 25.6614 9.51429C25.8424 9.51429 26.0328 9.5 26.2233 9.46667C26.2376 9.46667 26.409 9.4381 26.7376 9.37619L26.7614 9.5381C26.3043 9.96667 26.0186 10.2333 25.9043 10.3381C25.5614 10.6524 25.2662 10.9 25.0233 11.081C24.7043 11.3238 24.3805 11.5286 24.0567 11.6857C23.7328 11.8476 23.3947 11.9619 23.0471 12.0286C22.9424 12.0524 22.8328 12.0619 22.7281 12.0619C22.5281 12.0619 22.3424 12.0238 22.1662 11.9429C21.99 11.8619 21.8519 11.7429 21.7567 11.5905C21.6567 11.4333 21.609 11.2667 21.609 11.081C21.7328 10.6476 21.8567 10.2143 21.9852 9.7762C22.0757 9.62381 22.2995 9.49048 22.6519 9.37143C23.0043 9.25238 23.2424 9.12381 23.3662 8.97619C23.5281 8.77619 23.6519 8.56667 23.7471 8.34286C23.8424 8.11905 23.89 7.89048 23.89 7.66191C23.89 7.43334 23.8424 7.22857 23.7519 7.04286C23.5995 6.85238 23.49 6.7381 23.4186 6.7C23.3519 6.66191 23.2709 6.65238 23.1805 6.67619C22.89 6.89048 22.6805 7.18096 22.5519 7.54286C22.4662 7.78572 22.3995 8.14762 22.3471 8.62857C22.2805 8.69048 22.1757 8.71905 22.0376 8.71905C21.9757 8.71905 21.8948 8.70953 21.79 8.68572C21.6852 8.66191 21.609 8.64286 21.5567 8.62857C21.3947 8.59048 21.2709 8.49048 21.1805 8.33334C21.1424 8.26667 21.0805 8.11429 20.9995 7.88572C20.7995 8.02381 20.6043 8.15715 20.4043 8.28572C19.9995 8.55238 19.6662 8.73334 19.3995 8.82381C19.3519 8.56667 19.209 8.33334 18.9709 8.12857C18.7328 7.92381 18.4757 7.78095 18.1995 7.70476C18.1614 7.69048 18.109 7.68095 18.0376 7.68095C17.9328 7.68095 17.8186 7.72381 17.6947 7.80477C17.6186 7.85715 17.5186 7.94286 17.3995 8.05715C17.2995 8.2762 17.2043 8.5 17.1138 8.71905C17.0519 8.86191 17.0233 8.99524 17.0233 9.11905C17.0233 9.20476 17.0424 9.28572 17.0757 9.36667C17.109 9.44762 17.1614 9.51905 17.2281 9.59048C17.3567 9.69048 17.4995 9.75714 17.6567 9.79524C17.8138 9.83334 17.9805 9.85238 18.1519 9.85238C18.4567 9.85238 18.7471 9.80953 19.0186 9.72857L19.0662 9.94762C18.8757 10.1238 18.5805 10.4048 18.1757 10.7952C17.809 11.1286 17.49 11.3905 17.2138 11.5714C16.9376 11.7524 16.6757 11.8952 16.4186 11.9905C16.1614 12.0857 15.89 12.1333 15.5995 12.1333C15.3852 12.1333 15.1852 12.1048 14.9948 12.0524C14.8138 11.9524 14.6805 11.819 14.5995 11.6524C14.5186 11.4857 14.4805 11.3 14.4805 11.0905C14.4805 10.9905 14.4805 10.9143 14.49 10.8619C14.5186 10.7619 14.59 10.6762 14.6948 10.6C14.7567 10.5619 14.8471 10.5 14.9709 10.419C15.2995 10.2143 15.5328 9.96191 15.6662 9.66667C15.7805 9.41429 15.8376 9.10476 15.8376 8.74286C15.8376 8.46667 15.7948 8.12381 15.7138 7.70476C15.6662 7.47619 15.5995 7.15239 15.509 6.73334C15.5471 6.74762 15.6043 6.78096 15.6757 6.82858C15.7471 6.87619 15.8043 6.90953 15.8424 6.92381C15.8424 6.71905 15.7567 6.4762 15.5805 6.19048C15.5424 6.12858 15.4519 5.99048 15.3043 5.78096C15.2186 5.82858 15.1471 5.91429 15.0852 6.04286C15.0567 6.10952 15.009 6.22381 14.9471 6.3762C15.1281 7.30001 15.3186 8.21905 15.509 9.14286C15.1138 9.51429 14.7186 9.84286 14.3186 10.1191C13.9233 10.3952 13.5043 10.6381 13.0614 10.8381C12.6186 11.0381 12.1662 11.1905 11.709 11.2857C11.2471 11.381 10.7424 11.4286 10.1947 11.4286C9.83761 11.3619 9.50427 11.2286 9.19951 11.0286C8.89475 10.8286 8.66142 10.5762 8.50427 10.2619C8.36618 10.0333 8.29951 9.77143 8.29951 9.47143C8.4138 8.90953 8.53285 8.34286 8.65189 7.78096C8.44713 8.15239 8.28523 8.53333 8.17094 8.91428C8.05665 9.29524 7.99951 9.69524 7.99951 10.1143C7.99951 10.4857 8.1138 10.8476 8.33761 11.1905C8.56142 11.5333 8.84713 11.7905 9.18999 11.9667C9.43285 12.081 9.66618 12.1619 9.89475 12.2048C10.1186 12.2524 10.3614 12.2714 10.6186 12.2714C11.0519 12.2714 11.49 12.2048 11.9328 12.0762C12.2614 11.9762 12.6757 11.8095 13.1805 11.5714C13.4948 11.4286 13.8757 11.2286 14.3328 10.9762C14.3186 11.0667 14.2995 11.1429 14.2805 11.2048C14.2614 11.2667 14.2376 11.3429 14.2138 11.4333C14.1852 11.5238 14.1757 11.6429 14.1757 11.7857C14.1757 11.9762 14.209 12.1571 14.2805 12.3238C14.3471 12.4905 14.4567 12.6381 14.5995 12.7714C14.8043 12.9238 15.0709 13 15.3995 13C15.5757 13 15.7424 12.9762 15.9043 12.9333C16.2186 12.8333 16.5376 12.6857 16.8709 12.4857C17.2043 12.2857 17.5186 12.0571 17.8138 11.8C18.109 11.5429 18.3852 11.2571 18.6328 10.9476C18.8805 10.6381 19.0757 10.3286 19.2233 10.0143C19.2376 9.9762 19.2709 9.9 19.3138 9.78095C19.3614 9.66191 19.409 9.5762 19.4614 9.52382C19.6376 9.4381 19.8138 9.35239 19.9852 9.26191C20.3567 9.07143 20.6424 8.88572 20.8424 8.7C20.8567 8.72857 20.8709 8.78571 20.89 8.8619C20.9043 8.93809 20.9186 9.00476 20.9376 9.05714C21.0281 9.22381 21.1805 9.34762 21.3947 9.42381C21.5852 9.47143 21.7757 9.51429 21.9662 9.5619C21.8519 9.82857 21.7328 10.1048 21.6138 10.3905C21.49 10.6762 21.4138 10.9095 21.3805 11.0952C21.3471 11.2762 21.3281 11.4476 21.3281 11.6C21.3281 11.8048 21.3614 12 21.4233 12.1905C21.49 12.3762 21.59 12.5333 21.7281 12.6524C22.0233 12.8143 22.3233 12.8905 22.6186 12.8905C22.9376 12.8905 23.2709 12.8143 23.6138 12.6619C23.8709 12.5476 24.3662 12.2381 25.0995 11.7381C25.509 11.3714 25.9281 11.0048 26.3471 10.6429C26.8328 10.1952 27.0805 9.74762 27.0805 9.30476C27.1947 9.21905 27.309 9.15714 27.4186 9.10952C27.5281 9.06191 27.7138 9.01429 27.9709 8.96191C28.0376 9.12857 28.1138 9.30477 28.19 9.48572C28.2662 9.66667 28.3567 9.81429 28.4662 9.91905C28.6424 10.0429 28.7567 10.1143 28.8138 10.1381C28.8709 10.1619 28.9376 10.1714 29.0138 10.1714C29.0757 10.1714 29.1376 10.1619 29.1947 10.1381C29.4471 9.96191 29.6424 9.7381 29.7757 9.46191C29.8662 9.27143 29.9567 8.99524 30.0376 8.6381L30.0233 8.61905ZM15.909 3.04286C15.9328 3.08096 15.9186 3.12857 15.8757 3.18095C15.8281 3.23334 15.809 3.27143 15.809 3.29524C15.6328 3.34762 15.0757 3.51905 14.1424 3.80953C13.4709 4.01429 12.9186 4.19524 12.4852 4.34762C11.8852 4.56191 11.3424 4.78095 10.8614 5.00952C10.8376 4.97143 10.8519 4.91905 10.909 4.85715C10.9614 4.79048 10.9947 4.74762 10.9995 4.72381C11.4947 4.50477 12.0947 4.27143 12.8043 4.02857C13.0233 3.95238 14.0614 3.62381 15.9138 3.04762L15.909 3.04286ZM14.3995 4.67619L14.3328 4.82381C14.209 4.78572 14.1424 4.76667 14.1281 4.76667C14.0614 4.84286 14.0043 5.00476 13.9614 5.25715C13.9186 5.50953 13.8424 5.66667 13.7281 5.7381C13.69 5.70952 13.6281 5.59524 13.5376 5.40476C13.4519 5.21429 13.3567 5.11905 13.2567 5.11905C13.2281 5.11905 13.1805 5.12857 13.1186 5.15238C13.0709 5.10476 13.0519 5.05238 13.0519 4.99048C13.0519 4.96191 13.0709 4.88571 13.109 4.77143C13.1233 4.72381 13.1328 4.68572 13.1328 4.64762C13.1852 4.59524 13.2376 4.57143 13.2948 4.58096C13.3852 4.66667 13.4709 4.78096 13.5471 4.92381C13.6614 5.14286 13.7281 5.27143 13.7519 5.3C13.7805 5.25238 13.8281 5.11905 13.89 4.9C13.9519 4.68096 14.0376 4.53333 14.1519 4.46667C14.2424 4.46667 14.3138 4.47143 14.3709 4.48572C14.4233 4.49524 14.4519 4.52857 14.4519 4.58096C14.4519 4.60953 14.4376 4.64286 14.4043 4.67143L14.3995 4.67619ZM19.9995 11.8524C20.0233 12.0524 19.9376 12.2238 19.7471 12.3762C19.6186 12.3762 19.5376 12.3048 19.509 12.1571C19.509 11.9762 19.5424 11.7762 19.6138 11.5619C19.6614 11.4095 19.7376 11.2286 19.8424 11.0143C19.8424 11.0762 19.8138 11.1952 19.7519 11.3667C19.69 11.5429 19.6614 11.6762 19.6614 11.7667C19.6614 11.8952 19.709 12.0048 19.7995 12.0857C19.8471 12.0714 19.8852 12.0286 19.9138 11.9667C19.9424 11.9 19.9757 11.8619 20.0043 11.8476L19.9995 11.8524ZM16.7757 10.6524C16.7376 10.8143 16.709 10.9286 16.6852 11.0048C16.6376 11.1429 16.5567 11.2238 16.4328 11.2429C16.3043 11.1143 16.2376 10.9667 16.2376 10.8095C16.2376 10.681 16.2852 10.5143 16.3852 10.3048C16.4614 10.1429 16.5424 9.98572 16.6233 9.82381C16.6138 9.89048 16.5567 10.0571 16.4519 10.3143C16.3995 10.4429 16.3709 10.5429 16.3709 10.6095C16.3709 10.7333 16.4281 10.8476 16.5424 10.9524C16.5709 10.9238 16.609 10.8667 16.6519 10.7905C16.6947 10.7143 16.7328 10.6667 16.7709 10.6429L16.7757 10.6524ZM12.8567 6.42381C12.7328 6.66191 12.6186 6.89524 12.5043 7.13334C12.4424 7.08572 12.3424 7.02857 12.209 6.96191C11.9709 6.8381 11.8424 6.72858 11.8186 6.62858C11.8709 6.49048 11.9281 6.37143 11.99 6.27619C12.0519 6.17619 12.1186 6.08572 12.1947 6C12.309 6.06191 12.4281 6.11905 12.5471 6.17143C12.6709 6.2381 12.7709 6.32381 12.8567 6.42381ZM13.909 8.61905C13.9186 8.72381 13.8948 8.8381 13.8471 8.96191C13.7995 9.08572 13.7281 9.18096 13.6376 9.24762C13.5757 9.20953 13.5281 9.15714 13.49 9.08571C13.4519 9.01905 13.4328 8.91429 13.4328 8.77619C13.4471 8.61429 13.4852 8.46191 13.5471 8.30953C13.5852 8.20953 13.6519 8.06667 13.7519 7.87619C13.7519 7.94286 13.709 8.09524 13.6281 8.32381C13.5805 8.45238 13.5614 8.54762 13.5614 8.60952C13.5614 8.73809 13.6186 8.84286 13.7328 8.91905C13.7852 8.81905 13.8233 8.74762 13.8471 8.7C13.8709 8.65238 13.8947 8.62857 13.9138 8.61905H13.909ZM9.55665 6.51429C9.57094 6.61905 9.58046 6.70476 9.58046 6.76667C9.58046 6.95714 9.54713 7.13333 9.4757 7.3C9.40904 7.4619 9.29475 7.60476 9.14237 7.71905C9.1138 7.73334 9.06142 7.74286 8.99475 7.74286C8.91856 7.74286 8.84237 7.72381 8.76618 7.68572C8.75189 7.6762 8.71856 7.65238 8.66142 7.60476C8.53761 7.31428 8.48046 7.00952 8.48046 6.69048C8.48046 6.2619 8.58523 5.80952 8.79951 5.32857C8.96142 4.9619 9.19475 4.56667 9.50904 4.13809C9.28999 4.8 9.07094 5.46191 8.85665 6.12857C8.85665 6.27143 8.8757 6.40476 8.91856 6.52857C8.96142 6.65238 9.03285 6.77143 9.14237 6.89524C9.25665 6.91905 9.34237 6.86191 9.40427 6.72857C9.46618 6.59524 9.5138 6.52381 9.55189 6.51905L9.55665 6.51429ZM11.49 8.16191L11.4233 8.39048C11.3947 8.37619 11.3471 8.36667 11.2852 8.36667C11.1614 8.36667 11.0852 8.42381 11.0471 8.5381C11.0471 8.71429 11.0328 8.86667 11.009 9C10.9805 9.13334 10.9328 9.30476 10.8662 9.50952C10.8043 9.45714 10.7233 9.30953 10.6138 9.06191C10.5614 8.94762 10.5043 8.85238 10.4424 8.77619C10.4043 8.78572 10.3376 8.78572 10.2471 8.78572C10.109 8.78572 10.0186 8.75238 9.97094 8.68096C9.99475 8.58096 10.0186 8.48095 10.0376 8.38571C10.0852 8.2619 10.1519 8.18572 10.2424 8.15714C10.3852 8.24286 10.5138 8.39048 10.6186 8.60476C10.7043 8.78572 10.79 8.97143 10.8805 9.15238C10.8805 8.88571 10.909 8.66191 10.9662 8.48572C11.0233 8.30476 11.1376 8.16667 11.3043 8.06667C11.3519 8.05238 11.409 8.08095 11.4852 8.15714L11.49 8.16191ZM29.2709 4.75714C29.2424 4.73333 29.1852 4.69048 29.0995 4.63334C29.0138 4.57143 28.9805 4.51905 28.9947 4.47143C29.0328 4.43334 29.0662 4.41429 29.0995 4.41429C29.2138 4.41429 29.2709 4.48095 29.2709 4.60953V4.75714ZM29.5567 9.00953C29.5947 9.09524 29.5805 9.15714 29.509 9.20476C29.4709 9.22857 29.4043 9.25239 29.3138 9.28572C28.9614 9.28572 28.7043 9.12381 28.5376 8.80476C28.6233 8.71905 28.7567 8.68096 28.9471 8.68096C29.0614 8.68096 29.1757 8.70477 29.2947 8.74762C29.4138 8.79524 29.4995 8.88096 29.5519 9.00953H29.5567ZM26.3328 8.61905C26.1947 8.64286 26.0424 8.65239 25.8757 8.65239C25.6852 8.65239 25.5138 8.62857 25.3614 8.57619C25.209 8.52857 25.0852 8.44286 24.9947 8.32857C24.9805 8.29048 24.9948 8.25239 25.0328 8.21429C25.0757 8.1762 25.1138 8.14286 25.1519 8.10953C25.1757 8.10953 25.2138 8.10953 25.2662 8.1C25.6995 8.1 26.0567 8.27143 26.3281 8.61429L26.3328 8.61905ZM27.99 11.0762L27.8662 11.0524L27.7186 11.1762L27.9947 11.0714L27.99 11.0762ZM20.0947 3.98095C20.0281 3.95238 19.9567 3.91905 19.8852 3.88571C19.8138 3.85238 19.7757 3.80476 19.7757 3.74286C19.8424 3.69048 19.909 3.6619 19.9709 3.6619C20.0567 3.6619 20.0947 3.70953 20.0947 3.80953V3.98095ZM23.4662 7.9C23.4805 7.96191 23.4995 8.02381 23.5233 8.08095C23.5233 8.10952 23.4948 8.1381 23.4424 8.16191C23.3043 8.2762 23.1662 8.36667 23.0233 8.42858C22.8805 8.49524 22.7138 8.55714 22.5138 8.61905C22.5138 8.4 22.5519 8.19048 22.6233 7.99524C22.6948 7.8 22.8138 7.63334 22.9709 7.50001C23.0614 7.48572 23.1471 7.50953 23.2233 7.58096C23.2709 7.61905 23.3471 7.72381 23.4614 7.9H23.4662ZM18.6424 8.96191C18.5424 8.99048 18.4233 9.00953 18.29 9.00953C17.9757 9.00953 17.709 8.91905 17.49 8.73334C17.4805 8.64762 17.5376 8.57619 17.6519 8.51429C17.8519 8.51429 18.0328 8.55715 18.1995 8.6381C18.3233 8.70001 18.4709 8.80477 18.6471 8.95715L18.6424 8.96191Z" fill="currentColor"/>
</svg>
