<svg width="40" height="16" viewBox="0 0 40 16" fill="none" xmlns="http://www.w3.org/2000/svg">
<path fill-rule="evenodd" clip-rule="evenodd" d="M28.7868 5.75436C28.7303 5.80061 28.684 5.82631 28.6429 5.82631C28.6018 5.82631 28.5453 5.77491 28.4785 5.67214C28.4116 5.56936 28.3397 5.50256 28.2729 5.47686C28.2729 5.79033 28.3089 6.2888 28.386 6.96711C28.463 7.64543 28.499 8.16444 28.499 8.51901V8.89927C28.499 9.47995 28.4836 9.92188 28.4476 10.2148C28.3911 10.6824 28.2832 11.0935 28.1187 11.4481C28.165 11.0164 28.1907 10.5437 28.1907 10.0298C28.1907 9.54162 28.165 8.97635 28.1136 8.33401C28.0622 7.69166 28.0108 7.02363 27.9543 6.33504C27.8978 5.64645 27.8721 5.10174 27.8721 4.69578C27.831 4.63412 27.8104 4.57244 27.8104 4.51078C27.8104 4.42856 27.8361 4.34635 27.8824 4.26413C27.9646 4.1408 28.0519 4.01233 28.1393 3.88387C28.35 4.50565 28.5658 5.13257 28.7868 5.75436ZM24.1105 3.77081C24.1516 3.81192 24.1722 3.87358 24.1722 3.9558C24.1722 4.00205 24.167 4.05344 24.1516 4.09968C24.1362 4.14593 24.1157 4.21787 24.0797 4.30523C24.0437 4.32579 24.0129 4.33606 23.9769 4.33606C23.9512 4.33606 23.8998 4.32065 23.833 4.29496C23.7559 4.42343 23.6429 4.47481 23.4939 4.43884C23.4322 4.40287 23.4014 4.3412 23.4014 4.25384C23.4014 4.21787 23.4065 4.17676 23.4219 4.13052C23.4373 4.08427 23.4476 4.0483 23.463 4.02261C23.4784 3.99691 23.4939 3.97635 23.5144 3.9558C23.5196 3.96094 23.5247 3.99177 23.5144 4.03802C23.5144 4.08427 23.5196 4.1151 23.5401 4.13052C23.5607 4.17163 23.5915 4.19218 23.6326 4.19218C23.6532 4.19218 23.684 4.1819 23.7251 4.16135L23.8587 3.81192H23.8998C23.8947 3.87358 23.8896 3.91983 23.8896 3.94553C23.8896 3.99178 23.905 4.03289 23.9409 4.05858C23.9872 4.05858 24.0283 4.0226 24.054 3.9558C24.0694 3.89413 24.0848 3.83248 24.1054 3.77081H24.1105ZM24.3469 5.15826C24.3006 5.2559 24.239 5.35354 24.1619 5.45118C24.0848 5.54881 24.0129 5.64644 23.9461 5.7338C23.905 5.69783 23.8227 5.65673 23.6994 5.61048C23.4939 5.52826 23.3962 5.43062 23.4116 5.32271C23.4579 5.29701 23.5298 5.20966 23.6275 5.06577C23.7251 4.92189 23.8073 4.84994 23.8741 4.84994C23.9307 4.84994 23.9769 4.86536 24.018 4.90133C24.1259 4.98869 24.239 5.07604 24.3469 5.15826ZM24.6244 3C24.1773 3.12333 23.3654 3.34428 22.1886 3.66289C21.0119 3.98149 20.2153 4.19733 19.8042 4.31552C18.9152 4.56732 18.1187 4.80369 17.4199 5.02465C17.3531 5.06062 17.2914 5.10688 17.24 5.16341C17.1886 5.21993 17.1629 5.2816 17.1629 5.34327C17.8155 5.11202 18.5144 4.88078 19.2698 4.65468C19.8505 4.4851 20.5699 4.27954 21.4178 4.04829C22.795 3.67316 23.5093 3.4779 23.5658 3.46248C23.7662 3.41624 23.9718 3.36484 24.1876 3.30831C24.4034 3.25179 24.5473 3.14902 24.6244 3ZM22.1475 6.25796C22.1115 6.40185 22.0807 6.49948 22.055 6.55601C22.0088 6.65878 21.942 6.73586 21.8597 6.79238C21.7981 6.81808 21.7467 6.79752 21.7056 6.73072C21.6645 6.66392 21.6388 6.61768 21.6336 6.59712C21.6336 6.43782 21.6542 6.29392 21.6953 6.16546C21.7364 6.03699 21.8032 5.88284 21.8906 5.71326C21.8906 5.75951 21.87 5.852 21.8289 5.98047C21.7878 6.10894 21.7672 6.2117 21.7672 6.27851C21.7672 6.38642 21.7981 6.47378 21.8597 6.53545C21.9368 6.53545 21.9882 6.48921 22.019 6.40185C22.0499 6.31449 22.091 6.2631 22.1475 6.25796ZM20.0406 6.5149C20.0663 6.60226 20.056 6.69476 20.0047 6.78726C19.9533 6.87975 19.9019 6.9671 19.8556 7.04932C19.8094 7.11099 19.7323 7.15724 19.6295 7.18293C19.5268 7.20863 19.4548 7.22918 19.4137 7.2446C19.3726 7.22918 19.3315 7.20348 19.2955 7.16237C19.2595 7.12126 19.2236 7.05961 19.1979 6.97739C19.2184 6.71017 19.3058 6.50976 19.4548 6.37102C19.4497 6.41213 19.4291 6.47379 19.3983 6.56115C19.3675 6.64851 19.352 6.71017 19.352 6.75128C19.352 6.83864 19.3931 6.91059 19.4754 6.96711C19.573 6.96711 19.6552 6.95168 19.7272 6.92085C19.7991 6.89002 19.8505 6.83863 19.8762 6.76155C19.8762 6.69989 19.7991 6.6228 19.6398 6.53545C19.5576 6.4892 19.5165 6.44296 19.5165 6.40185C19.5165 6.36588 19.5576 6.31449 19.6398 6.23741C19.6963 6.25796 19.7477 6.27851 19.8042 6.29907C19.9122 6.34532 19.9944 6.41727 20.0406 6.5149ZM24.5216 11.962C24.4856 11.9877 24.3983 12.1059 24.2544 12.3114C24.1927 12.3988 24.1259 12.4707 24.0591 12.517C23.8793 12.4142 23.7508 12.3371 23.6686 12.2806C23.5041 12.1778 23.4065 12.0853 23.3705 12.0031L23.8227 11.4995C23.982 11.5766 24.1002 11.6382 24.1825 11.6845C24.3058 11.7616 24.4188 11.854 24.5216 11.962ZM16.0838 5.07604C16.1043 5.13771 16.0889 5.2148 16.0427 5.31244C15.9964 5.41007 15.9605 5.48201 15.9399 5.52826C15.8166 5.54881 15.7292 5.49228 15.683 5.36381C15.6624 5.26618 15.6521 5.17882 15.6521 5.0966C15.6521 4.94758 15.683 4.79342 15.7395 4.63412C15.796 4.47482 15.8731 4.32065 15.9605 4.16135C15.9194 4.27954 15.8782 4.40287 15.832 4.53648C15.7857 4.67009 15.7652 4.78313 15.7652 4.88077C15.7652 5.02979 15.8114 5.15827 15.9091 5.26105L16.0838 5.07604ZM26.7004 9.33093C25.9605 9.33093 25.2359 9.27441 24.5216 9.16135C23.8073 9.0483 23.0982 8.92498 22.3942 8.79651C22.6665 8.66804 22.98 8.45735 23.3294 8.16958C23.5196 8.01028 23.8125 7.77388 24.203 7.45014C24.2595 7.51695 24.3212 7.67112 24.388 7.9075C24.4548 8.14388 24.5576 8.30318 24.6861 8.3854C24.7683 8.42137 24.8505 8.43679 24.9327 8.43679C25.0304 8.43679 25.1126 8.42137 25.1794 8.3854C25.4928 8.24665 25.7189 8.04111 25.8577 7.76876C25.9759 7.53751 26.0324 7.23947 26.0324 6.88489C26.0324 6.8592 26.0273 6.6742 26.0119 6.33504C25.9964 5.99589 25.9913 5.7595 25.9913 5.62075C25.9913 5.51284 25.9913 5.39465 26.0016 5.27646C26.0067 5.15827 26.017 5.06063 26.0324 4.98355C26.0787 5.04008 26.13 5.1223 26.1763 5.23021C26.2534 5.39465 26.3253 5.47174 26.4024 5.45632C26.4281 5.3741 26.3459 5.06063 26.1557 4.52107C26.0941 4.34121 25.9964 4.08426 25.8577 3.73997C25.796 3.75538 25.7395 3.80165 25.683 3.88387C25.6573 3.92498 25.611 3.99691 25.5494 4.09968C25.5339 4.19732 25.5288 4.27954 25.5288 4.35148V4.58273C25.5288 4.85508 25.5545 5.20452 25.6008 5.63104C25.7035 6.55087 25.7549 7.14697 25.7549 7.4296C25.5956 7.54779 25.4415 7.63 25.2822 7.67625C25.2051 7.6968 25.1485 7.70708 25.1074 7.70708C24.9276 7.70708 24.8094 7.57862 24.7477 7.32682C24.6655 6.9928 24.6038 6.79753 24.5627 6.74101C24.4754 6.74101 24.4034 6.76669 24.3469 6.81294C24.1362 7.12127 23.8227 7.4039 23.4116 7.66598C23.0262 7.9075 22.461 8.26721 21.7159 8.74512C21.5103 8.93011 21.3407 9.15622 21.2123 9.42344C21.5977 9.42344 21.9882 9.44912 22.3839 9.50564C22.7796 9.56217 23.2164 9.63411 23.6891 9.73175C22.9954 9.98355 22.389 10.1891 21.87 10.3381C21.1917 10.5283 20.5391 10.667 19.907 10.7492C19.6963 10.7749 19.5011 10.7955 19.3212 10.8057C19.1413 10.816 18.9769 10.8212 18.8176 10.8212C18.3089 10.8212 17.8258 10.7698 17.3685 10.6721C16.9111 10.5745 16.4743 10.4101 16.0632 10.184C16.0375 10.1685 15.8731 10.0298 15.5802 9.76258C15.4774 9.67522 15.3901 9.63411 15.3233 9.64953V9.71633C15.3233 9.74716 15.3284 9.76772 15.3438 9.78314C14.9122 9.78314 14.5011 9.88592 14.1105 10.0915C13.8073 10.2508 13.4682 10.5026 13.093 10.852C12.8515 11.0833 12.6151 11.3196 12.3736 11.5509C11.8854 12.0236 11.4641 12.3525 11.0992 12.5375C11.017 12.5529 10.9553 12.5581 10.9142 12.5581C10.7549 12.5581 10.6213 12.517 10.5031 12.4347C10.3798 12.332 10.2924 12.2189 10.241 12.0956C10.1896 11.9722 10.164 11.8438 10.164 11.7153C10.164 11.5252 10.2308 11.2734 10.3592 10.9651C10.426 10.8006 10.5288 10.5694 10.6573 10.2662C10.5288 10.446 10.4055 10.6619 10.2976 10.9137C10.2564 11.0113 10.1691 11.2374 10.0303 11.6023C10.0098 11.6999 9.99951 11.7924 9.99951 11.89C9.99951 12.0802 10.0303 12.26 10.0971 12.4245C10.164 12.5889 10.2616 12.7276 10.4003 12.8356C10.5237 12.9126 10.6213 12.9589 10.6932 12.9743C10.7652 12.9897 10.8423 13 10.9245 13C10.9656 13 11.0221 12.9949 11.0889 12.9794C11.3716 12.8561 11.6902 12.6351 12.0447 12.3217C12.3479 12.0391 12.646 11.7616 12.9492 11.4789C13.2934 11.1706 13.6121 10.9394 13.905 10.7903C14.2698 10.6053 14.6398 10.5128 15.0252 10.5128C15.0252 10.8263 15.1126 11.1295 15.2924 11.4224C15.4723 11.7153 15.6932 11.9363 15.9605 12.0853C16.0273 11.8849 16.0992 11.6793 16.1711 11.4635C16.2431 11.2477 16.2791 11.0473 16.2791 10.8623C16.6953 11.0935 17.1064 11.258 17.5021 11.3505C17.8978 11.443 18.3191 11.4892 18.7662 11.4892C19.1619 11.4892 19.5524 11.4532 19.9276 11.3864C20.3027 11.3196 20.7344 11.2169 21.2123 11.0884C21.2739 11.0678 21.5823 10.9702 22.1372 10.8006C22.7796 10.6002 23.2935 10.4512 23.6789 10.3484C24.5165 10.1274 25.3541 10.0195 26.1968 10.0195C26.3202 10.0195 26.4281 9.93731 26.5155 9.77287C26.5771 9.62898 26.6388 9.47995 26.7004 9.33093ZM22.7847 12.2806C22.7282 12.4039 22.6306 12.5015 22.4867 12.5683C22.2965 12.6352 22.1578 12.6865 22.0756 12.7225C21.8854 12.7225 21.7364 12.7122 21.6388 12.6917C21.5411 12.6711 21.4589 12.6043 21.3973 12.4964C21.3973 12.3988 21.4281 12.3063 21.4898 12.2189C21.5514 12.1315 21.685 12.0082 21.8906 11.8489C21.8341 11.813 21.7724 11.7924 21.6953 11.7821C21.6182 11.7718 21.5309 11.7667 21.4281 11.7667C21.4538 11.6588 21.5052 11.592 21.572 11.5766C21.6388 11.5611 21.7004 11.5509 21.757 11.5509C21.906 11.5509 22.0396 11.5971 22.1475 11.6845C22.1321 11.7102 22.0036 11.8489 21.757 12.0956C21.6593 12.1932 21.6131 12.2754 21.6131 12.3525C21.6747 12.409 21.7416 12.445 21.8135 12.4656C21.8854 12.4861 21.9677 12.4964 22.0653 12.4964C22.1886 12.4964 22.312 12.4758 22.4301 12.4399C22.5483 12.4039 22.6665 12.3474 22.7847 12.2806ZM17.8824 7.70708C17.8412 7.80985 17.8155 7.88694 17.8001 7.93319C17.7642 7.93319 17.7231 7.9075 17.6665 7.86125C17.61 7.815 17.574 7.7893 17.5535 7.7893C17.5278 7.7893 17.5021 7.80985 17.4815 7.85096C17.4456 8.09762 17.425 8.25693 17.4096 8.32374C17.3685 8.48818 17.3068 8.63721 17.2246 8.76568C17.1681 8.70401 17.1064 8.57554 17.0345 8.38027C16.9625 8.185 16.8752 8.05138 16.7724 7.98458C16.757 8.0411 16.7313 8.0668 16.6902 8.0668C16.6696 8.0668 16.6388 8.05139 16.5925 8.0257C16.5463 8 16.5257 7.95888 16.5257 7.90235C16.5257 7.86124 16.5411 7.80986 16.5771 7.74305C16.6131 7.67625 16.6336 7.63 16.6388 7.59917C16.6439 7.56834 16.6696 7.55292 16.7107 7.55292C16.7261 7.55292 16.7467 7.56319 16.7724 7.57861C16.7981 7.59403 16.8186 7.60945 16.8238 7.61459C16.9265 7.70194 17.0139 7.83042 17.091 7.99486C17.1989 8.24152 17.2606 8.37513 17.276 8.39569C17.2965 8.34944 17.3274 8.21068 17.3685 7.98458C17.4096 7.75847 17.4764 7.59917 17.574 7.50153C17.7128 7.50153 17.8155 7.56833 17.8824 7.70708ZM13.6069 4.52107L13.5555 4.62383C13.5555 4.62383 13.4939 4.60842 13.4373 4.58273C13.3808 4.55703 13.3294 4.54675 13.2883 4.56217C13.2215 4.6598 13.1701 4.79341 13.1341 4.96299C13.0468 5.41006 12.9851 5.65673 12.9594 5.71326C12.8926 5.63618 12.831 5.53853 12.7744 5.4152C12.6357 5.08632 12.5535 4.90133 12.5175 4.86022L12.425 5.01438C12.3479 4.95785 12.2965 4.91675 12.2606 4.89106C12.1938 4.83453 12.1578 4.78314 12.1578 4.72661C12.1783 4.65981 12.1989 4.58786 12.2246 4.51078C12.2503 4.4337 12.2863 4.37717 12.3325 4.33606C12.4918 4.40287 12.6151 4.53647 12.7128 4.73688C12.7899 4.91674 12.8669 5.09147 12.9492 5.26105C13.0262 4.95786 13.0879 4.73688 13.1444 4.593C13.201 4.44911 13.2729 4.3412 13.3705 4.2744C13.4476 4.29495 13.5093 4.31551 13.5607 4.34121C13.6121 4.3669 13.6377 4.39773 13.6377 4.43884C13.6377 4.4594 13.6275 4.48509 13.6069 4.52107ZM13.4528 6.15518C13.4271 6.32476 13.2729 6.42239 12.9903 6.43781C12.7076 6.45322 12.5226 6.52517 12.4353 6.6485C12.4353 6.83349 12.461 7.0853 12.5175 7.40904C12.5997 7.88694 12.646 8.19013 12.6562 8.31346C12.6665 8.43679 12.6768 8.5447 12.6819 8.63206C12.6871 8.71942 12.6922 8.80163 12.6922 8.87871C12.6922 9.05857 12.6819 9.21274 12.6614 9.35149C12.6408 9.49023 12.5997 9.63411 12.5381 9.78314C12.5792 9.60328 12.5997 9.42856 12.5997 9.2487C12.5997 9.06885 12.5843 8.89413 12.5535 8.73483C12.5226 8.57553 12.4712 8.34429 12.4044 8.03597C12.3685 7.88694 12.3376 7.72764 12.3119 7.56834C12.2863 7.40904 12.2708 7.26001 12.2708 7.13154C12.2708 6.86947 12.3222 6.63823 12.425 6.43268C12.4918 6.35046 12.5997 6.28365 12.7436 6.23741C12.8875 6.19116 12.9954 6.15518 13.0725 6.13462C13.0468 6.05754 12.98 6.02157 12.8772 6.02157C12.8207 6.02157 12.7693 6.03185 12.7128 6.0524C12.6562 6.10893 12.6306 6.13977 12.6306 6.15518C12.61 6.11407 12.5997 6.07297 12.5997 6.03186C12.5997 5.94964 12.6357 5.88797 12.7128 5.84686C12.7744 5.78519 12.8515 5.75436 12.9492 5.75436C12.9748 5.75436 13.0211 5.76464 13.0828 5.78519C13.1444 5.80575 13.2215 5.87255 13.3089 5.99074C13.3705 6.06782 13.4168 6.11921 13.4528 6.15518ZM11.5 9.01233C11.4641 9.24357 11.4332 9.47996 11.3973 9.7112C11.3304 9.97328 11.1866 10.148 10.9759 10.2456C10.8782 10.2662 10.7806 10.2302 10.6778 10.1429C10.6162 10.0863 10.5442 10.0041 10.462 9.88592C10.3746 9.6444 10.3284 9.40801 10.3284 9.17677C10.3284 9.0483 10.3387 8.92498 10.3541 8.81192C10.3695 8.69887 10.4209 8.53443 10.5031 8.31346C10.5853 8.0925 10.7035 7.85611 10.8525 7.60431C10.9142 7.50154 11.0632 7.2703 11.2945 6.91572C11.2585 7.05447 11.1352 7.34223 10.9142 7.7893C10.7241 8.17985 10.6264 8.49331 10.6264 8.72456C10.6264 8.86844 10.6521 9.00204 10.7035 9.12024C10.7549 9.23843 10.8474 9.36177 10.9759 9.4851C11.0221 9.51079 11.0684 9.51592 11.1146 9.49537C11.1609 9.47481 11.2071 9.44399 11.2636 9.40288C11.2893 9.3669 11.3253 9.3001 11.3716 9.19733C11.4178 9.09455 11.4589 9.03288 11.5 9.01233ZM15.8063 10.8726V11.0164C15.8063 11.1038 15.7857 11.15 15.7446 11.15C15.6984 11.15 15.647 11.1192 15.6007 11.0576C15.5545 10.9959 15.5288 10.9342 15.5288 10.8726C15.5288 10.8469 15.5185 10.7903 15.5031 10.703C15.4877 10.6156 15.4928 10.5745 15.5288 10.5745C15.5751 10.5745 15.6367 10.6105 15.7035 10.6773C15.7703 10.7441 15.8063 10.8109 15.8063 10.8726Z" fill="currentColor"/>
</svg>
