<svg width="40" height="16" viewBox="0 0 40 16" fill="none" xmlns="http://www.w3.org/2000/svg">
<path fill-rule="evenodd" clip-rule="evenodd" d="M26.8691 5.88261C26.7995 5.86957 26.743 5.81739 26.7039 5.72608C26.6343 5.57391 26.5952 5.49131 26.5908 5.47391L26.4778 5.63043L26.843 10.087C26.843 10.6174 26.7126 11.1043 26.456 11.5478C26.5343 11.2478 26.5691 10.9 26.5691 10.5043V10.1087C26.5473 9.99564 26.5343 9.91739 26.5256 9.86956L26.0256 5.14348C26.0517 5.10869 26.056 5.06522 26.0343 5.00869C26.0126 4.95217 25.9908 4.89565 25.9604 4.83043C26.0082 4.71739 26.0647 4.6 26.1256 4.46957C26.1865 4.33913 26.2647 4.24347 26.356 4.17391C26.4126 4.2913 26.4995 4.53913 26.6169 4.91304C26.6604 5.03043 26.7082 5.16086 26.7647 5.29999C26.7865 5.28695 26.7995 5.29999 26.8126 5.34347C26.8212 5.38695 26.8299 5.41304 26.8386 5.42608L26.8299 5.53913H26.8734V5.88261H26.8691ZM22.9039 4.70434C22.8604 4.76086 22.7995 4.78695 22.7169 4.78695C22.6908 4.78695 22.656 4.77826 22.6126 4.76522C22.5778 4.75217 22.5039 4.76957 22.3865 4.82174C22.2734 4.87391 22.1865 4.9 22.1299 4.9C22.0386 4.9 21.9691 4.85652 21.9212 4.76522C21.9212 4.6 21.9386 4.45652 21.9691 4.33912C21.9995 4.22173 22.0647 4.12608 22.1604 4.05652C22.1604 4.07826 22.1473 4.13912 22.1256 4.23912C22.0995 4.33912 22.0908 4.41738 22.0908 4.47391C22.0908 4.52173 22.0995 4.56087 22.1126 4.58695C22.1343 4.6 22.1647 4.60869 22.2082 4.60869C22.3126 4.60869 22.3908 4.56522 22.4473 4.48261C22.4343 4.45652 22.4256 4.40868 22.4256 4.34782C22.4256 4.29129 22.4343 4.23912 22.4517 4.18695C22.4691 4.13477 22.4952 4.06956 22.5299 3.99564C22.543 4.01738 22.5517 4.05652 22.5517 4.12173C22.543 4.20434 22.543 4.26956 22.543 4.30869C22.543 4.42608 22.5995 4.4913 22.7082 4.5087C22.7865 4.5087 22.8299 4.49565 22.843 4.46522C22.8169 4.43043 22.7995 4.37825 22.7995 4.30869C22.7995 4.22608 22.8256 4.14348 22.8821 4.05652C22.9386 4.18261 22.9647 4.30869 22.9647 4.43043C22.9647 4.52608 22.943 4.61739 22.9039 4.7V4.70434ZM23.2995 3.00434C23.2734 2.99564 23.2213 3.00434 23.143 3.03478L18.8647 4.52608C18.6995 4.60434 18.5908 4.73043 18.543 4.91304C18.9343 4.73913 19.3691 4.56521 19.8473 4.3913C20.1734 4.27391 20.6169 4.12173 21.1734 3.93043C21.8343 3.70869 22.2778 3.55652 22.4995 3.46956C22.6473 3.41304 22.8039 3.35651 22.9691 3.2913C23.1343 3.22608 23.2473 3.13043 23.3039 3L23.2995 3.00434ZM22.8212 5.82173C22.7039 6.00869 22.5865 6.19564 22.4778 6.38695C22.4517 6.33043 22.3647 6.26521 22.2169 6.1826C22.0691 6.10434 21.9995 6.02608 21.9995 5.95652C21.9995 5.92173 22.0082 5.8826 22.0299 5.84347L22.3517 5.34347C22.456 5.41304 22.5604 5.47825 22.6647 5.54347C22.7821 5.63477 22.8343 5.72609 22.8212 5.82609V5.82173ZM21.3169 6.87391C21.3517 6.92174 21.356 6.97825 21.3256 7.03912C21.2995 7.09999 21.2517 7.17826 21.1865 7.26522C21.1213 7.35217 21.0473 7.37391 20.9734 7.33478C20.9039 7.23913 20.8691 7.12174 20.8691 6.9913C20.8691 6.87826 20.8952 6.76522 20.9473 6.64348C20.9995 6.52174 21.0604 6.41304 21.1299 6.31304C21.0821 6.49565 21.0343 6.66956 20.9952 6.84348C20.9952 6.94782 21.0386 7.03043 21.1299 7.09564C21.1734 7.08695 21.2082 7.06086 21.243 7.01303C21.256 6.99999 21.2821 6.95217 21.3169 6.87825V6.87391ZM19.8473 6.65652C19.856 6.73913 19.8473 6.82174 19.8169 6.89565C19.7604 6.9913 19.7213 7.06087 19.7039 7.10435C19.6473 7.14783 19.5821 7.18696 19.5126 7.22609C19.4386 7.26522 19.3734 7.2826 19.3082 7.2826C19.2647 7.2826 19.2169 7.26521 19.1604 7.23043C19.1039 7.19564 19.0647 7.14348 19.0343 7.07826C19.0082 7.01305 18.9908 6.93912 18.9908 6.86521C18.9908 6.83043 19.0039 6.75652 19.0256 6.63913C19.0517 6.52608 19.1126 6.43043 19.2082 6.35217C19.2082 6.37826 19.1995 6.43478 19.1865 6.51739C19.1734 6.6 19.1647 6.66521 19.1647 6.70434C19.1647 6.79565 19.1908 6.86956 19.2386 6.92173C19.2865 6.97826 19.343 7.00434 19.4039 7.00434C19.4386 7.00434 19.4821 6.99565 19.5299 6.97391C19.5778 6.95217 19.6126 6.93912 19.6343 6.93043L19.6778 6.87825C19.6647 6.83477 19.5821 6.74782 19.4386 6.61738C19.3778 6.56086 19.343 6.51303 19.343 6.46956C19.343 6.42173 19.3865 6.36521 19.4691 6.30434C19.5386 6.34782 19.6082 6.39564 19.6778 6.45651C19.7473 6.51738 19.8039 6.57825 19.843 6.64782L19.8473 6.65652ZM18.4604 6.14347C18.4343 6.22173 18.4039 6.3 18.3778 6.38261C18.3517 6.46522 18.3082 6.53477 18.2517 6.5913C18.2039 6.59999 18.1604 6.58695 18.1213 6.55652C18.0821 6.52608 18.043 6.47825 17.9995 6.41738C17.9908 6.3913 17.9908 6.34347 17.9908 6.2826C17.9908 6.03912 18.0734 5.83478 18.243 5.66522C18.1952 5.81305 18.1473 5.95651 18.1082 6.10434C18.1082 6.16086 18.1299 6.21739 18.1691 6.26956C18.2386 6.33043 18.2908 6.34782 18.3256 6.31304C18.3386 6.30435 18.356 6.27391 18.3734 6.21739C18.3908 6.16087 18.4212 6.13912 18.4604 6.14347ZM24.0734 12.2391C23.843 12.4739 23.6256 12.6522 23.4169 12.7696C23.1517 12.9217 22.8865 13 22.6256 13C22.4865 13 22.3473 12.9739 22.2082 12.9261C22.1169 12.8783 22.0734 12.8087 22.0734 12.7174C22.0734 12.6478 22.0995 12.5739 22.1517 12.5C22.2039 12.4217 22.2647 12.3522 22.3386 12.287C22.4126 12.2217 22.4952 12.1609 22.5952 12.1043C22.5126 12.0696 22.443 12.0435 22.3908 12.0304C22.3386 12.0174 22.2908 12.013 22.2517 12.0217C22.2299 11.9783 22.2343 11.9348 22.2691 11.8913C22.2995 11.8478 22.343 11.8043 22.3995 11.7609C22.4952 11.7826 22.5995 11.8043 22.7039 11.8217C22.8169 11.8565 22.8691 11.9174 22.8691 12C22.8473 12.0696 22.7039 12.1957 22.443 12.3739C22.3386 12.4522 22.2952 12.5348 22.3169 12.6261C22.4647 12.7043 22.6213 12.7391 22.7865 12.7391C22.9517 12.7391 23.1213 12.7087 23.2865 12.6435C23.3343 12.6304 23.5995 12.4956 24.0778 12.2348L24.0734 12.2391ZM15.6299 4.63043C15.6213 4.67826 15.5952 4.70434 15.5473 4.70434C15.456 4.67825 15.3865 4.66086 15.3386 4.66086C15.2821 4.66086 15.243 4.69565 15.2256 4.76522C15.1778 5.03043 15.1386 5.22173 15.1126 5.34347C15.0865 5.46521 15.043 5.56956 14.9865 5.66087C14.8908 5.44348 14.8169 5.28695 14.7691 5.1826C14.6734 4.98695 14.5299 4.89129 14.343 4.89129C14.2821 4.85651 14.2473 4.81303 14.2473 4.75651C14.2473 4.73043 14.2604 4.68695 14.2821 4.62608C14.3082 4.56521 14.3169 4.52608 14.3169 4.50434C14.3386 4.45652 14.3778 4.43043 14.4299 4.43043C14.4647 4.43043 14.4908 4.43912 14.5126 4.46086C14.6299 4.55652 14.743 4.70869 14.8473 4.90869C14.8908 4.9913 14.943 5.0913 15.0039 5.21304C15.0299 5.16522 15.0691 5.02609 15.1126 4.79565C15.156 4.56522 15.2604 4.42608 15.4213 4.37825C15.5821 4.37825 15.6604 4.43043 15.6604 4.53478C15.6604 4.56087 15.6517 4.59565 15.6299 4.63043ZM25.0952 10.2043L24.9082 10.1522C24.4647 10.1522 24.0299 10.1261 23.6039 10.0739C23.1778 10.0217 22.6821 9.93913 22.1126 9.83043C21.6604 9.74782 21.2082 9.66086 20.756 9.56956C21.0952 9.36956 21.4256 9.14782 21.7473 8.90869C22.0691 8.66956 22.3691 8.40869 22.656 8.13043C22.7691 8.17391 22.856 8.27825 22.9256 8.45216C23.0865 8.83477 23.2299 9.06086 23.3647 9.13042C23.4212 9.15651 23.4908 9.1739 23.5734 9.1739C23.7039 9.1739 23.8256 9.14782 23.9386 9.0913C24.1473 8.8826 24.2865 8.64782 24.356 8.38695C24.4256 8.12608 24.4604 7.81304 24.4604 7.45217C24.4604 7.27826 24.443 7.04347 24.4082 6.74347C24.3386 6.14347 24.3039 5.76521 24.3039 5.60434L24.4082 5.34347C24.4691 5.44782 24.5386 5.55217 24.6082 5.65652C24.656 5.73478 24.6908 5.7826 24.7126 5.80434C24.7126 5.55217 24.6604 5.27826 24.556 4.97826C24.5343 4.93043 24.4299 4.67391 24.243 4.20434C24.1821 4.22608 24.1212 4.28261 24.0647 4.38261C24.0386 4.43043 23.9952 4.50869 23.9386 4.61304C23.9256 4.70869 23.9169 4.79565 23.9169 4.87391V5.11304C23.9169 5.34782 23.9734 6.00869 24.0821 7.09564C24.1299 7.56956 24.156 7.9739 24.156 8.31738C24.1126 8.36521 24.0691 8.39565 24.0256 8.40434C23.9821 8.41304 23.9169 8.42174 23.8343 8.42174H23.6691C23.5082 8.34348 23.3952 8.17826 23.3256 7.91739C23.256 7.65652 23.1952 7.5 23.1473 7.44348C22.9473 7.50435 22.6865 7.67391 22.3647 7.94348C21.9908 8.26521 21.7343 8.46087 21.6039 8.53913C21.4995 8.62173 21.0865 8.83477 20.3604 9.1739C19.8517 9.40869 19.5343 9.72174 19.3995 10.1043C19.656 10.1391 20.0299 10.1913 20.5169 10.2609C21.0039 10.3304 21.4126 10.4087 21.7386 10.4913C21.4386 10.5869 21.1213 10.6913 20.7908 10.8C20.456 10.9087 20.1778 10.9869 19.9517 11.0348C19.7256 11.0826 19.5473 11.1174 19.4126 11.1348C19.2821 11.1522 19.1386 11.1609 18.9865 11.1609C18.6604 11.1609 18.3386 11.1043 18.0256 10.9956C17.8082 10.8652 17.643 10.687 17.5256 10.4696C17.4082 10.2522 17.3299 10.0087 17.2952 9.74347C17.2517 9.22173 17.2343 8.71303 17.2343 8.22173C17.2343 7.96956 17.2343 7.72173 17.2386 7.4739C17.2386 7.22608 17.243 6.9826 17.243 6.73912C17.243 6.29999 17.2299 5.86521 17.2082 5.43477C17.1821 5.00434 17.143 4.60869 17.0865 4.25651C17.0039 4.33912 16.9299 4.45218 16.8691 4.59131C16.8343 4.66957 16.7865 4.7913 16.7213 4.96521C16.8169 5.47826 16.8821 6.10869 16.9082 6.85217C16.9169 7.0826 16.9212 7.65651 16.9299 8.5739C16.9386 9.49129 16.9604 10.1913 17.0039 10.6696C16.8517 10.8565 16.6647 11.0304 16.4386 11.1913C16.356 11.2522 16.1517 11.3826 15.8343 11.5783C15.4647 11.7609 15.1473 11.8956 14.8865 11.9869C14.5039 12.113 14.156 12.1739 13.843 12.1739C13.6126 12.1739 13.3908 12.1348 13.1734 12.0522C12.956 11.9739 12.7604 11.8435 12.5821 11.6696C12.4039 11.4957 12.3169 11.2783 12.3169 11.0217C12.3169 10.9522 12.3169 10.9 12.3256 10.8652C12.3343 10.8304 12.3473 10.7783 12.3691 10.7087C12.4473 10.513 12.5299 10.3087 12.6213 10.0913C12.7126 9.87391 12.8343 9.76956 12.9865 9.76956C13.1865 9.68695 13.3256 9.47826 13.3952 9.14348C13.443 8.91305 13.4821 8.76956 13.5082 8.70435C13.4386 8.78261 13.3691 8.85651 13.2995 8.93043C13.2299 9.00434 13.1473 9.03478 13.0473 9.01739C12.956 8.9 12.8908 8.78696 12.856 8.67826C12.8169 8.56956 12.7995 8.45216 12.7995 8.33043C12.7995 8.07825 12.9082 7.74782 13.1213 7.33043C13.3865 6.83043 13.5343 6.51739 13.5691 6.3913C13.4778 6.46086 13.3908 6.56956 13.3082 6.71303C13.2647 6.79129 13.1995 6.90869 13.1082 7.06956C13.0952 7.10434 12.9604 7.41304 12.7126 8C12.5473 8.38261 12.4604 8.70434 12.4604 8.96956C12.4604 9.10869 12.4778 9.23913 12.5169 9.35652C12.556 9.47391 12.6169 9.59131 12.6995 9.71304C12.3778 10.2826 12.1865 10.6652 12.1256 10.8609C12.043 11.1043 11.9995 11.3565 11.9995 11.613C11.9995 11.7043 11.9995 11.7696 12.0082 11.813C12.0647 12.0565 12.1908 12.2739 12.3908 12.4696C12.5908 12.6652 12.7995 12.7826 13.0213 12.8304C13.243 12.8739 13.4647 12.9 13.6778 12.9C13.9647 12.9 14.2517 12.8609 14.5386 12.7869C14.8256 12.7087 15.0952 12.6087 15.3473 12.4826C16.056 12.1478 16.643 11.6304 17.0995 10.9261C17.1908 11.1913 17.3473 11.4217 17.5734 11.613C17.7995 11.8087 18.043 11.9043 18.2995 11.9043C18.6734 11.9043 19.0908 11.8609 19.543 11.7696C19.8299 11.713 20.4908 11.5348 21.5256 11.2391C22.0126 11.1 22.3995 11.0043 22.6821 10.9478C23.0778 10.8696 23.4734 10.8348 23.8604 10.8348C24.0082 10.8348 24.1604 10.8435 24.3256 10.8565C24.4908 10.8696 24.6343 10.8913 24.7604 10.9174C24.8213 10.8 24.8908 10.6783 24.9604 10.5522C25.0299 10.4261 25.0734 10.3174 25.0952 10.2174V10.2043ZM18.8865 8.94347C18.8865 9.12608 18.8386 9.27825 18.7386 9.40434C18.6126 9.42608 18.5386 9.43043 18.5213 9.41304C18.4299 9.29565 18.3865 9.15651 18.3865 8.99564C18.3865 8.86521 18.4212 8.71304 18.4908 8.54348C18.5604 8.37391 18.6256 8.21305 18.6908 8.05652C18.6908 8.13478 18.6734 8.22609 18.6386 8.33913C18.556 8.6087 18.5126 8.77826 18.5126 8.83913C18.5126 8.98695 18.5778 9.0826 18.7126 9.13042C18.7473 9.12173 18.7734 9.09131 18.7952 9.03478C18.8169 8.97826 18.8473 8.94783 18.8908 8.93913L18.8865 8.94347ZM15.3908 6.09565C15.4039 6.13913 15.4039 6.18261 15.3865 6.23043C15.3691 6.27826 15.343 6.33043 15.3082 6.38695C15.2604 6.37825 15.2169 6.37826 15.1778 6.37826H15.0995C14.9473 6.37826 14.8126 6.4 14.7039 6.44782C14.5908 6.4913 14.5039 6.56957 14.443 6.68261C14.4995 6.92609 14.5386 7.10869 14.556 7.23478C14.6126 7.4913 14.6473 7.66956 14.6604 7.7739C14.6734 7.8739 14.6821 7.96521 14.6821 8.04347V8.27825C14.6821 8.46086 14.6778 8.58695 14.6647 8.66086C14.656 8.73478 14.6299 8.83477 14.5952 8.95651C14.6213 8.86521 14.6386 8.75652 14.6386 8.62174C14.6386 8.56087 14.6299 8.47826 14.6169 8.37826C14.6039 8.27826 14.5908 8.19999 14.5734 8.14347L14.3734 7.28695C14.3604 7.22608 14.3473 7.16087 14.343 7.1C14.3343 7.03913 14.3343 6.96956 14.3343 6.8913C14.3343 6.77391 14.356 6.66087 14.3952 6.55652C14.4865 6.33913 14.6995 6.18695 15.043 6.09565C14.9995 6.03913 14.9517 6.00435 14.8952 5.98695C14.8386 5.96956 14.7908 5.96957 14.7473 5.99131L14.6517 6.08695C14.6386 6.04347 14.6473 5.9913 14.6778 5.92608C14.7082 5.86086 14.7299 5.81305 14.7473 5.78696C14.7952 5.73913 14.8604 5.71304 14.9473 5.71304C14.9908 5.71304 15.0343 5.72609 15.0821 5.75652C15.1299 5.78261 15.1865 5.83913 15.2473 5.92174C15.3082 6.00435 15.356 6.06522 15.3821 6.1L15.3908 6.09565ZM15.8691 9.87391C15.8691 9.96522 15.8517 10.0565 15.8213 10.1435C15.7908 10.2348 15.7343 10.3 15.6473 10.3435C15.5865 10.3565 15.5343 10.3435 15.4952 10.3087C15.456 10.2739 15.4299 10.2217 15.4169 10.1565C15.4082 10.1 15.4082 10.0609 15.4082 10.0304C15.4082 9.86956 15.4386 9.70869 15.5039 9.53912C15.5256 9.4826 15.5647 9.3913 15.6299 9.26956C15.6386 9.33043 15.6213 9.43043 15.5821 9.56087C15.543 9.6913 15.5256 9.7826 15.5256 9.83043C15.5256 9.86521 15.5256 9.90435 15.5343 9.94348C15.543 9.98696 15.5734 10.0348 15.6299 10.0913C15.6865 10.0913 15.7343 10.0565 15.7821 9.98695C15.8256 9.91738 15.856 9.87826 15.8691 9.87391Z" fill="currentColor"/>
</svg>
