<svg width="40" height="16" viewBox="0 0 40 16" fill="none" xmlns="http://www.w3.org/2000/svg">
<path fill-rule="evenodd" clip-rule="evenodd" d="M29.1157 5.27273C29.0231 5.24747 28.9431 5.17172 28.8842 5.04966C28.8253 4.92761 28.7622 4.82238 28.7032 4.73821L28.6233 4.84764C28.6233 5.19276 28.6443 5.59679 28.6822 6.06818C28.7748 7.17087 28.8253 7.86952 28.8253 8.15993C28.8253 8.83333 28.7958 9.37627 28.7327 9.78452C28.6527 10.3317 28.5012 10.8283 28.2781 11.2786C28.3539 10.883 28.4044 10.4958 28.4297 10.117C28.4549 9.73821 28.4718 9.31733 28.4718 8.85437C28.4718 8.28198 28.4465 7.64647 28.3918 6.9436C28.3707 6.68266 28.2655 5.63889 28.0677 3.81229C28.0677 3.71128 28.0888 3.61868 28.1266 3.53029C28.1687 3.44191 28.2739 3.2904 28.4507 3.07575C28.6064 3.47138 28.7327 3.83333 28.8337 4.15741C28.96 4.55303 29.0568 4.9234 29.1157 5.26851V5.27273ZM24.9027 5.14226C24.667 5.23064 24.5197 5.28956 24.4566 5.31902C24.3935 5.34848 24.3177 5.40319 24.2251 5.48736C24.1662 5.48736 24.1073 5.47054 24.0483 5.43266C23.9894 5.39478 23.9347 5.3569 23.88 5.31482C23.8463 5.24748 23.8295 5.15487 23.8295 5.04124C23.8295 4.85184 23.8842 4.66245 23.9894 4.47727C24.002 4.51094 24.0021 4.57408 23.9852 4.67088C23.9684 4.76347 23.96 4.82238 23.96 4.84343C23.96 4.94444 24.002 5.02019 24.082 5.06649C24.1367 5.07912 24.1872 5.06649 24.2377 5.0202C24.2882 4.97811 24.3219 4.95286 24.343 4.94444C24.3556 4.78872 24.3682 4.65825 24.3766 4.54882C24.385 4.43939 24.4271 4.36784 24.5029 4.32576V4.51936C24.5029 4.62037 24.5155 4.70454 24.5366 4.76767C24.5618 4.8308 24.6123 4.8771 24.6923 4.90235C24.7849 4.86868 24.8354 4.8266 24.8354 4.77188C24.8228 4.73821 24.8101 4.71716 24.8059 4.71295C24.7723 4.64561 24.7554 4.58669 24.7554 4.54039C24.7554 4.46464 24.7807 4.39309 24.8354 4.31733C24.928 4.43097 24.9785 4.58669 24.9785 4.7803C24.9785 4.91498 24.9532 5.03704 24.8985 5.14226H24.9027ZM25.1637 3.04208C24.6923 3.18518 24.2125 3.33248 23.7201 3.49242C23.2276 3.65235 22.7773 3.79545 22.3648 3.93013C22.1081 4.01852 21.6451 4.17424 20.9717 4.40572C20.8455 4.46044 20.7318 4.54462 20.635 4.65825C20.5382 4.77189 20.4877 4.88131 20.4877 4.98232C20.9339 4.75926 21.4095 4.55303 21.9229 4.36785C22.2344 4.25421 22.7226 4.08585 23.396 3.86279C24.2041 3.59343 24.7007 3.42929 24.8817 3.36616L25.1637 3.04208ZM25.0037 6.72895C25.0164 6.77525 25.0122 6.82997 24.9953 6.88889C24.949 6.99832 24.9027 7.10353 24.8648 7.21296C24.8312 7.22558 24.7849 7.22138 24.7302 7.20455C24.6712 7.1835 24.6292 7.13721 24.5997 7.06145C24.5702 6.98569 24.5534 6.91835 24.5534 6.85101C24.5534 6.76263 24.5786 6.66162 24.6292 6.54798C24.6797 6.43434 24.7175 6.35017 24.747 6.29545C24.7133 6.38384 24.6965 6.47643 24.6965 6.57744C24.6965 6.73317 24.747 6.84679 24.848 6.92255C24.8817 6.91413 24.9153 6.88467 24.9448 6.82996C24.9743 6.77525 24.9953 6.74158 25.0122 6.72895H25.0037ZM20.1637 4.08164C20.1174 4.23737 20.0879 4.32576 20.0837 4.34259C20.0416 4.43519 19.9827 4.51094 19.9027 4.56566C19.8354 4.57828 19.7765 4.56986 19.726 4.54039C19.6754 4.51093 19.6418 4.47305 19.6249 4.43518C19.6081 4.39309 19.5955 4.35101 19.5913 4.30892C19.5829 4.26683 19.5829 4.22474 19.5829 4.19107C19.5829 4.09006 19.6081 3.98063 19.6544 3.85858C19.6628 3.83753 19.7512 3.66497 19.928 3.34511C19.928 3.39982 19.8985 3.50505 19.8354 3.65657C19.7765 3.81229 19.7428 3.93013 19.7428 4.0101C19.7428 4.11953 19.7807 4.20791 19.8522 4.28367C19.9196 4.30471 19.9785 4.27524 20.029 4.19949C20.0795 4.12373 20.1258 4.08164 20.1637 4.08164ZM26.4768 5.01179C26.3505 4.59512 26.2201 4.17424 26.0938 3.74916C26.0054 3.45875 25.9002 3.21044 25.7824 3C25.6813 3.10943 25.6056 3.21885 25.5551 3.33248C25.5046 3.44612 25.4625 3.58081 25.4288 3.73653C25.4709 4.06061 25.5677 4.66245 25.7234 5.54629C25.8497 6.29545 25.9465 6.88889 26.0054 7.33502C26.0938 8 26.1359 8.60606 26.1359 9.1532C25.9549 9.31313 25.715 9.45622 25.4246 9.57828C25.13 9.70033 24.6965 9.87289 24.1157 10.0917C23.8 10.1801 23.4802 10.3443 23.1561 10.5884C22.9667 10.7315 22.6847 10.9798 22.3059 11.3375C21.843 11.7668 21.481 12.0615 21.2201 12.2172C20.9591 12.3729 20.7108 12.4781 20.4667 12.5286C20.332 12.5286 20.2142 12.4992 20.1089 12.4445C20.0037 12.3855 19.9069 12.3056 19.8101 12.1961C19.7302 12.0194 19.6881 11.8552 19.6881 11.6995C19.6881 11.5859 19.7091 11.4638 19.7554 11.3291C19.7975 11.1987 19.848 11.0766 19.9069 10.9672C19.9659 10.8577 20.1089 10.6178 20.3446 10.2559C20.4541 10.096 20.5298 9.96128 20.5761 9.86027C20.4962 9.9697 20.3741 10.1296 20.2142 10.3443C20.0542 10.5589 19.9322 10.7315 19.8522 10.8577C19.7512 11.0177 19.6754 11.1524 19.6292 11.2618C19.5155 11.5185 19.4566 11.7668 19.4566 12.0109C19.4566 12.1456 19.4987 12.2845 19.5786 12.4234C19.6586 12.5665 19.8143 12.718 20.0416 12.878C20.2184 12.9579 20.3994 13 20.5887 13C20.9802 13 21.3127 12.8695 21.5904 12.6044C21.9398 12.2761 22.2554 11.9983 22.5416 11.7752C22.8573 11.5311 23.1856 11.3165 23.5265 11.1271C23.8674 10.9377 24.2209 10.7652 24.5913 10.6136C24.9616 10.4579 25.3362 10.3148 25.7108 10.1801C25.9717 9.94445 26.1569 9.66245 26.2664 9.32996C26.3547 9.0606 26.3968 8.72811 26.3968 8.32828C26.3968 8.07154 26.3295 7.46549 26.1948 6.5101C26.1359 6.08081 26.1022 5.73569 26.1022 5.47895C26.1022 5.41161 26.0938 5.32743 26.0728 5.22642C26.0307 5.0244 26.0138 4.89393 26.0138 4.8308C26.0138 4.71716 26.0433 4.62037 26.1064 4.53619C26.1485 4.6372 26.1948 4.75084 26.2537 4.87289C26.3127 4.99915 26.3632 5.05808 26.4095 5.05808C26.4347 5.05808 26.46 5.03704 26.481 4.99916L26.4768 5.01179ZM17.7394 3.89225C17.7605 3.93434 17.7689 3.97643 17.7689 4.02273C17.7689 4.09007 17.752 4.1574 17.7184 4.22474C17.6847 4.29208 17.651 4.35942 17.6174 4.42676C17.5164 4.5867 17.3775 4.67088 17.2049 4.67088C17.1502 4.67088 17.0955 4.66246 17.0323 4.64141C16.9229 4.5867 16.8724 4.48147 16.8724 4.31733C16.8724 4.22474 16.8892 4.13636 16.9229 4.05639L17.1839 3.54292C17.1839 3.58922 17.1712 3.65236 17.1418 3.73653C17.0744 3.94697 17.0408 4.07744 17.0408 4.13216C17.0408 4.25842 17.0997 4.34258 17.2217 4.38467C17.2975 4.3973 17.3606 4.39309 17.4153 4.36363C17.4701 4.33838 17.529 4.28788 17.5963 4.22054C17.5963 4.1532 17.5374 4.07744 17.4153 3.99747C17.2933 3.91751 17.2344 3.85016 17.2344 3.79545C17.2344 3.74073 17.2722 3.68182 17.3438 3.61448C17.4364 3.63973 17.5164 3.67339 17.5753 3.71548C17.6342 3.75757 17.6889 3.81649 17.7352 3.89645L17.7394 3.89225ZM15.3741 4.24579C15.3741 4.33838 15.3615 4.42256 15.3404 4.49832C15.3152 4.57407 15.2731 4.65404 15.2142 4.74242C15.1594 4.76767 15.1047 4.78451 15.0542 4.78451C15.0206 4.78451 14.9869 4.77609 14.9532 4.75504C14.8606 4.66666 14.8101 4.54461 14.8101 4.38047C14.8101 4.33838 14.8185 4.29209 14.8312 4.23738C14.8438 4.18266 14.8564 4.13215 14.8733 4.08585L15.0753 3.66077C15.0669 3.71969 15.0458 3.81228 15.0079 3.93854C14.9701 4.06481 14.9532 4.14899 14.9532 4.19529C14.9532 4.30892 14.9953 4.40572 15.0753 4.47727C15.1552 4.48989 15.2184 4.46885 15.2563 4.40992C15.2983 4.351 15.3362 4.29629 15.3783 4.24158L15.3741 4.24579ZM17.7899 6.18602L17.7184 6.38805C17.6847 6.38805 17.6342 6.37963 17.5669 6.36279C17.4995 6.34596 17.4574 6.33754 17.4448 6.33754C17.3901 6.33754 17.3396 6.3628 17.2933 6.41751C17.2344 6.53115 17.1754 6.74158 17.1165 7.04882C17.0576 7.35606 16.9861 7.5665 16.8977 7.68014L16.4726 6.8931C16.4473 6.91835 16.4137 6.93518 16.3716 6.93518C16.3463 6.93518 16.3211 6.93518 16.3 6.92677C16.2411 6.90151 16.199 6.88468 16.178 6.87626C16.1022 6.82155 16.0685 6.75 16.0685 6.66582C16.0685 6.6069 16.077 6.55219 16.0896 6.50589C16.1022 6.45959 16.119 6.41329 16.1401 6.37121C16.1611 6.32912 16.1948 6.30386 16.2411 6.30386C16.2874 6.30386 16.3295 6.32071 16.3632 6.35438C16.4515 6.44276 16.5357 6.55639 16.6157 6.69949C16.7293 6.91414 16.843 7.12879 16.9608 7.34764C17.0155 7.01094 17.0618 6.7542 17.1039 6.58164C17.1797 6.25757 17.3059 6.09764 17.4869 6.09764C17.5753 6.09764 17.6763 6.13131 17.7899 6.19865V6.18602ZM17.5795 8.51768C17.5458 8.65236 17.5206 8.74916 17.5079 8.81229C17.4743 8.92593 17.4196 9.0101 17.348 9.06481C17.2722 9.09006 17.2091 9.08165 17.1544 9.03536C17.146 9.02694 17.1081 8.97643 17.0323 8.88384C17.0323 8.7239 17.0534 8.5766 17.0997 8.45033C17.1418 8.32407 17.2175 8.19781 17.327 8.07576C17.327 8.12206 17.3017 8.20202 17.247 8.30724C17.1923 8.41667 17.167 8.50084 17.167 8.55977C17.167 8.65236 17.2217 8.72812 17.327 8.78283C17.4027 8.79125 17.4532 8.74916 17.4827 8.66077C17.5121 8.57239 17.5458 8.52609 17.5795 8.51768ZM23.8926 7.56649C23.7495 7.61279 23.2781 7.82744 22.4785 8.21464C21.9061 8.49242 21.4179 8.62711 21.0138 8.62711C20.7529 8.62711 20.4835 8.57239 20.2058 8.46717C19.9616 8.31987 19.7638 8.13047 19.6081 7.9032C19.4524 7.67593 19.364 7.42761 19.3345 7.16667C20.0079 6.69529 20.7908 6.4596 21.6788 6.4596C22.0829 6.4596 22.4574 6.5143 22.7983 6.61952C22.6047 6.38383 22.3691 6.21127 22.0913 6.10605C21.8135 5.99662 21.5105 5.94613 21.1738 5.94613C20.9128 5.94613 20.6266 5.98821 20.3236 6.06818C19.9785 6.18181 19.667 6.39646 19.3893 6.71633C19.1115 7.03198 18.9179 7.36448 18.8169 7.70539L18.8379 7.68434C18.9052 8.01262 19.0231 8.31987 19.1956 8.60186C19.3682 8.88384 19.5871 9.11111 19.8564 9.27946C19.4061 9.50673 18.9389 9.68772 18.4507 9.81398C17.9667 9.94024 17.4785 10.0076 16.9861 10.0076C16.9608 10.0076 16.9103 10.016 16.8345 10.0286H16.6031C15.997 10.0286 15.5172 9.85185 15.1679 9.50252C14.8985 9.23316 14.6712 8.81229 14.4903 8.2399C14.3808 7.88215 14.2293 7.32239 14.0357 6.56482C13.8337 5.91667 13.5685 5.44528 13.236 5.15067L13.0761 5.92929C13.5601 6.62374 13.8926 7.38131 14.0778 8.20202C14.0988 8.28198 14.1073 8.35774 14.1073 8.42508C14.1073 8.60185 14.0483 8.77441 13.9263 8.95118C13.9052 8.98485 13.7874 9.12795 13.5727 9.37627C13.0677 9.78031 12.6005 10.0791 12.167 10.2769C11.6409 10.521 11.1064 10.6389 10.5593 10.6389C10.4372 10.5842 10.3573 10.5253 10.311 10.4579C10.2689 10.3906 10.2436 10.3106 10.2436 10.2138C10.2436 10.117 10.2941 9.94865 10.3951 9.70034C10.4961 9.45202 10.5382 9.26683 10.5172 9.14478C10.3615 9.42255 10.2478 9.65404 10.1721 9.84343C10.0584 10.138 9.99951 10.4032 9.99951 10.6305C9.99951 10.8577 10.0542 11.0808 10.1594 11.2786C10.2352 11.3712 10.3404 11.4386 10.4835 11.4806C10.6056 11.5017 10.7276 11.5227 10.8455 11.5522C11.662 11.3628 12.3522 11.0892 12.9162 10.7231C13.6317 10.2601 14.082 9.68771 14.2714 9.00589C14.3514 9.32997 14.4818 9.62037 14.667 9.88552C14.9785 10.2348 15.3236 10.4874 15.7066 10.6431C16.0433 10.7778 16.4305 10.8451 16.8682 10.8451C17.3059 10.8451 17.8278 10.7609 18.3918 10.5926C18.7958 10.4705 19.2967 10.2854 19.8985 10.037C20.6855 9.70876 21.1443 9.51936 21.2706 9.47306C21.4726 9.31733 21.8387 9.14478 22.3733 8.94696C22.9036 8.75336 23.2697 8.56818 23.4633 8.39983L23.8758 7.58333L23.8926 7.56649ZM12.1249 3.36616C12.1334 3.40825 12.1249 3.45033 12.1165 3.49663C12.1039 3.54293 12.0913 3.58922 12.0744 3.6271C12.0155 3.61447 11.9524 3.59764 11.8935 3.5766C11.8682 3.5766 11.8345 3.59343 11.8009 3.6271C11.7125 3.74915 11.6451 3.96801 11.5988 4.28788C11.5525 4.60774 11.4894 4.82659 11.4179 4.94023C11.3631 4.86447 11.3 4.734 11.2327 4.54039C11.1611 4.34679 11.0938 4.2079 11.0264 4.11952C11.0054 4.15319 10.9759 4.17003 10.9339 4.17003C10.9002 4.17003 10.8581 4.16161 10.8118 4.14057C10.7655 4.11953 10.7192 4.09848 10.6813 4.08164C10.6056 4.03534 10.5719 3.97222 10.5719 3.88804C10.5719 3.83333 10.5845 3.7702 10.6056 3.69444C10.6308 3.61868 10.6392 3.57239 10.6392 3.55135C10.7276 3.47559 10.795 3.44613 10.8413 3.45875C10.9886 3.59343 11.1233 3.79545 11.2453 4.06482C11.3042 4.1995 11.3631 4.33417 11.4179 4.46885C11.4431 4.40993 11.4894 4.23316 11.5483 3.94276C11.6367 3.53872 11.7967 3.31565 12.0323 3.27777L12.1249 3.35773V3.36616ZM19.0946 12.2551C18.901 12.4781 18.6485 12.6507 18.3455 12.7685C18.2571 12.8022 18.1687 12.8316 18.0845 12.8527C17.9962 12.8779 17.8825 12.8864 17.7394 12.8864C17.6468 12.8864 17.5374 12.8695 17.4153 12.8359C17.3564 12.7938 17.3101 12.7685 17.2849 12.7559C17.2302 12.7222 17.2007 12.6886 17.1881 12.6591C17.1754 12.6296 17.1712 12.6002 17.1712 12.5791V12.5328C17.1712 12.4192 17.2091 12.3098 17.2807 12.2046C17.3564 12.0993 17.4532 12.0025 17.5753 11.9057C17.5079 11.8636 17.4616 11.8342 17.4322 11.8131C17.3775 11.7711 17.3396 11.729 17.3228 11.6827C17.3901 11.569 17.4658 11.4722 17.5458 11.3881C17.6552 11.2786 17.7563 11.2281 17.8573 11.2281C17.912 11.2281 17.9667 11.2449 18.0172 11.2786C18.0046 11.4007 17.9414 11.4849 17.8362 11.5311C17.8025 11.4764 17.7268 11.4554 17.6132 11.4722L17.5711 11.5227C17.63 11.5774 17.6973 11.6237 17.7731 11.6574C17.8488 11.6953 17.9204 11.7037 17.9962 11.6827C18.0298 11.649 18.0761 11.6237 18.1308 11.6111C18.1898 11.5985 18.2571 11.5817 18.3371 11.5606C18.316 11.5943 18.093 11.75 17.6595 12.0236C17.4995 12.133 17.3985 12.2593 17.3564 12.4066C17.5164 12.5623 17.71 12.6381 17.933 12.6381C18.1098 12.6381 18.3118 12.5918 18.5391 12.495C18.7958 12.3729 18.9768 12.2887 19.0862 12.2424L19.0946 12.2551ZM11.9818 5.56733C12.0029 5.64309 11.9987 5.71465 11.965 5.7862C11.9355 5.85774 11.8808 5.94191 11.8093 6.04292C11.6956 6.14393 11.5778 6.2239 11.46 6.27861C11.3421 6.33754 11.2201 6.36279 11.0896 6.36279C11.1359 6.28704 11.2453 6.20707 11.4179 6.11448C11.5904 6.02189 11.7041 5.9377 11.7672 5.85774C11.6536 5.82407 11.5399 5.80723 11.4221 5.80723C11.3211 5.80723 11.2411 5.81987 11.178 5.84091C11.119 5.86616 11.0643 5.90825 11.018 5.96717H10.9759C10.9886 5.87458 11.018 5.7904 11.0601 5.71464C11.1022 5.63888 11.1653 5.58838 11.2411 5.56313C11.3169 5.53788 11.401 5.52104 11.4894 5.52104C11.5441 5.52104 11.6367 5.52945 11.7672 5.54208C11.8977 5.55471 11.9692 5.56313 11.9734 5.56313L11.9818 5.56733ZM12.3059 8.54714C12.3185 8.60185 12.327 8.63974 12.327 8.65657C12.327 8.73233 12.2975 8.83333 12.2344 8.95959C12.2007 9.01851 12.1712 9.07744 12.1418 9.13215C12.1291 9.13215 12.0913 9.14057 12.0239 9.16161C11.9608 9.18266 11.9103 9.17845 11.8766 9.1532C11.7546 9.06061 11.6956 8.92592 11.6956 8.74915C11.6956 8.70706 11.7041 8.65657 11.7167 8.58923C11.7756 8.43351 11.8219 8.31987 11.8472 8.24411C11.9019 8.12205 11.9608 8.01262 12.0281 7.91161C12.0281 7.93687 11.986 8.07154 11.8977 8.31565C11.8556 8.42508 11.8387 8.51347 11.8387 8.58923C11.8387 8.71128 11.8935 8.80808 11.9987 8.88384C12.0871 8.89646 12.1502 8.8628 12.1923 8.78283C12.2344 8.70286 12.268 8.6229 12.3017 8.55135L12.3059 8.54714Z" fill="currentColor"/>
</svg>
