<svg width="40" height="16" viewBox="0 0 40 16" fill="none" xmlns="http://www.w3.org/2000/svg">
<path fill-rule="evenodd" clip-rule="evenodd" d="M32.2143 5.31144C32.201 5.24933 32.161 5.17391 32.0989 5.08962C32.0013 4.96096 31.9436 4.88553 31.9303 4.86779C31.886 5.00089 31.8593 5.14286 31.846 5.28927C31.8327 5.43567 31.8238 5.59094 31.8238 5.76397C31.8238 5.96361 31.8593 6.41615 31.9303 7.126C31.9658 7.48092 31.9836 7.76487 31.9836 7.97782C32.0057 8.17747 32.0235 8.38155 32.0368 8.59007C32.0501 8.79859 32.059 9.01154 32.059 9.2245C32.059 9.62822 32.0324 10.0009 31.9791 10.3381C31.9259 10.6752 31.8372 11.0035 31.7085 11.323C31.7307 11.0124 31.7396 10.7107 31.7396 10.4268C31.7396 10.0142 31.7396 9.68589 31.7307 9.44188C31.7218 9.19787 31.7174 8.96273 31.7085 8.74534L31.2826 4.16682C31.2249 4.08696 31.1983 4.01597 31.1983 3.95386C31.1983 3.874 31.2249 3.78971 31.2737 3.69654C31.4246 3.42148 31.4955 3.27507 31.4955 3.26176C31.6508 3.56788 31.8061 3.874 31.9658 4.17569C32.1522 4.57498 32.2409 4.89441 32.2409 5.13399C32.2409 5.16948 32.232 5.23159 32.2187 5.31589L32.2143 5.31144ZM30.3731 5.12068C30.3021 5.10737 30.2222 5.03638 30.1291 4.90772C30.0847 4.85004 30.0448 4.79236 30.0004 4.72582C30.0004 5.10736 30.0581 5.7418 30.169 6.62024C30.2844 7.49867 30.3376 8.16416 30.3376 8.61225V9.09139C30.3154 9.22005 30.3021 9.31323 30.2932 9.36647C30.2311 9.85449 30.098 10.276 29.8984 10.622C29.6721 11.0213 29.3394 11.3585 28.909 11.6335C28.248 11.7755 27.5914 11.9219 26.9392 12.0683C27.13 11.9352 27.5204 11.7223 28.1104 11.4295C28.6295 11.1677 29.0199 10.9326 29.2817 10.7285C29.6721 10.4179 29.9472 10.0497 30.1025 9.63265C30.0315 9.00266 29.9649 8.36824 29.8984 7.73824C29.8141 7.00621 29.7298 6.37179 29.6411 5.83053C29.5346 5.16948 29.4104 4.55279 29.2684 3.97604C29.3394 3.81188 29.3882 3.69211 29.4192 3.61225C29.4813 3.4614 29.5523 3.35493 29.6322 3.29281C29.7742 3.59006 29.9161 3.88731 30.0581 4.17569C30.2001 4.49512 30.3021 4.80567 30.3687 5.11179L30.3731 5.12068ZM29.712 9.95653C29.7342 9.85892 29.7475 9.75687 29.7564 9.65927C29.7653 9.56167 29.7653 9.4685 29.7653 9.3842C29.7653 8.79414 29.5523 8.19521 29.1264 7.58296C28.949 7.32564 28.5053 6.81101 27.7955 6.03905C27.2187 5.41349 26.8327 4.88553 26.6331 4.45075C26.6686 4.40639 26.7351 4.41526 26.8283 4.4685C26.9214 4.52174 26.9924 4.52174 27.0368 4.47294C26.9214 4.30435 26.7307 4.10914 26.46 3.89618C26.1051 3.60337 25.901 3.43921 25.8522 3.39485C25.7812 3.59449 25.7458 3.78527 25.7458 3.97161C25.7458 4.10027 25.7635 4.21561 25.799 4.32209C25.8345 4.42856 25.8966 4.52618 25.9809 4.61047C26.2382 5.12068 26.6996 5.74179 27.3651 6.47382C28.1814 7.37001 28.6916 7.96451 28.9002 8.26176C29.3837 8.96273 29.6233 9.64597 29.6233 10.307C29.6588 10.2804 29.681 10.2183 29.6854 10.1251C29.6943 10.0319 29.6987 9.97427 29.7076 9.95653H29.712ZM24.3571 3.91837C24.3571 4.22893 24.2063 4.47737 23.909 4.65483C23.8647 4.69032 23.7937 4.70808 23.6961 4.70808C23.6473 4.70808 23.594 4.6992 23.5364 4.68589C23.5142 4.60159 23.5053 4.51286 23.5053 4.41969C23.5053 4.19786 23.5674 3.95385 23.6961 3.68322C23.7404 3.59005 23.8647 3.3638 24.0776 3C23.9578 3.24845 23.8735 3.43478 23.8203 3.55457C23.7227 3.78083 23.6694 3.9716 23.6694 4.13132C23.6694 4.2511 23.6872 4.35315 23.7227 4.42857C23.8913 4.42857 24.051 4.35758 24.193 4.21561C24.1797 4.16681 24.1042 4.07808 23.9711 3.94942C23.909 3.88731 23.8735 3.83407 23.8735 3.79858C23.8735 3.7409 23.9046 3.68322 23.9711 3.62998C24.0332 3.62998 24.0998 3.65661 24.1663 3.70985C24.2329 3.76309 24.295 3.83408 24.3527 3.91837H24.3571ZM26.2737 6.38953C26.3003 6.43833 26.3003 6.50489 26.2737 6.58031C26.2471 6.66017 26.2205 6.73115 26.1983 6.80214C26.1717 6.82876 26.1406 6.85537 26.114 6.87755C26.0519 6.92635 25.9898 6.94854 25.9321 6.93967C25.8256 6.81101 25.7724 6.65128 25.7724 6.46051C25.7724 6.31854 25.7946 6.17214 25.8345 6.02574C25.8478 5.96806 25.8966 5.83496 25.9853 5.62201C25.9853 5.67968 25.972 5.78172 25.941 5.93256C25.9143 6.0834 25.8966 6.19876 25.8966 6.28305C25.8966 6.44721 25.941 6.57586 26.0253 6.66459C26.0962 6.66459 26.1495 6.62466 26.185 6.54037C26.2205 6.46051 26.2471 6.40728 26.2693 6.3851L26.2737 6.38953ZM25.0492 5.46229C25.0049 5.58207 24.9516 5.69298 24.8851 5.79059C24.8185 5.88819 24.7253 6.01242 24.6144 6.15439C24.5878 6.04791 24.4636 5.95031 24.2506 5.85715C24.0377 5.76398 23.9534 5.65306 23.9933 5.51552C24.0421 5.4889 24.1131 5.39574 24.2018 5.24046C24.2906 5.08518 24.366 5.00532 24.4325 5.00532C24.4902 5.00532 24.5568 5.04525 24.6366 5.12068C24.7431 5.17835 24.823 5.21828 24.8718 5.24934C24.9694 5.30702 25.0315 5.37799 25.0537 5.46229H25.0492ZM30.6703 11.6602C30.5994 11.6957 30.5372 11.7223 30.484 11.74C30.4308 11.7578 30.3775 11.7666 30.3199 11.7666C30.2045 11.7666 30.1069 11.7223 30.0226 11.638C29.996 11.6158 29.9694 11.5936 29.9516 11.567C29.9339 11.5404 29.925 11.5182 29.925 11.496C29.925 11.4738 29.9516 11.4516 30.0004 11.4339C30.1069 11.4472 30.1779 11.496 30.2134 11.5714C30.311 11.5138 30.3731 11.4295 30.3953 11.3141C30.3465 11.2343 30.2799 11.1988 30.1912 11.1988C30.1025 11.1988 30.0226 11.2343 29.9427 11.3008C29.8629 11.3674 29.8008 11.4428 29.7653 11.5182C29.7298 11.567 29.712 11.6158 29.712 11.6557C29.712 11.7178 29.7342 11.7799 29.7742 11.8376C29.8185 11.8953 29.8673 11.9441 29.925 11.9885C29.9161 11.9973 29.8895 12.0284 29.8451 12.0861C29.8008 12.1437 29.7786 12.197 29.7875 12.2458C30.0004 12.1393 30.2134 12.0373 30.4263 11.9352C30.5594 11.8642 30.6437 11.7711 30.6703 11.6602ZM30.8079 12.1083C30.7458 12.2147 30.6393 12.3168 30.4884 12.4188C30.4396 12.4454 30.2444 12.5386 29.9028 12.6939C29.7875 12.7427 29.6721 12.8092 29.5523 12.8847C29.61 12.7693 29.6854 12.6761 29.7742 12.6007C29.8673 12.5253 29.9871 12.4587 30.138 12.3922C30.555 12.2147 30.7813 12.1171 30.8079 12.1038V12.1083ZM23.0661 6.41172C23.0794 6.4827 23.0794 6.55369 23.0616 6.62024C23.0439 6.68678 22.9907 6.79769 22.9064 6.9441C22.8709 6.98846 22.8265 7.00621 22.7777 7.00621C22.7511 7.00621 22.7067 6.9929 22.649 6.96185C22.5559 6.8465 22.5115 6.7134 22.5115 6.55812C22.5115 6.42946 22.547 6.28305 22.618 6.11446C22.689 5.94587 22.76 5.79059 22.8309 5.63975C22.8309 5.68411 22.7866 5.83052 22.7023 6.08784C22.6579 6.2165 22.6402 6.31411 22.6402 6.3851C22.6402 6.53594 22.72 6.64242 22.8842 6.70453C22.9419 6.60693 22.9995 6.50488 23.0661 6.40728V6.41172ZM19.8185 4.92103C19.7475 5.0763 19.681 5.23158 19.6144 5.3913C19.7076 5.21384 19.752 5.00533 19.752 4.76132C19.752 4.56167 19.7209 4.36645 19.6632 4.17125C19.6011 3.97604 19.5168 3.78971 19.4015 3.61225L19.5168 3.34605C19.7653 3.67436 19.8895 4.03816 19.8895 4.44188C19.8895 4.61047 19.8629 4.77018 19.8141 4.92103H19.8185ZM28.3988 8.82963C27.1122 8.4614 25.8301 8.09317 24.5435 7.72049C24.4592 7.70718 24.3305 7.69832 24.1619 7.69832C23.8913 7.69832 23.6295 7.74268 23.3678 7.83141C23.1104 7.92014 22.8531 8.06212 22.6047 8.25289C22.4849 8.46584 22.3917 8.68767 22.3207 8.91393C22.2542 9.14019 22.2187 9.36646 22.2187 9.59716C22.2187 9.85892 22.2719 10.1029 22.3784 10.3336C22.1921 10.2715 22.0324 10.1429 21.8993 9.95208C21.8017 9.81011 21.7129 9.62821 21.6331 9.41082C21.5177 8.25288 21.4556 7.59184 21.4423 7.41881C21.3802 6.75776 21.3181 6.09672 21.2604 5.4268C21.1805 4.65927 21.1096 4.01153 21.0474 3.47914C20.9321 3.63442 20.8522 3.79857 20.8079 3.97604C20.7635 4.14906 20.7369 4.34427 20.7369 4.55722C20.7369 4.748 20.8034 5.22715 20.941 5.99468C20.9986 6.31411 21.0253 6.58918 21.0253 6.81545C21.0164 6.87312 21.0164 6.96184 21.0164 7.08163C21.0164 7.20142 21.0341 7.45875 21.0741 7.8536C21.114 8.24845 21.1317 8.52351 21.1317 8.67879C21.1317 8.91837 21.1007 9.14464 21.043 9.35316C20.9809 9.56168 20.8788 9.74357 20.728 9.90329L20.7502 9.12689C20.7502 8.58563 20.5461 8.02662 20.1424 7.44543C19.956 7.1748 19.539 6.68678 18.8868 5.97693C18.3411 5.38243 17.9685 4.87666 17.7688 4.46406L18.279 4.62378C17.9019 4.17125 17.476 3.76308 17.0013 3.40816C16.9037 3.57675 16.8505 3.75422 16.8505 3.93168C16.8505 4.20231 17.0279 4.57941 17.3828 5.05856C17.5869 5.33362 17.7289 5.55103 17.8087 5.70631C17.9995 6.03461 18.3633 6.47382 18.8957 7.02839C19.4547 7.61845 19.8363 8.05768 20.0359 8.35049C20.382 8.8607 20.5594 9.36647 20.5594 9.86336C20.5594 9.93435 20.5505 10.0319 20.5372 10.1606C20.1734 10.5732 19.712 10.9547 19.1442 11.3097C18.634 11.6025 18.1237 11.8953 17.6224 12.1926C17.6934 12.1926 17.9862 12.1038 18.4964 11.9264C18.7005 11.8554 18.8957 11.8199 19.0732 11.8199C19.5789 11.7267 20.0403 11.4605 20.4574 11.0213C20.8256 10.6398 21.1051 10.1872 21.3003 9.66815C21.4068 10.0808 21.4778 10.3336 21.5133 10.4357C21.6198 10.7063 21.7795 10.9193 21.9924 11.0745C22.0279 11.1012 22.1788 11.15 22.4494 11.2121C22.6269 11.2564 22.7245 11.3407 22.7378 11.4694C22.76 11.4561 22.7688 11.425 22.7688 11.3718C22.7688 11.3274 22.7777 11.2964 22.791 11.2742C23.3589 11.2742 23.9844 11.1233 24.6632 10.8261C25.2311 10.5555 25.799 10.2848 26.3669 10.0053C27.0324 9.71251 27.6535 9.57055 28.2214 9.57055L28.4033 8.83408L28.3988 8.82963ZM25.6082 12.4055C25.1956 12.8048 24.7076 13 24.1397 13C24.0244 13 23.9356 13 23.8735 12.9911C23.8114 12.9823 23.7227 12.9645 23.6073 12.929C23.5275 12.8669 23.4831 12.8181 23.4654 12.7871C23.4476 12.756 23.4387 12.7161 23.4387 12.6628C23.4387 12.6185 23.4476 12.5874 23.4609 12.5652C23.5408 12.4499 23.6251 12.3523 23.7227 12.2724C23.8203 12.1926 23.9356 12.1127 24.0776 12.0328C23.9844 11.9618 23.8824 11.9264 23.7671 11.9264C23.7094 11.9264 23.6694 11.9352 23.6517 11.9485L23.6073 11.9707L23.5763 11.9485C23.6029 11.8642 23.6517 11.8021 23.7183 11.7666C23.7848 11.7311 23.8602 11.7134 23.949 11.7134C24.0466 11.7134 24.1442 11.7311 24.2373 11.7666C24.3172 11.8154 24.3527 11.8465 24.3527 11.8509C24.366 12.0018 24.2551 12.1349 24.0155 12.2591C23.7759 12.3833 23.6606 12.4676 23.6606 12.5075C23.6606 12.5697 23.7493 12.6495 23.9268 12.7427C24.0466 12.7649 24.1619 12.7737 24.2684 12.7737C24.4813 12.7737 24.712 12.7338 24.9605 12.6584C25.0403 12.6362 25.2533 12.5519 25.6082 12.4011V12.4055ZM15.8567 3.87843C15.8212 3.9716 15.7901 4.06478 15.7591 4.15351L15.5461 3.94055C15.4751 4.03815 15.4308 4.23779 15.4086 4.53061C15.3864 4.82342 15.3287 5.02307 15.2267 5.12068C15.1779 5.07631 15.0936 4.89884 14.9693 4.58828C14.8851 4.36645 14.7431 4.27773 14.5434 4.31322C14.4991 4.2866 14.468 4.24223 14.4414 4.18455C14.4148 4.12688 14.4192 4.07365 14.4458 4.02484C14.4547 4.01597 14.4725 3.9716 14.4991 3.89174C14.5257 3.81188 14.5701 3.75865 14.6277 3.73647C14.783 3.78084 14.9028 3.90506 14.9915 4.10914C15.1113 4.40195 15.1912 4.56611 15.2267 4.61047C15.2755 4.30435 15.3243 4.06921 15.3686 3.90949C15.413 3.74534 15.4796 3.66548 15.5638 3.66548C15.6082 3.66548 15.6481 3.6788 15.6925 3.70985C15.7369 3.73647 15.7901 3.79414 15.8522 3.87843H15.8567ZM15.5683 6.62466C15.5905 6.66903 15.5993 6.70896 15.5993 6.75333C15.5993 6.80213 15.5816 6.86424 15.5461 6.93523C15.5106 7.00621 15.484 7.06389 15.4618 7.10382C15.4396 7.14818 15.4041 7.16592 15.3553 7.16592C15.3287 7.16592 15.2843 7.15261 15.2267 7.12156C15.1335 7.00177 15.0891 6.85537 15.0891 6.68678C15.0891 6.55812 15.1202 6.41171 15.1867 6.23868C15.2134 6.15439 15.2755 6.01685 15.3686 5.83496C15.3243 5.97693 15.2977 6.0834 15.2843 6.15439C15.2489 6.29636 15.2311 6.41171 15.2311 6.50488C15.2311 6.66903 15.2843 6.79326 15.3908 6.87755C15.4396 6.86424 15.4751 6.81987 15.4973 6.74889C15.5195 6.6779 15.5417 6.63355 15.5727 6.62024L15.5683 6.62466ZM13.9401 4.57053C13.7892 4.94764 13.5851 5.25821 13.3234 5.50665C13.0128 5.79947 12.6712 5.94144 12.303 5.94144L12.2808 5.91925C12.6091 5.69299 12.933 5.46672 13.2613 5.23602C13.0927 5.19165 12.8975 5.17391 12.6756 5.17391C12.5071 5.17391 12.3473 5.19166 12.2054 5.23159C12.0634 5.27152 11.9392 5.33807 11.8327 5.4268C11.8904 5.22715 11.9791 5.04525 12.1033 4.88554C12.2276 4.72139 12.3828 4.61491 12.5647 4.56611C12.8132 4.53061 13.0394 4.51287 13.248 4.51287C13.3323 4.51287 13.4166 4.51286 13.492 4.5173C13.5718 4.5173 13.7182 4.53505 13.9401 4.56611V4.57053ZM11.2249 4.47294C11.2027 4.60604 11.1761 4.71694 11.1406 4.7968C11.1051 4.87666 11.043 4.93878 10.9498 4.98314C10.8921 4.99202 10.8345 4.97427 10.7812 4.92991C10.7236 4.88554 10.6925 4.84117 10.6792 4.7968C10.6659 4.75244 10.6614 4.69033 10.6614 4.61934C10.6614 4.4685 10.7014 4.30878 10.7768 4.13132C10.799 4.08252 10.8744 3.93612 11.0119 3.69654C11.0119 3.75866 10.9676 3.90505 10.8744 4.13132C10.8256 4.2511 10.799 4.34427 10.799 4.40638C10.799 4.51286 10.8478 4.61047 10.9498 4.70364C11.0119 4.71251 11.0607 4.67258 11.0874 4.59272C11.114 4.51287 11.1628 4.4685 11.2249 4.4685V4.47294ZM19.3083 8.4126C19.2107 8.76752 19.0998 9.04259 18.98 9.23336C18.8114 9.50843 18.594 9.70807 18.3323 9.82786C17.8975 9.9787 17.4361 10.0941 16.9481 10.1828C16.46 10.2715 15.9853 10.3159 15.5328 10.3159C15.3908 10.3159 15.2444 10.3159 15.098 10.307C14.9472 10.2981 14.8052 10.2848 14.6632 10.2626C14.4237 10.7107 14.224 11.039 14.0732 11.2476C13.9223 11.4561 13.7404 11.6114 13.5363 11.709C13.004 12.0639 12.4804 12.339 11.9702 12.5297C11.3757 12.756 10.799 12.8713 10.2444 12.8713C9.97378 12.8713 9.7209 12.8447 9.48132 12.7915C9.24175 12.7383 9.01105 12.6539 8.78478 12.543C8.51415 12.3878 8.31451 12.1704 8.19028 11.8953C8.06162 11.6202 7.99951 11.3008 7.99951 10.9459C7.99951 10.5333 8.12374 10.0674 8.37218 9.5528C8.50084 9.29104 8.6295 9.02928 8.76704 8.76309C8.68718 8.64774 8.63394 8.51908 8.59845 8.37267C8.56296 8.22626 8.54521 8.07986 8.54521 7.92901C8.54521 7.70719 8.57183 7.49423 8.62063 7.29015C8.64281 7.19698 8.75373 6.85537 8.96225 6.26974C9.13084 5.90151 9.2595 5.62201 9.34379 5.44011C9.49907 5.10737 9.64548 4.83673 9.77857 4.63265C9.74308 4.76131 9.56562 5.19166 9.24619 5.91925C9.01992 6.44277 8.90457 6.88643 8.90457 7.24135C8.90457 7.37445 8.91344 7.4898 8.92675 7.5874C8.94006 7.68501 8.97112 7.80036 9.02436 7.93345C9.08203 7.99557 9.14414 8.04881 9.21513 8.08874C9.28611 8.12867 9.35266 8.13754 9.41921 8.11536C9.49907 8.08874 9.57449 7.99113 9.65435 7.82698C9.69871 7.74269 9.74752 7.68057 9.80519 7.64508C9.7209 8.07099 9.64548 8.35049 9.58336 8.48802C9.49907 8.65661 9.37928 8.79858 9.23288 8.90506C9.19738 8.92725 9.15302 8.93612 9.10422 8.93612C9.04654 8.93612 9.00217 8.91836 8.96668 8.88287C8.73154 9.26442 8.57626 9.57942 8.49641 9.81899C8.41655 10.0586 8.38106 10.2893 8.38106 10.5022C8.38106 10.6575 8.3988 10.8039 8.43873 10.937C8.47866 11.0701 8.54521 11.2076 8.63394 11.3407C8.82471 11.6114 9.06872 11.8021 9.3571 11.9175C9.64991 12.0328 9.96935 12.0861 10.3154 12.0861C10.4352 12.0861 10.5683 12.0816 10.7147 12.0683C10.8611 12.0595 11.0208 12.0373 11.1983 12.0107C11.775 11.8909 12.3163 11.7001 12.8265 11.4472C13.3367 11.1943 13.7892 10.8705 14.1796 10.48L13.8158 9.03373L14.1796 8.47027C14.2506 8.67436 14.3083 8.82964 14.3571 8.93168C14.4015 9.03372 14.4636 9.12245 14.5434 9.19344C14.9472 8.78971 15.3509 8.38599 15.7591 7.97782C16.2648 7.52973 16.7484 7.3079 17.2187 7.3079C17.3695 7.3079 17.5292 7.33009 17.6978 7.37002C18.1016 7.5253 18.3988 7.66282 18.594 7.77373C18.9046 7.95119 19.153 8.16415 19.3305 8.4126H19.3083ZM16.2959 12.0772C16.2604 12.0905 16.2249 12.1393 16.1938 12.2147C16.1628 12.2902 16.1406 12.3434 16.1229 12.3656C16.0519 12.3212 16.0031 12.2724 15.9809 12.2147C15.9543 12.1571 15.9454 12.0949 15.9454 12.024C15.9454 11.9441 15.9764 11.8154 16.0341 11.6335C16.0962 11.4516 16.1229 11.323 16.1229 11.2431C16.0253 11.4561 15.9543 11.6291 15.9099 11.7666C15.8478 11.9707 15.8123 12.1659 15.8123 12.3434C15.8256 12.4011 15.8478 12.4632 15.8833 12.5342C15.9143 12.6052 15.972 12.6495 16.0607 12.6628C16.145 12.614 16.2072 12.5519 16.2426 12.4765C16.2781 12.4011 16.2959 12.268 16.2959 12.0772ZM12.9108 9.4064L12.7954 9.61047C12.7378 9.56167 12.7023 9.51287 12.6845 9.47294C12.6668 9.42858 12.6579 9.36647 12.6579 9.28217C12.6579 9.22006 12.6756 9.10914 12.7067 8.95386C12.7378 8.79858 12.7555 8.69655 12.7555 8.64331C12.7289 8.71429 12.6801 8.83851 12.618 9.01154C12.5559 9.18456 12.5204 9.33097 12.5204 9.45519C12.5204 9.59716 12.5603 9.73026 12.6357 9.85005C12.6845 9.87223 12.7289 9.88998 12.7644 9.90329C12.7999 9.9166 12.8265 9.91215 12.8398 9.8811C12.9019 9.7968 12.9374 9.68589 12.9374 9.5528C12.9374 9.50399 12.9285 9.45519 12.9152 9.41526L12.9108 9.4064ZM12.2187 7.27684C12.1832 7.26353 12.13 7.23247 12.059 7.19254C12.0013 7.17036 11.9436 7.16593 11.8904 7.18367C11.7218 7.33452 11.6153 7.58297 11.5798 7.9379C11.5709 8.05325 11.5576 8.22183 11.5355 8.4481C11.4733 8.38598 11.3669 8.18191 11.2249 7.84029C11.1184 7.58297 10.972 7.42325 10.7901 7.35227C10.7635 7.35227 10.7324 7.38331 10.7058 7.44099C10.6792 7.5031 10.657 7.55635 10.6437 7.60515C10.6304 7.65395 10.6215 7.71162 10.6215 7.77373C10.6215 7.85803 10.6659 7.92458 10.7502 7.97782C10.972 7.93346 11.1495 8.09317 11.2914 8.4481C11.3757 8.66993 11.46 8.81189 11.5355 8.88287C11.5576 8.83407 11.602 8.53682 11.673 7.98669C11.6996 7.76486 11.7528 7.60071 11.8327 7.48536C11.8771 7.48536 11.9259 7.49423 11.9835 7.51198C12.0412 7.52972 12.0945 7.54747 12.1433 7.56078C12.1566 7.53417 12.1788 7.48536 12.2054 7.42325C12.232 7.36114 12.2364 7.3079 12.2142 7.27241L12.2187 7.27684ZM10.4174 9.94766C10.3819 9.94766 10.3553 9.97427 10.3331 10.0231C10.311 10.0719 10.2755 10.0896 10.2267 10.0763C10.1468 10.0053 10.1113 9.92546 10.1113 9.84117C10.1113 9.78349 10.1291 9.70364 10.1646 9.59716C10.2 9.49069 10.2178 9.41083 10.2178 9.36203C10.1335 9.44189 10.0714 9.53949 10.0359 9.65484C10.0004 9.77019 9.98265 9.89441 9.98265 10.0231C9.98265 10.0941 9.99153 10.1562 10.0093 10.2094C10.027 10.2627 10.0625 10.3115 10.1202 10.3514C10.1779 10.3958 10.2355 10.3957 10.3021 10.3603C10.3731 10.2272 10.413 10.134 10.4263 10.0852C10.4396 10.0364 10.4352 9.98759 10.4219 9.94766H10.4174ZM26.358 9.21119C26.0962 9.36647 25.8345 9.51286 25.5816 9.64596C25.2755 9.81011 25.0049 9.93878 24.7742 10.0275C24.1619 10.276 23.4875 10.4002 22.7422 10.4002C22.7422 10.378 22.7422 10.3425 22.7511 10.2937C22.7511 10.1784 22.7156 10.0098 22.6446 9.78349C22.5736 9.55723 22.5381 9.38865 22.5381 9.28217C22.5381 9.1757 22.5603 9.07809 22.6091 8.98936C22.6535 8.90063 22.7333 8.8252 22.8398 8.75865C23.004 8.66104 23.1681 8.59006 23.3278 8.55457C23.492 8.51908 23.6694 8.50133 23.8602 8.50133C24.2595 8.50133 24.7919 8.62556 25.4663 8.874C26.043 9.08696 26.3403 9.19787 26.3624 9.2023L26.358 9.21119ZM18.7227 8.98936C18.3056 9.16682 17.8709 9.30435 17.4228 9.39751C16.9747 9.49068 16.5221 9.53949 16.0607 9.53949C15.5993 9.53949 15.2178 9.49955 14.8451 9.42413C15.3065 8.92724 15.5949 8.62999 15.7058 8.52795C16.0829 8.20852 16.4423 8.04881 16.7928 8.04881C16.8726 8.04881 16.9525 8.05768 17.0412 8.07099C17.13 8.0843 17.2187 8.11092 17.303 8.14641C17.6091 8.24402 17.862 8.3505 18.0572 8.46585C18.3056 8.60782 18.5275 8.78084 18.7182 8.98936H18.7227Z" fill="currentColor"/>
</svg>
