<svg width="40" height="16" viewBox="0 0 40 16" fill="none" xmlns="http://www.w3.org/2000/svg">
<path fill-rule="evenodd" clip-rule="evenodd" d="M32.0191 5.16181L31.6537 4.6703L31.558 4.79643C31.558 5.13571 31.5972 5.57068 31.6711 6.09265C31.8451 7.27577 31.9321 8.02392 31.9321 8.3371C31.9321 9.0896 31.906 9.66812 31.8494 10.0683C31.7668 10.6859 31.5972 11.2253 31.3362 11.6864C31.4406 11.4993 31.5102 11.2862 31.5493 11.0426C31.5885 10.8034 31.6059 10.5337 31.6059 10.2336C31.6059 10.0248 31.6059 9.81601 31.5972 9.61157C31.5885 9.40714 31.5841 9.19835 31.5754 8.98956L31.0621 4.23967C31.0621 4.23967 31.0882 4.20487 31.0926 4.18312C31.1013 4.15703 31.1013 4.13963 31.1013 4.12658C31.1013 4.08308 31.0839 4.03089 31.0447 3.96129C31.0056 3.89169 30.9882 3.8395 30.9882 3.8047C30.9882 3.7786 31.0056 3.73946 31.0404 3.69161C31.1578 3.52632 31.2753 3.35233 31.3971 3.17834C31.5841 3.60896 31.719 3.93519 31.7929 4.14832C31.9408 4.5311 32.0104 4.87038 32.0104 5.16181H32.0191ZM27.8521 3C27.8608 3.05655 27.839 3.10874 27.7955 3.15659C27.752 3.20444 27.6955 3.24359 27.6346 3.26969C26.4297 3.70901 25.2292 4.14398 24.033 4.5746C24.033 4.50501 24.0765 4.43106 24.1678 4.35712C24.2113 4.32232 24.2896 4.27447 24.4071 4.20922C25.5554 3.8047 26.7037 3.40017 27.8521 3ZM26.7864 5.78817C26.7516 5.81427 26.7124 5.83167 26.6733 5.83167C26.6254 5.83167 26.5645 5.81427 26.4906 5.78382C26.4166 5.75337 26.3731 5.73598 26.3601 5.73598C26.2905 5.73598 26.247 5.80122 26.2253 5.93606C26.1818 6.00565 26.1035 6.04045 25.986 6.04045C25.9164 6.04045 25.8686 6.04045 25.8381 6.03175C25.7685 5.97521 25.7163 5.90127 25.6815 5.80557C25.6467 5.70988 25.6293 5.61853 25.6293 5.52719C25.6293 5.3793 25.6685 5.20096 25.7424 4.98348C25.7772 4.89213 25.812 4.80078 25.8468 4.71379C25.8555 4.73989 25.8555 4.78339 25.8555 4.83993C25.8555 4.91823 25.8425 5.02262 25.8207 5.15746C25.7946 5.2923 25.7859 5.3793 25.7859 5.41409C25.7859 5.56198 25.8468 5.67508 25.9643 5.75773C26.1296 5.75773 26.234 5.69683 26.2775 5.57068C26.2775 5.50109 26.2775 5.42279 26.2688 5.34015C26.2601 5.2575 26.2601 5.20966 26.2601 5.20531C26.2601 5.08787 26.2949 4.98347 26.3645 4.89213C26.3775 4.91823 26.3862 4.95303 26.3862 4.98782V5.09222C26.3862 5.25316 26.3992 5.36625 26.421 5.43584C26.4471 5.50544 26.5254 5.54024 26.6559 5.54024C26.6776 5.51849 26.6863 5.48804 26.6863 5.44455C26.6863 5.40105 26.6776 5.34015 26.6602 5.26186C26.6428 5.18356 26.6341 5.13571 26.6341 5.12266C26.6341 5.04437 26.6689 4.99217 26.7385 4.95737C26.7603 5.04002 26.782 5.13571 26.7994 5.24011C26.8212 5.3445 26.8299 5.43149 26.8299 5.50109V5.66638C26.8081 5.72727 26.7951 5.77077 26.7864 5.79252V5.78817ZM27.9869 6.74946C27.9869 6.74946 27.9129 6.8843 27.8086 7.09308C27.7303 7.24097 27.6563 7.34972 27.578 7.42801C27.5432 7.33232 27.4258 7.23228 27.2213 7.13658C27.0213 7.04089 26.9169 6.95389 26.9169 6.8756C26.9169 6.806 26.9604 6.72771 27.043 6.64506C27.0648 6.63202 27.0996 6.57982 27.1474 6.48847C27.23 6.33623 27.304 6.25794 27.3649 6.25794C27.4084 6.25794 27.4606 6.29274 27.5215 6.36234C27.6346 6.44063 27.7129 6.49282 27.7607 6.52762C27.8564 6.59722 27.9303 6.67116 27.9782 6.74511L27.9869 6.74946ZM29.8051 7.71074C29.7833 7.5933 29.6963 7.21053 29.5441 6.56242C29.3571 5.74032 29.2396 5.10962 29.1874 4.67464L29.2483 4.4963C29.2962 4.50935 29.3962 4.592 29.5397 4.73554C29.6006 4.79644 29.6572 4.83558 29.705 4.84863C29.6615 4.592 29.5397 4.28752 29.331 3.93954C29.0439 3.46107 28.8873 3.18269 28.8525 3.1131C28.8438 3.12615 28.7959 3.21314 28.7046 3.37408C28.5915 3.56981 28.5393 3.7177 28.5393 3.8221C28.5393 3.93519 28.5915 4.03958 28.6959 4.13528C28.7524 4.59635 28.8394 5.14006 28.9569 5.77512C29.0265 6.1492 29.1309 6.69726 29.2744 7.41497C29.418 8.13267 29.518 8.65898 29.5832 8.98956C29.6267 9.27664 29.6659 9.55937 29.7094 9.84646C29.7094 9.95955 29.6833 10.0552 29.6311 10.1335C29.5789 10.2118 29.4919 10.2727 29.3658 10.3075C29.1483 10.3684 29.0134 10.4076 28.9569 10.4206C28.7829 10.4641 28.6394 10.4815 28.5306 10.4815C28.4132 10.4815 28.3088 10.4685 28.2218 10.438C28.1348 10.4119 28.0565 10.3597 27.9869 10.2901C27.9608 10.2336 27.9434 10.1727 27.9434 10.1031C27.9434 10.0552 27.9608 9.9639 27.9912 9.83341C28.0217 9.70292 28.0304 9.59852 28.0173 9.52893L27.7868 9.50718C27.4258 9.70727 27.1257 9.86821 26.8908 9.98565C26.5428 10.1596 26.2209 10.2901 25.9295 10.3815C25.525 10.4989 25.1596 10.5598 24.8333 10.5598C24.5071 10.5598 24.1983 10.5076 23.8721 10.4032C23.4893 10.2205 23.224 9.90301 23.0804 9.44194C22.9978 9.01566 22.9151 8.59374 22.8281 8.16747L22.3888 3.37408C22.3062 3.48717 22.2235 3.59591 22.1496 3.70901C22.0539 3.86125 22.0017 4.00044 22.0017 4.12658C22.0017 4.22228 22.0191 4.30926 22.0539 4.37886L22.515 8.92867C22.6411 9.65072 22.7498 10.1205 22.8368 10.338C23.0456 10.8469 23.3892 11.1601 23.8721 11.2775C24.1156 11.3341 24.3331 11.3602 24.5289 11.3602C24.7507 11.3602 24.9638 11.3384 25.1639 11.2993C25.364 11.2558 25.6032 11.1905 25.8729 11.0948C26.1426 10.9991 26.508 10.8382 26.9691 10.6077C27.2126 10.4815 27.4301 10.3728 27.6259 10.2858C27.6607 10.3336 27.6781 10.3815 27.6781 10.4337C27.6694 10.4815 27.665 10.5294 27.6563 10.5729C27.6476 10.6164 27.6476 10.6686 27.6476 10.7251C27.6476 10.786 27.6563 10.8425 27.6737 10.8904C27.6911 10.9382 27.7303 10.9904 27.7955 11.047C27.8173 11.0687 27.9129 11.1253 28.0869 11.2123C28.1826 11.2253 28.2522 11.234 28.2957 11.234H28.4219C28.6785 11.234 28.909 11.1949 29.1091 11.1122C29.3092 11.0339 29.4962 10.9034 29.6615 10.7294C29.7659 10.4772 29.8399 10.2205 29.879 9.95085C29.9225 9.68117 29.9399 9.41148 29.9399 9.1331C29.9399 8.91127 29.9269 8.68073 29.9051 8.44585C29.879 8.21096 29.8442 7.95868 29.7964 7.69335L29.8051 7.71074ZM24.4071 6.84515C24.3244 7.13224 24.2418 7.34537 24.1635 7.48891C24.0852 7.63245 23.9939 7.74989 23.8982 7.84994C24.0156 7.6629 24.1156 7.45411 24.1939 7.22792C24.2722 7.00174 24.3157 6.77991 24.3157 6.56677C24.3157 6.32319 24.2635 6.1057 24.1591 5.91866C24.1026 5.78817 24.0461 5.65333 23.9939 5.52284C23.9939 5.45324 24.0287 5.39669 24.0982 5.35755C24.3418 5.62723 24.4636 5.97521 24.4636 6.40148C24.4636 6.54067 24.4462 6.68856 24.4114 6.8495L24.4071 6.84515ZM26.5167 7.96303C26.4949 8.01957 26.4732 8.07612 26.4558 8.12832C26.434 8.18487 26.3992 8.21096 26.3514 8.21096C26.3297 8.21096 26.2992 8.20226 26.2557 8.18051C26.1165 8.23706 26.0252 8.41105 25.986 8.70683C25.9425 9.00261 25.899 9.194 25.8512 9.27664C25.6772 8.98521 25.5076 8.69378 25.3379 8.398L25.264 8.53284C25.2031 8.50674 25.1509 8.48499 25.1074 8.47194C25.0639 8.45889 25.0421 8.42845 25.0334 8.3893C25.0334 8.26316 25.0378 8.17181 25.0508 8.11092C25.0595 8.05002 25.0987 8.00218 25.1596 7.95868C25.3336 8.01523 25.4771 8.14572 25.5858 8.35451C25.6685 8.53719 25.7555 8.71118 25.8468 8.88517C25.8468 8.87647 25.8903 8.70248 25.973 8.3632C26.0208 8.14572 26.0991 7.98913 26.2035 7.88474C26.334 7.88474 26.4384 7.91083 26.5167 7.95868V7.96303ZM21.1187 6.01C21.0621 6.12745 21.023 6.21444 20.9926 6.27099C20.9447 6.37538 20.8795 6.45368 20.8055 6.51022C20.7794 6.46673 20.6837 6.41888 20.5228 6.35798C20.3618 6.29709 20.2966 6.21009 20.3227 6.09265L20.6359 5.54024C20.7664 5.59679 20.8708 5.63593 20.9404 5.66638C21.0708 5.72727 21.1404 5.80557 21.1404 5.89691C21.1404 5.94476 21.1317 5.9839 21.1187 6.01ZM20.6794 3.55676C20.5532 3.73945 20.3096 3.87865 19.9486 3.98304C19.4484 4.13093 19.1483 4.22662 19.0526 4.27447C18.1217 4.65725 17.1865 5.04002 16.2557 5.4228C16.2557 5.30535 16.2992 5.20531 16.3905 5.13137C16.4123 5.11832 16.5993 5.01827 16.956 4.82689C17.2126 4.73554 17.6737 4.57025 18.3349 4.32666C19.344 3.95259 20.127 3.69161 20.6837 3.55242L20.6794 3.55676ZM18.8525 5.63593C18.8655 5.57939 18.8394 5.52719 18.7698 5.47934C18.7002 5.4315 18.622 5.388 18.5306 5.3532C18.4349 5.43149 18.361 5.53154 18.3131 5.65768C18.2566 5.85341 18.2 6.0448 18.1478 6.23184C18.1043 6.1144 18.0652 5.99261 18.0217 5.86647C17.9303 5.60983 17.8042 5.4576 17.6476 5.41845C17.5867 5.46629 17.5432 5.52719 17.5171 5.59678C17.491 5.66638 17.4736 5.72292 17.4606 5.76207C17.6563 5.76207 17.7955 5.87517 17.8782 6.097C18.0086 6.44498 18.0782 6.62332 18.0869 6.62767C18.1913 6.51458 18.2783 6.31013 18.3479 6.01C18.3914 5.82731 18.4262 5.70553 18.461 5.63593L18.6394 5.74032C18.6872 5.77512 18.7263 5.77947 18.7524 5.75773C18.7785 5.73163 18.8133 5.69248 18.8568 5.63593H18.8525ZM15.899 5.13571L15.7729 5.388C15.8207 5.24881 15.8599 5.10961 15.8947 4.97042C15.9295 4.83123 15.9425 4.69639 15.9425 4.56155C15.9425 4.29187 15.8773 4.06568 15.7424 3.88299L15.8773 3.69596C16.0078 3.87865 16.0774 4.10918 16.0774 4.39626C16.0774 4.68334 16.0165 4.92258 15.899 5.13571ZM20.1487 8.91562C19.7224 9.1592 19.3049 9.39844 18.8873 9.63767C18.3914 9.91605 17.939 10.0552 17.5302 10.0552C17.3779 10.0552 17.2344 10.0422 17.1039 10.0117C16.8342 9.88126 16.6211 9.68117 16.4732 9.41148C16.3253 9.1418 16.247 8.85472 16.247 8.54154C16.4645 8.28491 16.7646 8.08917 17.1561 7.95868C17.5476 7.82819 17.9477 7.75859 18.3566 7.75859C18.4045 7.75859 18.4784 7.75859 18.5698 7.76294C18.6611 7.76729 18.7959 7.78034 18.9699 7.81079C18.8916 7.65855 18.7568 7.54111 18.5611 7.46716C18.4654 7.43236 18.287 7.38887 18.0304 7.34102C17.9695 7.32797 17.8738 7.31927 17.7477 7.31927C17.391 7.31927 17.0561 7.42801 16.7342 7.64115C16.4471 7.83688 16.1905 8.10222 15.9599 8.44585C15.8642 8.61114 15.812 8.80687 15.812 9.02871C15.812 9.25054 15.8555 9.48108 15.9469 9.71162C16.0382 9.9465 16.1513 10.164 16.2905 10.3728C16.0208 10.4206 15.7859 10.3075 15.5902 10.0291C15.3901 9.59852 15.2509 9.0809 15.1813 8.48499C15.1465 8.17181 15.1204 7.6281 15.0987 6.8582C15.0769 6.08395 15.0421 5.52284 14.9943 5.16616C14.9943 4.6007 14.9203 4.06133 14.7768 3.54807C14.6985 3.59157 14.6289 3.67856 14.568 3.80905C14.4767 3.99609 14.4245 4.10048 14.4114 4.12223C14.5419 4.94867 14.6376 5.61853 14.6942 6.12745C14.7768 6.87995 14.8203 7.55851 14.8203 8.16312C14.8203 8.84602 14.8508 9.35494 14.916 9.68552C15.0204 10.2292 15.2335 10.6685 15.5511 10.9991C15.7816 11.1253 16.0295 11.1862 16.3036 11.1862C16.5776 11.1862 16.8864 11.1166 17.2648 10.9774C17.3431 10.9513 17.6389 10.8251 18.1609 10.6033C18.2305 10.5468 18.5872 10.3641 19.2266 10.0509C19.4919 9.9204 19.6876 9.79426 19.8094 9.67682L20.1444 8.91562H20.1487ZM21.9016 11.5863C21.832 11.6994 21.732 11.8038 21.5972 11.8995C21.4928 11.9778 21.3623 12.0518 21.21 12.1301C20.923 12.2475 20.6446 12.3649 20.3662 12.4867C20.4445 12.3823 20.5489 12.2866 20.6794 12.1953C20.7751 12.1344 20.9143 12.0605 21.0926 11.9822C21.2709 11.9039 21.4058 11.843 21.4928 11.7995C21.6581 11.7212 21.7972 11.6516 21.9016 11.5907V11.5863ZM21.5798 9.69857C21.5798 10.1944 21.4058 10.6207 21.0578 10.9817C20.8273 11.2253 20.4401 11.495 19.9008 11.7864C19.2657 12.1344 18.8699 12.3693 18.7089 12.4867C17.839 12.652 16.9734 12.826 16.1078 13C17.0604 12.6303 17.9477 12.2258 18.7698 11.7777C19.6833 11.2819 20.5097 10.7381 21.2535 10.1379C21.1361 9.78991 21.0186 9.44193 20.9099 9.09396C20.8403 8.87212 20.7968 8.69813 20.7838 8.57199C20.7707 8.44585 20.762 8.34146 20.762 8.25881C20.762 8.11092 20.7794 7.97608 20.8142 7.84994C20.849 7.7238 20.9099 7.59765 20.9926 7.47586C21.1752 7.60635 21.3231 7.77164 21.4406 7.96303C21.558 8.15442 21.6059 8.33276 21.5754 8.5024C21.5493 8.51544 21.5145 8.50239 21.4797 8.4589C21.4449 8.4154 21.4145 8.398 21.384 8.398C21.3579 8.47629 21.3405 8.55459 21.3405 8.63724C21.3405 8.75033 21.3797 8.92431 21.4536 9.1592C21.5319 9.39408 21.5667 9.57677 21.5667 9.70291L21.5798 9.69857ZM13.1979 4.43541C13.1979 4.51805 13.1848 4.592 13.1631 4.65289C13.137 4.71379 13.1109 4.77469 13.0761 4.83123C13.0326 4.85298 12.9978 4.86168 12.963 4.86168C12.9064 4.86168 12.8586 4.84428 12.8151 4.80514C12.7716 4.76599 12.7368 4.71814 12.7107 4.65289C12.702 4.6094 12.702 4.5485 12.702 4.46586C12.702 4.17443 12.7716 3.93954 12.9108 3.76555C12.889 3.8569 12.8716 3.93954 12.8586 4.01784C12.8455 4.09613 12.8368 4.16573 12.8368 4.22662C12.8368 4.32232 12.8499 4.40061 12.8716 4.45281C12.8977 4.50501 12.9325 4.5485 12.9804 4.5833C13.0282 4.60505 13.063 4.59635 13.0848 4.56155C13.1065 4.52676 13.1283 4.49196 13.1587 4.45716L13.2022 4.43541H13.1979ZM11.1839 3.7351L11.1404 3.96564C11.0926 3.97869 11.0273 3.95694 10.9534 3.90474C10.8751 3.8482 10.8099 3.82645 10.7533 3.84385C10.6924 3.96999 10.6446 4.19617 10.6185 4.5224C10.5924 4.84863 10.5315 5.07047 10.4401 5.19226C10.3444 4.96173 10.2705 4.79208 10.2227 4.67899C10.1313 4.4789 10.04 4.31362 9.93992 4.18748C9.91817 4.24402 9.87467 4.27012 9.80508 4.27012C9.73548 4.27012 9.68329 4.25272 9.64849 4.21792C9.63544 4.14833 9.62674 4.08743 9.62674 4.03089C9.62674 3.90475 9.65719 3.8047 9.72243 3.7264C9.94427 3.7873 10.127 3.99174 10.2661 4.33102C10.3618 4.5659 10.4401 4.72249 10.4967 4.80078C10.5184 4.57895 10.5402 4.34842 10.5706 4.10483C10.5967 3.8656 10.6663 3.66986 10.7794 3.51327C10.849 3.51327 10.923 3.54372 11.0056 3.60026C11.0839 3.66116 11.1448 3.70466 11.1883 3.73076L11.1839 3.7351ZM12.9586 6.18834C12.9108 6.27969 12.8455 6.37973 12.7585 6.49282C12.7107 6.55372 12.628 6.65377 12.5063 6.78426C12.2496 6.64507 11.993 6.50587 11.732 6.36668C11.6189 6.50587 11.5319 6.60592 11.471 6.67116C11.3579 6.7886 11.2535 6.8495 11.1578 6.8495C11.0752 6.8495 10.9882 6.80601 10.8969 6.71466C10.8838 6.69291 10.8316 6.66246 10.7403 6.61897C10.6489 6.57547 10.6054 6.54067 10.6054 6.50588C10.6054 6.46238 10.6228 6.42758 10.6576 6.39713C10.6924 6.36669 10.7446 6.30144 10.8142 6.20575C10.9273 6.05786 11.023 5.96651 11.1056 5.92301L11.7929 6.25794L12.3236 5.88386L12.9499 6.19704L12.9586 6.18834ZM10.5576 8.49369C10.5576 8.61114 10.5358 8.71988 10.4967 8.81122C10.4532 8.90692 10.3879 8.97651 10.2966 9.02436C10.2357 9.02436 10.1792 8.99826 10.1357 8.95042C10.0922 8.90257 10.0487 8.84167 10.0139 8.77208C10.0052 8.73728 10.0052 8.68508 10.0052 8.61549C10.0052 8.45455 10.053 8.27621 10.1531 8.07177C10.2357 7.92388 10.2922 7.81949 10.3183 7.75859C10.2574 7.97608 10.1922 8.18922 10.1313 8.4067C10.1313 8.53719 10.1879 8.64593 10.2966 8.72858C10.3662 8.74162 10.4184 8.71988 10.4532 8.65899C10.488 8.59809 10.5228 8.54154 10.5576 8.48499V8.49369ZM14.0113 10.1118C13.9199 10.0987 13.8416 10.09 13.7764 10.09H13.5719C13.1544 10.09 12.5715 10.1596 11.819 10.2988C11.2709 10.4032 10.8838 10.4728 10.6663 10.5033C10.4488 10.5337 10.2835 10.5555 10.1792 10.5642C10.0748 10.5729 9.91817 10.5816 9.70939 10.5816C9.33531 10.5816 8.96993 10.5294 8.62196 10.425C8.27398 10.3206 7.9521 10.1553 7.66067 9.93345C7.49538 9.78556 7.40839 9.60287 7.40839 9.38103C7.40839 9.22009 7.46928 9.01566 7.58672 8.76337C7.64762 8.63288 7.73896 8.4415 7.85641 8.19792C7.8999 8.24576 8.00865 8.27186 8.19133 8.27186C8.34357 8.18052 8.46537 8.01957 8.55671 7.79339C8.60456 7.66725 8.67415 7.47151 8.7655 7.21053C8.70895 7.21053 8.6611 7.25402 8.61326 7.33667C8.56976 7.41931 8.52626 7.47586 8.49146 7.49761C8.45667 7.52371 8.41317 7.5324 8.35662 7.5324C8.23918 7.5324 8.14349 7.46716 8.07389 7.33232C8.03039 7.17138 8.013 7.01914 8.013 6.87125C8.013 6.57982 8.09129 6.24924 8.24353 5.87952C8.32618 5.67073 8.46537 5.3619 8.6611 4.94868C8.30443 5.56634 8.07389 6.01 7.9608 6.27534C7.73896 6.806 7.62587 7.31057 7.62587 7.79774C7.63892 7.86733 7.64762 7.91518 7.64762 7.94563C7.64762 8.08482 7.59107 8.25011 7.48233 8.44585C7.20395 8.94171 7.05606 9.2201 7.04301 9.28099C7.04301 9.31579 7.03431 9.36799 7.02126 9.43323C7.00821 9.49848 6.99951 9.59852 6.99951 9.72901C6.99951 9.9726 7.04301 10.1988 7.12565 10.4032C7.2083 10.6077 7.34749 10.7686 7.54323 10.8904C7.83031 11.0383 8.09999 11.134 8.36097 11.1862C8.62196 11.2384 8.92209 11.2645 9.26571 11.2645C10.4488 11.0905 11.6363 10.9121 12.8238 10.7338C12.8368 10.7338 12.8977 10.7294 13.0021 10.7164C13.1065 10.7077 13.1848 10.699 13.2414 10.699C13.3805 10.699 13.4893 10.7468 13.5632 10.8469C13.4675 10.973 13.2718 11.1688 12.9804 11.4428C12.5193 11.8691 12.2627 12.2301 12.2061 12.5302C12.6802 12.0692 13.1544 11.6124 13.6372 11.1514C13.7068 11.06 13.7807 10.9687 13.8547 10.8686C14.0026 10.6686 14.0722 10.4946 14.0722 10.3554C14.0722 10.264 14.0461 10.1814 13.9982 10.1031L14.0113 10.1118Z" fill="currentColor"/>
</svg>
