<svg width="40" height="16" viewBox="0 0 40 16" fill="none" xmlns="http://www.w3.org/2000/svg">
<path fill-rule="evenodd" clip-rule="evenodd" d="M27.6763 5.08246C27.6013 5.03665 27.5347 4.94502 27.4722 4.81175C27.4098 4.67847 27.3514 4.58684 27.2973 4.53269L27.2182 4.71179C27.2515 5.06581 27.3056 5.6364 27.3764 6.4319C27.4514 7.22323 27.5014 7.85214 27.5264 8.31029C27.5514 8.76843 27.568 9.2932 27.568 9.88046C27.5347 10.1262 27.4847 10.3469 27.4222 10.5469C27.3598 10.7426 27.2681 10.98 27.1474 11.2507C27.189 11.0925 27.214 10.9259 27.2307 10.7551C27.2473 10.5843 27.2556 10.3844 27.2556 10.1512C27.2556 9.93045 27.2556 9.7097 27.2473 9.49312C27.239 9.27238 27.2348 9.05165 27.2265 8.83507L26.735 4.08705C26.6684 4.02041 26.6351 3.94544 26.6351 3.85797C26.6351 3.77051 26.6767 3.65805 26.7642 3.51645C26.8766 3.33736 26.9391 3.22491 26.9558 3.18743C27.0974 3.49563 27.2432 3.81633 27.4014 4.15785C27.5597 4.49937 27.6513 4.80758 27.6763 5.08663V5.08246ZM26.356 5.37402C26.2227 5.46564 26.102 5.5406 25.9895 5.59891C25.8812 5.65722 25.6938 5.7322 25.4356 5.83216C25.2357 5.90713 25.0399 5.97793 24.8442 6.0529C24.9233 5.96127 25.0316 5.8738 25.1649 5.79466C25.3398 5.68221 25.5355 5.5781 25.7604 5.49063C25.9853 5.399 26.1519 5.35735 26.2644 5.35735C26.2977 5.35735 26.3269 5.36568 26.356 5.37817V5.37402ZM25.9145 7.80216C25.8687 7.93544 25.8312 8.03124 25.8063 8.09371C25.7521 8.20617 25.6646 8.25198 25.548 8.22283C25.4731 8.11037 25.4397 7.97293 25.4397 7.81466C25.4397 7.69387 25.4564 7.57725 25.4939 7.46064C25.5314 7.34402 25.5855 7.23157 25.6605 7.12745C25.6397 7.20658 25.6188 7.29821 25.6022 7.40233C25.5813 7.50646 25.573 7.58559 25.573 7.64806C25.573 7.78134 25.6022 7.88962 25.6646 7.96876C25.7105 8.00208 25.7604 7.98543 25.8146 7.91462C25.8687 7.84382 25.9062 7.8105 25.9229 7.8105L25.9145 7.80216ZM22.9741 3.97459L22.8658 4.21617C22.2411 4.42441 21.6122 4.62432 20.9874 4.82424C20.2003 5.08247 19.5797 5.29904 19.1299 5.47397C18.5176 5.70721 17.9095 5.96543 17.3098 6.25281C17.3223 6.16118 17.3598 6.07788 17.4181 6.00708C17.4764 5.93628 17.5555 5.8738 17.6472 5.81133C18.5801 5.45731 19.4631 5.13661 20.2961 4.8409C21.2748 4.49938 22.1703 4.212 22.9741 3.97044V3.97459ZM22.4743 6.31528C22.4077 6.29029 22.341 6.25697 22.2744 6.22365C22.2078 6.19033 22.1411 6.17785 22.0745 6.18201C21.9329 6.28197 21.8412 6.45689 21.7996 6.71095C21.7579 6.96501 21.7205 7.12328 21.6955 7.18992C21.608 7.01083 21.5205 6.82341 21.4247 6.62349C21.3331 6.42774 21.1915 6.30696 21.0041 6.26947L20.9125 6.37776C20.9 6.41941 20.8833 6.46105 20.8666 6.51103C20.85 6.56101 20.8417 6.61517 20.8417 6.67764C20.8417 6.74011 20.8666 6.78592 20.9125 6.82757C20.9333 6.84007 20.9624 6.85256 21.0041 6.86922C21.0457 6.88172 21.0791 6.89004 21.104 6.89004C21.179 6.89004 21.2248 6.86505 21.2457 6.81091C21.3998 7.08996 21.5539 7.36902 21.7163 7.65223C21.7913 7.54394 21.8412 7.35236 21.8662 7.07747C21.8912 6.80258 21.937 6.60684 21.9953 6.49438C22.0162 6.48189 22.0453 6.47355 22.087 6.47355C22.1411 6.47355 22.2078 6.49438 22.2869 6.53186C22.3119 6.55685 22.341 6.57352 22.366 6.57352C22.3993 6.57352 22.4243 6.54852 22.4452 6.50271C22.4535 6.4444 22.4618 6.37776 22.4743 6.31112V6.31528ZM18.526 3.82466C18.4177 3.71637 18.3135 3.66639 18.2053 3.66639C17.997 3.74136 17.8637 3.9621 17.7971 4.33694C17.7554 4.5785 17.718 4.74095 17.6763 4.82841C17.5888 4.60767 17.5264 4.4619 17.4847 4.38693C17.3973 4.212 17.3098 4.07872 17.214 3.97876C17.1807 3.93711 17.139 3.92045 17.0932 3.92045C17.0516 3.92045 17.0141 3.94128 16.9724 3.97876C16.9724 4.00375 16.9558 4.05373 16.9225 4.12454C16.8891 4.19534 16.8725 4.24948 16.8725 4.29113C16.8725 4.33278 16.8891 4.37443 16.9225 4.42024C16.9558 4.41191 16.9974 4.41192 17.0516 4.41192C17.2307 4.41192 17.3723 4.55769 17.4722 4.8534C17.5305 5.04082 17.5805 5.15744 17.6222 5.20325C17.7554 4.79509 17.8929 4.39109 18.0303 3.98293C18.072 3.96211 18.1053 3.95377 18.1386 3.95377C18.1803 3.95377 18.2344 3.96627 18.3052 3.99542C18.376 4.02041 18.4177 4.03707 18.4302 4.0454L18.5218 3.83715L18.526 3.82466ZM26.3519 9.38068C26.2769 9.2474 26.1936 9.15577 26.0936 9.10996C25.9937 9.06414 25.8687 9.03915 25.7146 9.03915C25.6063 9.03915 25.4314 9.06413 25.1898 9.11411C24.9483 9.16409 24.7734 9.18909 24.6734 9.18909L24.0736 4.79925L24.2028 4.67014C24.2611 4.74511 24.3152 4.82007 24.361 4.89921C24.386 4.94502 24.4318 5.01999 24.4901 5.11995C24.4693 4.87422 24.3777 4.52853 24.2111 4.07872C23.9903 3.4873 23.8654 3.12495 23.8321 3C23.7404 3.07497 23.6655 3.17077 23.6155 3.29155C23.5655 3.41233 23.5197 3.52895 23.4822 3.6414C23.603 4.39942 23.6988 5.03249 23.7738 5.54061C23.7863 5.6489 23.8737 6.28197 24.032 7.43982C24.1903 8.59767 24.2777 9.23074 24.2902 9.33902C23.9029 9.4848 23.6155 9.58892 23.4197 9.64722C23.0782 9.74718 22.7784 9.79717 22.5118 9.79717C22.2661 9.79717 22.0412 9.75968 21.8412 9.68888C21.8287 9.64306 21.8329 9.58059 21.8621 9.49729C21.8871 9.41816 21.9037 9.35569 21.9037 9.3182C21.8621 9.35152 21.7788 9.47647 21.6538 9.69721C21.5539 9.87214 21.4331 9.97626 21.2956 10.0179C21.2415 10.0387 21.1915 10.0471 21.1457 10.0471C21.0582 10.0471 20.9791 10.0221 20.9 9.97626C20.825 9.93044 20.75 9.86797 20.6751 9.79717C20.6334 9.76385 20.6168 9.71804 20.6168 9.65556C20.6376 9.56393 20.6584 9.46813 20.6751 9.37651C20.4626 9.58892 20.2502 9.80133 20.0462 10.0179C19.9212 10.0637 19.8254 10.097 19.7671 10.1137C19.7088 10.1304 19.6255 10.1387 19.5255 10.1387C19.4006 10.1387 19.2923 10.1137 19.2048 10.0596C19.1132 10.0262 19.0507 9.9721 19.0216 9.89297C18.9924 9.818 18.9758 9.73053 18.9758 9.6389C18.9758 9.59308 18.9758 9.52644 18.9841 9.43898C18.7592 9.59725 18.5301 9.75551 18.3052 9.90962C18.0303 10.0887 17.7804 10.1803 17.5555 10.1803C17.4806 10.1803 17.4056 10.172 17.3265 10.1512C17.1807 10.0846 17.0432 9.98875 16.9225 9.85964C16.7975 9.73469 16.6934 9.59308 16.6059 9.43898C16.4393 8.96418 16.2727 8.48938 16.1061 8.01041C15.9062 7.45647 15.7105 6.99001 15.5147 6.611C15.269 6.11954 14.9941 5.69055 14.6942 5.33236C14.6484 5.40733 14.6151 5.50313 14.5943 5.62391C14.5734 5.7447 14.5484 5.89463 14.5151 6.07372C14.8733 6.54852 15.1565 6.98585 15.3648 7.39401C15.6063 7.87298 15.7604 8.35194 15.8354 8.83507C15.5022 9.51395 15.0191 10.0804 14.386 10.5302C13.7529 10.98 13.0866 11.2049 12.3869 11.2049C12.2952 11.1258 12.2327 11.0425 12.2036 10.9592C12.1744 10.8759 12.1578 10.7759 12.1578 10.6635C12.1578 10.5552 12.2161 10.297 12.3369 9.88463C12.391 9.70554 12.416 9.55976 12.416 9.44315C12.341 9.64306 12.2744 9.83882 12.2078 10.0346C12.0662 10.4469 11.9995 10.7926 11.9995 11.0633C11.9995 11.2216 12.0203 11.3715 12.0662 11.5131C12.1078 11.6547 12.1786 11.7838 12.2702 11.9046C12.3369 11.9629 12.4285 11.9963 12.541 11.9963C12.5951 11.9963 12.6659 11.9879 12.7617 11.9754C12.8533 11.9629 12.9241 11.9546 12.9699 11.9546C13.703 11.7339 14.3402 11.3798 14.8775 10.8967C15.4897 10.3511 15.8604 9.73053 15.9853 9.03915C16.2977 9.85131 16.4768 10.2928 16.5143 10.3594C16.6809 10.6177 16.8891 10.8092 17.1432 10.93C17.2223 10.9509 17.3015 10.9592 17.3723 10.9592C17.593 10.9592 17.8304 10.8842 18.0803 10.7301C18.2886 10.5885 18.4926 10.4511 18.7009 10.3095C18.7092 10.3761 18.7217 10.4469 18.7425 10.5177C18.7634 10.5927 18.8133 10.6593 18.8966 10.7176C18.9799 10.7759 19.0674 10.8259 19.1632 10.8592C19.2548 10.8717 19.3298 10.8801 19.3839 10.8801C19.7921 10.8801 20.1045 10.7051 20.3252 10.3511C20.4377 10.6052 20.6334 10.7468 20.9166 10.7801C20.9375 10.7884 20.9708 10.7884 21.0166 10.7884C21.1749 10.7884 21.3248 10.7093 21.4581 10.5469C21.5497 10.4136 21.6455 10.2761 21.7371 10.1387C21.8787 10.2595 22.012 10.3386 22.1411 10.3844C22.2702 10.4261 22.4202 10.4511 22.5868 10.4511C22.82 10.4511 23.124 10.3927 23.4947 10.272C23.9737 10.1179 24.2611 10.0304 24.3527 10.0137C24.3652 10.0596 24.4068 10.172 24.4735 10.3553C24.5151 10.4677 24.5526 10.5802 24.5943 10.6843C24.7025 10.8592 24.8192 10.9925 24.9483 11.0925C25.0774 11.1924 25.2273 11.2424 25.3939 11.2424C25.4522 11.2424 25.498 11.2424 25.523 11.2341C25.8146 11.0466 26.0312 10.7801 26.1728 10.4344C26.2935 10.1345 26.3519 9.78884 26.3519 9.39317V9.38068ZM18.6842 8.06039C18.6093 8.08121 18.5509 8.06873 18.5051 8.01875C18.4593 7.96877 18.4302 7.91045 18.4135 7.82715C18.4135 7.68138 18.4343 7.53561 18.4801 7.39816C18.5218 7.25656 18.5843 7.12328 18.6634 6.99834C18.6551 7.01083 18.6384 7.0858 18.6051 7.21908C18.5718 7.35235 18.5551 7.44815 18.5551 7.51063C18.5551 7.63141 18.5926 7.72719 18.6634 7.80216C18.7092 7.82299 18.755 7.81049 18.7925 7.77301C18.8342 7.7147 18.8592 7.67306 18.8716 7.65223C18.8633 7.62724 18.8716 7.60225 18.88 7.58142C18.8925 7.5606 18.905 7.5481 18.9091 7.53977C18.9091 7.66055 18.8925 7.76468 18.8592 7.85631C18.8258 7.94794 18.7675 8.01457 18.6801 8.06039H18.6842ZM21.3414 11.3798C21.2623 11.5881 21.2165 11.7047 21.1998 11.7297C21.1249 11.8546 21.0291 11.9213 20.9083 11.9213C20.8333 11.9005 20.7292 11.9296 20.5918 12.0046C20.4543 12.0795 20.3627 12.1212 20.3169 12.1212C20.2627 12.1212 20.2211 12.1045 20.1919 12.0754C20.1628 12.0462 20.1295 11.9796 20.0961 11.8796C19.8629 11.8796 19.6005 11.9754 19.3048 12.1712C18.9258 12.4252 18.6801 12.5669 18.5634 12.6002C18.3094 12.7085 18.1178 12.7834 17.9845 12.8292C17.7596 12.9167 17.5597 12.9708 17.3848 13C17.6097 12.9125 17.8887 12.7834 18.2136 12.6085C18.3344 12.5502 18.6217 12.3919 19.0716 12.1379C19.2715 12.0129 19.4756 11.8838 19.6796 11.7588C19.8212 11.6839 19.967 11.6339 20.1211 11.6089C20.1794 11.6089 20.2544 11.6506 20.3419 11.7297C20.4293 11.8088 20.4918 11.8505 20.5335 11.8505C20.5876 11.8505 20.6376 11.7922 20.6834 11.6797C20.7042 11.6006 20.7417 11.5423 20.7917 11.5089C20.8125 11.5214 20.8167 11.5464 20.8125 11.5798C20.8042 11.6131 20.7875 11.6547 20.7542 11.7089C20.875 11.7214 20.9833 11.7005 21.0832 11.6381C21.1165 11.6256 21.154 11.5798 21.1998 11.5048C21.2415 11.4298 21.2873 11.3882 21.3331 11.3798H21.3414ZM13.8154 3.99126C13.7821 4.05789 13.7654 4.09954 13.7654 4.12037C13.7238 4.1287 13.678 4.12036 13.6197 4.09121C13.5614 4.06622 13.528 4.04956 13.5155 4.04956C13.4906 4.04956 13.4572 4.05789 13.4239 4.07872C13.3115 4.21199 13.2323 4.43274 13.1948 4.73678C13.1532 5.04499 13.1199 5.22824 13.0949 5.29488C13.2407 5.3282 13.3739 5.39483 13.4947 5.49479C13.5863 5.58642 13.6572 5.65306 13.703 5.69471C13.6696 5.84048 13.4947 5.94044 13.1782 5.99459C12.8617 6.04873 12.6701 6.16119 12.6034 6.33611C12.7367 7.01083 12.8741 7.67722 13.0116 8.34361C13.0116 8.5227 12.9991 8.68512 12.9783 8.82673C12.9533 8.96834 12.9116 9.11412 12.8533 9.25989C12.8783 9.18492 12.8991 9.10162 12.9116 9.00999C12.9241 8.91836 12.9325 8.82258 12.9325 8.73095V8.58934C12.92 8.5227 12.9116 8.47689 12.9116 8.44774C12.7784 7.80634 12.6492 7.1691 12.5201 6.5277C12.5201 6.43607 12.5201 6.34861 12.5285 6.27364C12.5368 6.19867 12.5534 6.11954 12.5784 6.04041C12.6534 5.93212 12.7534 5.85298 12.8866 5.79883C13.0616 5.74469 13.1824 5.7072 13.2573 5.69054C13.2323 5.66972 13.199 5.6489 13.1657 5.63224C13.0991 5.59059 13.0366 5.57392 12.9741 5.57392C12.9075 5.57392 12.8533 5.59475 12.8158 5.63224C12.7742 5.65723 12.7409 5.68638 12.7075 5.71137C12.6992 5.63224 12.7242 5.54894 12.7825 5.46147C12.8408 5.37401 12.9116 5.31987 12.9991 5.29071C12.9574 5.2324 12.8741 5.06164 12.7409 4.78259C12.6826 4.65764 12.6201 4.54936 12.5618 4.46189L12.4535 4.63266C12.2786 4.59101 12.1953 4.48272 12.1953 4.30362C12.1953 4.22866 12.2203 4.16202 12.2661 4.09538C12.2786 4.05373 12.3119 4.02874 12.366 4.01624C12.4202 4.00375 12.4618 3.99959 12.4951 4.00792C12.6034 4.12037 12.7034 4.27446 12.8033 4.46605C12.8825 4.62432 12.9616 4.78676 13.0449 4.94503C13.1115 4.65765 13.1574 4.44523 13.1865 4.30362C13.2448 4.0454 13.3573 3.86215 13.5155 3.76219C13.6155 3.78301 13.6988 3.80383 13.7654 3.82049C13.8321 3.84132 13.8487 3.89546 13.8154 3.97876V3.99126ZM14.5943 8.48105C14.6193 8.54769 14.6193 8.62266 14.5859 8.70179C14.5776 8.72261 14.536 8.79342 14.4568 8.92253C14.3985 8.93503 14.3527 8.92253 14.3235 8.89337C14.2944 8.86005 14.2611 8.80174 14.2277 8.72261C14.2277 8.42273 14.2944 8.13953 14.4277 7.87297C14.4277 7.91879 14.4152 8.00209 14.386 8.12287C14.361 8.24365 14.3444 8.33112 14.3444 8.39359C14.3444 8.52687 14.3943 8.61849 14.4943 8.67263L14.5943 8.48105ZM15.8729 11.7505C15.8812 11.8255 15.8562 11.9129 15.8063 12.0171C15.7563 12.1212 15.6896 12.2003 15.6105 12.2628C15.5522 12.2753 15.5022 12.2545 15.4606 12.192C15.4272 12.117 15.4023 12.067 15.3898 12.0421C15.3898 11.7755 15.4689 11.5173 15.6313 11.2716C15.6063 11.3632 15.5814 11.4465 15.5647 11.5131C15.548 11.5798 15.5397 11.6506 15.5397 11.7214C15.5397 11.8297 15.5689 11.9213 15.6313 12.0004C15.6896 12.0004 15.7396 11.9713 15.7729 11.9171C15.8063 11.8588 15.8396 11.8047 15.8729 11.7505ZM25.9978 10.2803C25.8854 10.4011 25.7479 10.4594 25.5897 10.4594C25.548 10.4594 25.498 10.4511 25.4314 10.4386C25.319 10.4053 25.2065 10.3261 25.0899 10.197C25.0024 10.1054 24.9275 9.98875 24.8608 9.85547C24.9025 9.84714 24.9733 9.83466 25.0816 9.81383C25.1898 9.79301 25.294 9.78467 25.4023 9.78467C25.4606 9.78467 25.5397 9.793 25.6355 9.80966C25.7313 9.82632 25.8187 9.86381 25.8896 9.92628C25.9479 10.0137 25.9853 10.0804 25.9978 10.1262C26.0103 10.172 26.0103 10.222 25.9978 10.2761V10.2803Z" fill="currentColor"/>
</svg>
