<svg width="40" height="16" viewBox="0 0 40 16" fill="none" xmlns="http://www.w3.org/2000/svg">
<path fill-rule="evenodd" clip-rule="evenodd" d="M30.0958 8.46061C30.0958 8.9358 30.0708 9.35264 30.0249 9.71113C29.9791 10.0696 29.879 10.4198 29.7248 10.7616C29.7665 10.4281 29.7915 10.1863 29.7998 10.0321C29.8082 9.87787 29.8165 9.67779 29.8165 9.43185C29.8165 9.27762 29.8165 9.15673 29.8082 9.07336C29.7998 8.98583 29.7873 8.85244 29.7665 8.6732L29.0954 3.76282C29.0829 3.70864 29.0745 3.66695 29.0745 3.6336C29.0745 3.51272 29.1037 3.396 29.1579 3.27929C29.2163 3.16257 29.2913 3.07087 29.3913 3.00417C29.433 3.12506 29.533 3.37933 29.6914 3.77533C29.9165 4.33389 30.0499 4.77575 30.0833 5.09672C30.0416 5.07588 29.9791 5.00084 29.8874 4.86745C29.7957 4.73406 29.7206 4.68821 29.6539 4.72572C29.6539 5.13423 29.729 5.75115 29.8749 6.58483C30.0208 7.41851 30.0958 8.04377 30.0958 8.46478V8.46061ZM26.4234 4.75907C26.4568 4.80492 26.4734 4.84244 26.4734 4.86745C26.4734 4.90079 26.4484 4.95081 26.3984 5.02168C26.3484 5.09254 26.3192 5.1509 26.315 5.19675C26.2609 5.2176 26.2108 5.20509 26.1608 5.15507C26.1108 5.10922 26.0691 5.05086 26.0358 4.98416C26.0274 4.95082 26.0274 4.90496 26.0274 4.84244C26.0274 4.7424 26.0441 4.64653 26.0733 4.55899C26.1025 4.47145 26.1483 4.37558 26.2067 4.27554C26.1942 4.35057 26.1817 4.41726 26.1733 4.47979C26.165 4.54232 26.1566 4.58399 26.1566 4.60484C26.1566 4.65903 26.1608 4.71322 26.1733 4.76324C26.1817 4.81743 26.2192 4.86745 26.2775 4.91331C26.3109 4.91331 26.3359 4.90497 26.3567 4.88412C26.3901 4.81743 26.4151 4.77575 26.4276 4.75491L26.4234 4.75907ZM26.3734 3.17925C25.3938 3.47938 24.4684 3.77533 23.6014 4.07128C22.5593 4.4256 21.6548 4.76324 20.8795 5.09254C20.8336 5.1509 20.7877 5.21343 20.7502 5.27596C20.7085 5.33848 20.6919 5.39267 20.7002 5.43018C20.7252 5.41768 20.7627 5.3885 20.8086 5.33848C20.8544 5.29263 20.9003 5.25928 20.9503 5.23844L25.473 3.64611C25.6314 3.59192 25.8023 3.53357 25.9774 3.46687C26.1525 3.40018 26.2859 3.3043 26.3734 3.17508V3.17925ZM26.0316 6.50147C26.0191 6.61401 25.9607 6.73906 25.8607 6.87245C25.7273 7.05169 25.6523 7.1684 25.6314 7.22259C25.5981 7.16423 25.4814 7.06837 25.2813 6.94332C25.1145 6.84327 25.0479 6.73489 25.0812 6.61401L25.423 6.06378C25.5814 6.14298 25.694 6.20551 25.7523 6.24303C25.8524 6.30972 25.9441 6.39726 26.0316 6.50147ZM21.809 3.87954C21.8007 3.95874 21.784 4.03794 21.7506 4.11297C21.7173 4.188 21.6756 4.27137 21.6214 4.3589C21.5547 4.37974 21.4964 4.37141 21.4464 4.33389C21.3963 4.29638 21.3546 4.25052 21.3213 4.188C21.3005 4.1088 21.2921 4.03377 21.2921 3.96707C21.2921 3.86703 21.3046 3.77533 21.3255 3.69613C21.3505 3.61693 21.4172 3.46687 21.5297 3.24595C21.4964 3.42102 21.463 3.59192 21.4297 3.767C21.4297 3.89205 21.4755 4.00042 21.5714 4.08796C21.6298 4.10046 21.6756 4.07128 21.7006 3.99208C21.7256 3.91705 21.7632 3.87537 21.809 3.87537V3.87954ZM24.1308 6.15132C24.1058 6.22635 24.0433 6.25969 23.9516 6.25969C23.8932 6.25969 23.8432 6.25135 23.8015 6.23051L23.7807 6.20967C23.7807 6.20967 23.7056 6.26803 23.5806 6.36807C23.4889 6.44311 23.4097 6.47646 23.3513 6.47646C23.3305 6.47646 23.3013 6.46812 23.2554 6.44727C23.2138 6.42643 23.1721 6.38475 23.1304 6.31806C23.0887 6.25136 23.072 6.16799 23.072 6.06795C23.072 6.00125 23.0804 5.92623 23.0929 5.83869C23.1054 5.75116 23.1179 5.66779 23.1346 5.58859L23.2054 5.45937C23.2304 5.49271 23.2471 5.55524 23.2471 5.65111C23.2471 5.68446 23.2471 5.73447 23.2388 5.80534C23.2304 5.8762 23.2304 5.92206 23.2304 5.95123C23.2304 6.09713 23.2888 6.17216 23.4013 6.17216C23.4138 6.17216 23.4555 6.16383 23.5222 6.15132C23.5972 6.09296 23.6306 6.00959 23.6306 5.90955C23.6306 5.86786 23.6223 5.81367 23.6098 5.73864C23.5972 5.66361 23.5889 5.60942 23.5889 5.56774C23.5889 5.52188 23.5972 5.48021 23.6098 5.44686C23.6223 5.41351 23.6514 5.38433 23.7015 5.35516C23.7265 5.40101 23.7431 5.51772 23.7473 5.70113C23.7473 5.88454 23.814 5.97624 23.9432 5.97624C23.9849 5.97624 24.0141 5.97625 24.0349 5.96791C24.0474 5.91372 24.0349 5.83452 24.0016 5.73448C23.9641 5.63027 23.9474 5.56357 23.9474 5.53022C23.9474 5.47186 23.9724 5.41351 24.0183 5.35932C24.0766 5.4802 24.1225 5.58024 24.1516 5.65944C24.1808 5.73864 24.1975 5.82618 24.1975 5.91788C24.1975 6.00958 24.1808 6.08879 24.1475 6.14715L24.1308 6.15132ZM28.2325 8.60233C28.2325 8.3689 28.1408 7.79367 27.9616 6.88079C27.7823 5.96791 27.6906 5.35099 27.6906 5.03002C27.6906 4.91747 27.699 4.8216 27.7198 4.73823L27.9991 5.20926C27.9991 4.8341 27.8824 4.36724 27.6489 3.80867C27.528 3.55023 27.4113 3.28345 27.2988 3.01668C27.2321 3.12922 27.1654 3.24595 27.0945 3.36266C27.0237 3.47938 26.9903 3.58775 26.9903 3.6878C26.9903 3.75449 27.0112 3.81701 27.0487 3.87954C27.1237 4.46728 27.2113 5.09671 27.3196 5.76365C27.428 6.43476 27.5322 7.0642 27.6364 7.65611C27.7406 8.24802 27.849 8.85245 27.9616 9.47354C27.8699 9.56107 27.7615 9.63194 27.6448 9.69446C27.528 9.75282 27.4113 9.81117 27.2988 9.86536C27.1987 9.89037 27.107 9.91121 27.0237 9.91955C26.9403 9.92788 26.8569 9.93622 26.7694 9.93622C26.6277 9.93622 26.5026 9.91538 26.3859 9.86953C26.2692 9.82784 26.1775 9.75282 26.1108 9.65278C26.0524 9.58608 26.0191 9.49855 26.0191 9.39434C26.0191 9.34848 26.0358 9.26094 26.0649 9.14006C26.0941 9.01501 26.1025 8.9233 26.09 8.86494C26.0358 8.86494 25.9399 8.88995 25.7982 8.93997C25.6564 8.98999 25.5731 9.02334 25.5397 9.03585C24.952 9.411 24.4351 9.68611 23.9891 9.86536C23.3972 10.1071 22.8219 10.2238 22.2675 10.2238C21.8549 10.2238 21.4464 10.1488 21.0462 10.0029C20.8003 9.86119 20.6043 9.6486 20.4668 9.36098C20.3917 9.21509 20.3084 8.94832 20.2083 8.56066C20.1541 7.98125 20.1083 7.36848 20.075 6.72655C20.0374 6.08462 20.0041 5.44686 19.9707 4.8216C19.9166 4.13382 19.8499 3.52939 19.7707 3L19.4414 3.65028C19.5831 4.55899 19.6831 5.39683 19.7498 6.16799C19.8165 6.93914 19.8499 7.71863 19.8499 8.5148C19.8499 8.90246 19.904 9.26928 20.0083 9.61942C20.1166 9.96957 20.2792 10.278 20.5001 10.5448C20.7461 10.6907 21.0003 10.7991 21.2546 10.8699C21.513 10.9408 21.7798 10.9742 22.0591 10.9742C22.5927 10.9742 23.1804 10.8449 23.8182 10.5823C24.31 10.3822 24.8436 10.103 25.4105 9.74031C25.5439 9.65277 25.6439 9.61109 25.7106 9.61109C25.769 9.61109 25.8107 9.6361 25.8273 9.68612C25.844 9.73614 25.8524 9.8195 25.8524 9.93205V10.0529C25.8524 10.1988 25.869 10.3197 25.9024 10.4198C25.9357 10.5156 26.0066 10.574 26.1108 10.5948C26.2692 10.6615 26.4526 10.6949 26.6527 10.6949C27.0112 10.6949 27.3405 10.6073 27.6323 10.4364C27.8407 10.2489 27.9907 10.0321 28.0866 9.78617C28.1825 9.54023 28.2325 9.14423 28.2325 8.6065V8.60233ZM24.0599 7.58108C24.0349 7.64777 24.0141 7.70612 24.0016 7.75615C23.9891 7.80617 23.9516 7.81034 23.8932 7.77282C23.839 7.76032 23.8015 7.75199 23.7723 7.75199C23.7515 7.75199 23.7098 7.76032 23.6431 7.77282C23.5764 7.86036 23.5347 7.98125 23.5139 8.14382C23.4472 8.58984 23.4097 8.82326 23.4055 8.8441C23.3388 8.79825 23.2679 8.66069 23.1971 8.4356C23.1221 8.2105 23.0262 8.09379 22.9053 8.09379C22.8928 8.09379 22.8594 8.10213 22.8053 8.11463C22.7594 8.06878 22.7344 8.01875 22.7344 7.96457C22.7344 7.93122 22.7552 7.86453 22.7927 7.76449C22.8136 7.7103 22.8261 7.67278 22.8386 7.6436C22.8469 7.61859 22.897 7.60192 22.9845 7.60192C23.0595 7.70196 23.1304 7.82702 23.2054 7.97291C23.2304 8.01876 23.293 8.15631 23.3847 8.38141C23.3847 8.18132 23.4138 7.99792 23.468 7.83119C23.5264 7.66445 23.6181 7.53523 23.7515 7.43936C23.8098 7.41851 23.8682 7.42267 23.9266 7.45602C23.9849 7.4852 24.0266 7.52689 24.0599 7.58108ZM21.6589 7.02252C21.6173 7.48104 21.463 7.90621 21.1879 8.29387C21.3338 8.01459 21.4297 7.78116 21.4797 7.59359C21.5256 7.40601 21.5506 7.21843 21.5506 7.02252C21.5506 6.84327 21.5214 6.66403 21.4589 6.48062C21.3797 6.33472 21.3005 6.18883 21.2296 6.03877C21.2296 5.99291 21.2588 5.93872 21.3213 5.88037C21.4464 5.98041 21.5381 6.1013 21.5964 6.23885C21.6548 6.38058 21.6798 6.54731 21.6798 6.73906C21.6798 6.86411 21.6714 6.95999 21.6589 7.01834V7.02252ZM17.9282 3.57941C17.9532 3.66695 17.9282 3.74198 17.8574 3.80867C17.8324 3.80867 17.7907 3.79618 17.7365 3.767C17.6823 3.74199 17.6448 3.72531 17.6156 3.72531C17.5864 3.72531 17.5572 3.73365 17.5239 3.75449C17.4697 3.85453 17.428 4.00459 17.3947 4.20467C17.3196 4.64652 17.2696 4.90496 17.2363 4.98416C17.1821 4.93831 17.0945 4.73823 16.9653 4.38391C16.8736 4.12547 16.7194 4.00459 16.5068 4.02544C16.4484 4.00043 16.4151 3.95874 16.4151 3.90455C16.4151 3.8712 16.4318 3.81701 16.4609 3.74615C16.4901 3.67112 16.5068 3.62527 16.5068 3.60442C16.5401 3.55023 16.5818 3.52522 16.636 3.52522C16.6902 3.52522 16.7277 3.55023 16.7444 3.60442C16.8653 3.71697 16.9695 3.88787 17.0529 4.1088C17.1404 4.33389 17.1946 4.45895 17.2113 4.49229C17.2446 4.30055 17.2821 4.10463 17.3196 3.91288C17.378 3.69196 17.4822 3.5419 17.6281 3.4627C17.6823 3.45019 17.7365 3.45436 17.7865 3.48354C17.8073 3.49187 17.849 3.52105 17.9157 3.57524L17.9282 3.57941ZM15.1854 4.188C15.2063 4.2672 15.1979 4.35473 15.1646 4.44644C15.1312 4.53814 15.0812 4.61735 15.0145 4.6757C14.927 4.68821 14.8645 4.65487 14.8228 4.57567C14.7811 4.49647 14.7477 4.41726 14.7144 4.33389C14.7144 4.04627 14.7853 3.78367 14.9228 3.5419C14.902 3.60859 14.8811 3.68362 14.8645 3.76282C14.8436 3.84202 14.8353 3.91705 14.8353 3.98375C14.8353 4.16299 14.8936 4.30055 15.0145 4.39226C15.0604 4.38392 15.0937 4.35474 15.1104 4.29638C15.1271 4.23802 15.1521 4.20051 15.1854 4.17966V4.188ZM17.4864 6.96832C17.4614 7.05586 17.4322 7.14757 17.4072 7.24344C17.3822 7.33931 17.3321 7.41017 17.2571 7.46019C17.1821 7.41851 17.1321 7.36015 17.1029 7.28095C17.0737 7.20176 17.057 7.10588 17.057 7.00167C17.057 6.90996 17.0654 6.82243 17.0779 6.7474C17.0904 6.67237 17.1029 6.61401 17.107 6.57232L17.2571 6.21385C17.2238 6.40559 17.1946 6.59734 17.1654 6.78491C17.1654 6.93081 17.2113 7.06003 17.3071 7.17674C17.3405 7.16424 17.3697 7.12672 17.3988 7.06836C17.4238 7.01 17.4572 6.97666 17.4905 6.97666L17.4864 6.96832ZM13.4264 3.87537C13.3722 3.83368 13.3346 3.8045 13.3055 3.78366C13.2513 3.74198 13.2054 3.74198 13.1637 3.78366C13.0845 3.89621 13.0304 4.10046 12.997 4.40059C12.9637 4.70071 12.922 4.9008 12.8636 5.00501C12.9637 5.09255 13.0679 5.17591 13.1721 5.25511C13.293 5.37599 13.3472 5.4927 13.3305 5.60525C13.2721 5.64693 13.1054 5.68028 12.8303 5.70946C12.5552 5.73864 12.3801 5.82618 12.3009 5.96374C12.3426 6.14298 12.4259 6.47229 12.551 6.94332C12.7511 7.68529 12.8511 8.2522 12.8511 8.65236C12.8511 8.87329 12.8261 9.07753 12.7803 9.26928C12.7344 9.46102 12.651 9.65277 12.5301 9.84452C12.6635 9.53606 12.7302 9.23593 12.7302 8.94414C12.7302 8.50229 12.6385 7.94789 12.4509 7.27261C12.3592 6.95164 12.2634 6.63068 12.1717 6.31388C12.1842 6.14715 12.2008 6.01793 12.2217 5.92205C12.2425 5.83035 12.28 5.73865 12.3301 5.65111C12.3968 5.57608 12.4885 5.52606 12.601 5.49688C12.7136 5.4677 12.8261 5.43852 12.9303 5.41351C12.8886 5.35515 12.8428 5.31763 12.7886 5.3093C12.7344 5.30096 12.6594 5.29262 12.5593 5.29262L12.4509 5.42185C12.4051 5.28013 12.4509 5.14673 12.601 5.01334H12.8011C12.6927 4.7549 12.6093 4.55481 12.551 4.42143C12.4384 4.17549 12.2842 4.05044 12.0925 4.05044C12.0341 3.99626 12.0008 3.92956 12.0008 3.85036C12.0008 3.79617 12.0174 3.72114 12.0508 3.6211C12.0841 3.52106 12.1008 3.46687 12.1008 3.4627C12.28 3.5544 12.4468 3.767 12.601 4.09213C12.7094 4.31723 12.7844 4.46729 12.8303 4.53398C12.872 4.32139 12.9136 4.1088 12.9595 3.89204C13.0345 3.64611 13.1721 3.51272 13.3805 3.49188C13.4472 3.51689 13.4805 3.57525 13.4805 3.66279C13.4805 3.72114 13.4597 3.79201 13.4222 3.87121L13.4264 3.87537ZM18.4868 8.30638C18.4201 8.35223 18.3701 8.44394 18.3409 8.58149C18.3117 8.71905 18.2825 8.80241 18.2575 8.83576C18.2367 8.91079 18.2492 9.01084 18.2909 9.14006C18.3326 9.26928 18.3576 9.35682 18.3576 9.39434C18.3576 9.46937 18.3201 9.52772 18.2492 9.57357C18.2242 9.58191 18.1825 9.59025 18.1325 9.60276C18.0825 9.61526 18.0033 9.62359 17.899 9.62359C17.6323 9.62359 17.3947 9.54857 17.1904 9.39434C17.1904 9.37349 17.2238 9.25677 17.2905 9.04418C17.3113 8.97749 17.3155 8.90662 17.3113 8.83576C17.2571 8.87744 17.1988 8.94414 17.1321 9.04418C16.9987 9.23593 16.8945 9.36098 16.8236 9.41517C16.5818 9.60275 16.3025 9.69446 15.9816 9.69446C15.869 9.69446 15.7315 9.67361 15.5772 9.6361C15.4188 9.59441 15.3105 9.46102 15.2521 9.22759C15.1646 8.88578 15.1104 8.70237 15.0937 8.66903L14.7853 9.22759L15.1062 10.6282C14.8645 10.9033 14.5643 11.1409 14.2058 11.3493C14.0308 11.4494 13.6931 11.6119 13.1846 11.8412C12.9053 11.9621 12.601 12.0579 12.2759 12.1371C11.9507 12.2122 11.6339 12.2539 11.3338 12.2539C11.0003 12.2539 10.6835 12.2038 10.3834 12.0996C10.0833 11.9954 9.82902 11.8328 9.62477 11.6161C9.51222 11.4619 9.42886 11.3076 9.37884 11.1451C9.32882 10.9867 9.3038 10.8158 9.3038 10.6365C9.3038 10.4781 9.32465 10.2989 9.3705 10.103C9.41218 9.90704 9.47054 9.72363 9.53724 9.5569C9.32465 9.97791 9.17875 10.3197 9.10789 10.5823C9.03286 10.8449 8.99951 11.0867 8.99951 11.3076C8.99951 11.5994 9.06621 11.8787 9.19959 12.1371C9.44136 12.504 9.79151 12.7499 10.2584 12.8791C10.5585 12.9583 11.0003 13 11.5881 13C12.3759 12.8666 13.0554 12.654 13.6306 12.3581C14.3226 11.9996 14.8478 11.5285 15.2021 10.9491C15.2021 10.5948 15.4605 10.4073 15.9732 10.3822C16.486 10.3572 16.8028 10.2322 16.9236 10.0071C16.9695 10.0654 17.032 10.1238 17.107 10.178C17.1821 10.2322 17.2613 10.2822 17.3405 10.3281C17.4739 10.3697 17.6073 10.3864 17.7406 10.3864C17.874 10.3864 18.0074 10.3614 18.145 10.3155C18.2825 10.2697 18.3951 10.203 18.4785 10.1155C18.6202 9.83618 18.6869 9.52356 18.6869 9.17341C18.6869 8.85245 18.6243 8.56481 18.4951 8.31471L18.4868 8.30638ZM10.3918 8.34806C10.3667 8.62735 10.3251 8.83994 10.2709 8.9775C10.1833 9.21926 10.0458 9.386 9.84987 9.48604C9.75816 9.49438 9.67062 9.46103 9.59142 9.39016C9.51222 9.3193 9.44553 9.2401 9.39134 9.14423C9.36633 9.04419 9.34549 8.92747 9.33298 8.79825C9.32048 8.66903 9.31214 8.54398 9.31214 8.42309C9.31214 7.98124 9.39968 7.53105 9.57058 7.06419C9.71231 6.68487 9.9249 6.2722 10.2125 5.82201C10.0333 6.24719 9.90822 6.55565 9.84153 6.74323C9.6998 7.15173 9.63311 7.49354 9.63311 7.77282C9.63311 7.96457 9.65812 8.13964 9.70397 8.2897C9.74982 8.43976 9.83736 8.58983 9.96241 8.73572C10.0708 8.72739 10.1708 8.6607 10.2625 8.53565C10.3209 8.44394 10.3667 8.37724 10.3918 8.34389V8.34806Z" fill="currentColor"/>
</svg>
