<svg width="40" height="16" viewBox="0 0 40 16" fill="none" xmlns="http://www.w3.org/2000/svg">
<path fill-rule="evenodd" clip-rule="evenodd" d="M31.758 4.94224C31.6994 4.91712 31.6366 4.85434 31.578 4.76225C31.4985 4.63668 31.4398 4.55295 31.4064 4.51947C31.4064 5.03432 31.4315 5.59941 31.4859 6.20636C31.5654 6.97656 31.6282 7.5542 31.6659 7.94349C31.7077 8.33277 31.7245 8.75136 31.7245 9.19924C31.7245 9.60108 31.6994 9.96107 31.6491 10.2792C31.5989 10.5973 31.5068 10.928 31.3729 11.2671L31.444 9.88992L30.8413 3.80369C30.8203 3.74927 30.812 3.69485 30.812 3.64462C30.812 3.53579 30.8496 3.42277 30.9208 3.30138C30.9668 3.22185 31.0464 3.12139 31.151 3C31.285 3.27627 31.4064 3.59021 31.511 3.94601C31.5989 4.23902 31.6784 4.57389 31.7538 4.94224H31.758ZM28.4846 4.46087C28.4302 4.61993 28.2795 4.76224 28.0326 4.88363C27.6726 5.05944 27.4633 5.16409 27.4089 5.20595C27.4298 5.11386 27.4591 5.03432 27.4926 4.97572C27.5303 4.91712 27.5847 4.87108 27.66 4.84596C27.6056 4.82503 27.5554 4.79992 27.5052 4.76643C27.4549 4.73294 27.4047 4.69946 27.3586 4.66597C27.4465 4.38552 27.614 4.17204 27.8609 4.03391C27.9279 4.00042 27.9907 4.02554 28.0535 4.10507C28.0786 4.14693 28.1079 4.18041 28.133 4.21389C28.0995 4.2725 28.0661 4.33529 28.0326 4.39389C27.9991 4.42738 27.9614 4.43575 27.9237 4.41482C27.9237 4.39389 27.907 4.37297 27.8777 4.34367C27.8484 4.31437 27.8275 4.29762 27.8107 4.28506C27.7647 4.29762 27.7186 4.32273 27.6768 4.3604C27.6349 4.39807 27.6056 4.4232 27.5931 4.43576C27.6349 4.50273 27.6893 4.54459 27.7647 4.56552C27.84 4.58645 27.9447 4.60319 28.087 4.61574L28.4888 4.46505L28.4846 4.46087ZM28.627 4.9213C28.5349 4.98828 28.4219 5.04688 28.2963 5.09292C28.2209 5.11804 28.1121 5.15991 27.9656 5.21851C27.8191 5.27711 27.7019 5.34408 27.614 5.42361C27.5261 5.50314 27.4717 5.6036 27.4424 5.72499C27.5177 5.64965 27.5931 5.59523 27.6726 5.55337C27.8065 5.49477 27.9405 5.43198 28.0786 5.37338C28.2167 5.31478 28.3298 5.24781 28.4219 5.17665C28.5139 5.10549 28.5809 5.02176 28.627 4.9213ZM29.9413 4.84177C29.8827 4.54039 29.7948 4.23483 29.6818 3.92926C29.5604 3.64044 29.4432 3.35161 29.3302 3.05442C29.2423 3.10883 29.1627 3.21348 29.0874 3.37672C29.0539 3.46463 28.9995 3.5902 28.9283 3.75764C28.9744 3.78275 29.0079 3.82461 29.0288 3.87903C29.0497 3.93345 29.0539 3.98786 29.0372 4.05065L29.6399 8.73043C29.6483 8.83926 29.6525 8.94391 29.6609 9.04856C29.6692 9.1532 29.6692 9.26203 29.6692 9.37505C29.6692 9.52993 29.6525 9.66806 29.6148 9.79364C29.5771 9.91921 29.5144 10.0197 29.4181 10.0992C29.439 9.97782 29.4474 9.85642 29.4474 9.73922C29.4474 9.39179 29.3637 9.04437 29.1962 8.69276C29.0623 8.41231 28.8614 8.11512 28.5935 7.79699C28.3005 7.48305 28.0033 7.16493 27.7103 6.84262C27.3754 6.47426 27.1159 6.13939 26.9359 5.83801C26.781 5.65801 26.6261 5.47385 26.4754 5.28548C26.1824 4.91713 26.0024 4.58644 25.9438 4.28925C25.9689 4.26413 26.0024 4.24739 26.0359 4.24739C26.0694 4.24739 26.1196 4.2725 26.1866 4.31854C26.2536 4.36458 26.3038 4.3897 26.3373 4.3897C26.3708 4.3897 26.4043 4.37296 26.4378 4.33948V4.29343C26.4378 4.26831 26.4294 4.25576 26.4168 4.24739L26.4378 4.27669L26.3959 4.31854C25.9857 3.92926 25.5797 3.53997 25.1694 3.15487C25.115 3.23441 25.0815 3.33488 25.069 3.45208C25.0564 3.56928 25.0397 3.71996 25.0188 3.89996C25.2406 4.29342 25.4499 4.65341 25.6508 4.97572C25.8852 5.35245 26.1238 5.70407 26.3624 6.03056C26.5759 6.33194 26.8438 6.67099 27.1661 7.04353C27.3545 7.26538 27.6391 7.5877 28.02 8.01884C28.3674 8.40813 28.6311 8.74717 28.8153 9.03181C29.0581 9.40854 29.2213 9.78944 29.3093 10.1787C29.0958 10.4927 28.7316 10.7773 28.2126 11.0326C27.5093 11.3801 27.0908 11.6061 26.9568 11.7066C27.1242 11.6522 27.434 11.6061 27.8819 11.5601C28.3298 11.5182 28.6604 11.4345 28.8781 11.3131C29.2883 10.9322 29.5688 10.4508 29.7237 9.87736C29.8367 9.45459 29.8953 8.89787 29.8953 8.21139C29.8953 7.89745 29.8032 7.16074 29.6148 6.00126C29.5353 5.50733 29.4934 5.08874 29.4934 4.75387L29.573 4.52366C29.6316 4.58226 29.6985 4.64505 29.7655 4.70783C29.8325 4.77062 29.8911 4.81666 29.9455 4.84177H29.9413ZM24.4746 3.93764C24.4202 4.11344 24.3574 4.24739 24.282 4.33948C24.2067 4.43157 24.1272 4.49854 24.0393 4.5404C23.9597 4.56552 23.9011 4.58225 23.8676 4.58225C23.8258 4.58225 23.7881 4.56133 23.7463 4.52366C23.7002 4.43575 23.6751 4.34785 23.6751 4.25158C23.6751 4.126 23.7128 3.99205 23.7839 3.84973C23.8174 3.79112 23.8928 3.67393 24.0142 3.5065C24.0058 3.56091 23.9765 3.65299 23.9179 3.78275C23.8593 3.91251 23.8342 4.01298 23.8342 4.07996C23.8342 4.18042 23.8802 4.25994 23.9765 4.32273C24.0895 4.28924 24.1858 4.23483 24.2569 4.16367C24.2486 4.11762 24.2067 4.05065 24.1314 3.96693C24.056 3.88321 24.0142 3.81624 24.0142 3.77019C24.0142 3.71159 24.0518 3.65719 24.123 3.61114C24.2025 3.63207 24.2737 3.66974 24.3406 3.73252C24.4034 3.79113 24.4453 3.86228 24.4662 3.94182L24.4746 3.93764ZM25.1569 5.47384L24.7341 6.10591C24.7341 6.10591 24.6002 6.00544 24.3909 5.86312C24.2486 5.77103 24.1941 5.67476 24.2193 5.58267L24.5792 5.03014C24.7802 5.12223 24.9727 5.27292 25.1527 5.47384H25.1569ZM22.9175 4.5404C22.93 4.65342 22.9175 4.75806 22.8672 4.84596C22.8212 4.93805 22.7542 4.99665 22.6663 5.03014C22.6203 5.03851 22.5826 5.03014 22.5575 5.00084C22.5324 4.97572 22.4989 4.92968 22.4654 4.87108C22.457 4.81666 22.457 4.779 22.457 4.74969C22.457 4.62831 22.4738 4.52365 22.5031 4.43157C22.5324 4.33948 22.6203 4.16367 22.7584 3.90414C22.704 4.10507 22.6496 4.30599 22.5993 4.50691C22.5993 4.61574 22.6286 4.69946 22.6914 4.76643C22.7458 4.76643 22.7835 4.74132 22.8086 4.69109C22.8337 4.64086 22.8547 4.59063 22.8756 4.53621H22.9258L22.9175 4.5404ZM22.6663 6.14777C22.6077 6.30264 22.5575 6.41565 22.5156 6.491C22.457 6.59983 22.3733 6.70448 22.2645 6.81332C22.2394 6.77983 22.1347 6.71703 21.9547 6.62076C21.8208 6.55378 21.7705 6.4617 21.804 6.34868L22.2142 5.80452C22.3063 5.85057 22.39 5.9008 22.4654 5.95103C22.5407 6.00126 22.6077 6.06824 22.6663 6.14777ZM23.4784 7.03097C23.4239 6.98912 23.336 6.92214 23.2188 6.83005C23.1268 6.76308 23.0305 6.71703 22.9384 6.68773C22.8463 6.72122 22.7291 6.8175 22.5951 6.98075C22.4947 7.10214 22.4361 7.1733 22.4152 7.19004C22.4152 7.26538 22.4863 7.3491 22.6245 7.44119C22.8044 7.56258 22.9175 7.64211 22.9551 7.68397C23.0765 7.62955 23.1812 7.53747 23.2774 7.40352C23.336 7.31562 23.403 7.19422 23.4784 7.03097ZM24.1104 8.17789C24.0853 8.26998 24.0602 8.36626 24.0393 8.45835C24.0058 8.55881 23.9472 8.63416 23.8593 8.6802C23.8007 8.6802 23.7463 8.65508 23.7002 8.60067C23.6793 8.57555 23.6667 8.54207 23.6584 8.50021C23.65 8.45835 23.65 8.40394 23.65 8.32859C23.65 8.17371 23.6751 8.03558 23.7253 7.90582C23.7756 7.78024 23.8509 7.63793 23.9514 7.48305C23.8969 7.60444 23.8593 7.69652 23.8425 7.7635C23.7965 7.88907 23.7714 7.9979 23.7714 8.0858C23.7714 8.19882 23.809 8.2951 23.8802 8.37882C23.9388 8.39138 23.9807 8.36207 24.0058 8.28673C24.0309 8.21138 24.0644 8.17789 24.1104 8.17789ZM22.0803 3.42696C22.0719 3.48138 22.0384 3.53579 21.9798 3.5944C21.9212 3.653 21.8584 3.68229 21.7998 3.69066C21.691 3.72415 21.2431 3.86647 20.452 4.11344C19.9288 4.2725 19.4851 4.42319 19.1167 4.55714C18.6353 4.73294 18.2 4.91712 17.8107 5.10967C17.8526 4.91712 17.9614 4.7748 18.1414 4.6869C18.4428 4.58644 18.7442 4.48179 19.0456 4.37715C19.1795 4.33529 19.5562 4.21389 20.1715 4.0046C20.9752 3.73671 21.6115 3.54416 22.0803 3.43114V3.42696ZM21.3478 4.84177C21.2557 4.76643 21.172 4.73295 21.0966 4.73295C20.9878 4.73295 20.9041 4.87526 20.8455 5.15571C20.7869 5.43616 20.7408 5.59523 20.7157 5.62871C20.6738 5.54081 20.6152 5.41105 20.5399 5.23524C20.4646 5.05944 20.3725 4.92967 20.272 4.84177C20.1967 4.84177 20.1548 4.85433 20.1422 4.88363C20.1422 4.90875 20.1255 4.96317 20.092 5.0427C20.0585 5.12223 20.0418 5.18501 20.0418 5.22268C20.0418 5.26873 20.0669 5.31477 20.1129 5.365C20.1381 5.35663 20.1715 5.35664 20.2134 5.35664C20.3348 5.35664 20.4353 5.4571 20.5148 5.66221C20.5943 5.86731 20.6571 5.9887 20.7073 6.03056C20.7617 5.90499 20.8036 5.77522 20.8371 5.64546C20.8706 5.5157 20.925 5.31059 20.9962 5.02595C21.0422 5.01339 21.0882 5.00921 21.1259 5.02177C21.1678 5.03014 21.218 5.04688 21.2766 5.06781C21.2975 5.03432 21.3101 5.00084 21.3185 4.96735C21.3268 4.93387 21.3352 4.89201 21.3478 4.84596V4.84177ZM22.3231 7.21096C22.2896 7.23608 22.2017 7.37003 22.0635 7.61281C21.9631 7.78862 21.8375 7.85559 21.691 7.82211C21.5654 7.74258 21.4692 7.67978 21.4106 7.64211C21.2892 7.56257 21.2431 7.47887 21.2682 7.39096C21.3227 7.35748 21.3938 7.26539 21.4775 7.1147C21.5654 6.96401 21.645 6.88866 21.7203 6.88866C21.7747 6.88866 21.8291 6.91378 21.8794 6.95982L22.3231 7.21096ZM25.9187 8.72625C25.9522 8.8016 25.9773 8.89367 25.9982 9.00251C26.0192 9.11134 26.0275 9.21599 26.0275 9.30808C26.0275 9.48388 26.0108 9.65132 25.9731 9.81875C25.9355 9.98619 25.8769 10.1913 25.7973 10.4299C25.6759 10.5513 25.5378 10.6392 25.3787 10.6894C25.2197 10.7438 25.0522 10.7689 24.8723 10.7689C24.7383 10.7689 24.596 10.7522 24.4411 10.7187C24.3155 10.6768 24.19 10.635 24.0686 10.5889C23.9221 10.522 23.83 10.4215 23.7965 10.2876C23.7211 10.4215 23.6542 10.5555 23.5872 10.6894C23.4993 10.8317 23.3863 10.9322 23.244 10.9992C23.177 11.0201 23.11 11.0326 23.0472 11.0452C22.9844 11.0536 22.9216 11.0619 22.863 11.0619C22.7835 11.0619 22.7165 11.0494 22.6621 11.0201C22.5826 10.995 22.5156 10.9406 22.4654 10.8652C22.4152 10.7899 22.3775 10.7062 22.3482 10.6183C22.1347 10.9406 21.8166 11.0996 21.3938 11.0996C21.3394 11.0996 21.2599 11.0913 21.1594 11.0745C21.0548 11.0578 20.9585 11.0075 20.8664 10.9238C20.7743 10.8401 20.7115 10.7396 20.6697 10.6266C20.4604 10.8024 20.2511 10.9364 20.0334 11.0368C19.8157 11.1373 19.5897 11.1875 19.3553 11.1875H19.1335C19.0581 11.1666 19.0079 11.154 18.9828 11.1457C18.8572 11.0578 18.7316 11.0159 18.6102 11.0159C18.5181 11.0159 18.2837 11.0913 17.9154 11.2378C17.7354 11.3131 17.5847 11.3466 17.4633 11.3466C17.3963 11.3466 17.3461 11.3466 17.3126 11.3382C17.2791 11.3298 17.2247 11.3131 17.1535 11.2796C16.8605 11.1666 16.6471 10.9238 16.5215 10.5555C16.4629 10.3755 16.3917 10.028 16.3122 9.52156C16.3122 8.45835 16.2829 7.45374 16.2285 6.51611C16.1699 5.57848 16.0736 4.67015 15.9313 3.79531C15.9857 3.68229 16.0443 3.56509 16.1113 3.4437C16.1782 3.32231 16.2578 3.23441 16.354 3.17162C16.442 3.71997 16.5047 4.43156 16.5466 5.30222C16.5592 5.62453 16.5801 6.29008 16.6136 7.30724C16.6429 8.32022 16.6805 9.09042 16.7308 9.61365C16.8061 9.84806 16.8605 10.0029 16.9024 10.0741C16.9903 10.2415 17.1075 10.3629 17.254 10.4341C17.3084 10.4592 17.367 10.4801 17.434 10.4927C17.501 10.5052 17.5679 10.5136 17.6349 10.5136C17.7103 10.5136 17.7689 10.5136 17.8149 10.5052C17.861 10.4969 17.9279 10.4843 18.0158 10.4634C17.9907 10.3545 17.974 10.2373 17.974 10.1034C17.974 9.74759 18.0744 9.40435 18.2754 9.06948C18.4763 8.73461 18.7358 8.44998 19.0497 8.21558C19.1711 8.19465 19.2716 8.24069 19.3511 8.35789C19.4306 8.51277 19.4893 8.61741 19.5227 8.66764C19.5813 8.79322 19.6148 8.9439 19.6148 9.11971C19.6148 9.24529 19.5897 9.43784 19.5353 9.69318C19.4809 9.94852 19.4558 10.1327 19.4558 10.2457C19.4558 10.3127 19.4558 10.3629 19.4641 10.3964C20.092 10.3964 20.6278 10.1411 21.0631 9.63457C21.0841 9.66806 21.0924 9.70154 21.0924 9.73503C21.0673 9.86061 21.0422 9.98619 21.0213 10.1076C21.1552 10.2499 21.331 10.3169 21.5529 10.3169C21.7078 10.3169 21.8626 10.2834 22.0133 10.2164C22.1222 10.1411 22.2268 10.0322 22.3356 9.88154C22.4445 9.73085 22.524 9.61783 22.5784 9.54667V9.82712C22.591 9.94014 22.6203 10.0364 22.6705 10.1076C22.771 10.229 22.9007 10.2876 23.064 10.2876C23.1309 10.2876 23.2063 10.2708 23.2858 10.2373C23.4198 10.1955 23.5328 10.1118 23.6291 9.98618C23.7546 9.78526 23.8844 9.58434 24.01 9.38342C24.0183 9.43784 24.01 9.509 23.989 9.60109C23.9681 9.69318 23.9597 9.74341 23.9597 9.75597C24.2527 9.91084 24.5625 9.98618 24.8848 9.98618C25.228 9.98618 25.5127 9.89828 25.7471 9.72666C25.7052 9.50481 25.6131 9.24529 25.4666 8.94391C25.1108 8.22813 24.9183 7.7928 24.889 7.64211C24.8597 7.49141 24.843 7.36166 24.843 7.25701C24.843 7.01424 24.9099 6.78401 25.0439 6.56216C25.2197 6.73797 25.3494 6.87191 25.4373 6.964C25.5964 7.13981 25.6801 7.28212 25.6801 7.39514C25.6801 7.41607 25.6717 7.44537 25.6592 7.48723L25.4499 7.42864C25.4248 7.60444 25.4792 7.81791 25.6215 8.07325C25.8099 8.41649 25.9145 8.63416 25.9313 8.72625H25.9187ZM17.5386 4.24739C17.5386 4.04647 17.5177 3.87066 17.4717 3.71997C17.4298 3.56928 17.3461 3.45208 17.2247 3.37255L17.1242 3.54417C17.3001 3.7995 17.3838 4.09251 17.3838 4.42738C17.3838 4.64923 17.3419 4.84597 17.2624 5.02177C17.3294 4.8962 17.3838 4.76643 17.4298 4.63667C17.4717 4.50691 17.5093 4.37715 17.5345 4.25158L17.5386 4.24739ZM19.7697 6.25659L19.1753 5.93428L18.7735 6.36543C18.7274 6.3738 18.6814 6.36125 18.6395 6.33195C18.5977 6.30264 18.5391 6.26497 18.4721 6.21474C18.3967 6.12265 18.3214 6.07241 18.2419 6.07241C18.154 6.07241 18.0577 6.13939 17.9489 6.27334C17.8944 6.34031 17.8191 6.43659 17.7186 6.56635C17.6642 6.69193 17.7479 6.79657 17.9698 6.8761C18.1163 6.93052 18.2084 6.97237 18.2419 7.00586C18.334 7.00586 18.4219 6.9347 18.4972 6.79657C18.5725 6.65425 18.6312 6.57053 18.673 6.54541L19.3344 6.85518C19.4265 6.77565 19.5102 6.67936 19.5855 6.57472C19.6399 6.49519 19.6985 6.38636 19.7655 6.25241L19.7697 6.25659ZM23.4784 11.5601C23.244 11.7694 22.884 11.9493 22.4026 12.1042C21.7747 12.2968 21.3854 12.4349 21.2389 12.5144C21.2389 12.3721 21.3101 12.2675 21.4482 12.1921C22.1263 11.9787 22.8003 11.7652 23.4784 11.5601ZM13.9932 4.1553C14.0393 4.33529 13.9807 4.49435 13.8132 4.6283C13.7379 4.64923 13.6793 4.6283 13.6332 4.56969C13.5788 4.4776 13.5412 4.41482 13.5244 4.3897C13.516 4.34366 13.516 4.28088 13.516 4.19716C13.516 4.05065 13.537 3.9167 13.583 3.79531C13.6249 3.67392 13.6918 3.55254 13.7798 3.42277C13.7463 3.49812 13.717 3.58183 13.696 3.67811C13.6709 3.77438 13.6625 3.86647 13.6625 3.95437C13.6625 4.11344 13.7086 4.2432 13.8049 4.33529C13.8593 4.34784 13.897 4.33529 13.9263 4.28506C13.9514 4.23901 13.9807 4.19297 14.0058 4.1553H13.9932ZM17.9405 8.22394C17.907 8.23232 17.8777 8.26581 17.8484 8.33278C17.8233 8.39975 17.7898 8.4416 17.7563 8.45416C17.7103 8.42067 17.681 8.38301 17.6642 8.34534C17.6517 8.30348 17.6433 8.25744 17.6433 8.20302C17.6433 8.17791 17.6517 8.1193 17.6684 8.02721C17.6852 7.93512 17.6893 7.86815 17.6851 7.82211C17.6307 7.93512 17.5889 8.04395 17.5596 8.14441C17.5303 8.24487 17.5135 8.3537 17.5135 8.46672C17.547 8.55881 17.5721 8.61741 17.5847 8.63834C17.6265 8.69694 17.6768 8.73043 17.7354 8.73043C17.8107 8.67183 17.861 8.5923 17.8861 8.50021C17.8944 8.46672 17.9112 8.37464 17.9363 8.22813L17.9405 8.22394ZM15.4373 6.56635C15.4457 6.65425 15.429 6.74215 15.3871 6.83424C15.3453 6.92633 15.2867 7.00167 15.2071 7.06865C15.1611 7.08958 15.1067 7.07701 15.0397 7.03934C14.9769 6.99748 14.935 6.93889 14.9183 6.86354C14.9016 6.7882 14.8932 6.70448 14.8932 6.61658C14.8932 6.36961 14.9643 6.13939 15.1025 5.92173C15.0816 6.0473 15.069 6.15613 15.0564 6.24403C15.0481 6.33194 15.0397 6.38635 15.0397 6.4031C15.0397 6.58309 15.0857 6.71703 15.182 6.80494C15.2406 6.80494 15.295 6.76726 15.3369 6.68773C15.3787 6.61239 15.4122 6.57053 15.4332 6.56216L15.4373 6.56635ZM14.7844 5.28966L14.3239 5.89242C14.0895 5.76685 13.943 5.67895 13.8802 5.6329C13.7923 5.56593 13.7253 5.49477 13.6793 5.42361C13.6207 5.47803 13.5621 5.54919 13.5077 5.64546C13.3863 5.85475 13.2942 5.98033 13.2272 6.02637C13.1268 6.02637 13.0221 5.99707 12.9175 5.94265C12.8086 5.88405 12.704 5.81289 12.5952 5.72499C12.6831 5.57849 12.7458 5.46547 12.7877 5.39431C12.8631 5.26036 12.9426 5.1599 13.0305 5.09292L13.6542 5.32315L14.1565 4.87945C14.4034 5.00503 14.5416 5.07619 14.5667 5.08875C14.642 5.13479 14.7132 5.20176 14.7885 5.28966H14.7844ZM18.5516 12.0498C18.5516 12.1586 18.5349 12.2591 18.4972 12.3596C18.4595 12.46 18.3967 12.5396 18.313 12.6023C18.2251 12.6023 18.154 12.5479 18.0912 12.4433C18.0828 12.4014 18.0828 12.347 18.0828 12.2717C18.0828 12.1251 18.1121 11.9703 18.1749 11.8112C18.2168 11.6982 18.2837 11.5642 18.3758 11.4094C18.3423 11.4847 18.3088 11.5768 18.2712 11.694C18.2335 11.8112 18.2168 11.9117 18.2168 11.9912C18.2168 12.1168 18.2586 12.234 18.3381 12.3345C18.3926 12.3135 18.4386 12.2675 18.4805 12.1879C18.5223 12.1126 18.5474 12.0666 18.56 12.054L18.5516 12.0498ZM12.1808 3.46045L12.1222 3.66137C12.097 3.67393 12.0594 3.66974 12.0133 3.64462C11.9673 3.61951 11.9338 3.61114 11.9129 3.61114C11.8919 3.61114 11.8668 3.61951 11.8333 3.64043C11.7664 3.76182 11.7161 3.95857 11.6868 4.22646C11.6575 4.49436 11.6282 4.67853 11.6031 4.76225C11.7496 4.87108 11.8626 4.95479 11.938 5.01758C12.0133 5.08037 12.0552 5.14316 12.0552 5.20176C12.0552 5.26873 12.0259 5.33152 11.9631 5.39431C11.7371 5.43616 11.5445 5.46965 11.3854 5.49895C11.2264 5.52825 11.1176 5.60778 11.0506 5.73336C11.0757 5.87568 11.1301 6.08497 11.2055 6.36124C11.2808 6.6375 11.3352 6.85517 11.3603 7.01423C11.3854 7.17329 11.4022 7.33236 11.4022 7.49142C11.4022 7.60444 11.3938 7.70909 11.3813 7.80955C11.3687 7.90582 11.331 8.0272 11.2724 8.16534C11.3185 8.05232 11.3436 7.92256 11.3436 7.77187C11.3436 7.55839 11.2766 7.26538 11.1427 6.89702C11.0757 6.72959 11.0171 6.57053 10.9669 6.41984C10.9166 6.26915 10.8831 6.16032 10.8664 6.09335C10.8497 6.02638 10.8413 5.95103 10.8413 5.8715C10.8413 5.69151 10.8999 5.545 11.0129 5.4278C11.1259 5.31478 11.331 5.22268 11.624 5.15571C11.5906 5.08036 11.5236 5.04689 11.4231 5.04689C11.3813 5.04689 11.3478 5.05526 11.3143 5.07619L11.2222 5.15571C11.2013 5.13059 11.2013 5.08874 11.2222 5.03851C11.2431 4.98828 11.2641 4.92968 11.2934 4.86271L11.4733 4.75387C11.398 4.56551 11.3478 4.42738 11.3143 4.33111C11.2473 4.16368 11.1678 4.03391 11.0715 3.93764C11.0631 4.01298 11.0296 4.04646 10.9627 4.04646C10.9166 4.04646 10.8497 4.02553 10.7659 3.97949C10.6822 3.93763 10.6404 3.86229 10.6404 3.75346C10.6404 3.7116 10.6487 3.66556 10.6613 3.61114C10.6739 3.55673 10.6864 3.50649 10.6948 3.46045C10.7032 3.4144 10.745 3.38929 10.812 3.38929C10.8873 3.38929 10.9376 3.40604 10.971 3.43952C11.1134 3.53161 11.2389 3.69486 11.352 3.92089C11.4399 4.0967 11.4943 4.20972 11.5236 4.26413C11.578 4.05066 11.6157 3.8874 11.645 3.77019C11.6994 3.55672 11.7831 3.40603 11.8961 3.31813C11.9547 3.30557 12.005 3.30975 12.0468 3.3265C12.0887 3.34742 12.1347 3.3851 12.1891 3.43533L12.1808 3.46045ZM15.4876 9.68899C15.4876 9.31226 15.4164 8.96903 15.2783 8.65928C15.136 8.34952 14.9309 8.03977 14.6546 7.73838C14.4997 7.63792 14.3867 7.57514 14.3114 7.54584C14.1858 7.49142 14.056 7.46631 13.9304 7.46631C13.83 7.46631 13.7337 7.49141 13.6374 7.53746C13.4114 7.75931 13.2356 7.98954 13.11 8.2365C12.9844 8.47928 12.9258 8.74718 12.9258 9.036C12.9258 9.1239 12.9258 9.19087 12.9342 9.23691C13.0221 9.42528 13.1602 9.55923 13.357 9.63876C13.5119 9.69737 13.7044 9.73085 13.9388 9.73085C14.0309 9.73085 14.169 9.72247 14.349 9.70992C14.529 9.69736 14.6588 9.68899 14.7299 9.68899C14.8639 9.76852 14.956 9.8355 15.0104 9.88992C15.0899 9.97782 15.1234 10.0825 15.1109 10.1997C14.6546 10.6099 14.2737 10.928 13.9639 11.154C13.5077 11.4889 13.0849 11.7401 12.6998 11.9075C12.231 12.1084 11.7705 12.2089 11.3143 12.2089C11.1343 12.2089 10.9459 12.1921 10.7534 12.1586C10.5608 12.1252 10.3767 12.0749 10.2009 12.008C9.9204 11.8615 9.70273 11.648 9.55204 11.3633C9.40135 11.0829 9.32601 10.7731 9.32601 10.4383C9.32601 10.1453 9.36787 9.87317 9.4474 9.62621C9.52693 9.37924 9.66506 9.19924 9.85761 9.08204C10.0167 8.94809 10.1381 8.78903 10.2176 8.60904C10.2971 8.42904 10.339 8.2365 10.339 8.03558C10.339 7.97697 10.339 7.92675 10.3306 7.89326C10.272 7.93512 10.2343 8.00209 10.2218 8.10255C10.1757 8.1779 10.1297 8.23231 10.0795 8.26998C10.0334 8.30766 9.97481 8.32859 9.90784 8.33696C9.79482 8.19464 9.71529 8.06907 9.67343 7.95187C9.63158 7.83466 9.60646 7.70071 9.60646 7.55421C9.60646 7.27794 9.71948 6.92633 9.9497 6.49938C10.272 5.88824 10.4436 5.55337 10.4729 5.4864C10.1046 5.94684 9.82412 6.37798 9.62739 6.77145C9.37205 7.29469 9.24648 7.80117 9.24648 8.28673C9.24648 8.43323 9.25485 8.57974 9.27578 8.71787C9.36787 8.81833 9.4181 8.93553 9.4181 9.06948C9.4181 9.1825 9.36368 9.3625 9.25903 9.61365C9.1502 9.86061 9.09997 10.0448 9.09997 10.1662C9.033 10.4341 8.99951 10.6852 8.99951 10.9196C8.99951 11.2545 9.0623 11.5726 9.18369 11.8698C9.30926 12.167 9.49763 12.414 9.75296 12.6065C9.96226 12.7488 10.1757 12.8493 10.4018 12.9079C10.6278 12.9665 10.858 13 11.1008 13C11.5236 13 11.9673 12.9079 12.4361 12.7279C12.8379 12.573 13.2314 12.3679 13.6123 12.1042C14.1816 11.6898 14.5918 11.3424 14.8388 11.0578C15.2322 10.6141 15.4499 10.1578 15.4918 9.68062L15.4876 9.68899ZM11.9422 9.48807C11.9296 9.5676 11.917 9.63458 11.9003 9.68899C11.8877 9.74341 11.8459 9.74759 11.7789 9.70992C11.691 9.63457 11.6199 9.61783 11.5571 9.65969C11.5026 9.76015 11.465 9.90247 11.4357 10.0825C11.3771 10.5387 11.3394 10.7815 11.3268 10.815C11.2515 10.7564 11.1845 10.6475 11.1176 10.4927C11.0255 10.2708 10.9669 10.1453 10.9459 10.1118C10.925 10.1871 10.879 10.2206 10.8036 10.2206C10.7618 10.2206 10.7283 10.2122 10.7032 10.1997C10.678 10.1871 10.6613 10.1745 10.6529 10.1704C10.5859 10.1159 10.5525 10.049 10.5525 9.96944C10.5525 9.92758 10.565 9.87317 10.5859 9.79783C10.6111 9.72248 10.6194 9.67225 10.6194 9.63876C10.6446 9.61783 10.678 9.5969 10.7115 9.58016C10.858 9.6262 10.9794 9.73922 11.0715 9.9234C11.1385 10.0825 11.2096 10.2415 11.2808 10.3964C11.3017 10.2164 11.3227 10.0322 11.352 9.84387C11.3938 9.65132 11.4733 9.49225 11.5947 9.37086C11.7371 9.34993 11.8501 9.3918 11.938 9.49226L11.9422 9.48807ZM19.2967 9.73085C19.2423 9.5383 19.1921 9.3918 19.146 9.29971C19.0665 9.14483 18.9535 9.05692 18.8028 9.02762C18.6898 9.06111 18.5851 9.14065 18.493 9.27041C18.4344 9.35831 18.3716 9.47551 18.313 9.62202C18.3926 9.80201 18.5265 9.96107 18.7149 10.095C18.807 10.0741 18.9074 10.028 19.0162 9.96107C19.1251 9.88991 19.2172 9.81456 19.2967 9.73503V9.73085ZM14.6044 8.90624C14.4704 8.9481 14.3323 8.96484 14.1942 8.96484C14.056 8.96484 13.9179 8.94809 13.7923 8.91042C13.6667 8.87274 13.5579 8.82671 13.47 8.76392C13.4491 8.73044 13.4114 8.67183 13.3486 8.5923C13.3277 8.55881 13.3193 8.52532 13.3193 8.49183C13.3193 8.44579 13.3361 8.40394 13.3695 8.37045C13.4449 8.29511 13.537 8.26162 13.65 8.26162C13.7714 8.26162 13.8844 8.28673 13.9932 8.34115C14.1146 8.37463 14.2318 8.44998 14.3448 8.563C14.4369 8.65509 14.5248 8.77229 14.6044 8.90624Z" fill="currentColor"/>
</svg>
