<svg width="40" height="16" viewBox="0 0 40 16" fill="none" xmlns="http://www.w3.org/2000/svg">
<path fill-rule="evenodd" clip-rule="evenodd" d="M28.4308 5.24102C28.4054 5.26216 28.3843 5.27907 28.3716 5.29175C28.2574 5.14376 28.1433 4.99577 28.0376 4.84355C28.0376 5.24102 28.0799 5.74419 28.1602 6.34461C28.342 7.70613 28.435 8.58562 28.435 8.98309C28.435 9.41438 28.4012 9.80338 28.3336 10.1416C28.2659 10.4799 28.1433 10.814 27.9699 11.148C28.0587 10.7674 28.1137 10.5137 28.1306 10.3784C28.1771 10.0994 28.2025 9.82875 28.2025 9.5666C28.2025 9.45666 28.2025 9.3721 28.194 9.30444C28.1856 9.23679 28.1729 9.13953 28.1517 9.00845L27.5344 4.16702C27.509 4.12051 27.4921 4.06977 27.4921 4.0148C27.4921 3.94714 27.5217 3.85412 27.5767 3.73996C27.6359 3.62579 27.6993 3.49894 27.7754 3.36364C27.9657 3.57928 28.1137 3.87526 28.2236 4.24736C28.2574 4.36998 28.3293 4.69979 28.435 5.24102H28.4308ZM24.545 3.61733C24.5365 3.67653 24.4858 3.73996 24.3927 3.79915C24.3378 3.75687 24.287 3.73996 24.2405 3.73996C24.1813 3.73996 24.0968 3.77378 23.9911 3.84567C23.8853 3.91755 23.8135 3.95137 23.7712 3.95137C23.6908 3.95137 23.619 3.89217 23.5598 3.76955C23.5471 3.73573 23.5386 3.68076 23.5386 3.60888C23.5386 3.54123 23.5513 3.46512 23.5725 3.38478C23.5978 3.30444 23.6274 3.2241 23.6697 3.15222C23.6612 3.27907 23.6612 3.38055 23.6612 3.4482C23.6612 3.55814 23.7078 3.62579 23.805 3.65962C23.9276 3.6723 23.9995 3.65962 24.0291 3.61311C24.0545 3.57082 24.0714 3.52431 24.0714 3.4778C24.0587 3.35095 24.0503 3.2537 24.0503 3.1945C24.0503 3.09302 24.0841 3.0296 24.1517 3C24.1517 3.00846 24.1602 3.08457 24.1729 3.23679C24.1856 3.38901 24.249 3.4778 24.3547 3.5074H24.4266C24.435 3.46089 24.4266 3.39323 24.4054 3.30867C24.3843 3.2241 24.3758 3.17336 24.3758 3.15222C24.3758 3.09302 24.397 3.04228 24.435 3C24.5238 3.06765 24.5661 3.19028 24.5661 3.36364C24.5661 3.42283 24.5577 3.5074 24.545 3.61733ZM24.9509 4.7759C24.9171 4.89006 24.8663 4.99577 24.7987 5.09725C24.731 5.1945 24.6422 5.30021 24.5365 5.41861L23.9361 5.02114C23.8684 5.06765 23.8135 5.13108 23.7754 5.20296C23.6528 5.41437 23.5809 5.52854 23.564 5.54968L22.9128 5.24524C22.9678 5.10148 23.0228 4.98309 23.082 4.89006C23.1412 4.79704 23.2173 4.69979 23.3188 4.60677L23.9572 4.93234L24.3716 4.41649C24.5069 4.48414 24.6042 4.53488 24.6676 4.56871C24.7944 4.63636 24.8917 4.70824 24.9509 4.78012V4.7759ZM22.6464 3.73996C22.5534 4.05708 22.3505 4.35306 22.046 4.62368C21.7881 4.85201 21.4879 5.03806 21.1412 5.17336L20.9086 5.08034C21.0016 5 21.1412 4.90697 21.323 4.80549C21.7289 4.57716 21.9826 4.42072 22.0841 4.34038C21.9953 4.31924 21.8811 4.2981 21.7331 4.2685C21.5894 4.24313 21.4625 4.22621 21.361 4.22621C21.2257 4.22621 21.1073 4.24312 21.0059 4.27695C20.9044 4.31078 20.8156 4.37421 20.7437 4.47146C20.7775 4.31501 20.8536 4.15856 20.9763 3.99789C21.0989 3.83721 21.2384 3.71459 21.4033 3.62579H21.8811C22.0291 3.62579 22.1686 3.63425 22.2913 3.64693C22.4181 3.65962 22.5323 3.68922 22.6422 3.73996H22.6464ZM19.9149 4.34038C19.9276 4.38266 19.9361 4.41226 19.9361 4.4334C19.9361 4.48837 19.9276 4.53911 19.9065 4.58562C19.8642 4.64482 19.8388 4.69133 19.8262 4.7167C19.7162 4.7759 19.6359 4.79281 19.5809 4.75899C19.5598 4.66596 19.5513 4.57294 19.5513 4.48414C19.5513 4.36152 19.5682 4.2389 19.6021 4.12051C19.6147 4.07399 19.6908 3.87526 19.8262 3.52008C19.7712 3.75687 19.7162 3.99366 19.6655 4.23045C19.6655 4.35307 19.712 4.44186 19.8092 4.4926L19.9192 4.34038H19.9149ZM22.1686 6.2093C22.194 6.35306 22.1686 6.42072 22.0756 6.42072C22.0164 6.41226 21.9699 6.41227 21.9445 6.41227C21.8515 6.41227 21.8008 6.47569 21.8008 6.60677C21.7585 6.83087 21.7289 6.99577 21.7078 7.10571C21.6655 7.30021 21.6063 7.46089 21.5259 7.58351C21.3906 7.33827 21.2553 7.09725 21.12 6.852C21.0524 6.82663 21.0016 6.8055 20.9678 6.79281C20.8579 6.7463 20.7987 6.70824 20.786 6.68287C20.786 6.48837 20.8494 6.33192 20.9805 6.21775C21.1285 6.27695 21.2426 6.4334 21.3145 6.68287C21.3906 6.93234 21.4583 7.09725 21.5259 7.16913C21.5725 7.10993 21.6274 6.92811 21.6866 6.6279C21.7458 6.32769 21.8473 6.17548 21.9911 6.17548C22.046 6.17548 22.101 6.18816 22.1644 6.21775L22.1686 6.2093ZM27.0481 9.07188C26.4139 9.07188 25.6951 9.02115 24.8959 8.9239C24.0968 8.82664 23.3357 8.72938 22.6126 8.63636C22.9382 8.45454 23.23 8.2685 23.4963 8.07823C23.8092 7.85413 24.0799 7.62157 24.3166 7.37633C24.4519 7.37633 24.5619 7.5074 24.6422 7.77379C24.7226 8.03595 24.8071 8.20508 24.8959 8.27273C24.9974 8.36575 25.1158 8.41649 25.2511 8.41649C25.3526 8.41649 25.471 8.39112 25.6063 8.3446C25.6486 8.33192 25.7543 8.28541 25.9319 8.21353C26.101 8.04439 26.2194 7.85835 26.287 7.65116C26.3547 7.44398 26.3885 7.21141 26.3885 6.95771C26.3885 6.76744 26.3632 6.51374 26.3166 6.19662C26.2236 5.56237 26.1729 5.14376 26.1729 4.94926C26.1729 4.81395 26.1813 4.67864 26.2025 4.54334C26.2828 4.59831 26.3547 4.67442 26.4139 4.77167C26.4731 4.86892 26.5323 4.96194 26.5873 5.05074C26.6295 5.02959 26.6464 4.98308 26.6464 4.90697C26.6464 4.83932 26.6126 4.69979 26.5492 4.48414C26.4858 4.27273 26.4604 4.12896 26.4731 4.06131C26.3251 3.72304 26.1771 3.38478 26.0376 3.04651C25.9572 3.07188 25.8853 3.13953 25.8262 3.24947C25.7923 3.30444 25.7458 3.39323 25.6824 3.52431C25.8177 4.83509 25.9572 6.14588 26.0968 7.45243C26.0376 7.4778 25.9445 7.52431 25.8219 7.58351C25.6528 7.65116 25.4921 7.67653 25.3357 7.66385C25.1792 7.57083 25.0651 7.4186 24.9889 7.20718C24.934 7.02536 24.879 6.83933 24.8283 6.64905C24.6718 6.69133 24.4942 6.79281 24.2913 6.96194C23.7754 7.39323 23.5006 7.62157 23.4583 7.64271C23.3653 7.71882 22.9467 7.92178 22.2109 8.26004C21.7035 8.48837 21.3906 8.79704 21.268 9.18182C22.156 9.33827 23.12 9.46935 24.1686 9.57928C23.3314 9.72304 22.7014 9.84566 22.2828 9.9556C21.5978 10.1332 21.0101 10.3615 20.5154 10.6448C20.4266 10.6786 19.8219 11.1311 18.6972 12.0063C18.2828 12.3235 17.8896 12.5095 17.509 12.5645C17.3145 12.5645 17.1454 12.4884 17.0101 12.3319C16.9424 12.1543 16.9086 11.981 16.9086 11.8034C16.9086 11.5074 17.0185 11.1691 17.2342 10.7886C17.4245 10.4926 17.6147 10.1882 17.8135 9.88372C17.5978 10.1797 17.3822 10.4757 17.175 10.7674C16.9382 11.1184 16.7944 11.4482 16.7479 11.7526C16.7479 11.7865 16.7395 11.8414 16.7268 11.9133V12.0655C16.7268 12.2558 16.7606 12.4207 16.824 12.5687C16.8875 12.7125 16.9932 12.8393 17.1454 12.9408C17.268 12.9831 17.3822 13 17.4921 13C17.7289 13 17.9911 12.907 18.2744 12.7252C18.3674 12.666 18.5957 12.4884 18.9551 12.1966C19.4414 11.8034 19.953 11.4778 20.4942 11.2241C21.0312 10.9662 21.5894 10.7632 22.1686 10.6152C22.7479 10.4672 23.3526 10.3404 23.9911 10.2389C24.6253 10.1374 25.2511 10.0402 25.86 9.94291C26.008 9.92177 26.1475 9.89217 26.2701 9.84989C26.397 9.8076 26.5069 9.75688 26.5999 9.68922L27.0481 9.07188ZM18.0164 4.4334C18.0291 4.45877 18.0376 4.50105 18.0376 4.55602C18.0376 4.69979 17.9784 4.82241 17.8557 4.93234C17.8008 4.92389 17.7585 4.89006 17.7289 4.82664C17.6993 4.76321 17.6697 4.69556 17.6443 4.6279C17.6443 4.31078 17.7247 4.06131 17.8896 3.88795C17.8473 4.04862 17.8135 4.21353 17.7796 4.37421C17.7796 4.47569 17.8177 4.56025 17.8896 4.6279L18.0207 4.4334H18.0164ZM20.3082 7.57928C20.3336 7.65539 20.3251 7.73573 20.2786 7.82453C20.2025 7.92601 20.1517 7.99789 20.1264 8.03594C20.0799 8.03594 20.0333 8.0148 19.9953 7.97674C19.9572 7.93869 19.9276 7.89218 19.9192 7.84566C19.9107 7.79915 19.9023 7.75687 19.9023 7.71882V7.64271C19.9023 7.3721 19.9699 7.10993 20.1052 6.852C20.1052 6.9112 20.0883 7.01268 20.0587 7.14799C20.0291 7.2833 20.0122 7.37633 20.0122 7.4313C20.0122 7.50741 20.0207 7.56659 20.0376 7.60888C20.0545 7.65116 20.0883 7.69768 20.1433 7.74419L20.304 7.58351L20.3082 7.57928ZM25.6655 12.1247C25.509 12.3277 25.3018 12.4926 25.0397 12.6152C24.7775 12.7421 24.5111 12.8013 24.2321 12.8013C24.0968 12.8013 23.9741 12.7759 23.86 12.7252C23.75 12.6744 23.657 12.5899 23.5894 12.4757C23.5894 12.2939 23.657 12.1247 23.7923 11.9683C23.9065 11.8414 24.0545 11.7273 24.2278 11.6342C24.2025 11.5877 24.1602 11.5539 24.1052 11.5328C24.0503 11.5116 23.9741 11.4947 23.8727 11.482C23.7796 11.5159 23.712 11.5285 23.6782 11.5243C23.7204 11.4482 23.7627 11.389 23.8135 11.3383C23.8642 11.2875 23.9192 11.2622 23.9826 11.2622C24.1052 11.2833 24.2025 11.3002 24.2828 11.3129C24.3589 11.3256 24.4223 11.3594 24.4689 11.4144C24.4942 11.5581 24.3885 11.7104 24.1433 11.871C23.898 12.0317 23.7796 12.1501 23.7796 12.2178C23.7796 12.3066 23.8769 12.3996 24.0756 12.5011C24.2109 12.5349 24.3293 12.5518 24.4308 12.5518C24.676 12.5518 24.9382 12.4884 25.2215 12.3573C25.3018 12.3235 25.4498 12.2474 25.657 12.1247H25.6655ZM21.767 12.0825C21.7881 12.1374 21.7839 12.1966 21.7627 12.26C21.7374 12.3235 21.7078 12.3953 21.6655 12.4799C21.6232 12.5264 21.5809 12.5518 21.5344 12.5518C21.4879 12.5518 21.4414 12.5264 21.4033 12.4799C21.3357 12.3531 21.3018 12.2262 21.3018 12.1036C21.3018 11.926 21.3653 11.7146 21.4963 11.4651C21.5555 11.3425 21.6232 11.2241 21.6908 11.1099C21.6443 11.2326 21.6105 11.3213 21.5894 11.3848C21.509 11.6089 21.4667 11.7865 21.4667 11.9218C21.4667 12.0698 21.509 12.2009 21.5978 12.3066L21.7712 12.0825H21.767ZM16.0545 5.41437L15.9953 5.65962C15.9149 5.65117 15.8177 5.6427 15.712 5.62579C15.602 5.60888 15.5344 5.60042 15.5006 5.60042C15.3991 5.60042 15.3145 5.61311 15.2426 5.63425C15.1708 5.65962 15.1073 5.7019 15.0439 5.76955C15.0693 5.95983 15.1327 6.23045 15.2257 6.58563C15.3188 6.94081 15.3864 7.21987 15.4287 7.42283C15.4498 7.537 15.4667 7.65117 15.4794 7.7611C15.4921 7.87104 15.5006 7.9852 15.5006 8.09937C15.5006 8.45032 15.4202 8.78012 15.2553 9.08456C15.3103 8.97462 15.3483 8.85201 15.3779 8.71248C15.4033 8.57294 15.4202 8.45032 15.4202 8.34038C15.4202 8.16279 15.3991 7.98943 15.361 7.81184C15.3188 7.63425 15.2638 7.43975 15.1919 7.21988C15.12 7.00001 15.0608 6.79704 15.0143 6.60677C14.9678 6.41649 14.9424 6.25159 14.9424 6.10783C14.9424 5.8795 14.9932 5.67653 15.0946 5.49894C15.1412 5.45243 15.213 5.41015 15.3061 5.37632C15.3188 5.36786 15.4118 5.34249 15.5809 5.29598C15.5006 5.2537 15.4245 5.23678 15.3568 5.23678C15.2892 5.23678 15.2384 5.2537 15.2046 5.28753C15.1919 5.28753 15.175 5.30021 15.1538 5.32135C15.1327 5.34672 15.1116 5.35518 15.0946 5.34672C15.1158 5.25793 15.1412 5.18605 15.1708 5.12685C15.2004 5.06765 15.2553 5.01692 15.3399 4.9704H15.4118C15.3357 4.7463 15.2722 4.58139 15.2173 4.47146C15.1158 4.2685 14.9805 4.17548 14.8114 4.19662C14.7183 4.16279 14.6676 4.09091 14.6676 3.9852C14.6676 3.93869 14.6803 3.87526 14.7099 3.79915C14.7352 3.72304 14.7564 3.66385 14.7691 3.62157C14.8917 3.65539 14.9974 3.73573 15.082 3.86681C15.1961 4.07823 15.3145 4.28118 15.4371 4.48414C15.4625 4.28118 15.4921 4.07822 15.5175 3.87526C15.564 3.63847 15.6612 3.4778 15.8135 3.38901C15.9403 3.37632 16.0249 3.40169 16.0587 3.46934L16.0291 3.72304C15.9741 3.68921 15.9065 3.6723 15.8262 3.6723C15.7712 3.6723 15.7204 3.68921 15.6739 3.72304C15.6401 3.77801 15.6147 3.84989 15.602 3.94292C15.5894 4.03594 15.5809 4.12896 15.5809 4.22199V4.49683C15.5809 4.57294 15.5809 4.64059 15.5767 4.70824C15.5767 4.7759 15.5555 4.84778 15.5217 4.91966C15.6147 4.97886 15.712 5.05497 15.8092 5.13953C15.9065 5.2241 15.9911 5.3129 16.0587 5.41015L16.0545 5.41437ZM17.1792 8.05285C17.1792 8.11204 17.1708 8.16701 17.1581 8.21353C17.1454 8.26004 17.0989 8.37421 17.0143 8.56025C16.9678 8.59408 16.9213 8.59408 16.8705 8.56025C16.824 8.52643 16.7775 8.47569 16.7395 8.40804C16.6972 8.29387 16.6803 8.19239 16.6803 8.1036C16.6803 7.96829 16.7183 7.81606 16.7902 7.64693C16.824 7.56659 16.9001 7.42284 17.0143 7.21988C16.9382 7.46935 16.8705 7.71882 16.8029 7.95984C16.8029 8.1036 16.8663 8.22199 16.9974 8.31501C17.0312 8.30233 17.0566 8.25582 17.0777 8.17971C17.0989 8.1036 17.1327 8.0613 17.1792 8.05285ZM19.5725 10.5814C19.5725 10.5814 19.4752 10.7082 19.3188 10.9154C19.2046 11.0719 19.1031 11.148 19.0143 11.148C18.934 11.148 18.8536 11.0888 18.7818 10.9746C18.7056 10.9197 18.6549 10.8816 18.6211 10.8647C18.5534 10.8224 18.49 10.8097 18.4266 10.8224C18.4012 10.8816 18.3505 10.9577 18.2828 11.0465C18.249 11.0888 18.1898 11.1522 18.101 11.241C17.9911 11.186 17.8853 11.1353 17.7754 11.0888C17.6486 11.0127 17.5809 10.9323 17.5725 10.8435C17.6528 10.7209 17.712 10.6321 17.7458 10.5687C17.8219 10.4545 17.9023 10.37 17.9911 10.315C18.1137 10.3742 18.2109 10.4249 18.2786 10.463C18.3505 10.5011 18.4308 10.5476 18.5154 10.611L18.9128 10.1628C19.1158 10.2727 19.23 10.3319 19.2596 10.3446C19.3695 10.4038 19.471 10.4841 19.5725 10.5772V10.5814ZM20.3631 9.21987L20.1686 9.98098C19.7035 9.7907 19.213 9.69767 18.7056 9.69767C17.8811 9.69767 17.1242 9.94715 16.4435 10.4503C16.1475 10.6195 15.7796 10.9027 15.3483 11.3044C14.8071 11.8118 14.4562 12.1247 14.2913 12.2389C13.8727 12.5518 13.4625 12.7336 13.0651 12.7886C12.7818 12.7421 12.6042 12.704 12.5365 12.6786C12.3547 12.6025 12.2236 12.4841 12.139 12.315C12.0925 12.1924 12.0545 12.0782 12.0333 11.9641C12.008 11.8541 11.9995 11.7273 11.9995 11.592C11.9995 11.2199 12.1264 10.797 12.3758 10.3235C12.6042 9.93024 12.8367 9.537 13.0651 9.148C12.9424 8.95772 12.8536 8.76322 12.7944 8.56449C12.7352 8.36575 12.7099 8.15434 12.7099 7.93024C12.7099 7.52432 12.8071 7.08033 13.0059 6.60253C13.1496 6.25581 13.3526 5.8668 13.6147 5.42706C13.3906 5.90063 13.2384 6.28541 13.1581 6.57716C13.0777 6.87315 13.0355 7.14376 13.0355 7.39323C13.0355 7.5835 13.0481 7.73995 13.0777 7.87103C13.1031 7.99788 13.1623 8.14587 13.2511 8.30655C13.3737 8.45031 13.509 8.50106 13.657 8.45878C13.7035 8.42495 13.75 8.35306 13.7923 8.2389C13.8346 8.12896 13.8896 8.0613 13.9488 8.04016C13.9149 8.32346 13.8727 8.54335 13.8177 8.69979C13.7374 8.94504 13.6105 9.13107 13.4414 9.25792C13.3864 9.2241 13.3357 9.20719 13.2892 9.20719C13.213 9.20719 13.1538 9.2537 13.1031 9.3425C13.0524 9.43552 13.0016 9.52008 12.9551 9.60042C12.7987 9.87949 12.6464 10.1501 12.4985 10.4207C12.3293 10.7505 12.2448 11.0507 12.2448 11.3129C12.2448 11.4947 12.2828 11.6723 12.3547 11.8414C12.435 11.9767 12.5492 12.0698 12.6887 12.1247C12.8325 12.1797 12.9932 12.2051 13.175 12.2051C13.6147 12.0233 14.1306 11.685 14.7183 11.1903C15.2046 10.7759 15.6951 10.3658 16.1898 9.95138C16.7775 9.49895 17.3188 9.20296 17.8135 9.06766C17.9065 9.02537 18.0249 8.99154 18.1644 8.96617C18.304 8.9408 18.4562 8.9112 18.6253 8.88583C18.4097 8.05285 18.194 7.21987 17.9868 6.39112C18.0207 6.21353 18.0587 6.08245 18.0968 5.99365C18.1644 5.84989 18.2448 5.76532 18.342 5.7315C18.4562 5.87526 18.5703 6.0148 18.6887 6.15856C18.824 6.34884 18.8917 6.50529 18.8917 6.63637C18.8917 6.69134 18.8832 6.74631 18.8621 6.79705C18.8283 6.78436 18.7775 6.75476 18.7141 6.70402C18.6507 6.65751 18.6042 6.62367 18.5788 6.60253C18.6718 7.27907 18.7437 7.68499 18.7902 7.82029C18.9382 8.27273 19.2046 8.59408 19.5936 8.78435L20.3631 9.21987ZM14.194 10.4292C14.1686 10.4503 14.139 10.5053 14.1094 10.5983C14.0799 10.6913 14.0291 10.7294 13.9615 10.7167C13.9065 10.6575 13.8811 10.5814 13.8811 10.4926C13.8811 10.4503 13.9023 10.37 13.9403 10.2431C13.9826 10.1163 13.9995 10.019 13.9911 9.94291C13.9361 10.0528 13.8938 10.1459 13.86 10.2262C13.7923 10.4038 13.7585 10.5645 13.7585 10.7125C13.7585 10.7717 13.7585 10.8182 13.767 10.8435C13.8135 10.945 13.8896 10.9958 13.9911 10.9958C14.0714 10.9366 14.1306 10.852 14.1644 10.7463C14.1982 10.6406 14.2067 10.5349 14.194 10.4249V10.4292Z" fill="currentColor"/>
</svg>
