<svg width="40" height="16" viewBox="0 0 40 16" fill="none" xmlns="http://www.w3.org/2000/svg">
<path fill-rule="evenodd" clip-rule="evenodd" d="M28.1346 5.2651C28.1346 5.2651 28.0926 5.30285 28.0759 5.31544C28.0171 5.28188 27.9668 5.22315 27.9248 5.14346C27.8326 4.94211 27.7654 4.82886 27.7235 4.7995L27.6522 4.90856C27.6522 5.21896 27.7361 5.8901 27.9039 6.93037C27.992 7.46728 28.0339 7.88255 28.0339 8.18037C28.0759 8.54111 28.0926 8.90604 28.0926 9.26678C28.0926 9.65688 28.0633 10.0218 28.0087 10.3574C27.95 10.6971 27.8577 11.0327 27.7235 11.3683H27.7025C27.7025 10.6049 27.669 9.81208 27.6061 8.99413C27.5431 8.17617 27.455 7.27433 27.3376 6.2844C27.1488 4.64849 27.0566 3.81795 27.0566 3.79698C27.1027 3.67534 27.1488 3.55369 27.1992 3.42366C27.2579 3.28943 27.3334 3.18876 27.4215 3.12164C27.6019 3.59983 27.7319 3.95218 27.8158 4.17869C27.9626 4.58138 28.0717 4.94211 28.1388 5.25671L28.1346 5.2651ZM24.3468 3C24.2671 3.09228 24.1539 3.17617 24.0155 3.25168C23.9064 3.30621 23.7722 3.36074 23.6128 3.41946C23.4534 3.47819 23.3275 3.52013 23.2394 3.5453C23.0842 3.59983 22.9584 3.65436 22.8577 3.7047C22.9248 3.59564 23.0129 3.51174 23.1178 3.44463C23.2269 3.37752 23.3611 3.3146 23.5289 3.25168L24.3426 3H24.3468ZM24.3762 4.27936C24.2839 4.42198 24.1161 4.54362 23.8728 4.65268C23.6715 4.74077 23.4743 4.82886 23.2772 4.91275C23.2646 4.86661 23.2814 4.81208 23.3317 4.74497C23.3821 4.68205 23.4366 4.6401 23.4995 4.61913C23.3905 4.5646 23.3275 4.52685 23.3066 4.51007C23.2478 4.46393 23.2017 4.40101 23.1765 4.3297C23.2185 4.20386 23.2772 4.08641 23.3527 3.98574C23.4282 3.88507 23.5205 3.82634 23.6295 3.80537C23.7764 3.80537 23.877 3.86409 23.9316 3.98574C23.9316 4.02768 23.9148 4.06963 23.8812 4.11158C23.8477 4.15352 23.8099 4.20386 23.7722 4.25839C23.7806 4.21644 23.768 4.18289 23.7386 4.15352C23.7092 4.12416 23.6673 4.08641 23.6128 4.04866C23.5121 4.03607 23.4366 4.06544 23.3905 4.14094C23.5163 4.32131 23.6841 4.41359 23.8938 4.41359C23.9274 4.41359 23.9693 4.4052 24.0238 4.39262C24.1035 4.35906 24.1707 4.33389 24.2252 4.31292C24.2797 4.29195 24.33 4.28356 24.3762 4.28356V4.27936ZM26.1589 8.50755C26.1589 8.03775 26.1044 7.49664 25.9995 6.88842C25.924 6.47735 25.8191 5.97399 25.6765 5.37836C25.6765 5.36577 25.6514 5.24413 25.6052 5.01762C25.5926 4.9505 25.5842 4.87919 25.5842 4.80789C25.5842 4.7156 25.6094 4.63171 25.6556 4.55621C25.7101 4.63171 25.773 4.70721 25.8527 4.78272C25.9282 4.85822 25.9995 4.91695 26.0582 4.9505L26.117 4.92114C26.0373 4.6401 25.9114 4.33389 25.7436 3.99832C25.5759 3.66695 25.4165 3.34396 25.2613 3.03775C25.1732 3.09648 25.1019 3.21393 25.0515 3.38171C25.0264 3.4698 24.9844 3.59564 24.9299 3.76342C24.955 3.88926 25.127 4.74497 25.4416 6.32215C25.5842 7.02685 25.6891 7.5344 25.7646 7.8406C25.7982 8.03356 25.8317 8.24329 25.8695 8.4656C25.9072 8.68792 25.924 8.87668 25.924 9.04027C25.924 9.22064 25.8988 9.38842 25.8485 9.54362C25.7982 9.69883 25.7143 9.82886 25.601 9.93792C25.5926 9.87081 25.5884 9.80369 25.58 9.73658C25.58 9.71141 25.58 9.67366 25.5884 9.62752V9.43456C25.5884 9.19128 25.5591 8.95218 25.5045 8.71309C25.4458 8.47399 25.3703 8.25587 25.2696 8.05453C25.1438 7.80705 24.9928 7.56795 24.8166 7.34144C24.6698 7.15268 24.4769 6.93876 24.242 6.69547C23.8141 6.2802 23.3821 5.86493 22.9542 5.44547C22.6941 5.19799 22.4844 4.98406 22.3292 4.81208C22.1195 4.57718 21.9433 4.35067 21.7965 4.12836C21.8175 4.10738 21.8426 4.09899 21.8762 4.09899C21.8888 4.09899 21.9265 4.11158 21.9936 4.13255C22.0566 4.15772 22.1069 4.15352 22.1405 4.12836C22.0314 3.98154 21.8468 3.82215 21.5868 3.65436C21.2764 3.45302 21.0834 3.3146 21.0037 3.24329C20.945 3.34396 20.903 3.44463 20.8779 3.5495C20.8527 3.65436 20.8443 3.77601 20.8443 3.91862L21.5784 4.875C21.7797 5.13507 22.0062 5.39513 22.2621 5.65101C22.3963 5.78523 22.5515 5.93205 22.7235 6.09564L23.9819 7.27433C24.2042 7.49664 24.393 7.70218 24.544 7.89933C24.7243 8.12164 24.8837 8.33977 25.018 8.55369C25.1774 8.83054 25.299 9.08222 25.3745 9.31711C25.45 9.55201 25.492 9.80789 25.492 10.0805C25.1774 10.4413 24.7621 10.7727 24.2545 11.0663C23.7931 11.3012 23.3317 11.5361 22.8745 11.771C23.2772 11.771 23.6505 11.7332 23.9987 11.6535C24.3426 11.578 24.6614 11.4438 24.9509 11.255C25.3997 10.9614 25.7227 10.5587 25.9156 10.047C26.075 9.63171 26.1589 9.11997 26.1589 8.51594V8.50755ZM20.4332 4.80369C20.4207 4.96309 20.3535 5.1099 20.2361 5.23993C20.1186 5.36997 19.976 5.46644 19.8082 5.52517C19.7285 5.52517 19.6614 5.49581 19.6069 5.43289C19.5859 5.40772 19.5649 5.36577 19.5356 5.31124C19.5356 5.17701 19.5649 5.04279 19.6279 4.90856C19.6698 4.82047 19.7369 4.69883 19.8376 4.54782L19.8586 4.59815L19.9173 4.48909C20.0096 4.53104 20.1102 4.5646 20.2109 4.59815C20.32 4.6443 20.3913 4.71141 20.4332 4.7995V4.80369ZM16.8804 4.45973C16.893 4.52685 16.8888 4.59815 16.8594 4.66946C16.8133 4.76174 16.7797 4.82886 16.7587 4.87081C16.6707 4.98406 16.5868 5.02181 16.5071 4.97987C16.4483 4.87919 16.4148 4.75336 16.4148 4.60654C16.4148 4.45973 16.4441 4.30453 16.5071 4.14513C16.5322 4.07802 16.6035 3.9354 16.7168 3.72148C16.6916 3.77601 16.6581 3.8557 16.6245 3.96477C16.57 4.12416 16.5448 4.27517 16.5448 4.4094C16.5448 4.54362 16.57 4.65688 16.6161 4.75336C16.6748 4.74077 16.7294 4.69044 16.7755 4.60654C16.8217 4.52265 16.8552 4.47232 16.8762 4.45973H16.8804ZM15.127 4.80369C15.1019 4.97148 15.0473 5.13507 14.9676 5.29866C14.8544 5.50839 14.7705 5.6594 14.716 5.75168H14.674C14.7873 5.5755 14.8754 5.39094 14.9425 5.19799C15.0054 5.00503 15.0389 4.80369 15.0389 4.59396C15.0389 4.38423 15.0012 4.19966 14.9299 4.03188C14.9299 3.96477 14.8879 3.87248 14.804 3.75503C14.7201 3.63758 14.6782 3.55369 14.6782 3.50755C14.6782 3.44044 14.716 3.38171 14.7873 3.32718C14.9005 3.47399 14.997 3.64597 15.0683 3.83473C15.1438 4.02768 15.1774 4.22064 15.1774 4.41359C15.1774 4.56879 15.1606 4.69883 15.127 4.80789V4.80369ZM23.8267 8.88926C23.6254 9.00252 23.3066 9.19966 22.8703 9.47232C22.1992 9.84983 21.6161 10.0344 21.117 10.0344C20.9282 10.0344 20.7478 10.0092 20.5717 9.96309C20.3955 9.91695 20.2277 9.83725 20.0599 9.7198C19.8166 9.51846 19.6572 9.28356 19.5733 9.0193C19.4894 8.75503 19.4475 8.43205 19.4475 8.05873C19.7411 7.8448 20.0683 7.69799 20.429 7.62248C20.7898 7.54698 21.1925 7.50503 21.6413 7.50503C21.7294 7.51342 21.9265 7.55117 22.2411 7.62248C22.5515 7.69379 22.7277 7.74832 22.7613 7.79027C22.5935 7.50084 22.3586 7.28272 22.0608 7.13591C21.7629 6.98909 21.4399 6.91359 21.1002 6.91359C20.9576 6.91359 20.8233 6.92198 20.6891 6.94295C20.32 7.00168 19.9844 7.16946 19.6866 7.44211C19.3888 7.71477 19.1707 8.02936 19.0364 8.3943C19.028 8.44044 19.0196 8.50336 19.0113 8.58725C19.0029 8.66695 18.9945 8.74245 18.9945 8.80956C18.9945 9.07802 19.0322 9.33809 19.1035 9.58557C19.179 9.83305 19.2839 10.0554 19.4265 10.2483C19.3804 10.2483 19.3217 10.2357 19.2545 10.2064C19.1874 10.1812 19.1413 10.1644 19.1119 10.156C18.8854 10.0428 18.7009 9.87919 18.5582 9.66946C18.4156 9.45973 18.3317 9.23322 18.2982 8.98993C18.2982 8.47399 18.2772 7.84899 18.2394 7.11913C18.1975 6.38926 18.1597 5.6552 18.122 4.92114C18.0842 4.18708 18.0675 3.55789 18.0675 3.03356C17.9794 3.0797 17.9081 3.16779 17.8577 3.29362C17.8326 3.36074 17.7864 3.4698 17.7277 3.61661C17.7277 3.99413 17.7445 4.4807 17.7822 5.08473C17.82 5.68876 17.8535 6.26762 17.8871 6.81711C17.9207 7.36661 17.9374 7.89513 17.9374 8.39849C17.6438 8.69211 17.2621 8.92701 16.8007 9.10319C16.5322 9.20386 16.096 9.3297 15.492 9.47651C15.4248 9.59815 15.3577 9.7198 15.2948 9.84564C15.2319 9.97148 15.1983 10.0889 15.1983 10.2022C15.9114 10.2022 16.5322 10.3784 17.0691 10.7349C16.4567 11.1628 15.8653 11.4983 15.2864 11.7416C14.6488 12.0101 13.9903 12.1737 13.3149 12.2366C12.9248 12.2366 12.5767 12.1653 12.2621 12.0268C11.9517 11.8842 11.7042 11.6661 11.5238 11.3641C11.4358 11.1837 11.3938 10.9866 11.3938 10.781C11.3938 10.5378 11.4693 10.2273 11.6245 9.84564C11.7042 9.6443 11.8217 9.36326 11.9769 8.99832C12.044 8.87248 12.1195 8.73826 12.1992 8.59564C12.2789 8.45302 12.3795 8.38591 12.5012 8.38591C12.5222 8.38591 12.5599 8.3943 12.6102 8.40688C12.7655 8.28104 12.8871 8.09228 12.9836 7.8448C13.0171 7.7651 13.08 7.55117 13.1765 7.21141C13.122 7.23238 13.0633 7.31208 12.9962 7.44631C12.929 7.58473 12.8368 7.64346 12.7235 7.62248C12.6102 7.47987 12.5306 7.34564 12.4886 7.2198C12.4467 7.09396 12.4215 6.94715 12.4215 6.78775C12.4215 6.4396 12.5851 5.97399 12.9165 5.38674C13.1765 4.92534 13.3191 4.67366 13.3401 4.63171C13.1178 4.89178 12.9584 5.09312 12.8577 5.23574C12.5557 5.65101 12.3292 6.03272 12.1782 6.38507C12.0272 6.73322 11.9517 7.0646 11.9517 7.37081C11.9517 7.5302 11.9727 7.68121 12.0188 7.82383C12.0608 7.96644 12.1279 8.09648 12.216 8.21812C11.721 9.20386 11.4525 9.74077 11.4106 9.82886C11.2554 10.177 11.1379 10.521 11.0582 10.8565C11.0163 11.0159 10.9995 11.1711 10.9995 11.318C10.9995 11.8087 11.1841 12.2072 11.5532 12.5176C11.8091 12.698 12.0566 12.8238 12.2915 12.8951C12.5306 12.9664 12.7948 13 13.0926 13C13.617 13 14.221 12.8574 14.9047 12.568C15.2193 12.4337 15.773 12.1569 16.5658 11.7332C16.8468 11.599 17.0775 11.3767 17.2621 11.0705C17.4047 10.8356 17.5222 10.5419 17.6144 10.1938C17.5599 10.0596 17.4425 9.9505 17.2621 9.87081C17.0062 9.75755 16.8678 9.69044 16.8384 9.66946C17.0649 9.5604 17.2663 9.44295 17.4425 9.30872C17.6564 9.14933 17.8158 8.98154 17.9165 8.80537C17.95 9.08641 17.9878 9.36745 18.0255 9.65268C18.1136 10.2357 18.3275 10.6384 18.6715 10.8607C18.8812 10.9824 19.0868 11.0663 19.2923 11.1124C19.4978 11.1586 19.7118 11.1837 19.9425 11.1837C20.3032 11.1837 20.6933 11.125 21.1086 11.0034C21.4106 10.9153 21.7713 10.781 22.1866 10.6007C22.4341 10.4874 22.6648 10.3616 22.8829 10.2273C23.1304 10.068 23.3317 9.90017 23.4869 9.73238L23.8393 8.90604L23.8267 8.88926ZM22.325 12.3414C22.1488 12.4841 21.9685 12.5931 21.7797 12.677C21.591 12.7609 21.4022 12.8029 21.205 12.8029C21.0079 12.8029 20.8443 12.7567 20.6807 12.6602C20.6472 12.6267 20.6304 12.5763 20.6304 12.5092C20.6304 12.4547 20.6472 12.4044 20.6807 12.3582C20.773 12.2576 20.8695 12.1569 20.9618 12.0562C20.8863 12.0143 20.8359 11.9723 20.8024 11.9262C20.7688 11.88 20.752 11.8339 20.752 11.7961C20.752 11.7584 20.7814 11.7164 20.8443 11.6745C20.9198 11.599 20.9743 11.5487 21.0163 11.5235C21.0834 11.4773 21.1505 11.4522 21.2176 11.4522C21.2638 11.4522 21.3099 11.4732 21.3477 11.5109C21.3477 11.5529 21.3309 11.5864 21.2973 11.6158C21.2638 11.6451 21.2302 11.6787 21.1967 11.7122C21.1631 11.7248 21.1295 11.7164 21.1002 11.6871C21.0708 11.6577 21.0373 11.6577 21.0037 11.6913C21.0624 11.7836 21.1463 11.8339 21.247 11.8339C21.3057 11.8339 21.3812 11.8171 21.4735 11.7836C21.5658 11.75 21.6245 11.7332 21.6497 11.7332C21.6161 11.8087 21.4358 11.9262 21.1044 12.094C20.9618 12.1695 20.8946 12.2366 20.8946 12.3037C20.8946 12.3708 20.9324 12.4421 21.0037 12.5134C21.1044 12.5344 21.2092 12.5428 21.3141 12.5428C21.5071 12.5428 21.721 12.5134 21.9475 12.4505C22.0356 12.4295 22.1572 12.3918 22.3208 12.3289L22.325 12.3414ZM15.2571 7.19883C15.2696 7.26594 15.2696 7.32466 15.2529 7.37919C15.2361 7.43372 15.2025 7.4547 15.1564 7.4505C15.1102 7.40856 15.0641 7.36661 15.0264 7.32047C14.9802 7.27852 14.9299 7.25336 14.8754 7.24077C14.8628 7.28691 14.8502 7.36242 14.846 7.46309C14.8376 7.56376 14.8376 7.64346 14.8376 7.70638V7.82802C14.8376 8.0755 14.8208 8.24748 14.7831 8.33977C14.7453 8.43205 14.6824 8.51174 14.5859 8.57047C14.5775 8.56208 14.5188 8.40688 14.4056 8.09648C14.33 7.90772 14.2168 7.83221 14.0616 7.86577C13.9735 7.8406 13.9232 7.80285 13.9106 7.75671C13.9232 7.66443 13.9358 7.56795 13.9525 7.47567C13.9777 7.375 14.0448 7.31628 14.1455 7.2953C14.2797 7.375 14.4014 7.57215 14.5062 7.87836C14.5649 8.04614 14.6321 8.17198 14.6992 8.25168C14.6992 7.88255 14.7076 7.61409 14.7243 7.44211C14.7411 7.27013 14.804 7.10654 14.9089 6.95554C14.9844 6.97651 15.0515 7.00587 15.1186 7.04782C15.1858 7.08977 15.2319 7.1401 15.2613 7.20721L15.2571 7.19883ZM13.5876 10.0889C13.5876 10.3238 13.5037 10.5084 13.3359 10.6426C13.2772 10.6552 13.2269 10.6342 13.1849 10.5713C13.143 10.4916 13.1178 10.4371 13.1094 10.4119C13.101 10.3867 13.0926 10.3406 13.0926 10.2819C13.0926 10.1477 13.1094 10.026 13.1472 9.92114C13.1849 9.81208 13.2478 9.69463 13.3317 9.5604C13.3191 9.61493 13.2982 9.69463 13.273 9.80789C13.2478 9.91695 13.2311 10.005 13.2311 10.0638C13.2311 10.1896 13.273 10.2945 13.3527 10.3742C13.3988 10.3616 13.4366 10.328 13.4576 10.2777C13.4827 10.2273 13.5079 10.1644 13.5415 10.0931H13.5834L13.5876 10.0889ZM20.1816 5.08473C20.2151 5.00923 20.2025 4.9547 20.1396 4.91275C20.0264 4.85403 19.9131 4.78691 19.8082 4.7198L19.7663 4.7995C19.7327 4.86661 19.716 4.94211 19.716 5.02181C19.716 5.12248 19.7453 5.1896 19.8082 5.22315C19.8879 5.24413 19.9676 5.22315 20.0389 5.17282C20.1144 5.11829 20.1606 5.08893 20.1816 5.08054V5.08473Z" fill="currentColor"/>
</svg>
