<svg width="40" height="16" viewBox="0 0 40 16" fill="none" xmlns="http://www.w3.org/2000/svg">
<path fill-rule="evenodd" clip-rule="evenodd" d="M28.3182 3C28.2918 3.15385 28.1424 3.26374 27.8742 3.32088C27.6061 3.38242 27.4479 3.42638 27.3995 3.45275C26.1072 3.91869 24.8105 4.38023 23.5182 4.84616C23.5797 4.61319 23.7556 4.45934 24.0457 4.38022C24.4589 4.26154 24.6962 4.18242 24.7534 4.14725C26.116 3.68132 26.8545 3.43517 26.9687 3.4C27.4259 3.25055 27.8742 3.11868 28.3182 3ZM26.2523 5.16264C26.2259 5.17143 26.1951 5.20659 26.1687 5.26813C26.1424 5.32967 26.1072 5.36924 26.0632 5.38242C25.9446 5.32088 25.883 5.21539 25.883 5.06594C25.883 5.05275 25.8918 5.00001 25.905 4.9077C25.9182 4.81539 25.9314 4.72747 25.949 4.64396C25.8171 4.86374 25.7468 5.1099 25.7468 5.38242C25.7556 5.44396 25.7819 5.5011 25.8259 5.54945C25.8698 5.5978 25.927 5.63297 25.9885 5.65495C26.0852 5.62858 26.1556 5.55825 26.1995 5.44396C26.2127 5.40001 26.2303 5.30769 26.2523 5.15824V5.16264ZM23.9402 3.03077C22.4413 3.51429 20.938 4.07692 19.4259 4.70989C19.3995 4.75824 19.3687 4.8066 19.3424 4.85935C19.316 4.9077 19.3072 4.95165 19.3204 4.98682C20.0501 4.67033 20.6391 4.42418 21.083 4.24836C21.6193 4.03737 22.2127 3.81759 22.8676 3.59341C22.938 3.54945 23.1402 3.47912 23.4786 3.37363C23.7336 3.29451 23.8874 3.18462 23.9446 3.03517L23.9402 3.03077ZM28.7709 11.5758C28.5951 11.7604 28.4017 11.9055 28.1863 12.0154C27.9709 12.1253 27.7468 12.178 27.5182 12.178C27.3687 12.178 27.2457 12.1604 27.1402 12.1253C27.083 12.0769 27.0391 12.0242 27.0039 11.9714C26.9687 11.9187 26.9512 11.8615 26.9512 11.7956C26.9512 11.7604 26.96 11.7209 26.9819 11.6813L27.2984 11.2681C27.2413 11.2681 27.1841 11.2418 27.1314 11.1846C27.0698 11.1011 27.0215 11.044 26.9951 11.0176C27.0654 10.8989 27.1446 10.7978 27.2281 10.7231C27.3424 10.6264 27.4479 10.5736 27.5534 10.5736C27.6149 10.5736 27.6808 10.5956 27.7424 10.6352C27.7687 10.6791 27.7687 10.7275 27.7336 10.7846C27.6984 10.8418 27.6545 10.8813 27.6061 10.8989C27.5797 10.8286 27.527 10.7934 27.4479 10.7934C27.3995 10.7934 27.338 10.8154 27.2676 10.8549L27.2457 10.8769C27.2808 10.9385 27.338 10.9824 27.4127 11.0088C27.4918 11.0352 27.5665 11.0571 27.6457 11.0791C27.7072 11.0527 27.7819 11.022 27.8654 10.9956C27.949 10.9692 28.0149 10.9473 28.0545 10.9341C28.0281 11.0308 27.8742 11.1539 27.6017 11.2945C27.3292 11.4352 27.1885 11.5494 27.1885 11.633C27.1885 11.6769 27.2061 11.7165 27.2369 11.7604C27.2676 11.8044 27.3248 11.8527 27.3995 11.9099C27.4962 11.9319 27.5885 11.9407 27.672 11.9407C27.8479 11.9407 28.0369 11.9011 28.2435 11.8264C28.327 11.8 28.5028 11.7165 28.7709 11.5846V11.5758ZM18.2435 4.4022C18.1819 4.4022 18.1248 4.37582 18.0764 4.31868C18.0676 4.30549 18.0325 4.24836 17.9709 4.15165C17.9621 4.12528 17.9621 4.07693 17.9621 4.01539C17.9621 3.79121 18.0369 3.57583 18.1819 3.37363C18.1687 3.41759 18.1512 3.47912 18.1292 3.56704C18.1072 3.65495 18.0984 3.72528 18.0984 3.77363C18.0984 3.92308 18.1468 4.03297 18.2479 4.11209C18.3094 4.12528 18.3621 4.09012 18.3973 4.0022C18.4325 3.91429 18.4545 3.86594 18.4589 3.86154C18.4808 3.98022 18.472 4.09011 18.4369 4.18242C18.4017 4.27912 18.3402 4.35385 18.2479 4.41099L18.2435 4.4022ZM20.6083 6.03736C20.5819 6.10769 20.56 6.16484 20.5468 6.21319C20.5336 6.25715 20.5028 6.26594 20.4501 6.23077C20.4237 6.19561 20.3841 6.16923 20.3402 6.15605C20.2962 6.14286 20.2611 6.12967 20.2391 6.12528C20.1204 6.53407 20.0017 6.93847 19.8918 7.33847C19.8215 7.25935 19.7424 7.12748 19.6545 6.93846C19.5665 6.74945 19.4918 6.61319 19.4259 6.52528C19.3995 6.56923 19.36 6.58242 19.316 6.56924C19.272 6.55605 19.2281 6.54286 19.1841 6.52528C19.1621 6.48132 19.1534 6.44176 19.1534 6.39781C19.1534 6.32748 19.1753 6.24836 19.2149 6.16484C19.2237 6.15165 19.2501 6.10769 19.2984 6.03736C19.4391 6.0989 19.5534 6.23956 19.6457 6.45055C19.7775 6.74066 19.8654 6.90769 19.9006 6.95604C19.9709 6.62637 20.0281 6.38462 20.0676 6.22638C20.1116 6.07253 20.1775 5.94066 20.2698 5.83517C20.3402 5.82638 20.4017 5.84396 20.4589 5.88792C20.494 5.90989 20.5424 5.95824 20.6083 6.03736ZM28.6347 8.7055C28.072 8.92528 27.5094 9.14066 26.9468 9.36044C26.2786 9.61539 25.6852 9.73846 25.1621 9.73846C24.8237 9.61978 24.56 9.4044 24.3709 9.1011C24.1819 8.79341 24.0852 8.46374 24.0852 8.1033C24.3753 7.81319 24.727 7.5978 25.1446 7.45275C25.5621 7.30769 26.0061 7.23736 26.4676 7.23736C26.7929 7.23736 27.1094 7.26813 27.4171 7.33407C27.2632 7.10989 27.0698 6.95165 26.8413 6.85935C26.6127 6.76704 26.349 6.72308 26.0457 6.72308C25.9973 6.72308 25.927 6.72308 25.8391 6.72748C25.7512 6.72748 25.6149 6.74506 25.4347 6.77583C25.0479 6.86814 24.6874 7.05275 24.349 7.32967C24.0105 7.6066 23.7863 7.92747 23.672 8.2967C23.672 8.33187 23.6632 8.38462 23.6501 8.45495V8.61319C23.6501 8.9033 23.7028 9.18462 23.8127 9.46154C23.9226 9.73847 24.0852 9.97143 24.305 10.1648C24.2127 10.2 24.116 10.2176 24.0105 10.2176H23.8874C23.8479 10.2176 23.8083 10.2176 23.7643 10.2088C23.1578 10.0462 22.7665 9.6022 22.5819 8.88132C22.4764 8.24835 22.3753 7.61539 22.2742 6.98242C22.1424 7.09671 22.0457 7.21539 21.9929 7.34286C21.9402 7.47033 21.9138 7.61099 21.9138 7.76484C21.9138 7.87913 21.9226 7.99341 21.9446 8.11209C21.9885 8.27473 22.0281 8.43737 22.072 8.59561C22.1556 8.92088 22.1995 9.17143 22.1995 9.35605C22.1072 9.49671 21.9885 9.6066 21.8479 9.68132C21.7028 9.76045 21.549 9.8044 21.3775 9.81759C21.1578 9.81759 20.9775 9.78682 20.8281 9.72088C20.6786 9.65934 20.5643 9.54506 20.4808 9.38242C20.4896 9.36044 20.5028 9.32967 20.5248 9.28132C20.5468 9.23737 20.5468 9.2022 20.5248 9.18023C20.4984 9.2022 20.3753 9.33846 20.1643 9.59341C20.0149 9.77802 19.8654 9.87473 19.7116 9.88792C19.6501 9.9099 19.5885 9.91868 19.5314 9.91868C19.3424 9.91868 19.1885 9.84396 19.0654 9.6989C19.0171 9.64176 18.9907 9.58462 18.9907 9.53187C18.9907 9.48791 19.0171 9.42198 19.0698 9.32527C19.1226 9.22857 19.1402 9.14945 19.127 9.08791C19.0918 9.07912 19.0567 9.09231 19.0259 9.12308L18.9028 9.24616C18.7006 9.53627 18.4017 9.67692 18.0061 9.67692C17.8435 9.67692 17.694 9.65055 17.5534 9.6022C17.3995 9.57583 17.2808 9.47473 17.1929 9.30769C17.149 9.21539 17.0962 9.07473 17.0259 8.88571C16.872 9.0967 16.7578 9.30769 16.6874 9.51868C16.7226 9.65934 16.7841 9.87912 16.8676 10.1736C16.9248 10.4198 16.9512 10.6484 16.9512 10.8593C16.4457 11.1978 15.9534 11.4747 15.4742 11.6945C14.9336 11.9407 14.4017 12.1121 13.883 12.2132C13.8347 12.2132 13.76 12.222 13.6632 12.2352H13.4303C13.0083 12.2352 12.6479 12.178 12.3534 12.0681C11.9885 11.9275 11.7028 11.6989 11.5006 11.3824C11.3951 11.2198 11.3424 11.0396 11.3424 10.833C11.3424 10.644 11.3951 10.4198 11.5006 10.1692C11.5226 10.1253 11.6193 9.92747 11.7951 9.56703C12.0413 9.54506 12.2171 9.4 12.3226 9.12308C12.3797 8.89011 12.4369 8.65715 12.5028 8.41539C12.4808 8.42857 12.4237 8.52528 12.3226 8.7011C12.261 8.81978 12.1643 8.86374 12.0369 8.82858C11.9182 8.67913 11.8347 8.53847 11.7907 8.39781C11.7468 8.25715 11.7204 8.09451 11.7204 7.91429C11.7204 7.64176 11.7995 7.3033 11.9534 6.9033C12.0852 6.59561 12.2215 6.28352 12.3534 5.97583C12.0457 6.44616 11.8171 6.84176 11.6676 7.15824C11.4347 7.65055 11.3204 8.09011 11.3204 8.47693C11.3204 8.66594 11.3468 8.85934 11.4039 9.05275C11.461 9.24616 11.5534 9.42198 11.6764 9.58462L11.6325 9.61539C11.6325 9.61539 11.6149 9.59341 11.6017 9.57143C11.3643 10.0022 11.2237 10.2484 11.1885 10.3187C11.061 10.6 10.9995 10.8725 10.9995 11.1319C10.9995 11.4703 11.0654 11.7736 11.1929 12.0506C11.3248 12.3231 11.527 12.5297 11.8083 12.6615C12.0193 12.789 12.2303 12.8769 12.4413 12.9253C12.6523 12.9736 12.8808 13 13.127 13C13.527 13 13.9621 12.9297 14.4237 12.789C14.7885 12.6747 15.1885 12.5165 15.6193 12.3099C16.0501 12.1033 16.4193 11.844 16.7226 11.5363C17.0742 11.1758 17.2808 10.7846 17.3468 10.3539C17.4742 10.4022 17.6105 10.4286 17.76 10.4286C18.1028 10.4286 18.4017 10.3011 18.6567 10.0506C18.6786 10.1648 18.7006 10.2527 18.7314 10.3231C18.7578 10.3934 18.8105 10.455 18.8808 10.5121C18.9775 10.6176 19.1182 10.6703 19.3028 10.6703C19.3512 10.6703 19.4347 10.6615 19.549 10.6396C19.6632 10.6176 19.7775 10.556 19.8874 10.4549C19.9973 10.3538 20.0808 10.2308 20.1468 10.0901C20.2303 10.2527 20.3534 10.3714 20.5116 10.4418C20.6698 10.5165 20.938 10.5517 21.3204 10.5517C21.5314 10.5517 21.7292 10.4769 21.9182 10.3231C22.1028 10.1736 22.2347 9.99341 22.3138 9.79121C22.349 9.83957 22.3929 9.93187 22.4413 10.0637C22.4896 10.1956 22.5336 10.2923 22.5687 10.3495C22.7314 10.5736 22.9072 10.7319 23.0962 10.8242C23.2852 10.9165 23.5094 10.9604 23.76 10.9604C24.5072 10.7714 25.2501 10.578 25.9973 10.3802C26.0896 10.3231 26.5687 10.1341 27.4303 9.80879C27.7687 9.68132 28.0281 9.54067 28.2127 9.38682L28.6259 8.70989L28.6347 8.7055ZM22.305 11.967C22.2611 12.0374 22.2083 12.1121 22.1468 12.1868C22.0413 12.3011 21.9402 12.4154 21.8391 12.5341C21.5665 12.4418 21.3072 12.3055 21.0698 12.1209L21.6193 11.6242L22.305 11.9626V11.967ZM15.8479 3.29451C15.8567 3.34286 15.8215 3.43517 15.7512 3.56704C15.7028 3.54066 15.6545 3.5099 15.6105 3.47913C15.5665 3.44836 15.5138 3.43077 15.4567 3.43077C15.3775 3.58462 15.316 3.84396 15.2676 4.2C15.2193 4.56044 15.1709 4.8022 15.1182 4.92967C15.2017 4.98681 15.2852 5.04836 15.3643 5.11429C15.4435 5.18023 15.5138 5.25495 15.5709 5.34286C15.5138 5.49231 15.3468 5.56703 15.0698 5.57582C14.7929 5.58462 14.6083 5.63297 14.516 5.72528C14.4545 5.85275 14.4193 5.99781 14.4193 6.16923C14.4193 6.31868 14.4457 6.49011 14.494 6.68791C14.6127 7.16703 14.6742 7.46154 14.6742 7.57583V7.75605C14.6742 8.05934 14.6654 8.27473 14.6435 8.41099C14.5995 8.65715 14.5204 8.85055 14.4017 8.99121C14.4632 8.86374 14.5116 8.73626 14.538 8.6044C14.5643 8.47253 14.5819 8.34066 14.5819 8.20879C14.5819 8.05934 14.5731 7.92748 14.5512 7.81319C14.5292 7.69891 14.4896 7.52748 14.4369 7.3033C14.3534 6.94286 14.3006 6.71429 14.283 6.60879C14.2654 6.5033 14.2567 6.37583 14.2567 6.23077C14.2567 6.02857 14.2918 5.83517 14.3621 5.65056C14.4413 5.53627 14.5556 5.45715 14.7094 5.4088C14.8413 5.38242 14.9819 5.34726 15.1226 5.31209C15.0742 5.26814 15.0259 5.23737 14.9863 5.211C14.9424 5.18462 14.894 5.17583 14.8369 5.17583C14.7797 5.17583 14.7314 5.19341 14.6962 5.22857C14.6567 5.26374 14.6215 5.29891 14.5863 5.33407C14.5731 5.28572 14.5863 5.22418 14.6171 5.15385C14.6259 5.14066 14.6435 5.1055 14.6698 5.05275C14.6962 5.00001 14.7446 4.96484 14.8105 4.94286C14.8764 4.92089 14.9336 4.9077 14.9731 4.8989C14.894 4.63077 14.8017 4.42418 14.6918 4.27033C14.5819 4.12088 14.4017 3.93187 14.1468 3.70769C14.16 3.62418 14.1775 3.55825 14.1951 3.5055C14.2127 3.45715 14.2435 3.4 14.283 3.33846C14.4676 3.43077 14.6259 3.61099 14.7578 3.88791C14.9468 4.27473 15.061 4.49451 15.0962 4.54286C15.1314 4.3055 15.1665 4.06374 15.2017 3.82638C15.2589 3.55824 15.36 3.34286 15.5094 3.18462C15.6369 3.18462 15.7468 3.22857 15.8479 3.31209V3.29451ZM12.8501 3.88352C12.8764 3.96704 12.8764 4.05055 12.8457 4.13847C12.8149 4.22198 12.7578 4.30989 12.683 4.4022C12.6215 4.38901 12.5687 4.36264 12.5292 4.32308C12.4896 4.28352 12.4457 4.22637 12.3973 4.14725C12.3885 4.12088 12.3885 4.07253 12.3885 4.01099C12.3885 3.89231 12.4149 3.76484 12.4632 3.63297C12.4896 3.54945 12.5468 3.43077 12.6303 3.28572C12.6083 3.38242 12.5907 3.46154 12.5775 3.51868C12.5424 3.64616 12.5248 3.73846 12.5248 3.8044C12.5248 3.87033 12.5336 3.92308 12.5556 3.97143C12.5775 4.01978 12.6171 4.06813 12.683 4.10769C12.7314 4.11649 12.7709 4.08132 12.7973 4.0066C12.8237 3.93187 12.8413 3.89231 12.8501 3.88352ZM16.1512 8.38902C16.1512 8.51649 16.1292 8.62637 16.0896 8.71429C16.0764 8.74945 16.0369 8.81099 15.9753 8.9033C15.8435 8.91649 15.76 8.85055 15.7336 8.7011C15.7336 8.4989 15.7512 8.3055 15.7907 8.12968C15.8303 7.95385 15.8918 7.76924 15.9753 7.58023C15.927 7.81319 15.8786 8.04615 15.8391 8.27473C15.8391 8.42857 15.8918 8.54726 15.9973 8.63517C16.0193 8.61319 16.0413 8.56924 16.0589 8.49891C16.0808 8.42858 16.1116 8.38901 16.1556 8.38462L16.1512 8.38902Z" fill="currentColor"/>
</svg>
