<svg width="40" height="16" viewBox="0 0 40 16" fill="none" xmlns="http://www.w3.org/2000/svg">
<path fill-rule="evenodd" clip-rule="evenodd" d="M22.7911 4.46046C22.7035 4.64819 22.6201 4.83173 22.5408 5.01112L21.9484 4.83174C21.9818 4.63149 22.0736 4.43543 22.2279 4.23936C22.449 4.26022 22.6367 4.33114 22.7869 4.46046H22.7911ZM22.182 3.88058C22.2237 3.82635 22.2404 3.78046 22.2404 3.73874C22.2404 3.66365 22.2071 3.60108 22.1403 3.54685C22.1653 3.51347 22.182 3.45924 22.182 3.38832C22.182 3.32992 22.1695 3.27151 22.1486 3.21728C22.1236 3.16305 22.1028 3.10881 22.0819 3.05875C22.0485 3.00452 21.9985 2.98783 21.9317 3.00869C21.8566 3.01703 21.7899 3.05875 21.7231 3.13801C21.6814 3.1839 21.6397 3.25066 21.5938 3.33826L21.5729 3.43004C21.5729 3.49679 21.6272 3.56354 21.7398 3.62611C21.8483 3.68869 21.9067 3.72623 21.915 3.73041C21.8233 3.93065 21.6105 4.16426 21.2851 4.43125C21.0765 4.59812 20.9347 4.72327 20.8554 4.80253C20.9889 4.71075 21.2017 4.56474 21.4979 4.37284C21.7315 4.19346 21.8983 3.99739 21.9985 3.79298L22.1904 3.88476L22.182 3.88058ZM20.5092 3.83886C20.5342 3.8931 20.5217 3.96401 20.4674 4.04745C20.4424 4.08917 20.4132 4.12672 20.3882 4.16843C20.3131 4.19346 20.2422 4.2185 20.1671 4.23936C20.1003 4.15175 20.067 4.06413 20.067 3.9807C20.067 3.88058 20.0962 3.77212 20.1587 3.65948C20.2171 3.54684 20.2755 3.4342 20.3298 3.32991C20.2839 3.49678 20.238 3.66365 20.1879 3.83052C20.1879 3.90979 20.2171 3.98071 20.2797 4.03911C20.3256 4.03911 20.3673 4.01825 20.4049 3.97236C20.4424 3.93064 20.4758 3.88475 20.5092 3.83886ZM18.8154 3.46758C18.8071 3.53433 18.7987 3.58857 18.7821 3.62611C18.7654 3.66783 18.732 3.67616 18.6861 3.65531C18.6653 3.5969 18.6027 3.57188 18.4942 3.58439C18.4817 3.61777 18.4525 3.77212 18.4149 4.05163C18.3732 4.32696 18.3065 4.51885 18.2064 4.61897C18.1855 4.59394 18.1146 4.43125 17.9853 4.13923C17.931 4.01408 17.8768 3.91395 17.8142 3.83886C17.7934 3.83886 17.7808 3.85555 17.7808 3.8931C17.7808 3.93064 17.7725 3.95567 17.7642 3.96819C17.7224 3.94733 17.6974 3.93482 17.6849 3.92648C17.6307 3.8931 17.5973 3.85555 17.5848 3.81801C17.5848 3.71789 17.6181 3.60943 17.6849 3.49679C17.8434 3.53851 17.9602 3.64697 18.0353 3.82218C18.1104 3.9974 18.1813 4.16844 18.2564 4.32696C18.2773 4.28107 18.3065 4.13089 18.3399 3.88058C18.3774 3.63028 18.44 3.44672 18.5359 3.33409C18.6027 3.3466 18.6569 3.35911 18.7028 3.36745C18.7445 3.3758 18.7862 3.40918 18.8196 3.46341L18.8154 3.46758ZM16.4417 3.96819C16.4501 4.02659 16.4417 4.07666 16.425 4.11837C16.4083 4.16009 16.375 4.22684 16.3207 4.32696C16.2415 4.36868 16.1747 4.37284 16.1205 4.34781C16.0412 4.26855 15.9995 4.17261 15.9995 4.0558C15.9995 3.96402 16.0329 3.85138 16.0996 3.72623C16.1664 3.60108 16.229 3.48009 16.2915 3.36745C16.3124 3.33408 16.3333 3.32158 16.3625 3.32575C16.3499 3.36746 16.304 3.45089 16.2206 3.58022C16.1414 3.70954 16.0996 3.81384 16.0996 3.88476C16.0996 3.97236 16.1288 4.04328 16.1914 4.10586C16.2164 4.16009 16.2623 4.16426 16.3207 4.12671C16.3625 4.07248 16.4 4.01825 16.4417 3.96819ZM23.5295 6.21258C23.517 6.23761 23.4794 6.26264 23.4127 6.27933C23.3501 6.29602 23.3042 6.32104 23.2792 6.35442C23.4043 6.64227 23.4878 6.86754 23.5253 7.03441C23.5629 7.20128 23.5796 7.36816 23.5796 7.53503C23.5796 7.80202 23.5086 8.0398 23.371 8.24421C23.1791 8.39857 23.0539 8.49452 22.9997 8.53624C22.8537 8.6447 22.716 8.71979 22.5909 8.76568C22.4657 9.39144 22.0819 9.98383 21.4478 10.5387C20.9555 10.9725 20.3465 11.348 19.6247 11.6692C19.5371 11.6942 19.437 11.7109 19.3244 11.7109C19.1033 11.7109 18.9114 11.6525 18.7445 11.5399C18.611 11.4273 18.5109 11.3313 18.4441 11.2479C18.344 11.1269 18.2856 11.0059 18.2731 10.8891C18.2731 10.5011 18.3273 10.1382 18.4316 9.80445C18.5401 9.46654 18.6986 9.18703 18.9114 8.95759C18.8905 9.03685 18.8071 9.2496 18.6611 9.58751C18.5484 9.8545 18.49 10.0756 18.49 10.2467C18.49 10.3343 18.5067 10.4344 18.5401 10.547C18.6319 10.668 18.732 10.7723 18.8363 10.8557C18.9406 10.9433 19.0532 10.9976 19.1825 11.0268C19.5747 11.0268 19.9627 10.9308 20.3423 10.7347C20.6427 10.5804 20.9764 10.3426 21.3435 10.0256C21.4311 9.95046 21.7398 9.66261 22.2738 9.15366L22.2321 8.93256C22.0402 8.98679 21.8817 9.0285 21.7565 9.05771C21.6314 9.08691 21.5062 9.10359 21.381 9.10359C21.2601 9.10359 21.1474 9.08691 21.039 9.04937C20.9305 9.01182 20.8346 8.95341 20.7469 8.87415C20.6885 8.77403 20.6552 8.66974 20.6552 8.56544C20.6552 8.44029 20.6885 8.29845 20.7553 8.13992C20.822 7.98139 20.8888 7.83121 20.9555 7.6852C21.0431 7.58508 21.1057 7.52251 21.1474 7.49331C21.235 7.42656 21.3226 7.39736 21.4061 7.40153C21.6272 7.42656 21.8358 7.51834 22.0318 7.67686C22.2279 7.83539 22.3739 8.01477 22.4657 8.22336C22.6576 8.13158 22.8036 8.06483 22.8954 8.02311C23.0623 7.94385 23.1958 7.85207 23.2959 7.75195C23.129 7.25969 22.9621 6.76326 22.7953 6.27099C22.7953 6.17087 22.812 6.07491 22.8453 5.9873C22.8787 5.89552 22.9288 5.79541 22.9955 5.68277C23.0831 5.74118 23.1749 5.82461 23.275 5.92473C23.3751 6.02485 23.4544 6.12081 23.517 6.21676L23.5295 6.21258ZM20.5467 9.40813C20.3798 9.56248 20.2213 9.6793 20.067 9.76273C19.9126 9.84616 19.7499 9.88788 19.5747 9.88788C19.5413 9.88788 19.4829 9.87954 19.4036 9.86702C19.2576 9.80028 19.1825 9.7377 19.1825 9.67513C19.1825 9.62924 19.2743 9.5458 19.4537 9.42482C19.6331 9.30384 19.7249 9.20372 19.7249 9.12445C19.6706 9.09108 19.6206 9.05771 19.5747 9.02434C19.4662 8.96593 19.3661 8.94924 19.2743 8.97427C19.1659 9.00764 19.0949 9.08273 19.0532 9.19537C19.1325 9.17034 19.1909 9.15366 19.2243 9.15366C19.316 9.15366 19.3995 9.18703 19.4662 9.25378C19.387 9.2955 19.3119 9.34555 19.2409 9.40813C19.17 9.47071 19.1241 9.53745 19.0949 9.6042C19.0532 9.66261 19.0365 9.72518 19.0365 9.78358C19.0365 9.84199 19.0616 9.90456 19.1116 9.96714C19.1617 10.0297 19.2159 10.0673 19.2785 10.0839C19.3411 10.1006 19.4412 10.1048 19.5872 10.1048C19.7958 10.0506 19.9877 9.96297 20.1712 9.83364C20.3548 9.70849 20.48 9.56248 20.5467 9.40395V9.40813ZM21.8066 12.2032C21.4937 12.2032 21.089 12.224 20.5968 12.2616C19.5288 12.3492 18.8571 12.3909 18.586 12.3909C18.077 12.3158 17.6515 12.1865 17.3053 11.9988C16.8714 11.7652 16.5836 11.4398 16.4459 11.0268C16.4042 10.8682 16.3875 10.7055 16.3875 10.547C16.3875 10.2592 16.4459 9.98383 16.5585 9.71683C16.6712 9.44984 16.8297 9.1912 17.0299 8.93672C17.0967 8.84912 17.1718 8.75734 17.251 8.65722C17.3303 8.5571 17.4096 8.50703 17.493 8.50703C17.5264 8.50703 17.5639 8.51538 17.6015 8.53624L17.6307 8.38605C18.1646 8.01059 18.5985 7.72692 18.9322 7.52667C19.412 7.23882 19.8751 7.01356 20.3131 6.84669C20.4007 6.79246 20.4674 6.72154 20.5133 6.62559C20.5342 6.59222 20.5759 6.44203 20.6427 6.17504L20.5509 6.09577C20.1045 6.04154 19.7541 6.00399 19.4996 5.9873C19.2451 5.96644 18.9573 5.95811 18.6402 5.95811C18.2481 5.95811 17.8726 5.98314 17.5222 6.0332C17.1718 6.08326 16.8422 6.16669 16.5377 6.27933C16.3791 6.38779 16.2623 6.54215 16.1872 6.75074C16.1747 6.79663 16.1288 6.98852 16.0579 7.32226C16.1163 7.54754 16.2832 7.74361 16.5502 7.90214C16.6962 7.98975 16.9173 8.11907 17.2093 8.29428C16.8756 8.71563 16.6211 9.12862 16.4501 9.53745C16.2415 10.0172 16.1414 10.4844 16.1414 10.9392C16.1414 11.1477 16.1664 11.373 16.2206 11.6191C16.3416 12.0196 16.6086 12.3409 17.0216 12.5787C17.3303 12.758 17.7266 12.8999 18.2147 13C18.8905 13 19.533 12.9374 20.1504 12.8081C20.7678 12.6829 21.3226 12.4827 21.8191 12.2074L21.8066 12.2032ZM21.9985 3.50095L21.7482 3.32991C21.7565 3.27151 21.7815 3.23813 21.8274 3.23813C21.8733 3.23813 21.915 3.259 21.9484 3.29654C21.9818 3.33826 21.9985 3.37581 21.9985 3.41753V3.49679V3.50095ZM21.8775 8.38605C21.7565 8.28593 21.6856 8.22753 21.6564 8.20667C21.5104 8.10655 21.3644 8.05649 21.2142 8.05649C21.1683 8.05649 21.1349 8.05649 21.1141 8.06483C21.039 8.11906 20.9972 8.15243 20.9847 8.16495C20.9722 8.17746 20.9722 8.20667 20.9847 8.24421C21.0431 8.31096 21.1224 8.36103 21.2184 8.3944C21.3143 8.42778 21.4144 8.44446 21.5145 8.44446C21.6397 8.44446 21.7607 8.4236 21.8733 8.38605H21.8775ZM19.6331 6.62559C19.5079 6.62559 19.3035 6.62558 19.024 6.61724C18.7445 6.6089 18.5318 6.6089 18.3816 6.6089C17.9811 6.6089 17.614 6.63392 17.2844 6.67981C16.9548 6.7257 16.6503 6.81332 16.3791 6.93847C16.4584 7.06362 16.7045 7.25969 17.1092 7.51833C17.2969 7.63932 17.4388 7.76447 17.5389 7.89796C17.6849 7.79784 17.9435 7.63515 18.3107 7.4057C18.7362 7.13871 19.1784 6.88007 19.6331 6.62559Z" fill="currentColor"/>
</svg>
