<svg width="40" height="16" viewBox="0 0 40 16" fill="none" xmlns="http://www.w3.org/2000/svg">
<path fill-rule="evenodd" clip-rule="evenodd" d="M29.5828 5.82083C29.4953 5.675 29.4453 5.59583 29.4328 5.57917C29.3995 5.53333 29.3578 5.4875 29.312 5.45C29.312 5.775 29.337 6.29167 29.3828 7C29.4287 7.70833 29.4537 8.24167 29.4537 8.6C29.4537 9.3 29.4328 9.81667 29.3953 10.15C29.3287 10.7042 29.187 11.1833 28.9662 11.5917C29.0328 11.3708 29.0787 11.1417 29.0995 10.9083C29.1245 10.6708 29.1328 10.3917 29.1328 10.0625C29.1328 9.82916 29.1328 9.59583 29.1245 9.3625C29.1162 9.12917 29.112 8.89584 29.1037 8.6625L28.8537 4.62083C28.8537 4.52917 28.887 4.425 28.9537 4.3125C28.9787 4.25833 29.0495 4.15833 29.162 4.0125C29.3078 4.4125 29.4037 4.68333 29.4537 4.82083C29.5453 5.12083 29.5953 5.38333 29.5953 5.6125C29.5953 5.70417 29.5954 5.775 29.587 5.82083H29.5828ZM24.8745 3L24.7828 3.12917L23.5912 3.55C23.3245 3.64167 23.1245 3.7125 22.9912 3.75833C22.7453 3.84583 22.5495 3.91667 22.3995 3.97917C22.6662 3.725 23.0537 3.52083 23.5578 3.37083C23.9912 3.25 24.4287 3.12917 24.8662 3H24.8745ZM25.1328 4.87083C25.012 5.05833 24.8953 5.24583 24.7828 5.42917C24.6953 5.40833 24.5912 5.35833 24.4745 5.27916C24.3287 5.17916 24.2287 5.12083 24.1745 5.1C24.262 4.95416 24.3203 4.85417 24.3537 4.8C24.4203 4.7 24.4995 4.60833 24.5953 4.52083C24.7037 4.55416 24.7912 4.59583 24.862 4.64167C24.9328 4.6875 25.0245 4.76667 25.137 4.87083H25.1328ZM25.8745 5.5125C25.8537 5.47083 25.7995 5.42916 25.7162 5.38333C25.6287 5.3375 25.5662 5.29583 25.5245 5.2625C25.4578 5.19583 25.3953 5.1625 25.3328 5.1625C25.2537 5.1625 25.1703 5.2375 25.0828 5.38333C24.9745 5.55833 24.9078 5.65833 24.8745 5.68333C24.8953 5.75 24.9912 5.825 25.1578 5.90833C25.3287 5.99167 25.437 6.05833 25.4828 6.10417C25.5578 6.0375 25.6287 5.94583 25.7037 5.825C25.737 5.75833 25.7953 5.65416 25.8745 5.51666V5.5125ZM23.9745 4.09167C24.0078 4.14583 24.0245 4.2125 24.0245 4.29167C24.0245 4.37917 24.012 4.45 23.9828 4.5125C23.9578 4.57083 23.937 4.61667 23.9245 4.64167C23.8453 4.61667 23.737 4.64167 23.6037 4.72083C23.5245 4.76667 23.4578 4.79167 23.4037 4.79167C23.3495 4.79167 23.312 4.78333 23.2828 4.77083C23.2245 4.7375 23.1912 4.68333 23.1912 4.6125C23.1912 4.57917 23.2037 4.52917 23.2245 4.46667C23.2495 4.40417 23.2578 4.35833 23.2578 4.33333L23.2787 4.29167H23.3203C23.3203 4.45833 23.3537 4.54167 23.4203 4.54167C23.512 4.54167 23.5703 4.475 23.5953 4.3375C23.6203 4.2 23.6578 4.12083 23.712 4.10416C23.7203 4.1375 23.712 4.18333 23.6953 4.2375C23.6787 4.29583 23.6703 4.32916 23.6703 4.34166C23.6703 4.4 23.7037 4.43333 23.7703 4.44167H23.8787C23.8662 4.375 23.8787 4.3 23.9078 4.2125C23.9203 4.16667 23.9412 4.125 23.9662 4.09167H23.9745ZM24.7828 5.7L24.0828 5.37083L23.6912 5.89167C23.6995 5.95833 23.7662 6.025 23.8912 6.09167C23.9578 6.125 24.0578 6.175 24.1912 6.24167C24.3037 6.2625 24.4162 6.2 24.5328 6.05C24.5912 5.975 24.6745 5.85833 24.7828 5.7ZM21.6037 5.55C21.6245 5.60833 21.6162 5.675 21.5787 5.74167C21.5412 5.80833 21.5078 5.87083 21.4745 5.93333C21.3078 6.1 21.1328 6.18333 20.9537 6.18333C20.8662 6.075 20.8245 5.9625 20.8245 5.84167C20.8245 5.72083 20.862 5.6 20.9328 5.47083C21.0078 5.34583 21.0912 5.22917 21.1912 5.12083C21.1453 5.20833 21.0995 5.3 21.0578 5.4C21.0162 5.5 20.9912 5.59167 20.9912 5.67917C20.9912 5.7875 21.0245 5.875 21.0912 5.95C21.1495 5.9375 21.212 5.92083 21.2745 5.9C21.337 5.87917 21.3912 5.84167 21.4287 5.77917C21.4287 5.72083 21.3828 5.65417 21.287 5.5875C21.1953 5.52083 21.1453 5.46667 21.1453 5.42917C21.1453 5.38333 21.187 5.33333 21.2662 5.27916C21.3245 5.27916 21.3828 5.3125 21.437 5.375C21.4912 5.4375 21.5453 5.49583 21.5953 5.55H21.6037ZM18.4328 4.82917C18.4537 4.8875 18.4412 4.95416 18.4037 5.025C18.362 5.09583 18.3287 5.15833 18.2953 5.22083C18.262 5.24583 18.2203 5.24583 18.1703 5.22083C18.1203 5.19583 18.087 5.1625 18.0662 5.12083C18.0453 5.04167 18.037 4.96667 18.037 4.9C18.037 4.76667 18.062 4.63333 18.1162 4.5C18.1495 4.42083 18.2162 4.29166 18.3162 4.12083C18.3078 4.1625 18.2828 4.25 18.2412 4.3875C18.1995 4.525 18.1745 4.63333 18.1745 4.7125C18.1745 4.825 18.2162 4.92083 18.2953 4.99167L18.437 4.83333L18.4328 4.82917ZM25.9828 10.6C25.9953 10.7 25.9745 10.8167 25.9245 10.95C25.912 10.975 25.8828 11.0417 25.8328 11.15C25.7245 11.15 25.6078 11.2 25.4828 11.3C25.3578 11.4 25.2537 11.45 25.1745 11.45C25.1078 11.45 25.0412 11.4333 24.9703 11.3958C24.8995 11.3583 24.812 11.3417 24.7037 11.3417C24.5162 11.3417 24.2953 11.4458 24.0453 11.65C23.6787 11.95 23.4662 12.1167 23.4037 12.15L22.762 12.4583C22.6495 12.5125 22.5328 12.5583 22.412 12.5917C22.2912 12.6292 22.1787 12.6458 22.0703 12.6458C22.2453 12.6042 22.4203 12.5375 22.6037 12.4458C22.787 12.3542 23.0578 12.1708 23.4203 11.9042C23.8953 11.55 24.1662 11.35 24.2412 11.3042C24.387 11.2125 24.5662 11.1125 24.7828 11.0125C24.837 11 24.937 11.0333 25.0828 11.1125C25.162 11.1542 25.2245 11.1708 25.262 11.1708C25.3287 11.1708 25.3703 11.1292 25.387 11.0417C25.4037 10.9542 25.4162 10.8917 25.4287 10.85C25.437 10.8083 25.462 10.7917 25.5037 10.7917C25.5162 10.8042 25.5245 10.8417 25.5245 10.8958C25.5245 10.95 25.5495 10.9875 25.5953 11C25.6745 10.9875 25.7495 10.9583 25.8162 10.9167C25.8828 10.875 25.9203 10.8083 25.9245 10.7208C25.912 10.6542 25.9328 10.6125 25.9828 10.5917V10.6ZM18.1328 5.72083C18.1328 5.86667 18.0912 5.94167 18.012 5.94167C17.9912 5.94167 17.9662 5.93333 17.9328 5.9125H17.8537C17.812 5.96667 17.762 6.10417 17.7037 6.32083C17.6453 6.5375 17.5662 6.675 17.4745 6.72083C17.4078 6.54167 17.3537 6.40833 17.3162 6.32083C17.2412 6.1625 17.1328 6.07917 16.987 6.07917C16.962 6.04583 16.9453 6.00417 16.9453 5.95833C16.9453 5.91667 16.9537 5.87917 16.9662 5.8375C16.9787 5.79583 16.9912 5.75833 17.0078 5.71667C17.0328 5.70417 17.0578 5.69167 17.0787 5.68333C17.0995 5.675 17.1162 5.67917 17.1287 5.7C17.2037 5.75833 17.2703 5.85417 17.3328 5.97917C17.3953 6.10417 17.4662 6.24167 17.5495 6.3875C17.5828 6.35417 17.6328 6.22083 17.6953 5.99167C17.7578 5.7625 17.8412 5.64583 17.9412 5.64583C17.9995 5.64583 18.0662 5.67083 18.1412 5.71667L18.1328 5.72083ZM18.3537 7.32084C18.3287 7.44167 18.3037 7.54167 18.2828 7.62084C18.262 7.7 18.212 7.75417 18.1328 7.77917C18.0912 7.7875 18.0578 7.77917 18.0245 7.75417C17.9912 7.72917 17.962 7.67917 17.9328 7.6C17.9203 7.49167 17.912 7.4125 17.912 7.35833C17.912 7.15 17.962 6.96667 18.062 6.80833C18.062 6.85417 18.0578 6.92916 18.0453 7.02916C18.037 7.12916 18.0287 7.18333 18.0287 7.1875C18.0287 7.26667 18.037 7.33333 18.0537 7.38333C18.0703 7.43333 18.1037 7.48334 18.1578 7.52917C18.1995 7.52084 18.2328 7.49583 18.2578 7.45C18.2662 7.44167 18.2828 7.4 18.3078 7.32084H18.3495H18.3537ZM27.8037 5.59166C27.7453 5.3125 27.662 5.02083 27.5537 4.72083C27.4995 4.56667 27.3953 4.28333 27.2328 3.87083C27.1537 3.925 27.0745 4.02083 26.9912 4.15417C26.912 4.29167 26.8662 4.3625 26.862 4.37083C26.862 4.625 26.9453 5.4 27.112 6.7C27.1787 7.22083 27.212 7.69583 27.212 8.12916C27.1328 8.19583 27.0537 8.24167 26.9828 8.2625C26.9078 8.2875 26.8245 8.29583 26.7245 8.29583C26.6495 8.29583 26.5828 8.29583 26.5245 8.2875C26.4662 8.27917 26.4037 8.27084 26.3454 8.25834C26.2912 8.23334 26.1953 8.1875 26.0537 8.12916C25.9453 8.07083 25.8953 8 25.8953 7.92083C25.8953 7.875 25.912 7.825 25.9453 7.77083C25.8203 7.9375 25.6953 8.1 25.5745 8.2625C25.4162 8.45417 25.237 8.55417 25.0453 8.55417C24.887 8.55417 24.7495 8.47916 24.637 8.325C24.612 8.29166 24.5953 8.25 24.5953 8.19583C24.5953 8.15 24.6078 8.0875 24.637 8.00417C24.662 7.925 24.6787 7.8625 24.6787 7.825C24.5453 7.97083 24.412 8.11667 24.2787 8.25417C23.9912 8.55417 23.7203 8.70417 23.4703 8.70417C23.3828 8.70417 23.3037 8.69167 23.2287 8.6625C22.9745 8.55 22.7703 8.26667 22.6203 7.8125C22.5287 7.5375 22.4453 7.35 22.3703 7.24167C22.2912 7.21667 22.2162 7.2 22.1495 7.2C22.1162 7.2 22.0245 7.20833 21.8787 7.22083C21.4912 7.4125 21.2037 7.72084 21.0203 8.14167C20.8662 8.4875 20.7912 8.90833 20.7912 9.4C20.5912 9.52083 20.3578 9.57917 20.0912 9.57917C19.7328 9.57917 19.412 9.49166 19.1328 9.32083C19.1412 9.27916 19.1537 9.22083 19.1745 9.14167C19.1745 9.11667 19.1662 9.08333 19.1453 9.05C19.1203 9.07083 19.0078 9.19584 18.8162 9.42917C18.7412 9.51667 18.6662 9.57917 18.5912 9.625C18.5162 9.66667 18.4287 9.69166 18.337 9.69166C18.1703 9.69166 18.0245 9.6375 17.8953 9.53334C17.8203 9.49167 17.787 9.43333 17.787 9.35417C17.787 9.3125 17.8037 9.25 17.8328 9.15833C17.862 9.06667 17.8745 9.00834 17.8662 8.975C17.687 9.16667 17.5078 9.31667 17.3328 9.41667C17.1578 9.51667 16.9578 9.56667 16.737 9.56667C16.6703 9.56667 16.6203 9.56667 16.587 9.55833C16.3662 9.55833 16.1828 9.45417 16.037 9.25C15.937 9.10417 15.8537 8.90833 15.787 8.67083C15.687 8.75833 15.6162 8.85 15.5787 8.94583C15.537 9.04167 15.5203 9.14167 15.5203 9.24167C15.5203 9.3 15.5203 9.35417 15.5287 9.4C15.537 9.44583 15.5453 9.49166 15.5578 9.54166C15.5995 9.7 15.6412 9.87083 15.6912 10.05C15.7412 10.2292 15.7662 10.3792 15.7662 10.5C15.4328 10.8417 15.0162 11.125 14.5162 11.3583C14.1828 11.5125 13.712 11.6833 13.1078 11.8667C12.8537 11.9083 12.5995 11.925 12.337 11.925C11.9495 11.925 11.6078 11.8708 11.3078 11.7667C10.962 11.6417 10.6828 11.4417 10.4662 11.175C10.3578 10.9667 10.3078 10.75 10.3078 10.525C10.3078 10.2667 10.3828 9.9625 10.537 9.61667C10.5787 9.525 10.712 9.25417 10.9453 8.80833C10.9703 8.80833 11.0162 8.81667 11.0745 8.83333C11.1328 8.85 11.1828 8.85 11.2162 8.82917C11.3912 8.70417 11.512 8.54583 11.587 8.35417C11.662 8.1625 11.6953 7.95 11.6953 7.70833C11.6412 7.73333 11.5953 7.8 11.5495 7.90417C11.5078 8.00833 11.4662 8.07084 11.4287 8.09584C11.3912 8.12084 11.3578 8.12916 11.3245 8.12916C11.2703 8.12916 11.2245 8.11667 11.1787 8.0875C11.137 8.0625 11.0912 8.01667 11.0453 7.95834C10.9453 7.76667 10.8953 7.55 10.8953 7.31667C10.8953 7.07083 10.9578 6.77083 11.087 6.41667C11.187 6.15833 11.2912 5.89583 11.3953 5.6375C11.1287 6.0375 10.937 6.375 10.8245 6.64583C10.6495 7.05417 10.5662 7.42917 10.5662 7.775C10.5662 8.12083 10.6495 8.425 10.8162 8.70417C10.537 9.2375 10.3412 9.66667 10.2328 9.99584C10.1245 10.3208 10.0495 10.6208 10.0078 10.8875C9.99951 10.9333 9.99951 11.0042 9.99951 11.0958C9.99951 11.6042 10.2037 11.9875 10.6078 12.2542C10.8328 12.3958 11.0703 12.4958 11.312 12.5583C11.5537 12.6208 11.812 12.6542 12.087 12.6542C12.362 12.6542 12.6203 12.6292 12.9078 12.575C13.2745 12.5 13.6495 12.3833 14.0287 12.225C14.4078 12.0667 14.7578 11.8833 15.0787 11.675C15.3537 11.5417 15.587 11.3333 15.7787 11.0458C15.937 10.8 16.0578 10.5167 16.137 10.1958C16.2495 10.2208 16.3828 10.2375 16.537 10.2375C16.737 10.2375 16.9203 10.2042 17.0912 10.1417C17.262 10.0792 17.4037 9.97917 17.5162 9.84584C17.5162 10.025 17.5828 10.1625 17.7162 10.2542C17.7953 10.2958 17.8745 10.3292 17.9495 10.3542C18.0245 10.3792 18.0995 10.3958 18.1745 10.3958C18.3078 10.3958 18.4412 10.35 18.5745 10.2542C18.6287 10.0625 18.7037 9.9625 18.8037 9.9625C18.8495 9.9625 18.9245 9.99167 19.0245 10.0542C19.2162 10.175 19.3495 10.2333 19.4245 10.2333C19.4495 10.2333 19.4828 10.225 19.5245 10.2125C19.6245 10.2333 19.7245 10.2417 19.8245 10.2417C19.9578 10.2417 20.1537 10.2125 20.4078 10.1583C20.6662 10.1 20.8245 10.0667 20.8912 10.0542C20.9328 10.1667 21.0078 10.3625 21.1203 10.6458C21.2995 11.0542 21.5537 11.2542 21.8787 11.2542C22.087 11.0083 22.2412 10.7833 22.3495 10.5833C22.5037 10.3042 22.5787 10.05 22.5787 9.825C22.5787 9.65 22.5412 9.49583 22.4703 9.35417C22.3453 9.23333 22.1828 9.175 21.9912 9.175C21.7245 9.21667 21.462 9.25417 21.1995 9.29583C21.1662 9.20417 21.1453 9.1125 21.1328 9.02083C21.1203 8.92916 21.1162 8.81667 21.1162 8.675V8.28334C21.1745 8.20417 21.2537 8.125 21.3495 8.04167C21.4453 7.9625 21.537 7.90833 21.6245 7.88333C21.7037 7.87083 21.7662 7.8625 21.8162 7.8625C21.9578 7.8625 22.0578 7.9 22.1162 7.97084C22.3578 8.6125 22.5245 8.9875 22.6162 9.1C22.7828 9.3 22.9912 9.4 23.2453 9.4C23.4578 9.4 23.662 9.325 23.8537 9.17917C23.9953 9.07083 24.1453 8.9125 24.3037 8.7C24.312 8.725 24.3162 8.75417 24.3245 8.77917C24.3245 8.8875 24.3703 8.9875 24.4662 9.07917C24.5245 9.1375 24.6162 9.2 24.737 9.25833C24.7703 9.27083 24.8245 9.27917 24.8953 9.27917C25.0537 9.27917 25.2162 9.20417 25.3745 9.05834C25.4537 8.98334 25.5662 8.85 25.7162 8.65833C25.7912 8.75833 25.8787 8.83333 25.987 8.8875C26.0412 8.9125 26.1495 8.95416 26.3162 9.00833C26.3912 9.02916 26.4578 9.0375 26.5245 9.0375C26.6495 9.0375 26.7662 9.01667 26.8662 8.97917C26.9662 8.9375 27.0745 8.87916 27.1953 8.8C27.3287 8.6 27.4203 8.39166 27.4745 8.175C27.5287 7.95833 27.5537 7.70833 27.5537 7.42083C27.5537 7.22083 27.5328 6.94583 27.4953 6.59167C27.4162 5.88333 27.3745 5.44167 27.3745 5.2625C27.4203 5.2875 27.4912 5.35417 27.5828 5.45417C27.6578 5.53333 27.7287 5.57917 27.8037 5.59583V5.59166ZM15.0245 4.45C15.0162 4.48333 14.9995 4.5 14.9662 4.5C14.912 4.4875 14.8787 4.47917 14.8662 4.47917C14.8537 4.47917 14.8328 4.47083 14.8078 4.45833C14.7537 4.425 14.7162 4.43333 14.6995 4.47917C14.6412 4.57917 14.6037 4.76667 14.5912 5.0375C14.5787 5.3125 14.5453 5.50833 14.4912 5.62917C14.5662 5.64167 14.6328 5.67083 14.6995 5.72083C14.7662 5.76667 14.8703 5.86667 15.0078 6.02083C15.0078 6.19583 14.8495 6.29583 14.5328 6.32083C14.2162 6.34583 14.037 6.45417 13.9995 6.64167C14.0245 6.85 14.0828 7.12917 14.1703 7.4875C14.2578 7.84583 14.3162 8.1125 14.3453 8.29583C14.3745 8.47917 14.3912 8.65417 14.3912 8.82083C14.3912 9.02083 14.3703 9.20417 14.3245 9.375C14.2828 9.54583 14.2078 9.7125 14.1078 9.87917C14.2412 9.6125 14.3078 9.33333 14.3078 9.0375C14.3078 8.89167 14.2995 8.7625 14.2787 8.65833C14.2578 8.55 14.2203 8.37917 14.1703 8.1375C14.0953 7.82917 14.0453 7.60416 14.012 7.45833C13.9453 7.16666 13.912 6.93333 13.912 6.76667C13.912 6.63333 13.9245 6.50833 13.9537 6.3875C13.9787 6.26667 14.0787 6.17917 14.2453 6.12917C14.3912 6.09583 14.537 6.05833 14.687 6.02083C14.612 5.94583 14.5287 5.9125 14.4287 5.9125C14.3703 5.9125 14.3203 5.925 14.287 5.95417C14.2328 6.00833 14.1995 6.02917 14.187 6.025C14.187 5.9375 14.2078 5.85833 14.2537 5.79167C14.2953 5.72083 14.3578 5.67083 14.437 5.6375C14.412 5.60417 14.337 5.45417 14.2162 5.1875C14.1287 4.99583 14.0245 4.89583 13.9078 4.89583C13.8953 4.89583 13.862 4.90417 13.8078 4.91667C13.7078 4.875 13.6578 4.80833 13.6578 4.70833C13.6578 4.66667 13.6662 4.62917 13.687 4.5875C13.712 4.46667 13.7537 4.38333 13.8078 4.3375C13.9287 4.37917 14.0328 4.4625 14.1162 4.59583C14.2287 4.80833 14.3412 5.02083 14.4578 5.225C14.5162 4.77083 14.5495 4.53333 14.5578 4.51667C14.6037 4.37083 14.687 4.25417 14.8078 4.16667C14.862 4.1875 14.9162 4.20833 14.9787 4.2375C15.037 4.2625 15.0703 4.30416 15.0703 4.35833C15.0703 4.38333 15.062 4.41667 15.0412 4.45833L15.0245 4.45ZM19.6828 11.2083C19.637 11.4083 19.5245 11.5542 19.3537 11.65C19.312 11.6292 19.2745 11.6208 19.2328 11.6208C19.1745 11.6208 19.1037 11.6417 19.0245 11.6792C18.8453 11.7708 18.737 11.8208 18.7037 11.8208C18.612 11.8208 18.5287 11.7625 18.462 11.65C18.2412 11.6917 18.0162 11.7833 17.7828 11.9292C17.6828 11.9958 17.4787 12.1458 17.1745 12.3792C16.8995 12.5917 16.6953 12.7375 16.5537 12.8083C16.312 12.9333 16.0745 13 15.8328 13C16.0453 12.9333 16.2703 12.825 16.5037 12.6792C16.6287 12.6 16.8453 12.4417 17.1537 12.2083C17.462 11.975 17.662 11.825 17.762 11.7583C17.987 11.6 18.212 11.4833 18.4328 11.4167C18.5078 11.3958 18.5912 11.4167 18.6912 11.4833C18.7912 11.5458 18.862 11.5792 18.8995 11.5792C18.9328 11.5792 18.9745 11.5583 19.0287 11.5208C19.0495 11.4625 19.0745 11.4 19.1037 11.3417C19.1328 11.2833 19.1787 11.25 19.237 11.2417C19.2453 11.2542 19.237 11.2917 19.2162 11.3458C19.1953 11.4042 19.2078 11.4333 19.2578 11.4417C19.3453 11.4625 19.4287 11.4417 19.5078 11.3833C19.587 11.2958 19.6453 11.2417 19.6787 11.2125L19.6828 11.2083ZM12.562 9.21666C12.562 9.39166 12.5037 9.5375 12.3828 9.65834C12.2412 9.65834 12.1578 9.57083 12.1328 9.4C12.1328 9.225 12.1537 9.06667 12.1995 8.925C12.2412 8.78333 12.312 8.625 12.4037 8.45C12.4037 8.51667 12.3787 8.625 12.3287 8.775C12.2787 8.925 12.2537 9.03333 12.2537 9.1C12.2537 9.2125 12.2912 9.30834 12.362 9.39167C12.3953 9.38334 12.4495 9.32917 12.5203 9.22084H12.562V9.21666ZM22.2412 10.4167C22.1953 10.4917 22.137 10.525 22.0703 10.525C22.012 10.5167 21.9495 10.5083 21.8912 10.4958C21.7703 10.4417 21.6662 10.3542 21.5828 10.225C21.537 10.15 21.4745 10.0292 21.4037 9.85416H21.7537C21.7995 9.85416 21.8537 9.8625 21.9203 9.875C21.9828 9.8875 22.0287 9.90833 22.0537 9.93333C22.1328 10 22.187 10.0667 22.2078 10.1333C22.2328 10.2 22.2412 10.2917 22.2412 10.4125V10.4167Z" fill="currentColor"/>
</svg>
