<svg width="40" height="16" viewBox="0 0 40 16" fill="none" xmlns="http://www.w3.org/2000/svg">
<path fill-rule="evenodd" clip-rule="evenodd" d="M29.9061 4.90843C29.8789 4.91749 29.8472 4.92202 29.82 4.93109C29.7384 4.80869 29.684 4.71804 29.6477 4.65911C29.5752 4.55032 29.5027 4.49139 29.4302 4.48685C29.4211 4.55938 29.4166 4.64098 29.412 4.72711C29.412 4.81324 29.4075 4.88123 29.4075 4.92203C29.4075 5.15321 29.4256 5.42067 29.4619 5.71532C29.548 6.43155 29.5933 6.88486 29.5933 7.07525C29.6568 7.65548 29.7021 8.04986 29.7203 8.26291C29.7384 8.47144 29.7475 8.68902 29.7475 8.91568C29.7475 9.24206 29.7248 9.54125 29.6749 9.8087C29.6296 10.0762 29.5435 10.3391 29.4211 10.5929C29.4211 10.4932 29.4302 10.3028 29.4438 10.0218C29.4574 9.7407 29.4664 9.58204 29.4664 9.53671L29.0086 4.67271C29.0086 4.53672 29.0086 4.42338 28.9995 4.33725C28.9723 4.00181 28.9542 3.82955 28.9542 3.81595C28.9542 3.64369 28.9814 3.48957 29.0312 3.36264C29.0811 3.23572 29.1763 3.11333 29.3123 3C29.4483 3.36265 29.5933 3.72076 29.7384 4.07888C29.7248 4.12421 29.7157 4.16047 29.7157 4.18767C29.7157 4.2602 29.752 4.38712 29.8245 4.56845C29.8155 4.59564 29.8245 4.64551 29.8517 4.70897C29.8789 4.77243 29.888 4.8223 29.888 4.8495L29.9107 4.91297L29.9061 4.90843ZM26.3477 4.99456C26.2751 5.22575 26.1437 5.4252 25.9578 5.59293C25.9306 5.55666 25.8354 5.4932 25.6813 5.40253C25.5272 5.31187 25.4456 5.23027 25.4456 5.15774C25.4456 5.12148 25.4637 5.07615 25.5 5.01722L25.8173 4.55938C25.8173 4.55938 25.9215 4.63191 26.1119 4.7543C26.2298 4.8359 26.3069 4.91296 26.3522 4.99456H26.3477ZM25.3141 5.18948L24.9016 5.57026L24.3667 5.37534C24.3667 5.29374 24.3894 5.21668 24.4302 5.13508C24.4438 5.10788 24.5435 4.97643 24.7248 4.74524C24.9651 4.82684 25.1237 4.89483 25.1963 4.95376C25.2733 5.01269 25.3096 5.08975 25.3096 5.19402L25.3141 5.18948ZM25.6949 6.66727C25.7176 6.78513 25.6813 6.90299 25.5861 7.02539C25.5634 7.03445 25.5408 7.04804 25.509 7.07071C25.4456 7.12964 25.3912 7.13871 25.3549 7.10244C25.2597 7.01631 25.2144 6.89846 25.2144 6.7534C25.2144 6.6718 25.2234 6.6174 25.237 6.58114C25.2506 6.54488 25.2642 6.51767 25.2688 6.50407L25.5181 6.0145C25.5181 6.05983 25.5 6.15503 25.4592 6.30915C25.4184 6.46328 25.4002 6.56301 25.4002 6.61287C25.4002 6.7126 25.4274 6.7942 25.4864 6.85313C25.5226 6.84406 25.5589 6.81686 25.5997 6.76246C25.6405 6.70806 25.6722 6.67634 25.6904 6.67181L25.6949 6.66727ZM25.0965 3.17678C24.82 3.24931 24.2035 3.42157 23.247 3.68903C21.9914 4.03807 20.9714 4.33725 20.1917 4.59111C20.0739 4.61377 19.9787 4.65457 19.8971 4.71803C19.8155 4.7815 19.7701 4.85857 19.7565 4.95376C21.0167 4.57751 22.2815 4.20127 23.5417 3.82049C23.6233 3.78422 23.8953 3.70263 24.3667 3.58024C24.7021 3.49411 24.9424 3.35811 25.0965 3.17678ZM19.9741 3.75249C20.0104 3.78876 20.0059 3.84315 19.9651 3.91568C19.8925 4.02447 19.8472 4.08794 19.8336 4.10608C19.82 4.12421 19.7973 4.13327 19.7701 4.13327C19.6976 4.13327 19.6341 4.07434 19.5843 3.96101C19.5843 3.80236 19.616 3.64823 19.684 3.50317C19.7293 3.40797 19.8109 3.27652 19.9333 3.09973C19.8744 3.28105 19.82 3.46237 19.7701 3.64369C19.7701 3.73889 19.7973 3.81595 19.8563 3.88394L19.9741 3.75249ZM22.5308 5.85131L22.422 6.05984C22.3585 6.02357 22.3087 5.99637 22.2815 5.98277C22.2225 5.9465 22.1681 5.93744 22.1183 5.96011C22.0729 6.0553 22.0322 6.24116 21.9914 6.52221C21.9506 6.80326 21.8871 7.00726 21.801 7.13872C21.7284 7.05712 21.6604 6.95739 21.5924 6.83499C21.4972 6.65367 21.4021 6.46781 21.3114 6.28195C21.2887 6.34542 21.257 6.38168 21.2117 6.38168C21.1754 6.38168 21.1301 6.36355 21.0711 6.32729C21.0258 6.28196 21.0077 6.24116 21.0077 6.19582C21.0077 6.15956 21.0167 6.11422 21.0349 6.06436C21.053 6.0145 21.0711 5.96463 21.0938 5.91024C21.1573 5.84677 21.2207 5.81504 21.2797 5.82411C21.3749 5.9057 21.4519 6.0145 21.5199 6.15049C21.6151 6.35448 21.7103 6.55394 21.8146 6.74886C21.8508 6.55847 21.8871 6.36809 21.9234 6.17316C21.9823 5.95558 22.082 5.79238 22.2271 5.68358C22.286 5.69265 22.3404 5.70172 22.3948 5.71986C22.4492 5.73799 22.4945 5.78331 22.5308 5.85584V5.85131ZM17.83 3.90208C17.8436 3.97461 17.83 4.05167 17.7982 4.12874C17.7892 4.14233 17.7484 4.21487 17.6668 4.34633C17.5943 4.34633 17.5353 4.31913 17.4945 4.2602C17.4492 4.20127 17.422 4.13781 17.4084 4.06528C17.4084 3.70263 17.5081 3.3581 17.7121 3.03172C17.6668 3.14052 17.6305 3.24931 17.6033 3.3581C17.5761 3.4669 17.558 3.57569 17.558 3.68449C17.558 3.84315 17.6033 3.97008 17.6894 4.06528C17.7166 4.05621 17.7393 4.029 17.7529 3.98367C17.7665 3.93834 17.7937 3.91115 17.83 3.90208ZM15.1555 3.70716C15.1192 3.83862 15.092 3.91568 15.0784 3.94741C15.0421 4.02901 14.9832 4.0834 14.9061 4.1106C14.8427 4.1242 14.7792 4.07434 14.7203 3.95648C14.7203 3.65276 14.7973 3.35357 14.9469 3.06346C14.9605 3.11332 14.9469 3.20398 14.9016 3.33091C14.8563 3.45783 14.8381 3.5485 14.8381 3.60743C14.8381 3.70716 14.8971 3.78422 15.0104 3.83409C15.0331 3.82502 15.0512 3.79783 15.0693 3.75249C15.0875 3.70716 15.1147 3.68902 15.1509 3.70262L15.1555 3.70716ZM28.1337 4.92656C28.0974 4.60925 28.0204 4.28286 27.907 3.94741C27.8436 3.76609 27.7166 3.46236 27.5353 3.03172C27.4401 3.17678 27.3449 3.32185 27.2543 3.46691C27.2543 3.93835 27.2769 4.39165 27.3177 4.83136C27.3585 5.27107 27.4265 5.75612 27.5172 6.28195C27.6079 6.81233 27.694 7.3155 27.7801 7.80054C27.8617 8.28105 27.9297 8.76156 27.9796 9.24206C27.8073 9.42339 27.6124 9.56845 27.3993 9.67271C27.1863 9.77697 26.9642 9.83136 26.7284 9.83136C26.6287 9.83136 26.5199 9.8223 26.4111 9.79964C26.4837 9.63191 26.5426 9.45512 26.5924 9.2602C26.6378 9.06981 26.665 8.87941 26.665 8.69809C26.665 8.3581 26.5879 8.0816 26.4383 7.87307C26.3522 7.78695 26.2253 7.74161 26.0575 7.74161C25.7402 7.99546 25.4954 8.29465 25.3277 8.63463C25.2416 8.81595 25.1827 8.99275 25.1464 9.16047C25.1147 9.33273 25.0965 9.52765 25.0965 9.7543C24.8064 9.8767 24.4891 9.94016 24.1491 9.94016C24.3032 9.67724 24.4574 9.41885 24.616 9.15593C24.7021 8.98821 24.752 8.82048 24.7701 8.65729C24.7429 8.44877 24.6341 8.26745 24.4528 8.11333C24.3078 7.99093 24.1355 7.89121 23.936 7.81868C23.7366 7.74615 23.5507 7.70988 23.3739 7.70988C23.1065 7.70988 22.839 7.78694 22.5671 7.93653C22.2996 8.09066 22.0548 8.28559 21.8372 8.52584C21.7058 8.62557 21.5471 8.78422 21.3522 8.99727C21.1618 9.21033 20.9759 9.38712 20.8037 9.52311C20.7176 9.45058 20.6314 9.37806 20.5544 9.30553C20.3594 9.13328 20.2869 8.98368 20.3368 8.86128C20.1056 9.09247 19.8563 9.26926 19.5843 9.38713C19.3168 9.50499 19.0267 9.58659 18.7139 9.63192C19.0267 9.33273 19.2624 8.97007 19.4211 8.54396C19.4211 8.3989 19.3667 8.26292 19.2579 8.14052C19.1763 8.0544 18.9859 7.91387 18.6822 7.72801C18.5235 7.63282 18.3785 7.56482 18.247 7.52855C18.1156 7.48776 17.9796 7.46962 17.8345 7.46962C17.354 7.46962 16.7783 7.79148 16.1029 8.43971C15.568 8.95648 15.2597 9.24206 15.1872 9.301C15.0512 9.2194 14.9197 9.11967 14.8019 9.00181C14.684 8.88395 14.5979 8.75703 14.548 8.62557L14.3531 9.34179C14.3667 9.43699 14.403 9.56845 14.4619 9.74524C14.5616 10.049 14.616 10.2801 14.616 10.4297C14.616 10.5023 14.616 10.5567 14.6069 10.5929C14.2534 10.9782 13.859 11.2956 13.4329 11.5494C13.0476 11.7806 12.6033 11.9755 12.0956 12.1387C11.7964 12.2248 11.4927 12.2702 11.1799 12.2702C10.8399 12.2702 10.5226 12.2158 10.228 12.1024C9.93333 11.9891 9.68401 11.8123 9.48455 11.563C9.35309 11.2865 9.28963 11.0009 9.28963 10.7017C9.28963 10.4025 9.34403 10.0807 9.45282 9.7543C9.53895 9.50045 9.66588 9.2194 9.8336 8.90662C9.60241 9.25567 9.41656 9.60018 9.28056 9.94016C9.14457 10.2801 9.04938 10.6428 8.99951 11.0281C8.99951 11.4406 9.03578 11.7579 9.10831 11.9755C9.20803 12.2792 9.40296 12.5104 9.68401 12.6736C9.87893 12.7915 10.0829 12.8731 10.3005 12.9229C10.5136 12.9728 10.7402 13 10.9805 13C11.3794 13 11.7692 12.9411 12.1455 12.8187C12.5217 12.7008 12.8753 12.5376 13.2017 12.3336C13.6958 12.0707 14.0902 11.767 14.3894 11.4179C14.752 10.9964 14.9333 10.5521 14.9333 10.0807C15.1283 10.126 15.3413 10.1668 15.577 10.2122C15.8082 10.2575 16.0213 10.2756 16.2071 10.2756C16.2434 10.2756 16.2933 10.2756 16.3613 10.2711C16.4247 10.2711 16.4882 10.262 16.5471 10.2529C16.7556 10.2167 16.9596 10.1985 17.15 10.194C17.3404 10.194 17.5399 10.1895 17.7438 10.1895H18.4827C18.8363 10.1895 19.1582 10.1305 19.4392 10.0172C19.7203 9.89936 19.9605 9.70444 20.1555 9.42792C20.1645 9.50045 20.2098 9.62284 20.296 9.79056C20.3821 9.95829 20.4274 10.0943 20.4274 10.1895C20.4274 10.3073 20.3821 10.4071 20.2869 10.4932C20.3821 10.3617 20.4954 10.2983 20.636 10.2983C20.6632 10.2983 20.8989 10.3799 21.3341 10.5385C21.5018 10.5975 21.6423 10.6156 21.7602 10.5929C21.9143 10.5476 22.0729 10.5204 22.2452 10.5068C22.4175 10.4932 22.5897 10.4841 22.771 10.4841C22.9524 10.4932 23.1382 10.4977 23.3241 10.5068C23.5145 10.5159 23.6958 10.5159 23.8771 10.5159C23.9406 10.5159 24.0358 10.5159 24.1536 10.5113C24.2715 10.5113 24.3803 10.5023 24.4755 10.4932C24.5933 10.4932 24.7565 10.4479 24.9741 10.3527C25.1917 10.2575 25.3504 10.2122 25.4546 10.2122C25.5272 10.2122 25.5997 10.2303 25.6722 10.2665C25.7448 10.3028 25.8082 10.3572 25.8671 10.4297C26.0757 10.5249 26.2933 10.5703 26.5199 10.5703C26.7828 10.5703 27.0367 10.5113 27.2905 10.3889C27.5444 10.2711 27.771 10.1124 27.966 9.91749C28.0657 9.7135 28.1382 9.50951 28.1745 9.29646C28.2108 9.08794 28.2289 8.85676 28.2289 8.61197C28.2289 8.40345 28.2198 8.20852 28.2017 8.03626C28.1836 7.864 28.1518 7.64188 28.111 7.37443C28.0113 6.83953 27.9116 6.29555 27.8164 5.75158C27.7574 5.40253 27.7302 5.08975 27.7302 4.80416C27.7302 4.75883 27.7302 4.70444 27.7348 4.64098C27.7348 4.57751 27.7438 4.50045 27.7529 4.41432L28.1428 4.92656H28.1337ZM16.8191 5.74252L16.7103 5.96011C16.6242 5.93291 16.538 5.90118 16.4474 5.87398C16.3839 5.87398 16.3431 5.92837 16.3295 6.0417C16.3159 6.15503 16.2978 6.27289 16.2751 6.39982C16.2525 6.52675 16.2117 6.66274 16.1437 6.80779C16.0711 6.77153 15.985 6.64007 15.8807 6.40888C15.781 6.18223 15.6541 6.06436 15.509 6.06436C15.4637 6.06436 15.432 6.06437 15.4093 6.07344C15.364 6.03717 15.3458 6.00544 15.3458 5.97371C15.3458 5.94198 15.364 5.89665 15.4048 5.83318C15.4456 5.76972 15.4637 5.71986 15.4637 5.69266C15.4773 5.64733 15.509 5.62919 15.5498 5.62919C15.6088 5.66545 15.6677 5.70171 15.7357 5.73798C15.8082 5.82411 15.8807 5.93744 15.9533 6.0689C16.0258 6.20489 16.0802 6.30462 16.1165 6.37715C16.1618 6.24115 16.2071 6.0961 16.257 5.94197C16.3069 5.78785 16.3794 5.66998 16.4746 5.58385C16.5335 5.58385 16.5879 5.59746 16.6423 5.62013C16.6967 5.64733 16.7511 5.68359 16.81 5.73345L16.8191 5.74252ZM22.7393 11.0644C22.694 11.2185 22.6124 11.3454 22.49 11.4497C22.3676 11.5539 22.2271 11.6083 22.0775 11.6083C22.005 11.6219 21.937 11.6174 21.869 11.5993C21.7602 11.5539 21.6514 11.5177 21.5426 11.4814C21.461 11.4814 21.3975 11.5041 21.3477 11.5449C21.0847 11.7534 20.781 11.9483 20.432 12.1206C20.2506 12.2022 20.0875 12.2656 19.9379 12.3155C19.7883 12.3654 19.6205 12.4107 19.4302 12.447C19.8019 12.3291 20.16 12.1659 20.509 11.9483L21.5426 11.2956C21.6287 11.282 21.6967 11.2729 21.7375 11.2729C21.8463 11.2729 21.9324 11.3001 22.0004 11.359C22.0729 11.2729 22.1364 11.1958 22.1953 11.1369C22.2543 11.0734 22.3087 11.0236 22.3631 10.9828C22.4175 10.942 22.4764 10.9238 22.5444 10.9238C22.626 10.9238 22.6894 10.9692 22.7393 11.0644ZM12.9932 3.26291C13.0068 3.33544 13.0158 3.37624 13.0158 3.38078C13.0158 3.44424 12.975 3.48051 12.898 3.48051H12.6804C12.6351 3.50317 12.6079 3.5485 12.5943 3.62103C12.5716 3.67996 12.5489 3.85675 12.5217 4.15593C12.4945 4.45512 12.4356 4.64097 12.3404 4.72257L11.8599 3.99275L11.7828 4.1106C11.7103 4.06074 11.6604 4.02447 11.6287 4.00181C11.5652 3.95195 11.5199 3.90208 11.4972 3.84769C11.4972 3.69356 11.529 3.55303 11.597 3.42157C11.7556 3.46691 11.9007 3.58477 12.0322 3.77969C12.1319 3.94742 12.2361 4.11513 12.3359 4.27832C12.3993 3.99727 12.4492 3.77969 12.4764 3.63463C12.5399 3.36718 12.6622 3.23118 12.8345 3.23118C12.898 3.23118 12.9524 3.24025 12.9886 3.25385L12.9932 3.26291ZM12.9841 5.27561C13.0113 5.30281 13.0113 5.34361 12.9841 5.39347C12.9569 5.44334 12.9342 5.48412 12.9206 5.51132H12.6169C12.4265 5.51132 12.2724 5.52947 12.15 5.56573C12.0276 5.602 11.9234 5.68359 11.8327 5.80599C11.8327 5.98731 11.8644 6.20943 11.9324 6.46781C12.0322 6.86672 12.0911 7.11151 12.1047 7.20671C12.1183 7.3019 12.1319 7.37897 12.1364 7.43336C12.1455 7.49229 12.1455 7.58296 12.1455 7.70535C12.1455 7.82775 12.1319 7.95467 12.1001 8.08159C12.0729 8.20852 12.0231 8.33544 11.9596 8.45783C11.9868 8.3853 12.0095 8.29918 12.0231 8.20398C12.0367 8.10425 12.0457 8.0136 12.0457 7.92747C12.0457 7.76881 12.0231 7.59655 11.9823 7.41523C11.9687 7.3563 11.9234 7.20218 11.8508 6.95286C11.7783 6.70354 11.7375 6.55847 11.733 6.52221C11.7058 6.38621 11.6876 6.24569 11.6876 6.10969C11.6876 5.99183 11.7012 5.88758 11.7239 5.78785C11.7511 5.68812 11.7919 5.5884 11.8508 5.4796C11.9234 5.40707 12.0276 5.35268 12.1681 5.31188C12.3041 5.27108 12.3993 5.24387 12.4492 5.23027C12.4129 5.18041 12.3721 5.14868 12.3313 5.14414C12.286 5.13508 12.2271 5.13508 12.1455 5.14414C12.1183 5.18041 12.0911 5.21668 12.0684 5.25295C12.0322 5.28921 11.9868 5.31187 11.937 5.3164C11.937 5.23027 11.9642 5.14415 12.0231 5.05349C12.082 4.96736 12.15 4.90843 12.2316 4.88123C12.3767 4.85856 12.5353 4.9175 12.7121 5.05349C12.7982 5.12602 12.8889 5.19854 12.9841 5.27107V5.27561ZM12.1228 9.96282C12.0503 10.2031 12.0095 10.33 12.005 10.3436C11.9551 10.4161 11.8871 10.4524 11.7964 10.4524C11.733 10.3572 11.6967 10.2393 11.6967 10.0943C11.6967 9.98549 11.7148 9.86763 11.7511 9.73617C11.7874 9.60471 11.8327 9.47326 11.8916 9.33273C11.9007 9.40526 11.8916 9.50498 11.8644 9.63644C11.8372 9.7679 11.8282 9.85404 11.8282 9.89937C11.8282 10.0354 11.8735 10.1351 11.9596 10.194C11.9732 10.1804 11.9914 10.1396 12.014 10.0671C12.0367 9.99909 12.0729 9.96282 12.1228 9.96282ZM26.257 8.76609C26.2933 8.82956 26.3159 8.88395 26.3295 8.92022C26.3431 8.95648 26.3477 9.00634 26.3477 9.07434C26.3477 9.31913 26.1845 9.46418 25.8581 9.50951C25.6496 9.45965 25.4954 9.31912 25.4002 9.097C25.373 9.00181 25.3957 8.91115 25.4728 8.82049C25.5498 8.72983 25.6224 8.64823 25.6904 8.58024C25.7584 8.51224 25.8264 8.47597 25.8898 8.47597C25.9623 8.47597 26.0349 8.50317 26.1029 8.5621C26.1709 8.62103 26.2253 8.68902 26.2615 8.77062L26.257 8.76609ZM24.2896 9.15593C24.0584 9.36446 23.7638 9.52765 23.4102 9.63644C23.0566 9.74523 22.5036 9.79964 21.7556 9.79964L21.1119 9.65911C21.4972 9.23754 21.7738 8.95647 21.9506 8.81141C22.2905 8.53489 22.6305 8.39891 22.9614 8.39891C23.0929 8.39891 23.2334 8.42157 23.3875 8.46237C23.6142 8.51223 23.8091 8.59383 23.9768 8.70716C24.1446 8.82049 24.2488 8.97008 24.2942 9.16047L24.2896 9.15593ZM22.5172 11.2321C22.3948 11.2774 22.2724 11.3228 22.1455 11.3726C22.1364 11.3273 22.15 11.2956 22.1817 11.2684C22.2135 11.2412 22.2588 11.214 22.3177 11.1777H22.4356C22.4855 11.1777 22.5127 11.1958 22.5127 11.2321H22.5172ZM18.9179 9.03354C18.5462 9.1922 18.1654 9.31912 17.7756 9.40978C17.3857 9.50045 17.0004 9.54579 16.6242 9.54579C16.2162 9.54579 15.8399 9.49592 15.4909 9.39166C15.7085 9.19674 15.9306 8.99728 16.1527 8.79329C16.6332 8.37171 17.0548 8.16318 17.4265 8.16318C17.6305 8.16318 17.8209 8.20852 18.0022 8.29465C18.4102 8.49864 18.6323 8.6165 18.6777 8.65277C18.8091 8.76156 18.8862 8.88849 18.9179 9.03354Z" fill="currentColor"/>
</svg>
