<svg width="40" height="16" viewBox="0 0 40 16" fill="none" xmlns="http://www.w3.org/2000/svg">
<path fill-rule="evenodd" clip-rule="evenodd" d="M26.8424 4.57076C26.7752 4.66316 26.6828 4.74716 26.5694 4.82276C26.4896 4.87736 26.3804 4.93196 26.246 4.98236C26.1117 5.03696 25.9815 5.08735 25.8513 5.13355C25.7253 5.17975 25.6077 5.23855 25.5069 5.30575C25.5615 5.19655 25.6329 5.10835 25.7295 5.03695C25.8219 4.96555 25.9437 4.90255 26.0907 4.83955C26.267 4.78495 26.393 4.74716 26.4728 4.71776C26.6156 4.67157 26.7332 4.62116 26.834 4.56656L26.8424 4.57076ZM27.9092 4.65056C27.9092 4.65056 27.8588 4.55817 27.7916 4.42797C27.7286 4.30197 27.6698 4.20958 27.6152 4.15498C27.6152 4.47837 27.6404 4.84376 27.695 5.25535C27.8294 6.28433 27.8966 6.92272 27.8966 7.17051C27.905 7.30491 27.9134 7.43091 27.9218 7.55271C27.9302 7.67451 27.9386 7.81309 27.9386 7.97689C27.9386 8.39268 27.9008 8.76648 27.8294 9.10248C27.7538 9.43427 27.6236 9.76186 27.4346 10.0853C27.5018 9.87526 27.5522 9.67366 27.5816 9.47206C27.611 9.27046 27.6278 9.04367 27.6278 8.79588C27.6278 8.50609 27.6026 8.15749 27.5564 7.7459C27.4472 6.80512 27.3968 6.22553 27.3968 6.00294C27.2876 5.16295 27.1826 4.31876 27.0734 3.47458L27.3548 3C27.3548 3 27.4514 3.1806 27.6278 3.52499C27.8294 3.91558 27.9302 4.23057 27.9302 4.47416C27.9302 4.51616 27.9218 4.57496 27.9092 4.65476V4.65056ZM24.3099 3.18059L24.2595 3.37379C23.6127 3.60898 22.9701 3.84417 22.3233 4.07937C21.6093 4.36076 20.992 4.66737 20.467 4.99496C20.5762 4.73457 20.8198 4.52037 21.2019 4.36077C21.5253 4.22637 21.8361 4.09617 22.1385 3.96598C22.4409 3.83998 22.7895 3.70138 23.1885 3.55858C23.5833 3.41579 23.9571 3.28979 24.3057 3.18059H24.3099ZM24.1797 6.33472C24.2007 6.41032 24.1965 6.48593 24.1629 6.56993C24.1335 6.65393 24.0873 6.72532 24.0285 6.78832C23.9193 6.80092 23.8479 6.74632 23.8059 6.61612C23.8059 6.39353 23.8101 6.22973 23.8227 6.11633C23.8311 6.00713 23.8731 5.88954 23.9403 5.76774C23.9487 5.82234 23.9403 5.91053 23.9235 6.03653C23.9067 6.16253 23.8983 6.23394 23.8983 6.25494C23.8983 6.30953 23.9025 6.36412 23.9151 6.41452C23.9235 6.46912 23.9655 6.51953 24.0327 6.56572C24.0663 6.54473 24.0957 6.50692 24.1167 6.44392C24.1419 6.38512 24.1629 6.34732 24.1839 6.33472H24.1797ZM23.2641 4.99496C23.1885 4.94036 23.1045 4.91936 23.0037 4.93616C22.9113 5.00335 22.8483 5.13775 22.8231 5.33934C22.7979 5.54094 22.7769 5.66274 22.7643 5.70054C22.6845 5.57875 22.6047 5.45694 22.5333 5.32674C22.4409 5.18395 22.3359 5.07895 22.2225 5.00336C22.1553 4.97816 22.1091 4.98236 22.0881 5.02016C22.0629 5.05796 22.0503 5.11675 22.0419 5.19655C22.0419 5.22175 22.0419 5.26375 22.0335 5.31835C22.0335 5.37715 22.0629 5.41074 22.1259 5.41914C22.2729 5.41914 22.4115 5.51155 22.5375 5.70054C22.6929 5.93574 22.7895 6.06594 22.8315 6.09534L22.8903 5.39815C22.8819 5.37295 22.8819 5.33935 22.8819 5.30575C22.8819 5.22595 22.9239 5.18395 23.0037 5.18395C23.0457 5.18395 23.1003 5.18396 23.1759 5.19236C23.2557 5.19236 23.2977 5.15875 23.2977 5.09155C23.2977 5.07895 23.2893 5.04536 23.2767 4.99076L23.2641 4.99496ZM26.9432 8.50188C26.876 8.38848 26.792 8.30869 26.6954 8.26669C26.5988 8.22469 26.4812 8.19949 26.3468 8.19949C26.3132 8.19949 26.1285 8.22469 25.7925 8.27089C25.7001 8.28349 25.5993 8.29188 25.4901 8.29188C25.3767 7.4939 25.2633 6.68752 25.1583 5.88114C25.1583 5.75514 25.1415 5.57874 25.1079 5.35615C25.0407 4.91096 25.0071 4.62536 25.0071 4.49097C25.0071 4.37757 25.0155 4.25997 25.0365 4.13817C25.1247 4.21797 25.1877 4.28517 25.2339 4.33557C25.2759 4.38597 25.3179 4.44897 25.3515 4.52037C25.3641 4.38597 25.3263 4.20537 25.2297 3.97437C24.9693 3.34438 24.8349 3.02099 24.8349 3.0084C24.7677 3.10079 24.7005 3.20159 24.6291 3.30659C24.5577 3.41158 24.5241 3.51659 24.5241 3.62578C24.5241 3.70138 24.5409 3.76438 24.5745 3.81898L25.1079 8.11129L25.1163 8.42208C24.7803 8.59848 24.5073 8.72028 24.3015 8.79588C23.9739 8.91768 23.6757 8.97647 23.4153 8.97647C23.2557 8.97647 23.0919 8.94708 22.9323 8.89248C22.7727 8.83368 22.6257 8.75809 22.4997 8.65729C22.8819 8.39689 23.2893 8.26249 23.7177 8.26249C23.7597 8.26249 23.8017 8.26249 23.8521 8.26669C23.9025 8.26669 23.9613 8.27509 24.0285 8.28349C24.0957 8.19109 24.1461 8.09029 24.1755 7.98949C24.2049 7.88869 24.2217 7.7795 24.2217 7.65771C23.4699 7.34271 22.7181 7.18311 21.9621 7.18311C21.5715 7.18311 21.2019 7.22511 20.8534 7.31331C20.6518 7.33851 20.5006 7.4309 20.404 7.5863C20.3074 7.7417 20.257 7.9265 20.257 8.14069C20.299 8.16589 20.3578 8.15329 20.4334 8.09869C20.509 8.04409 20.5678 8.01889 20.6098 8.01889C20.7778 7.99789 20.9542 8.06089 21.1432 8.21208C21.2649 8.30028 21.3951 8.43469 21.5379 8.61529C21.2103 8.82528 20.8702 8.92608 20.5216 8.92608C20.4082 8.92608 20.2822 8.90928 20.1478 8.87568C19.9798 8.80848 19.8454 8.69508 19.7488 8.53968C19.6522 8.38008 19.5892 8.20369 19.564 8.00209C19.564 7.01511 19.5388 6.13734 19.4926 5.37295C19.4464 4.60857 19.3414 3.88618 19.1818 3.20579C19.102 3.27299 19.039 3.36958 18.9886 3.49978C18.9676 3.54598 18.9382 3.65518 18.8962 3.82318C19.018 4.35237 19.1062 4.88996 19.1566 5.42755C19.2112 5.96514 19.2364 6.50273 19.2364 7.04032C19.2448 7.09492 19.2616 7.45191 19.291 8.1155C19.3204 8.77908 19.5094 9.24108 19.8496 9.50987C20.026 9.56867 20.194 9.60227 20.362 9.60227C20.5552 9.60227 20.7694 9.56446 21.0004 9.48466C21.2313 9.40906 21.5337 9.25787 21.9033 9.03528L22.3863 9.41747C22.5123 9.49727 22.6467 9.55606 22.7811 9.59386C22.9155 9.63166 23.0499 9.64846 23.1843 9.64846C23.4531 9.64846 23.7975 9.56027 24.2217 9.38807C24.7719 9.16127 25.0995 9.03108 25.2003 9.00588C25.2423 9.16127 25.2843 9.31667 25.3305 9.47626C25.3767 9.63586 25.4481 9.76186 25.5405 9.86266C25.6833 10.0181 25.8555 10.0937 26.0655 10.0937C26.1327 10.0937 26.1957 10.0852 26.2586 10.0642C26.4812 9.89625 26.6492 9.69466 26.7668 9.45527C26.8844 9.21587 26.9432 8.96808 26.9432 8.70348C26.9432 8.61528 26.9432 8.55229 26.9348 8.51029L26.9432 8.50188ZM20.1478 4.67997C20.215 4.47837 20.2486 4.26417 20.2486 4.03318C20.2486 3.87358 20.2318 3.73078 20.2024 3.61318C20.173 3.49559 20.1184 3.37798 20.047 3.26458L20.1268 3.15539C20.2822 3.31499 20.3578 3.53338 20.3578 3.80217C20.3578 3.99117 20.3284 4.18018 20.2654 4.37757C20.2444 4.43637 20.2066 4.53717 20.1436 4.67997H20.1478ZM21.0466 6.14153C21.0466 6.25073 21.034 6.34313 21.0046 6.41873C20.9794 6.49432 20.929 6.55732 20.8534 6.60352C20.74 6.56992 20.6644 6.49433 20.6308 6.38093C20.6308 6.21293 20.6392 6.07853 20.656 5.98193C20.6728 5.88533 20.7148 5.78034 20.782 5.67534C20.7904 5.70894 20.782 5.78034 20.7652 5.89374C20.7484 6.00293 20.74 6.07853 20.74 6.11213C20.74 6.23812 20.7904 6.33053 20.8912 6.38513C20.9122 6.37253 20.9374 6.33473 20.9668 6.26753C20.9962 6.20454 21.0214 6.16253 21.0424 6.14153H21.0466ZM18.2158 3.99538C18.241 4.15497 18.178 4.32297 18.0226 4.49097C17.968 4.50356 17.9134 4.44896 17.863 4.33137C17.8504 4.26417 17.842 4.21377 17.842 4.18018C17.842 4.05838 17.8714 3.91978 17.9344 3.76858C17.989 3.65518 18.0268 3.57539 18.0436 3.52499C18.0436 3.57119 18.0268 3.65518 17.989 3.77697C17.9512 3.89877 17.9344 3.98277 17.9344 4.02897C17.9344 4.13817 17.9848 4.21798 18.0856 4.27257C18.1066 4.25997 18.1276 4.21378 18.1444 4.14238C18.1654 4.06678 18.1864 4.02057 18.2158 3.99957V3.99538ZM16.7248 3.61318C16.7248 3.61318 16.6744 3.63838 16.6282 3.63418C16.5862 3.62578 16.5442 3.62158 16.5022 3.61318C16.456 3.61318 16.4182 3.63838 16.393 3.69298V3.90298C16.393 4.03738 16.3888 4.15497 16.3762 4.25577C16.3678 4.35657 16.3426 4.44896 16.309 4.52876C16.2544 4.48256 16.1872 4.37757 16.1075 4.21797C15.9731 3.95758 15.8135 3.83998 15.6329 3.86518C15.6203 3.82318 15.6119 3.78958 15.6119 3.75598C15.6119 3.70138 15.6329 3.62998 15.6707 3.53338C15.6833 3.49979 15.7169 3.48299 15.7715 3.48299C15.7967 3.48299 15.8219 3.49559 15.8429 3.52499C15.9311 3.60059 16.0151 3.70138 16.0949 3.83578C16.1746 3.97018 16.2376 4.07098 16.2754 4.13817C16.2838 3.99538 16.2922 3.85258 16.3048 3.70558C16.33 3.53759 16.4098 3.42838 16.5358 3.37379C16.5568 3.38639 16.5946 3.40739 16.6576 3.42839C16.7164 3.45359 16.75 3.48299 16.75 3.52499C16.75 3.54599 16.7416 3.57539 16.7206 3.61739L16.7248 3.61318ZM22.7223 10.3373C22.5543 10.5053 22.3779 10.6396 22.1931 10.7404C22.0083 10.8412 21.8109 10.8916 21.6051 10.8916C21.5589 10.8916 21.4875 10.8832 21.3951 10.8706C21.3069 10.8244 21.2649 10.7446 21.2649 10.6396C21.2649 10.5976 21.2733 10.564 21.2943 10.5304L21.5253 10.207C21.4371 10.1524 21.3825 10.0937 21.3531 10.0265C21.3783 9.93825 21.4245 9.86265 21.4875 9.79965C21.5505 9.73665 21.6303 9.67786 21.7227 9.62326C21.7311 9.63166 21.7521 9.64426 21.7899 9.66946C21.8277 9.69466 21.8445 9.71987 21.8445 9.74506C21.8319 9.80386 21.7815 9.85845 21.6933 9.90465C21.6849 9.87105 21.6471 9.85425 21.5715 9.85425C21.5463 9.89625 21.5337 9.92145 21.5421 9.93405C21.5883 9.95925 21.6387 9.98446 21.6933 10.0055C21.7479 10.0265 21.7983 10.0307 21.8445 10.0265C21.8991 9.98445 21.9453 9.95085 21.9789 9.92145C22.0167 9.89205 22.0545 9.88785 22.0965 9.90465C22.0713 9.95085 21.9159 10.081 21.6345 10.2994C21.5127 10.3876 21.4455 10.48 21.4329 10.5808C21.4791 10.6144 21.5295 10.6396 21.5841 10.6606C21.6387 10.6816 21.7059 10.69 21.7857 10.69C21.9201 10.69 22.0713 10.648 22.2393 10.5682C22.4073 10.4884 22.5669 10.4087 22.7223 10.3373ZM14.2469 4.33976C14.1797 4.36496 14.1125 4.35656 14.0411 4.31456C13.9697 4.27256 13.9361 4.21377 13.9361 4.13817C13.9109 4.01638 13.8941 3.91977 13.8941 3.84417C13.8941 3.64258 13.9445 3.46619 14.0453 3.31079C14.0327 3.36539 14.0201 3.42839 14.0033 3.49559C13.9907 3.56699 13.9823 3.62998 13.9823 3.69298C13.9823 3.78538 13.9949 3.86938 14.0159 3.94078C14.0411 4.01218 14.0831 4.07518 14.1419 4.12557C14.2091 4.14657 14.2553 4.12558 14.2763 4.07518C14.3015 4.02058 14.3225 3.96598 14.3435 3.91558C14.3561 3.99118 14.3561 4.05837 14.3393 4.11717C14.3225 4.17597 14.2889 4.25156 14.2427 4.33976H14.2469ZM18.9844 10.3373C18.9508 10.4297 18.9214 10.522 18.892 10.6102C18.8458 10.7194 18.7828 10.7824 18.6988 10.8034C18.598 10.7026 18.5476 10.5766 18.5476 10.4212C18.5476 10.312 18.577 10.186 18.6316 10.0391C18.6904 9.89205 18.7324 9.78706 18.7576 9.72826C18.7576 9.78706 18.7408 9.88366 18.7114 10.0139C18.682 10.1441 18.6652 10.2323 18.6652 10.2701C18.6652 10.3457 18.6736 10.4003 18.6904 10.4423C18.7072 10.4843 18.7408 10.522 18.7954 10.564C18.8206 10.5556 18.85 10.5221 18.8752 10.4549C18.9004 10.3877 18.934 10.3498 18.976 10.3456L18.9844 10.3373ZM18.6106 7.31331C18.6316 7.27971 18.64 7.24191 18.64 7.20411C18.64 7.11171 18.5896 6.99411 18.493 6.85971C18.3964 6.72531 18.304 6.59933 18.2158 6.47753L18.0436 6.78832C18.01 6.89752 17.9932 7.02772 17.9932 7.18311C17.9932 7.39731 18.0562 7.71229 18.1864 8.11969C18.2452 8.31288 18.2998 8.49769 18.346 8.66568C17.7664 9.15707 17.044 9.62326 16.1704 10.0685C15.4061 10.4296 14.6375 10.795 13.8731 11.1562L15.1331 10.8748C15.5951 10.8328 16.0487 10.7068 16.4854 10.4926C16.981 10.2491 17.6236 9.80386 18.409 9.15287C18.5014 9.04368 18.5644 8.94287 18.5938 8.84207C18.6232 8.74127 18.64 8.61529 18.64 8.45989C18.64 8.33809 18.598 8.0651 18.5182 7.63251C18.4846 7.45191 18.4678 7.29651 18.4678 7.17051C18.5014 7.17891 18.5308 7.19991 18.5602 7.24191C18.5686 7.26291 18.5854 7.28811 18.6106 7.3217V7.31331ZM18.9844 12.1222C18.5476 12.3154 18.1192 12.4834 17.7034 12.6262C17.1994 12.7942 16.7248 12.9034 16.2838 12.958C16.0907 12.9832 15.8681 13 15.6203 13C15.2297 13 14.8643 12.9496 14.5199 12.8488C14.1755 12.748 13.8605 12.5884 13.5707 12.3658C13.3691 12.2104 13.2221 12.0256 13.1339 11.8072C13.0415 11.5888 12.9995 11.3452 12.9995 11.0764C12.9995 11.0092 12.9995 10.9504 13.0037 10.8958C13.0037 10.8412 13.0121 10.795 13.0205 10.753C13.0961 10.1735 13.2515 9.65267 13.4951 9.18228C13.7387 8.71189 14.0663 8.27089 14.4821 7.8635C14.4149 7.7837 14.1713 7.6367 13.7555 7.41831C13.4447 7.26291 13.2935 7.04031 13.2935 6.75471C13.3397 6.56152 13.3901 6.35993 13.4447 6.15833C13.5203 5.93574 13.6379 5.77614 13.8059 5.67534C14.0957 5.60815 14.3855 5.55774 14.6795 5.52835C14.9735 5.49895 15.2969 5.48214 15.6539 5.48214C16.0697 5.48214 16.456 5.49895 16.813 5.52835C17.17 5.55774 17.5606 5.61234 17.9932 5.68374C17.9932 5.89374 17.926 6.08693 17.7916 6.26333C17.6572 6.43973 17.4892 6.57832 17.2876 6.67072L15.9857 7.35531C15.7631 7.47711 15.5405 7.60731 15.3137 7.7501C15.0869 7.8929 14.8769 8.0399 14.6753 8.19529C14.4737 8.36329 14.2847 8.53968 14.1125 8.72448C13.9361 8.90927 13.7891 9.09827 13.6673 9.29567C13.5245 9.51827 13.4195 9.74506 13.3481 9.98026C13.2767 10.2155 13.2431 10.4716 13.2431 10.7446C13.2431 11.0806 13.3859 11.383 13.6757 11.6518C13.9025 11.866 14.1965 12.0382 14.5535 12.1642C14.7425 12.223 14.9651 12.2692 15.2297 12.2986C15.4901 12.328 15.7463 12.3448 15.9941 12.3448C16.1033 12.3448 16.2124 12.3448 16.3258 12.3406C16.4392 12.3406 16.5526 12.3364 16.6702 12.3364H16.771C17.0272 12.3364 17.4976 12.2902 18.1822 12.1936C18.5266 12.1474 18.7954 12.1222 18.9886 12.1222H18.9844ZM15.9185 9.32087C15.8933 9.37547 15.8429 9.44266 15.7715 9.52666C15.7001 9.61066 15.6539 9.67786 15.6245 9.72406C15.5027 9.65686 15.4145 9.60647 15.3641 9.57287C15.2633 9.51407 15.1877 9.44686 15.1415 9.37966C15.2423 9.16967 15.3725 8.98907 15.5363 8.83368C15.6497 8.90088 15.7337 8.95548 15.7883 8.99328C15.8975 9.07307 15.9479 9.15287 15.9479 9.22427C15.9479 9.24947 15.9395 9.28307 15.9185 9.31667V9.32087ZM26.645 9.11927C26.666 9.16127 26.6744 9.19067 26.6744 9.21167C26.6744 9.25787 26.6492 9.29147 26.603 9.31247C26.5274 9.39227 26.435 9.43426 26.3216 9.43426C26.288 9.43426 26.2418 9.42587 26.1873 9.41327C26.1285 9.40067 26.0781 9.38807 26.0319 9.38387C25.8219 9.27467 25.6917 9.10668 25.6371 8.87988C25.6917 8.86728 25.7589 8.85468 25.8387 8.83788C25.9185 8.82528 25.9899 8.81687 26.0487 8.81687C26.1747 8.81687 26.2964 8.84208 26.4056 8.88828C26.5148 8.93448 26.5946 9.01427 26.6408 9.11927H26.645ZM22.6929 7.93909C22.6341 7.96009 22.5585 7.9979 22.4703 8.06089C22.3023 8.18269 22.1931 8.24149 22.1385 8.24149C22.0629 8.24149 22.0083 8.20789 21.9663 8.14069C21.9579 8.13229 21.9201 8.0903 21.8445 8.0105C21.7983 7.9643 21.7689 7.91389 21.7521 7.85929C21.9201 7.85929 22.0797 7.8677 22.2309 7.8803C22.3821 7.8929 22.5333 7.91389 22.6887 7.93909H22.6929ZM17.0902 6.22553C16.351 6.60773 15.5867 7.05712 14.8013 7.56531C14.7341 7.35111 14.5745 7.15371 14.3267 6.96891C14.1041 6.83452 13.8857 6.70012 13.6715 6.56572C13.7261 6.35573 13.9025 6.23813 14.2007 6.20873C14.4989 6.17933 14.6711 6.15833 14.7215 6.14153C15.2591 6.14153 15.7043 6.14573 16.0613 6.15833C16.4182 6.16673 16.7584 6.19193 17.0902 6.22553Z" fill="currentColor"/>
</svg>
