<svg width="40" height="16" viewBox="0 0 40 16" fill="none" xmlns="http://www.w3.org/2000/svg">
<path fill-rule="evenodd" clip-rule="evenodd" d="M26.3881 3C26.2673 3.09996 26.1257 3.19159 25.9591 3.27072C25.4593 3.44565 24.9637 3.61641 24.4681 3.79134C24.568 3.68305 24.668 3.59975 24.7679 3.53311C24.947 3.41233 25.1928 3.31237 25.501 3.23324C25.8092 3.1541 26.1049 3.07497 26.3839 3.00416L26.3881 3ZM30.2573 9.5681C30.2573 10.122 30.2407 10.5718 30.2073 10.9175C30.174 11.2632 30.0949 11.6339 29.9658 12.0254C29.9658 11.2049 29.9075 10.3011 29.795 9.30571C29.7367 8.80591 29.6118 7.92295 29.4202 6.65264C29.2286 5.38234 29.1036 4.47022 29.0453 3.92045C29.0662 3.89546 29.1036 3.81633 29.1661 3.69138C29.2536 3.50396 29.341 3.39983 29.4368 3.38317C29.516 3.63723 29.5951 3.85798 29.6784 4.04123C29.9574 4.70762 30.1074 5.06997 30.1282 5.13244C30.0824 5.13244 30.0033 5.07414 29.8991 4.96168C29.7908 4.84923 29.7159 4.81591 29.6701 4.86172C29.8617 6.43607 30.0616 8.00208 30.2615 9.5681H30.2573ZM26.2881 6.79842C26.234 6.85673 26.1674 6.89005 26.0882 6.89005C26.0632 6.89005 26.0299 6.88172 25.9883 6.86922L25.93 6.81924C25.8841 6.89838 25.8508 6.95668 25.83 6.99C25.7842 7.05664 25.7259 7.08996 25.6592 7.08996C25.526 7.10246 25.4468 7.04415 25.4177 6.91087C25.426 6.85673 25.426 6.77759 25.4177 6.67763C25.4093 6.57351 25.4093 6.5152 25.4093 6.50271C25.4093 6.44856 25.4135 6.39442 25.426 6.33194C25.4343 6.27364 25.4718 6.21949 25.5301 6.17368C25.5385 6.21949 25.5385 6.2903 25.5301 6.38192C25.5218 6.47355 25.5218 6.52353 25.5218 6.53186C25.5218 6.65681 25.5634 6.74844 25.6426 6.80258C25.7175 6.79009 25.7675 6.7651 25.7967 6.72761C25.8258 6.69013 25.8425 6.64431 25.8425 6.59434C25.8425 6.54852 25.8342 6.47772 25.8175 6.39025C25.8008 6.29863 25.7925 6.24448 25.7925 6.22366C25.7925 6.13619 25.8175 6.06539 25.8717 6.01541C25.8966 6.06122 25.9133 6.12786 25.9133 6.21533V6.36526C25.9133 6.45273 25.9216 6.52353 25.9383 6.57351C25.9549 6.62766 26.0258 6.64431 26.1549 6.62349C26.1674 6.60267 26.1757 6.56935 26.1757 6.52353C26.1757 6.49854 26.159 6.44023 26.1299 6.35693C26.1007 6.27364 26.0841 6.21116 26.0841 6.17368C26.0841 6.11537 26.1091 6.06122 26.1549 6.01541C26.2632 6.16118 26.3131 6.3486 26.3131 6.57351C26.3131 6.6818 26.3048 6.75677 26.2923 6.80258L26.2881 6.79842ZM24.1099 5.91962C24.1099 6.03207 24.0891 6.14452 24.0432 6.26114C24.0016 6.37359 23.9308 6.44856 23.8392 6.48188C23.76 6.5152 23.6851 6.47355 23.6184 6.35277C23.6059 6.27364 23.5976 6.21116 23.5976 6.17368C23.5976 6.06539 23.6101 5.97376 23.6309 5.89463C23.6559 5.81549 23.7225 5.65723 23.835 5.42399C23.8267 5.45731 23.81 5.53644 23.7767 5.65723C23.7434 5.78217 23.7267 5.8738 23.7267 5.94044C23.7267 6.05289 23.7642 6.14452 23.835 6.21116C23.9225 6.22366 23.9808 6.18201 24.0099 6.08621C24.0391 5.99042 24.0724 5.93628 24.1057 5.91962H24.1099ZM23.2811 3.24157C23.2477 3.39567 23.1353 3.49563 22.9395 3.54561C22.748 3.59559 22.5605 3.6414 22.3814 3.67888C21.3152 4.01208 20.6072 4.24531 20.2573 4.38276C19.9075 4.5202 19.516 4.69929 19.0828 4.92836C19.1953 4.68263 19.4993 4.47022 19.9908 4.28696C20.2157 4.20783 20.4489 4.12453 20.6821 4.03707C21.2569 3.84548 21.6817 3.69971 21.9608 3.60808C22.4731 3.43315 22.9145 3.31237 23.2811 3.2374V3.24157ZM26.1507 8.06872C26.1174 8.17701 26.0591 8.28946 25.9716 8.41025C25.8467 8.58934 25.7717 8.69763 25.7509 8.73095C25.6592 8.62266 25.5301 8.53103 25.3677 8.44773C25.2053 8.36443 25.0803 8.29779 24.9928 8.25198C24.9595 8.34361 24.9179 8.42691 24.8721 8.49354C24.7804 8.61433 24.6846 8.73095 24.593 8.8434L23.9141 8.54352C24.0141 8.34361 24.0807 8.21866 24.114 8.17284C24.2223 8.02707 24.339 7.9521 24.4639 7.9521L25.0137 8.24365L25.5343 7.58559C25.5343 7.58559 25.6634 7.67722 25.8633 7.81466C26.0049 7.90629 26.1007 7.99375 26.1549 8.07289L26.1507 8.06872ZM27.75 9.3182C27.75 8.95169 27.6043 8.03957 27.3085 6.57768C27.1836 5.94461 27.117 5.39484 27.117 4.92836C27.142 4.94919 27.2086 5.01999 27.3085 5.13661C27.3752 5.22407 27.446 5.27405 27.5168 5.28655C27.3294 4.60766 27.1086 3.95377 26.8462 3.32903C26.7338 3.42899 26.6588 3.52895 26.6213 3.6289C26.5839 3.72886 26.5672 3.84965 26.5672 3.98709C26.5672 4.07455 26.5797 4.212 26.6088 4.40775C26.6338 4.59933 26.6505 4.74927 26.6505 4.85756L27.4085 9.26406L27.5085 10.1054C27.3502 10.2137 27.1753 10.297 26.9837 10.3553C26.7921 10.4136 26.6005 10.4469 26.4089 10.4469C26.184 10.4469 25.9841 10.4094 25.8092 10.3386C25.7009 10.2928 25.6342 10.2262 25.6009 10.1429C25.5676 10.0596 25.551 9.95543 25.551 9.82632V9.61808C25.4302 9.65973 25.2927 9.75968 25.1303 9.92628C24.9387 10.1262 24.8054 10.2511 24.7388 10.297C24.5597 10.4386 24.3848 10.5385 24.214 10.601C24.0432 10.6635 23.8725 10.6968 23.6976 10.6968C23.2519 10.6968 22.7105 10.4136 22.0774 9.84715C21.2319 9.08913 20.7238 8.66014 20.5572 8.56851C20.4697 8.51437 20.1574 8.34777 19.6159 8.06872C19.2286 7.8688 18.937 7.66889 18.7371 7.46897C18.7288 7.38984 18.7621 7.3107 18.8288 7.22741C18.8621 7.18576 18.9204 7.12328 19.0078 7.03582C19.5826 6.71512 20.2073 6.41941 20.8862 6.14452C21.4943 5.89879 22.1399 5.66139 22.8271 5.43648C22.9395 5.39484 23.6018 5.19075 24.8054 4.81591C24.8263 4.81591 24.8721 4.80758 24.9512 4.79092C25.0262 4.77426 25.0886 4.76593 25.1345 4.76593C25.2344 4.76593 25.3094 4.79509 25.3635 4.85756C25.3844 4.93253 25.3927 5.00333 25.3927 5.0783C25.3927 5.16576 25.376 5.23657 25.3427 5.28655C24.9845 5.76135 24.6222 6.22782 24.264 6.69429C23.8433 7.24823 23.5393 7.71887 23.3435 8.11454L24.7138 6.41524C25.0012 6.0279 25.1886 5.76968 25.2719 5.6364C25.5843 5.13661 25.7425 4.65348 25.7425 4.18701C25.7092 4.08705 25.6259 4.03707 25.4926 4.03707C25.1011 4.10371 24.6513 4.212 24.1515 4.35777C23.86 4.44523 23.4352 4.58267 22.8812 4.77843C22.3273 4.97001 21.89 5.11995 21.5609 5.22824C21.0945 5.40317 20.6322 5.57393 20.1699 5.74885C19.1953 6.1237 18.6122 6.64848 18.4206 7.32736C18.2082 5.95294 17.9833 4.6868 17.75 3.52895C17.6917 3.59559 17.6376 3.68305 17.5918 3.78717C17.546 3.89546 17.5001 4.00375 17.4627 4.1162C17.5959 4.83673 17.7334 5.56976 17.8791 6.31529C18.0208 7.06081 18.1332 7.78134 18.2123 8.47272C18.2915 9.1641 18.3706 9.87214 18.4539 10.5927C18.5414 11.0675 18.7205 11.434 18.9953 11.7005C19.1828 11.8421 19.4035 11.9088 19.6534 11.9088C19.8408 11.9088 20.0407 11.8755 20.2532 11.8047C20.4656 11.7339 20.6821 11.6464 20.8987 11.5464C21.1153 11.4423 21.2861 11.2799 21.4152 11.0508C21.5235 10.8634 21.5901 10.6302 21.6151 10.3511C21.9358 10.6593 22.2273 10.8925 22.4939 11.0591C22.8271 11.2716 23.1561 11.4132 23.4851 11.4798C23.8308 11.4798 24.1515 11.3965 24.4389 11.2299C24.7305 11.0633 24.9845 10.8342 25.2053 10.5385C25.3135 10.5052 25.3927 10.5802 25.4468 10.7676C25.501 10.955 25.5843 11.0591 25.6967 11.0758C25.93 11.1508 26.1715 11.1841 26.4256 11.1841C26.6588 11.1841 26.8671 11.1508 27.0503 11.0883C27.2336 11.0258 27.3877 10.9217 27.5168 10.7718C27.6043 10.5302 27.6626 10.2886 27.6959 10.0471C27.7292 9.8055 27.7459 9.5556 27.7459 9.30154L27.75 9.3182ZM22.8812 7.06081C22.8937 7.13994 22.9021 7.18576 22.9021 7.18992C22.9021 7.26489 22.8687 7.29821 22.8021 7.29821C22.7021 7.27738 22.6272 7.26905 22.5814 7.26905C22.5022 7.26905 22.4606 7.32736 22.4606 7.43982C22.4148 7.65223 22.3773 7.8105 22.3523 7.91045C22.3065 8.08955 22.244 8.22699 22.1607 8.31862C22.1149 8.27697 22.0441 8.14785 21.9566 7.92711C21.865 7.70637 21.7609 7.59808 21.6401 7.59808C21.6068 7.59808 21.5651 7.60641 21.511 7.62724L21.3902 7.53561C21.411 7.44815 21.436 7.36068 21.4693 7.26489C21.5026 7.17326 21.5693 7.11912 21.6692 7.10662C21.7817 7.19409 21.8816 7.31487 21.9691 7.4773C22.0149 7.55643 22.0857 7.70221 22.1774 7.91878C22.2232 7.87297 22.2856 7.70637 22.3564 7.42316C22.4314 7.13994 22.5314 6.99833 22.6647 6.99833C22.723 6.99833 22.7938 7.01916 22.8729 7.05664L22.8812 7.06081ZM18.7913 4.54935C18.7163 4.88255 18.5913 5.19492 18.4123 5.49063C18.4914 5.34902 18.5539 5.20325 18.6038 5.04498C18.6497 4.88671 18.6746 4.72845 18.6746 4.56185C18.6746 4.42024 18.658 4.29529 18.6247 4.17868C18.5913 4.06206 18.533 3.95793 18.4539 3.86214C18.4664 3.7955 18.4831 3.74136 18.4997 3.70387C18.5164 3.66222 18.5497 3.6414 18.5955 3.63307C18.683 3.74136 18.7371 3.87047 18.7621 4.02457C18.7871 4.17868 18.7954 4.3536 18.7954 4.55352L18.7913 4.54935ZM23.71 9.37651C23.6976 9.45148 23.6851 9.52228 23.6684 9.59725C23.6351 9.7222 23.5768 9.83882 23.4893 9.93878C23.4227 9.96376 23.3644 9.94711 23.3185 9.8888C23.3102 9.88047 23.2852 9.82632 23.2394 9.71803C23.2311 9.67222 23.2311 9.59725 23.2311 9.49729C23.2311 9.17659 23.3019 8.86839 23.4393 8.56851C23.406 8.79342 23.3727 9.02249 23.3394 9.2474C23.3394 9.35568 23.3519 9.43898 23.3727 9.50146C23.3977 9.56393 23.4477 9.61808 23.5268 9.66806L23.6559 9.37651H23.7059H23.71ZM25.5884 11.8463C25.5884 12.0546 25.5468 12.242 25.4635 12.4169C25.3802 12.5918 25.2511 12.7293 25.0803 12.8376C25.1011 12.7959 25.1719 12.6918 25.3011 12.5169C25.401 12.3836 25.451 12.267 25.451 12.167C25.451 12.0879 25.426 12.0087 25.3719 11.9254C25.3385 11.9046 25.2969 11.9046 25.2469 11.9254C25.1969 11.9463 25.1636 11.9796 25.1511 12.0254C25.1386 11.9379 25.1511 11.8588 25.2011 11.7838C25.2469 11.7089 25.2969 11.6589 25.351 11.6339C25.4177 11.6214 25.4718 11.6339 25.5093 11.6797C25.5509 11.7214 25.5759 11.7797 25.5884 11.8463ZM16.0133 3.44981C15.9924 3.49146 15.9841 3.52895 15.9841 3.5706C15.9841 3.61641 16.0049 3.67888 16.0424 3.74969C16.0841 3.82466 16.1007 3.8788 16.1007 3.92045C16.1007 3.97876 16.0632 4.0329 15.9924 4.07872C15.88 4.09121 15.7675 4.18701 15.6509 4.35777C15.5051 4.57851 15.3927 4.71595 15.3219 4.76593C15.1969 4.9117 15.0512 5.04498 14.8929 5.16576C14.7804 5.2449 14.518 5.40733 14.1016 5.64473C14.1682 5.58642 14.3973 5.39484 14.7929 5.07414C15.2927 4.66597 15.6218 4.29946 15.7842 3.96626C15.7592 3.94127 15.6717 3.89963 15.526 3.84548C15.3802 3.79134 15.3052 3.7247 15.3052 3.64556C15.3052 3.62057 15.3135 3.57893 15.3344 3.52062C15.3552 3.46231 15.3927 3.40816 15.4552 3.35402C15.4676 3.34152 15.5634 3.27905 15.7467 3.17493C15.8342 3.1541 15.8966 3.17493 15.9383 3.24573C15.9799 3.33736 16.0049 3.404 16.0174 3.44565L16.0133 3.44981ZM16.3923 5.30737C16.284 5.24906 16.1757 5.18242 16.0674 5.11579C15.9591 5.04915 15.8508 5.00333 15.7425 4.97418C15.6509 5.06581 15.5676 5.16993 15.501 5.28238C15.4801 5.3157 15.426 5.42399 15.3302 5.61141C15.451 5.68638 15.5634 5.74469 15.6634 5.79467C15.7675 5.84465 15.8758 5.89046 15.9883 5.92795C16.1632 5.71554 16.2965 5.50312 16.3881 5.29904L16.3923 5.30737ZM16.9712 5.93628C16.8712 5.84465 16.7796 5.76968 16.6921 5.71554C16.6047 5.66139 16.513 5.62391 16.4131 5.60725C16.2465 5.93211 16.0591 6.09871 15.855 6.09871C15.73 6.09871 15.5676 6.0404 15.376 5.91962C15.2844 5.98626 15.2178 6.04873 15.1844 6.1112C15.1511 6.16951 15.0886 6.32362 14.9928 6.56935C15.0845 6.64431 15.1844 6.70262 15.2886 6.74427C15.3927 6.78592 15.4926 6.82757 15.5926 6.86922C15.6509 6.80258 15.7092 6.72345 15.7634 6.62766C15.8758 6.43607 15.9591 6.31112 16.0133 6.25698L16.5547 6.56518C16.6422 6.46522 16.7171 6.36526 16.7838 6.26531C16.8254 6.19867 16.8879 6.09038 16.9754 5.93628H16.9712ZM13.4227 4.65764C13.4227 4.83257 13.3852 4.97418 13.3144 5.08663C13.2602 5.10746 13.2061 5.09496 13.1436 5.05748C13.0853 5.01583 13.0437 4.96585 13.0228 4.89921C12.9895 4.82424 12.9729 4.74094 12.9729 4.64931C12.9729 4.52853 13.0103 4.38692 13.0811 4.22032C13.1395 4.10787 13.1811 4.02457 13.2019 3.97043C13.1936 4.01624 13.1728 4.09954 13.1353 4.22032C13.0978 4.34111 13.0811 4.42857 13.0811 4.47855C13.0811 4.55352 13.0978 4.62016 13.1311 4.67847L13.2811 4.83673L13.4227 4.65764ZM13.2436 7.20658C13.2561 7.28571 13.2519 7.36901 13.2352 7.45648C13.2144 7.54394 13.1686 7.61474 13.0936 7.66472C13.027 7.66472 12.9729 7.63557 12.9354 7.58142C12.8937 7.52312 12.8646 7.45648 12.8437 7.38151C12.8229 7.30654 12.8146 7.22324 12.8146 7.13578C12.8146 7.02749 12.8312 6.9192 12.8687 6.80675C12.9062 6.69429 12.9562 6.58184 13.0228 6.47772C13.002 6.53603 12.9812 6.611 12.9645 6.69846C12.9437 6.78592 12.9354 6.86089 12.9354 6.92753C12.9354 7.10662 12.9895 7.26072 13.0936 7.38567C13.1353 7.38567 13.1686 7.35652 13.1936 7.30237C13.2186 7.24406 13.2352 7.21491 13.2436 7.20658ZM16.3215 11.8255C16.2965 11.9338 16.2715 12.0379 16.2507 12.1462C16.209 12.2711 16.1382 12.3586 16.0299 12.4044C15.9758 12.4169 15.9341 12.4044 15.9008 12.3753C15.8425 12.2753 15.8008 12.2087 15.78 12.1753C15.7675 12.0962 15.7592 12.0379 15.7592 12.0046C15.7592 11.863 15.7925 11.713 15.8592 11.5506C15.9258 11.3882 15.9924 11.2341 16.0591 11.0841C16.0591 11.1508 16.0424 11.2341 16.0091 11.334C15.93 11.5756 15.8883 11.7297 15.8883 11.8047C15.8883 11.8463 15.8925 11.888 15.905 11.9379C15.9133 11.9879 15.9508 12.0462 16.0091 12.1129C16.0632 12.1212 16.109 12.1045 16.1507 12.0629C16.1923 12.0212 16.2173 11.9754 16.2298 11.9213C16.2215 11.9088 16.2382 11.8755 16.2798 11.8213H16.3215V11.8255ZM11.6734 4.12037L11.6151 4.34944C11.5484 4.30779 11.5026 4.27863 11.4735 4.25781C11.4193 4.21616 11.3652 4.212 11.3152 4.23698C11.2361 4.34527 11.1819 4.51603 11.1486 4.7576C11.1153 4.99917 11.0861 5.25739 11.0528 5.53644C11.1736 5.60308 11.2694 5.66139 11.3444 5.71554C11.4443 5.79467 11.5193 5.8863 11.5651 5.98626C11.5318 6.11953 11.3402 6.20283 10.9945 6.23615C10.6488 6.26947 10.4614 6.39442 10.4364 6.61516C10.5822 7.46897 10.7321 8.31862 10.8862 9.1641C10.8862 9.53061 10.8696 9.79717 10.8321 9.96793C10.7946 10.1387 10.7321 10.3178 10.6488 10.501C10.7155 10.3095 10.7571 10.0845 10.7738 9.83049C10.7904 9.57643 10.7988 9.42232 10.7988 9.35985C10.7988 9.05165 10.7529 8.69763 10.6572 8.28946C10.4364 7.33569 10.3281 6.73178 10.3281 6.48188C10.3281 6.33611 10.4031 6.21533 10.5489 6.1237C10.6488 6.05706 10.7863 5.99875 10.957 5.95294C10.982 5.96543 11.0153 5.96127 11.057 5.94461C11.0986 5.92378 11.1195 5.91545 11.1278 5.91545C11.0528 5.84048 10.9695 5.80716 10.8779 5.80716C10.8362 5.80716 10.7988 5.81549 10.7571 5.83632L10.5864 5.98626C10.5739 5.96127 10.5739 5.92378 10.5864 5.87797C10.6322 5.78634 10.6613 5.7197 10.6655 5.67805L10.9154 5.50729C10.8696 5.45314 10.7779 5.27822 10.6447 4.97834C10.5447 4.75344 10.4198 4.63682 10.274 4.63682C10.249 4.63682 10.2073 4.64515 10.1532 4.65764C10.0782 4.62432 10.0449 4.56601 10.0449 4.47855C10.0449 4.4369 10.0532 4.37859 10.0699 4.30362C10.0866 4.22865 10.0949 4.18284 10.0949 4.17035C10.1199 4.10371 10.1615 4.07039 10.2157 4.07039C10.2407 4.07039 10.2698 4.07872 10.2948 4.09121C10.3198 4.10371 10.3406 4.1162 10.3531 4.12037C10.4531 4.22032 10.5447 4.34944 10.6238 4.51187C10.7363 4.74511 10.8529 4.97418 10.9737 5.20325C11.0195 4.89504 11.0528 4.65764 11.0736 4.48272C11.1195 4.15785 11.2153 3.99125 11.3652 3.99125C11.4568 3.99125 11.5609 4.0329 11.6734 4.12037ZM17.3002 8.63932C17.2086 8.61849 17.1253 8.61016 17.0503 8.61016C16.8629 8.61016 16.6422 8.68513 16.3798 8.8309C15.8467 9.13078 15.4801 9.28072 15.2802 9.28072C15.2011 9.28072 15.122 9.27239 15.0387 9.25156C14.8804 9.19742 14.7554 9.09746 14.6721 8.94752C14.5888 8.79758 14.5389 8.63099 14.518 8.44356C14.4306 8.50187 14.3598 8.60183 14.2973 8.74344C14.2098 8.94336 14.1557 9.05581 14.139 9.08496L14.5472 10.5135C14.0682 10.8884 13.481 11.2299 12.7896 11.5423C12.3648 11.7339 11.7317 11.9796 10.8904 12.2711C10.0491 12.5627 9.42017 12.8084 8.99951 13C9.35353 12.9459 9.72004 12.8917 10.1032 12.8334C10.4864 12.7751 10.8279 12.7501 11.1278 12.7501C12.4356 12.2961 13.2186 12.0004 13.4768 11.8588C14.3348 11.3923 14.8346 10.7676 14.9762 9.98875C15.1428 9.94711 15.426 9.83465 15.8258 9.64723C16.1799 9.48896 16.4672 9.38067 16.6963 9.32653C16.8421 9.35152 16.917 9.41399 16.917 9.50562C16.917 9.55144 16.8587 9.66389 16.7463 9.84715C16.6338 10.0262 16.5922 10.1637 16.6255 10.2553C16.8254 10.0679 16.992 9.8763 17.1253 9.67638C17.2836 9.43065 17.3669 9.20158 17.3669 8.98501C17.3669 8.85173 17.3419 8.73511 17.2961 8.63515L17.3002 8.63932ZM15.78 3.6289V3.52895C15.78 3.4748 15.755 3.44981 15.7009 3.44981C15.6259 3.44981 15.5759 3.4748 15.5509 3.52895L15.78 3.6289ZM21.386 10.1845C21.3319 10.4427 21.1528 10.6551 20.8446 10.8134C20.6697 10.905 20.3864 11.005 19.9949 11.105C19.92 11.1258 19.8492 11.1341 19.7742 11.1341C19.6534 11.1341 19.541 11.1175 19.441 11.08C19.3369 11.0425 19.2286 10.9925 19.1161 10.9259C18.8704 10.6468 18.7246 10.2553 18.683 9.75552C18.6413 9.25573 18.5997 8.77676 18.5664 8.31445C18.7913 8.50604 19.1036 8.70596 19.4951 8.90587C20.2948 9.31404 20.8154 9.63057 21.0528 9.86381C21.0778 9.89713 21.1486 9.96376 21.2611 10.0637C21.3152 10.1095 21.3527 10.1512 21.3819 10.1845H21.386Z" fill="currentColor"/>
</svg>
