<svg width="40" height="16" viewBox="0 0 40 16" fill="none" xmlns="http://www.w3.org/2000/svg">
<path fill-rule="evenodd" clip-rule="evenodd" d="M28.0795 5.28999L27.7395 4.89C27.7345 4.95 27.7295 5.01499 27.7295 5.07999V5.23999C27.7295 5.50499 27.7645 5.92999 27.8395 6.50999C27.9145 7.08999 27.9495 7.52999 27.9495 7.82999V8.2C27.9495 8.905 27.9095 9.42 27.8345 9.735C27.7595 10.05 27.6345 10.345 27.4595 10.61C27.5395 10.415 27.5945 10.21 27.6295 9.985C27.6645 9.76 27.6795 9.51999 27.6795 9.25999C27.6795 9.15999 27.6795 9.05999 27.6795 8.95999C27.6795 8.85999 27.6595 8.68 27.6345 8.42L27.2745 4.39C27.2945 4.325 27.2895 4.24999 27.2545 4.17499C27.2195 4.09999 27.1895 4.025 27.1645 3.95C27.1995 3.885 27.2445 3.78499 27.3095 3.64999C27.3745 3.51499 27.4295 3.42 27.4845 3.36C27.6095 3.675 27.7395 3.98499 27.8745 4.28999C28.0145 4.66499 28.0845 4.99499 28.0845 5.28999H28.0795ZM23.8995 4.82999L23.7995 4.95999L23.6695 4.84999C23.5695 5.05499 23.3995 5.26499 23.1595 5.46999C23.0645 5.54999 22.8445 5.71499 22.4995 5.95999C22.5795 5.86499 22.7645 5.685 23.0595 5.42C23.3145 5.195 23.4795 4.99499 23.5595 4.82999C23.5395 4.80499 23.4795 4.755 23.3745 4.685C23.2695 4.615 23.2095 4.54999 23.1895 4.48999C23.2495 4.35499 23.2945 4.26499 23.3295 4.20999C23.3945 4.11499 23.4845 4.055 23.5895 4.03C23.6445 4.05 23.6895 4.08999 23.7295 4.14999C23.7695 4.20999 23.7945 4.26999 23.7995 4.32999C23.7795 4.38499 23.7695 4.42499 23.7695 4.45999C23.7695 4.50499 23.7945 4.56499 23.8495 4.62999C23.9045 4.69499 23.9195 4.76499 23.8995 4.82999ZM21.8495 3.42C21.7845 3.54 21.6845 3.64499 21.5495 3.73999C21.4545 3.80499 21.3245 3.87999 21.1595 3.95999C20.9945 4.03999 20.8245 4.11999 20.6595 4.19499C20.4945 4.26999 20.3645 4.34999 20.2695 4.42999C20.3295 4.29499 20.4145 4.18499 20.5295 4.09499C20.6445 4.00499 20.7895 3.92 20.9695 3.84C21.2645 3.7 21.5545 3.56 21.8495 3.42ZM22.3395 5.03C22.2545 4.985 22.2095 4.93 22.2095 4.87C22.2095 4.85 22.2395 4.785 22.2995 4.67C22.3245 4.615 22.3395 4.57499 22.3395 4.53999C22.3395 4.49999 22.3245 4.45499 22.2995 4.40999C22.2745 4.36499 22.2495 4.31499 22.2295 4.26999C22.1895 4.19499 22.1245 4.16999 22.0395 4.18999C21.9445 4.21499 21.8595 4.26999 21.7795 4.34999C21.6995 4.42999 21.6495 4.515 21.6295 4.61C21.6495 4.69 21.6995 4.765 21.7795 4.84C21.8245 4.88 21.8945 4.93999 21.9895 5.01999C21.8845 5.15499 21.7245 5.29999 21.5195 5.45999C21.0995 5.78499 20.8445 6.005 20.7595 6.12C21.0345 5.945 21.2645 5.78999 21.4495 5.64999C21.7045 5.46499 21.9195 5.285 22.0995 5.12C22.1345 5.125 22.1545 5.14999 22.1695 5.19499C22.1845 5.23999 22.2045 5.25999 22.2295 5.25999C22.3295 5.19999 22.3645 5.125 22.3395 5.03ZM27.4595 10.93C27.2745 11.105 27.0745 11.235 26.8695 11.325C26.6645 11.415 26.4345 11.46 26.1895 11.46C26.0045 11.395 25.9095 11.335 25.9095 11.28C25.9095 11.24 26.0095 11.165 26.2145 11.05C26.4195 10.935 26.5145 10.825 26.4995 10.71C26.4195 10.655 26.3495 10.615 26.2895 10.59C26.2295 10.565 26.1645 10.55 26.0895 10.55C26.0295 10.57 25.9745 10.61 25.9295 10.665C25.8845 10.72 25.8695 10.77 25.8895 10.81C25.9245 10.77 25.9545 10.75 25.9795 10.75C26.0195 10.75 26.0645 10.765 26.1195 10.8C26.1445 10.815 26.1845 10.835 26.2295 10.87C26.0745 10.95 25.9645 11.03 25.8895 11.11C25.7845 11.225 25.7295 11.34 25.7295 11.46C25.7445 11.515 25.7745 11.56 25.8245 11.6C25.8745 11.64 25.9245 11.665 25.9795 11.68C26.0145 11.68 26.0595 11.68 26.1195 11.69C26.3845 11.69 26.6445 11.62 26.8895 11.475C27.1345 11.33 27.3245 11.15 27.4595 10.93ZM21.7195 7.04999L21.6295 7.25C21.6295 7.25 21.5695 7.23999 21.5095 7.21999C21.4495 7.19999 21.4045 7.18999 21.3695 7.18999C21.2845 7.18999 21.2345 7.23499 21.2295 7.32999C21.2045 7.59499 21.1445 7.86499 21.0595 8.12999C21.0045 8.08999 20.9395 7.97 20.8545 7.765C20.7695 7.56 20.6645 7.46999 20.5295 7.48999C20.4895 7.45499 20.4695 7.415 20.4695 7.36C20.4695 7.325 20.4795 7.285 20.4945 7.235C20.5095 7.185 20.5345 7.125 20.5595 7.06C20.6795 7.06 20.7845 7.145 20.8695 7.31C20.9645 7.525 21.0295 7.67 21.0695 7.75C21.1295 7.445 21.1645 7.27999 21.1695 7.25999C21.2295 7.08499 21.3345 6.97499 21.4895 6.92999C21.5295 6.92999 21.5695 6.94499 21.6045 6.96999C21.6395 6.99499 21.6795 7.02499 21.7195 7.04999ZM17.2395 4.17C17.2545 4.335 17.2245 4.44999 17.1595 4.50999C17.1195 4.52999 17.0745 4.52499 17.0295 4.48999C16.9845 4.45499 16.9495 4.415 16.9295 4.37C16.9095 4.325 16.8995 4.26499 16.8995 4.18999C16.8995 4.08999 16.9145 4.005 16.9395 3.935C16.9645 3.865 17.0145 3.76499 17.0795 3.62999C17.0845 3.67499 17.0745 3.755 17.0445 3.86C17.0145 3.965 16.9995 4.03499 16.9995 4.06999C16.9995 4.16999 17.0545 4.23499 17.1595 4.26999C17.1745 4.22499 17.1845 4.19 17.1995 4.17H17.2395ZM19.5395 5.03C19.4745 5.01 19.4095 4.955 19.3495 4.87C19.2645 4.75 19.2045 4.67499 19.1695 4.64999L19.1195 4.75C19.1195 5.085 19.1645 5.52499 19.2495 6.06999C19.3695 6.82499 19.4395 7.29499 19.4545 7.48999C19.4695 7.68499 19.4795 7.895 19.4795 8.12C19.4795 8.495 19.4495 8.825 19.3845 9.12C19.3195 9.415 19.2045 9.70499 19.0295 9.98999C19.0845 9.82499 19.1245 9.62999 19.1495 9.40999C19.1745 9.18999 19.1895 8.98499 19.1895 8.79999C19.1895 8.42499 19.1545 7.995 19.0795 7.5C18.9045 6.34 18.8195 5.62 18.8195 5.34C18.7645 5.08 18.7245 4.83999 18.6945 4.61499C18.6645 4.38999 18.6495 4.17 18.6495 3.95V3.75C18.6645 3.69 18.6695 3.64999 18.6695 3.62999C18.6845 3.61499 18.7145 3.55999 18.7695 3.45499C18.8245 3.34999 18.8745 3.295 18.9195 3.28C18.9595 3.385 19.0545 3.59499 19.2095 3.90999C19.4295 4.36499 19.5395 4.735 19.5395 5.03ZM23.5595 11.66C23.4945 11.805 23.4395 11.91 23.3995 11.97C23.3245 12.075 23.2395 12.16 23.1395 12.22C23.1045 12.185 23.0245 12.135 22.8995 12.07C22.6945 11.965 22.6145 11.855 22.6595 11.74C22.6845 11.72 22.7445 11.64 22.8395 11.5C22.9045 11.395 22.9745 11.34 23.0495 11.34C23.0895 11.34 23.1195 11.345 23.1395 11.36L23.5595 11.66ZM27.3995 7.98C26.9395 7.935 26.4845 7.86499 26.0395 7.76999C25.5945 7.67499 25.1545 7.56499 24.7295 7.42999C24.8345 7.26499 24.9095 7.08999 24.9545 6.90999C24.9995 6.72999 25.0195 6.53499 25.0195 6.31999C25.0195 6.14499 24.9595 5.69499 24.8395 4.96999C24.7945 4.68999 24.7695 4.43499 24.7695 4.20999C24.8095 4.24999 24.8695 4.31499 24.9445 4.40999C25.0195 4.50499 25.0845 4.565 25.1295 4.59C25.1295 4.335 25.0245 3.99999 24.8095 3.57999C24.6895 3.33999 24.5995 3.145 24.5395 3L24.2595 3.45999C24.2595 3.80499 24.3045 4.24499 24.3995 4.76999C24.5995 5.90499 24.6995 6.63 24.6995 6.95C24.4745 7.025 24.2295 7.06999 23.9745 7.09499C23.7195 7.11999 23.4195 7.12999 23.0795 7.12999H22.8395C22.7245 7.33499 22.6445 7.545 22.5995 7.75C22.8995 7.775 23.2195 7.82499 23.5545 7.89499C23.8895 7.96499 24.2045 8.04499 24.4895 8.12999C24.1495 8.21499 23.7845 8.30499 23.3945 8.39499C23.0045 8.48499 22.5945 8.57999 22.1595 8.67999C21.6545 8.81499 21.3345 9.06499 21.2095 9.43999C21.5545 9.43999 21.9245 9.48499 22.3195 9.57999C22.6245 9.65499 22.9695 9.755 23.3495 9.89C22.2695 10.045 21.5595 10.16 21.2195 10.24C20.7745 10.345 20.3795 10.485 20.0395 10.65C20.0195 10.655 19.4345 11.115 18.2795 12.02C17.8795 12.335 17.4845 12.49 17.0995 12.49C16.9995 12.455 16.9095 12.41 16.8245 12.345C16.7395 12.28 16.6795 12.205 16.6395 12.12C16.6345 12.075 16.6295 12.005 16.6295 11.91C16.6295 11.565 16.7295 11.21 16.9295 10.85C17.0745 10.585 17.2945 10.285 17.5895 9.95C17.5945 9.935 17.7295 9.79499 17.9895 9.51999C18.1645 9.33499 18.2495 9.17499 18.2495 9.03999C18.2495 8.97499 18.2345 8.915 18.2095 8.86C18.0745 8.825 17.9145 8.81 17.7295 8.81C17.4645 8.81 17.1445 8.86499 16.7695 8.96999C15.7745 9.25499 15.2545 9.40499 15.2095 9.40999C14.9645 9.45499 14.7195 9.50499 14.4795 9.54999C13.9445 9.64999 13.5195 9.7 13.1995 9.7C12.8395 9.7 12.5245 9.64999 12.2595 9.54999C11.9445 9.42999 11.6895 9.245 11.4895 9C11.4145 8.815 11.3795 8.61499 11.3795 8.39999C11.3795 8.04499 11.4645 7.71499 11.6395 7.40999C11.6845 7.42999 11.7345 7.44499 11.7795 7.45999C11.8245 7.47499 11.8745 7.47499 11.9295 7.46999C12.1295 7.37499 12.2745 7.23499 12.3595 7.04999C12.4445 6.86499 12.4895 6.64999 12.4895 6.40999H12.4495C12.4495 6.40999 12.4145 6.44499 12.4045 6.47499C12.3945 6.50499 12.3845 6.52999 12.3695 6.54999C12.3245 6.68999 12.2245 6.76999 12.0695 6.78999C11.9495 6.68499 11.8695 6.57999 11.8245 6.47499C11.7795 6.36999 11.7595 6.25 11.7595 6.11C11.7595 5.895 11.8445 5.62 12.0095 5.28C12.2295 4.835 12.3495 4.57499 12.3695 4.50999C12.1295 4.85499 11.9645 5.09999 11.8795 5.23999C11.5795 5.74499 11.4295 6.20999 11.4295 6.62999C11.4295 6.87499 11.4695 7.09499 11.5495 7.28999C11.2695 7.84499 11.0845 8.435 10.9995 9.06C10.9995 9.275 11.0445 9.47 11.1395 9.655C11.2345 9.84 11.3695 9.96999 11.5495 10.05C11.7895 10.155 12.0145 10.23 12.2295 10.27C12.4445 10.31 12.6795 10.33 12.9395 10.33C13.1745 10.33 13.3945 10.315 13.5995 10.285C13.8045 10.255 14.0495 10.21 14.3295 10.15C15.2245 9.89499 16.1195 9.63999 17.0195 9.37999C17.0645 9.37999 17.1395 9.375 17.2395 9.36C17.3395 9.345 17.4145 9.34 17.4595 9.34C17.5395 9.34 17.6045 9.35 17.6595 9.375C17.7145 9.4 17.7545 9.44499 17.7895 9.50999C17.6845 9.62499 17.4095 9.815 16.9695 10.09C16.6145 10.31 16.3945 10.535 16.2995 10.77C16.6345 10.575 16.9645 10.385 17.2995 10.19L16.8195 10.85C16.7645 10.97 16.6695 11.175 16.5295 11.47C16.4245 11.725 16.3695 11.945 16.3695 12.13C16.3695 12.265 16.3895 12.38 16.4345 12.48C16.4795 12.58 16.5545 12.675 16.6595 12.76C16.8445 12.92 17.0445 13 17.2595 13C17.3845 13 17.5195 12.97 17.6545 12.91C17.7895 12.85 17.9295 12.765 18.0695 12.66C18.1245 12.62 18.3845 12.385 18.8595 11.96C19.0245 11.805 19.1795 11.685 19.3195 11.6C19.7445 11.335 20.1945 11.125 20.6645 10.97C21.1345 10.815 21.6445 10.7 22.1895 10.62C22.7345 10.54 23.2845 10.48 23.8295 10.435C24.3745 10.39 24.8945 10.37 25.3895 10.37C25.4495 10.295 25.5095 10.22 25.5695 10.14C25.6845 9.98 25.7395 9.83999 25.7395 9.71999C25.2995 9.71999 24.7045 9.59499 23.9495 9.34999C23.4845 9.19499 23.1395 9.09499 22.9195 9.03999C23.6245 8.86499 24.1145 8.755 24.3895 8.7C24.9345 8.6 25.4445 8.54999 25.9095 8.54999C26.2545 8.54999 26.6045 8.58 26.9595 8.64L27.3995 7.98ZM14.9495 3.64999C14.9545 3.70499 14.9495 3.75499 14.9345 3.80499C14.9195 3.85499 14.8895 3.875 14.8495 3.86C14.8095 3.82 14.7845 3.795 14.7695 3.78C14.7345 3.745 14.7045 3.72499 14.6695 3.71999C14.6545 3.89499 14.6445 4.065 14.6395 4.23C14.6195 4.425 14.5695 4.57499 14.4895 4.68999C14.4345 4.65499 14.3645 4.53499 14.2745 4.32999C14.1845 4.12499 14.0745 4.03499 13.9395 4.06999C13.8745 4.03499 13.8395 3.98499 13.8395 3.90999C13.8395 3.86999 13.8495 3.82499 13.8695 3.77499C13.8895 3.72499 13.9045 3.67999 13.9195 3.64499C13.9345 3.60999 13.9545 3.59499 13.9895 3.59999C14.0245 3.60499 14.0545 3.61 14.0795 3.61C14.1595 3.695 14.2445 3.83 14.3295 4.015C14.4145 4.2 14.4845 4.325 14.5295 4.39V4.01999C14.5295 3.89999 14.5345 3.78999 14.5495 3.69499C14.5645 3.59999 14.5945 3.505 14.6395 3.42C14.7045 3.42 14.7645 3.44499 14.8195 3.48999C14.8445 3.50999 14.8895 3.56499 14.9495 3.64999ZM17.3995 7.12999C17.3445 7.32999 17.3195 7.43499 17.3195 7.43999C17.2795 7.51499 17.2245 7.565 17.1595 7.59C17.1195 7.595 17.0845 7.575 17.0595 7.53C17.0345 7.485 17.0145 7.455 16.9995 7.45C16.9945 7.415 16.9895 7.36499 16.9895 7.28999C16.9895 7.16999 17.0145 7.03999 17.0595 6.89999C17.1245 6.73499 17.1745 6.61 17.1995 6.53C17.2045 6.585 17.1895 6.675 17.1545 6.81C17.1195 6.945 17.0995 7.03999 17.0995 7.09999C17.0995 7.21499 17.1445 7.28999 17.2395 7.32999C17.2945 7.26499 17.3445 7.19499 17.3995 7.12999ZM16.1595 5.89999C16.1595 5.89999 16.0745 6.03499 15.9695 6.23999C15.8945 6.37999 15.8095 6.45 15.7095 6.45L15.1495 6.12C15.0895 6.16 15.0395 6.23499 14.9945 6.34999C14.9495 6.46499 14.9045 6.545 14.8495 6.59C14.6495 6.55 14.5195 6.51499 14.4595 6.48999C14.3195 6.42999 14.2445 6.35499 14.2295 6.25999C14.2945 6.13999 14.3445 6.055 14.3795 6C14.4395 5.895 14.5045 5.81499 14.5695 5.75999C14.7745 5.84499 14.9845 5.93499 15.1895 6.01999L15.6595 5.57999C15.6595 5.57999 15.7745 5.64499 15.9895 5.75999C16.0695 5.80499 16.1245 5.85499 16.1595 5.89999ZM13.5195 5.43999C13.5395 5.51499 13.5345 5.58999 13.5045 5.66499C13.4745 5.73999 13.4245 5.81499 13.3595 5.87999C13.2995 5.88499 13.2495 5.865 13.2095 5.81C13.1695 5.735 13.1395 5.68499 13.1195 5.65999C13.1195 5.49999 13.1395 5.34999 13.1745 5.20999C13.2095 5.06999 13.2645 4.925 13.3395 4.78C13.3395 4.825 13.3245 4.91499 13.2895 5.03999C13.2545 5.16499 13.2395 5.26499 13.2395 5.32999C13.2395 5.46499 13.2945 5.56 13.3995 5.62L13.5195 5.43999ZM14.4395 7.87999C14.4345 7.95499 14.4245 8.01499 14.4095 8.06999C14.3945 8.12499 14.3545 8.12499 14.2895 8.07999C14.1845 8.04499 14.1245 8.03 14.1195 8.03C14.0445 8.315 13.9745 8.59999 13.8995 8.87999C13.8245 8.84499 13.7345 8.71999 13.6245 8.50499C13.5145 8.28999 13.3845 8.19499 13.2395 8.21999C13.1995 8.17999 13.1795 8.13999 13.1795 8.09999C13.1795 8.07499 13.1945 8.02999 13.2195 7.96999C13.2445 7.90999 13.2595 7.86499 13.2595 7.82999C13.2945 7.79499 13.3295 7.78 13.3695 7.78C13.3945 7.78 13.4295 7.795 13.4695 7.825C13.5095 7.855 13.5945 8.00999 13.7195 8.28999C13.7745 8.40499 13.8145 8.45999 13.8495 8.45999C13.8845 8.45999 13.9145 8.43499 13.9395 8.37999C13.9595 8.17999 13.9745 8.065 13.9795 8.03C14.0145 7.895 14.0845 7.815 14.1895 7.78C14.2945 7.78 14.3795 7.81499 14.4395 7.87999ZM23.6295 4.48999C23.6145 4.42999 23.5945 4.385 23.5645 4.355C23.5345 4.325 23.5045 4.31 23.4695 4.31C23.4445 4.31 23.4145 4.32499 23.3895 4.34999C23.4695 4.44499 23.5495 4.48999 23.6295 4.48999ZM22.1295 4.75C22.1045 4.735 22.0595 4.70499 21.9995 4.64999C21.9745 4.62499 21.9295 4.585 21.8695 4.53C21.9045 4.47 21.9345 4.43999 21.9595 4.43999C21.9845 4.43999 22.0195 4.46499 22.0595 4.51999C22.0995 4.57499 22.1245 4.62999 22.1295 4.68999V4.75Z" fill="currentColor"/>
</svg>
