<svg width="40" height="16" viewBox="0 0 40 16" fill="none" xmlns="http://www.w3.org/2000/svg">
<path fill-rule="evenodd" clip-rule="evenodd" d="M27.7453 5.22083C27.6703 5.25416 27.587 5.2125 27.4953 5.1C27.4037 4.9875 27.3412 4.92916 27.3162 4.92916C27.2828 4.92916 27.2453 4.96667 27.2078 5.0375C27.2078 5.48333 27.2578 6.00416 27.3578 6.59583C27.5912 7.98333 27.7078 8.84583 27.7078 9.1875C27.7078 9.54583 27.6912 9.87916 27.662 10.1833C27.6328 10.4875 27.5703 10.7833 27.4787 11.0792C27.4787 10.3125 27.4328 9.52083 27.337 8.7C27.2787 8.175 27.162 7.39166 26.987 6.35C26.8537 5.57083 26.7245 4.79167 26.5953 4.00833C26.6412 3.86667 26.687 3.74999 26.737 3.65833C26.7828 3.56666 26.8453 3.47083 26.9287 3.37916C27.187 3.9375 27.3328 4.24583 27.3578 4.3C27.4912 4.59166 27.6203 4.89999 27.7495 5.22083H27.7453ZM24.4453 3C24.437 3.04583 24.4162 3.09167 24.3745 3.14167C24.3328 3.1875 24.2662 3.23333 24.1745 3.28333C23.1995 3.6625 22.2328 4.04167 21.2662 4.4125C21.2912 4.325 21.3328 4.25 21.387 4.1875C21.4412 4.125 21.5078 4.07917 21.587 4.05417C22.5412 3.70833 23.4953 3.35833 24.4453 3.00416V3ZM23.8453 4.77916C23.8787 4.67916 23.8953 4.57916 23.8953 4.47916C23.8953 4.37916 23.887 4.29583 23.8662 4.22917C23.8453 4.1625 23.8078 4.10416 23.7578 4.05C23.7328 4.10416 23.7162 4.1625 23.7162 4.22917C23.7162 4.27083 23.7245 4.32916 23.737 4.40833C23.7495 4.4875 23.7578 4.54166 23.7578 4.56666H23.5787C23.5245 4.50833 23.4912 4.425 23.4787 4.31666C23.4662 4.20833 23.4537 4.10833 23.4495 4.00833C23.3912 4.05 23.3578 4.12917 23.3578 4.25C23.3578 4.325 23.3745 4.425 23.4078 4.55833C23.3828 4.625 23.3412 4.675 23.2912 4.70833C23.2412 4.74166 23.1828 4.75 23.1162 4.72916C23.0828 4.65416 23.0662 4.53749 23.0662 4.37499C23.0662 4.21249 23.0662 4.1125 23.0578 4.07917C23.0162 4.125 22.9912 4.17083 22.9828 4.20833C22.9745 4.25 22.9662 4.3125 22.9662 4.4C22.9662 4.45417 22.9662 4.53333 22.9745 4.64166C22.9745 4.72916 22.9662 4.79166 22.9537 4.83333C22.962 4.8875 22.9787 4.92916 23.012 4.9625C23.0703 5.02916 23.1495 5.04583 23.2412 5.01249C23.3328 4.96666 23.3995 4.8875 23.4412 4.78333L23.5328 4.85417C23.5745 4.86667 23.6078 4.875 23.6328 4.875C23.7203 4.875 23.7912 4.84583 23.8412 4.78333L23.8453 4.77916ZM23.887 5.9875C23.8453 6.02917 23.8037 6.1125 23.7537 6.2375C23.7037 6.3625 23.6453 6.45 23.5787 6.49583C23.3453 6.38333 23.1412 6.24583 22.9703 6.0875C23.0245 5.96666 23.0787 5.84583 23.1412 5.72916C23.2203 5.59583 23.3162 5.52916 23.4328 5.52916C23.4537 5.55416 23.5537 5.62083 23.7328 5.72916C23.8537 5.80416 23.9078 5.8875 23.8912 5.9875H23.887ZM23.1787 7.40833C23.1995 7.44999 23.2078 7.4875 23.2078 7.52916C23.2078 7.57083 23.1912 7.61667 23.162 7.675C23.1328 7.73333 23.112 7.775 23.0953 7.8C23.0537 7.85416 23.0037 7.87916 22.9453 7.87916C22.912 7.87916 22.8787 7.87083 22.8453 7.85C22.7912 7.75 22.7662 7.64166 22.7662 7.52083C22.7662 7.3875 22.7912 7.24583 22.8453 7.1C22.9245 6.92083 22.9828 6.79166 23.0162 6.70833C23.0245 6.7625 22.9953 6.89583 22.937 7.10833C22.9037 7.22083 22.887 7.30833 22.887 7.36666C22.887 7.49166 22.9495 7.57083 23.0787 7.59583C23.087 7.57083 23.0995 7.5375 23.1245 7.49583C23.1495 7.45416 23.1662 7.425 23.1787 7.40416V7.40833ZM20.0995 4.1C19.9787 4.40833 19.812 4.675 19.5995 4.9C19.3328 5.17917 19.0578 5.32083 18.7787 5.32083C18.7328 5.29583 18.6703 5.29583 18.5953 5.32083C18.5203 5.34583 18.462 5.3625 18.4203 5.3625C18.6953 5.22083 18.8953 5.12083 19.0287 5.05416C19.2745 4.92916 19.4537 4.79583 19.5703 4.6625C19.4912 4.64166 19.4037 4.625 19.3037 4.6125C19.2078 4.6 19.1078 4.59166 19.0078 4.59166C18.7203 4.59166 18.4912 4.65417 18.3162 4.78333C18.462 4.5375 18.5828 4.36667 18.6745 4.275C18.8412 4.1 19.0287 4.01666 19.2328 4.01666C19.5453 4.01666 19.8328 4.04583 20.0912 4.10833L20.0995 4.1ZM21.0912 6.10833L21.0495 6.31666C21.0245 6.32916 20.9787 6.325 20.9162 6.29583C20.8537 6.27083 20.8037 6.27083 20.7703 6.29583C20.6787 6.38333 20.6203 6.54166 20.5953 6.77083C20.5703 6.99999 20.5412 7.15417 20.4995 7.225C20.4412 7.18333 20.3537 7.02916 20.2412 6.75416C20.1537 6.54583 20.0245 6.45416 19.8495 6.475C19.8412 6.45416 19.8412 6.41666 19.8412 6.36666C19.8412 6.24166 19.887 6.14167 19.9828 6.06667C20.1078 6.1125 20.212 6.22083 20.2912 6.3875C20.3495 6.54166 20.4162 6.69583 20.4828 6.84583C20.5287 6.65416 20.5662 6.50833 20.5912 6.41667C20.6453 6.25 20.7162 6.12083 20.812 6.025C20.9328 6 21.0245 6.025 21.0912 6.10417V6.10833ZM17.4828 4.2375C17.4912 4.29167 17.4828 4.35416 17.4662 4.42083C17.4495 4.49166 17.4245 4.5625 17.3912 4.6375C17.2995 4.68333 17.2328 4.70833 17.1912 4.70833C17.1662 4.70833 17.1328 4.7 17.0995 4.67917C17.0412 4.57917 17.0078 4.47083 17.0078 4.35833C17.0078 4.25833 17.0287 4.15 17.0662 4.02917C17.0662 4.02083 17.1078 3.92083 17.1953 3.72083C17.1953 3.775 17.1787 3.85833 17.1495 3.97083C17.1203 4.08333 17.1037 4.1625 17.1037 4.2C17.1037 4.30833 17.1453 4.39166 17.2245 4.45C17.2828 4.47083 17.3328 4.45 17.3703 4.4C17.4078 4.34583 17.4412 4.29166 17.4745 4.24166L17.4828 4.2375ZM17.862 7.1375C17.8745 7.17916 17.8745 7.225 17.862 7.27916C17.8495 7.33333 17.812 7.43333 17.7537 7.57916C17.6995 7.62083 17.6412 7.6375 17.5745 7.6375C17.5412 7.6375 17.512 7.625 17.4828 7.59583C17.3953 7.50833 17.3537 7.40416 17.3537 7.2875C17.3537 7.19583 17.3787 7.0875 17.4245 6.96666C17.4703 6.84583 17.5162 6.73333 17.5662 6.625C17.5662 6.66667 17.5537 6.7375 17.5245 6.84583C17.4995 6.95416 17.4828 7.03749 17.4828 7.09583C17.4828 7.21666 17.5245 7.30416 17.612 7.36666C17.6787 7.37916 17.7287 7.35833 17.762 7.3C17.7953 7.24166 17.8287 7.1875 17.862 7.13333V7.1375ZM25.8037 9.34583C25.5787 7.87916 25.3537 6.4125 25.1328 4.94583L25.212 4.80416C25.2703 4.84583 25.3453 4.9375 25.4328 5.08333C25.4995 5.20417 25.5662 5.26666 25.6328 5.275C25.487 4.7875 25.387 4.47083 25.3328 4.325C25.2078 3.96666 25.0745 3.65833 24.9412 3.40417C24.8662 3.51667 24.7995 3.62916 24.7328 3.74583C24.6453 3.89166 24.6037 4.02083 24.6037 4.125C24.6037 4.20417 24.6203 4.27916 24.6537 4.34583L25.5537 9.55416C25.412 9.6875 25.2703 9.79167 25.1287 9.8625C24.987 9.9375 24.8203 9.99583 24.6328 10.0417C24.5537 10.0542 24.4912 10.0625 24.4537 10.0625C24.3537 10.0625 24.2703 10.05 24.1995 10.0208C24.1287 9.99583 24.0662 9.94583 24.0037 9.87083C23.9787 9.825 23.962 9.775 23.962 9.72083C23.962 9.67916 23.9787 9.60416 24.0162 9.4875C24.0537 9.37083 24.0703 9.28333 24.0703 9.22083C23.8495 9.24166 23.5662 9.31666 23.2203 9.45C22.3537 9.775 21.887 9.94583 21.8203 9.95833C21.9537 9.84583 22.087 9.64583 22.2203 9.35833C22.3078 9.16666 22.3662 9.04166 22.3995 8.9875C22.3995 8.96666 22.3995 8.9375 22.4078 8.89583C22.4078 8.70833 22.2995 8.54583 22.0787 8.40417C21.887 8.3125 21.6953 8.21666 21.5078 8.12499C21.3745 8.06666 21.2412 8.02083 21.112 7.99583C20.9828 7.97083 20.8578 7.95417 20.737 7.95417C20.2495 7.95417 19.7287 8.19583 19.1787 8.68333C18.737 9.125 18.3037 9.55833 17.8703 9.99167C17.7245 10.0042 17.5703 9.925 17.412 9.75C17.0453 9.35 16.8203 9.14583 16.7328 9.13333C16.6453 9.125 16.5537 9.11666 16.4537 9.11666C16.087 9.11666 15.7287 9.20833 15.3828 9.38749C15.1078 9.52916 14.8078 9.75416 14.4745 10.0667C14.1203 10.4208 13.7662 10.775 13.4162 11.125C12.9953 11.5375 12.6203 11.8292 12.287 11.9958C12.2078 12.0375 12.1245 12.0542 12.037 12.0542C11.8287 12.0542 11.637 11.975 11.4578 11.8125C11.3162 11.6333 11.2495 11.4125 11.2495 11.1542C11.2495 10.9625 11.287 10.7708 11.3578 10.5833C11.3828 10.55 11.5287 10.2625 11.787 9.725C11.887 9.51667 11.9953 9.35833 12.1162 9.24583C12.2287 9.27083 12.3537 9.225 12.487 9.10416C12.587 8.98333 12.662 8.85416 12.7078 8.72083C12.7537 8.58333 12.7787 8.44166 12.7787 8.29583C12.7787 8.21666 12.7787 8.15417 12.7703 8.11667C12.737 8.10833 12.7162 8.12916 12.712 8.17083C12.7037 8.21249 12.6995 8.2375 12.6912 8.24583C12.6328 8.35417 12.5662 8.425 12.4995 8.4625C12.4328 8.5 12.3703 8.51249 12.3078 8.49583C12.187 8.36249 12.1078 8.2375 12.062 8.11667C12.0203 7.99583 11.9953 7.85417 11.9953 7.6875C11.9953 7.44167 12.062 7.14166 12.1953 6.7875C12.2703 6.59583 12.3745 6.32083 12.5162 5.96666C12.2828 6.3125 12.0953 6.65416 11.9578 6.9875C11.7828 7.40833 11.6995 7.79583 11.6995 8.14583C11.6995 8.3125 11.7245 8.4875 11.7703 8.67083C11.8162 8.85417 11.887 9.02083 11.9787 9.16666C11.8995 9.37916 11.7412 9.69166 11.5078 10.1C11.2745 10.5083 11.1203 10.8292 11.0495 11.0542C11.0162 11.1667 10.9995 11.2708 10.9995 11.3625C10.9995 11.5208 11.0328 11.6792 11.0953 11.8333C11.1578 11.9875 11.2453 12.125 11.3495 12.2417C11.4495 12.3 11.5578 12.3625 11.6703 12.425C11.7828 12.4875 11.8912 12.5208 11.9912 12.5208C12.0495 12.5208 12.1203 12.5042 12.1995 12.4708C12.5578 12.3167 12.987 12.0125 13.4787 11.55C14.1245 10.9417 14.5245 10.5833 14.6787 10.4708C15.2245 10.0583 15.7912 9.84999 16.3787 9.84999C16.5245 9.87499 16.6828 9.97916 16.8495 10.1583C16.937 10.2583 17.0662 10.4042 17.2412 10.6C17.187 10.6875 17.1578 10.7417 17.1495 10.7583C17.1245 10.8167 17.1245 10.8708 17.1495 10.9167C17.2078 10.9083 17.2662 10.8875 17.3245 10.8458C17.3828 10.8042 17.437 10.7667 17.4912 10.725C17.6328 10.7833 17.7787 10.8292 17.937 10.8542C18.0953 10.8792 18.2453 10.8958 18.3912 10.8958C18.9703 10.8208 19.5495 10.7458 20.1328 10.6667C20.6912 10.6667 21.2745 10.5875 21.8745 10.425C22.3328 10.3042 22.8578 10.1167 23.4453 9.86666C23.4662 9.86666 23.5037 9.86666 23.5537 9.85833C23.6745 9.85833 23.7453 9.9 23.7745 9.97917L23.7662 10.0083C23.7578 10.0417 23.7578 10.0917 23.7578 10.1583C23.7578 10.2708 23.7745 10.3708 23.8078 10.4542C23.8412 10.5375 23.9037 10.6042 23.9995 10.6542C24.0912 10.7042 24.2037 10.7292 24.3287 10.7292C24.437 10.7292 24.5287 10.7208 24.6037 10.7042C24.6787 10.6875 24.7995 10.6542 24.9578 10.6C25.2328 10.5083 25.4412 10.3417 25.5912 10.1083C25.7412 9.875 25.8162 9.61249 25.8162 9.31666L25.8037 9.34583ZM15.462 3.75417L15.4037 3.9625C15.337 3.90833 15.262 3.875 15.1745 3.8625C15.087 3.97083 15.0412 4.15833 15.0328 4.42916C15.0245 4.7 14.9953 4.88333 14.9412 4.98333C15.0078 5.0375 15.0787 5.09167 15.1578 5.15417C15.2328 5.2125 15.2912 5.27916 15.3328 5.35416L15.2745 5.60417C15.1995 5.57917 15.1162 5.5625 15.0245 5.5625C14.8495 5.5625 14.6912 5.60833 14.5453 5.70416C14.4995 5.77916 14.4662 5.85416 14.4453 5.93749C14.4245 6.02083 14.4162 6.10417 14.4162 6.18333C14.4162 6.30417 14.437 6.45 14.4745 6.625C14.5662 7.025 14.6162 7.27916 14.6162 7.38333V7.55416C14.6162 7.69583 14.6162 7.85833 14.612 8.05C14.612 8.24166 14.5787 8.45 14.5162 8.68333C14.5578 8.49167 14.5745 8.30416 14.5745 8.12499C14.5745 8.02499 14.5662 7.91666 14.5537 7.8C14.5412 7.68333 14.5287 7.57083 14.512 7.46667C14.4537 7.175 14.4078 6.95833 14.3828 6.81666C14.337 6.57083 14.312 6.35833 14.312 6.1875C14.312 6.01666 14.3412 5.82083 14.4037 5.62917C14.462 5.5625 14.537 5.50417 14.6287 5.45417C14.7203 5.40417 14.8162 5.35833 14.9245 5.32083C14.9037 5.2625 14.8495 5.22916 14.7662 5.22916C14.7412 5.22916 14.6995 5.2375 14.6453 5.25C14.637 5.2625 14.6203 5.275 14.5953 5.29167C14.5703 5.30417 14.5495 5.31666 14.537 5.32083C14.512 5.24583 14.5287 5.16666 14.5953 5.07916L14.8245 4.95C14.7995 4.775 14.7162 4.62916 14.5828 4.50833C14.4828 4.42083 14.337 4.33333 14.1412 4.2375C14.1537 4.1375 14.1662 4.05416 14.1745 3.9875C14.1828 3.92083 14.2245 3.86666 14.2912 3.82916C14.4453 3.88333 14.5703 4.00416 14.6703 4.2C14.7495 4.35833 14.8328 4.52083 14.9203 4.67917C14.9453 4.43333 14.9703 4.22083 14.9953 4.0375C15.0203 3.85833 15.0912 3.70833 15.212 3.5875C15.2787 3.57916 15.337 3.60416 15.3912 3.65833C15.412 3.67916 15.4328 3.7125 15.462 3.75833V3.75417ZM13.2537 4.59583C13.2287 4.72083 13.2037 4.82917 13.1828 4.9125C13.162 4.99583 13.1078 5.04583 13.012 5.05833C12.9578 5.04999 12.912 5.03333 12.8662 5.00417C12.8245 4.975 12.7995 4.92916 12.7995 4.87083C12.7995 4.69583 12.8162 4.55 12.8495 4.425C12.8828 4.3 12.9453 4.14999 13.0412 3.97083C13.0412 4.02499 13.0203 4.1125 12.9828 4.24166C12.9412 4.36666 12.9245 4.46667 12.9245 4.54167C12.9245 4.66667 12.9662 4.75833 13.0453 4.8125C13.1037 4.8125 13.1412 4.775 13.1537 4.70417C13.1662 4.62917 13.1995 4.59583 13.2537 4.60416V4.59583ZM20.6037 11.325C20.5703 11.4458 20.4995 11.5583 20.3953 11.6708C20.287 11.7792 20.1703 11.8625 20.0453 11.9167C19.9912 11.9417 19.937 11.9583 19.887 11.9583C19.8287 11.9583 19.712 11.9167 19.5453 11.8375C19.4662 11.7958 19.4037 11.7792 19.3537 11.7792C19.287 11.7792 19.2162 11.8125 19.1453 11.8792L18.5953 12.2L18.0745 12.5C17.8537 12.6208 17.6537 12.7208 17.4703 12.8C17.287 12.8792 17.087 12.9458 16.8745 13C17.062 12.9333 17.262 12.8417 17.4745 12.725C17.687 12.6083 17.8912 12.4833 18.0828 12.35L18.612 12C18.812 11.8583 18.9828 11.7625 19.1203 11.7083C19.3078 11.6333 19.512 11.6 19.7287 11.6L19.8287 11.6792C19.8537 11.6583 19.9203 11.5875 20.0203 11.4708C20.1662 11.2958 20.2912 11.2125 20.3912 11.2125C20.4703 11.2125 20.5412 11.2542 20.5995 11.3333L20.6037 11.325ZM13.7453 9.16666C13.7662 9.21249 13.762 9.2625 13.737 9.3125C13.712 9.3625 13.6787 9.38749 13.6453 9.38749L13.5037 9.26666C13.462 9.35416 13.4328 9.55 13.4078 9.85833C13.3828 10.1667 13.3078 10.375 13.1828 10.4875C13.1162 10.4083 13.062 10.3042 13.0162 10.1792C12.9745 10.0542 12.9328 9.925 12.8912 9.8C12.8495 9.9125 12.7828 9.94166 12.6912 9.87916C12.6662 9.85416 12.6495 9.81667 12.6495 9.77083C12.6495 9.7375 12.662 9.6875 12.6912 9.62083C12.7162 9.55417 12.7328 9.5 12.7328 9.4625C12.7662 9.44166 12.7995 9.42083 12.8287 9.40416C12.8578 9.38333 12.8828 9.37916 12.9037 9.38333C13.012 9.65833 13.1162 9.925 13.2245 10.1917C13.2495 10.1375 13.2828 9.94166 13.3245 9.59583C13.3662 9.25416 13.4662 9.06667 13.6245 9.04167L13.7453 9.17083V9.16666ZM21.9537 9.3375C21.5995 9.49583 21.3037 9.62083 21.062 9.70833C20.7537 9.82083 20.4453 9.91666 20.1328 9.9875C19.9078 10.0417 19.6745 10.0833 19.4328 10.1167C19.1912 10.15 18.9578 10.1667 18.7328 10.1667C18.5537 10.1667 18.3662 10.1583 18.1745 10.1375C18.5287 9.75 18.7703 9.49583 18.9037 9.37917C19.4245 8.9 19.9203 8.65833 20.3953 8.65833C20.5953 8.65833 20.7912 8.69583 20.987 8.76666C21.0662 8.8 21.1953 8.85417 21.3787 8.925C21.6453 9.0375 21.837 9.175 21.9578 9.33333L21.9537 9.3375ZM20.4037 11.5083C20.2578 11.6208 20.1162 11.6792 19.9828 11.6792C20.0078 11.6 20.062 11.5375 20.1412 11.5C20.2203 11.4583 20.2995 11.45 20.3703 11.4708C20.3703 11.4833 20.3787 11.4958 20.3995 11.5125L20.4037 11.5083Z" fill="currentColor"/>
</svg>
