<svg width="40" height="16" viewBox="0 0 40 16" fill="none" xmlns="http://www.w3.org/2000/svg">
<path fill-rule="evenodd" clip-rule="evenodd" d="M27.8242 8.73048C27.8293 8.79672 27.8344 8.85786 27.8395 8.90881C27.8395 8.95976 27.8446 9.00052 27.8446 9.03618C27.8446 9.27564 27.814 9.49981 27.758 9.71889C27.702 9.93797 27.6153 10.1876 27.5083 10.4729C27.5338 10.3914 27.5542 10.2946 27.5695 10.1825C27.5848 10.0704 27.5899 9.96345 27.5899 9.86155C27.5899 9.64247 27.5644 9.37754 27.5083 9.06675C27.4319 8.63878 27.3912 8.37893 27.3861 8.28213L26.7339 4.30811C26.6575 4.20621 26.6218 4.08904 26.6218 3.95148C26.6218 3.83429 26.6473 3.71711 26.7034 3.59483C26.7288 3.53879 26.7951 3.4267 26.897 3.25856C27.0447 3.50821 27.1772 3.80882 27.2944 4.15527C27.3912 4.46096 27.4625 4.76665 27.5083 5.07234L27.2128 4.62401L27.1619 4.68514L27.8242 8.73048ZM23.0452 3.228C22.9994 3.28404 22.9739 3.34519 22.9739 3.41142C22.9739 3.46746 22.9892 3.52861 23.0248 3.60503C23.0605 3.68145 23.0758 3.72731 23.0758 3.74768C23.0758 3.76806 23.0656 3.78844 23.0503 3.80372C23.035 3.81901 22.9739 3.8292 22.872 3.8292C22.6427 4.11961 22.388 4.39472 22.1078 4.64437C21.8275 4.89402 21.532 5.10802 21.2213 5.27615C21.7307 4.78195 22.2453 4.28264 22.7599 3.78844C22.7548 3.78334 22.6886 3.73748 22.5663 3.65597C22.4848 3.59992 22.444 3.54388 22.444 3.48274C22.444 3.44198 22.4593 3.39613 22.495 3.34518C22.5306 3.29424 22.5663 3.2331 22.6071 3.15668C22.6682 3.07516 22.7344 3.0242 22.8109 3.00382C22.8924 2.98854 22.9535 3.01912 22.9943 3.09554C23.0147 3.1363 23.0299 3.18214 23.0452 3.228ZM23.4222 5.14368C23.4375 5.0214 23.4426 4.9195 23.4426 4.83798C23.4426 4.68004 23.4172 4.55268 23.3611 4.45078C23.3051 4.47626 23.2796 4.51701 23.2796 4.57305C23.2796 4.60872 23.2898 4.65967 23.3153 4.73099C23.3407 4.80232 23.3509 4.84817 23.3509 4.86855C23.3509 4.9144 23.3356 4.95517 23.3 4.99084C23.2745 4.99593 23.2388 5.00102 23.1981 5.00102C23.1216 5.00102 23.0758 4.98063 23.0554 4.94497C23.035 4.90931 23.0248 4.84308 23.0248 4.75646V4.59344C23.0248 4.49154 23.0096 4.42529 22.9841 4.38963C22.9484 4.43039 22.9331 4.49154 22.9331 4.57305C22.9331 4.59853 22.9331 4.64948 22.9433 4.71571C22.9484 4.78194 22.9535 4.83289 22.9535 4.86855C22.9535 4.90421 22.9433 4.96026 22.928 5.04687C22.9128 5.13349 22.8261 5.17425 22.6682 5.17425C22.6071 5.1182 22.5765 5.03668 22.5765 4.9195C22.5765 4.87365 22.5765 4.80741 22.5867 4.72589C22.5867 4.65966 22.5816 4.60872 22.5663 4.57305C22.4899 4.63929 22.4542 4.75138 22.4542 4.90932C22.4593 4.98574 22.4695 5.05707 22.4746 5.13349C22.4797 5.20992 22.4848 5.27615 22.4848 5.33729C22.5103 5.35767 22.551 5.38823 22.6071 5.42899C22.6478 5.44937 22.6988 5.45446 22.7599 5.43918C22.816 5.43408 22.8618 5.40861 22.8975 5.36276C22.9331 5.3169 22.9688 5.27106 23.0045 5.21501C23.0452 5.22011 23.0707 5.23029 23.086 5.24048C23.1013 5.25067 23.1318 5.25577 23.1879 5.25577C23.2949 5.25577 23.3764 5.2201 23.4222 5.14368ZM18.7859 4.25717C18.8063 4.34379 18.8012 4.43039 18.7655 4.517C18.7299 4.60362 18.6738 4.66986 18.5923 4.71571C18.5312 4.73099 18.4853 4.71571 18.4547 4.66986C18.4242 4.624 18.3936 4.56287 18.3681 4.48135C18.3681 4.32341 18.3834 4.18585 18.414 4.06867C18.4445 3.95148 18.5006 3.83429 18.5821 3.7273C18.5617 3.81391 18.5413 3.90052 18.521 3.97695C18.5006 4.05337 18.4904 4.1298 18.4904 4.19604C18.4904 4.31831 18.5363 4.41001 18.6229 4.47115C18.6636 4.43549 18.6942 4.40493 18.7146 4.36926C18.735 4.3336 18.7604 4.29793 18.7859 4.25717ZM26.041 8.48592C26.041 8.01719 25.934 7.33957 25.7251 6.44797C25.5162 5.55636 25.4093 4.89912 25.4093 4.47115C25.4449 4.49153 25.4959 4.56286 25.5723 4.68514C25.6283 4.77176 25.6793 4.81251 25.7353 4.79723C25.6946 4.54758 25.613 4.28265 25.4908 4.00243C25.4449 3.90053 25.3226 3.65088 25.1239 3.24838C25.0068 3.41142 24.8947 3.57445 24.7877 3.73749C24.8641 4.16546 24.9711 4.7208 25.1137 5.40861C25.2309 5.97414 25.3481 6.54478 25.4653 7.1205C25.5825 7.69622 25.6793 8.25666 25.7557 8.79162C25.4093 8.95466 25.073 9.08712 24.752 9.18902C24.431 9.29092 24.0999 9.35715 23.7687 9.39281C24.0285 9.3062 24.2323 9.11769 24.3801 8.83237C24.482 8.63367 24.5584 8.37384 24.6145 8.04777C24.5278 7.8236 24.3546 7.64527 24.0948 7.5179C23.8553 7.43638 23.6362 7.35486 23.4273 7.27844C23.2185 7.20201 23.0248 7.16125 22.8414 7.16125C22.3778 7.16125 21.8326 7.49242 21.2009 8.14966C20.778 8.59291 20.4927 8.86804 20.3347 8.97503C20.401 8.77633 20.4519 8.57764 20.4825 8.37893C20.5131 8.18023 20.5284 7.96625 20.5284 7.74207C20.5284 7.43638 20.5029 7.1103 20.4468 6.76385C20.3042 6.03528 20.1666 5.30672 20.0291 4.57305C20.0749 4.55777 20.1309 4.58324 20.1921 4.64437C20.3297 4.78703 20.4214 4.85837 20.4774 4.85837C20.3704 4.49663 20.2634 4.20112 20.1615 3.96166C20.0341 3.66106 19.8915 3.39614 19.7335 3.15668C19.7183 3.20253 19.6724 3.29424 19.596 3.4318C19.5196 3.56937 19.4788 3.67635 19.4788 3.75787C19.4788 3.81391 19.4992 3.86995 19.5399 3.93109C19.5807 4.26226 19.6724 4.75646 19.8151 5.40861C19.9577 6.06075 20.0545 6.52439 20.1004 6.79442C20.1972 7.32938 20.243 7.81339 20.243 8.24136C20.243 8.55215 20.2176 8.85275 20.1717 9.13807C20.0851 9.24506 19.9934 9.35715 19.8966 9.47433C19.7998 9.59152 19.6979 9.64756 19.5909 9.64756C19.5501 9.64756 19.5043 9.63737 19.4482 9.61699C19.3718 9.35205 19.2393 9.1126 19.0508 8.90371C18.8318 8.66425 18.5974 8.53178 18.3477 8.50631C18.0828 8.57254 17.8841 8.74577 17.7465 9.0158C17.6701 9.16355 17.5988 9.42338 17.5224 9.79021C17.5478 9.93287 17.6192 10.0399 17.7262 10.1163C17.7618 10.1418 17.9554 10.2131 18.307 10.3303C18.363 10.3557 18.4344 10.371 18.521 10.371C18.5617 10.371 18.6229 10.371 18.7044 10.3608C18.7859 10.3557 18.8419 10.3507 18.8776 10.3507C19.0203 10.3507 19.112 10.3914 19.1527 10.4729C18.9133 10.7022 18.684 10.9162 18.4598 11.1047C18.2 11.3238 17.9554 11.5072 17.716 11.6549C17.4256 11.8384 17.1403 11.981 16.86 12.088C16.5798 12.195 16.2945 12.246 16.0041 12.246C15.8462 12.246 15.7035 12.2154 15.5659 12.1491C15.4284 12.0829 15.3265 11.9861 15.25 11.8486C15.1736 11.7314 15.138 11.6091 15.138 11.4817C15.138 11.4053 15.194 11.2015 15.301 10.8601C15.3469 10.7124 15.3723 10.5799 15.3723 10.4729C15.2297 10.7582 15.1278 10.9875 15.0666 11.1556C14.9647 11.441 14.9138 11.6957 14.9138 11.9199C14.9138 12.0269 14.9291 12.1441 14.9545 12.2612C14.98 12.3784 15.0259 12.4956 15.0921 12.6026C15.1583 12.7096 15.2551 12.8013 15.3825 12.8675C15.5099 12.9338 15.6576 12.9796 15.8207 13C16.1926 12.9643 16.5696 12.8726 16.9466 12.7198C17.3237 12.5669 17.6752 12.3733 18.0013 12.139C18.3274 11.9046 18.6178 11.6244 18.8725 11.3034C19.1273 10.9824 19.326 10.6462 19.4686 10.2997C19.9323 10.2233 20.4214 10.1418 20.941 10.0552C21.4607 9.96854 21.8887 9.88193 22.2199 9.80041C22.5052 9.86665 22.7548 9.91758 22.9739 9.94815C23.193 9.97872 23.4222 9.99401 23.6668 9.99401C23.947 9.99401 24.217 9.96344 24.4871 9.9074C24.7571 9.85136 24.9966 9.76473 25.2156 9.65774C25.4347 9.63227 25.5978 9.54566 25.7099 9.39791C25.8219 9.25016 25.934 8.94956 26.041 8.48592ZM19.1935 6.76385C19.1782 6.89122 19.1578 6.99822 19.1324 7.07465C19.1069 7.15107 19.0508 7.2173 18.9693 7.26315C18.8878 7.28353 18.8318 7.26315 18.8012 7.19182C18.7706 7.12558 18.7502 7.06445 18.735 7.01859C18.735 6.87594 18.7604 6.72818 18.8165 6.57024C18.898 6.38173 18.954 6.23907 18.9897 6.14227C18.9897 6.19832 18.9693 6.29002 18.9286 6.42758C18.8878 6.56515 18.8674 6.66705 18.8674 6.73328C18.8674 6.83008 18.8929 6.9116 18.9489 6.98803C19.0254 7.00331 19.0712 6.96764 19.0967 6.89122C19.1222 6.8148 19.1527 6.76894 19.1935 6.76385ZM22.281 11.2372C22.2351 11.3849 22.1485 11.5123 22.0313 11.6091C21.9142 11.7059 21.7766 11.7823 21.6238 11.8282C21.4709 11.874 21.3028 11.9046 21.1194 11.9199C20.9359 11.9352 20.7882 11.9454 20.671 11.9606C20.9207 11.8384 21.0684 11.7619 21.1092 11.7263C21.2722 11.604 21.369 11.4511 21.4047 11.2677C21.4251 11.2066 21.4352 11.1404 21.4352 11.0639C21.4352 10.9009 21.3741 10.7786 21.2518 10.6971C21.1907 10.6971 21.1397 10.7328 21.099 10.8041C21.0582 10.8754 21.0327 10.9162 21.0175 10.9213C21.0022 10.8449 21.0277 10.7633 21.0837 10.6716C21.1397 10.5799 21.2162 10.5086 21.3028 10.4526C21.369 10.4526 21.4251 10.478 21.4658 10.529C21.5066 10.5799 21.5422 10.6411 21.5677 10.7175C21.583 10.7837 21.5881 10.8347 21.5881 10.8703C21.5881 10.9671 21.5728 11.069 21.5371 11.1862C21.4811 11.3696 21.4556 11.4664 21.4556 11.4715C21.5168 11.4104 21.5779 11.3492 21.639 11.2881C21.7613 11.1709 21.8887 11.1149 22.0161 11.1149C22.0976 11.1149 22.1842 11.1556 22.281 11.2372ZM15.1685 3.56426C15.1736 3.60502 15.1685 3.64578 15.1583 3.68145C15.1431 3.71711 15.1329 3.75277 15.1176 3.78844C15.0921 3.78844 15.0513 3.77315 14.9953 3.73749C14.9393 3.70182 14.8985 3.68655 14.8628 3.68655C14.8221 3.68655 14.7864 3.71201 14.7609 3.76805C14.7762 3.83429 14.7813 3.89033 14.7813 3.93109C14.7813 4.00752 14.766 4.09922 14.7406 4.21641C14.6794 4.48134 14.6489 4.63928 14.6489 4.69533C14.6489 4.79213 14.6692 4.86345 14.7151 4.9144C14.7609 4.96535 14.8425 5.00612 14.9647 5.03159C15.0615 5.09273 15.1074 5.16915 15.1074 5.26595C15.1074 5.31181 15.0921 5.37294 15.0564 5.43918C14.817 5.43918 14.6438 5.44937 14.5317 5.47484C14.4196 5.50032 14.3126 5.56656 14.2107 5.67355C14.2515 5.87735 14.2973 6.05566 14.3432 6.20341C14.4451 6.50401 14.547 6.79952 14.6489 7.10011C14.7151 7.35995 14.7508 7.58923 14.7508 7.79303C14.7508 7.9204 14.7355 8.05286 14.71 8.18023C14.6845 8.3076 14.6387 8.44007 14.5775 8.56744C14.6132 8.49102 14.6387 8.39931 14.659 8.29232C14.6794 8.18532 14.6896 8.08852 14.6896 8.007C14.6896 7.82359 14.659 7.63508 14.5979 7.43638C14.5826 7.39052 14.5419 7.27843 14.4756 7.10011C14.3584 6.78933 14.2769 6.55496 14.2311 6.39702C14.1496 6.13208 14.1088 5.89263 14.1088 5.67355C14.1088 5.57165 14.1445 5.48504 14.2158 5.41371C14.2871 5.34238 14.3788 5.28124 14.496 5.23538L14.6794 5.17425C14.6183 5.12839 14.5419 5.10293 14.4552 5.10293C14.4094 5.10293 14.3686 5.1182 14.333 5.14368L14.2107 5.29652C14.1699 5.27104 14.1648 5.22519 14.1954 5.16915C14.226 5.1131 14.2362 5.06725 14.2311 5.03159C14.2565 4.98574 14.2973 4.94498 14.3533 4.9195C14.4094 4.89403 14.4705 4.86346 14.5368 4.8278C14.44 4.64438 14.3686 4.50681 14.3228 4.4202C14.226 4.25716 14.1241 4.15528 14.0069 4.11452C13.9509 4.1298 13.8948 4.1247 13.8388 4.10432C13.7827 4.08394 13.7267 4.06356 13.6706 4.04318C13.6503 4.00242 13.6401 3.96167 13.6401 3.92091C13.6401 3.88015 13.6553 3.8241 13.6859 3.75277C13.7165 3.68144 13.742 3.6305 13.7572 3.59993C13.7725 3.56936 13.8082 3.55408 13.8541 3.55408C13.8948 3.55408 13.9305 3.56427 13.9661 3.58464C14.0528 3.65088 14.1445 3.75278 14.2311 3.89034C14.3483 4.08904 14.4603 4.28264 14.5775 4.47115C14.5979 4.41001 14.6234 4.24189 14.6489 3.97186C14.6743 3.70183 14.7457 3.51841 14.8628 3.4216C14.924 3.44198 14.9851 3.46236 15.0412 3.48274C15.0972 3.50312 15.1431 3.5286 15.1685 3.56426ZM17.3186 8.08852C17.3186 8.79671 16.8346 9.4081 15.8716 9.93287C15.4233 10.1723 14.98 10.4067 14.5368 10.636C14.3075 10.7379 13.9967 10.8347 13.6095 10.9213C13.0745 11.0385 12.5345 11.1505 11.9995 11.2677C12.8402 10.855 13.6859 10.4373 14.5266 10.0246C15.4844 9.53546 16.2945 9.04126 16.9619 8.54706C16.9619 8.34836 16.8906 8.04776 16.7479 7.64017C16.6053 7.23258 16.534 6.92689 16.534 6.7231C16.534 6.62629 16.5391 6.54478 16.5543 6.46835C16.5696 6.39193 16.6002 6.31041 16.646 6.22379L16.7378 6.10152C16.9008 6.25946 17.0078 6.36136 17.0536 6.4174C17.1759 6.56515 17.2218 6.68743 17.1861 6.78423C17.1606 6.77914 17.1301 6.76894 17.1046 6.76385C17.0791 6.84027 17.0638 6.9218 17.0638 7.00841C17.0638 7.13069 17.1046 7.31411 17.1912 7.55357C17.2778 7.79303 17.3186 7.97134 17.3186 8.08852ZM22.872 3.48274V3.4318C22.872 3.37576 22.8465 3.335 22.8007 3.29933C22.7446 3.27386 22.6937 3.28405 22.6478 3.3299C22.6529 3.37066 22.6835 3.40123 22.7293 3.4267C22.7752 3.45218 22.8261 3.46746 22.872 3.48274ZM24.1661 8.62858C23.6209 8.82728 22.9943 9.0005 22.281 9.14825C22.0517 9.19411 21.3996 9.3113 20.3347 9.49472C20.6812 9.15336 21.0276 8.8171 21.3741 8.47574C21.8021 8.06815 22.1995 7.86435 22.5663 7.86435C22.7039 7.86435 22.8516 7.88982 23.0147 7.94587C23.2949 8.03248 23.5089 8.114 23.6668 8.19043C23.8961 8.30761 24.0642 8.45026 24.1661 8.62858ZM22.0466 11.441L21.4251 11.6753C21.4862 11.6091 21.5524 11.5479 21.6187 11.4919C21.6849 11.4359 21.7511 11.4002 21.8123 11.3798C21.8989 11.3747 21.9804 11.3951 22.0466 11.441ZM18.8063 9.64756C18.4955 9.6017 18.3274 9.57113 18.307 9.56604C18.1236 9.52018 17.986 9.43357 17.8892 9.31129C17.9147 9.24506 17.9758 9.2043 18.0726 9.18902C18.2102 9.18902 18.3426 9.23487 18.47 9.33168C18.5261 9.37244 18.6381 9.47943 18.8063 9.64756Z" fill="currentColor"/>
</svg>
