<svg width="40" height="16" viewBox="0 0 40 16" fill="none" xmlns="http://www.w3.org/2000/svg">
<path fill-rule="evenodd" clip-rule="evenodd" d="M26.2205 3C26.2044 3.16712 26.0858 3.28032 25.8647 3.34501C25.5197 3.43666 25.331 3.49596 25.3041 3.51752C24.7596 3.72777 24.2098 3.93262 23.6653 4.14286C23.0561 4.38545 22.517 4.63342 22.0588 4.87601C22.1073 4.75202 22.1558 4.66577 22.199 4.60647C22.2691 4.50404 22.3553 4.45014 22.4469 4.43396C23.2717 4.08895 23.8971 3.83558 24.3122 3.66847C25.0238 3.38814 25.6599 3.16712 26.2205 3ZM25.261 5.79246C25.2394 5.90566 25.2178 6.01887 25.1963 6.12669C25.1531 6.25607 25.0723 6.32614 24.9591 6.34232C24.9106 6.34771 24.8674 6.32615 24.8405 6.27224C24.8135 6.21833 24.792 6.18059 24.7758 6.15903C24.7542 6.07817 24.7434 6.00269 24.7434 5.92183C24.7434 5.77628 24.7758 5.62534 24.8405 5.45822C24.8567 5.42048 24.8944 5.33423 24.9591 5.19946C24.9429 5.30728 24.9321 5.4151 24.916 5.52291C24.8998 5.63073 24.8944 5.70081 24.8944 5.72776C24.8944 5.85175 24.916 5.94879 24.9591 6.01887C25.0399 6.062 25.0992 6.03504 25.1424 5.9434C25.1855 5.85176 25.2232 5.79785 25.261 5.79246ZM24.172 5.13477C24.0912 5.06469 24.0211 5.00001 23.9564 4.95149C23.827 4.84367 23.7084 4.76819 23.6006 4.72507L23.2448 5.15633C23.1747 5.22641 23.137 5.29111 23.137 5.3504C23.137 5.42049 23.2232 5.50135 23.4011 5.59299C23.579 5.68463 23.6815 5.7655 23.7192 5.83558C23.9186 5.63612 24.0696 5.39893 24.172 5.13477ZM26.4577 9.2965C26.3715 9.32345 25.9294 9.53908 25.1316 9.93261C24.5763 10.2075 24.1181 10.3423 23.7515 10.3423C23.606 10.3423 23.4658 10.3261 23.3203 10.2884C23.1747 10.2507 23.0346 10.1914 22.8998 10.1051C22.6464 9.91645 22.4523 9.7062 22.3176 9.4744C22.1828 9.24259 22.1127 8.98383 22.1127 8.7035C22.1127 8.62264 22.1127 8.56334 22.1235 8.52022C22.7434 8.28302 23.234 8.12669 23.606 8.05122C23.9779 7.97575 24.323 7.93801 24.6464 7.93801C24.8782 7.93801 25.1046 7.95957 25.3364 8.00269C25.137 7.77089 24.8728 7.61995 24.5494 7.54987C24.3769 7.51213 24.0696 7.49595 23.6329 7.49595C23.1963 7.49595 22.7758 7.66307 22.3823 8.00269C22.0319 8.30458 21.7731 8.67116 21.6168 9.10243C21.6168 9.7655 21.8809 10.3261 22.4038 10.7952C22.172 10.7952 21.9618 10.752 21.7677 10.6658C21.5736 10.5795 21.4173 10.4447 21.3041 10.2561C21.1316 9.60378 21.0076 8.81671 20.9267 7.90566C20.9052 7.66308 20.862 6.9407 20.8027 5.74393C20.7434 4.54717 20.6626 3.6523 20.5602 3.0647C20.4577 3.13478 20.3715 3.24259 20.2906 3.38814C20.2313 3.51752 20.1774 3.6469 20.1181 3.77628C20.2744 4.69811 20.3715 5.28032 20.3984 5.53369C20.4793 6.15364 20.517 6.75203 20.517 7.33424C20.5655 8.02426 20.6248 8.74124 20.6949 9.48517C20.765 10.2291 20.9321 10.8329 21.2071 11.2911C21.3526 11.4151 21.5036 11.5014 21.6653 11.5553C21.827 11.6092 21.9995 11.6361 22.1774 11.6361C22.4847 11.6361 22.9213 11.5229 23.482 11.3019C23.8108 11.1725 24.048 11.0809 24.1936 11.0323C24.3661 10.903 24.6087 10.779 24.9267 10.655C25.5898 10.3962 25.9941 10.1968 26.1451 10.0512L26.4577 9.2965ZM22.0804 6.57951C21.9779 6.89757 21.924 7.0593 21.9186 7.07547C21.8701 7.18329 21.8054 7.27493 21.7354 7.3558C21.8216 7.26954 21.8809 7.1779 21.9079 7.08087C21.9348 6.98383 21.951 6.86523 21.951 6.73046C21.951 6.60647 21.9186 6.34771 21.854 5.9434C21.827 5.75472 21.8162 5.61994 21.8216 5.53369C21.9348 5.63612 22.0103 5.7655 22.0372 5.92723C22.0642 6.08895 22.0804 6.30458 22.0804 6.57951ZM19.5575 3.31267C19.455 3.49057 19.3903 3.63073 19.3526 3.73315C19.2879 3.90027 19.2556 4.05661 19.2556 4.20755C19.2556 4.33154 19.2879 4.45013 19.3526 4.57412C19.3957 4.56873 19.4281 4.53639 19.4443 4.47709C19.4604 4.41779 19.4874 4.38544 19.5143 4.38005C19.4982 4.50404 19.4766 4.60108 19.4496 4.67655C19.4227 4.75202 19.3688 4.80593 19.2987 4.84366C19.2556 4.84906 19.2178 4.84367 19.1909 4.81132C19.1639 4.78437 19.1316 4.73585 19.0939 4.67116C19.0885 4.60647 19.0831 4.55796 19.0831 4.52022C19.0831 4.2992 19.1262 4.07817 19.2124 3.86792C19.2987 3.65768 19.4119 3.469 19.5575 3.31267ZM26.7057 11.8517C26.5602 11.9973 26.4146 12.1213 26.2583 12.2291C26.1019 12.3369 25.9294 12.4232 25.7407 12.4933C25.5521 12.5633 25.3634 12.5957 25.1855 12.5957C25.0076 12.5957 24.8297 12.558 24.6356 12.4771C24.5763 12.4555 24.5494 12.407 24.5494 12.3369C24.5494 12.2776 24.5709 12.2291 24.6141 12.186C24.6949 12.0512 24.8027 11.911 24.9375 11.7763C24.9106 11.7709 24.8836 11.7547 24.862 11.7332C24.8405 11.7116 24.8135 11.6792 24.7758 11.6361C24.7974 11.5337 24.8459 11.442 24.9213 11.3504C24.9968 11.2588 25.0885 11.1833 25.1963 11.1186C25.2664 11.1132 25.3418 11.1348 25.4119 11.1941C25.4065 11.2318 25.385 11.2642 25.3472 11.3019C25.3095 11.3396 25.2771 11.372 25.2394 11.4097C25.1693 11.3828 25.1208 11.3666 25.0992 11.3666C25.0723 11.3666 25.0399 11.3881 25.0022 11.4313C25.0831 11.5229 25.1801 11.5714 25.2933 11.5714C25.331 11.5714 25.3688 11.5606 25.4173 11.5391C25.4658 11.5175 25.5143 11.496 25.5629 11.469C25.6114 11.4421 25.6545 11.4313 25.6922 11.4313C25.6491 11.5553 25.4496 11.7062 25.0885 11.8841C24.9213 11.965 24.8189 12.0674 24.7758 12.1968C24.862 12.2561 24.9483 12.2938 25.0292 12.3154C25.11 12.3369 25.2017 12.3477 25.3041 12.3477C25.5036 12.3477 25.7461 12.2884 26.0265 12.1644C26.2475 12.0566 26.4739 11.9542 26.7057 11.8517ZM18.4146 4.95149C18.3284 5.15095 18.2798 5.26955 18.2637 5.2965C18.1936 5.43127 18.1181 5.53908 18.0372 5.61995C17.951 5.59299 17.8378 5.53908 17.6976 5.45822C17.5575 5.37736 17.4766 5.33423 17.455 5.31806C17.4766 5.21024 17.5251 5.09164 17.606 4.96226C17.6868 4.83288 17.7623 4.7089 17.8324 4.58491C18.0265 4.63342 18.2205 4.75742 18.4146 4.95149ZM17.2178 4.30458C17.1963 4.51482 17.1747 4.64421 17.1478 4.70351C17.1208 4.7628 17.0777 4.80593 17.013 4.84366C16.9267 4.8814 16.862 4.87063 16.8243 4.81672C16.7866 4.76281 16.7596 4.71429 16.7542 4.67116C16.7542 4.49326 16.7758 4.30998 16.8189 4.13208C16.8243 4.08895 16.9213 3.81402 17.0992 3.31267C17.0939 3.37197 17.0561 3.50674 16.9914 3.71698C16.9267 3.92722 16.8944 4.08895 16.8944 4.19677C16.8944 4.36927 16.9537 4.48787 17.0777 4.55256C17.0992 4.531 17.1208 4.48787 17.1424 4.42318C17.1639 4.35849 17.1909 4.32075 17.2178 4.30458ZM16.1289 3.48518C16.1127 3.52831 16.1019 3.56065 16.0858 3.58221C16.0588 3.5876 16.0157 3.58221 15.9618 3.55526C15.9079 3.5283 15.8701 3.51752 15.8486 3.51752C15.827 3.51752 15.8001 3.5283 15.7623 3.54987C15.7138 3.65229 15.6815 3.83558 15.6653 4.09973C15.6491 4.36389 15.6275 4.55795 15.5898 4.67116C15.5089 4.60647 15.4335 4.51483 15.3634 4.39084C15.1693 4.04582 15.0615 3.86253 15.0399 3.84097L15.0076 3.93801C14.8998 3.91105 14.8297 3.8841 14.7974 3.86792C14.765 3.85175 14.7327 3.80863 14.6949 3.74394C14.7111 3.65229 14.7219 3.55525 14.7381 3.45283C14.765 3.33962 14.8297 3.2965 14.9213 3.32345C15.0507 3.42588 15.1639 3.56065 15.2664 3.73855C15.3688 3.91645 15.4658 4.08356 15.5575 4.25068C15.5575 3.92723 15.5629 3.72776 15.579 3.65768C15.6222 3.44205 15.7246 3.2965 15.8917 3.21564C15.9618 3.23181 16.0265 3.25337 16.0804 3.28033C16.1343 3.30728 16.1612 3.35041 16.1612 3.39892C16.1612 3.42049 16.1505 3.44744 16.1289 3.48518ZM16.0858 5.11321L16.0211 5.39353C15.9186 5.3558 15.8486 5.33962 15.8108 5.33962H15.7192C15.5089 5.33962 15.331 5.40431 15.1801 5.53369C15.1801 5.74932 15.2124 5.99731 15.2825 6.27224C15.3526 6.54717 15.4227 6.81132 15.4928 7.06469C15.5143 7.1779 15.5359 7.31267 15.5575 7.46361C15.579 7.61455 15.5898 7.74933 15.5898 7.86254C15.5898 8.13747 15.5413 8.39623 15.4389 8.63882C15.4604 8.56874 15.4766 8.47709 15.482 8.36928C15.4874 8.26146 15.4928 8.20216 15.4928 8.19676C15.4928 8.01887 15.482 7.87332 15.4604 7.76011C15.4389 7.6469 15.358 7.35041 15.2124 6.87062C15.1639 6.70351 15.1154 6.53639 15.0777 6.35849C15.0399 6.18059 15.0184 6.02965 15.0184 5.90027C15.0184 5.66307 15.0723 5.45283 15.1801 5.27493C15.2286 5.21024 15.3041 5.16173 15.3957 5.13477C15.4874 5.10782 15.5575 5.08625 15.6006 5.07008C15.5197 5.02156 15.455 4.99461 15.3957 4.99461C15.3526 4.99461 15.3149 5.01078 15.2771 5.03773L15.1801 5.13477C15.1801 5.13477 15.1639 5.09165 15.1693 5.02696C15.1747 4.96227 15.1963 4.90296 15.234 4.84366C15.2717 4.75202 15.358 4.70351 15.5036 4.70351C15.5629 4.70351 15.6275 4.70889 15.6976 4.72507C15.7192 4.74663 15.7893 4.80593 15.9025 4.90836C15.9941 4.98922 16.0588 5.05391 16.0858 5.11321ZM16.1828 9.59838C16.1235 9.72776 16.0265 9.79246 15.8809 9.79246C15.8324 9.79246 15.7893 9.78706 15.7623 9.77089C15.7192 9.72776 15.6922 9.66307 15.6761 9.57682C15.6599 9.49056 15.6545 9.44205 15.6545 9.42587C15.6545 9.30189 15.6815 9.17789 15.73 9.05391C15.7785 8.92992 15.8432 8.80593 15.924 8.69272C15.9294 8.75741 15.924 8.8275 15.9025 8.90836C15.8324 9.14016 15.7947 9.26415 15.7947 9.28572C15.7947 9.37736 15.8378 9.45283 15.924 9.51213C15.9833 9.51213 16.0372 9.47979 16.0858 9.4151C16.1019 9.39354 16.1343 9.33962 16.1828 9.25337C16.2313 9.28033 16.2583 9.32345 16.2583 9.37197C16.2583 9.40971 16.2583 9.43665 16.2475 9.45822C16.2098 9.5283 16.1882 9.57682 16.1828 9.59838ZM19.6761 11.0323C19.6545 11.2049 19.5305 11.3288 19.2987 11.4097C18.9699 11.5229 18.7812 11.5984 18.7381 11.6361C18.1289 11.9111 17.5521 12.1806 17.013 12.4555C17.0777 12.2399 17.2556 12.0728 17.5521 11.9488C17.9672 11.7763 18.2098 11.6631 18.2744 11.6146C18.4469 11.5553 18.6248 11.4906 18.8027 11.4097C19.3257 11.1779 19.6168 11.0539 19.6761 11.0323ZM19.234 7.93801C19.1262 7.7062 18.9645 7.51752 18.7542 7.37197C18.544 7.22641 18.3122 7.13477 18.0696 7.09704C17.73 7.09704 17.482 7.27494 17.3149 7.63612C17.2286 7.83019 17.1208 8.13747 16.9914 8.56335C17.0399 8.80593 17.1639 8.97305 17.358 9.0593C17.5036 9.12399 17.7084 9.15633 17.9726 9.15633C18.0642 9.15633 18.1558 9.15633 18.2475 9.15633C18.3391 9.15633 18.4254 9.15094 18.5116 9.15094C18.5548 9.15094 18.6033 9.15094 18.6626 9.15633C18.7219 9.15633 18.7866 9.16711 18.8567 9.1725C18.916 9.1725 18.9591 9.20486 18.986 9.26416C19.013 9.32345 19.0453 9.38275 19.0723 9.44205C18.3122 9.7062 17.5521 9.97035 16.7974 10.2291C16.4523 10.2938 16.1019 10.4447 15.7408 10.6819C15.5251 10.8275 15.2178 11.0755 14.8135 11.4259C14.3607 11.8194 14.0534 12.0782 13.8971 12.1914C13.5521 12.4447 13.2124 12.6119 12.8728 12.6981C12.6572 12.6766 12.4685 12.5849 12.3014 12.4178C12.2367 12.3531 12.1936 12.283 12.1666 12.2129C12.1397 12.1429 12.1289 12.0566 12.1289 11.9542C12.1289 11.8302 12.1397 11.7278 12.1666 11.6361C12.1936 11.5445 12.2313 11.4421 12.2798 11.3181C12.517 10.9784 12.7542 10.6442 12.9914 10.3046C13.2771 9.91644 13.5629 9.65229 13.8432 9.51752C13.9294 9.40431 13.9995 9.28033 14.0534 9.14556C14.1073 9.01079 14.1343 8.8814 14.1343 8.75202C14.1343 8.73585 14.1343 8.69273 14.1235 8.62264C14.1181 8.55256 14.1019 8.49326 14.0804 8.45013C14.0211 8.4717 13.9779 8.52021 13.951 8.60108C13.9025 8.76819 13.8486 8.85984 13.7947 8.87601C13.7408 8.89219 13.703 8.90296 13.6815 8.90296C13.5575 8.90296 13.4712 8.85445 13.4227 8.7628C13.3742 8.63342 13.3364 8.52021 13.3203 8.42318C13.3041 8.32614 13.2933 8.20755 13.2933 8.07278C13.2933 7.75472 13.3957 7.33962 13.606 6.8221C13.8486 6.21294 13.9941 5.81402 14.0372 5.62534C13.9079 5.81402 13.7947 5.9973 13.703 6.1752C13.579 6.4124 13.4335 6.75203 13.261 7.19946C13.1909 7.45283 13.1154 7.71698 13.0346 7.99731C12.9537 8.27763 12.916 8.52561 12.916 8.74124C12.916 8.92992 12.9483 9.10243 13.0076 9.25876C13.0669 9.41509 13.1639 9.55525 13.2933 9.67924C13.0507 9.98652 12.8081 10.2938 12.5709 10.5957C12.296 10.9569 12.1235 11.2911 12.0534 11.5984C12.0319 11.7008 12.0157 11.7763 12.0103 11.8356C12.0049 11.8949 11.9995 11.9703 11.9995 12.062C11.9995 12.2075 12.0211 12.3315 12.0588 12.4394C12.0965 12.5472 12.1666 12.6388 12.2583 12.7197C12.393 12.8275 12.517 12.903 12.6195 12.9407C12.7219 12.9784 12.8405 13 12.9699 13C13.1262 13 13.2879 12.9623 13.4496 12.8868C13.6114 12.8113 13.7731 12.7143 13.9294 12.6011C14.1828 12.3854 14.4362 12.1752 14.6949 11.965C15.0022 11.7116 15.2664 11.5499 15.482 11.4798C15.5467 11.4367 16.3284 11.1509 17.8324 10.6173C18.3769 10.4232 18.8081 10.1806 19.1154 9.8841C19.2232 9.69542 19.3041 9.51213 19.358 9.32345C19.4119 9.13477 19.4389 8.9407 19.4389 8.74124C19.4389 8.45553 19.3688 8.18598 19.234 7.94339V7.93801ZM18.5548 8.32615C18.4631 8.34232 18.3877 8.3531 18.3284 8.35849C18.2691 8.36388 18.2098 8.36928 18.1451 8.36928C17.9941 8.36928 17.854 8.34771 17.73 8.29919C17.606 8.25067 17.5036 8.16981 17.4335 8.05661C17.455 7.99731 17.4874 7.95957 17.5359 7.94339C17.5844 7.92722 17.6437 7.91105 17.7138 7.89488C17.8701 7.89488 18.0157 7.93262 18.1505 8.00809C18.2852 8.08356 18.42 8.19138 18.5548 8.32615Z" fill="currentColor"/>
</svg>
