<svg width="40" height="16" viewBox="0 0 40 16" fill="none" xmlns="http://www.w3.org/2000/svg">
<path fill-rule="evenodd" clip-rule="evenodd" d="M28.6398 8.87328C28.6481 8.91497 28.6481 8.95248 28.6481 8.99416V9.11505C28.6481 9.32764 28.6231 9.55273 28.5689 9.79033C28.5147 10.0279 28.4439 10.2864 28.3605 10.5657L28.3813 9.36515L27.7311 4.38391C27.7561 4.32555 27.7477 4.24635 27.7061 4.15048C27.6644 4.0546 27.6394 3.98791 27.6394 3.95456C27.6394 3.90037 27.6644 3.85035 27.7186 3.8045C27.7728 3.71279 27.8103 3.64193 27.8269 3.59608C27.8728 3.50854 27.9312 3.45435 27.9979 3.43768C28.1729 3.98374 28.348 4.5298 28.5272 5.08003C28.473 5.06752 28.4272 5.03001 28.3855 4.97165C28.3105 4.86328 28.2438 4.75906 28.1771 4.65068V5.00083L28.6356 8.88161L28.6398 8.87328ZM25.1383 7.33097C25.1383 7.45603 25.1175 7.56023 25.08 7.63526C25.0383 7.7103 24.9883 7.76865 24.9299 7.81034C24.8715 7.83118 24.8215 7.83118 24.7798 7.81034C24.6923 7.76865 24.6506 7.70196 24.6506 7.60192C24.6423 7.56023 24.6423 7.4977 24.6423 7.41017C24.6423 7.23509 24.6756 7.05586 24.7423 6.86828C24.7673 6.79325 24.8424 6.62234 24.9633 6.34723C24.9507 6.40142 24.9132 6.52647 24.8465 6.72655C24.784 6.92663 24.7507 7.08503 24.7507 7.19758C24.7507 7.33097 24.7882 7.45602 24.859 7.56857C24.9341 7.58107 24.9883 7.56023 25.0299 7.51021C25.0508 7.48937 25.08 7.43518 25.1217 7.35181L25.1425 7.33097H25.1383ZM22.1788 3C22.1788 3.05419 22.1579 3.10004 22.1204 3.14172C22.0787 3.18341 22.0287 3.21675 21.9703 3.24176C21.195 3.48353 20.428 3.72113 19.661 3.9629C19.8028 3.77532 20.0362 3.62943 20.3697 3.52105C20.649 3.44185 20.9324 3.35848 21.22 3.27094C21.3451 3.2501 21.5118 3.20842 21.7161 3.14589C21.9203 3.08336 22.0745 3.03335 22.1829 3H22.1788ZM23.1375 5.4802C23.1125 5.53856 23.0875 5.59274 23.0666 5.63443C23.0458 5.67611 23.0124 5.68862 22.9666 5.66778C22.9124 5.61359 22.8499 5.59692 22.7748 5.61776C22.7165 5.70529 22.654 5.90121 22.5956 6.20967C22.5623 6.35556 22.5206 6.47645 22.4747 6.56815C22.3955 6.50146 22.3038 6.34723 22.2038 6.10963C22.1496 5.98457 22.0954 5.88453 22.0454 5.8095C22.0037 5.85119 21.9745 5.88036 21.9537 5.90121C21.9328 5.92205 21.8953 5.92622 21.8453 5.90955C21.8244 5.8887 21.8161 5.85118 21.8161 5.80116C21.8578 5.68862 21.8786 5.60108 21.887 5.54272C21.9537 5.50104 22.0079 5.48437 22.0454 5.48437C22.0787 5.48437 22.1037 5.49687 22.1246 5.52605C22.1829 5.58441 22.2329 5.6636 22.2746 5.75531C22.3872 6.00958 22.4539 6.14714 22.4747 6.17632C22.5164 6.02209 22.5539 5.86786 22.5956 5.7178C22.654 5.53855 22.7498 5.41767 22.8749 5.35931C22.9332 5.37182 22.9833 5.38433 23.0249 5.401C23.0666 5.4135 23.1 5.44268 23.1333 5.4927L23.1375 5.4802ZM26.2388 11.2326C26.2596 11.2993 26.2471 11.3743 26.2096 11.4619C26.1512 11.5619 26.1096 11.6369 26.0887 11.6828C25.9887 11.6828 25.9053 11.6286 25.8386 11.5244C25.8303 11.491 25.8303 11.4368 25.8303 11.366C25.8303 11.1075 25.9095 10.8408 26.072 10.5657C26.0304 10.7574 25.997 10.9491 25.9637 11.1367C25.9637 11.2576 26.0054 11.3618 26.0929 11.4452C26.1346 11.4452 26.1596 11.4243 26.1763 11.3785C26.1929 11.3368 26.2138 11.2868 26.243 11.2326H26.2388ZM18.3563 3.42935C18.2104 3.60442 18.0062 3.75448 17.7477 3.87953L16.4889 4.42142C16.4555 4.44226 16.2971 4.51313 16.0095 4.64235C15.8178 4.72988 15.6635 4.82159 15.551 4.92163C15.6427 4.78824 15.7636 4.66319 15.9095 4.54231C16.0345 4.45477 16.2096 4.36307 16.4305 4.26303C16.7515 4.1213 17.0725 3.98374 17.3893 3.84619C17.7102 3.70863 18.0312 3.57107 18.3605 3.42935H18.3563ZM17.8269 4.82993C17.7853 4.76324 17.7144 4.68403 17.606 4.59649C17.4976 4.50479 17.4018 4.46311 17.3142 4.46311C17.2684 4.46311 17.2225 4.47978 17.1808 4.50896C17.1392 4.53814 17.1058 4.58399 17.085 4.64235C17.085 4.69654 17.0641 4.76323 17.0183 4.84243C16.9766 4.92163 16.9516 4.97999 16.9432 5.01333L17.4434 5.29262C17.5226 5.29262 17.6018 5.2426 17.6727 5.14673C17.7477 5.05085 17.7978 4.94665 17.8228 4.82993H17.8269ZM19.9195 7.53105C19.8736 7.62276 19.8361 7.68945 19.8111 7.73114C19.7569 7.80617 19.6944 7.85202 19.6194 7.87286C19.5735 7.8812 19.5318 7.86869 19.4985 7.83951C19.4651 7.81033 19.4359 7.76865 19.4068 7.71447C19.3859 7.59358 19.4068 7.48103 19.4735 7.37265C19.536 7.26427 19.6235 7.17257 19.7402 7.09337C19.882 7.16007 19.9487 7.26428 19.9487 7.40183C19.9487 7.44769 19.9403 7.49354 19.9195 7.53105ZM18.448 5.5594C18.4064 5.65944 18.348 5.75948 18.2688 5.85952C18.2229 5.91788 18.1771 5.97624 18.1271 6.03043L17.5268 5.70946C17.4851 5.83452 17.4309 5.92622 17.3559 5.98457C17.2809 6.04293 17.1975 6.06794 17.0975 6.06794C16.9557 6.06794 16.7932 6.01376 16.6056 5.90955C16.5931 5.86369 16.6098 5.797 16.6598 5.71363C16.7098 5.63026 16.7307 5.5719 16.7265 5.53856C16.7807 5.47186 16.8265 5.42184 16.8599 5.38849C16.8974 5.35515 16.9391 5.33847 16.9849 5.33847C17.0391 5.33847 17.0933 5.35098 17.1433 5.38016C17.1892 5.37182 17.26 5.401 17.3517 5.46352C17.4434 5.52605 17.506 5.5594 17.531 5.5594C17.5893 5.5594 17.631 5.50104 17.6519 5.38016C17.7102 5.22176 17.8019 5.13839 17.9228 5.13839C17.9812 5.13839 18.0354 5.1634 18.0812 5.20925C18.0896 5.21759 18.1729 5.25927 18.3313 5.33847C18.4397 5.39266 18.473 5.46353 18.4397 5.5594H18.448ZM23.2 10.7032C23.1458 10.9908 23.075 11.2243 22.9791 11.4035C22.8582 11.6369 22.6915 11.8162 22.4789 11.9454C22.6331 11.7536 22.7457 11.6036 22.8207 11.5035C22.9624 11.3243 23.0291 11.1659 23.0291 11.0325C23.0291 10.945 23.0041 10.8616 22.9499 10.7824C22.8499 10.7824 22.7832 10.8283 22.7498 10.9241L22.7081 10.9325C22.754 10.7991 22.7832 10.7241 22.7998 10.7032C22.854 10.6157 22.9249 10.5615 23.0083 10.5448C23.05 10.5365 23.0833 10.5531 23.1166 10.5865C23.15 10.6198 23.175 10.6615 23.1958 10.7074L23.2 10.7032ZM26.6598 5.28011C26.5848 4.97165 26.4722 4.65486 26.318 4.32138C26.2763 4.24218 26.1304 3.94623 25.8761 3.42935C25.7886 3.52939 25.7219 3.6586 25.6761 3.82117C25.6635 3.86702 25.6427 3.94622 25.6177 4.06294C25.7761 4.88828 25.9428 5.74281 26.1179 6.61817C26.293 7.49354 26.4305 8.30221 26.5389 9.04419C26.318 9.22343 26.1137 9.36098 25.9178 9.45269C25.6719 9.57357 25.4426 9.63193 25.2259 9.63193C25.0091 9.63193 24.8257 9.57358 24.6465 9.46103C24.2588 9.16924 23.6836 8.71071 22.9166 8.08962C22.3372 7.62276 21.7494 7.1559 21.1617 6.68487C20.5698 6.21384 19.9903 5.78449 19.4151 5.38849C19.4026 5.33431 19.4234 5.28845 19.4735 5.24677C20.032 5.00083 20.6323 4.78824 21.27 4.60483C21.9078 4.42559 22.5456 4.27136 23.1875 4.14631C23.446 4.09212 24.0921 3.98374 25.1175 3.817C25.2092 3.89204 25.2425 3.95873 25.2175 4.01709C25.105 4.18382 24.8465 4.52146 24.4464 5.02584C23.8711 5.74697 23.521 6.33889 23.3876 6.80575C23.5001 6.49729 23.7544 6.12213 24.1462 5.67612C24.6548 5.10921 24.9591 4.74656 25.0675 4.58399C25.3676 4.15047 25.5176 3.7253 25.5176 3.31263C25.4926 3.2376 25.4426 3.19174 25.3718 3.16673C25.3009 3.14172 25.2175 3.13755 25.1175 3.15006C24.438 3.27511 23.7336 3.4085 23.0124 3.54606C22.2871 3.68362 21.6452 3.83368 21.0783 4.00041C20.3655 4.20884 19.7361 4.45477 19.1983 4.74239C19.0525 4.99666 18.9774 5.26761 18.9774 5.56357C18.9774 5.68862 18.9899 5.80533 19.0191 5.90537C19.6527 6.41809 20.1779 6.88078 20.5906 7.28512C21.145 7.83118 21.591 8.36057 21.9328 8.86494C21.8078 8.98583 21.6744 9.07753 21.541 9.14423C21.4409 9.19008 21.2951 9.2401 21.0991 9.29429C20.9449 9.0817 20.7948 8.90663 20.649 8.77324C20.4572 8.59816 20.2655 8.49395 20.0779 8.45227C20.0362 8.43976 20.0028 8.43143 19.9778 8.43143C19.8653 8.43143 19.7569 8.47311 19.6569 8.56065C19.5318 8.7524 19.4318 8.9233 19.3651 9.0692C19.2775 9.26928 19.2359 9.45269 19.2359 9.61942C19.2359 9.78616 19.2775 9.94456 19.3567 10.0696C19.511 10.178 19.6902 10.228 19.8986 10.228C20.2113 10.1738 20.5281 10.1196 20.849 10.0696L20.8699 10.2197C20.1446 10.945 19.6652 11.3952 19.4401 11.5702C18.8524 12.0163 18.2813 12.2414 17.7311 12.2414C17.606 12.2414 17.4726 12.233 17.3309 12.2122C17.1392 12.1121 17.0058 11.9996 16.9307 11.8704C16.8557 11.7453 16.8224 11.5911 16.8224 11.4118C16.8224 11.2451 16.864 11.0242 16.9432 10.7532C17.11 10.178 17.1933 9.82785 17.1933 9.69446C17.7686 9.54023 18.0812 9.45269 18.1354 9.43601C18.3272 9.35681 18.4939 9.25677 18.6273 9.13589C18.7148 8.97749 18.7732 8.82326 18.8023 8.67737C18.8315 8.53147 18.8482 8.35223 18.8482 8.14798C18.8482 7.95623 18.8107 7.76032 18.7398 7.56857C18.6648 7.37682 18.5647 7.18508 18.4397 6.9975L18.2104 7.406C18.2229 7.49354 18.3021 7.74364 18.4522 8.15632C18.5106 8.33139 18.5481 8.47311 18.5606 8.58566C18.248 8.74406 18.0187 8.84827 17.8686 8.88995C17.7227 8.93164 17.581 8.95665 17.4476 8.95665C17.3142 8.95665 17.21 8.93998 17.1183 8.90663C17.0099 8.84827 16.9349 8.73989 16.8932 8.58566C16.8515 8.43143 16.8099 8.28554 16.7765 8.14381L16.5264 8.72322C16.6515 9.16924 16.7848 9.61526 16.9182 10.0529C16.4764 10.4198 15.9512 10.7824 15.3384 11.1451C14.8299 11.4452 14.2796 11.7411 13.6794 12.0371C13.1208 12.3122 12.5581 12.5873 11.9995 12.8666C12.0412 12.8666 12.0912 12.8499 12.1579 12.8208C12.2246 12.7916 12.2663 12.7707 12.2871 12.7666C12.8415 12.7666 13.3959 12.6624 13.9587 12.4581C14.438 12.283 14.9466 12.0246 15.4801 11.6786C15.7928 11.4785 16.2596 11.1451 16.8807 10.6782C16.7723 11.045 16.714 11.2618 16.7015 11.3285C16.6473 11.5619 16.6223 11.787 16.6223 11.9996C16.6223 12.158 16.6431 12.3205 16.6806 12.4789C16.789 12.6373 16.9224 12.7666 17.0808 12.8583C17.2392 12.95 17.4101 13 17.5893 13C18.002 12.9541 18.4189 12.8124 18.8399 12.579C19.2067 12.3706 19.5693 12.0996 19.932 11.7578C20.1779 11.5244 20.4906 11.1909 20.8615 10.7574C20.9366 10.6824 21.0116 10.524 21.0908 10.2822C21.17 10.0404 21.2784 9.89037 21.4118 9.83618C21.7119 9.74448 21.937 9.54439 22.0829 9.23593C22.2038 8.99 22.2621 8.69404 22.2621 8.3564C22.5748 8.62317 22.8916 8.88995 23.2125 9.15673C23.867 9.70279 24.4214 10.0821 24.8715 10.2989C24.9633 10.3197 25.055 10.3281 25.1425 10.3281C25.3843 10.3281 25.6302 10.2614 25.8845 10.128C26.0429 10.0404 26.2596 9.89871 26.5347 9.69862C26.7015 9.29846 26.7848 8.86494 26.7848 8.39808C26.7848 8.08962 26.7307 7.67694 26.6264 7.15589C26.368 5.8887 26.2304 5.19675 26.2179 5.0842L26.3388 4.93414C26.3638 4.95498 26.418 5.03418 26.4972 5.1759C26.5514 5.26761 26.6098 5.30096 26.6765 5.27595L26.6598 5.28011ZM17.6977 7.28929C17.6977 7.38933 17.6894 7.47686 17.6685 7.55606C17.6477 7.63109 17.6018 7.68945 17.5268 7.73114C17.4601 7.71863 17.4101 7.70196 17.3726 7.68528C17.3351 7.66861 17.3059 7.63526 17.2892 7.58941C17.2892 7.39767 17.3434 7.18508 17.4476 6.95999C17.456 7.00167 17.4476 7.06419 17.4268 7.15589C17.4059 7.2476 17.3976 7.29762 17.3976 7.31013C17.3976 7.39767 17.4393 7.45602 17.5268 7.48937C17.5685 7.48103 17.5977 7.46436 17.6185 7.43935C17.6394 7.41434 17.6644 7.36432 17.6977 7.28929ZM15.7052 5.89704C15.7302 5.95123 15.7302 6.01792 15.7011 6.09712C15.6719 6.17632 15.6427 6.25552 15.6177 6.32639C15.5968 6.3514 15.5635 6.36807 15.5176 6.36807C15.4718 6.36807 15.4259 6.35973 15.3884 6.34723C15.3426 6.31388 15.3051 6.26803 15.2842 6.21384C15.2592 6.15548 15.2509 6.09295 15.2509 6.01792C15.2509 5.95123 15.2509 5.89287 15.2592 5.84285C15.2675 5.79283 15.2759 5.74281 15.2884 5.68862C15.3467 5.57607 15.4134 5.45935 15.4801 5.33847C15.5468 5.21759 15.6219 5.12171 15.7094 5.04668C15.6344 5.17173 15.5635 5.30512 15.4926 5.43851C15.4218 5.5719 15.3884 5.69696 15.3884 5.81784C15.3884 5.93039 15.4218 6.0346 15.4885 6.1263C15.5635 6.14715 15.6094 6.11797 15.6344 6.0346C15.6594 5.9554 15.6844 5.90954 15.7094 5.89287L15.7052 5.89704ZM18.6773 10.8199C18.6565 10.9617 18.6356 11.0617 18.6064 11.1201C18.5606 11.2284 18.4897 11.3035 18.398 11.3493C18.3438 11.3493 18.298 11.3285 18.2646 11.291C18.2271 11.2493 18.2021 11.1993 18.1896 11.1409C18.1896 10.8866 18.2063 10.7074 18.2354 10.6073C18.2646 10.5031 18.3188 10.3947 18.3897 10.2822C18.3897 10.3239 18.3772 10.4073 18.348 10.5406C18.323 10.674 18.3063 10.7657 18.3063 10.8116C18.3063 10.9325 18.348 11.0283 18.4272 11.1034C18.4814 11.0909 18.5272 11.045 18.5731 10.9617C18.6148 10.8825 18.6523 10.8366 18.6773 10.8199ZM14.5256 3.91705C14.5131 3.97541 14.5006 4.02959 14.4839 4.07128C14.4714 4.11296 14.438 4.1213 14.3838 4.09629C14.2838 4.02959 14.2129 4.00458 14.1754 4.01709C14.1004 4.40892 14.0337 4.80075 13.967 5.18841C14.042 5.20925 14.1129 5.26344 14.1879 5.34681C14.3005 5.4802 14.363 5.55106 14.3672 5.55523C14.3422 5.65527 14.2421 5.72196 14.0754 5.75531C13.6669 5.84285 13.4334 5.93872 13.3667 6.0471C13.3667 6.32639 13.3918 6.65152 13.4459 7.01834C13.571 7.88537 13.6377 8.4231 13.6377 8.62735C13.6377 8.90663 13.6252 9.14839 13.6043 9.35265C13.5793 9.5569 13.5251 9.76532 13.4376 9.97791C13.5251 9.71947 13.5668 9.44019 13.5668 9.1484C13.5668 8.99 13.5585 8.82326 13.5377 8.64818C13.4459 7.95623 13.3542 7.25594 13.2667 6.55565C13.2667 6.4431 13.2667 6.33055 13.2709 6.21384C13.2709 6.10129 13.3042 5.97624 13.3667 5.84285C13.4418 5.76365 13.5377 5.69696 13.6585 5.64277C13.7127 5.62193 13.8253 5.58024 14.0003 5.51355C13.9753 5.45519 13.917 5.42184 13.8294 5.42184C13.7627 5.42184 13.7044 5.43851 13.6585 5.47186L13.5168 5.57191C13.496 5.53856 13.496 5.4927 13.5168 5.43851C13.5377 5.38016 13.5627 5.33847 13.596 5.31346C13.6835 5.23843 13.7878 5.19675 13.9045 5.18424C13.8795 5.0967 13.8294 4.98833 13.7627 4.85494C13.6961 4.72155 13.6335 4.5965 13.571 4.47561C13.5627 4.50896 13.5502 4.52563 13.5293 4.52563C13.471 4.50479 13.4251 4.49646 13.4001 4.49646C13.3584 4.48812 13.3209 4.47145 13.2792 4.4381C13.2375 4.40475 13.1958 4.36306 13.15 4.31721C13.1417 4.2922 13.1417 4.25052 13.1417 4.19633C13.1417 4.0546 13.1917 3.93789 13.2917 3.83785C13.4668 3.90454 13.6169 4.07962 13.7502 4.36724C13.8378 4.54648 13.9045 4.66736 13.9503 4.72572C13.9712 4.55898 13.992 4.38808 14.0087 4.21717C14.042 4.01709 14.1171 3.86703 14.2296 3.76699C14.2838 3.75865 14.3297 3.76698 14.363 3.77532C14.4005 3.78782 14.4505 3.83368 14.5172 3.91705H14.5256ZM15.847 7.59775L15.7678 7.80617C15.7136 7.78116 15.6677 7.75614 15.626 7.7353C15.5843 7.71446 15.5468 7.7103 15.5051 7.72697C15.4468 7.81868 15.4009 7.93539 15.3759 8.07711C15.2967 8.45644 15.2467 8.66903 15.2259 8.70654C15.1592 8.66486 15.0883 8.53981 15.0174 8.32722C14.9424 8.11463 14.8424 8.01875 14.7173 8.04793C14.6423 8.00625 14.6089 7.95623 14.6089 7.89788C14.6089 7.87287 14.6173 7.83535 14.6339 7.78949C14.6506 7.74364 14.6673 7.68945 14.6881 7.63109C14.8424 7.58524 14.9549 7.66027 15.0299 7.86036C15.1383 8.16048 15.205 8.32305 15.23 8.35223C15.2842 8.12714 15.3217 7.95206 15.3509 7.83118C15.4093 7.59775 15.4968 7.48104 15.6094 7.48104C15.6677 7.48104 15.7511 7.52272 15.8511 7.60192L15.847 7.59775ZM14.6673 10.3989C14.6673 10.5115 14.6548 10.6073 14.6256 10.6907C14.6006 10.7699 14.5422 10.8283 14.4547 10.8616C14.3963 10.8616 14.3463 10.8074 14.313 10.7032C14.3046 10.6699 14.3046 10.624 14.3046 10.5615C14.3046 10.4364 14.3255 10.3114 14.3713 10.1947C14.413 10.078 14.4755 9.95706 14.5547 9.82784C14.5089 10.0071 14.463 10.1863 14.413 10.3697C14.413 10.4614 14.438 10.5448 14.4922 10.6198C14.5464 10.5782 14.5798 10.5365 14.5964 10.4906C14.6131 10.4448 14.6339 10.4156 14.6631 10.3989H14.6673ZM19.7778 7.56857C19.7653 7.54356 19.7527 7.51021 19.7361 7.47686C19.6944 7.41851 19.6485 7.37265 19.5943 7.34764C19.5693 7.36849 19.5527 7.39767 19.5527 7.43935C19.5527 7.46019 19.561 7.4852 19.5777 7.51855C19.5943 7.5519 19.6069 7.57691 19.611 7.58941C19.6527 7.62276 19.7027 7.61442 19.7694 7.56857H19.7778ZM20.3988 9.4777C20.2988 9.51938 20.1904 9.53606 20.0695 9.53606C19.8486 9.53606 19.6777 9.46936 19.5485 9.33597C19.5485 9.25677 19.5902 9.19842 19.6777 9.16507C19.9653 9.16507 20.2029 9.26928 20.3988 9.47353V9.4777Z" fill="currentColor"/>
</svg>
