<svg width="40" height="16" viewBox="0 0 40 16" fill="none" xmlns="http://www.w3.org/2000/svg">
<path fill-rule="evenodd" clip-rule="evenodd" d="M31.2688 5.35014C31.2164 5.33587 31.1498 5.26926 31.0737 5.15509C30.9976 5.04091 30.9405 4.96955 30.9024 4.93625L30.8121 5.05043C30.8121 5.40247 30.8549 5.94482 30.9357 6.68221C31.0214 7.41961 31.0594 7.97145 31.0594 8.33777V8.74691C31.0594 9.40819 31.0452 9.87916 31.0119 10.1646C30.9595 10.6451 30.8501 11.0875 30.6788 11.5014C30.7074 11.2826 30.7312 11.0162 30.7454 10.7117C30.7597 10.4072 30.7692 10.1123 30.7692 9.83159C30.7692 9.0942 30.7121 8.21408 30.598 7.196C30.4838 6.17793 30.3791 5.20743 30.2792 4.2845C30.2174 4.21789 30.1888 4.14177 30.1888 4.05614C30.1888 3.9705 30.2174 3.88488 30.2697 3.79449C30.4362 3.51856 30.5219 3.38059 30.5219 3.37107C30.7787 3.8373 30.9453 4.14177 31.0119 4.29401C31.1784 4.67459 31.264 5.02664 31.264 5.34538L31.2688 5.35014ZM27.5009 4.86964C27.4486 4.99809 27.3344 5.11704 27.1584 5.2217C26.8825 5.38821 26.6113 5.55471 26.3354 5.72598C26.3068 5.66413 26.3163 5.59753 26.3687 5.52141C26.4448 5.43578 26.5257 5.35014 26.6065 5.25975C26.6065 5.21218 26.5209 5.19315 26.3449 5.19315C26.283 5.16461 26.2545 5.11703 26.2545 5.05519C26.2545 5.01713 26.2688 4.96956 26.2926 4.91247C26.3211 4.85538 26.3496 4.80305 26.3877 4.76023C26.4638 4.69839 26.5447 4.63178 26.6351 4.56042C26.7207 4.48906 26.8016 4.45101 26.8682 4.45101C26.9348 4.45101 26.9919 4.48431 27.0395 4.55567C27.049 4.62227 27.0299 4.68887 26.9824 4.75547C26.9348 4.82207 26.911 4.86013 26.9015 4.8744L26.7873 4.70315C26.7255 4.70315 26.6684 4.71741 26.6161 4.75071C26.5637 4.77925 26.5114 4.81732 26.4543 4.8649C26.559 5.00762 26.7302 5.08373 26.9586 5.08373C27.0109 5.08373 27.0823 5.07422 27.1774 5.05995L27.4962 4.87917L27.5009 4.86964ZM27.6627 5.35014C27.4343 5.46432 27.206 5.57374 26.9776 5.68316C26.8349 5.74977 26.716 5.82113 26.6256 5.89249C26.5352 5.96385 26.4638 6.05424 26.421 6.1589C26.5066 6.10657 26.6161 6.04472 26.754 5.97812C26.8301 5.94957 26.9348 5.90201 27.068 5.8354C27.2012 5.7688 27.3201 5.69743 27.42 5.61655C27.52 5.53568 27.6056 5.44529 27.6674 5.35014H27.6627ZM27.9814 6.91532C27.9957 7.00571 27.9909 7.08659 27.9624 7.15319C27.9338 7.21979 27.9053 7.29592 27.8672 7.38155C27.7911 7.41961 27.7245 7.39106 27.6627 7.29116C27.6484 7.26261 27.6294 7.2198 27.6103 7.17222C27.5913 7.12465 27.5818 7.06756 27.5818 7.00571C27.5818 6.90581 27.6008 6.80114 27.6389 6.69172C27.6769 6.5823 27.7245 6.47289 27.7768 6.36823C27.7673 6.43007 27.7578 6.50143 27.7435 6.57755C27.7293 6.65843 27.7198 6.72027 27.7198 6.76784C27.7198 6.90581 27.7626 7.01998 27.8435 7.11037L27.9814 6.91532ZM29.3182 5.26927C29.2516 4.88868 29.1565 4.55566 29.0423 4.26546C28.9043 3.91342 28.7283 3.62797 28.5047 3.39962C28.4905 3.46146 28.4286 3.56613 28.3287 3.71837C28.224 3.8706 28.1765 3.99429 28.1765 4.08468C28.1765 4.1608 28.1955 4.22741 28.2336 4.28926L28.8615 8.9039C28.8615 8.9039 28.871 9.00856 28.8853 9.18934C28.8996 9.37012 28.9091 9.50333 28.9091 9.57945C28.9091 9.73169 28.8901 9.86013 28.8568 9.96003C28.8235 10.0599 28.7569 10.1551 28.657 10.2407C28.657 10.117 28.6427 9.98382 28.6094 9.8411C28.5808 9.69838 28.5428 9.57469 28.5047 9.47479C27.3867 7.97622 26.2688 6.47288 25.1603 4.9648C25.1127 4.91246 25.0699 4.85537 25.0271 4.79829C24.9843 4.7412 24.9652 4.68411 24.9652 4.63177C24.9652 4.60323 24.9748 4.56518 24.9985 4.52713C25.0509 4.56518 25.1127 4.60324 25.1793 4.64606C25.2459 4.68888 25.303 4.71742 25.3506 4.73169C25.2745 4.55091 25.1222 4.33207 24.8939 4.07993C24.5894 3.7374 24.4134 3.53758 24.3706 3.47574C24.2659 3.56137 24.1898 3.68507 24.1422 3.85157C24.1137 4.01332 24.0851 4.16556 24.0613 4.3178C24.4134 4.86014 24.775 5.3882 25.1555 5.91151C25.5361 6.43482 25.9167 6.95337 26.2973 7.47192C26.7064 7.95718 27.1251 8.44244 27.5437 8.92293C28.0385 9.50333 28.3477 10.0314 28.4667 10.5119C28.0623 10.8925 27.6008 11.216 27.0728 11.4824C26.6303 11.7012 26.1118 11.901 25.5219 12.0771C25.9262 12.0771 26.3687 12.0295 26.8444 11.9391C27.3249 11.8487 27.7293 11.7107 28.067 11.53C28.4762 11.1399 28.7616 10.6641 28.9234 10.0932C29.0471 9.66032 29.1042 9.0942 29.1042 8.40438C29.1042 8.08564 29.0138 7.34824 28.8282 6.18744C28.7521 5.70695 28.7141 5.28829 28.7141 4.93149L28.8282 4.78401C28.9043 4.88392 28.9757 4.96479 29.0471 5.03615C29.1184 5.10751 29.2041 5.18363 29.3087 5.27402L29.3182 5.26927ZM22.6722 4.47955C22.7103 4.53188 22.7055 4.60324 22.6627 4.68411C22.5961 4.81256 22.558 4.88392 22.558 4.88868C22.52 4.95052 22.4676 4.97907 22.3963 4.97907C22.3582 4.97907 22.3297 4.96479 22.3059 4.93149C22.244 4.8411 22.2155 4.7412 22.2155 4.63654C22.2155 4.54615 22.2298 4.45576 22.2631 4.37489C22.2916 4.28925 22.363 4.15605 22.4676 3.97527C22.4819 4.02284 22.4676 4.10847 22.4201 4.23216C22.3725 4.35585 22.3534 4.44624 22.3534 4.49857C22.3534 4.59847 22.4153 4.66032 22.5342 4.69362L22.6722 4.47479V4.47955ZM24.1898 6.29685C24.1422 6.4253 24.0851 6.54425 24.009 6.64891C23.8948 6.78687 23.8092 6.88677 23.7569 6.95813C23.6903 6.92008 23.5808 6.8392 23.4381 6.72027C23.3382 6.63463 23.2716 6.5823 23.2336 6.55852C23.2811 6.43007 23.3382 6.31589 23.4048 6.21599C23.4714 6.11608 23.5618 6.01618 23.6665 5.92103C23.7521 5.94482 23.8425 5.99239 23.9424 6.06851C24.009 6.12084 24.0946 6.19695 24.1945 6.29685H24.1898ZM21.93 3.23787C21.93 3.33777 21.8825 3.40913 21.7873 3.46147C21.6922 3.50904 21.6018 3.55661 21.5209 3.59467C21.0737 3.74691 20.6741 3.88964 20.3316 4.01808C19.989 4.14653 19.6132 4.30352 19.1993 4.4843C19.1993 4.41769 19.2326 4.34158 19.304 4.26546C19.3706 4.18934 19.4467 4.14177 19.5228 4.12749C19.9177 3.97526 20.3268 3.82302 20.7455 3.66603C21.1641 3.50904 21.559 3.36632 21.9348 3.23787H21.93ZM22.3392 6.65366C22.2916 6.69172 22.2298 6.80114 22.1441 6.98668C22.0585 7.16746 21.9681 7.26261 21.8682 7.26261C21.8397 7.26261 21.8016 7.2531 21.754 7.22931C21.7255 7.16271 21.6398 7.0961 21.5019 7.03425C21.3639 6.97241 21.2973 6.92008 21.2973 6.87251C21.2973 6.83445 21.3163 6.79163 21.3544 6.74881L21.8016 6.32541L22.3392 6.65842V6.65366ZM20.5123 5.88773L20.4457 6.14938L20.1127 5.93054C20.0889 6.14462 20.0509 6.34443 19.9985 6.53472C19.9462 6.72502 19.8701 6.9058 19.7702 7.07231C19.7179 7.0057 19.6417 6.83444 19.5418 6.55852C19.4895 6.4158 19.4372 6.30161 19.3801 6.2255C19.3658 6.27307 19.3373 6.29211 19.2992 6.29211C19.2754 6.29211 19.2421 6.28259 19.2041 6.2588C19.1613 6.23501 19.128 6.22074 19.1089 6.21122C19.0804 6.18268 19.0613 6.14462 19.0613 6.10656C19.0613 6.07802 19.0756 6.03045 19.0994 5.96385C19.128 5.89724 19.1375 5.85443 19.1375 5.83064C19.1993 5.79258 19.2612 5.75453 19.3182 5.71647C19.3563 5.71647 19.3848 5.745 19.4086 5.80685C19.5085 5.92102 19.5894 6.06375 19.6465 6.23026C19.7084 6.39677 19.7702 6.55852 19.8273 6.71076C19.8749 6.45386 19.9129 6.23502 19.9462 6.05424C19.9795 5.87346 20.0509 5.72597 20.1555 5.60228C20.2221 5.64034 20.2887 5.68316 20.3506 5.72598C20.4124 5.77355 20.46 5.82112 20.4981 5.87346L20.5123 5.88773ZM24.8986 9.23216C24.9224 9.33206 24.9415 9.42722 24.9557 9.52236C24.97 9.61751 24.9795 9.71266 24.9795 9.80305C24.9795 10.0171 24.9415 10.2122 24.8701 10.393C24.7987 10.5737 24.6798 10.7402 24.5085 10.902C24.3182 11.0067 24.1089 11.0923 23.8806 11.1494C23.6522 11.2065 23.4096 11.235 23.1479 11.235C22.9053 11.235 22.6674 11.2065 22.4343 11.1541C22.2012 11.1018 21.9919 11.0162 21.8016 10.902C21.559 11.0162 21.3068 11.0923 21.0499 11.1351C20.793 11.1779 20.5076 11.197 20.1936 11.197C19.9795 11.197 19.6513 11.1827 19.1993 11.1494C18.7521 11.1208 18.4096 11.1018 18.1812 11.1018C18.0052 11.1018 17.8435 11.1113 17.6912 11.1256C17.1489 11.1779 16.8492 11.2065 16.7873 11.2065C16.4686 11.2065 16.2164 11.1684 16.0357 11.0923C15.793 10.9924 15.598 10.8164 15.4553 10.5547C15.303 10.0599 15.1984 9.51761 15.1413 8.92769C15.0842 8.33778 15.0556 7.70981 15.0556 7.03902C15.0556 6.80115 15.0556 6.43959 15.0652 5.95434C15.0747 5.46909 15.0747 5.10276 15.0747 4.86013C15.0747 4.72217 15.0652 4.59847 15.0509 4.4843C14.9986 4.07516 14.97 3.85157 14.97 3.82303C14.97 3.65652 14.9938 3.51379 15.0366 3.39962C15.0842 3.28544 15.1651 3.18079 15.2888 3.08088C15.3554 3.48526 15.4029 3.88012 15.422 4.27022C15.441 4.66033 15.4505 5.13607 15.4505 5.69743C15.4505 5.9353 15.4505 6.16841 15.4457 6.40152C15.4457 6.63463 15.441 6.86774 15.441 7.10561C15.441 7.62417 15.4505 8.02855 15.4695 8.32826C15.4886 8.62322 15.5314 8.99905 15.6027 9.44624C15.6789 9.62702 15.7645 9.78876 15.8549 9.92673C15.9786 10.1028 16.1213 10.2312 16.2878 10.3168C16.6161 10.0124 16.8492 9.78401 16.9966 9.63177C17.2631 9.35109 17.3963 9.06565 17.3963 8.77545C17.3963 8.71361 17.3963 8.66604 17.3868 8.62798C17.3868 7.85728 17.3439 7.06755 17.2631 6.25404C17.1774 5.44053 17.0633 4.58421 16.9205 3.68506C16.9586 3.5471 17.0157 3.41865 17.0918 3.29495C17.1679 3.17126 17.2535 3.07612 17.3535 3C17.6865 3.55661 17.9434 4.11322 18.1194 4.67935C18.0195 4.66508 17.9291 4.61275 17.8387 4.5176C17.7531 4.42721 17.6674 4.33683 17.5913 4.24168C17.5818 4.34159 17.577 4.42721 17.5723 4.49857C17.5723 4.56993 17.5675 4.63179 17.5675 4.68887C17.5675 4.94577 17.6008 5.44053 17.6722 6.16365C17.7103 6.56802 17.7293 6.8725 17.7293 7.07707C17.7293 7.81446 17.6246 8.53283 17.4105 9.23692C17.5152 9.17507 17.696 9.0371 17.9481 8.82778C18.3525 8.49476 18.6998 8.3235 18.9852 8.3235C19.0376 8.33301 19.0804 8.33302 19.1089 8.33302C19.48 8.39487 19.775 8.47574 19.989 8.57089C20.2792 8.69934 20.5171 8.88487 20.7074 9.13226C20.6313 9.44624 20.5456 9.68886 20.4457 9.86488C20.3173 10.1075 20.1365 10.2931 19.9082 10.4263C19.7559 10.5167 19.5751 10.6023 19.3658 10.6784C19.1565 10.7545 18.9947 10.8116 18.8806 10.8497C19.2897 10.8497 19.6988 10.8069 20.108 10.726C20.5171 10.6403 20.9595 10.5214 21.44 10.3597C21.44 9.90294 21.5257 9.49381 21.6922 9.137C21.892 8.71836 22.1774 8.42341 22.558 8.2569C22.6484 8.24263 22.734 8.27118 22.8102 8.34729C22.8863 8.42341 22.9434 8.50903 22.9814 8.60418C23.0195 8.69933 23.0433 8.7802 23.048 8.84205C23.0575 8.90865 23.0575 8.98954 23.0575 9.08944C23.0575 9.29401 23.029 9.50808 22.9671 9.73644C22.9053 9.96003 22.8435 10.1789 22.7864 10.393C22.9671 10.4405 23.1479 10.4596 23.324 10.4596C23.5666 10.4596 23.7997 10.4215 24.028 10.3454C24.2516 10.2693 24.4657 10.1646 24.675 10.0266C24.637 9.84586 24.5656 9.64604 24.4657 9.43672C24.3611 9.2274 24.2612 9.02283 24.1612 8.82778C24.0994 8.68981 24.0613 8.57565 24.0423 8.4805C24.0233 8.38535 24.0138 8.29019 24.0138 8.1998C24.0138 8.0999 24.028 8 24.0613 7.89534C24.0899 7.79068 24.147 7.68601 24.2231 7.58135C24.3848 7.93339 24.5038 8.1998 24.5894 8.38058C24.7416 8.7136 24.8463 9.0038 24.9082 9.24643L24.8986 9.23216ZM16.1641 3.55662C16.1261 3.56613 16.0975 3.58516 16.0737 3.62321C16.0499 3.66127 16.0261 3.70885 15.9928 3.76118C16.1356 4.04187 16.2117 4.37488 16.2117 4.75547C16.2117 4.95528 16.1879 5.14081 16.1451 5.31684C16.283 5.0647 16.3496 4.76023 16.3496 4.40343C16.3496 4.07517 16.2878 3.79449 16.1689 3.55662H16.1641ZM14.3468 4.55091C14.3325 4.66508 14.3087 4.76023 14.2802 4.83635C14.2279 4.96004 14.1565 5.0314 14.0756 5.05519C14.0233 5.07897 13.971 5.0647 13.9281 5.00761C13.8806 4.95528 13.852 4.91723 13.8378 4.89344C13.8282 4.84586 13.8282 4.78402 13.8282 4.69838C13.8282 4.54615 13.8568 4.37488 13.9139 4.18934C13.971 4.0038 14.0138 3.85633 14.0471 3.75167C14.0614 3.81352 14.0709 3.85632 14.0709 3.87535C14.0709 3.95147 14.0518 4.0609 14.0185 4.20838C13.9852 4.3511 13.9662 4.44624 13.9662 4.4843C13.9662 4.56041 13.9805 4.62226 14.0043 4.66508C14.0328 4.71265 14.0851 4.75072 14.1708 4.77927C14.1946 4.76499 14.2183 4.72218 14.2469 4.66033C14.2754 4.59373 14.3087 4.56042 14.3563 4.55091H14.3468ZM16.754 7.45291C16.7255 7.46242 16.6922 7.50048 16.6636 7.57184C16.6351 7.6432 16.597 7.68125 16.5495 7.68125C16.4876 7.62892 16.4496 7.56708 16.4305 7.50523C16.4115 7.43863 16.402 7.35299 16.402 7.24833C16.402 7.17221 16.4115 7.07707 16.4353 6.95813C16.4591 6.8392 16.4733 6.76784 16.4829 6.74881C16.4067 6.87726 16.3496 6.9962 16.3163 7.11037C16.283 7.21979 16.264 7.33872 16.264 7.47192C16.264 7.55756 16.2735 7.63843 16.2926 7.72406C16.3116 7.8097 16.3401 7.87631 16.3829 7.92864C16.4258 7.98097 16.4781 8 16.5495 7.98573C16.6874 7.85728 16.754 7.68125 16.754 7.46241V7.45291ZM22.1679 11.8249C22.0062 11.9534 21.8206 12.0723 21.6065 12.177C21.3925 12.2816 21.1736 12.3768 20.9453 12.4577C20.7169 12.5385 20.4886 12.6242 20.2554 12.7146C20.0223 12.8049 19.8178 12.9001 19.6465 13C19.618 12.9382 19.6275 12.8763 19.6798 12.8049C19.7084 12.7669 19.7654 12.7193 19.8416 12.667C20.617 12.3863 21.3925 12.1056 22.1727 11.8202L22.1679 11.8249ZM12.8625 3.9372L12.8054 4.14177C12.7531 4.15128 12.6865 4.12274 12.6056 4.05614C12.5247 3.98953 12.4629 3.96574 12.4153 3.98002C12.363 4.09419 12.3106 4.28449 12.2536 4.54615C12.2012 4.8078 12.1679 4.96956 12.1489 5.03141C12.1869 5.06946 12.2916 5.14082 12.4676 5.25024C12.6104 5.33587 12.6865 5.4215 12.6865 5.51189C12.6865 5.53568 12.6817 5.55947 12.6674 5.58801C12.6579 5.61655 12.4676 5.66413 12.1013 5.74025C11.8634 5.79258 11.7065 5.89724 11.6208 6.04948C11.7207 6.53473 11.8206 7.01999 11.9158 7.50048C11.9443 7.70505 11.9634 7.84777 11.9681 7.92864C11.9681 8.00952 11.9729 8.09039 11.9729 8.17602C11.9729 8.45671 11.9348 8.72311 11.8587 8.97526C11.8967 8.79923 11.9158 8.647 11.9158 8.51855C11.9158 8.3568 11.9063 8.21408 11.8825 8.08563C11.8587 7.95718 11.7968 7.71455 11.6874 7.36726C11.6256 7.16269 11.5732 6.96766 11.5352 6.78688C11.4924 6.6061 11.4733 6.43482 11.4733 6.27307C11.4733 6.09229 11.4924 5.94006 11.5304 5.81637C11.597 5.72598 11.6874 5.64986 11.7968 5.58801C11.9063 5.52616 12.03 5.47859 12.1679 5.44053C12.1203 5.36441 12.0537 5.32636 11.9634 5.32636C11.9396 5.32636 11.911 5.33588 11.873 5.35967C11.8254 5.35015 11.7921 5.37393 11.7683 5.42626C11.7445 5.47859 11.7255 5.5119 11.7112 5.51665C11.6874 5.46908 11.6874 5.40724 11.7112 5.32636C11.735 5.24549 11.7635 5.17888 11.8016 5.12654C11.8539 5.08849 11.8967 5.05995 11.9348 5.04568C11.9681 5.03141 12.0109 5.02664 12.0537 5.03615C12.0062 4.9077 11.9586 4.7745 11.911 4.6413C11.8634 4.50809 11.7968 4.37963 11.7112 4.2607C11.7017 4.32255 11.6827 4.35109 11.6446 4.35109C11.6208 4.35109 11.5875 4.33683 11.5399 4.31304C11.4924 4.28449 11.4448 4.25595 11.3972 4.22741C11.3497 4.19887 11.3211 4.14654 11.3211 4.07993C11.3211 4.0276 11.3306 3.97527 11.3449 3.92769C11.3592 3.88012 11.3782 3.82778 11.3972 3.77545C11.4163 3.72312 11.4448 3.69459 11.4829 3.69459C11.5114 3.69459 11.5447 3.70885 11.5732 3.73264C11.6018 3.76118 11.6351 3.78497 11.6636 3.80876C11.754 3.90866 11.8444 4.03712 11.9253 4.19887C11.9396 4.22741 12.0062 4.37488 12.1203 4.63177C12.1584 4.56993 12.1965 4.42722 12.2393 4.19887C12.2821 3.97051 12.3535 3.80876 12.4486 3.71837C12.6151 3.71837 12.7483 3.79449 12.8482 3.94673L12.8625 3.9372ZM16.7445 12.7859C16.6827 12.8145 16.6303 12.8097 16.5923 12.7669C16.5495 12.7241 16.5257 12.6813 16.5162 12.6432C16.5066 12.6004 16.5066 12.548 16.5066 12.4767C16.5066 12.334 16.5352 12.2008 16.5875 12.0818C16.6398 11.9629 16.7207 11.8249 16.8254 11.6632C16.7635 11.8677 16.7017 12.0723 16.6446 12.2816C16.6446 12.3673 16.6684 12.4434 16.7112 12.51C16.7635 12.51 16.8064 12.4719 16.8349 12.4006C16.8634 12.3292 16.8825 12.2864 16.892 12.2816C16.9063 12.3435 16.9158 12.3863 16.9158 12.4053C16.9158 12.4719 16.9015 12.5338 16.8777 12.5861C16.8492 12.6384 16.8064 12.705 16.7445 12.7812V12.7859ZM14.3944 8.74215C14.3944 8.5804 14.3325 8.3901 14.2136 8.17126C14.1517 8.05708 14.0518 7.88582 13.9044 7.65747C13.8378 7.77165 13.7664 7.88583 13.695 8.00476C13.6237 8.1237 13.5856 8.23311 13.5856 8.32826C13.5856 8.41389 13.6142 8.48525 13.6665 8.54709C13.6665 8.58515 13.6665 8.63748 13.657 8.70884C13.7569 9.21788 13.8568 9.72692 13.9662 10.2407C13.519 10.5737 12.9862 10.8925 12.3677 11.1874C11.9491 11.3873 11.3877 11.6204 10.6789 11.8963C9.83205 12.2245 9.27544 12.4434 8.99951 12.5576C9.76069 12.491 10.5266 12.4196 11.2926 12.353C11.8777 12.0866 12.4629 11.8154 13.0528 11.5442C13.7283 11.1779 14.1137 10.6974 14.2041 10.1075C14.2802 9.97906 14.3183 9.85061 14.3183 9.7174C14.3183 9.62701 14.2945 9.49857 14.2516 9.34158C14.166 9.05138 14.128 8.86108 14.128 8.77069C14.128 8.67079 14.1422 8.58991 14.1755 8.51855L14.4039 8.74691L14.3944 8.74215ZM22.7626 9.88391C22.7483 9.76974 22.734 9.65081 22.7293 9.53187C22.715 9.46527 22.6865 9.38916 22.6484 9.31304C22.5723 9.14653 22.4771 9.0609 22.363 9.0609C22.2631 9.0609 22.1489 9.12749 22.0204 9.25594C21.9205 9.35584 21.8349 9.46527 21.7588 9.58896C21.7207 9.70314 21.7588 9.81731 21.8634 9.93149C21.9491 10.0171 22.0062 10.0742 22.0347 10.1027C22.0585 10.1123 22.1013 10.1123 22.1584 10.1123C22.244 10.1123 22.3487 10.0837 22.4771 10.0219C22.6056 9.96004 22.7007 9.91722 22.7626 9.88391ZM20.1365 9.70313C19.9985 9.54138 19.7797 9.40818 19.4752 9.294C19.3135 9.24167 19.1613 9.18458 19.009 9.12273C18.8711 9.08467 18.7521 9.06565 18.657 9.06565C18.324 9.06565 17.9672 9.23215 17.5961 9.56993C17.2821 9.85061 16.9776 10.1313 16.6731 10.4167C16.7731 10.4263 16.8587 10.431 16.93 10.4358C17.0014 10.4358 17.0633 10.4405 17.1203 10.4405C17.6056 10.4405 18.1289 10.3644 18.6855 10.2122C19.0185 10.1218 19.5085 9.95528 20.146 9.70789L20.1365 9.70313Z" fill="currentColor"/>
</svg>
