<svg width="40" height="16" viewBox="0 0 40 16" fill="none" xmlns="http://www.w3.org/2000/svg">
<path fill-rule="evenodd" clip-rule="evenodd" d="M29.256 3.80311C29.2366 3.85493 29.2301 3.93265 29.2301 4.03627C29.2301 4.08161 29.2301 4.14638 29.243 4.23058C29.2495 4.31477 29.256 4.37953 29.256 4.42487C29.256 4.57383 29.2106 4.69041 29.1265 4.78756L28.971 4.63213C28.6601 4.99482 28.3039 5.31218 27.8959 5.59067C27.585 5.79793 27.177 6.01814 26.6653 6.2513C27.3972 5.68783 28.1355 5.12436 28.8803 4.55441C28.8544 4.49612 28.7702 4.41839 28.6277 4.3342C28.4853 4.25 28.414 4.17228 28.414 4.10103C28.414 4.06865 28.4334 4.01036 28.4723 3.93912C28.5112 3.86787 28.5759 3.79663 28.6731 3.72539C28.7249 3.693 28.822 3.6412 28.9581 3.58291C29.0293 3.56348 29.0876 3.58291 29.1394 3.62177C29.1912 3.6671 29.2301 3.72539 29.256 3.80311ZM29.4114 6.13471L28.7638 5.70726L28.1679 6.10881C28.1096 6.18005 28.0772 6.23186 28.0772 6.2772C28.0772 6.34844 28.1614 6.41321 28.3363 6.47798C28.5112 6.54274 28.6083 6.60751 28.6342 6.6658C28.7119 6.71762 28.7767 6.74352 28.8285 6.74352C28.9257 6.74352 29.0293 6.65285 29.1394 6.46503C29.2495 6.27721 29.3402 6.1671 29.4114 6.13471ZM27.0669 4.65803C27.0215 4.65803 26.9827 4.69042 26.9503 4.76166C26.892 4.87176 26.8208 4.92358 26.743 4.90415C26.6912 4.82643 26.6653 4.73575 26.6653 4.63213C26.6653 4.54793 26.6847 4.43135 26.7171 4.29534C26.7495 4.15933 26.7689 4.06865 26.7689 4.02332C26.743 4.07513 26.6977 4.17228 26.6265 4.30829C26.5293 4.51555 26.484 4.69042 26.484 4.82643C26.484 4.96244 26.5293 5.09197 26.6135 5.20208C26.7625 5.20208 26.8661 5.13731 26.9373 5.00778C26.9827 4.89767 27.0215 4.78109 27.0669 4.65803ZM23.8156 4.78756C23.7832 4.91062 23.7573 5.00777 23.7379 5.09197C23.7184 5.17616 23.6731 5.23446 23.5954 5.26684H23.4011C23.3298 5.26684 23.278 5.24741 23.2456 5.20208C23.1614 5.31218 23.0902 5.38989 23.0384 5.43523C22.9412 5.51295 22.8505 5.55181 22.7534 5.55181C22.7081 5.55181 22.6498 5.53886 22.572 5.51296C22.4943 5.48705 22.4425 5.42876 22.4166 5.33161C22.3907 5.23446 22.3713 5.16321 22.3648 5.1114C22.3648 4.96243 22.3842 4.8329 22.4231 4.70984C22.4619 4.58679 22.5267 4.48316 22.6109 4.39897C22.6109 4.4443 22.6044 4.52202 22.585 4.63213C22.5656 4.74223 22.5591 4.82643 22.5591 4.87824C22.5591 5.02721 22.6174 5.13083 22.7275 5.20208C22.8117 5.22798 22.8829 5.22798 22.9347 5.20208C22.9866 5.16969 23.0448 5.11788 23.1161 5.04016V4.71633C23.1161 4.6127 23.1226 4.52202 23.142 4.4443C23.1614 4.36658 23.2003 4.30829 23.2586 4.26295C23.2521 4.43782 23.2456 4.56088 23.2456 4.6386C23.2456 4.78756 23.2845 4.88472 23.3622 4.93653C23.3816 4.95596 23.414 4.96243 23.4723 4.96243H23.5954C23.6213 4.90414 23.6213 4.807 23.5954 4.67099C23.563 4.53498 23.55 4.45078 23.55 4.4184C23.55 4.31477 23.5954 4.24353 23.6925 4.19819L23.822 4.79404L23.8156 4.78756ZM25.3959 5.40933C23.9386 5.95984 22.4814 6.51684 21.0306 7.06736C20.9464 7.09326 20.8752 7.14507 20.8298 7.21632C20.7845 7.28756 20.7391 7.38472 20.6938 7.49482C21.0306 7.31347 21.4192 7.1386 21.8596 6.97668C22.0669 6.89896 22.4684 6.76295 23.0643 6.56218C23.142 6.52979 23.4464 6.40674 23.984 6.19948C24.6316 5.94689 25.1044 5.68782 25.3959 5.40933ZM20.8104 4.76166C20.7651 4.88472 20.7327 4.97539 20.7068 5.03368C20.6485 5.15673 20.5837 5.23446 20.5254 5.26684C20.4736 5.27332 20.4283 5.24741 20.3829 5.18912C20.3765 5.18265 20.3441 5.13083 20.2923 5.03368C20.2858 4.98834 20.2793 4.93005 20.2793 4.85233C20.2793 4.59974 20.3635 4.36658 20.5254 4.15285C20.4995 4.32772 20.4736 4.49611 20.4477 4.65803C20.4477 4.78756 20.4866 4.88472 20.5643 4.95596C20.6161 4.96244 20.6614 4.93653 20.6938 4.87176C20.7262 4.80699 20.7651 4.76814 20.8104 4.76166ZM18.3752 3C18.2651 3.13601 18.129 3.2526 17.9736 3.34975C17.8182 3.4469 17.6498 3.53109 17.4619 3.60881C17.2741 3.68653 17.0993 3.76425 16.9244 3.84197C16.7495 3.91969 16.5876 4.01684 16.4322 4.12695C16.5163 3.96503 16.6265 3.82902 16.756 3.73187C16.8855 3.63472 17.0604 3.53757 17.2871 3.44042C17.5267 3.35622 17.7081 3.29145 17.8311 3.24612C18.0578 3.16192 18.2391 3.07772 18.3752 3ZM22.9866 7.93523C22.9542 8.05829 22.9218 8.13601 22.8894 8.17487C22.857 8.21373 22.8117 8.21373 22.7534 8.16839C22.6951 8.1101 22.6044 8.07124 22.4814 8.05181C22.4037 8.3627 22.3454 8.58938 22.313 8.73834C22.2417 9.00389 22.1511 9.21114 22.041 9.34715C22.0086 9.28886 21.9438 9.15285 21.8531 8.95207C21.7625 8.7513 21.6912 8.61528 21.6394 8.54404H21.3544C21.335 8.41451 21.3544 8.29145 21.3868 8.18135C21.4257 8.07124 21.4904 7.98704 21.5876 7.93523C21.6912 8.03886 21.7884 8.18782 21.8855 8.38212C21.9827 8.57642 22.0733 8.76425 22.1575 8.9456C22.1899 8.73187 22.2288 8.51166 22.2741 8.28498C22.3454 8.02591 22.4555 7.83808 22.6109 7.71502C22.6951 7.76036 22.7728 7.79275 22.8311 7.81865C22.8894 7.84456 22.9412 7.88342 22.9866 7.93523ZM30.4736 10.8497C30.5448 10.6878 30.5772 10.5259 30.5772 10.3705C30.5772 10.1956 30.5319 9.98834 30.4477 9.7487C30.4153 9.64508 30.3376 9.45726 30.2145 9.17876C30.0526 8.89379 29.8713 8.6671 29.6705 8.50518C29.4438 8.31736 29.1977 8.20725 28.9192 8.18135C28.6601 8.23316 28.4334 8.36917 28.2327 8.59585C27.9995 8.8614 27.8052 9.26943 27.6498 9.81347C27.734 10.2215 27.9866 10.4676 28.4011 10.5518C28.6342 10.5972 29.0034 10.636 29.5151 10.6813C29.7547 10.7526 29.8972 10.8044 29.936 10.8368C29.9749 10.8692 30.0138 10.9857 30.0461 11.1736C29.4762 11.4391 28.7702 11.6464 27.9347 11.7953C27.2029 11.9054 26.471 12.0155 25.7456 12.1192C26.0759 12.0091 26.348 11.7889 26.5617 11.4585C26.7495 11.1671 26.8726 10.8368 26.9244 10.4741C26.8013 10.215 26.5941 9.98834 26.2897 9.80052C26.1018 9.67746 25.8298 9.54793 25.4736 9.39897C25.3376 9.32125 25.2081 9.26943 25.085 9.24352C24.9619 9.21762 24.8324 9.20466 24.6964 9.20466C24.1265 9.20466 23.4529 9.62565 22.6757 10.4741C22.1316 11.07 21.7754 11.4391 21.6135 11.5751L21.0824 11.2772C20.9788 11.193 20.8946 11.0959 20.8298 10.9987C20.7651 10.9016 20.7327 10.7979 20.7327 10.6943C20.7327 10.6425 20.7327 10.5972 20.7456 10.5648C20.6226 10.6425 20.4995 10.7785 20.37 10.9663C20.1951 11.2254 20.0915 11.3743 20.0591 11.4067C19.8518 11.6334 19.6122 11.7435 19.3337 11.7435C19.2236 11.7435 19.12 11.7241 19.0228 11.6917C18.8998 11.6334 18.8091 11.5557 18.7443 11.4585C18.6796 11.3614 18.6148 11.2383 18.5565 11.0829V9.20466C18.5565 8.04534 18.5306 7.03498 18.4788 6.17358C18.427 5.31218 18.3169 4.48316 18.155 3.68653C18.0189 3.91969 17.8829 4.14637 17.7534 4.37305C17.8765 5.35751 17.9671 6.23835 18.0319 7.02202C18.0967 7.8057 18.129 8.56347 18.129 9.29534C18.129 9.31477 18.1355 9.47021 18.155 9.77461C18.1744 10.079 18.1809 10.2863 18.1809 10.4093C18.1809 10.6166 18.1614 10.8044 18.1226 10.9793C18.0837 11.1541 18.0189 11.3031 17.9218 11.4326C17.6822 11.7241 17.3842 11.8731 17.028 11.8731C16.9179 11.8731 16.8078 11.8601 16.7042 11.8342C16.6005 11.7889 16.5293 11.7306 16.4904 11.6593C16.4516 11.5881 16.4322 11.5039 16.4322 11.4067C16.4386 11.329 16.4516 11.2513 16.4581 11.1736C16.4645 11.0959 16.471 11.0246 16.471 10.9534C16.471 10.8497 16.4451 10.7655 16.3998 10.7073C16.3544 10.649 16.2638 10.6101 16.1342 10.6036C15.234 10.921 14.3402 11.2448 13.4529 11.5622C13.0189 11.6852 12.6044 11.7824 12.1964 11.8601C11.7884 11.9378 11.3998 11.9767 11.0306 11.9767C10.5384 11.9767 10.085 11.899 9.6705 11.7435C9.25599 11.5881 8.90625 11.3355 8.62127 10.9922C8.45936 10.7655 8.37516 10.4676 8.37516 10.0984C8.37516 9.84586 8.4205 9.6127 8.50469 9.39897C8.31687 9.75518 8.16143 10.1049 8.05133 10.4482C8.04485 10.5 8.0319 10.5712 8.01894 10.6619C8.00599 10.7526 7.99951 10.8368 7.99951 10.9145C7.99951 11.4262 8.18086 11.8277 8.54355 12.1192C8.85443 12.3718 9.18475 12.5466 9.52801 12.6503C9.87127 12.7539 10.2599 12.8057 10.6938 12.8057C11.1277 12.8057 11.6459 12.7409 12.2223 12.6114C12.6303 12.5272 13.1096 12.3977 13.6601 12.2228C13.7702 12.1904 14.1977 12.0155 14.9296 11.7047C15.4283 11.4909 15.8622 11.3808 16.2249 11.3808C16.199 11.5427 16.186 11.6593 16.1796 11.7241C16.1796 11.7889 16.1796 11.8666 16.1796 11.9637C16.1796 12.0933 16.1925 12.2034 16.2119 12.294C16.2314 12.3847 16.2702 12.4689 16.322 12.5466C16.4062 12.6308 16.5099 12.6826 16.6329 12.7021C16.756 12.7215 16.9114 12.7345 17.0993 12.7539C17.3583 12.7215 17.5915 12.5984 17.8052 12.3977C18.0189 12.1969 18.155 11.9637 18.2132 11.7047L18.3816 12.1451C18.5112 12.43 18.7508 12.592 19.107 12.6244C19.4114 12.6244 19.6834 12.4883 19.936 12.2098C20.085 12.0544 20.2663 11.7889 20.4801 11.4067C20.5578 11.4326 20.6355 11.5492 20.7068 11.75C20.778 11.9508 20.8622 12.0868 20.9594 12.1451C21.0047 12.2034 21.0241 12.2617 21.0241 12.3135C21.0241 12.3459 20.9529 12.4948 20.8169 12.7539C20.7651 12.851 20.7521 12.9288 20.778 13L21.335 12.43C21.7042 12.5661 22.1446 12.6373 22.6433 12.6373C22.8959 12.6373 23.1938 12.6179 23.5371 12.5725C23.8803 12.5272 24.1718 12.4883 24.4049 12.443C24.6705 12.5402 24.9555 12.6114 25.2469 12.6632C25.2663 12.6632 25.5513 12.7021 26.1148 12.7798C26.9632 12.6503 27.8052 12.5207 28.6537 12.3912C29.12 12.2811 29.4891 12.1192 29.7676 11.9119C30.1044 11.6528 30.3441 11.2966 30.4801 10.8497H30.4736ZM16.2767 7.01554C16.2767 7.09974 16.2573 7.19041 16.2184 7.28109C16.1796 7.37176 16.1277 7.46891 16.0695 7.57254C16.0241 7.59844 15.9723 7.6114 15.914 7.6114C15.8557 7.6114 15.8039 7.59197 15.7715 7.54663C15.7391 7.47539 15.7132 7.39767 15.6938 7.30052C15.6744 7.20337 15.6679 7.11269 15.6679 7.0285C15.6679 6.82124 15.7003 6.62047 15.7715 6.42617C15.8428 6.23187 15.9399 6.01814 16.0695 5.78498C16.063 5.81088 16.0176 5.95337 15.9334 6.21891C15.8493 6.48446 15.8104 6.68523 15.8104 6.8342C15.8104 7.01554 15.8622 7.17098 15.9658 7.30052C16.063 7.32642 16.1277 7.28757 16.1731 7.18394C16.2184 7.08031 16.2508 7.02202 16.2767 7.01554ZM12.1446 3.9715C12.1446 3.9715 12.164 4.04274 12.1446 4.10103C12.1252 4.15932 12.1122 4.21114 12.0928 4.25648C12.0086 4.25 11.9179 4.25648 11.8272 4.27591C11.7366 4.29534 11.6783 4.35363 11.6524 4.43782C11.6524 4.67098 11.6394 4.86528 11.62 5.02072C11.6005 5.17616 11.5552 5.3316 11.484 5.48704C11.3739 5.4158 11.2702 5.28627 11.186 5.08549C11.0759 4.8329 10.9917 4.67746 10.9399 4.60621C10.9399 4.65803 10.9075 4.68394 10.8363 4.68394H10.7586C10.7262 4.66451 10.7003 4.65803 10.6938 4.65803C10.6226 4.61269 10.5902 4.54145 10.5902 4.43782C10.5902 4.36658 10.5967 4.30829 10.6161 4.26295C10.6355 4.21761 10.6485 4.16581 10.6614 4.10752C10.6744 4.04923 10.7132 4.02332 10.7715 4.02332C10.9205 4.09456 11.05 4.24352 11.1601 4.47668C11.3091 4.78109 11.4062 4.96243 11.4581 5.03368C11.4904 4.72927 11.5358 4.47668 11.5811 4.26295C11.6265 4.04922 11.7495 3.9456 11.9503 3.9456C12.0345 3.9456 12.0993 3.95207 12.1446 3.9715ZM14.2689 6.91192C14.1977 6.95726 14.1265 7.05441 14.0423 7.20337C13.9581 7.35233 13.8739 7.44948 13.7897 7.49482L13.0384 7.01554L12.5332 7.62435C12.3195 7.54663 12.164 7.48186 12.0669 7.43005C11.879 7.32642 11.7689 7.20337 11.743 7.06736C11.892 6.86658 12.0345 6.6658 12.1834 6.45855C12.3324 6.51036 12.4749 6.57513 12.6174 6.65285C12.7599 6.73057 12.9024 6.80829 13.0513 6.88601L13.5954 6.2772C13.7702 6.3873 13.9127 6.48446 14.0228 6.56218C14.256 6.71762 14.3402 6.8342 14.2689 6.91192ZM12.1057 9.38601C12.1381 9.46373 12.1381 9.54793 12.0928 9.6386C12.0474 9.72927 12.0086 9.81995 11.9632 9.90415C11.8596 9.92358 11.756 9.93653 11.6524 9.94301C11.5811 9.8329 11.5487 9.69689 11.5487 9.54145C11.5487 9.38601 11.5876 9.21114 11.6718 9.01684C11.756 8.82254 11.8337 8.64119 11.9114 8.46632C11.9114 8.55052 11.879 8.69301 11.8078 8.88083C11.7366 9.06865 11.7042 9.21761 11.7042 9.32124C11.7042 9.4443 11.7366 9.54792 11.8078 9.64507C11.892 9.6645 11.9568 9.62565 12.0021 9.54145C12.0474 9.45726 12.0798 9.40544 12.1057 9.38601ZM9.83889 5.33161C9.78708 5.48705 9.56687 5.88213 9.17827 6.52332C8.87386 7.02202 8.7249 7.44949 8.7249 7.79275C8.7249 8.02591 8.78319 8.25259 8.89329 8.47928C8.94511 8.557 9.01635 8.59585 9.10055 8.59585C9.15884 8.59585 9.23656 8.57642 9.32076 8.54404C9.35314 8.51813 9.392 8.4728 9.42438 8.40155C9.49563 8.27202 9.54744 8.20078 9.59278 8.18135C9.48915 8.54404 9.40495 8.81606 9.33371 8.99741C9.20417 9.33419 8.99044 9.47668 8.68604 9.42487C8.55003 9.32124 8.4464 9.19171 8.38811 9.04275C8.32982 8.89378 8.29744 8.73187 8.29744 8.56995C8.29744 8.36917 8.3363 8.13601 8.41402 7.85751C8.51765 7.54663 8.58889 7.32642 8.62127 7.19689C8.77024 6.85362 8.94511 6.51684 9.15236 6.18653C9.35961 5.85622 9.5863 5.57125 9.83889 5.33161ZM28.9969 4.17876V4.02332C28.9904 3.93912 28.9451 3.89379 28.8674 3.89379C28.8091 3.89379 28.7508 3.91969 28.699 3.9715C28.7961 4.04275 28.8933 4.10752 28.9969 4.17876ZM29.5539 9.76166C29.2236 9.76166 28.9775 9.74222 28.8026 9.69689C28.5436 9.62564 28.3557 9.49611 28.2456 9.29534C28.2003 9.21114 28.1873 9.15285 28.2068 9.12695C28.3104 9.07513 28.4205 9.04922 28.5306 9.04922C28.7184 9.04922 28.9127 9.12047 29.1005 9.25648C29.2884 9.39249 29.4438 9.56088 29.5539 9.76166ZM26.3285 11.1995C25.8169 11.3744 25.3052 11.5104 24.7871 11.6075C24.2689 11.7047 23.7508 11.7565 23.2327 11.7565C23.0254 11.7565 22.8052 11.75 22.5785 11.7306C22.3518 11.7111 22.1511 11.6852 21.9891 11.6528C22.7081 10.921 23.1355 10.5065 23.2715 10.4093C23.6083 10.1762 23.9386 10.0596 24.2689 10.0596C24.7676 10.1632 25.1627 10.2798 25.4477 10.4093C25.8557 10.5972 26.1472 10.8627 26.3285 11.1995Z" fill="currentColor"/>
</svg>
