<svg width="40" height="16" viewBox="0 0 40 16" fill="none" xmlns="http://www.w3.org/2000/svg">
<path fill-rule="evenodd" clip-rule="evenodd" d="M29.0835 7.88595C29.096 7.99931 29.1086 8.13787 29.1128 8.30582C29.117 8.47377 29.1212 8.62492 29.1212 8.76348C29.1212 9.18755 29.0877 9.56964 29.0247 9.90554C28.9617 10.2456 28.8441 10.5857 28.6762 10.93C28.7098 10.7495 28.735 10.5521 28.7476 10.3464C28.7601 10.1407 28.7685 9.93492 28.7685 9.74178C28.7685 9.19594 28.7098 8.57453 28.5922 7.87754C28.4746 7.18055 28.3571 6.48357 28.2395 5.78658C28.1219 5.08959 28.0632 4.47238 28.0632 3.92655C28.0632 3.79219 28.0967 3.65362 28.1681 3.51507C28.2395 3.37231 28.3319 3.26735 28.4452 3.19177C28.4788 3.28414 28.5754 3.51927 28.7392 3.89715C28.9533 4.401 29.0625 4.80408 29.0625 5.10639L28.7182 4.63193L28.6258 4.78308C28.7727 5.81597 28.9239 6.85306 29.0793 7.88595H29.0835ZM24.8091 5.4087C24.7839 5.42129 24.6622 5.45907 24.4481 5.51786C24.3347 5.55145 24.2213 5.61024 24.1038 5.69841C23.9484 5.67742 23.8518 5.60183 23.8098 5.46747C23.8098 5.42129 23.8098 5.34991 23.8014 5.25754C23.793 5.16517 23.793 5.09379 23.793 5.0476C23.793 4.95523 23.8014 4.86706 23.8224 4.79148C23.8434 4.71591 23.8812 4.64452 23.9442 4.58574C23.9652 4.62772 23.9736 4.69072 23.9736 4.77889C23.9736 4.83347 23.9736 4.88806 23.9652 4.95104C23.9568 5.00982 23.9526 5.06859 23.9442 5.12317C23.9442 5.24494 23.9904 5.33312 24.087 5.38351C24.1457 5.4045 24.1961 5.4003 24.2339 5.3793C24.2717 5.35411 24.3011 5.31212 24.3305 5.25333C24.3305 5.19875 24.3221 5.12318 24.3053 5.02241C24.2885 4.92164 24.2801 4.85866 24.2801 4.82927C24.2801 4.7411 24.3053 4.66131 24.3515 4.58574C24.3851 4.61933 24.4103 4.73689 24.4229 4.93843C24.4355 5.13997 24.532 5.22815 24.7042 5.19876C24.7252 5.14418 24.721 5.0644 24.6958 4.95104C24.6706 4.84187 24.6538 4.77469 24.6538 4.7537C24.6538 4.67812 24.679 4.61513 24.7252 4.56055C24.7798 4.73689 24.8133 4.85446 24.8301 4.91744C24.8469 4.98042 24.8553 5.0602 24.8553 5.15257C24.8553 5.24494 24.8427 5.32892 24.8133 5.4045L24.8091 5.4087ZM24.5068 3.90554C24.532 3.87196 24.5488 3.83418 24.5488 3.79639C24.5488 3.7628 24.5152 3.7124 24.4522 3.64102C24.3893 3.56964 24.3557 3.51087 24.3557 3.46468C24.3557 3.4101 24.3809 3.35551 24.4355 3.30513C24.4229 3.27154 24.4019 3.20016 24.3767 3.09519C24.3515 3.01962 24.2969 2.99022 24.2171 3.00282C24.0366 3.0826 23.9064 3.21276 23.835 3.38491C23.814 3.42689 23.8056 3.46048 23.8056 3.48567C23.8056 3.54445 23.8476 3.61163 23.9358 3.67881C24.0576 3.77118 24.1205 3.82157 24.1289 3.82997C23.4655 4.44718 22.8021 5.06439 22.1429 5.67321C22.672 5.32891 23.0457 5.0728 23.2598 4.89645C23.6629 4.57315 23.9736 4.23724 24.1961 3.88875C24.2381 3.86355 24.2801 3.87615 24.3263 3.93074C24.3725 3.98532 24.4019 4.01471 24.4187 4.02311C24.4732 3.98112 24.5026 3.94754 24.511 3.91395L24.5068 3.90554ZM24.7672 7.46187C24.7881 7.55005 24.7588 7.66761 24.6874 7.81456C24.6454 7.89014 24.6118 7.95732 24.5782 8.0245C24.5236 8.0161 24.4858 7.99091 24.4606 7.94893C24.4355 7.90694 24.4103 7.84815 24.3851 7.77257C24.3767 7.73059 24.3767 7.67601 24.3767 7.60044C24.3767 7.43249 24.4019 7.26453 24.4564 7.09658C24.4774 7.0294 24.5446 6.87405 24.658 6.63472C24.616 6.74389 24.5824 6.85726 24.553 6.97902C24.5236 7.10078 24.5068 7.21415 24.5068 7.32332C24.5068 7.47027 24.5404 7.60044 24.6076 7.718L24.7672 7.46607V7.46187ZM21.0975 3.66202L21.0177 3.90554C20.9925 3.90554 20.9379 3.88455 20.8581 3.83836C20.7784 3.79638 20.7196 3.77118 20.686 3.77118C20.6104 3.77118 20.5726 3.82997 20.5642 3.94333C20.539 4.17006 20.5138 4.36321 20.4928 4.52276C20.4719 4.68231 20.4215 4.81248 20.3417 4.92164C20.2661 4.83347 20.1905 4.68652 20.1066 4.47658C20.0226 4.26664 19.9512 4.12389 19.8882 4.04411C19.8672 4.10289 19.8294 4.13648 19.7791 4.13648C19.7539 4.13648 19.7119 4.11969 19.6531 4.0819C19.5943 4.04411 19.5691 3.98953 19.5691 3.91395C19.5691 3.88036 19.5775 3.83836 19.5943 3.78378C19.6111 3.72919 19.6279 3.67882 19.6489 3.63263L19.7077 3.52346C19.8672 3.57804 20.0016 3.71241 20.1108 3.92655C20.1989 4.10709 20.2871 4.28763 20.3711 4.47238C20.4047 4.25824 20.4425 4.08189 20.4802 3.94753C20.5474 3.746 20.6356 3.59064 20.7406 3.48567C20.7994 3.50667 20.8623 3.52766 20.9253 3.55285C20.9883 3.57805 21.0429 3.61583 21.0933 3.67042L21.0975 3.66202ZM17.7427 4.33801C17.7637 4.40519 17.7427 4.48917 17.6923 4.59414C17.6377 4.69911 17.5999 4.75789 17.5831 4.77048C17.5663 4.78308 17.5369 4.79148 17.5033 4.79148C17.4026 4.79148 17.327 4.7369 17.2808 4.63193C17.2682 4.57735 17.2598 4.50597 17.2598 4.4094C17.2598 4.28344 17.2724 4.17427 17.3018 4.0819C17.327 3.98953 17.411 3.81317 17.5453 3.55285C17.4991 3.70821 17.4614 3.82998 17.4404 3.92655C17.4152 4.01892 17.4068 4.10289 17.4068 4.17007C17.4068 4.32542 17.474 4.43879 17.6083 4.51437L17.7511 4.34222L17.7427 4.33801ZM26.4508 5.035C26.4173 4.75789 26.3291 4.45559 26.1905 4.12389C26.0478 3.79219 25.9134 3.46888 25.779 3.16237C25.6699 3.22955 25.5859 3.33032 25.5187 3.46468C25.4851 3.52347 25.439 3.64942 25.376 3.83836C25.5355 4.73269 25.7035 5.66902 25.8798 6.64313C26.0562 7.62143 26.1401 8.49056 26.1401 9.25893C25.926 9.41848 25.6615 9.55704 25.3424 9.66621C25.0275 9.77537 24.553 9.93492 23.9232 10.1365C23.6125 10.2708 23.306 10.443 22.9953 10.6487C22.735 10.8293 22.4537 11.0518 22.1597 11.3121C21.8322 11.606 21.5509 11.8412 21.3242 12.0091C21.0009 12.2526 20.6986 12.4248 20.4173 12.5339C20.3165 12.5214 20.2241 12.4962 20.1444 12.4626C20.0646 12.429 19.9974 12.3786 19.9428 12.3114C19.7665 12.1435 19.6825 11.9461 19.6825 11.7152C19.6825 11.5892 19.7077 11.4297 19.7539 11.2407C20.3459 10.9258 20.7742 10.6823 21.0429 10.5144C21.5047 10.2246 21.9036 9.92234 22.2311 9.60743C22.5124 9.17916 22.6552 8.6753 22.6552 8.10428C22.6552 7.92373 22.6384 7.74319 22.6048 7.57104C22.5712 7.3947 22.5208 7.23934 22.4537 7.09658C22.3067 6.89504 22.1597 6.73969 22.0212 6.63472C21.8322 6.48777 21.6433 6.41219 21.4586 6.41219C21.3998 6.41219 21.3326 6.42059 21.257 6.44158C21.0345 6.62213 20.8497 6.84466 20.7028 7.10498C20.581 7.32751 20.476 7.59204 20.3921 7.90275C20.4341 8.23864 20.7112 8.43178 21.2318 8.48216C21.7525 8.53255 22.0548 8.59133 22.1429 8.65851C22.1513 8.6921 22.1891 8.76348 22.2647 8.86845C22.3109 8.93563 22.3235 9.0154 22.2941 9.11197C21.9456 9.36809 21.5971 9.59902 21.257 9.80896C20.9463 9.98951 20.5936 10.1826 20.1905 10.3842C20.2241 10.3296 20.2745 10.2498 20.3459 10.1491C20.4173 10.0441 20.4551 9.95592 20.4635 9.88034L20.01 10.5437C19.5733 10.7915 19.1031 11.0392 18.5992 11.2911C18.4313 11.3709 17.9484 11.5976 17.1465 11.9671C16.5334 12.2484 16.0548 12.4752 15.7063 12.6431C16.4537 12.5339 17.1213 12.3954 17.7133 12.219C18.4439 12.0049 19.0653 11.732 19.5775 11.4045C19.5355 11.5598 19.5187 11.7152 19.5187 11.8789C19.5187 12.0805 19.5523 12.2652 19.6195 12.4332C19.6867 12.6011 19.7959 12.7439 19.9512 12.8572C20.1108 12.9496 20.2745 13 20.4341 13C20.6944 13 21.0471 12.8069 21.4837 12.4248C21.7525 12.1896 21.9498 12.0301 22.08 11.9503C22.5418 11.5388 23.1464 11.1778 23.8854 10.8628C24.532 10.6151 25.1744 10.3674 25.821 10.1155C26.0772 9.90554 26.2535 9.66201 26.3543 9.37649C26.455 9.09098 26.5054 8.75509 26.5054 8.373C26.5054 8.16307 26.4928 7.95313 26.4634 7.74319C26.4383 7.53326 26.3417 7.00841 26.1821 6.17706C26.0688 5.59344 26.01 5.12318 26.01 4.76629L26.1107 4.63613L26.4634 5.03921L26.4508 5.035ZM19.2164 9.6998C19.1954 9.82577 19.1702 9.93073 19.1367 10.0105C19.1031 10.0903 19.0443 10.1617 18.9561 10.2204C18.9141 10.2288 18.8805 10.2078 18.8469 10.1617C18.8217 10.1029 18.8008 10.0609 18.7882 10.0399C18.7882 9.84676 18.8218 9.64941 18.8889 9.45627C18.9141 9.37649 18.9939 9.20015 19.1199 8.93143C19.1115 8.95662 19.0653 9.10777 18.9771 9.37649C18.9351 9.49826 18.9183 9.58643 18.9183 9.64941C18.9183 9.75857 18.9561 9.84676 19.0275 9.92233C19.0695 9.84676 19.0989 9.79216 19.1241 9.75438C19.1493 9.71659 19.1786 9.6998 19.2206 9.6998H19.2164ZM15.278 5.62703C15.236 5.78658 15.0765 5.88315 14.791 5.91254C14.5055 5.94193 14.3207 6.00491 14.2409 6.09728C14.2409 6.31982 14.2787 6.60114 14.3501 6.94544C14.3837 7.12178 14.4215 7.28972 14.4593 7.45767C14.4845 7.63821 14.5013 7.75998 14.5055 7.82716C14.5055 7.89014 14.5097 7.96153 14.5097 8.03291C14.5097 8.18826 14.4971 8.32262 14.4761 8.44018C14.4509 8.55775 14.4089 8.68371 14.3501 8.81807C14.3837 8.66271 14.4005 8.52415 14.4005 8.39399C14.4005 8.18405 14.3669 7.94893 14.2997 7.68021C14.2409 7.49127 14.1947 7.34431 14.1696 7.23095C14.1444 7.12178 14.115 6.99581 14.0898 6.85725C14.0646 6.71869 14.0478 6.59274 14.0478 6.47937C14.0478 6.35341 14.0562 6.24425 14.0772 6.15607C14.0982 6.0679 14.1402 5.97552 14.2073 5.87475C14.2745 5.77398 14.3963 5.7068 14.5768 5.67321C14.7532 5.63962 14.8581 5.61443 14.8833 5.60184C14.8246 5.50946 14.7322 5.45908 14.6104 5.45908C14.5558 5.45908 14.5055 5.47168 14.4593 5.50107L14.3165 5.62282C14.3039 5.57664 14.3081 5.52626 14.3375 5.47588C14.3627 5.42549 14.3921 5.37511 14.4173 5.32892L14.6398 5.16937C14.5516 4.98042 14.4887 4.84186 14.4467 4.74529C14.3669 4.56894 14.2787 4.47658 14.1863 4.46398C14.178 4.45559 14.1192 4.43878 14.01 4.41359C13.9008 4.3884 13.8505 4.32542 13.863 4.23305C13.863 4.08609 13.905 3.95173 13.9848 3.82997C14.1738 3.87616 14.3333 4.03571 14.4677 4.30443C14.5264 4.43879 14.5936 4.56895 14.6608 4.69911C14.6944 4.48917 14.728 4.28343 14.7616 4.07349C14.8204 3.82997 14.9337 3.67042 15.0933 3.59064C15.2024 3.62423 15.2612 3.64942 15.2738 3.67042L15.2024 3.94333C15.1563 3.92234 15.1101 3.90554 15.0681 3.88875C15.0261 3.87195 14.9841 3.87615 14.9421 3.90554C14.9001 4.01471 14.8665 4.16587 14.8414 4.35902C14.7742 4.86286 14.7364 5.12318 14.7322 5.14418C14.9547 5.25334 15.1353 5.41289 15.278 5.62703ZM19.1073 7.26034C19.0653 7.57105 18.9519 7.83137 18.763 8.0455C18.4607 8.10008 18.1583 8.18826 17.856 8.31842C17.856 8.39399 17.856 8.46957 17.8644 8.54934C17.8728 8.62912 17.877 8.7089 17.8854 8.79288C17.8854 8.95243 17.8434 9.0532 17.7637 9.09518C17.6881 8.96082 17.6377 8.86005 17.6041 8.79288C17.5369 8.67111 17.4698 8.57873 17.4026 8.51155C16.9197 8.63752 16.4453 8.86425 15.9834 9.18756C15.6055 9.44788 15.1982 9.80896 14.7532 10.2666C14.0058 11.0728 13.2626 11.8831 12.5153 12.6935C12.4691 12.7355 12.4145 12.7607 12.3473 12.7775C12.2843 12.7943 12.2087 12.8027 12.1206 12.8027H11.9694C11.9022 12.7901 11.8561 12.7817 11.8267 12.7817C11.6251 12.6683 11.453 12.5339 11.3144 12.3786C11.1549 12.198 11.0541 12.0049 11.0205 11.8034C11.0121 11.7362 11.0079 11.6774 11.0037 11.627C11.0037 11.5766 10.9995 11.5304 10.9995 11.4927C10.9995 10.9762 11.1927 10.4178 11.5831 9.82156C11.7091 9.62842 11.9274 9.32611 12.2381 8.91463C12.0702 8.75508 11.9484 8.57454 11.8686 8.38139C11.7931 8.18825 11.7511 7.96992 11.7511 7.73479C11.7511 7.49966 11.7931 7.23934 11.8728 6.94963C11.9526 6.65991 12.0786 6.32821 12.2465 5.95033C12.4607 5.51366 12.6076 5.20295 12.6916 5.02241C12.6706 5.11058 12.5656 5.44648 12.3683 6.0301C12.2213 6.46677 12.1458 6.82367 12.1458 7.09658C12.1458 7.28973 12.1752 7.46607 12.2297 7.61722C12.2885 7.76838 12.3893 7.91953 12.5362 8.06649C12.6286 8.09168 12.721 8.0455 12.8092 7.92373C12.9309 7.74739 13.0023 7.65501 13.0191 7.64241C13.0611 7.73479 13.0779 7.82717 13.0779 7.91534C13.0779 8.02451 13.0611 8.12528 13.0275 8.21765C12.9939 8.31002 12.9099 8.48217 12.7756 8.7299C12.7294 8.78868 12.6622 8.83066 12.5782 8.85585C12.4943 8.88105 12.3977 8.89784 12.2927 8.91044C12.0576 9.25893 11.8267 9.60743 11.5957 9.94753C11.3354 10.3926 11.2011 10.7789 11.2011 11.1064C11.2011 11.2407 11.2178 11.3667 11.2514 11.4885C11.285 11.6102 11.3438 11.7362 11.432 11.8705C11.4908 11.9377 11.5831 11.9923 11.7007 12.0301C11.8183 12.0721 11.9358 12.0889 12.0492 12.0889C12.1416 12.0889 12.2297 12.0805 12.3095 12.0595C12.553 11.9167 12.784 11.7446 13.0065 11.5346C13.1535 11.3919 13.4768 11.0224 13.9722 10.4178C14.3207 10.0021 14.5894 9.6956 14.7784 9.50246C15.0891 9.18756 15.3998 8.91883 15.7147 8.6963C16.1094 8.42758 16.4999 8.18825 16.8819 7.98251C16.8022 7.90693 16.7434 7.82716 16.7098 7.73479C16.6762 7.64241 16.6594 7.55004 16.6594 7.45767C16.6594 7.30232 16.7014 7.11337 16.7896 6.89504C16.9239 6.54655 16.9953 6.36181 16.9995 6.34082C17.0877 6.24845 17.18 6.16866 17.2766 6.10988C17.3732 6.0511 17.4782 6.01751 17.5957 6.01751C17.6713 6.01751 17.7385 6.03011 17.7973 6.0595C18.0324 6.18126 18.2717 6.35341 18.511 6.58434C18.7252 6.78588 18.9183 7.01262 19.0863 7.26034H19.1073ZM24.2381 3.48148C24.2381 3.48148 24.1835 3.46049 24.1373 3.43949C24.0912 3.4185 24.0576 3.3933 24.0366 3.35971C24.0786 3.30093 24.1206 3.29253 24.1667 3.33871C24.2003 3.36391 24.2255 3.4143 24.2381 3.48148ZM21.912 7.7138H21.6181C21.4418 7.7138 21.299 7.697 21.1814 7.66761C21.0639 7.63821 20.9631 7.57524 20.8749 7.48287C20.8749 7.4031 20.9043 7.33592 20.9589 7.28553C21.0177 7.23515 21.0849 7.20155 21.1646 7.18896C21.3242 7.21415 21.4753 7.27294 21.6097 7.36531C21.7441 7.45768 21.8448 7.57104 21.912 7.7138ZM18.2633 7.41988C18.1961 7.44507 18.087 7.48707 17.9316 7.54585C17.7763 7.60463 17.6503 7.64242 17.5495 7.66342C17.5285 7.60463 17.4404 7.49126 17.2766 7.33171C17.1507 7.19735 17.0961 7.0756 17.1171 6.97063C17.2052 6.88245 17.2934 6.83626 17.3774 6.82786C17.5369 6.84885 17.7007 6.92024 17.8602 7.0504C17.9946 7.17637 18.129 7.30232 18.2633 7.42408V7.41988Z" fill="currentColor"/>
</svg>
