<svg width="24" height="24" viewBox="0 0 24 24" fill="none" xmlns="http://www.w3.org/2000/svg">
<path d="M20 11C20 9.34315 18.6569 8 17 8H11C9.34315 8 8 9.34315 8 11V17C8 18.6569 9.34315 20 11 20H12.7574C13.553 20 14.3161 19.6839 14.8787 19.1213L19.1213 14.8787C19.6839 14.3161 20 13.553 20 12.7574V11Z" stroke="currentColor" stroke-width="1.5"/>
<path d="M16 8V7C16 5.34315 14.6569 4 13 4H8C5.79086 4 4 5.79086 4 8V13C4 14.6569 5.34315 16 7 16H8" stroke="currentColor" stroke-width="1.5"/>
<path d="M20 14L17 14C15.3431 14 14 15.3431 14 17L14 20" stroke="currentColor" stroke-width="1.5"/>
</svg>
