<svg width="24" height="24" viewBox="0 0 24 24" fill="none" xmlns="http://www.w3.org/2000/svg">
<path d="M10 14.01V19.99C10 19.9955 10.0045 20 10.01 20H12.99C12.9955 20 13 19.9955 13 19.99V14.01C13 14.0045 13.0045 14 13.01 14H15.49C15.4955 14 15.5 13.9955 15.5 13.99V11.01C15.5 11.0045 15.4955 11 15.49 11H13.01C13.0045 11 13 10.9955 13 10.99V9C13 8.5 13.5 8 14 8H15.49C15.4955 8 15.5 7.99552 15.5 7.99V5.01C15.5 5.00448 15.4955 5 15.49 5H15H13C11.5 5 10 6.5 10 8V10.99C10 10.9955 9.99552 11 9.99 11H8.51C8.50448 11 8.5 11.0045 8.5 11.01V13.99C8.5 13.9955 8.50448 14 8.51 14H9.99C9.99552 14 10 14.0045 10 14.01Z" stroke="currentColor" stroke-width="1.5"/>
</svg>
