<svg width="94" height="64" viewBox="0 0 94 64" fill="none" xmlns="http://www.w3.org/2000/svg">
<path d="M34.1647 16.2383C34.8606 14.6313 37.1394 14.6313 37.8353 16.2383L41.2412 24.1036C41.5308 24.7723 42.1611 25.2306 42.8866 25.2998L51.4138 26.1135C53.1554 26.2796 53.8593 28.4439 52.5487 29.6027L46.1236 35.2837C45.5784 35.7658 45.3381 36.5059 45.4961 37.2163L47.3589 45.5911C47.7389 47.2999 45.8956 48.6379 44.3887 47.747L37.0178 43.3893C36.39 43.0182 35.61 43.0182 34.9822 43.3893L27.6113 47.747C26.1044 48.6379 24.2611 47.2999 24.6411 45.5911L26.5039 37.2163C26.6619 36.5059 26.4216 35.7658 25.8764 35.2837L19.4513 29.6027C18.1407 28.4439 18.8446 26.2796 20.5862 26.1135L29.1134 25.2998C29.8389 25.2306 30.4692 24.7723 30.7588 24.1036L34.1647 16.2383Z" fill="currentColor"/>
<path d="M64.087 29.0436C64.4397 28.2541 65.5603 28.2541 65.913 29.0436L68.4733 34.7742C68.6207 35.104 68.9345 35.3288 69.2943 35.362L75.6473 35.9496C76.5271 36.031 76.8768 37.1297 76.2059 37.7047L71.4652 41.7674C71.1829 42.0093 71.0581 42.388 71.1413 42.7504L72.5232 48.7724C72.7183 49.6223 71.808 50.2972 71.0514 49.8637L65.4972 46.6811C65.1892 46.5046 64.8108 46.5046 64.5028 46.6811L58.9486 49.8637C58.192 50.2972 57.2817 49.6223 57.4768 48.7724L58.8587 42.7504C58.9419 42.388 58.8171 42.0093 58.5348 41.7674L53.7941 37.7047C53.1232 37.1297 53.4729 36.031 54.3527 35.9496L60.7057 35.362C61.0655 35.3288 61.3793 35.104 61.5267 34.7742L64.087 29.0436Z" fill="currentColor"/>
</svg>
