<svg width="94" height="64" viewBox="0 0 94 64" fill="none" xmlns="http://www.w3.org/2000/svg">
<path d="M45.1629 15.269C45.8568 13.6564 48.1432 13.6564 48.8371 15.269L52.8139 24.5099C53.1024 25.1803 53.7332 25.6403 54.4598 25.7101L64.4371 26.6681C66.1751 26.835 66.8798 28.9926 65.5754 30.1532L58.0407 36.8569C57.4994 37.3385 57.2609 38.0753 57.4173 38.7828L59.5989 48.6525C59.977 50.3631 58.1291 51.6987 56.6235 50.803L48.0225 45.6863C47.3924 45.3114 46.6076 45.3114 45.9775 45.6863L37.3765 50.803C35.8709 51.6987 34.023 50.3631 34.4011 48.6525L36.5827 38.7827C36.7391 38.0753 36.5006 37.3385 35.9593 36.8569L28.4246 30.1532C27.1202 28.9926 27.8249 26.835 29.5629 26.6681L39.5402 25.7101C40.2668 25.6403 40.8976 25.1803 41.1861 24.5099L45.1629 15.269Z" fill="currentColor"/>
</svg>
