<svg width="94" height="64" viewBox="0 0 94 64" fill="none" xmlns="http://www.w3.org/2000/svg">
<path d="M20.087 29.0436C20.4397 28.2541 21.5603 28.2541 21.913 29.0436L24.4733 34.7742C24.6207 35.104 24.9345 35.3288 25.2943 35.362L31.6473 35.9496C32.5271 36.031 32.8768 37.1297 32.2059 37.7047L27.4652 41.7674C27.1829 42.0093 27.0581 42.388 27.1413 42.7504L28.5232 48.7724C28.7183 49.6223 27.808 50.2972 27.0514 49.8637L21.4972 46.6811C21.1892 46.5046 20.8108 46.5046 20.5028 46.6811L14.9486 49.8637C14.192 50.2972 13.2817 49.6223 13.4768 48.7724L14.8587 42.7504C14.9419 42.388 14.8171 42.0093 14.5348 41.7674L9.79406 37.7047C9.12319 37.1297 9.47292 36.031 10.3527 35.9496L16.7057 35.362C17.0655 35.3288 17.3793 35.104 17.5267 34.7742L20.087 29.0436Z" fill="currentColor"/>
<path d="M45.6253 16.148C46.1492 14.9484 47.8508 14.9484 48.3747 16.148L51.7859 23.9601C52.0042 24.4598 52.4764 24.8018 53.0193 24.8532L61.5367 25.6591C62.8465 25.7831 63.3736 27.4129 62.3843 28.2803L55.9856 33.8908C55.5728 34.2528 55.3908 34.8113 55.5109 35.347L57.3692 43.6319C57.6562 44.9117 56.2783 45.9176 55.1469 45.2542L47.7586 40.9227C47.2902 40.648 46.7098 40.648 46.2414 40.9227L38.8531 45.2542C37.7217 45.9176 36.3438 44.9117 36.6308 43.6319L38.4891 35.347C38.6092 34.8113 38.4272 34.2528 38.0144 33.8908L31.6156 28.2803C30.6264 27.4129 31.1535 25.7831 32.4633 25.6591L40.9807 24.8532C41.5236 24.8018 41.9958 24.4598 42.2141 23.9601L45.6253 16.148Z" fill="currentColor"/>
<path d="M73.087 29.0436C73.4397 28.2541 74.5603 28.2541 74.913 29.0436L77.4733 34.7742C77.6207 35.104 77.9345 35.3288 78.2943 35.362L84.6473 35.9496C85.5271 36.031 85.8768 37.1297 85.2059 37.7047L80.4652 41.7674C80.1829 42.0093 80.0581 42.388 80.1413 42.7504L81.5232 48.7724C81.7183 49.6223 80.808 50.2972 80.0514 49.8637L74.4972 46.6811C74.1892 46.5046 73.8108 46.5046 73.5028 46.6811L67.9486 49.8637C67.192 50.2972 66.2817 49.6223 66.4768 48.7724L67.8587 42.7504C67.9419 42.388 67.8171 42.0093 67.5348 41.7674L62.7941 37.7047C62.1232 37.1297 62.4729 36.031 63.3527 35.9496L69.7057 35.362C70.0655 35.3288 70.3793 35.104 70.5267 34.7742L73.087 29.0436Z" fill="currentColor"/>
</svg>
