<svg width="24" height="24" viewBox="0 0 24 24" fill="none" xmlns="http://www.w3.org/2000/svg">
<path d="M17 17L17 7C17 5.89543 16.1046 5 15 5L7.00001 5C5.89544 5 5.00001 5.89543 5.00001 7L5.00001 17C5.00001 18.6569 6.34315 20 8.00001 20L18.5 20" stroke="currentColor" stroke-width="1.2"/>
<path d="M20 17C20 16.1716 19.3284 15.5 18.5 15.5L17 15.5L17 18.5C17 19.3284 17.6716 20 18.5 20V20C19.3284 20 20 19.3284 20 18.5L20 17Z" stroke="currentColor" stroke-width="1.2"/>
<path d="M8 15H11.5" stroke="currentColor" stroke-width="1.2" stroke-linecap="round"/>
<path d="M8 12H10" stroke="currentColor" stroke-width="1.2" stroke-linecap="round"/>
<path d="M8 9H13" stroke="currentColor" stroke-width="1.2" stroke-linecap="round"/>
</svg>
