<svg width="24" height="24" viewBox="0 0 24 24" fill="none" xmlns="http://www.w3.org/2000/svg">
<path d="M19.2929 11.2929L13.5121 5.51213C13.3231 5.32314 13 5.45699 13 5.72426L13 8.7C13 8.86569 12.8657 8.99903 12.7005 9.01263C9.9484 9.23932 5.82022 12.4886 5.10684 16.4935C5.0289 16.9311 5.55027 17.1673 5.90232 16.896C8.33998 15.0176 10.915 14.9963 12.7008 14.9996C12.8665 14.9998 13 15.1343 13 15.3L13 18.2757C13 18.543 13.3231 18.6769 13.5121 18.4879L19.2929 12.7071C19.6834 12.3166 19.6834 11.6834 19.2929 11.2929Z" stroke="currentColor" stroke-width="1.5" stroke-linecap="round"/>
</svg>
