<svg width="24" height="24" viewBox="0 0 24 24" fill="none" xmlns="http://www.w3.org/2000/svg">
<path d="M8.79712 18.4075L6.83017 19.1943C6.49682 19.3435 6.12126 19.0965 6.12604 18.7314V15.9571C6.12604 15.8604 6.09759 15.766 6.04663 15.6839C5.38309 14.6138 5 13.3516 5 12C5 8.13401 8.13401 5 12 5C15.866 5 19 8.13401 19 12C19 15.866 15.866 19 12 19C11.004 19 10.0566 18.792 9.1988 18.417C9.07115 18.3612 8.92647 18.3558 8.79712 18.4075Z" stroke="currentColor" stroke-width="1.5"/>
<path d="M9.72554 11.9718L10.6247 10.9334C10.8508 10.6723 10.8927 10.2989 10.7302 9.99412V9.99412C10.4664 9.49948 9.79972 9.40028 9.40333 9.79667L9.32439 9.87561C9.12018 10.0798 9.01767 10.3699 9.09409 10.6484C9.59609 12.478 11.522 14.4039 13.3516 14.9059C13.6301 14.9823 13.9202 14.8798 14.1244 14.6756L14.2237 14.5763C14.6099 14.1901 14.5133 13.5404 14.0313 13.2834V13.2834C13.7156 13.115 13.327 13.1726 13.0738 13.4254L12.1255 14.3718" stroke="currentColor" stroke-width="1.5"/>
</svg>
