<svg width="118" height="30" viewBox="0 0 118 30" fill="none" xmlns="http://www.w3.org/2000/svg">
<g clip-path="url(#clip0_5902_5155)">
<path d="M104.56 13.2951V11.8823L105.699 11.6402V2.36458L104.439 2.1224V0.701599H108.048V5.67441C108.322 5.27077 108.661 4.95862 109.065 4.73797C109.474 4.51193 109.937 4.39891 110.454 4.39891C111.331 4.39891 112.025 4.69222 112.536 5.27884C113.053 5.86008 113.311 6.76153 113.311 7.98321V11.6402L114.441 11.8823V13.2951H109.937V11.8823L110.954 11.6402V7.96706C110.954 7.33739 110.836 6.8907 110.599 6.62699C110.362 6.36328 110.015 6.23142 109.557 6.23142C109.24 6.23142 108.949 6.2987 108.686 6.43324C108.427 6.56241 108.215 6.75346 108.048 7.00641V11.6402L109.065 11.8823V13.2951H104.56Z" fill="black"/>
<path d="M100.064 13.4646C99.2244 13.4646 98.4978 13.2762 97.8843 12.8995C97.2761 12.5228 96.8079 12.0034 96.4796 11.3415C96.1513 10.6741 95.9872 9.91261 95.9872 9.0569V8.81471C95.9872 7.95362 96.154 7.19209 96.4877 6.53013C96.8214 5.86816 97.2923 5.34882 97.9004 4.97209C98.5086 4.58998 99.2244 4.39893 100.048 4.39893C100.834 4.39893 101.509 4.52271 102.074 4.77027C102.644 5.01245 103.107 5.295 103.463 5.61791L103.446 8.12046H101.67L101.356 6.56242C101.226 6.43326 101.062 6.32831 100.863 6.24758C100.664 6.16686 100.462 6.12649 100.258 6.12649C99.8271 6.12649 99.4692 6.23413 99.184 6.4494C98.9041 6.66467 98.6942 6.97144 98.5543 7.36969C98.4144 7.76795 98.3444 8.24962 98.3444 8.81471V9.0569C98.3444 9.65428 98.4225 10.1467 98.5785 10.5342C98.7346 10.9163 98.9418 11.1989 99.2001 11.3818C99.4638 11.5648 99.7572 11.6563 100.08 11.6563C100.494 11.6563 100.825 11.5487 101.073 11.3334C101.326 11.1128 101.498 10.8033 101.59 10.405H103.608L103.632 10.4535C103.541 11.0724 103.358 11.6079 103.083 12.06C102.814 12.512 102.432 12.8592 101.937 13.1013C101.447 13.3435 100.823 13.4646 100.064 13.4646Z" fill="black"/>
<path d="M91.4342 13.4646C90.6 13.4646 89.8708 13.2816 89.2465 12.9157C88.6222 12.5443 88.1378 12.0357 87.7934 11.3899C87.4543 10.7441 87.2848 10.0068 87.2848 9.17799V8.85508C87.2848 7.9886 87.4462 7.22169 87.7692 6.55435C88.0921 5.88162 88.5468 5.3542 89.1334 4.97209C89.7254 4.58998 90.4224 4.39893 91.2243 4.39893C92.0154 4.39893 92.6801 4.555 93.2183 4.86714C93.7564 5.17929 94.1655 5.62867 94.4453 6.21529C94.7252 6.80191 94.8651 7.51231 94.8651 8.3465V9.63006H89.7308L89.7147 9.6785C89.747 10.0606 89.8412 10.4024 89.9972 10.7037C90.1587 10.9997 90.3847 11.2338 90.6753 11.4061C90.966 11.5729 91.3185 11.6563 91.7329 11.6563C92.1634 11.6563 92.5644 11.6025 92.9357 11.4949C93.3124 11.3818 93.6784 11.2177 94.0336 11.0024L94.6713 12.4555C94.3108 12.7461 93.856 12.9883 93.3071 13.1821C92.7635 13.3704 92.1392 13.4646 91.4342 13.4646ZM89.747 8.07202H92.6612V7.86213C92.6612 7.50693 92.6128 7.20286 92.5159 6.94991C92.4244 6.69158 92.2737 6.49246 92.0639 6.35253C91.8593 6.2126 91.5929 6.14264 91.2646 6.14264C90.9525 6.14264 90.6888 6.22606 90.4735 6.39289C90.2582 6.55435 90.0887 6.77769 89.9649 7.06293C89.8465 7.34817 89.7658 7.67108 89.7228 8.03166L89.747 8.07202Z" fill="black"/>
<path d="M84.9356 13.4646C84.123 13.4646 83.496 13.2412 83.0547 12.7945C82.6187 12.3479 82.4008 11.6401 82.4008 10.6714V6.21527H81.1979V4.56036H82.4008V2.42108H84.7499V4.56036H86.3564V6.21527H84.7499V10.6633C84.7499 11.0024 84.8199 11.2446 84.9598 11.3899C85.1051 11.5352 85.3016 11.6079 85.5491 11.6079C85.6837 11.6079 85.8236 11.5998 85.9689 11.5836C86.1196 11.5621 86.2488 11.5406 86.3564 11.5191L86.5582 13.2224C86.3161 13.2924 86.0523 13.3489 85.7671 13.3919C85.4873 13.4404 85.2101 13.4646 84.9356 13.4646Z" fill="black"/>
<path d="M71.1474 13.2951V11.8824L72.2776 11.6402V6.22336L71.0263 5.98118V4.56038H74.4734L74.5783 5.81166C74.8689 5.36496 75.2268 5.01784 75.652 4.77027C76.0825 4.52271 76.5723 4.39893 77.1212 4.39893C77.9877 4.39893 78.6658 4.67609 79.1556 5.23042C79.6453 5.78475 79.8902 6.65391 79.8902 7.83791V11.6402L81.0204 11.8824V13.2951H76.5158V11.8824L77.5249 11.6402V7.84599C77.5249 7.25937 77.4092 6.84497 77.1777 6.60278C76.9463 6.35522 76.6019 6.23144 76.1444 6.23144C75.8054 6.23144 75.5094 6.30409 75.2564 6.4494C75.0089 6.58933 74.8017 6.79115 74.6348 7.05486V11.6402L75.5874 11.8824V13.2951H71.1474Z" fill="black"/>
<path d="M66.7154 13.4646C65.8812 13.4646 65.152 13.2816 64.5277 12.9157C63.9034 12.5443 63.4191 12.0357 63.0746 11.3899C62.7356 10.7441 62.566 10.0068 62.566 9.17799V8.85508C62.566 7.9886 62.7275 7.22169 63.0504 6.55435C63.3733 5.88162 63.8281 5.3542 64.4147 4.97209C65.0067 4.58998 65.7036 4.39893 66.5055 4.39893C67.2967 4.39893 67.9613 4.555 68.4995 4.86714C69.0377 5.17929 69.4467 5.62867 69.7266 6.21529C70.0064 6.80191 70.1463 7.51231 70.1463 8.3465V9.63006H65.0121L64.9959 9.6785C65.0282 10.0606 65.1224 10.4024 65.2785 10.7037C65.4399 10.9997 65.666 11.2338 65.9566 11.4061C66.2472 11.5729 66.5997 11.6563 67.0141 11.6563C67.4447 11.6563 67.8456 11.6025 68.217 11.4949C68.5937 11.3818 68.9596 11.2177 69.3148 11.0024L69.9526 12.4555C69.592 12.7461 69.1372 12.9883 68.5883 13.1821C68.0447 13.3704 67.4204 13.4646 66.7154 13.4646ZM65.0282 8.07202H67.9425V7.86213C67.9425 7.50693 67.894 7.20286 67.7972 6.94991C67.7057 6.69158 67.555 6.49246 67.3451 6.35253C67.1406 6.2126 66.8742 6.14264 66.5459 6.14264C66.2338 6.14264 65.97 6.22606 65.7548 6.39289C65.5395 6.55435 65.37 6.77769 65.2462 7.06293C65.1278 7.34817 65.0471 7.67108 65.004 8.03166L65.0282 8.07202Z" fill="black"/>
<path d="M57.9807 13.4646C57.1465 13.4646 56.4173 13.2816 55.793 12.9157C55.1687 12.5443 54.6843 12.0357 54.3399 11.3899C54.0008 10.7441 53.8313 10.0068 53.8313 9.17799V8.85508C53.8313 7.9886 53.9928 7.22169 54.3157 6.55435C54.6386 5.88162 55.0933 5.3542 55.68 4.97209C56.272 4.58998 56.9689 4.39893 57.7708 4.39893C58.5619 4.39893 59.2266 4.555 59.7648 4.86714C60.3029 5.17929 60.712 5.62867 60.9918 6.21529C61.2717 6.80191 61.4116 7.51231 61.4116 8.3465V9.63006H56.2773L56.2612 9.6785C56.2935 10.0606 56.3877 10.4024 56.5437 10.7037C56.7052 10.9997 56.9312 11.2338 57.2218 11.4061C57.5125 11.5729 57.865 11.6563 58.2794 11.6563C58.7099 11.6563 59.1109 11.6025 59.4822 11.4949C59.8589 11.3818 60.2249 11.2177 60.5801 11.0024L61.2179 12.4555C60.8573 12.7461 60.4025 12.9883 59.8536 13.1821C59.31 13.3704 58.6857 13.4646 57.9807 13.4646ZM56.2935 8.07202H59.2077V7.86213C59.2077 7.50693 59.1593 7.20286 59.0624 6.94991C58.9709 6.69158 58.8203 6.49246 58.6104 6.35253C58.4058 6.2126 58.1394 6.14264 57.8112 6.14264C57.499 6.14264 57.2353 6.22606 57.02 6.39289C56.8048 6.55435 56.6352 6.77769 56.5114 7.06293C56.393 7.34817 56.3123 7.67108 56.2693 8.03166L56.2935 8.07202Z" fill="black"/>
<path d="M46.9857 13.2951V11.8824L48.1159 11.6402V6.22336L46.8646 5.98118V4.56038H50.3117L50.4005 5.64213L50.4166 5.83587C50.6319 5.36227 50.8983 5.00438 51.2158 4.7622C51.5334 4.52002 51.9128 4.39893 52.3541 4.39893C52.494 4.39893 52.6474 4.41238 52.8142 4.43929C52.9811 4.46082 53.1291 4.49042 53.2582 4.52809L53.008 6.69966L51.8374 6.63507C51.5038 6.61893 51.232 6.67544 51.0221 6.8046C50.8176 6.93377 50.6346 7.11944 50.4731 7.36162V11.6402L51.6033 11.8824V13.2951H46.9857Z" fill="black"/>
<path d="M41.1248 13.4646C39.957 13.4646 38.9613 13.2224 38.1379 12.7381C37.3145 12.2537 36.6821 11.581 36.2408 10.7199C35.8049 9.85878 35.5869 8.86045 35.5869 7.72489V7.32125C35.5869 6.14801 35.8049 5.1147 36.2408 4.22132C36.6767 3.32794 37.293 2.63099 38.0895 2.13048C38.8914 1.62459 39.8386 1.37164 40.9311 1.37164C41.776 1.37164 42.5698 1.48735 43.3125 1.71877C44.0552 1.95019 44.701 2.29732 45.25 2.76015V5.36765H43.5063L43.1753 3.79346C42.9654 3.61048 42.6829 3.46517 42.3277 3.35754C41.9725 3.24452 41.5661 3.18801 41.1087 3.18801C40.4521 3.18801 39.8843 3.36292 39.4053 3.71274C38.9317 4.05717 38.5684 4.53885 38.3155 5.15776C38.0626 5.77129 37.9361 6.48707 37.9361 7.30511V7.72489C37.9361 8.5214 38.0599 9.21565 38.3074 9.80766C38.5604 10.3943 38.929 10.849 39.4134 11.1719C39.8978 11.4949 40.4924 11.6563 41.1975 11.6563C41.6119 11.6563 41.9913 11.6186 42.3357 11.5433C42.6855 11.4626 42.9735 11.3657 43.1995 11.2527V9.25871L41.5204 9.12955V7.47463H45.5648V12.2295C45.0428 12.6008 44.4131 12.8995 43.6758 13.1256C42.9439 13.3516 42.0935 13.4646 41.1248 13.4646Z" fill="black"/>
<path d="M111.629 27.15C111.08 27.15 110.609 27.0149 110.214 26.7449C109.823 26.4706 109.524 26.0905 109.317 25.6043C109.109 25.1182 109.005 24.551 109.005 23.9029V23.772C109.005 23.049 109.109 22.4154 109.317 21.8711C109.524 21.3268 109.825 20.905 110.22 20.6059C110.615 20.3026 111.089 20.1509 111.641 20.1509C112.04 20.1509 112.391 20.2257 112.695 20.3753C113.002 20.5207 113.264 20.7326 113.48 21.011V18.2625L112.464 18.088V17.2964H113.48H114.708V26.0593L115.723 26.2338V27.0191H113.642L113.542 26.2151C113.322 26.5226 113.052 26.7553 112.732 26.9132C112.416 27.071 112.048 27.15 111.629 27.15ZM111.94 26.1528C112.306 26.1528 112.613 26.0697 112.863 25.9035C113.112 25.7373 113.318 25.5025 113.48 25.1992V22.0705C113.322 21.788 113.116 21.5636 112.863 21.3974C112.609 21.2312 112.306 21.1481 111.953 21.1481C111.562 21.1481 111.24 21.2603 110.987 21.4847C110.733 21.7049 110.544 22.0124 110.42 22.4071C110.295 22.7976 110.233 23.2526 110.233 23.772V23.9029C110.233 24.5801 110.372 25.1244 110.65 25.5358C110.929 25.9471 111.359 26.1528 111.94 26.1528Z" fill="black"/>
<path d="M105.197 27.15C104.574 27.15 104.031 27.0087 103.57 26.7262C103.109 26.4395 102.752 26.0427 102.498 25.5358C102.249 25.0289 102.124 24.443 102.124 23.7782V23.504C102.124 22.8641 102.255 22.2928 102.517 21.7901C102.783 21.2832 103.134 20.8843 103.57 20.5934C104.011 20.2984 104.491 20.1509 105.01 20.1509C105.617 20.1509 106.123 20.2756 106.531 20.5249C106.942 20.7742 107.252 21.1253 107.459 21.5782C107.667 22.0269 107.771 22.5567 107.771 23.1675V23.9341H103.396L103.377 23.9652C103.385 24.3973 103.46 24.7817 103.601 25.1182C103.747 25.4506 103.955 25.7124 104.225 25.9035C104.495 26.0946 104.819 26.1902 105.197 26.1902C105.612 26.1902 105.976 26.132 106.288 26.0157C106.603 25.8952 106.875 25.7311 107.104 25.5233L107.584 26.3211C107.343 26.5538 107.023 26.7511 106.624 26.9132C106.229 27.0711 105.754 27.15 105.197 27.15ZM103.433 22.9742H106.543V22.8122C106.543 22.4881 106.485 22.1993 106.369 21.9459C106.256 21.6883 106.086 21.4868 105.858 21.3413C105.633 21.1918 105.351 21.117 105.01 21.117C104.736 21.117 104.486 21.198 104.262 21.36C104.038 21.5179 103.853 21.734 103.707 22.0082C103.562 22.2824 103.466 22.5941 103.421 22.9431L103.433 22.9742Z" fill="black"/>
<path d="M100.08 27.1251C99.5814 27.1251 99.1846 26.9797 98.8896 26.6888C98.5988 26.3938 98.4533 25.9243 98.4533 25.2803V21.1855H97.3876V20.2756H98.4533V18.6489H99.6811V20.2756H101.146V21.1855H99.6811V25.2803C99.6811 25.6044 99.7455 25.8433 99.8743 25.997C100.003 26.1507 100.176 26.2276 100.392 26.2276C100.537 26.2276 100.699 26.2151 100.878 26.1902C101.056 26.1611 101.196 26.1362 101.295 26.1154L101.464 26.9194C101.285 26.9734 101.065 27.0212 100.803 27.0628C100.545 27.1043 100.304 27.1251 100.08 27.1251Z" fill="black"/>
<path d="M93.592 27.0191V26.2338L94.6079 26.0593V21.2416L93.592 21.0671V20.2756H95.8357V26.0593L96.8516 26.2338V27.0191H93.592ZM94.5456 18.6115V17.2964H95.8357V18.6115H94.5456Z" fill="black"/>
<path d="M81.3078 27.0191V26.2338L82.3237 26.0593V21.2416L81.3078 21.0671V20.2756H83.4268L83.5079 21.1544C83.7239 20.8344 84.0023 20.5872 84.343 20.4127C84.6837 20.2382 85.0784 20.1509 85.5272 20.1509C85.9759 20.1509 86.3603 20.2548 86.6802 20.4626C87.0043 20.6703 87.2473 20.9819 87.4094 21.3974C87.6213 21.0152 87.9018 20.7119 88.2508 20.4875C88.5998 20.2631 89.007 20.1509 89.4723 20.1509C90.1621 20.1509 90.7064 20.3878 91.1052 20.8614C91.5041 21.331 91.7036 22.0394 91.7036 22.9867V26.0593L92.7194 26.2338V27.0191H89.4536V26.2338L90.4695 26.0593V22.9742C90.4695 22.3095 90.3553 21.8399 90.1267 21.5657C89.8982 21.2873 89.5596 21.1481 89.1109 21.1481C88.6829 21.1481 88.338 21.2998 88.0763 21.6031C87.8187 21.9023 87.6691 22.2804 87.6275 22.7374V26.0593L88.6434 26.2338V27.0191H85.3838V26.2338L86.3997 26.0593V22.9742C86.3997 22.3427 86.2813 21.8815 86.0445 21.5906C85.8118 21.2956 85.4732 21.1481 85.0286 21.1481C84.6546 21.1481 84.3472 21.225 84.1062 21.3787C83.8652 21.5325 83.6803 21.7485 83.5515 22.0269V26.0593L84.5674 26.2338V27.0191H81.3078Z" fill="black"/>
<path d="M77.2006 27.0191V26.2338L78.2165 26.0593V21.2416L77.2006 21.0671V20.2756H79.4443V26.0593L80.4602 26.2338V27.0191H77.2006ZM78.1542 18.6115V17.2964H79.4443V18.6115H78.1542Z" fill="black"/>
<path d="M69.7466 27.0191V26.2338L70.7625 26.0593V18.9107L69.7466 18.7362V17.9446H70.7625H71.9903H73.0062V18.7362L71.9903 18.9107V26.078H75.2L75.3433 24.6445H76.2844V27.0191H69.7466Z" fill="black"/>
<path d="M62.8846 27.15C62.4318 27.15 62.0079 27.1043 61.6132 27.0129C61.2185 26.9215 60.7988 26.7802 60.3543 26.5891L60.3418 24.9873H61.2704L61.501 25.9534C61.7337 26.0489 61.9581 26.1196 62.1741 26.1653C62.3944 26.2068 62.6312 26.2276 62.8846 26.2276C63.3832 26.2276 63.7406 26.132 63.9566 25.9409C64.1727 25.7498 64.2807 25.5129 64.2807 25.2304C64.2807 24.9645 64.1706 24.7401 63.9504 24.5573C63.7343 24.3703 63.3396 24.2124 62.7662 24.0836C61.9519 23.8967 61.3515 23.6474 60.965 23.3357C60.5828 23.02 60.3917 22.6003 60.3917 22.0768C60.3917 21.7111 60.4976 21.385 60.7095 21.0983C60.9214 20.8074 61.2164 20.5768 61.5945 20.4065C61.9726 20.2361 62.4131 20.1509 62.9158 20.1509C63.4269 20.1509 63.8631 20.2091 64.2246 20.3254C64.5903 20.4418 64.9081 20.5976 65.1782 20.7929L65.2405 22.3323H64.3181L64.1187 21.4348C63.9733 21.3268 63.8008 21.2437 63.6014 21.1855C63.4019 21.1274 63.1734 21.0983 62.9158 21.0983C62.5335 21.0983 62.2219 21.1876 61.9809 21.3663C61.7441 21.5449 61.6257 21.7693 61.6257 22.0394C61.6257 22.1973 61.6589 22.3344 61.7254 22.4507C61.796 22.5671 61.929 22.673 62.1243 22.7686C62.3196 22.86 62.6063 22.9514 62.9844 23.0428C63.9234 23.263 64.5778 23.5435 64.9476 23.8842C65.3215 24.2249 65.5085 24.6446 65.5085 25.1432C65.5085 25.7124 65.2966 26.1902 64.8728 26.5766C64.4532 26.9589 63.7904 27.15 62.8846 27.15Z" fill="black"/>
<path d="M52.5013 29.6118V28.8203L53.4549 28.6458V21.2416L52.439 21.0671V20.2756H54.5081L54.6203 21.0983C54.8447 20.7908 55.1168 20.5561 55.4368 20.394C55.7609 20.232 56.1348 20.1509 56.5586 20.1509C57.1154 20.1509 57.5911 20.3026 57.9859 20.6059C58.3806 20.9051 58.6818 21.3268 58.8896 21.8711C59.0973 22.4112 59.2012 23.0449 59.2012 23.772V23.9029C59.2012 24.5511 59.0952 25.1182 58.8833 25.6044C58.6756 26.0905 58.3764 26.4707 57.9859 26.7449C57.5953 27.015 57.1258 27.15 56.5773 27.15C56.1618 27.15 55.7962 27.0814 55.4804 26.9443C55.1688 26.8031 54.9029 26.5953 54.6827 26.3211V28.6458L55.7546 28.8203V29.6118H52.5013ZM56.1971 26.1902C56.7788 26.1902 57.2193 25.9783 57.5184 25.5545C57.8176 25.1307 57.9672 24.5801 57.9672 23.9029V23.772C57.9672 23.2568 57.9007 22.8039 57.7677 22.4133C57.6348 22.0186 57.4353 21.7091 57.1694 21.4847C56.9076 21.2603 56.5794 21.1481 56.1847 21.1481C55.8357 21.1481 55.5365 21.2271 55.2872 21.385C55.0379 21.5429 54.8364 21.7589 54.6827 22.0331V25.3177C54.8364 25.596 55.0358 25.8121 55.281 25.9658C55.5303 26.1154 55.8357 26.1902 56.1971 26.1902Z" fill="black"/>
<path d="M45.0349 29.6118V28.8203L45.9884 28.6458V21.2416L44.9725 21.0671V20.2756H47.0417L47.1539 21.0983C47.3783 20.7908 47.6504 20.5561 47.9704 20.394C48.2944 20.232 48.6684 20.1509 49.0922 20.1509C49.649 20.1509 50.1247 20.3026 50.5194 20.6059C50.9142 20.9051 51.2154 21.3268 51.4231 21.8711C51.6309 22.4112 51.7348 23.0449 51.7348 23.772V23.9029C51.7348 24.5511 51.6288 25.1182 51.4169 25.6044C51.2092 26.0905 50.91 26.4707 50.5194 26.7449C50.1289 27.015 49.6594 27.15 49.1109 27.15C48.6954 27.15 48.3298 27.0814 48.014 26.9443C47.7024 26.8031 47.4364 26.5953 47.2162 26.3211V28.6458L48.2882 28.8203V29.6118H45.0349ZM48.7307 26.1902C49.3124 26.1902 49.7528 25.9783 50.052 25.5545C50.3512 25.1307 50.5007 24.5801 50.5007 23.9029V23.772C50.5007 23.2568 50.4343 22.8039 50.3013 22.4133C50.1683 22.0186 49.9689 21.7091 49.703 21.4847C49.4412 21.2603 49.113 21.1481 48.7182 21.1481C48.3692 21.1481 48.0701 21.2271 47.8208 21.385C47.5715 21.5429 47.37 21.7589 47.2162 22.0331V25.3177C47.37 25.596 47.5694 25.8121 47.8145 25.9658C48.0638 26.1154 48.3692 26.1902 48.7307 26.1902Z" fill="black"/>
<path d="M35.6362 27.0191V26.2338L36.3093 26.1403L39.4817 17.9446H40.535L43.6512 26.1403L44.3181 26.2338V27.0191H41.7129V26.2338L42.3985 26.1154L41.8001 24.4451H38.1666L37.5496 26.1154L38.2352 26.2338V27.0191H35.6362ZM38.5468 23.4168H41.4262L40.0924 19.7271L40.0177 19.5215H39.9803L39.9055 19.7271L38.5468 23.4168Z" fill="black"/>
<path d="M3.55166 5.45496L6.21389 7.32551L2.31378 11.315L0.0683267 9.01807L3.55166 5.45496ZM10.7013 7.32835L11.4193 11.1871L2.26163 20.5545L0.0164795 18.2579L10.7013 7.32835ZM14.0536 13.0861L15.5322 13.8708L16.299 15.3823L2.36794 29.6325L0.122824 27.336L14.0536 13.0861ZM18.1546 18.0774L21.9275 18.8118L11.1594 29.8265L8.91402 27.5296L18.1546 18.0774ZM21.9306 23.4017L23.7587 26.125L20.2105 29.7544L17.9654 27.4578L21.9306 23.4017Z" fill="#88E744"/>
<path d="M29.0188 0.0785474L14.5605 0.0656404L0.0778809 0.0043335L8.67813 6.04558L12.4104 5.93752L12.9784 9.06631L17.2786 12.087L20.2317 16.4858L23.2904 17.0667L23.1848 20.8845L29.0907 29.6817L29.0308 14.8674L29.0188 0.0785474Z" fill="#3CBE59"/>
</g>
<defs>
<clipPath id="clip0_5902_5155">
<rect width="118" height="29.8242" fill="white"/>
</clipPath>
</defs>
</svg>
