<svg width="248" height="136" viewBox="0 0 248 136" fill="none" xmlns="http://www.w3.org/2000/svg">
<path d="M108.893 73.5194C108.893 100.276 87.2034 121.967 60.4463 121.967C33.69 121.967 12 100.276 12 73.5194C12 46.7632 33.69 25.0723 60.4463 25.0723C87.2034 25.0723 108.893 46.7632 108.893 73.5194Z" fill="#EFDAC0"/>
<path d="M120.828 110.157C119.344 110.157 117.969 109.916 116.703 109.436C114.521 108.629 113.004 106.937 112.153 104.362C110.603 107.156 108.421 108.946 105.606 109.731C104.405 110.015 103.204 110.157 102.004 110.157C100.52 110.157 99.1397 109.916 97.8634 109.436C96.5862 108.957 95.5551 108.192 94.7699 107.144C93.3068 105.137 92.5757 102.497 92.5757 99.2221V80.8893C92.5757 78.4019 93.7218 76.4376 96.0132 74.9973L97.0283 74.4403C98.2065 73.8301 99.2707 73.1699 100.22 72.46C101.17 71.7508 102.004 70.7636 102.724 69.4975V98.4369C102.724 99.5501 102.811 100.466 102.986 101.186C103.16 101.907 103.515 102.442 104.05 102.791C104.585 103.141 105.365 103.315 106.391 103.315C107.439 103.315 108.323 103.004 109.042 102.382C109.762 101.759 110.319 100.979 110.712 100.04C111.105 99.103 111.334 98.1208 111.4 97.0947V80.8893C111.4 78.4019 112.546 76.4376 114.837 74.9973L115.852 74.4403C117.03 73.8301 118.095 73.1699 119.044 72.46C119.993 71.7508 120.828 70.7636 121.548 69.4975V98.4369C121.548 99.5501 121.635 100.466 121.81 101.186C121.984 101.907 122.339 102.442 122.873 102.791C123.408 103.141 124.189 103.315 125.215 103.315C126.263 103.315 127.146 103.004 127.866 102.382C128.586 101.759 129.143 100.979 129.536 100.04C129.928 99.103 130.158 98.1208 130.223 97.0947H133.17C132.82 99.9752 132.166 102.267 131.206 103.969C129.503 107.111 127.244 109.033 124.429 109.731C123.228 110.015 122.028 110.157 120.828 110.157Z" fill="#010100"/>
<path d="M140.307 104.166C140.307 105.475 140.077 106.534 139.618 107.341C139.16 108.149 138.571 108.821 137.851 109.355C137.13 109.889 136.334 110.397 135.461 110.877C134.479 111.4 133.524 112.017 132.596 112.726C131.669 113.435 130.856 114.38 130.158 115.559V93.5263C130.158 92.2821 130.223 91.1039 130.354 89.9907C130.747 87.2852 131.614 85.0259 132.956 83.2137C134.299 81.4033 135.87 79.887 137.671 78.6639C139.471 77.4417 141.267 76.3717 143.056 75.4555C144.824 74.5393 146.346 73.6222 147.623 72.7051C148.899 71.7889 149.723 70.7307 150.094 69.5296C151.294 70.3808 152.364 71.199 153.303 71.9858C154.634 73.1421 155.616 74.3584 156.249 75.6355C156.882 76.9118 157.198 78.1517 157.198 79.3511C157.198 81.1632 156.57 82.7066 155.316 83.9837C154.061 85.26 152.331 85.899 150.127 85.899C150.127 84.7199 149.893 83.5907 149.424 82.5105C148.954 81.4303 148.196 80.6172 147.149 80.0712C146.537 79.7441 145.904 79.5801 145.249 79.5801C144.66 79.5801 144.027 79.7441 143.351 80.0712C142.304 80.6172 141.539 81.4303 141.06 82.5105C140.579 83.5907 140.339 84.7199 140.339 85.899L140.307 90.6449V104.166Z" fill="#010100"/>
<path d="M171.177 103.478C171.766 103.478 172.41 103.315 173.109 102.987C174.2 102.42 174.969 101.58 175.417 100.466C175.864 99.3532 176.088 98.197 176.088 96.9959V79.6461L174.319 80.6604C171.657 82.1885 169.748 83.8147 168.591 85.5381C167.085 87.7864 166.332 90.874 166.332 94.8034C166.332 98.033 167.03 100.488 168.427 102.169C169.148 103.042 170.064 103.478 171.177 103.478ZM185.614 110.222C183.323 110.222 181.528 109.644 180.229 108.487C178.93 107.33 178.019 105.748 177.495 103.74C176.622 105.683 175.46 107.248 174.009 108.438C172.557 109.628 170.686 110.222 168.394 110.222C166.801 110.222 165.29 109.921 163.861 109.322C162.431 108.722 161.137 107.822 159.981 106.62C158.693 105.246 157.728 103.631 157.084 101.776C156.44 99.9212 156.118 98.033 156.118 96.1118C156.118 94.9556 156.238 93.8095 156.479 92.6752C157.264 89.3577 158.704 86.6631 160.799 84.589C162.895 82.5156 165.371 80.7043 168.231 79.155C169.693 78.3479 171.243 77.539 172.879 76.7318C175.695 75.4006 178.352 73.9113 180.85 72.264C183.35 70.6158 185.145 68.6135 186.236 66.2562V98.5021C186.236 99.6153 186.323 100.532 186.498 101.252C186.672 101.972 187.026 102.507 187.562 102.856C188.097 103.205 188.877 103.38 189.903 103.38C190.95 103.38 191.834 103.069 192.554 102.447C193.274 101.825 193.831 101.045 194.224 100.106C194.617 99.1681 194.846 98.186 194.912 97.1599H197.858C197.509 100.04 196.854 102.332 195.894 104.034C195.108 105.497 194.147 106.73 193.013 107.734C191.179 109.393 188.713 110.222 185.614 110.222Z" fill="#010100"/>
<path d="M205.06 104.166C205.06 105.475 204.831 106.534 204.372 107.341C203.913 108.149 203.324 108.821 202.604 109.355C201.884 109.889 201.088 110.397 200.215 110.877C199.233 111.4 198.278 112.017 197.35 112.726C196.422 113.435 195.599 114.38 194.879 115.559V92.2821C195.01 88.6815 195.92 85.7511 197.611 83.4918C199.303 81.2334 201.153 79.4821 203.161 78.2379C204.274 77.5178 205.54 76.7757 206.959 76.0125C208.748 75.0734 210.396 74.0752 211.902 73.0162C213.408 71.958 214.367 70.8068 214.782 69.5626C218.886 72.4009 221.597 75.1884 222.918 77.9269C224.238 80.6663 224.899 84.0767 224.899 88.1574C224.942 90.2088 224.964 92.272 224.964 94.3444V98.47C224.964 99.5823 225.051 100.499 225.226 101.219C225.401 101.94 225.75 102.475 226.274 102.823C226.797 103.174 227.583 103.348 228.63 103.348C229.678 103.348 230.556 103.037 231.266 102.415C231.975 101.793 232.526 101.012 232.919 100.073C233.312 99.1351 233.552 98.153 233.639 97.1269H236.585C236.192 100.008 235.537 102.3 234.621 104.002C233.835 105.464 232.88 106.697 231.757 107.701C230.633 108.706 229.328 109.383 227.844 109.731C226.622 110.015 225.411 110.157 224.211 110.157C222.726 110.157 221.346 109.922 220.07 109.453C218.793 108.984 217.762 108.225 216.975 107.177C215.536 105.17 214.815 102.53 214.815 99.2552V85.899C214.815 84.7419 214.575 83.6178 214.096 82.5266C213.615 81.4354 212.851 80.6274 211.804 80.1042C211.192 79.7762 210.559 79.6131 209.904 79.6131C209.315 79.6131 208.682 79.7762 208.006 80.1042C206.959 80.6274 206.2 81.4354 205.731 82.5266C205.262 83.6178 205.027 84.7419 205.027 85.899L205.06 96.2436V104.166Z" fill="#010100"/>
<path d="M62.5295 99.8601C64.2132 99.8601 65.896 99.5001 67.5805 98.7782C66.1369 96.584 64.6865 94.7119 63.2285 93.1634C61.7696 91.6158 60.2592 90.5416 58.6964 89.9398C57.8546 89.6397 57.0727 89.4884 56.3509 89.4884C55.1786 89.4884 54.2091 89.8189 53.4425 90.4807C52.6759 91.1425 52.293 91.9539 52.293 92.9158C52.293 94.5395 53.3445 96.1031 55.4499 97.6051C57.7337 99.1096 60.0944 99.8601 62.5295 99.8601ZM100.004 128C98.7412 128 97.4632 127.834 96.1709 127.505C93.3445 126.692 90.6694 125.407 88.1438 123.649C85.6183 121.89 83.4233 120.019 81.5604 118.034C77.8313 113.914 74.6001 109.646 71.8641 105.226C67.5949 108.353 62.9648 109.917 57.9746 109.917C55.7796 109.917 53.4349 109.586 50.9398 108.925C46.6402 107.691 43.1156 105.731 40.3645 103.04C37.6141 100.35 35.5847 97.1698 34.2772 93.5024C32.9696 89.8341 32.3154 85.9867 32.3154 81.9575C32.3154 77.0274 33.2401 72.1488 35.0886 67.3234C36.9379 62.4981 39.5826 58.3125 43.0252 54.7643C46.4678 51.2178 50.6085 48.797 55.4499 47.5039C53.8263 50.0598 52.3378 52.8702 50.9846 55.9375C49.6323 59.0039 48.5419 62.236 47.7153 65.633C46.8879 69.0299 46.4754 72.4725 46.4754 75.9599C46.4754 78.9967 46.8507 82.0184 47.6029 85.024C48.0534 86.7372 48.6096 88.3161 49.2714 89.7589C49.8419 88.8571 50.6161 87.9932 51.594 87.1658C52.5703 86.3391 53.7882 85.6554 55.2462 85.1144C56.7042 84.5726 58.4259 84.3022 60.4097 84.3022C63.717 84.363 66.6406 84.9412 69.1814 86.0391C71.7212 87.137 74.0439 88.6018 76.1485 90.4351C76.9895 88.9019 77.7265 87.1886 78.3579 85.2945C79.3798 82.108 79.8911 78.8158 79.8911 75.4189C79.8911 71.4802 79.2302 67.6167 77.9074 63.8284C76.5838 60.041 74.6296 56.7193 72.045 53.8624C69.489 51.2178 66.4978 48.5418 63.0704 45.8354L59.6887 43.0394C58.6356 42.288 57.4937 41.5062 56.2613 40.6948C53.3749 38.8615 50.6246 36.8389 48.0086 34.6295C45.3927 32.4201 43.6642 29.9774 42.8224 27.3014C42.5815 26.3996 42.4614 25.5282 42.4614 24.6855C42.4614 22.6417 43.0176 20.7476 44.1299 19.0039C45.2422 17.2602 46.603 15.6518 48.2115 14.1786C49.8191 12.7062 51.4503 11.3217 53.1044 10.0294C54.0063 9.33798 54.8473 8.6618 55.63 8C54.4272 9.53407 53.5254 10.7816 52.9244 11.7435C52.1122 13.0062 51.7064 14.3586 51.7064 15.8014C51.7064 18.0869 53.134 20.4619 55.9909 22.9274C58.1555 24.7911 60.8306 26.8357 64.0179 29.0603C68.4967 32.1268 73.1868 35.8542 78.0874 40.2434C82.5671 44.4222 86.0316 48.9179 88.4819 53.7272C90.9322 58.5382 92.157 63.5436 92.157 68.7442C92.157 71.7811 91.7064 74.8619 90.8046 77.9884C89.3314 83.1003 86.1441 88.9779 81.2443 95.6213C82.0557 96.5536 82.9872 97.6659 84.0403 98.9583C88.0086 103.859 91.496 107.691 94.5024 110.458C99.0717 114.667 103.146 116.771 106.723 116.771C108.888 116.771 110.947 115.899 112.901 114.156L112.947 115.284C112.947 117.778 112.36 119.98 111.188 121.89C110.016 123.798 108.444 125.294 106.476 126.377C104.506 127.459 102.349 128 100.004 128Z" fill="#010100"/>
<path d="M186.32 46.3664C186.181 46.3664 186.068 46.254 186.068 46.1145C186.068 45.9759 186.181 45.8635 186.32 45.8635C186.459 45.8635 186.572 45.9759 186.572 46.1145C186.572 46.254 186.459 46.3664 186.32 46.3664ZM188.027 46.3512C187.8 44.7876 185.531 45.0901 185.531 45.0901C183.625 45.2575 181.622 47.663 181.622 47.663C180.159 49.6543 176.427 51.2941 176.427 51.2941C178.949 50.9915 180.387 49.7558 180.387 49.7558C182.806 48.6967 181.899 50.8402 181.899 50.8402C180.108 56.0602 170.098 59.6152 170.098 59.6152C172.518 59.5147 177.536 56.5133 177.536 56.5133C181.672 54.5219 182.403 51.6465 182.403 51.6465C183.16 48.4693 185.757 48.2428 185.757 48.2428C188.254 47.5108 188.027 46.3512 188.027 46.3512Z" fill="black"/>
<path d="M188.287 46.1497C188.287 46.1497 188.221 47.0067 187.825 47.5282C187.825 47.5282 190.591 47.5874 191.607 47.4353C191.607 47.4353 192.112 47.2366 191.313 46.8444C191.313 46.8444 191.179 46.7126 190.347 46.6957C190.347 46.6957 188.935 46.4438 188.287 46.1497Z" fill="black"/>
<path d="M170.299 54.3073C170.299 54.3073 169.064 54.9632 167.311 51.3068C167.311 51.3068 166.466 49.5411 166.176 47.9022C166.176 47.9022 165.962 47.0198 164.31 46.9311C164.31 46.9311 164.436 46.5025 165.117 46.3639C165.117 46.3639 161.044 45.3598 158.271 41.1058C158.271 41.1058 158.64 41.3416 159.565 41.2072C159.565 41.2072 158.17 40.6519 157.564 38.8364C157.564 38.8364 158.001 39.1728 158.691 39.2066C158.691 39.2066 158.001 38.7189 157.379 35.7598C157.379 35.7598 157.733 37.3742 163.398 39.5599C163.398 39.5599 165.583 40.5345 166.66 40.6519C166.66 40.6519 173.3 41.678 174.326 44.2669C174.326 44.2669 174.897 45.4604 174.695 47.2261C174.695 47.2261 174.612 47.5447 175.502 51.0583C175.502 51.0583 174.612 50.5207 173.686 47.1922C173.686 47.1922 174.225 44.9389 172.409 43.5772C172.409 43.5772 169.719 41.6611 161.011 42.2156C161.011 42.2156 161.734 45.0065 167.668 46.3352C167.668 46.3352 167.366 53.2187 170.299 54.3073Z" fill="black"/>
<path d="M97.1141 41.3513H92.5786V36.1954H107.489V41.3513H102.985V59.1812H97.1141V41.3513Z" fill="black"/>
<path d="M115.737 54.0243H118.253C122.633 54.0243 123.875 50.9799 123.875 47.719C123.875 46.4148 123.596 44.7675 122.757 43.4633C122.074 42.4381 120.893 41.3511 118.285 41.3511H115.737V54.0243ZM109.867 36.1953H117.477C120.055 36.1953 124.652 36.1953 127.634 40.4814C129.218 42.6553 129.746 45.1098 129.746 47.6252C129.746 53.9001 126.64 59.1802 117.911 59.1802H109.867V36.1953Z" fill="black"/>
<path d="M155.855 50.5765C154.519 56.0121 149.798 59.6152 144.238 59.6152C137.032 59.6152 132.124 53.8694 132.124 47.6562C132.124 41.7862 136.659 35.7606 144.176 35.7606C151.382 35.7606 155.234 41.3196 155.855 44.9236H149.704C149.052 43.2154 147.313 40.9165 144.145 40.9165C140.2 40.9165 137.994 44.3641 137.994 47.6258C137.994 51.1039 140.355 54.4594 144.176 54.4594C147.841 54.4594 149.331 51.3845 149.704 50.5765H155.855Z" fill="black"/>
</svg>
