<svg width="136" height="136" viewBox="0 0 136 136" fill="none" xmlns="http://www.w3.org/2000/svg">
<path d="M114.893 73.5192C114.893 100.275 93.2034 121.966 66.4463 121.966C39.69 121.966 18 100.275 18 73.5192C18 46.7629 39.69 25.0721 66.4463 25.0721C93.2034 25.0721 114.893 46.7629 114.893 73.5192Z" fill="#EFDAC0"/>
<path d="M68.5297 99.8601C70.2134 99.8601 71.8962 99.5001 73.5808 98.7782C72.1371 96.584 70.6867 94.7119 69.2287 93.1634C67.7699 91.6158 66.2595 90.5416 64.6967 89.9398C63.8548 89.6397 63.073 89.4884 62.3512 89.4884C61.1789 89.4884 60.2094 89.8189 59.4428 90.4807C58.6762 91.1425 58.2933 91.9539 58.2933 92.9158C58.2933 94.5395 59.3447 96.1031 61.4502 97.6051C63.734 99.1096 66.0947 99.8601 68.5297 99.8601ZM106.004 128C104.741 128 103.463 127.834 102.171 127.505C99.3447 126.692 96.6696 125.407 94.1441 123.649C91.6186 121.89 89.4235 120.019 87.5607 118.034C83.8316 113.914 80.6003 109.646 77.8643 105.226C73.5951 108.353 68.965 109.917 63.9748 109.917C61.7798 109.917 59.4352 109.586 56.9401 108.925C52.6405 107.691 49.1159 105.731 46.3647 103.04C43.6144 100.35 41.585 97.1698 40.2774 93.5024C38.9699 89.8341 38.3157 85.9867 38.3157 81.9575C38.3157 77.0274 39.2395 72.1488 41.0888 67.3234C42.9382 62.4981 45.5829 58.3125 49.0254 54.7643C52.468 51.2178 56.6088 48.797 61.4502 47.5039C59.8265 50.0598 58.3381 52.8702 56.9849 55.9375C55.6325 59.0039 54.5422 62.236 53.7156 65.633C52.8881 69.0299 52.4756 72.4725 52.4756 75.9599C52.4756 78.9967 52.8509 82.0184 53.6032 85.024C54.0537 86.7372 54.6098 88.3161 55.2716 89.7589C55.8421 88.8571 56.6164 87.9932 57.5943 87.1658C58.5705 86.3391 59.7885 85.6554 61.2465 85.1144C62.7045 84.5726 64.4262 84.3022 66.4099 84.3022C69.7173 84.363 72.6409 84.9412 75.1816 86.0382C77.7215 87.137 80.0441 88.6018 82.1487 90.4351C82.9897 88.9019 83.7268 87.1886 84.3581 85.2945C85.38 82.108 85.8914 78.8158 85.8914 75.4189C85.8914 71.4802 85.2304 67.6167 83.9076 63.8284C82.584 60.041 80.6299 56.7193 78.0452 53.8624C75.4893 51.2178 72.498 48.5418 69.0707 45.8354L65.6889 43.0394C64.6358 42.288 63.4939 41.5062 62.2616 40.6948C59.3752 38.8606 56.6248 36.8389 54.0089 34.6295C51.3929 32.4201 49.6644 29.9774 48.8226 27.3014C48.5817 26.3996 48.4617 25.5282 48.4617 24.6855C48.4617 22.6417 49.0178 20.7476 50.1302 19.0039C51.2425 17.2602 52.6033 15.6518 54.2117 14.1786C55.8193 12.7062 57.4506 11.3217 59.1047 10.0294C60.0065 9.33798 60.8475 8.6618 61.6302 8C60.4275 9.53407 59.5256 10.7816 58.9247 11.7435C58.1124 13.0062 57.7067 14.3586 57.7067 15.8014C57.7067 18.0869 59.1343 20.4619 61.9911 22.9274C64.1557 24.7911 66.8308 26.8357 70.0182 29.0603C74.497 32.1268 79.1871 35.8542 84.0877 40.2434C88.5673 44.4222 92.0319 48.9179 94.4822 53.7272C96.9325 58.5382 98.1572 63.5436 98.1572 68.7442C98.1572 71.7811 97.7067 74.8619 96.8048 77.9884C95.3316 83.1003 92.1443 88.9779 87.2446 95.6213C88.056 96.5536 88.9874 97.6659 90.0406 98.9583C94.0089 103.859 97.4962 107.691 100.503 110.458C105.072 114.667 109.146 116.771 112.724 116.771C114.888 116.771 116.947 115.899 118.901 114.156L118.947 115.284C118.947 117.778 118.36 119.98 117.188 121.89C116.016 123.798 114.445 125.294 112.476 126.377C110.506 127.459 108.35 128 106.004 128Z" fill="#010100"/>
</svg>
